<?xml version="1.0" encoding="UTF-8"?>
<svg id="Layer_1" xmlns="http://www.w3.org/2000/svg" version="1.1" viewBox="0 0 400 400">
  <!-- Generator: Adobe Illustrator 29.5.1, SVG Export Plug-In . SVG Version: 2.1.0 Build 141)  -->
  <defs>
    <style>
      .st0 {
        fill: #c65b28;
      }
    </style>
  </defs>
  <path class="st0" d="M170.4,397.4c-22.5,0-43.7-8.8-59.6-24.7-15.9-15.9-24.7-37.1-24.7-59.6,0-22.5,8.8-43.7,24.7-59.6,15.9-15.9,37.1-24.7,59.6-24.7s27,3.3,39,9.5l15.5-26c-1.5-1.2-3-2.6-4.4-3.9-10.3-10.3-16-24.1-16-38.7,0-14.6,5.7-28.4,16-38.7,5.9-5.9,13.2-10.4,21.1-13.1l-8.4-37.7c-10.1-.2-19.5-4.2-26.6-11.3-7.3-7.3-11.3-17-11.3-27.4,0-10.3,4-20,11.3-27.3,7.3-7.3,17-11.3,27.3-11.3s20,4,27.3,11.3c7.3,7.3,11.3,17,11.3,27.3s-4,20-11.3,27.3c-2.6,2.6-5.6,4.8-9,6.7l8.8,39.5c13.9.5,26.9,6.1,36.8,16,10.3,10.3,16,24.1,16,38.7s-5.7,28.4-16,38.7c-10.3,10.3-24.1,16-38.7,16s-11.5-.9-17-2.7l-16.5,27.7c1.6,1.4,3,2.7,4.4,4.1,15.9,15.9,24.7,37.1,24.7,59.6s-8.8,43.7-24.7,59.6c-15.9,15.9-37.1,24.7-59.6,24.7ZM170.4,248.4c-17.3,0-33.5,6.7-45.7,18.9-12.2,12.2-18.9,28.5-18.9,45.7s6.7,33.5,18.9,45.7c12.2,12.2,28.5,18.9,45.7,18.9s33.5-6.7,45.7-18.9c12.2-12.2,18.9-28.5,18.9-45.7s-6.7-33.5-18.9-45.7c-12.2-12.2-28.5-18.9-45.7-18.9h0ZM259.2,134.4c-9.4,0-18.2,3.7-24.8,10.3-6.6,6.6-10.3,15.4-10.3,24.8s3.6,18.2,10.3,24.8c6.6,6.6,15.4,10.3,24.8,10.3,9.4,0,18.2-3.7,24.8-10.3,6.6-6.6,10.3-15.4,10.3-24.8,0-9.4-3.7-18.2-10.3-24.8-6.6-6.6-15.4-10.3-24.8-10.3ZM234,18.6c-6.1,0-11.8,2.4-16,6.6-4.3,4.3-6.6,10-6.6,16s2.4,11.8,6.7,16c4.3,4.3,10,6.6,16,6.6,6.1,0,11.8-2.4,16-6.6,4.3-4.3,6.6-10,6.6-16s-2.4-11.7-6.6-16c-4.3-4.3-10-6.6-16-6.6Z"/>
  <path class="st0" d="M234,5.1c10,0,19.1,4.1,25.6,10.6,6.5,6.5,10.6,15.6,10.6,25.6s-4.1,19.1-10.6,25.6c-2.9,2.9-6.3,5.3-10.1,7.1l9.6,43.2s0,0,0,0h0c14.4,0,27.5,5.9,37,15.3,9.5,9.4,15.3,22.6,15.3,37s-5.9,27.5-15.3,37c-9.4,9.4-22.6,15.3-37,15.3s-12.5-1.1-18.1-3.2l-18.6,31.2c2,1.7,4,3.5,5.9,5.3,14.8,14.8,24,35.3,24,57.9s-9.2,43.1-24,57.9c-14.8,14.8-35.3,24-57.9,24s-43.1-9.2-57.9-24c-14.8-14.8-24-35.3-24-57.9,0-22.6,9.2-43.1,24-57.9,14.8-14.8,35.3-24,57.9-24,0,0,0,0,0,0,0,0,0,0,0,0,14.4,0,28,3.8,39.8,10.3l17.8-29.9c-2.1-1.5-4.1-3.2-5.9-5.1-9.5-9.4-15.3-22.6-15.3-37,0-14.4,5.9-27.5,15.3-37,6.1-6.1,13.8-10.7,22.3-13.2l-9.3-41.8c-.4,0-.8,0-1.2,0s0,0,0,0c-10,0-19-4.1-25.6-10.6-6.5-6.5-10.6-15.6-10.6-25.6,0-10,4.1-19.1,10.6-25.6,6.5-6.5,15.6-10.6,25.6-10.6M234,66.5c7,0,13.2-2.8,17.8-7.4,4.6-4.6,7.4-10.8,7.4-17.8s-2.8-13.2-7.4-17.8c-4.6-4.6-10.8-7.4-17.8-7.4-7,0-13.2,2.8-17.8,7.4-4.6,4.6-7.4,10.8-7.4,17.8s2.8,13.2,7.4,17.8c4.6,4.6,10.8,7.4,17.8,7.4M259.2,207.1c10.4,0,19.7-4.2,26.6-11,6.8-6.8,11-16.2,11-26.6,0-10.4-4.2-19.7-11-26.6-6.8-6.8-16.2-11-26.6-11-10.4,0-19.7,4.2-26.5,11-6.8,6.8-11,16.2-11,26.6s4.2,19.7,11,26.6c6.8,6.8,16.1,11,26.5,11M170.4,380.1c18.6,0,35.3-7.5,47.5-19.7,12.2-12.2,19.7-28.9,19.7-47.5s-7.5-35.3-19.7-47.5c-12.2-12.2-28.9-19.7-47.5-19.7-18.6,0-35.3,7.5-47.5,19.7-12.2,12.2-19.7,28.9-19.7,47.5s7.5,35.3,19.7,47.5c12.2,12.2,28.9,19.7,47.5,19.7M234,.2c-11,0-21.3,4.3-29.1,12.1-7.8,7.8-12.1,18.1-12.1,29.1,0,11,4.3,21.3,12.1,29.1,7.1,7.1,16.4,11.3,26.3,12l7.5,33.7c-7.5,2.9-14.3,7.3-20,13-10.8,10.8-16.8,25.2-16.7,40.5,0,15.3,5.9,29.7,16.8,40.5,1,.9,1.9,1.9,3,2.7l-13.3,22.3c-11.8-5.7-24.8-8.7-37.9-8.7h0c-23.2,0-45,9-61.4,25.4-16.4,16.4-25.4,38.2-25.4,61.4,0,23.2,9,45,25.4,61.4,16.4,16.4,38.2,25.4,61.4,25.4s45-9,61.4-25.4c16.4-16.4,25.4-38.2,25.4-61.4s-9-45-25.4-61.4c-1-1-2-1.9-3-2.9l14.5-24.3c5.2,1.5,10.5,2.2,15.9,2.2,15.3,0,29.7-6,40.5-16.8,10.8-10.8,16.8-25.2,16.8-40.5s-6-29.7-16.8-40.5c-9.9-9.9-22.7-15.7-36.5-16.6l-8-35.8c2.9-1.7,5.6-3.8,7.9-6.2,7.8-7.8,12-18.1,12-29.1s-4.3-21.3-12-29.1C255.3,4.5,245,.2,234,.2h0ZM234,61.5c-5.4,0-10.5-2.1-14.3-5.9-3.8-3.8-5.9-8.9-5.9-14.3s2.1-10.5,5.9-14.3c3.8-3.8,8.9-5.9,14.3-5.9,5.4,0,10.5,2.1,14.3,5.9,3.8,3.8,5.9,8.9,5.9,14.3s-2.1,10.5-5.9,14.3c-3.8,3.8-8.9,5.9-14.3,5.9h0ZM259.2,202.1c-8.7,0-16.9-3.4-23.1-9.6-6.2-6.2-9.6-14.4-9.6-23.1s3.4-16.9,9.6-23.1c6.2-6.2,14.3-9.5,23.1-9.6,8.7,0,16.9,3.4,23.1,9.6,6.1,6.2,9.5,14.4,9.6,23.1,0,8.7-3.4,16.9-9.6,23.1-6.2,6.1-14.4,9.5-23.1,9.5h0ZM170.4,375.2c-16.6,0-32.2-6.5-44-18.2-11.7-11.8-18.2-27.4-18.2-44s6.5-32.2,18.2-44c11.7-11.7,27.4-18.2,44-18.2,16.6,0,32.2,6.5,44,18.2,11.7,11.8,18.2,27.4,18.2,44s-6.5,32.2-18.2,44c-11.8,11.7-27.4,18.2-44,18.2h0Z"/>
</svg>