<?xml version="1.0" encoding="utf-8"?>
<!-- Generator: Adobe Illustrator 19.0.0, SVG Export Plug-In . SVG Version: 6.00 Build 0)  -->
<svg version="1.1" id="Layer_1" xmlns="http://www.w3.org/2000/svg" xmlns:xlink="http://www.w3.org/1999/xlink" x="0px" y="0px"
	 viewBox="0 0 118 40" style="enable-background:new 0 0 118 40;" xml:space="preserve">
<style type="text/css">
	.st0{fill:#C65B28;}
	.st1{fill:#9E9E9E;}
</style>
<path class="st0" d="M6,26.5H2.2v-1.9c0.4,0,0.7-0.1,0.9-0.3c0.2-0.2,0.3-0.5,0.3-0.9V13.4c0-0.4-0.1-0.7-0.3-0.9
	c-0.2-0.2-0.5-0.3-0.9-0.3v-1.9h3.7c1.3,0,2.2,0.1,2.9,0.2c0.7,0.1,1.2,0.4,1.7,0.7c0.7,0.5,1.3,1.3,1.6,2.4
	c0.3,1.1,0.5,2.7,0.5,4.8c0,2.2-0.2,3.7-0.5,4.8c-0.3,1-0.9,1.8-1.6,2.3c-0.5,0.3-1.1,0.6-1.7,0.7C8,26.4,7.1,26.5,6,26.5z
	 M6.5,12.3v12.4H7c0.4,0,0.8,0,1.1-0.2c0.3-0.1,0.5-0.3,0.6-0.5c0.2-0.3,0.4-0.8,0.5-1.5c0.1-0.7,0.1-2,0.1-4.1c0-2.1,0-3.4-0.1-4.1
	c-0.1-0.7-0.2-1.1-0.5-1.5c-0.1-0.2-0.4-0.4-0.6-0.5c-0.3-0.1-0.6-0.1-1.1-0.1H6.5z"/>
<path class="st0" d="M20,25.1c-0.3,0.6-0.7,1.1-1.2,1.4c-0.5,0.3-1.1,0.5-1.7,0.5c-1,0-1.7-0.3-2.3-0.8c-0.6-0.6-0.8-1.3-0.8-2.2
	c0-0.8,0.2-1.5,0.7-2.1c0.4-0.6,1.3-1.2,2.6-1.8c1.1-0.5,1.8-1,2.1-1.4c0.3-0.4,0.5-0.8,0.5-1.4c0-0.5-0.2-1-0.5-1.3
	c-0.3-0.3-0.8-0.5-1.4-0.5c-0.4,0-0.7,0.1-1,0.2c-0.3,0.1-0.5,0.3-0.8,0.6c0,0,0,0,0.1,0c0.1,0,0.2,0,0.3,0c0.4,0,0.8,0.1,1,0.4
	c0.3,0.3,0.4,0.6,0.4,1.1c0,0.5-0.2,0.8-0.5,1.1c-0.3,0.3-0.7,0.4-1.2,0.4c-0.5,0-1-0.2-1.3-0.5c-0.3-0.3-0.5-0.8-0.5-1.4
	c0-1,0.4-1.8,1.2-2.4c0.8-0.6,1.8-0.9,3-0.9c0.9,0,1.6,0.1,2.2,0.4c0.6,0.3,1.1,0.7,1.4,1.3c0.1,0.2,0.2,0.5,0.3,0.9
	c0.1,0.4,0.1,1,0.1,1.8v6c0,0.3,0,0.5,0.1,0.6C22.8,25,22.8,25,23,25c0.2,0,0.3-0.1,0.4-0.3c0.1-0.2,0.1-0.6,0.1-1.2V23h1.1v0.9
	c0,1-0.2,1.8-0.6,2.3c-0.4,0.5-1,0.7-1.9,0.7c-0.6,0-1-0.1-1.4-0.4C20.4,26.1,20.1,25.7,20,25.1z M19.7,20.2
	c-1.2,0.8-1.9,1.4-2.3,1.8c-0.3,0.4-0.5,0.9-0.5,1.4c0,0.4,0.1,0.7,0.3,1c0.2,0.2,0.5,0.4,0.9,0.4c0.5,0,0.9-0.2,1.2-0.7
	c0.3-0.5,0.4-1.2,0.4-2.2V20.2z"/>
<path class="st0" d="M26.4,15.8h-1.2l0-1.6c0.8,0,1.4-0.3,1.8-0.8c0.4-0.5,0.6-1.3,0.7-2.5h1.7v3.2h2.1v1.6h-2.1v8.3
	c0,0.4,0,0.7,0.1,0.8c0.1,0.1,0.2,0.2,0.4,0.2c0.2,0,0.4-0.1,0.4-0.2c0.1-0.2,0.1-0.4,0.1-0.8c0-0.2,0-0.4,0-0.6c0-0.1,0-0.1,0-0.1
	v-0.8h1.3V24c0,1-0.2,1.7-0.6,2.1c-0.4,0.5-1,0.7-1.9,0.7c-1.1,0-1.8-0.2-2.3-0.7c-0.4-0.4-0.6-1.3-0.6-2.5V15.8z"/>
<path class="st0" d="M39.3,25.1c-0.3,0.6-0.7,1.1-1.2,1.4c-0.5,0.3-1.1,0.5-1.7,0.5c-1,0-1.7-0.3-2.3-0.8s-0.8-1.3-0.8-2.2
	c0-0.8,0.2-1.5,0.7-2.1c0.4-0.6,1.3-1.2,2.6-1.8c1.1-0.5,1.8-1,2.1-1.4c0.3-0.4,0.5-0.8,0.5-1.4c0-0.5-0.2-1-0.5-1.3
	c-0.3-0.3-0.8-0.5-1.4-0.5c-0.4,0-0.7,0.1-1,0.2c-0.3,0.1-0.5,0.3-0.8,0.6c0,0,0,0,0.1,0c0.1,0,0.2,0,0.3,0c0.4,0,0.8,0.1,1,0.4
	c0.3,0.3,0.4,0.6,0.4,1.1c0,0.5-0.2,0.8-0.5,1.1c-0.3,0.3-0.7,0.4-1.2,0.4c-0.5,0-1-0.2-1.3-0.5c-0.3-0.3-0.5-0.8-0.5-1.4
	c0-1,0.4-1.8,1.2-2.4c0.8-0.6,1.8-0.9,3-0.9c0.9,0,1.6,0.1,2.2,0.4c0.6,0.3,1.1,0.7,1.4,1.3c0.1,0.2,0.2,0.5,0.3,0.9
	c0.1,0.4,0.1,1,0.1,1.8v6c0,0.3,0,0.5,0.1,0.6c0.1,0.1,0.1,0.1,0.3,0.1c0.2,0,0.3-0.1,0.4-0.3c0.1-0.2,0.1-0.6,0.1-1.2V23h1.1v0.9
	c0,1-0.2,1.8-0.6,2.3c-0.4,0.5-1,0.7-1.9,0.7c-0.6,0-1-0.1-1.4-0.4C39.7,26.1,39.5,25.7,39.3,25.1z M39.1,20.2
	c-1.2,0.8-1.9,1.4-2.3,1.8c-0.3,0.4-0.5,0.9-0.5,1.4c0,0.4,0.1,0.7,0.3,1c0.2,0.2,0.5,0.4,0.9,0.4c0.5,0,0.9-0.2,1.2-0.7
	c0.3-0.5,0.4-1.2,0.4-2.2V20.2z"/>
<path class="st0" d="M47.2,26.5l-2.5-9.9c-0.1-0.3-0.2-0.5-0.3-0.6c-0.1-0.1-0.3-0.1-0.6-0.2l0-1.6h4.9v1.6c-0.3,0-0.6,0-0.7,0.1
	c-0.1,0.1-0.2,0.2-0.2,0.5c0,0,0,0.1,0,0.1c0,0.1,0,0.1,0,0.2l1.2,6.4l1.4-6.4c0-0.1,0-0.1,0-0.2c0-0.1,0-0.1,0-0.2
	c0-0.2-0.1-0.3-0.2-0.4c-0.2-0.1-0.4-0.1-0.7-0.1v-1.6h3.6v1.6c-0.2,0.1-0.4,0.1-0.6,0.3c-0.1,0.1-0.2,0.3-0.3,0.5l-2.5,9.9H47.2z"
	/>
<path class="st0" d="M57,20.8v0.7c0,1.2,0.1,2.1,0.4,2.7c0.3,0.6,0.7,0.9,1.3,0.9c0.5,0,0.8-0.2,1.1-0.6c0.3-0.4,0.4-0.9,0.4-1.7
	v-1.1h2.1v0.7c0,1.5-0.3,2.7-0.9,3.4c-0.6,0.7-1.6,1.1-2.9,1.1c-1.6,0-2.8-0.5-3.5-1.6c-0.8-1.1-1.1-2.7-1.1-5
	c0-2.1,0.4-3.7,1.1-4.8c0.8-1.1,1.9-1.7,3.3-1.7c1.3,0,2.2,0.4,2.9,1.3c0.7,0.9,1,2.1,1,3.8v1.8H57z M57,19h2.5v-0.4
	c0-1.2-0.1-2-0.3-2.4c-0.2-0.4-0.5-0.7-0.9-0.7c-0.5,0-0.8,0.3-1,0.8C57.2,16.8,57,17.7,57,19z"/>
<path class="st0" d="M67.3,15.3c0.3-0.4,0.5-0.7,0.9-0.9c0.3-0.2,0.7-0.3,1.1-0.3c0.7,0,1.2,0.2,1.6,0.7c0.4,0.4,0.6,1,0.6,1.8
	c0,0.7-0.1,1.2-0.4,1.5c-0.3,0.4-0.7,0.6-1.2,0.6c-0.4,0-0.7-0.1-1-0.4c-0.2-0.3-0.4-0.6-0.4-1.1c0-0.5,0.1-0.8,0.4-1.1
	c0.3-0.3,0.6-0.4,1.1-0.5c-0.1-0.1-0.2-0.2-0.3-0.2c-0.1,0-0.2-0.1-0.4-0.1c-0.5,0-0.9,0.2-1.1,0.7c-0.2,0.5-0.3,1.3-0.3,2.4v5.5
	c0,0.4,0.1,0.7,0.2,0.8c0.1,0.1,0.4,0.2,0.8,0.2h0.5v1.6h-5.5v-1.6c0.5,0,0.7-0.1,0.9-0.2c0.1-0.1,0.2-0.4,0.2-0.8v-7
	c0-0.4-0.1-0.7-0.2-0.8c-0.1-0.1-0.4-0.2-0.9-0.2v-1.6h3.5V15.3z"/>
<path class="st0" d="M72.5,26.5v-4.9H74c0.1,1.1,0.4,1.9,0.9,2.6c0.5,0.7,1.1,1,1.9,1c0.4,0,0.7-0.1,0.9-0.3
	c0.2-0.2,0.3-0.5,0.3-0.9c0-0.4-0.1-0.7-0.3-1c-0.2-0.3-0.6-0.6-1.3-1c-0.4-0.2-0.8-0.5-1.4-0.9c-0.6-0.3-1-0.6-1.1-0.7
	c-0.5-0.5-0.9-0.9-1.1-1.4c-0.2-0.5-0.3-1-0.3-1.6c0-1.1,0.3-1.9,0.9-2.6c0.6-0.7,1.4-1,2.5-1c0.5,0,0.9,0.1,1.3,0.3
	c0.4,0.2,0.8,0.4,1.1,0.8l0.6-0.7H80v4.4h-1.5c-0.1-1-0.4-1.8-0.8-2.3c-0.4-0.5-1-0.8-1.6-0.8c-0.3,0-0.6,0.1-0.9,0.3
	c-0.2,0.2-0.3,0.5-0.3,0.8c0,0.3,0.1,0.7,0.4,1c0.3,0.3,0.8,0.7,1.5,1.1c0.3,0.2,0.6,0.4,1.1,0.6c0.7,0.4,1.1,0.7,1.3,0.8
	c0.5,0.4,0.8,0.9,1,1.4s0.3,1.1,0.3,1.8c0,1.1-0.3,1.9-0.9,2.5c-0.6,0.6-1.4,1-2.4,1c-0.6,0-1.1-0.1-1.6-0.3
	c-0.5-0.2-0.9-0.5-1.3-0.9l-0.6,0.9H72.5z"/>
<path class="st0" d="M85,20.8v0.7c0,1.2,0.1,2.1,0.4,2.7c0.3,0.6,0.7,0.9,1.3,0.9c0.5,0,0.8-0.2,1.1-0.6c0.3-0.4,0.4-0.9,0.4-1.7
	v-1.1h2.1v0.7c0,1.5-0.3,2.7-0.9,3.4c-0.6,0.7-1.6,1.1-2.9,1.1c-1.6,0-2.8-0.5-3.5-1.6c-0.8-1.1-1.1-2.7-1.1-5
	c0-2.1,0.4-3.7,1.1-4.8c0.8-1.1,1.9-1.7,3.3-1.7c1.3,0,2.2,0.4,2.9,1.3c0.7,0.9,1,2.1,1,3.8v1.8H85z M85,19h2.5v-0.4
	c0-1.2-0.1-2-0.3-2.4c-0.2-0.4-0.5-0.7-0.9-0.7c-0.5,0-0.8,0.3-1,0.8C85.2,16.8,85.1,17.7,85,19z"/>
<path class="st0" d="M114.6,13.3c-0.9-0.9-2.2-1.5-3.6-1.5c0,0,0,0,0,0l-0.9-4.2c0.4-0.2,0.7-0.4,1-0.7c0.6-0.6,1-1.5,1-2.5
	c0-1-0.4-1.9-1-2.5c-0.6-0.6-1.5-1-2.5-1c-1,0-1.9,0.4-2.5,1c-0.6,0.6-1,1.5-1,2.5c0,1,0.4,1.9,1,2.5c0.6,0.6,1.5,1,2.5,1
	c0,0,0.1,0,0.1,0l0.9,4.1c-0.8,0.2-1.6,0.7-2.2,1.3c-0.9,0.9-1.5,2.2-1.5,3.6c0,1.4,0.6,2.7,1.5,3.6c0.2,0.2,0.4,0.3,0.6,0.5
	l-1.7,2.9c-1.1-0.6-2.5-1-3.9-1c-2.2,0-4.2,0.9-5.6,2.3c-1.4,1.4-2.3,3.4-2.3,5.6c0,2.2,0.9,4.2,2.3,5.6c1.4,1.4,3.4,2.3,5.6,2.3
	c2.2,0,4.2-0.9,5.6-2.3c1.4-1.4,2.3-3.4,2.3-5.6c0-2.2-0.9-4.2-2.3-5.6c-0.2-0.2-0.4-0.4-0.6-0.5l1.8-3c0.5,0.2,1.1,0.3,1.8,0.3
	c1.4,0,2.7-0.6,3.6-1.5c0.9-0.9,1.5-2.2,1.5-3.6C116.1,15.5,115.6,14.2,114.6,13.3z M106.1,4.4c0-0.7,0.3-1.3,0.7-1.7
	c0.4-0.4,1.1-0.7,1.7-0.7c0.7,0,1.3,0.3,1.7,0.7c0.4,0.4,0.7,1.1,0.7,1.7c0,0.7-0.3,1.3-0.7,1.7c-0.4,0.4-1.1,0.7-1.7,0.7
	c-0.7,0-1.3-0.3-1.7-0.7C106.4,5.7,106.1,5.1,106.1,4.4z M108.9,30.8c0,1.8-0.7,3.4-1.9,4.6c-1.2,1.2-2.8,1.9-4.6,1.9
	c-1.8,0-3.4-0.7-4.6-1.9c-1.2-1.2-1.9-2.8-1.9-4.6s0.7-3.4,1.9-4.6c1.2-1.2,2.8-1.9,4.6-1.9c1.8,0,3.4,0.7,4.6,1.9
	C108.2,27.4,108.9,29,108.9,30.8z M113.6,19.4c-0.7,0.7-1.6,1.1-2.6,1.1c-1,0-1.9-0.4-2.6-1.1c-0.7-0.7-1.1-1.6-1.1-2.6
	c0-1,0.4-1.9,1.1-2.6c0.7-0.7,1.6-1.1,2.6-1.1c1,0,1.9,0.4,2.6,1.1c0.7,0.7,1.1,1.6,1.1,2.6C114.7,17.9,114.3,18.8,113.6,19.4z"/>
<g>
	<path class="st1" d="M4.1,1.9H2.2V1.3h4.5v0.7H4.9v5.4H4.1V1.9z"/>
	<path class="st1" d="M7.4,0.9h0.8v2.7h0c0.1-0.2,0.3-0.4,0.6-0.6C9,3,9.2,2.9,9.5,2.9c0.6,0,1.5,0.4,1.5,1.9v2.6h-0.8V4.8
		c0-0.7-0.3-1.3-1-1.3c-0.5,0-0.9,0.4-1.1,0.8c0,0.1-0.1,0.2-0.1,0.4v2.6H7.4V0.9z"/>
	<path class="st1" d="M12.9,5.3c0,1.1,0.7,1.5,1.5,1.5c0.6,0,0.9-0.1,1.2-0.2l0.1,0.6c-0.3,0.1-0.8,0.3-1.5,0.3
		c-1.3,0-2.1-0.9-2.1-2.2c0-1.3,0.8-2.3,2-2.3c1.4,0,1.8,1.2,1.8,2c0,0.2,0,0.3,0,0.4H12.9z M15.2,4.7c0-0.5-0.2-1.3-1.1-1.3
		c-0.8,0-1.2,0.7-1.2,1.3H15.2z"/>
</g>
<g>
	<path class="st1" d="M61.5,30c0.4-0.1,1-0.1,1.7-0.1c0.9,0,1.5,0.2,1.9,0.6c0.4,0.3,0.6,0.8,0.6,1.4c0,0.6-0.2,1.1-0.5,1.5
		c-0.5,0.5-1.2,0.7-2.1,0.7c-0.3,0-0.5,0-0.7-0.1v2.7h-0.9V30z M62.4,33.3c0.2,0.1,0.4,0.1,0.7,0.1c1.1,0,1.7-0.5,1.7-1.4
		c0-0.9-0.6-1.3-1.6-1.3c-0.4,0-0.7,0-0.8,0.1V33.3z"/>
	<path class="st1" d="M66.7,33.4c0-0.6,0-1.1,0-1.5h0.8l0,1h0c0.2-0.7,0.8-1.1,1.4-1.1c0.1,0,0.2,0,0.2,0v0.8c-0.1,0-0.2,0-0.3,0
		c-0.6,0-1.1,0.5-1.2,1.1c0,0.1,0,0.3,0,0.4v2.6h-0.9V33.4z"/>
	<path class="st1" d="M74.4,34.2c0,1.8-1.3,2.6-2.4,2.6c-1.3,0-2.3-1-2.3-2.5c0-1.6,1.1-2.6,2.4-2.6C73.5,31.7,74.4,32.8,74.4,34.2z
		 M70.6,34.3c0,1.1,0.6,1.9,1.5,1.9c0.8,0,1.5-0.8,1.5-1.9c0-0.8-0.4-1.9-1.5-1.9C71,32.4,70.6,33.4,70.6,34.3z"/>
	<path class="st1" d="M74.4,38.2c0.4,0,0.8-0.1,1-0.4c0.2-0.3,0.3-0.7,0.3-1.8v-4.1h0.9v4.5c0,1-0.2,1.6-0.6,2
		c-0.4,0.4-1,0.6-1.5,0.6L74.4,38.2z M76.7,30.5c0,0.3-0.2,0.5-0.6,0.5c-0.3,0-0.5-0.3-0.5-0.5c0-0.3,0.2-0.6,0.6-0.6
		S76.7,30.2,76.7,30.5z"/>
	<path class="st1" d="M78.7,34.4c0,1.2,0.8,1.7,1.7,1.7c0.6,0,1-0.1,1.4-0.3l0.2,0.6c-0.3,0.1-0.9,0.3-1.6,0.3c-1.5,0-2.4-1-2.4-2.5
		c0-1.5,0.9-2.6,2.3-2.6c1.6,0,2,1.4,2,2.3c0,0.2,0,0.3,0,0.4H78.7z M81.3,33.8c0-0.6-0.2-1.4-1.2-1.4c-0.9,0-1.3,0.8-1.4,1.4H81.3z
		"/>
	<path class="st1" d="M86.8,36.6c-0.2,0.1-0.7,0.3-1.4,0.3c-1.5,0-2.4-1-2.4-2.5c0-1.5,1-2.6,2.6-2.6c0.5,0,1,0.1,1.2,0.3l-0.2,0.7
		c-0.2-0.1-0.5-0.2-1-0.2c-1.1,0-1.7,0.8-1.7,1.8c0,1.1,0.7,1.8,1.7,1.8c0.5,0,0.8-0.1,1.1-0.2L86.8,36.6z"/>
	<path class="st1" d="M89.1,30.7v1.2h1.3v0.7h-1.3v2.6c0,0.6,0.2,0.9,0.7,0.9c0.2,0,0.4,0,0.5-0.1l0,0.7c-0.2,0.1-0.4,0.1-0.8,0.1
		c-0.4,0-0.7-0.1-1-0.4c-0.2-0.3-0.3-0.7-0.3-1.3v-2.7h-0.8v-0.7h0.8v-0.9L89.1,30.7z"/>
</g>
<g>
	<path class="st0" d="M97,13.5c0,1.3-1,2.4-2.4,2.4c-1.4,0-2.4-1-2.4-2.4c0-1.3,1.1-2.4,2.4-2.4C95.9,11.2,97,12.2,97,13.5z
		 M92.7,13.5c0,1,0.8,1.9,1.8,1.9c1,0,1.8-0.8,1.8-1.9c0-1-0.8-1.9-1.8-1.9C93.5,11.7,92.7,12.5,92.7,13.5z M94.2,14.8h-0.5v-2.4
		c0.2,0,0.5-0.1,0.9-0.1c0.4,0,0.6,0.1,0.8,0.2c0.1,0.1,0.2,0.3,0.2,0.5c0,0.3-0.2,0.5-0.5,0.5v0c0.2,0.1,0.4,0.3,0.4,0.6
		c0.1,0.4,0.1,0.5,0.2,0.6h-0.6c-0.1-0.1-0.1-0.3-0.2-0.6c0-0.3-0.2-0.4-0.5-0.4h-0.3V14.8z M94.2,13.4h0.3c0.3,0,0.5-0.1,0.5-0.3
		c0-0.2-0.2-0.4-0.5-0.4c-0.1,0-0.2,0-0.3,0V13.4z"/>
</g>
</svg>
