<?xml version="1.0" encoding="utf-8"?>
<!-- Generator: Adobe Illustrator 21.1.0, SVG Export Plug-In . SVG Version: 6.00 Build 0)  -->
<svg version="1.1" xmlns="http://www.w3.org/2000/svg" xmlns:xlink="http://www.w3.org/1999/xlink" x="0px" y="0px"
	 viewBox="0 0 262.4 500" style="enable-background:new 0 0 262.4 500;" xml:space="preserve">
<style type="text/css">
	.st0{display:none;}
	.st1{fill:none;stroke:#DEBAA0;stroke-miterlimit:10;}
	.st2{display:inline;fill:none;stroke:#B76138;stroke-width:0.25;stroke-miterlimit:10;}
	.st3{fill:#B86138;}
</style>
<g id="Layer_1" class="st0">
	<path class="st1" d="M245.4,472.9"/>
	<path class="st2" d="M245.4,472.9c-4.8-3.5-9.2-7.4-13.4-11.6c-21.5-21.5-34.9-51.4-34.8-84.2c0-32.8,13.3-62.7,34.8-84.2
		c13.9-13.9,31.3-24.4,50.8-30.1l-21.2-95.3c-0.9,0-1.8,0.1-2.8,0.1c-22.7,0-43.4-9.2-58.3-24.1c-14.9-14.9-24.2-35.6-24.1-58.3
		c0-22.7,9.2-43.4,24.1-58.3C215.4,12.2,236.1,3,258.8,3s43.4,9.3,58.3,24.1C332,42,341.2,62.7,341.2,85.4
		c0,22.7-9.3,43.4-24.1,58.3c-6.6,6.6-14.4,12-22.9,16.1l21.9,98.4c0,0,0.1,0,0.1,0c32.8,0,62.7,13.4,84.2,34.9
		c21.5,21.5,34.9,51.4,34.9,84.2s-13.4,62.7-34.9,84.2c-21.5,21.5-51.4,34.9-84.2,34.9c-14.5,0-28.4-2.6-41.2-7.3l0,0
		C264.3,485,254.4,479.6,245.4,472.9z M201.5,85.4c0-15.8,6.4-30.1,16.8-40.5c10.4-10.4,24.6-16.8,40.5-16.8
		c15.9,0,30.1,6.4,40.5,16.8c10.4,10.4,16.8,24.6,16.8,40.5c0,15.9-6.4,30.1-16.8,40.5c-10.4,10.4-24.6,16.8-40.5,16.8
		c-15.9,0-30.1-6.4-40.5-16.8C207.9,115.5,201.5,101.3,201.5,85.4z M376.6,437.7c-15.5,15.5-36.8,25-60.5,25
		c-23.7,0-44.9-9.5-60.4-25c-15.5-15.5-25-36.8-25-60.5c0-23.7,9.5-44.9,25-60.5c15.5-15.5,36.8-25,60.4-25c23.7,0,44.9,9.5,60.5,25
		c15.5,15.5,25,36.8,25,60.5C401.6,400.9,392.1,422.1,376.6,437.7z"/>
</g>
<g id="Layer_2">
	<path class="st3" d="M142.1,258.7c0,0-0.1,0-0.1,0l0,0l-22-99.3c28-13.4,47.4-42,47.4-75.1c0-46-37.3-83.2-83.2-83.2S1,38.3,1,84.2
		s37.3,83.2,83.2,83.2c1,0,1.9,0,2.9-0.1l21.3,96.1C58.4,278.1,22,324.2,22,378.8C22,445.2,75.8,499,142.1,499
		s120.2-53.8,120.2-120.2S208.5,258.7,142.1,258.7z M84.2,142c-31.9,0-57.8-25.9-57.8-57.8c0-31.9,25.9-57.8,57.8-57.8
		c31.9,0,57.8,25.9,57.8,57.8C142,116.1,116.1,142,84.2,142z M142.1,465.1c-47.7,0-86.3-38.6-86.3-86.3s38.6-86.3,86.3-86.3
		s86.3,38.6,86.3,86.3S189.8,465.1,142.1,465.1z"/>
</g>
</svg>
