<?xml version="1.0" encoding="utf-8"?>
<!-- Generator: Adobe Illustrator 19.0.0, SVG Export Plug-In . SVG Version: 6.00 Build 0)  -->
<svg version="1.1" id="Layer_1" xmlns="http://www.w3.org/2000/svg" xmlns:xlink="http://www.w3.org/1999/xlink" x="0px" y="0px"
	 viewBox="0 0 1200 406.8" style="enable-background:new 0 0 1200 406.8;" xml:space="preserve">
<style type="text/css">
	.st0{fill:#C65B28;}
	.st1{fill:#9E9E9E;}
</style>
<path class="st0" d="M73.9,269H36.4v-18.7c4.2,0,7.1-0.8,8.9-2.5c1.7-1.6,2.6-4.5,2.6-8.5V139c0-4-0.9-6.9-2.6-8.5
	c-1.7-1.7-4.7-2.5-8.9-2.5v-18.7h36.5c12.5,0,22,0.7,28.5,2.1c6.5,1.4,12.1,3.7,16.7,6.9c7.3,5.1,12.6,12.9,15.7,23.3
	c3.1,10.4,4.6,26.3,4.6,47.6c0,21.3-1.6,37.1-4.8,47.4c-3.2,10.3-8.6,18-16.2,23.3c-4.8,3.3-10.6,5.7-17.1,7.1
	C93.7,268.3,84.9,269,73.9,269z M79.1,127.9v122.3h5c4.4,0,7.9-0.5,10.5-1.5c2.6-1,4.7-2.6,6.1-4.8c2.2-3.2,3.7-8,4.6-14.5
	c0.8-6.5,1.3-20,1.3-40.4c0-20.4-0.4-33.9-1.3-40.4c-0.9-6.5-2.4-11.3-4.6-14.5c-1.5-2.2-3.5-3.8-6.1-4.8c-2.6-1-6.1-1.5-10.5-1.5
	H79.1z"/>
<path class="st0" d="M212,254.6c-3.2,6-7.3,10.4-12.1,13.4c-4.8,3-10.4,4.5-16.8,4.5c-9.4,0-16.8-2.8-22.3-8.3
	c-5.5-5.5-8.2-12.9-8.2-22.3c0-8.3,2.2-15.2,6.6-20.7c4.4-5.5,13-11.4,25.7-17.6c10.9-5.3,17.8-9.8,20.8-13.4
	c3-3.6,4.5-8.3,4.5-13.9c0-5.4-1.7-9.8-5.1-13c-3.4-3.2-7.9-4.8-13.6-4.8c-3.8,0-7.1,0.6-10,1.8c-2.9,1.2-5.4,3-7.4,5.5
	c0.2,0,0.3,0,0.6-0.1c1.4-0.2,2.4-0.3,3.1-0.3c4.1,0,7.5,1.4,10.1,4.1c2.6,2.8,3.9,6.3,3.9,10.7c0,4.6-1.6,8.3-4.7,11.2
	c-3.1,2.9-7.1,4.4-12.1,4.4c-5.4,0-9.8-1.7-13.1-5c-3.3-3.3-5-7.8-5-13.5c0-9.8,3.8-17.7,11.4-23.9c7.6-6.2,17.6-9.3,29.9-9.3
	c8.9,0,16.3,1.4,22.2,4.1c5.9,2.7,10.6,6.9,14.2,12.5c1.3,2.1,2.3,5.3,2.9,9.4c0.6,4.1,0.9,10.2,0.9,18.2v59.3
	c0,2.7,0.3,4.5,0.8,5.5c0.5,0.9,1.4,1.4,2.6,1.4c1.8,0,3.1-1.1,3.9-3.2c0.7-2.1,1.1-6.1,1.1-11.9v-5.2h10.9v8.7
	c0,10.1-2,17.7-6.1,22.5c-4,4.9-10.3,7.3-18.6,7.3c-5.6,0-10.1-1.4-13.5-4.4C216.1,265.2,213.6,260.7,212,254.6z M209.5,206.3
	c-11.8,7.8-19.2,13.7-22.4,17.9c-3.2,4.1-4.8,8.7-4.8,13.7c0,4,1.1,7.2,3.2,9.6c2.1,2.3,5,3.5,8.5,3.5c5.2,0,9.1-2.4,11.7-7.2
	c2.6-4.8,3.9-11.9,3.9-21.5V206.3z"/>
<path class="st0" d="M276.1,163.4h-12l0.1-16.1c8-0.2,13.9-2.8,17.7-7.7c3.8-4.9,6.1-13,6.8-24.4h16.6v32.1h21.3v16.1h-21.3v82.1
	c0,4,0.4,6.7,1.2,8c0.8,1.4,2.1,2.1,4,2.1c2.1,0,3.5-0.8,4.4-2.3c0.8-1.5,1.3-4.1,1.3-7.8c0.1-1.8,0.1-3.7,0.2-5.5
	c0.1-0.6,0.1-0.9,0.1-1v-7.7h13.2v12.9c0,9.6-2,16.6-6.1,21.3c-4.1,4.6-10.4,7-18.9,7c-10.8,0-18.3-2.2-22.4-6.6
	c-4.2-4.4-6.2-12.6-6.2-24.6V163.4z"/>
<path class="st0" d="M403.7,254.6c-3.2,6-7.3,10.4-12.1,13.4c-4.8,3-10.4,4.5-16.7,4.5c-9.4,0-16.9-2.8-22.3-8.3
	c-5.5-5.5-8.2-12.9-8.2-22.3c0-8.3,2.2-15.2,6.6-20.7c4.4-5.5,13-11.4,25.7-17.6c10.9-5.3,17.8-9.8,20.8-13.4
	c3-3.6,4.5-8.3,4.5-13.9c0-5.4-1.7-9.8-5.1-13c-3.4-3.2-7.9-4.8-13.6-4.8c-3.7,0-7.1,0.6-10,1.8c-2.9,1.2-5.4,3-7.4,5.5
	c0.1,0,0.3,0,0.6-0.1c1.4-0.2,2.4-0.3,3.1-0.3c4.1,0,7.5,1.4,10.1,4.1c2.6,2.8,3.9,6.3,3.9,10.7c0,4.6-1.6,8.3-4.7,11.2
	c-3.1,2.9-7.1,4.4-12.1,4.4c-5.4,0-9.8-1.7-13.1-5c-3.3-3.3-5-7.8-5-13.5c0-9.8,3.8-17.7,11.4-23.9c7.6-6.2,17.6-9.3,29.9-9.3
	c8.9,0,16.3,1.4,22.2,4.1c5.9,2.7,10.6,6.9,14.2,12.5c1.3,2.1,2.3,5.3,2.9,9.4c0.6,4.1,0.9,10.2,0.9,18.2v59.3
	c0,2.7,0.3,4.5,0.8,5.5c0.5,0.9,1.4,1.4,2.6,1.4c1.8,0,3.1-1.1,3.9-3.2c0.7-2.1,1.1-6.1,1.1-11.9v-5.2h10.9v8.7
	c0,10.1-2,17.7-6.1,22.5c-4,4.9-10.2,7.3-18.6,7.3c-5.6,0-10.1-1.4-13.5-4.4C407.7,265.2,405.2,260.7,403.7,254.6z M401.1,206.3
	c-11.8,7.8-19.2,13.7-22.4,17.9c-3.2,4.1-4.8,8.7-4.8,13.7c0,4,1.1,7.2,3.2,9.6c2.1,2.3,5,3.5,8.5,3.5c5.2,0,9.1-2.4,11.7-7.2
	c2.6-4.8,3.9-11.9,3.9-21.5V206.3z"/>
<path class="st0" d="M482,269l-24.6-98.4c-0.7-2.9-1.8-4.8-3.1-5.7c-1.3-0.9-3.4-1.4-6.3-1.5l-0.1-16.1h48.7v16.1
	c-3.5,0-5.9,0.4-7.3,1.3c-1.4,0.8-2.1,2.4-2.1,4.6c0,0.3,0,0.7,0.1,1.2c0.1,0.5,0.2,1.3,0.3,2.3l12,63l13.8-62.9
	c0.1-0.7,0.3-1.3,0.3-1.9c0.1-0.6,0.1-1.3,0.1-2.2c0-1.9-0.8-3.3-2.3-4.1c-1.5-0.8-3.9-1.3-7.2-1.3v-16.1h35.8v16.1
	c-2.4,0.5-4.3,1.4-5.6,2.6c-1.3,1.2-2.2,3-2.7,5.2L507.2,269H482z"/>
<path class="st0" d="M578.8,212.1v7c0,11.9,1.4,20.7,4.3,26.3c2.9,5.7,7.3,8.5,13.3,8.5c4.6,0,8.1-1.9,10.6-5.8
	c2.5-3.9,3.8-9.4,3.8-16.6v-11h20.9v6.9c0,15.3-3.1,26.6-9.2,33.9c-6.1,7.4-15.6,11-28.3,11c-15.7,0-27.3-5.3-34.7-15.8
	c-7.4-10.5-11.1-26.9-11.1-49.3c0-20.5,3.8-36.2,11.4-47.1c7.6-10.9,18.5-16.4,32.7-16.4c12.6,0,22.2,4.4,29,13.1
	c6.8,8.7,10.2,21.1,10.2,37.3v17.9H578.8z M578.8,194.3h25v-3.6c0-11.8-0.9-19.9-2.5-24.2c-1.7-4.3-4.7-6.4-8.9-6.4
	c-4.7,0-8.1,2.5-10.1,7.6C580.1,172.7,579,181.6,578.8,194.3z"/>
<path class="st0" d="M680.3,157.7c2.5-3.7,5.4-6.6,8.8-8.7c3.4-2,7.1-3,11.1-3c6.5,0,11.7,2.2,15.6,6.6c3.9,4.4,5.8,10.3,5.8,17.8
	c0,6.5-1.5,11.6-4.4,15.3c-2.9,3.7-6.9,5.6-11.8,5.6c-4,0-7.2-1.3-9.6-4c-2.3-2.7-3.5-6.3-3.5-10.9c0-4.6,1.3-8.2,3.8-10.8
	c2.5-2.6,6.1-4.2,10.7-4.5c-1-1-2.1-1.8-3.2-2.3c-1.1-0.5-2.4-0.7-3.8-0.7c-5.2,0-9,2.3-11.2,6.9c-2.3,4.6-3.4,12.5-3.4,23.6V243
	c0,4.3,0.6,7,1.9,8.1c1.2,1.1,3.9,1.7,7.8,1.7h5V269h-54.3v-16.2c4.5,0,7.4-0.6,8.6-1.7c1.3-1.1,1.9-3.8,1.9-8.1v-69.7
	c0-4.3-0.7-7-2-8.2c-1.3-1.2-4.2-1.8-8.6-1.8v-16.1h34.9V157.7z"/>
<path class="st0" d="M732,269v-48.5h15.1c0.7,10.7,3.7,19.3,8.8,25.9c5.1,6.6,11.3,9.9,18.5,9.9c3.8,0,6.8-1,8.9-3
	c2.1-2,3.2-4.8,3.2-8.4c0-3.7-1-6.8-2.9-9.5c-1.9-2.6-6.3-6.1-13.1-10.4c-3.5-2.3-8.3-5.2-14.3-8.6c-6-3.5-9.7-5.9-11.2-7.3
	c-5.1-4.6-8.7-9.2-10.8-13.8c-2.1-4.6-3.2-9.8-3.2-15.7c0-10.6,3.1-19.2,9.3-25.8c6.2-6.6,14.3-9.9,24.3-9.9c4.7,0,9,0.8,13,2.5
	c4,1.7,7.7,4.3,11.1,7.7l5.6-6.8h11.8v43.8h-14.4c-1.1-9.8-3.8-17.3-7.9-22.7c-4.2-5.3-9.6-8-16.1-8c-3.5,0-6.3,1-8.4,3
	c-2.2,2-3.2,4.6-3.2,7.8c0,3.3,1.4,6.5,4.2,9.5c2.8,3.1,7.8,6.7,14.9,10.9c2.6,1.5,6.2,3.5,10.7,6c7,3.9,11.3,6.7,13,8.3
	c4.7,4.3,8.1,8.9,10.2,13.9c2.1,5,3.1,11,3.1,18.1c0,10.4-3,18.8-8.9,25.1c-6,6.3-13.8,9.5-23.6,9.5c-5.9,0-11.1-1-15.8-2.9
	c-4.6-1.9-9.1-5-13.3-9.2l-5.6,8.6H732z"/>
<path class="st0" d="M856.2,212.1v7c0,11.9,1.4,20.7,4.3,26.3c2.9,5.7,7.3,8.5,13.3,8.5c4.6,0,8.1-1.9,10.6-5.8
	c2.5-3.9,3.8-9.4,3.8-16.6v-11h20.9v6.9c0,15.3-3.1,26.6-9.2,33.9c-6.1,7.4-15.6,11-28.3,11c-15.7,0-27.3-5.3-34.7-15.8
	c-7.4-10.5-11.1-26.9-11.1-49.3c0-20.5,3.8-36.2,11.4-47.1c7.6-10.9,18.5-16.4,32.7-16.4c12.6,0,22.3,4.4,29,13.1
	c6.8,8.7,10.2,21.1,10.2,37.3v17.9H856.2z M856.2,194.3h25v-3.6c0-11.8-0.9-19.9-2.5-24.2c-1.7-4.3-4.7-6.4-8.9-6.4
	c-4.7,0-8.1,2.5-10.1,7.6C857.6,172.7,856.4,181.6,856.2,194.3z"/>
<path class="st0" d="M1149.2,137.9c-9.1-9.1-21.7-14.7-35.6-14.7c0,0,0,0,0,0l-9.2-41.6c3.6-1.7,6.9-4,9.7-6.8
	c6.3-6.3,10.2-15,10.2-24.6c0-9.6-3.9-18.3-10.2-24.6c-6.3-6.3-15-10.2-24.6-10.2c-9.6,0-18.3,3.9-24.6,10.2
	c-6.3,6.3-10.2,15-10.2,24.6c0,9.6,3.9,18.4,10.2,24.6c6.3,6.3,15,10.2,24.6,10.2c0.4,0,0.8,0,1.2-0.1l9,40.3
	c-8.2,2.4-15.6,6.8-21.5,12.7c-9.1,9.1-14.7,21.7-14.7,35.6c0,13.9,5.6,26.5,14.7,35.6c1.8,1.8,3.7,3.4,5.7,4.9l-17.2,28.8
	c-11.4-6.3-24.4-10-38.3-9.9c-21.7,0-41.5,8.8-55.7,23.1c-14.3,14.2-23.1,34-23.1,55.7c0,21.7,8.8,41.5,23.1,55.7
	c14.2,14.3,34,23.1,55.7,23.1c21.7,0,41.5-8.8,55.7-23.1c14.2-14.2,23.1-34,23.1-55.7c0-21.7-8.8-41.5-23.1-55.7
	c-1.8-1.8-3.7-3.5-5.6-5.1l17.9-30.1c5.4,2,11.3,3.1,17.4,3.1c13.9,0,26.5-5.6,35.6-14.7c9.1-9.1,14.7-21.7,14.7-35.6
	C1163.9,159.6,1158.3,147,1149.2,137.9z M1065.1,50.1c0-6.7,2.7-12.7,7.1-17.1c4.4-4.4,10.4-7.1,17.1-7.1c6.7,0,12.7,2.7,17.1,7.1
	c4.4,4.4,7.1,10.4,7.1,17.1c0,6.7-2.7,12.7-7.1,17.1c-4.4,4.4-10.4,7.1-17.1,7.1c-6.7,0-12.7-2.7-17.1-7.1
	C1067.8,62.8,1065.1,56.8,1065.1,50.1z M1092.8,311.7c0,17.9-7.2,34-18.9,45.7c-11.7,11.7-27.8,18.9-45.7,18.9
	c-17.9,0-34-7.2-45.7-18.9c-11.7-11.7-18.9-27.8-18.9-45.7c0-17.9,7.2-34,18.9-45.7c11.7-11.7,27.8-18.9,45.7-18.9
	c17.9,0,34,7.2,45.7,18.9C1085.6,277.7,1092.8,293.8,1092.8,311.7z M1139.2,199.1c-6.6,6.6-15.6,10.6-25.6,10.6
	c-10,0-19-4-25.6-10.6c-6.6-6.6-10.6-15.6-10.6-25.6c0-10,4-19,10.6-25.6c6.6-6.6,15.5-10.6,25.6-10.6c10,0,19,4,25.6,10.6
	c6.5,6.6,10.6,15.6,10.6,25.6C1149.8,183.5,1145.7,192.5,1139.2,199.1z"/>
<g>
	<path class="st1" d="M54.7,25.7H36.4v-6.6h44.4v6.6H62.5v53.4h-7.8V25.7z"/>
	<path class="st1" d="M87.2,15.9H95v27h0.2c1.2-2.2,3.2-4.3,5.6-5.6c2.3-1.3,5.1-2.1,8-2.1c5.8,0,15,3.6,15,18.3v25.6H116V54.3
		c0-6.9-2.6-12.7-10-12.7c-5.1,0-9,3.6-10.5,7.7c-0.4,1.2-0.5,2.3-0.5,3.7v26h-7.8V15.9z"/>
	<path class="st1" d="M141.6,59c0.2,10.6,6.8,15,14.8,15c5.6,0,9.1-1,11.9-2.2l1.4,5.6c-2.8,1.2-7.6,2.8-14.4,2.8
		c-13.3,0-21.2-8.8-21.2-21.8c0-13,7.7-23.1,20.2-23.1c14.1,0,17.8,12.3,17.8,20.2c0,1.6-0.1,2.8-0.3,3.6H141.6z M164.5,53.3
		c0.1-4.9-2-12.6-10.9-12.6c-8,0-11.4,7.2-12,12.6H164.5z"/>
</g>
<g>
	<path class="st1" d="M623,303.5c4.2-0.7,9.7-1.3,16.7-1.3c8.6,0,14.9,2,18.9,5.6c3.6,3.2,5.9,8.1,5.9,14.1c0,6.1-1.8,10.9-5.2,14.4
		c-4.7,4.9-12.1,7.4-20.6,7.4c-2.6,0-5-0.1-7-0.6v27H623V303.5z M631.7,336c1.9,0.5,4.3,0.7,7.2,0.7c10.5,0,16.9-5.2,16.9-14.3
		c0-9-6.4-13.3-15.9-13.3c-3.8,0-6.7,0.3-8.2,0.7V336z"/>
	<path class="st1" d="M675,336.8c0-5.7-0.1-10.6-0.4-15.1h7.7l0.4,9.6h0.3c2.2-6.5,7.6-10.6,13.5-10.6c0.9,0,1.6,0.1,2.4,0.2v8.3
		c-0.9-0.2-1.8-0.2-3-0.2c-6.2,0-10.6,4.6-11.8,11.2c-0.2,1.2-0.3,2.7-0.3,4.1v25.8H675V336.8z"/>
	<path class="st1" d="M751.3,345.5c0,17.9-12.5,25.7-24.1,25.7c-13,0-23.2-9.6-23.2-24.9c0-16.1,10.7-25.6,24-25.6
		C741.9,320.7,751.3,330.8,751.3,345.5z M713,346c0,10.6,6,18.6,14.6,18.6c8.4,0,14.7-7.9,14.7-18.8c0-8.2-4.1-18.5-14.5-18.5
		C717.5,327.3,713,336.9,713,346z"/>
	<path class="st1" d="M751.2,384.4c4.1-0.3,7.5-1.4,9.6-3.8c2.4-2.7,3.4-6.5,3.4-18.1v-40.7h8.8v44.1c0,9.4-1.5,15.5-5.8,19.9
		c-3.9,3.9-10.3,5.5-15,5.5L751.2,384.4z M774,308.1c0,2.9-2,5.4-5.6,5.4c-3.2,0-5.3-2.5-5.3-5.4c0-3,2.2-5.5,5.5-5.5
		C771.9,302.6,774,305.1,774,308.1z"/>
	<path class="st1" d="M793.1,347.5c0.2,11.9,7.7,16.8,16.6,16.8c6.3,0,10.2-1.1,13.4-2.5l1.6,6.3c-3.1,1.4-8.5,3.1-16.2,3.1
		c-14.9,0-23.8-9.9-23.8-24.5c0-14.6,8.6-26,22.7-26c15.9,0,20,13.8,20,22.7c0,1.8-0.1,3.1-0.3,4.1H793.1z M818.9,341.2
		c0.1-5.5-2.3-14.2-12.2-14.2c-9,0-12.8,8.1-13.5,14.2H818.9z"/>
	<path class="st1" d="M873.5,368.5c-2.3,1.1-7.4,2.8-13.9,2.8c-14.6,0-24.1-9.9-24.1-24.7c0-14.9,10.2-25.8,26-25.8
		c5.2,0,9.8,1.3,12.2,2.6l-2,6.7c-2.1-1.1-5.4-2.3-10.2-2.3c-11.1,0-17.1,8.3-17.1,18.3c0,11.2,7.2,18.1,16.8,18.1
		c5,0,8.3-1.2,10.8-2.3L873.5,368.5z"/>
	<path class="st1" d="M896.5,310.1v11.6h12.6v6.7h-12.6v26.1c0,6,1.7,9.4,6.6,9.4c2.4,0,3.8-0.2,5.1-0.6l0.4,6.7
		c-1.7,0.6-4.4,1.2-7.8,1.2c-4.1,0-7.4-1.4-9.5-3.7c-2.4-2.7-3.4-7-3.4-12.7v-26.4h-7.5v-6.7h7.5v-9L896.5,310.1z"/>
</g>
<g>
	<path class="st0" d="M974.4,140.6c0,13.2-10.4,23.6-23.9,23.6c-13.4,0-24.1-10.4-24.1-23.6c0-13,10.7-23.4,24.1-23.4
		C964,117.2,974.4,127.6,974.4,140.6z M932.4,140.6c0,10.4,7.7,18.7,18.2,18.7c10.3,0,17.8-8.3,17.8-18.5c0-10.4-7.5-18.8-17.9-18.8
		C940,121.9,932.4,130.3,932.4,140.6z M946.7,152.8h-5.4v-23.4c2.1-0.4,5.1-0.7,9-0.7c4.4,0,6.4,0.7,8.1,1.7c1.3,1,2.3,2.8,2.3,5.1
		c0,2.6-2,4.6-4.8,5.4v0.3c2.3,0.9,3.6,2.6,4.3,5.7c0.7,3.6,1.1,5,1.7,5.8H956c-0.7-0.9-1.1-3-1.9-5.7c-0.4-2.6-1.9-3.7-4.8-3.7
		h-2.6V152.8z M946.9,139.6h2.6c3,0,5.4-1,5.4-3.4c0-2.1-1.6-3.6-5-3.6c-1.4,0-2.4,0.1-3,0.3V139.6z"/>
</g>
</svg>
