<?xml version="1.0" encoding="utf-8"?>
<!-- Generator: Adobe Illustrator 16.0.4, SVG Export Plug-In . SVG Version: 6.00 Build 0)  -->
<!DOCTYPE svg PUBLIC "-//W3C//DTD SVG 1.1//EN" "http://www.w3.org/Graphics/SVG/1.1/DTD/svg11.dtd">
<svg version="1.1" id="Layer_1" xmlns="http://www.w3.org/2000/svg" xmlns:xlink="http://www.w3.org/1999/xlink" x="0px" y="0px"
	 width="1000px" height="1000px" viewBox="0 0 1000 1000" enable-background="new 0 0 1000 1000" xml:space="preserve">
<path d="M633.021,0H174.336c-20.975,0-37.975,17.004-37.975,37.976v924.048c0,20.972,17,37.976,37.975,37.976h651.327
	c20.972,0,37.976-17.004,37.976-37.976V225.741L633.021,0z M624.011,49.939l185.731,181.804H624.011V49.939z M178.351,958.01V41.99
	h403.669v231.744h239.628V958.01H178.351z"/>
<path d="M225.99,426.702v389.148h548.618V426.704L225.99,426.702z M424.91,569.269v-71.866h150.005v71.868L424.91,569.269z
	 M574.915,601.877v79.157H424.91v-79.159L574.915,601.877z M258.598,497.403h133.704v71.866H258.598V497.403z M258.598,601.875
	h133.704v79.159H258.598V601.875z M258.598,783.24v-69.6h133.704v69.6H258.598z M424.91,783.24v-69.6h150.005v69.6H424.91z
	 M742.002,783.24H607.522v-69.6h134.479V783.24z M742.002,681.034H607.522v-79.157h134.479V681.034z M607.522,569.271v-71.868
	h134.479v71.868H607.522z"/>
</svg>
