<?xml version="1.0" standalone="no"?>
<!DOCTYPE svg PUBLIC "-//W3C//DTD SVG 1.1//EN" "http://www.w3.org/Graphics/SVG/1.1/DTD/svg11.dtd" >
<svg xmlns="http://www.w3.org/2000/svg" xmlns:xlink="http://www.w3.org/1999/xlink" version="1.1" viewBox="-10 0 522 512">
   <path fill="currentColor"
d="M324 0l118 116v377q0 8 -5.5 13.5t-13.5 5.5h-334q-8 0 -13.5 -5.5t-5.5 -13.5v-474q0 -8 5.5 -13.5t13.5 -5.5h235zM319 26v93h96zM91 491h330v-351h-123v-119h-207v470zM391 186q17 17 -15 69q-9 13 -20 28q7 17 7 36q0 29 -14.5 53t-38.5 38t-53 14q-18 0 -36 -6
q-15 11 -28 20q-18 11 -31 16t-23 5t-16 -6q-7 -7 -5 -20q1 -10 7 -24q11 -23 34 -53q-7 -18 -7 -37q0 -44 31 -74.5t74 -30.5q20 0 37 6q31 -23 54 -33q13 -6 23 -7q13 -2 20 6zM183 421q9 -5 19 -12q-21 -13 -34 -34q-17 24 -25 41q-10 20 -6 24q2 2 12 -1q14 -5 34 -18z
M347 264q7 -10 12 -18q13 -21 17 -34q4 -11 2 -13q-4 -3 -23 5q-18 9 -42 26q21 13 34 34z" />
</svg>
