<?xml version="1.0" encoding="utf-8"?>
<!-- Generator: Adobe Illustrator 25.0.1, SVG Export Plug-In . SVG Version: 6.00 Build 0)  -->
<svg version="1.1" id="Layer_1" xmlns="http://www.w3.org/2000/svg" xmlns:xlink="http://www.w3.org/1999/xlink" x="0px" y="0px"
	 viewBox="0 0 522 512" style="enable-background:new 0 0 522 512;" xml:space="preserve">
<style type="text/css">
	.st0{fill:#231F20;}
</style>
<path d="M334,0l118,116v377c0,5.3-1.8,9.8-5.5,13.5s-8.2,5.5-13.5,5.5H99c-5.3,0-9.8-1.8-13.5-5.5S80,498.3,80,493V19
	c0-5.3,1.8-9.8,5.5-13.5S93.7,0,99,0H334z M329,26v93h96L329,26z M101,491h330V140H308V21H101V491z"/>
<g>
	<path class="st0" d="M218.1,357.8c0,2.6-0.1,4.7-0.3,6.1c-0.2,1.5-0.5,2.5-1,3.2c-0.5,0.6-1,0.9-1.7,0.8c-0.7-0.1-1.5-0.4-2.6-0.8
		l-81.2-40.5c-1-0.6-1.7-1.7-2.2-3.5c-0.5-1.8-0.7-4.5-0.7-8.1c0-1.8,0.1-3.4,0.2-4.8c0.1-1.4,0.3-2.5,0.5-3.4
		c0.2-0.9,0.5-1.6,0.9-2.1c0.4-0.5,0.8-0.9,1.3-1.2l81.1-40.2c2-1,3.5-0.8,4.3,0.6c0.8,1.4,1.3,4.2,1.3,8.4c0,2.9-0.1,5.2-0.2,6.9
		c-0.1,1.7-0.3,3-0.6,4c-0.3,1-0.7,1.7-1.2,2.1c-0.5,0.4-1.2,0.8-2,1.3l-61,28.6l59.8,27.8c1.1,0.5,1.9,1,2.6,1.5
		c0.7,0.5,1.2,1.3,1.5,2.3c0.4,1,0.6,2.4,0.7,4.1C218,352.5,218.1,354.8,218.1,357.8z"/>
	<path class="st0" d="M247.2,403.6c-0.4,0.9-0.8,1.7-1.4,2.2c-0.6,0.6-1.4,1-2.4,1.4c-1,0.4-2.3,0.6-3.8,0.8
		c-1.5,0.2-3.4,0.3-5.8,0.3c-2.9,0-5.3-0.1-7.1-0.4c-1.8-0.3-3.2-0.7-4.2-1.3c-1-0.6-1.5-1.3-1.6-2.2c-0.1-0.9,0-1.9,0.4-3.1
		l63.3-177.8c0.3-0.9,0.7-1.7,1.3-2.3c0.6-0.6,1.3-1.1,2.3-1.4c1-0.4,2.3-0.6,3.9-0.8c1.6-0.2,3.5-0.3,5.8-0.3c3,0,5.3,0.1,7.1,0.4
		c1.8,0.3,3.2,0.7,4.1,1.3c0.9,0.6,1.4,1.3,1.6,2.2c0.1,0.9,0,1.9-0.3,3.1L247.2,403.6z"/>
	<path class="st0" d="M405.7,315.3c0,1.8-0.1,3.4-0.2,4.8c-0.1,1.3-0.3,2.5-0.6,3.4c-0.2,0.9-0.6,1.6-1,2.2
		c-0.4,0.5-0.8,0.9-1.3,1.1L321.3,367c-1,0.5-1.8,0.7-2.5,0.6c-0.7-0.1-1.3-0.5-1.7-1.2c-0.5-0.7-0.8-1.7-1-3.1
		c-0.2-1.4-0.3-3.1-0.3-5.2c0-2.9,0.1-5.2,0.2-6.9c0.1-1.7,0.3-3,0.6-4c0.3-1,0.7-1.7,1.2-2.2c0.5-0.5,1.2-0.9,2-1.2l61-28.6
		l-59.8-27.8c-1.1-0.5-2-1-2.7-1.5c-0.7-0.5-1.2-1.3-1.5-2.3c-0.4-1-0.6-2.4-0.7-4.1c-0.1-1.7-0.2-4.1-0.2-7c0-2.6,0.1-4.7,0.3-6.1
		c0.2-1.5,0.5-2.5,1-3.2c0.5-0.6,1-0.9,1.7-0.8c0.7,0.1,1.6,0.4,2.5,0.8l81.3,40.6c0.9,0.4,1.6,1.6,2.2,3.4
		C405.4,309,405.7,311.7,405.7,315.3z"/>
</g>
</svg>
