<?xml version="1.0" standalone="no"?>
<!DOCTYPE svg PUBLIC "-//W3C//DTD SVG 1.1//EN" "http://www.w3.org/Graphics/SVG/1.1/DTD/svg11.dtd" >
<svg xmlns="http://www.w3.org/2000/svg" xmlns:xlink="http://www.w3.org/1999/xlink" version="1.1" viewBox="-10 0 522 512">
   <path fill="currentColor"
d="M267 512q-54 0 -88 -36q-36 -39 -36 -88q0 -51 36 -87q23 -22 53 -31l-22 -99h-1h-2q-35 0 -60.5 -25t-25.5 -60.5t25.5 -60.5t61 -25t60.5 25t25 60.5t-25 60.5q-10 10 -24 17l23 102q51 0 87.5 36t36.5 87t-36.5 87.5t-87.5 36.5zM147 85.5q0 24.5 17.5 42t42.5 17.5
t42.5 -17.5t17.5 -42t-17.5 -42t-42.5 -17.5t-42.5 17.5t-17.5 42zM330 451q26 -26 26 -62.5t-26 -62.5t-63 -26t-63 26t-26 62.5t26 62.5t63 26t63 -26z" />
</svg>
