<?xml version="1.0" encoding="utf-8"?>
<!-- Generator: Adobe Illustrator 25.0.1, SVG Export Plug-In . SVG Version: 6.00 Build 0)  -->
<svg version="1.1" id="Layer_2" xmlns="http://www.w3.org/2000/svg" xmlns:xlink="http://www.w3.org/1999/xlink" x="0px" y="0px"
	 viewBox="0 0 522 512" style="enable-background:new 0 0 522 512;" xml:space="preserve">
<g>
	<g>
		<path d="M207.6,81.8c0.9,0.4,1.8,0.6,2.9,0.6H303h12.6c3.9,0,7-3.1,7-7v-3.1c0-3.9-3.1-7-7-6H210.5c-3.9-1-7,2.1-7,6v3.1
			C203.5,78.3,205.2,80.7,207.6,81.8z M405.4,190.5l-194.9,1c-3.9-1-7,2.1-7,6v2.4c0,3.9,3.1,7,7,7h194.8h0.1c3.9,0,7-3.1,7-7v-2.4
			C412.4,193.6,409.3,190.5,405.4,190.5z M405.4,308.2l-194.9,1c-3.9-1-7,2.1-7,6v3.1c0,3.9,3.1,7.1,7,7h194.8h0.1c3.9,0,7-3.1,7-7
			v-3.1C412.4,311.3,409.3,308.2,405.4,308.2z M362.2,0.2H183.4c-4.1,0-7.5,1.4-10.3,4.2c-2.8,2.8-4.2,6.3-4.2,10.3v26.9h-15.6
			c-4.1,0-7.5,1.4-10.3,4.2s-4.2,6.3-4.2,10.3v25.7h-15.1c-4.1,0-7.5,1.4-10.3,4.2c-2.8,2.8-4.2,6.3-4.2,10.3V122H94.5
			c-4.1,0-7.5,1.4-10.3,4.2s-4.2,6.3-4.2,10.3v360.8c0,4.1,1.4,7.5,4.2,10.3s6.3,4.2,10.3,4.2h254.2c4.1,0,7.5-1.4,10.3-4.2
			s4.2-6.3,4.2-10.3v-25.7h14.6c4.1,0,7.5-1.4,10.3-4.2c2.8-2.8,4.2-6.3,4.2-10.3v-25.7h15.1c4.1,0,7.5-1.4,10.3-4.2
			c2.8-2.8,4.2-6.3,4.2-10.3v-27h15.6c4.1,0,7.5-1.4,10.3-4.2s4.2-6.3,4.2-10.3V88.5L362.2,0.2z M358.1,19.1l74,73.3l-74.5-0.5
			L358.1,19.1z M346.5,495.7H95.4V138.1h13.8v319c0,4.1,1.4,7.5,4.2,10.3c2.8,2.8,6.3,4.2,10.3,4.2h222.8V495.7z M375.7,455.5H124.5
			V97.9h14.3v319c0,4.1,1.4,7.5,4.2,10.3c2.8,2.8,6.3,4.2,10.3,4.2h222.4V455.5z M405.3,415.3H154.1V57.7h14.8v317.7
			c0,4.1,1.4,7.5,4.2,10.3c2.8,2.8,6.3,4.2,10.3,4.2h221.9V415.3z M435.3,373.8H184.2V16.2h157.5v90.5h93.6V373.8z M203.5,158.1v2.4
			c0,3.9,3.1,7,7,7h194.8h0.1c3.9,0,7-3.1,7-7v-2.4c0-3.9-3.1-7-7-7l-194.9,1C206.6,151.1,203.5,154.2,203.5,158.1z M405.4,268.6
			l-194.9,1c-3.9-1-7,2.1-7,6v3.1c0,3.9,3.1,7.1,7,7h194.8h0.1c3.9,0,7-3.1,7-7v-3.1C412.4,271.7,409.3,268.6,405.4,268.6z
			 M405.4,229.2h-0.1H210.5c-3.9,0-7,3.1-7,7v2.4c0,3.8,3.1,7,7,8l194.9-1c3.9,0,7-3.1,7-7v-2.4
			C412.4,232.3,409.3,229.2,405.4,229.2z"/>
	</g>
</g>
</svg>
