<?xml version="1.0" encoding="utf-8"?>
<!-- Generator: Adobe Illustrator 25.0.1, SVG Export Plug-In . SVG Version: 6.00 Build 0)  -->
<svg version="1.1" id="Layer_1" xmlns="http://www.w3.org/2000/svg" xmlns:xlink="http://www.w3.org/1999/xlink" x="0px" y="0px"
	 viewBox="0 0 522 512" style="enable-background:new 0 0 522 512;" xml:space="preserve">
<style type="text/css">
	.st0{fill:#FFFFFF;}
</style>
<g>
</g>
<path d="M334,0l118,116v377c0,5.3-1.8,9.8-5.5,13.5s-8.2,5.5-13.5,5.5H99c-5.3,0-9.8-1.8-13.5-5.5S80,498.3,80,493V19
	c0-5.3,1.8-9.8,5.5-13.5S93.7,0,99,0H334z"/>
<polyline class="st0" points="307.1,140 307.1,21 100.1,21 100.1,491 430.1,491 430.1,140 "/>
<polygon class="st0" points="328.7,24.8 425.8,121.1 327.9,120.6 "/>
<g>
	<path d="M125.4,100.1V96c0-5.1,4.1-9.2,9.2-9.2h138.1c5.1,0,9.2,4.1,9.2,9.2v4.1c0,5.1-4.1,9.2-9.2,9.2H134.6
		C129.5,109.4,125.4,105.2,125.4,100.1z M125.4,212v-3.1c0-5.1,4.1-9.2,9.2-9.2h256.2c5.1,0,9.2,4.1,9.2,9.2v3.1
		c0,5.1-4.1,9.2-9.2,9.2H134.6C129.5,221.2,125.4,217.1,125.4,212z M125.4,263.7v-3.1c0-5.1,4.1-9.2,9.2-9.2h256.2
		c5.1,0,9.2,4.1,9.2,9.2v3.1c0,5.1-4.1,9.2-9.2,9.2H134.6C129.5,273,125.4,268.8,125.4,263.7z M125.4,314.6v-3.1
		c0-5.1,4.1-9.2,9.2-9.2h256.2c5.1,0,9.2,4.1,9.2,9.2v3.1c0,5.1-4.1,9.2-9.2,9.2H134.6C129.5,323.8,125.4,319.7,125.4,314.6z
		 M125.4,367.3v-4.1c0-5.1,4.1-9.2,9.2-9.2h256.2c5.1,0,9.2,4.1,9.2,9.2v4.1c0,5.1-4.1,9.2-9.2,9.2H134.6
		C129.5,376.6,125.4,372.4,125.4,367.3z M125.4,419.4v-4.1c0-5.1,4.1-9.2,9.2-9.2h256.2c5.1,0,9.2,4.1,9.2,9.2v4.1
		c0,5.1-4.1,9.2-9.2,9.2H134.6C129.5,428.6,125.4,424.5,125.4,419.4z"/>
</g>
</svg>
