<?xml version="1.0" standalone="no"?>
<!DOCTYPE svg PUBLIC "-//W3C//DTD SVG 1.1//EN" "http://www.w3.org/Graphics/SVG/1.1/DTD/svg11.dtd" >
<svg xmlns="http://www.w3.org/2000/svg" xmlns:xlink="http://www.w3.org/1999/xlink" version="1.1" viewBox="-10 0 522 512">
   <path fill="currentColor"
d="M324 0l118 116v377q0 8 -5.5 13.5t-13.5 5.5h-334q-8 0 -13.5 -5.5t-5.5 -13.5v-474q0 -8 5.5 -13.5t13.5 -5.5h235zM319 26v93h96zM91 491h330v-351h-123v-119h-207v470zM255.5 459q-56.5 0 -97 -40.5t-40.5 -97t40.5 -97t97 -40.5t97 40.5t40.5 97t-40.5 97t-97 40.5z
M264 442q45 -3 77 -35t35 -77h-23v-17h23q-3 -45 -35 -77t-77 -35v23h-17v-23q-45 3 -77 35t-35 77h23v17h-23q3 45 35 77t77 35v-17h17v17zM255.5 185q-56.5 0 -96.5 40t-40 96.5t40 96.5t96.5 40t96.5 -40t40 -96.5t-40 -96.5t-96.5 -40zM263 223v-22v-1h1q45 4 77 36
t36 77v1h-1h-22v15h22h1v1q-4 45 -36 77t-77 36h-1v-1v-16h-15v16v1h-1q-45 -4 -77 -36t-36 -77v-1h1h22v-15h-22h-1v-1q4 -45 36 -77t77 -36h1v1v22h15zM255.5 184q57.5 0 97.5 40t40 97.5t-40 97.5t-97.5 40t-97.5 -40t-40 -97.5t40 -97.5t97.5 -40zM247 224v-23
q-45 4 -76.5 35.5t-35.5 76.5h23v17h-23q4 45 35.5 76.5t76.5 35.5v-17h17v17q45 -4 76.5 -35.5t35.5 -76.5h-23v-17h23q-4 -45 -35.5 -76.5t-76.5 -35.5v23h-17zM223 289l114 -49l-49 114l-114 49zM201 376l61 -27l-34 -34zM336 241l-112 49l-49 112l112 -49zM200 377l2 -3
l25 -59l1 -1l1 1l33 33l1 1l-1 1l-59 26zM338 239l-50 115l-115 50l50 -115zM202 375l60 -26l-34 -34z" />
</svg>
