<?xml version="1.0" standalone="no"?>
<!DOCTYPE svg PUBLIC "-//W3C//DTD SVG 1.1//EN" "http://www.w3.org/Graphics/SVG/1.1/DTD/svg11.dtd" >
<svg xmlns="http://www.w3.org/2000/svg" xmlns:xlink="http://www.w3.org/1999/xlink" version="1.1" viewBox="-10 0 522 512">
   <path fill="currentColor"
d="M324 0l118 116v377q0 8 -5.5 13.5t-13.5 5.5h-334q-8 0 -13.5 -5.5t-5.5 -13.5v-474q0 -8 5.5 -13.5t13.5 -5.5h235zM319 26v93h96zM91 491h330v-351h-123v-119h-207v470zM114 250.5q0 -21.5 15 -36.5t36.5 -15t36.5 15t15 36.5t-15 36.5t-36.5 15t-36.5 -15t-15 -36.5z
M155 406.5q0 -21.5 15 -37t36.5 -15.5t37 15.5t15.5 37t-15.5 36.5t-37 15t-36.5 -15t-15 -36.5zM270 234q0 -22 15 -37t36.5 -15t36.5 15t15 36.5t-15 37t-36 15.5q-9 0 -17 -3t-14 -7.5t-11 -11t-7.5 -14.5t-2.5 -16zM296 369.5q0 -21.5 15 -36.5t36.5 -15t36.5 15
t15 36.5t-15 37t-36.5 15.5t-36.5 -15.5t-15 -37zM223 404q-1 1 -2 1.5t-3 0.5h-4t-6 -1t-6.5 -2t-3.5 -2.5t-1 -2.5t1 -3l107 -156q0 -1 1 -1.5t2.5 -0.5h4t6.5 1t6.5 2t3.5 2.5t1 2.5t-1 3zM154 254q-2 -1 -2.5 -2.5t-0.5 -3v-4t2 -5.5q1 -4 2.5 -6.5t3 -3.5t3 -0.5
t3.5 1.5l184 131q2 0 2.5 1.5t0.5 3t-0.5 4t-1.5 5.5q-1 4 -2.5 6.5t-3 3.5t-3 0.5t-3.5 -1.5zM227 420v3t-1 2.5t-2.5 3t-4.5 3.5q-3 3 -5.5 4t-4.5 1.5t-3 -0.5t-1 -3l-55 -180q-1 -2 -1 -3t1 -2.5t3 -3t4 -3.5q4 -3 6.5 -4t4 -1t2.5 0.5t2 2.5zM361 356q1 1 0.5 2
t-1.5 2.5t-2.5 3l-3.5 3.5l-6 4.5t-3.5 2t-2.5 0t-1 -1.5l-36 -139v-2t1 -2.5t2.5 -3t4.5 -3.5q3 -3 5.5 -4.5t3.5 -2t2 0t1 1.5z" />
</svg>
