<?xml version="1.0" standalone="no"?>
<!DOCTYPE svg PUBLIC "-//W3C//DTD SVG 1.1//EN" "http://www.w3.org/Graphics/SVG/1.1/DTD/svg11.dtd" >
<svg xmlns="http://www.w3.org/2000/svg" xmlns:xlink="http://www.w3.org/1999/xlink" version="1.1" viewBox="-10 0 522 512">
   <path fill="currentColor"
d="M324 0l118 116v377q0 8 -5.5 13.5t-13.5 5.5h-334q-8 0 -13.5 -5.5t-5.5 -13.5v-474q0 -8 5.5 -13.5t13.5 -5.5h235zM319 26v93h96zM91 491h330v-351h-123v-119h-207v470zM393 293v136l-80 -46v54h-194v-141h25q-27 -13 -27 -43q0 -20 14.5 -34t34.5 -14t34 14t14 34
q0 30 -26 43h57q-26 -13 -26 -43q0 -20 14 -34t34 -14t34.5 14t14.5 34q0 30 -27 43h24v43z" />
</svg>
