<?xml version="1.0" encoding="UTF-8" standalone="no"?>
<svg
   xmlns:dc="http://purl.org/dc/elements/1.1/"
   xmlns:cc="http://creativecommons.org/ns#"
   xmlns:rdf="http://www.w3.org/1999/02/22-rdf-syntax-ns#"
   xmlns:svg="http://www.w3.org/2000/svg"
   xmlns="http://www.w3.org/2000/svg"
   xmlns:sodipodi="http://sodipodi.sourceforge.net/DTD/sodipodi-0.dtd"
   xmlns:inkscape="http://www.inkscape.org/namespaces/inkscape"
   width="60"
   height="60"
   viewBox="0 0 60 60"
   version="1.1"
   id="svg26"
   sodipodi:docname="dataverse-grey.svg"
   style="fill:none"
   inkscape:version="0.92.3 (2405546, 2018-03-11)">
  <metadata
     id="metadata32">
    <rdf:RDF>
      <cc:Work
         rdf:about="">
        <dc:format>image/svg+xml</dc:format>
        <dc:type
           rdf:resource="http://purl.org/dc/dcmitype/StillImage" />
        <dc:title></dc:title>
      </cc:Work>
    </rdf:RDF>
  </metadata>
  <defs
     id="defs30" />
  <sodipodi:namedview
     pagecolor="#ffffff"
     bordercolor="#666666"
     borderopacity="1"
     objecttolerance="10"
     gridtolerance="10"
     guidetolerance="10"
     inkscape:pageopacity="0"
     inkscape:pageshadow="2"
     inkscape:window-width="1238"
     inkscape:window-height="821"
     id="namedview28"
     showgrid="false"
     inkscape:zoom="3.9333333"
     inkscape:cx="26.5"
     inkscape:cy="30"
     inkscape:window-x="72"
     inkscape:window-y="142"
     inkscape:window-maximized="0"
     inkscape:current-layer="svg26" />
  <path
     d="m 47.29679,17.003 c -0.2298,-4e-4 -0.4554,-0.0613 -0.6541,-0.1766 L 33.15409,9.03113 c -0.1521,-0.08417 -0.2859,-0.19779 -0.3935,-0.33424 -0.1077,-0.13645 -0.1871,-0.29298 -0.2336,-0.46046 -0.0465,-0.16748 -0.0592,-0.34255 -0.0373,-0.51498 0.022,-0.17243 0.078,-0.33876 0.1649,-0.48928 0.087,-0.15052 0.203,-0.28222 0.3414,-0.38738 0.1384,-0.10517 0.2964,-0.18172 0.4647,-0.22515 0.1683,-0.04344 0.3435,-0.05291 0.5155,-0.02785 0.172,0.02506 0.3373,0.08414 0.4862,0.1738 l 13.4886,7.79531 c 0.2498,0.1438 0.4451,0.3661 0.5556,0.6323 0.1105,0.2663 0.13,0.5616 0.0554,0.84 -0.0746,0.2785 -0.239,0.5245 -0.4678,0.6999 -0.2288,0.1753 -0.5091,0.2702 -0.7974,0.2699 z"
     id="path2"
     inkscape:connector-curvature="0"
     style="fill:#a4a5a8" />
  <path
     d="m 50.87259,38.5634 c -0.347,0 -0.6798,-0.1378 -0.9251,-0.3832 -0.2454,-0.2454 -0.3832,-0.5781 -0.3832,-0.9251 V 21.6384 c 0,-0.347 0.1378,-0.6798 0.3832,-0.9251 0.2453,-0.2454 0.5781,-0.3832 0.9251,-0.3832 0.3469,0 0.6797,0.1378 0.9251,0.3832 0.2453,0.2453 0.3832,0.5781 0.3832,0.9251 v 15.6167 c 0,0.347 -0.1379,0.6797 -0.3832,0.9251 -0.2454,0.2454 -0.5782,0.3832 -0.9251,0.3832 z"
     id="path4"
     inkscape:connector-curvature="0"
     style="fill:#a4a5a8" />
  <path
     d="m 33.80809,52.7309 c -0.2883,3e-4 -0.5686,-0.0946 -0.7974,-0.27 -0.2288,-0.1754 -0.3932,-0.4214 -0.4678,-0.6998 -0.0746,-0.2785 -0.0551,-0.5738 0.0554,-0.84 0.1105,-0.2663 0.3058,-0.4886 0.5557,-0.6324 L 46.64249,42.5 c 0.1489,-0.0897 0.3142,-0.1488 0.4862,-0.1738 0.172,-0.0251 0.3473,-0.0156 0.5156,0.0278 0.1683,0.0434 0.3262,0.12 0.4646,0.2252 0.1384,0.1051 0.2545,0.2368 0.3414,0.3873 0.0869,0.1506 0.143,0.3169 0.1649,0.4893 0.0219,0.1725 0.0092,0.3475 -0.0373,0.515 -0.0465,0.1675 -0.1259,0.324 -0.2335,0.4605 -0.1077,0.1364 -0.2415,0.25 -0.3936,0.3342 l -13.4885,7.7887 c -0.1988,0.1153 -0.4244,0.1762 -0.6542,0.1767 z"
     id="path6"
     inkscape:connector-curvature="0"
     style="fill:#a4a5a8" />
  <path
     d="m 26.69969,52.7309 c -0.2298,-5e-4 -0.4554,-0.0614 -0.6542,-0.1767 L 12.55694,44.7655 c -0.15208,-0.0842 -0.28587,-0.1978 -0.39354,-0.3342 -0.10768,-0.1365 -0.18709,-0.293 -0.23359,-0.4605 -0.0465,-0.1675 -0.05916,-0.3425 -0.03724,-0.515 0.02192,-0.1724 0.07798,-0.3387 0.1649,-0.4893 0.08692,-0.1505 0.20296,-0.2822 0.34135,-0.3873 0.13839,-0.1052 0.29635,-0.1818 0.46465,-0.2252 0.1683,-0.0434 0.34357,-0.0529 0.51557,-0.0278 0.17205,0.025 0.33725,0.0841 0.48615,0.1738 l 13.4886,7.7887 c 0.2498,0.1438 0.4452,0.3661 0.5557,0.6324 0.1105,0.2662 0.1299,0.5615 0.0554,0.84 -0.0746,0.2784 -0.2391,0.5244 -0.4679,0.6998 -0.2288,0.1754 -0.5091,0.2703 -0.7973,0.27 z"
     id="path8"
     inkscape:connector-curvature="0"
     style="fill:#a4a5a8" />
  <path
     d="m 9.6333,38.5634 c -0.34699,0 -0.67976,-0.1378 -0.92511,-0.3832 C 8.46283,37.9348 8.325,37.6021 8.325,37.2551 V 21.6384 c 0,-0.347 0.13783,-0.6798 0.38319,-0.9251 0.24535,-0.2454 0.57812,-0.3832 0.92511,-0.3832 0.34698,0 0.67975,0.1378 0.9251,0.3832 0.24535,0.2453 0.38319,0.5781 0.38319,0.9251 v 15.6167 c 0,0.347 -0.13784,0.6797 -0.38319,0.9251 -0.24535,0.2454 -0.57812,0.3832 -0.9251,0.3832 z"
     id="path10"
     inkscape:connector-curvature="0"
     style="fill:#a4a5a8" />
  <path
     d="m 13.21141,17.0043 c -0.28827,3e-4 -0.56857,-0.0946 -0.79736,-0.27 -0.22879,-0.1753 -0.39326,-0.4213 -0.46784,-0.6998 -0.07459,-0.2785 -0.05512,-0.5737 0.05538,-0.84 0.1105,-0.2662 0.30584,-0.4886 0.55567,-0.6324 L 26.04579,6.7734 c 0.1489,-0.08965 0.3142,-0.14873 0.4862,-0.17379 0.172,-0.02506 0.3473,-0.0156 0.5156,0.02784 0.1683,0.04344 0.3263,0.11998 0.4646,0.22515 0.1384,0.10517 0.2545,0.23686 0.3414,0.38738 0.0869,0.15052 0.143,0.31685 0.1649,0.48928 0.0219,0.17243 0.0093,0.3475 -0.0372,0.51498 -0.0465,0.16748 -0.126,0.32402 -0.2336,0.46046 -0.1077,0.13645 -0.2415,0.25007 -0.3936,0.33424 l -13.4885,7.78876 c -0.1988,0.1153 -0.4244,0.1762 -0.65418,0.1766 z"
     id="path12"
     inkscape:connector-curvature="0"
     style="fill:#a4a5a8" />
</svg>
