<svg width="49" height="48" viewBox="0 0 49 48" fill="none" xmlns="http://www.w3.org/2000/svg">
<path fill-rule="evenodd" clip-rule="evenodd" d="M24.9302 3.67443C28.9479 3.67607 32.8749 4.86885 36.2148 7.10197C39.5547 9.33508 42.1574 12.5084 43.6942 16.2206C45.2309 19.9327 45.6327 24.0171 44.8485 27.9575C44.0643 31.8979 42.1293 35.5172 39.2883 38.3581C36.4474 41.199 32.8281 43.134 28.8877 43.9182C24.9474 44.7024 20.863 44.3007 17.1508 42.7639C13.4387 41.2272 10.2653 38.6244 8.03221 35.2845C5.79909 31.9447 4.60631 28.0177 4.60468 24C4.60775 18.6103 6.75013 13.4421 10.5612 9.63099C14.3723 5.81989 19.5405 3.6775 24.9302 3.67443ZM24.9302 0C20.1835 0 15.5433 1.40763 11.5965 4.04479C7.64975 6.68194 4.57366 10.4301 2.75715 14.8155C0.940651 19.201 0.465268 24.0267 1.39131 28.6822C2.31736 33.3378 4.60321 37.6141 7.95967 40.9706C11.3161 44.327 15.5925 46.6129 20.248 47.5389C24.9035 48.465 29.7293 47.9896 34.1147 46.1731C38.5001 44.3566 42.2483 41.2805 44.8855 37.3337C47.5226 33.3869 48.9302 28.7468 48.9302 24C48.9302 17.6348 46.4017 11.5303 41.9008 7.02943C37.3999 2.52856 31.2954 0 24.9302 0Z" fill="#39B0E2"/>
</svg>
