<?xml version="1.0" encoding="UTF-8" standalone="no"?>
<svg
   xmlns:dc="http://purl.org/dc/elements/1.1/"
   xmlns:cc="http://creativecommons.org/ns#"
   xmlns:rdf="http://www.w3.org/1999/02/22-rdf-syntax-ns#"
   xmlns:svg="http://www.w3.org/2000/svg"
   xmlns="http://www.w3.org/2000/svg"
   xmlns:sodipodi="http://sodipodi.sourceforge.net/DTD/sodipodi-0.dtd"
   xmlns:inkscape="http://www.inkscape.org/namespaces/inkscape"
   width="57"
   height="57"
   viewBox="0 0 57 57"
   version="1.1"
   id="svg4"
   sodipodi:docname="Files.svg"
   style="fill:none"
   inkscape:version="0.92.3 (2405546, 2018-03-11)">
  <metadata
     id="metadata10">
    <rdf:RDF>
      <cc:Work
         rdf:about="">
        <dc:format>image/svg+xml</dc:format>
        <dc:type
           rdf:resource="http://purl.org/dc/dcmitype/StillImage" />
        <dc:title></dc:title>
      </cc:Work>
    </rdf:RDF>
  </metadata>
  <defs
     id="defs8" />
  <sodipodi:namedview
     pagecolor="#ffffff"
     bordercolor="#666666"
     borderopacity="1"
     objecttolerance="10"
     gridtolerance="10"
     guidetolerance="10"
     inkscape:pageopacity="0"
     inkscape:pageshadow="2"
     inkscape:window-width="707"
     inkscape:window-height="480"
     id="namedview6"
     showgrid="false"
     inkscape:zoom="4.1403509"
     inkscape:cx="-8.5"
     inkscape:cy="28.5"
     inkscape:window-x="0"
     inkscape:window-y="30"
     inkscape:window-maximized="0"
     inkscape:current-layer="svg4" />
  <path
     d="M 48.089956,56.3125 H 9.09 v -56 h 27.060056 l 11.9399,11.61 z m -35.81978,-3.03 h 32.63968 V 13.1526 l -10.11,-9.81007 h -22.52968 z m 15.52968,-5.6798 c -2.2797,-0.1034 -4.4788,-0.8743 -6.3245,-2.2163 -1.8457,-1.3421 -3.25646,-3.1967 -4.0576,-5.3335 -0.80113,-2.1369 -0.95741,-4.4616 -0.44897,-6.6863 0.50843,-2.2247 1.65887,-4.2512 3.30867,-5.8279 1.6499,-1.5767 3.7264,-2.6343 5.9718,-3.0414 2.2455,-0.4071 4.5613,-0.1457 6.6596,0.7515 2.0983,0.8971 3.8867,2.3906 5.1438,4.2953 1.2571,1.9046 1.9274,4.1365 1.9274,6.4185 -0.0756,3.1575 -1.4004,6.1559 -3.6838,8.3379 -2.2833,2.1821 -5.3388,3.3698 -8.4964,3.3022 z m 0,-20.25 c -1.6852,0.0804 -3.3097,0.6536 -4.6721,1.6486 -1.3625,0.9951 -2.4028,2.3681 -2.9923,3.9489 -0.5896,1.5808 -0.7024,3.2997 -0.3241,4.9438 0.3782,1.6442 1.2307,3.1413 2.4517,4.3056 1.2211,1.1642 2.7569,1.9445 4.4173,2.2441 1.6603,0.2996 3.3724,0.1053 4.9233,-0.5588 1.551,-0.6641 2.8726,-1.7686 3.8017,-3.1769 0.929,-1.4083 1.4244,-3.0582 1.4245,-4.7454 -0.0265,-1.1586 -0.2809,-2.3006 -0.7493,-3.3607 -0.4683,-1.06 -1.1413,-2.0175 -1.9801,-2.8172 -0.8387,-0.7998 -1.8269,-1.4262 -2.908,-1.8435 -1.0812,-0.4174 -2.2341,-0.6172 -3.3926,-0.5885 z"
     id="path2"
     inkscape:connector-curvature="0"
     style="clip-rule:evenodd;fill:#39b0e2;fill-rule:evenodd" />
</svg>
