<svg xmlns="http://www.w3.org/2000/svg" width="53" height="59" viewBox="0 0 52.7 59" fill="none">
<style>
  .a{
    fill:#a4a5a8;
  }
  .b{
    fill:#f29123;
  }
</style>
  <path d="m26.4 26.8c-0.3 0-0.7-0.1-0.9-0.4-0.2-0.2-0.4-0.6-0.4-0.9V9.7c0-0.3 0.1-0.7 0.4-0.9 0.2-0.2 0.6-0.4 0.9-0.4 0.3 0 0.7 0.1 0.9 0.4 0.2 0.2 0.4 0.6 0.4 0.9v15.8c0 0.3-0.1 0.7-0.4 0.9-0.2 0.2-0.6 0.4-0.9 0.4z" class="a"/>
  <path d="m29.9 28.8c-0.3 0-0.6-0.1-0.8-0.3-0.2-0.2-0.4-0.4-0.5-0.7-0.1-0.3-0.1-0.6 0.1-0.8 0.1-0.3 0.3-0.5 0.6-0.6l13.6-7.9c0.1-0.1 0.3-0.1 0.5-0.2 0.2 0 0.3 0 0.5 0 0.2 0 0.3 0.1 0.5 0.2 0.1 0.1 0.3 0.2 0.3 0.4 0.1 0.2 0.1 0.3 0.2 0.5 0 0.2 0 0.3 0 0.5 0 0.2-0.1 0.3-0.2 0.5-0.1 0.1-0.2 0.3-0.4 0.3l-13.6 7.9c-0.2 0.1-0.4 0.2-0.7 0.2z" class="a"/>
  <path d="m43.5 40.6c-0.2 0-0.5-0.1-0.7-0.2L29.2 32.6c-0.1-0.1-0.3-0.2-0.4-0.3-0.1-0.1-0.2-0.3-0.2-0.5 0-0.2-0.1-0.3 0-0.5 0-0.2 0.1-0.3 0.2-0.5 0.1-0.1 0.2-0.3 0.3-0.4 0.1-0.1 0.3-0.2 0.5-0.2 0.2 0 0.3-0.1 0.5 0 0.2 0 0.3 0.1 0.5 0.2l13.6 7.9c0.3 0.1 0.4 0.4 0.6 0.6 0.1 0.3 0.1 0.6 0.1 0.8-0.1 0.3-0.2 0.5-0.5 0.7-0.2 0.2-0.5 0.3-0.8 0.3z" class="a"/>
  <path d="m26.4 50.5c-0.3 0-0.7-0.1-0.9-0.4C25.3 49.9 25.1 49.6 25.1 49.2V33.4c0-0.3 0.1-0.7 0.4-0.9 0.2-0.2 0.6-0.4 0.9-0.4 0.3 0 0.7 0.1 0.9 0.4 0.2 0.2 0.4 0.6 0.4 0.9v15.8c0 0.3-0.1 0.7-0.4 0.9-0.2 0.2-0.6 0.4-0.9 0.4z" class="a"/>
  <path d="M9.3 40.6C9 40.6 8.8 40.5 8.5 40.4 8.3 40.2 8.1 40 8.1 39.7 8 39.4 8 39.1 8.1 38.8 8.2 38.6 8.4 38.3 8.7 38.2L22.3 30.3c0.1-0.1 0.3-0.1 0.5-0.2 0.2 0 0.3 0 0.5 0 0.2 0 0.3 0.1 0.5 0.2 0.1 0.1 0.3 0.2 0.3 0.4 0.1 0.1 0.1 0.3 0.2 0.5 0 0.2 0 0.3 0 0.5 0 0.2-0.1 0.3-0.2 0.5-0.1 0.1-0.2 0.3-0.4 0.3L10 40.5c-0.2 0.1-0.4 0.2-0.7 0.2z" class="a"/>
  <path d="m23 28.8c-0.2 0-0.5-0.1-0.7-0.2L8.7 20.7C8.4 20.5 8.2 20.3 8.1 19.9 8 19.6 8 19.2 8.2 18.9c0.2-0.3 0.5-0.5 0.8-0.6 0.3-0.1 0.7-0.1 1 0.1l13.6 7.9c0.3 0.1 0.4 0.4 0.6 0.6 0.1 0.3 0.1 0.6 0.1 0.8-0.1 0.3-0.2 0.5-0.5 0.7-0.2 0.2-0.5 0.3-0.8 0.3z" class="a"/>
  <path d="m26.4 26.9c0.5 0 1 0.1 1.4 0.4 0.4 0.3 0.7 0.7 0.9 1.1 0.2 0.5 0.2 1 0.1 1.5-0.1 0.5-0.3 0.9-0.7 1.3-0.4 0.4-0.8 0.6-1.3 0.7-0.5 0.1-1 0-1.5-0.1-0.5-0.2-0.9-0.5-1.1-0.9-0.3-0.4-0.4-0.9-0.4-1.4 0-0.7 0.3-1.3 0.7-1.8 0.5-0.5 1.1-0.7 1.8-0.7zm0-3.1c-1.1 0-2.2 0.3-3.1 0.9-0.9 0.6-1.6 1.5-2.1 2.5-0.4 1-0.5 2.2-0.3 3.2 0.2 1.1 0.8 2.1 1.5 2.9 0.8 0.8 1.8 1.3 2.9 1.5 1.1 0.2 2.2 0.1 3.2-0.3 1-0.4 1.9-1.1 2.5-2.1 0.6-0.9 0.9-2 0.9-3.1 0-1.5-0.6-2.9-1.6-4-1.1-1.1-2.5-1.6-4-1.6z" class="b"/>
  <path d="m47.1 15c0.5 0 1 0.1 1.4 0.4 0.4 0.3 0.7 0.7 0.9 1.1 0.2 0.5 0.2 1 0.1 1.5-0.1 0.5-0.3 0.9-0.7 1.3-0.4 0.4-0.8 0.6-1.3 0.7-0.5 0.1-1 0-1.5-0.1-0.5-0.2-0.9-0.5-1.1-0.9-0.3-0.4-0.4-0.9-0.4-1.4 0-0.7 0.3-1.3 0.7-1.8 0.5-0.5 1.1-0.7 1.8-0.7zm0-3.1c-1.1 0-2.2 0.3-3.1 0.9-0.9 0.6-1.6 1.5-2.1 2.5-0.4 1-0.5 2.2-0.3 3.2 0.2 1.1 0.7 2.1 1.5 2.9 0.8 0.8 1.8 1.3 2.9 1.5 1.1 0.2 2.2 0.1 3.2-0.3 1-0.4 1.9-1.1 2.5-2.1 0.6-0.9 0.9-2 0.9-3.1 0-1.5-0.6-2.9-1.6-4-1.1-1.1-2.5-1.6-4-1.6z" class="b"/>
  <path d="m5.7 15c0.5 0 1 0.1 1.4 0.4 0.4 0.3 0.7 0.7 0.9 1.1 0.2 0.5 0.2 1 0.1 1.5C8.1 18.5 7.9 19 7.5 19.4 7.2 19.7 6.7 20 6.2 20 5.7 20.1 5.2 20.1 4.8 19.9 4.3 19.7 3.9 19.4 3.6 19 3.3 18.5 3.2 18.1 3.2 17.6 3.2 16.9 3.5 16.2 3.9 15.8 4.4 15.3 5.1 15 5.7 15Zm0-3.1c-1.1 0-2.2 0.3-3.1 0.9-0.9 0.6-1.6 1.5-2.1 2.5-0.4 1-0.5 2.2-0.3 3.2 0.2 1.1 0.8 2.1 1.5 2.9 0.8 0.8 1.8 1.3 2.9 1.5 1.1 0.2 2.2 0.1 3.2-0.3 1-0.4 1.9-1.1 2.5-2.1 0.6-0.9 0.9-2 0.9-3.1 0-1.5-0.6-2.9-1.6-4C8.7 12.5 7.2 11.9 5.7 11.9Z" class="b"/>
  <path d="m5.6 39.1c0.5 0 1 0.1 1.4 0.4 0.4 0.3 0.7 0.7 0.9 1.1 0.2 0.5 0.2 1 0.1 1.5-0.1 0.5-0.3 0.9-0.7 1.3-0.4 0.4-0.8 0.6-1.3 0.7-0.5 0.1-1 0-1.5-0.1C4.2 43.8 3.8 43.5 3.5 43 3.2 42.6 3.1 42.1 3.1 41.6 3.1 41 3.3 40.3 3.8 39.8 4.3 39.4 4.9 39.1 5.6 39.1Zm0-3.1c-1.1 0-2.2 0.3-3.1 0.9-0.9 0.6-1.6 1.5-2.1 2.5-0.4 1-0.5 2.2-0.3 3.2 0.2 1.1 0.8 2.1 1.5 2.9 0.8 0.8 1.8 1.3 2.9 1.5 1.1 0.2 2.2 0.1 3.2-0.3 1-0.4 1.9-1.1 2.5-2.1 0.6-0.9 0.9-2 0.9-3.1 0-0.7-0.1-1.5-0.4-2.1C10.5 38.8 10.1 38.2 9.6 37.7 9.1 37.1 8.4 36.7 7.8 36.4 7.1 36.2 6.3 36 5.6 36Z" class="b"/>
  <path d="m26.4 50.8c0.5 0 1 0.1 1.4 0.4 0.4 0.3 0.7 0.7 0.9 1.1 0.2 0.5 0.2 1 0.1 1.5-0.1 0.5-0.3 0.9-0.7 1.3-0.4 0.4-0.8 0.6-1.3 0.7-0.5 0.1-1 0-1.5-0.1-0.5-0.2-0.9-0.5-1.1-0.9-0.3-0.4-0.4-0.9-0.4-1.4 0-0.7 0.3-1.3 0.7-1.8 0.5-0.5 1.1-0.7 1.8-0.7zm0-3.1c-1.1 0-2.2 0.3-3.1 0.9-0.9 0.6-1.6 1.5-2.1 2.5-0.4 1-0.5 2.2-0.3 3.2 0.2 1.1 0.8 2.1 1.5 2.9 0.8 0.8 1.8 1.3 2.9 1.5 1.1 0.2 2.2 0.1 3.2-0.3 1-0.4 1.9-1.1 2.5-2.1 0.6-0.9 0.9-2 0.9-3.1 0-0.7-0.1-1.5-0.4-2.1-0.3-0.7-0.7-1.3-1.2-1.8-0.5-0.5-1.1-0.9-1.8-1.2C27.9 47.9 27.2 47.8 26.4 47.8Z" class="b"/>
  <path d="m47.1 38.9c0.5 0 1 0.1 1.4 0.4 0.4 0.3 0.7 0.7 0.9 1.1 0.2 0.5 0.2 1 0.1 1.5-0.1 0.5-0.3 0.9-0.7 1.3-0.4 0.4-0.8 0.6-1.3 0.7-0.5 0.1-1 0.1-1.5-0.1-0.5-0.2-0.9-0.5-1.1-0.9-0.3-0.4-0.4-0.9-0.4-1.4 0-0.7 0.3-1.3 0.7-1.8 0.5-0.5 1.1-0.7 1.8-0.7zm0-3.1c-1.1 0-2.2 0.3-3.1 0.9-0.9 0.6-1.6 1.5-2.1 2.5-0.4 1-0.5 2.2-0.3 3.2 0.2 1.1 0.7 2.1 1.5 2.9 0.8 0.8 1.8 1.3 2.9 1.5 1.1 0.2 2.2 0.1 3.2-0.3 1-0.4 1.9-1.1 2.5-2.1 0.6-0.9 0.9-2 0.9-3.1 0-1.5-0.6-2.9-1.6-4-1.1-1.1-2.5-1.6-4-1.6z" class="b"/>
  <path d="m26.4 3.1c0.5 0 1 0.1 1.4 0.4 0.4 0.3 0.7 0.7 0.9 1.1 0.2 0.5 0.2 1 0.1 1.5-0.1 0.5-0.3 0.9-0.7 1.3C27.9 7.8 27.4 8 26.9 8.1 26.4 8.2 25.9 8.2 25.5 8 25 7.8 24.6 7.4 24.3 7 24 6.6 23.9 6.1 23.9 5.6 23.9 4.9 24.2 4.3 24.6 3.8 25.1 3.3 25.8 3.1 26.4 3.1Zm0-3.1C25.3 0 24.2 0.3 23.3 0.9 22.4 1.6 21.7 2.4 21.3 3.5c-0.4 1-0.5 2.2-0.3 3.2 0.2 1.1 0.8 2.1 1.5 2.9 0.8 0.8 1.8 1.3 2.9 1.5 1.1 0.2 2.2 0.1 3.2-0.3 1-0.4 1.9-1.1 2.5-2.1 0.6-0.9 0.9-2 0.9-3.1 0-0.7-0.1-1.5-0.4-2.1C31.3 2.8 30.9 2.2 30.4 1.6 29.9 1.1 29.3 0.7 28.6 0.4 27.9 0.1 27.2 0 26.4 0Z" class="b"/>
</svg>