<svg xmlns="http://www.w3.org/2000/svg" width="53" height="59" viewBox="0 0 52.6 58.8" fill="none">
<style>
  .a{
    fill:#a4a5a8;
  }
  .b{
    fill:#2ba7df;
  }
</style>
  <path d="m43.4 16.7c-0.2 0-0.5-0.1-0.7-0.2l-13.5-7.8c-0.2-0.1-0.3-0.2-0.4-0.3-0.1-0.1-0.2-0.3-0.2-0.5 0-0.2-0.1-0.3 0-0.5 0-0.2 0.1-0.3 0.2-0.5 0.1-0.2 0.2-0.3 0.3-0.4 0.1-0.1 0.3-0.2 0.5-0.2 0.2 0 0.3-0.1 0.5 0 0.2 0 0.3 0.1 0.5 0.2l13.5 7.8c0.2 0.1 0.4 0.4 0.6 0.6 0.1 0.3 0.1 0.6 0.1 0.8-0.1 0.3-0.2 0.5-0.5 0.7-0.2 0.2-0.5 0.3-0.8 0.3z" class="a"/>
  <path d="m47 38.3c-0.3 0-0.7-0.1-0.9-0.4-0.2-0.2-0.4-0.6-0.4-0.9v-15.6c0-0.3 0.1-0.7 0.4-0.9 0.2-0.2 0.6-0.4 0.9-0.4 0.3 0 0.7 0.1 0.9 0.4 0.2 0.2 0.4 0.6 0.4 0.9v15.6c0 0.3-0.1 0.7-0.4 0.9-0.2 0.2-0.6 0.4-0.9 0.4z" class="a"/>
  <path d="m29.9 52.5c-0.3 0-0.6-0.1-0.8-0.3-0.2-0.2-0.4-0.4-0.5-0.7-0.1-0.3-0.1-0.6 0.1-0.8 0.1-0.3 0.3-0.5 0.6-0.6l13.5-7.8c0.1-0.1 0.3-0.1 0.5-0.2 0.2 0 0.3 0 0.5 0 0.2 0 0.3 0.1 0.5 0.2 0.1 0.1 0.3 0.2 0.3 0.4 0.1 0.2 0.1 0.3 0.2 0.5 0 0.2 0 0.3 0 0.5 0 0.2-0.1 0.3-0.2 0.5-0.1 0.1-0.2 0.3-0.4 0.3l-13.5 7.8c-0.2 0.1-0.4 0.2-0.7 0.2z" class="a"/>
  <path d="m22.8 52.5c-0.2 0-0.5-0.1-0.7-0.2l-13.5-7.8c-0.2-0.1-0.3-0.2-0.4-0.3-0.1-0.1-0.2-0.3-0.2-0.5 0-0.2-0.1-0.3 0-0.5 0-0.2 0.1-0.3 0.2-0.5 0.1-0.2 0.2-0.3 0.3-0.4 0.1-0.1 0.3-0.2 0.5-0.2 0.2 0 0.3-0.1 0.5 0 0.2 0 0.3 0.1 0.5 0.2l13.5 7.8c0.2 0.1 0.4 0.4 0.6 0.6 0.1 0.3 0.1 0.6 0.1 0.8-0.1 0.3-0.2 0.5-0.5 0.7-0.2 0.2-0.5 0.3-0.8 0.3z" class="a"/>
  <path d="m5.7 38.3c-0.3 0-0.7-0.1-0.9-0.4-0.2-0.2-0.4-0.6-0.4-0.9v-15.6c0-0.3 0.1-0.7 0.4-0.9 0.2-0.2 0.6-0.4 0.9-0.4 0.3 0 0.7 0.1 0.9 0.4 0.2 0.2 0.4 0.6 0.4 0.9v15.6c0 0.3-0.1 0.7-0.4 0.9-0.2 0.2-0.6 0.4-0.9 0.4z" class="a"/>
  <path d="m9.3 16.7c-0.3 0-0.6-0.1-0.8-0.3-0.2-0.2-0.4-0.4-0.5-0.7-0.1-0.3-0.1-0.6 0.1-0.8 0.1-0.3 0.3-0.5 0.6-0.6l13.5-7.8c0.1-0.1 0.3-0.1 0.5-0.2 0.2 0 0.3 0 0.5 0 0.2 0 0.3 0.1 0.5 0.2 0.1 0.1 0.3 0.2 0.3 0.4 0.1 0.2 0.1 0.3 0.2 0.5 0 0.2 0 0.3 0 0.5 0 0.2-0.1 0.3-0.2 0.5-0.1 0.1-0.2 0.3-0.4 0.3l-13.5 7.8c-0.2 0.1-0.4 0.2-0.7 0.2z" class="a"/>
  <path d="m47 15c0.5 0 1 0.1 1.4 0.4 0.4 0.3 0.7 0.7 0.9 1.1 0.2 0.5 0.2 1 0.1 1.5-0.1 0.5-0.3 0.9-0.7 1.3-0.4 0.4-0.8 0.6-1.3 0.7-0.5 0.1-1 0-1.5-0.1-0.5-0.2-0.9-0.5-1.1-0.9-0.3-0.4-0.4-0.9-0.4-1.4 0-0.7 0.3-1.3 0.7-1.8 0.5-0.5 1.1-0.7 1.8-0.7zm0-3.1c-1.1 0-2.2 0.3-3.1 0.9-0.9 0.6-1.6 1.5-2.1 2.5-0.4 1-0.5 2.1-0.3 3.2 0.2 1.1 0.7 2.1 1.5 2.9 0.8 0.8 1.8 1.3 2.9 1.5 1.1 0.2 2.2 0.1 3.2-0.3 1-0.4 1.9-1.1 2.5-2.1 0.6-0.9 0.9-2 0.9-3.1 0-1.5-0.6-2.9-1.6-3.9-1-1-2.5-1.6-3.9-1.6z" class="b"/>
  <path d="m5.7 15c0.5 0 1 0.1 1.4 0.4 0.4 0.3 0.7 0.7 0.9 1.1 0.2 0.5 0.2 1 0.1 1.5-0.1 0.5-0.3 0.9-0.7 1.3-0.4 0.4-0.8 0.6-1.3 0.7-0.5 0.1-1 0-1.5-0.1-0.5-0.2-0.9-0.5-1.1-0.9-0.3-0.4-0.4-0.9-0.4-1.4 0-0.7 0.3-1.3 0.7-1.8 0.5-0.5 1.1-0.7 1.8-0.7zm0-3.1c-1.1 0-2.2 0.3-3.1 0.9-0.9 0.6-1.6 1.5-2.1 2.5-0.4 1-0.5 2.1-0.3 3.2 0.2 1.1 0.7 2.1 1.5 2.9 0.8 0.8 1.8 1.3 2.9 1.5 1.1 0.2 2.2 0.1 3.2-0.3 1-0.4 1.9-1.1 2.5-2.1 0.6-0.9 0.9-2 0.9-3.1 0-0.7-0.1-1.5-0.4-2.1-0.3-0.7-0.7-1.3-1.2-1.8-0.5-0.5-1.1-0.9-1.8-1.2-0.7-0.3-1.4-0.4-2.1-0.4z" class="b"/>
  <path d="m5.6 38.9c0.5 0 1 0.2 1.4 0.4 0.4 0.3 0.7 0.7 0.9 1.1 0.2 0.5 0.2 1 0.1 1.5-0.1 0.5-0.3 0.9-0.7 1.3-0.4 0.4-0.8 0.6-1.3 0.7-0.5 0.1-1 0-1.5-0.1-0.5-0.2-0.9-0.5-1.1-0.9-0.3-0.4-0.4-0.9-0.4-1.4 0-0.7 0.3-1.3 0.7-1.8 0.5-0.5 1.1-0.7 1.8-0.7zm0-3.1c-1.1 0-2.2 0.3-3.1 0.9-0.9 0.6-1.6 1.5-2.1 2.5-0.4 1-0.5 2.1-0.3 3.2 0.2 1.1 0.7 2.1 1.5 2.9 0.8 0.8 1.8 1.3 2.9 1.5 1.1 0.2 2.2 0.1 3.2-0.3 1-0.4 1.9-1.1 2.5-2.1 0.6-0.9 0.9-2 0.9-3.1 0-0.7-0.1-1.5-0.4-2.1-0.3-0.7-0.7-1.3-1.2-1.8-0.5-0.5-1.1-0.9-1.8-1.2-0.7-0.3-1.4-0.4-2.1-0.4z" class="b"/>
  <path d="m26.4 50.7c0.5 0 1 0.1 1.4 0.4 0.4 0.3 0.7 0.7 0.9 1.1 0.2 0.5 0.2 1 0.1 1.5-0.1 0.5-0.3 0.9-0.7 1.3-0.4 0.4-0.8 0.6-1.3 0.7-0.5 0.1-1 0-1.5-0.1-0.5-0.2-0.9-0.5-1.1-0.9-0.3-0.4-0.4-0.9-0.4-1.4 0-0.7 0.3-1.3 0.7-1.8 0.5-0.5 1.1-0.7 1.8-0.7zm0-3.1c-1.1 0-2.2 0.3-3.1 0.9-0.9 0.6-1.6 1.5-2.1 2.5-0.4 1-0.5 2.1-0.3 3.2 0.2 1.1 0.7 2.1 1.5 2.9 0.8 0.8 1.8 1.3 2.9 1.5 1.1 0.2 2.2 0.1 3.2-0.3 1-0.4 1.9-1.1 2.5-2.1 0.6-0.9 0.9-2 0.9-3.1 0-1.5-0.6-2.9-1.6-3.9-1-1-2.5-1.6-3.9-1.6z" class="b"/>
  <path d="m47 38.8c0.5 0 1 0.1 1.4 0.4 0.4 0.3 0.7 0.7 0.9 1.1 0.2 0.5 0.2 1 0.1 1.5-0.1 0.5-0.3 0.9-0.7 1.3-0.4 0.4-0.8 0.6-1.3 0.7-0.5 0.1-1 0-1.5-0.1-0.5-0.2-0.9-0.5-1.1-0.9-0.3-0.4-0.4-0.9-0.4-1.4 0-0.7 0.3-1.3 0.7-1.8 0.5-0.5 1.1-0.7 1.8-0.7zm0-3.1c-1.1 0-2.2 0.3-3.1 0.9-0.9 0.6-1.6 1.5-2.1 2.5-0.4 1-0.5 2.1-0.3 3.2 0.2 1.1 0.7 2.1 1.5 2.9 0.8 0.8 1.8 1.3 2.9 1.5 1.1 0.2 2.2 0.1 3.2-0.3 1-0.4 1.9-1.1 2.5-2.1 0.6-0.9 0.9-2 0.9-3.1 0-1.5-0.6-2.9-1.6-4-1-1-2.5-1.6-4-1.6z" class="b"/>
  <path d="m26.4 3.1c0.5 0 1 0.1 1.4 0.4 0.4 0.3 0.7 0.7 0.9 1.1 0.2 0.5 0.2 1 0.1 1.5-0.1 0.5-0.3 0.9-0.7 1.3-0.4 0.4-0.8 0.6-1.3 0.7-0.5 0.1-1 0-1.5-0.1-0.5-0.2-0.9-0.5-1.1-0.9-0.3-0.4-0.4-0.9-0.4-1.4 0-0.7 0.3-1.3 0.7-1.8 0.5-0.5 1.1-0.7 1.8-0.7zm0-3.1c-1.1 0-2.2 0.3-3.1 0.9-0.9 0.6-1.6 1.5-2.1 2.5-0.4 1-0.5 2.1-0.3 3.2 0.2 1.1 0.7 2.1 1.5 2.9 0.8 0.8 1.8 1.3 2.9 1.5 1.1 0.2 2.2 0.1 3.2-0.3 1-0.4 1.9-1.1 2.5-2.1 0.6-0.9 0.9-2 0.9-3.1 0-1.5-0.6-2.9-1.6-3.9C29.3 0.6 27.8 0 26.4 0Z" class="b"/>
</svg>
