<svg xmlns="http://www.w3.org/2000/svg" width="55" height="62" viewBox="0 0 55 61.5" fill="none">
<style>
  .a{
    fill:#a4a5a8;
  }
  .b{
    fill:#c73734;
  }
</style>
  <path d="m27.6 27.5c-0.8 0-1.4-0.6-1.4-1.4v-15.8c0-0.8 0.6-1.4 1.4-1.4 0.8 0 1.4 0.6 1.4 1.4v15.8c0 0.8-0.6 1.4-1.4 1.4z" class="a"/>
  <path d="m9.7 42.5c-0.5 0-0.9-0.2-1.2-0.7-0.4-0.7-0.2-1.5 0.5-1.9l13.9-8c0.7-0.4 1.5-0.2 1.9 0.5 0.4 0.7 0.2 1.5-0.5 1.9l-13.9 8c-0.2 0.1-0.5 0.2-0.7 0.2z" class="a"/>
  <path d="m27.6 28.1c1.5 0 2.7 1.2 2.7 2.7 0 1.5-1.2 2.7-2.7 2.7-1.5 0-2.7-1.2-2.7-2.7 0-1.5 1.2-2.7 2.7-2.7zm0-3.2c-3.2 0-5.8 2.6-5.8 5.8 0 3.2 2.6 5.8 5.8 5.8 3.2 0 5.8-2.6 5.8-5.8 0-3.2-2.6-5.8-5.8-5.8z" class="b"/>
  <path d="m6 40.5c-0.8 0-1.4-0.6-1.4-1.4v-16.4c0-0.8 0.6-1.4 1.4-1.4 0.8 0 1.4 0.6 1.4 1.4v16.4c0 0.8-0.6 1.4-1.4 1.4z" class="a"/>
  <path d="m10 17.4c-0.5 0-0.9-0.2-1.2-0.7-0.4-0.7-0.2-1.5 0.5-1.9l13.9-8c0.7-0.4 1.5-0.2 1.9 0.5 0.4 0.7 0.2 1.5-0.5 1.9l-13.9 8c-0.2 0.1-0.5 0.2-0.7 0.2z" class="a"/>
  <path d="m49.2 15.7c1.5 0 2.7 1.2 2.7 2.7 0 1.5-1.2 2.7-2.7 2.7-1.5 0-2.7-1.2-2.7-2.7 0-1.5 1.2-2.7 2.7-2.7zm0-3.2c-3.2 0-5.8 2.6-5.8 5.8 0 3.2 2.6 5.8 5.8 5.8 3.2 0 5.8-2.6 5.8-5.8 0-3.2-2.6-5.8-5.8-5.8z" class="b"/>
  <path d="m6 15.7c1.5 0 2.7 1.2 2.7 2.7 0 1.5-1.2 2.7-2.7 2.7-1.5 0-2.7-1.2-2.7-2.7 0-1.5 1.2-2.7 2.7-2.7zm0-3.2c-3.2 0-5.8 2.6-5.8 5.8 0 3.2 2.6 5.8 5.8 5.8 3.2 0 5.8-2.6 5.8-5.8 0-3.2-2.6-5.8-5.8-5.8z" class="b"/>
  <path d="m5.8 40.8c1.5 0 2.7 1.2 2.7 2.7 0 1.5-1.2 2.7-2.7 2.7-1.5 0-2.7-1.2-2.7-2.7 0-1.5 1.2-2.7 2.7-2.7zm0-3.2c-3.2 0-5.8 2.6-5.8 5.8 0 3.2 2.6 5.8 5.8 5.8 3.2 0 5.8-2.6 5.8-5.8 0-3.2-2.6-5.8-5.8-5.8z" class="b"/>
  <path d="m27.6 53c1.5 0 2.7 1.2 2.7 2.7 0 1.5-1.2 2.7-2.7 2.7-1.5 0-2.7-1.2-2.7-2.7 0-1.5 1.2-2.7 2.7-2.7zm0-3.2c-3.2 0-5.8 2.6-5.8 5.8 0 3.2 2.6 5.8 5.8 5.8 3.2 0 5.8-2.6 5.8-5.8 0-3.2-2.6-5.8-5.8-5.8z" class="b"/>
  <path d="m49.2 40.6c1.5 0 2.7 1.2 2.7 2.7 0 1.5-1.2 2.7-2.7 2.7-1.5 0-2.7-1.2-2.7-2.7 0-1.5 1.2-2.7 2.7-2.7zm0-3.2c-3.2 0-5.8 2.6-5.8 5.8 0 3.2 2.6 5.8 5.8 5.8 3.2 0 5.8-2.6 5.8-5.8 0-3.2-2.6-5.8-5.8-5.8z" class="b"/>
  <path d="m27.6 3.2c1.5 0 2.7 1.2 2.7 2.7 0 1.5-1.2 2.7-2.7 2.7-1.5 0-2.7-1.2-2.7-2.7 0-1.5 1.2-2.7 2.7-2.7zM27.6 0c-3.2 0-5.8 2.6-5.8 5.8 0 3.2 2.6 5.8 5.8 5.8 3.2 0 5.8-2.6 5.8-5.8C33.4 2.6 30.8 0 27.6 0Z" class="b"/>
  <path d="m49.1 35.8c-0.8 0-1.4-0.6-1.4-1.4 0-0.8 0.6-1.4 1.4-1.4 0.8 0 1.4 0.6 1.4 1.4 0 0.8-0.6 1.4-1.4 1.4 0 0 0 0 0 0zm0-3.7c-0.8 0-1.4-0.6-1.4-1.4 0-0.8 0.6-1.4 1.4-1.4 0.8 0 1.4 0.6 1.4 1.4 0 0.8-0.6 1.4-1.4 1.4 0 0 0 0 0 0zm0-3.7c-0.8 0-1.4-0.6-1.4-1.4 0-0.8 0.6-1.4 1.4-1.4 0.8 0 1.4 0.6 1.4 1.4 0 0.8-0.6 1.4-1.4 1.4 0 0 0 0 0 0z" class="a"/>
  <path d="m34 51.9c-0.4-0.7-0.1-1.5 0.5-1.9 0.7-0.4 1.5-0.1 1.9 0.5 0.4 0.7 0.1 1.5-0.5 1.9-0.7 0.4-1.5 0.1-1.9-0.5 0 0 0 0 0 0zm3.2-1.8c-0.4-0.7-0.1-1.5 0.5-1.9 0.7-0.4 1.5-0.1 1.9 0.5 0.4 0.7 0.1 1.5-0.5 1.9-0.7 0.4-1.5 0.1-1.9-0.5 0 0 0 0 0 0zm3.2-1.8c-0.4-0.7-0.1-1.5 0.5-1.9 0.7-0.4 1.5-0.1 1.9 0.5 0.4 0.7 0.1 1.5-0.5 1.9-0.7 0.4-1.5 0.2-1.9-0.5 0 0 0 0 0 0z" class="a"/>
  <path d="m12.4 46.9c0.4-0.7 1.2-0.9 1.9-0.5 0.7 0.4 0.9 1.2 0.5 1.9-0.4 0.7-1.2 0.9-1.9 0.5-0.7-0.4-0.9-1.2-0.5-1.9 0 0 0 0 0 0zm3.2 1.8c0.4-0.7 1.2-0.9 1.9-0.5 0.7 0.4 0.9 1.2 0.5 1.9-0.4 0.7-1.2 0.9-1.9 0.5-0.7-0.4-0.9-1.2-0.5-1.9 0 0 0 0 0 0zm3.2 1.8c0.4-0.7 1.2-0.9 1.9-0.5 0.7 0.4 0.9 1.2 0.5 1.9-0.4 0.7-1.2 0.9-1.9 0.5-0.7-0.4-0.9-1.2-0.5-1.9 0 0 0 0 0 0z" class="a"/>
  <path d="m42.7 14.6c-0.4 0.7-1.2 0.9-1.9 0.5-0.7-0.4-0.9-1.2-0.5-1.9 0.4-0.7 1.2-0.9 1.9-0.5 0.7 0.4 0.9 1.2 0.5 1.9zm-3.2-1.8c-0.4 0.7-1.2 0.9-1.9 0.5-0.7-0.4-0.9-1.2-0.5-1.9 0.4-0.7 1.2-0.9 1.9-0.5 0.7 0.4 0.9 1.2 0.5 1.9 0 0 0 0 0 0zm-3.2-1.8c-0.4 0.7-1.2 0.9-1.9 0.5-0.7-0.4-0.9-1.2-0.5-1.9 0.4-0.7 1.2-0.9 1.9-0.5 0.7 0.4 0.9 1.2 0.5 1.9 0 0 0 0 0 0z" class="a"/>
  <path d="m42.7 39.5c-0.4 0.7-1.2 0.9-1.9 0.5-0.7-0.4-0.9-1.2-0.5-1.9 0.4-0.7 1.2-0.9 1.9-0.5 0.7 0.4 0.9 1.2 0.5 1.9 0 0 0 0 0 0zm-3.2-1.8c-0.4 0.7-1.2 0.9-1.9 0.5-0.7-0.4-0.9-1.2-0.5-1.9 0.4-0.7 1.2-0.9 1.9-0.5 0.7 0.4 0.9 1.2 0.5 1.9 0 0 0 0 0 0zm-3.2-1.8c-0.4 0.7-1.2 0.9-1.9 0.5-0.7-0.4-0.9-1.2-0.5-1.9 0.4-0.7 1.2-0.9 1.9-0.5 0.7 0.4 0.9 1.2 0.5 1.9 0 0 0 0 0 0z" class="a"/>
</svg>