<?xml version="1.0" encoding="UTF-8" standalone="no"?>
<!-- Created with Inkscape (http://www.inkscape.org/) -->

<svg
   xmlns:dc="http://purl.org/dc/elements/1.1/"
   xmlns:cc="http://creativecommons.org/ns#"
   xmlns:rdf="http://www.w3.org/1999/02/22-rdf-syntax-ns#"
   xmlns:svg="http://www.w3.org/2000/svg"
   xmlns="http://www.w3.org/2000/svg"
   xmlns:sodipodi="http://sodipodi.sourceforge.net/DTD/sodipodi-0.dtd"
   xmlns:inkscape="http://www.inkscape.org/namespaces/inkscape"
   version="1.1"
   id="svg2"
   xml:space="preserve"
   width="425.60733"
   height="474.57413"
   viewBox="0 0 425.60733 474.57413"
   sodipodi:docname="logo-mxrdr.svg"
   inkscape:version="0.92.4 (5da689c313, 2019-01-14)"><metadata
     id="metadata8"><rdf:RDF><cc:Work
         rdf:about=""><dc:format>image/svg+xml</dc:format><dc:type
           rdf:resource="http://purl.org/dc/dcmitype/StillImage" /><dc:title></dc:title></cc:Work></rdf:RDF></metadata><defs
     id="defs6"><clipPath
       clipPathUnits="userSpaceOnUse"
       id="clipPath18"><path
         d="M 0,1080 H 1920 V 0 H 0 Z"
         id="path16"
         inkscape:connector-curvature="0" /></clipPath><clipPath
       clipPathUnits="userSpaceOnUse"
       id="clipPath128"><path
         d="M 0,1080 H 1920 V 0 H 0 Z"
         id="path126"
         inkscape:connector-curvature="0" /></clipPath><clipPath
       clipPathUnits="userSpaceOnUse"
       id="clipPath192"><path
         d="M 0,1080 H 1920 V 0 H 0 Z"
         id="path190"
         inkscape:connector-curvature="0" /></clipPath><clipPath
       clipPathUnits="userSpaceOnUse"
       id="clipPath200"><path
         d="M 441.896,837.032 H 1820.97 V 242.604 H 441.896 Z"
         id="path198"
         inkscape:connector-curvature="0" /></clipPath><clipPath
       clipPathUnits="userSpaceOnUse"
       id="clipPath350"><path
         d="M 0,1080 H 1920 V 0 H 0 Z"
         id="path348"
         inkscape:connector-curvature="0" /></clipPath><clipPath
       clipPathUnits="userSpaceOnUse"
       id="clipPath426"><path
         d="M 0,1080 H 1920 V 0 H 0 Z"
         id="path424"
         inkscape:connector-curvature="0" /></clipPath></defs><sodipodi:namedview
     pagecolor="#ffffff"
     bordercolor="#666666"
     borderopacity="1"
     objecttolerance="10"
     gridtolerance="10"
     guidetolerance="10"
     inkscape:pageopacity="0"
     inkscape:pageshadow="2"
     inkscape:window-width="1680"
     inkscape:window-height="991"
     id="namedview4"
     showgrid="false"
     fit-margin-top="0"
     fit-margin-left="0"
     fit-margin-right="0"
     fit-margin-bottom="0"
     inkscape:zoom="0.29453125"
     inkscape:cx="1479.8294"
     inkscape:cy="-462.94556"
     inkscape:window-x="0"
     inkscape:window-y="30"
     inkscape:window-maximized="1"
     inkscape:current-layer="g10" /><g
     id="g10"
     inkscape:groupmode="layer"
     inkscape:label="Logo_MX-RDR_CMYK_ENG"
     transform="matrix(1.3333333,0,0,-1.3333333,-748.31385,957.16584)"><g
       id="g122"><g
         id="g124"
         clip-path="url(#clipPath128)"><g
           id="g130"
           transform="translate(720.8384,565.624)"><path
             d="m 0,0 c -14.152,0 -25.624,-11.472 -25.624,-25.624 0,-14.151 11.472,-25.624 25.624,-25.624 14.152,0 25.624,11.473 25.624,25.624 C 25.624,-11.472 14.152,0 0,0 m 0,-14 c 6.41,0 11.624,-5.214 11.624,-11.624 0,-6.409 -5.214,-11.624 -11.624,-11.624 -6.41,0 -11.624,5.215 -11.624,11.624 0,6.41 5.214,11.624 11.624,11.624"
             style="fill:#a6a8ab;fill-opacity:1;fill-rule:nonzero;stroke:none"
             id="path132"
             inkscape:connector-curvature="0" /></g><g
           id="g134"
           transform="translate(798.9956,597.8818)"><path
             d="M 0,0 C -1.018,0 -2.05,0.259 -2.995,0.805 L -64.86,36.523 c -2.87,1.657 -3.853,5.327 -2.197,8.196 1.657,2.87 5.328,3.852 8.197,2.197 L 3.005,11.197 C 5.875,9.54 6.858,5.871 5.202,3.001 4.09,1.076 2.073,0 0,0"
             style="fill:#a6a8ab;fill-opacity:1;fill-rule:nonzero;stroke:none"
             id="path136"
             inkscape:connector-curvature="0" /></g><g
           id="g138"
           transform="translate(815.4019,499)"><path
             d="m 0,0 c -3.313,0 -6,2.687 -6,6 v 71.617 c 0,3.314 2.687,6 6,6 3.313,0 6,-2.686 6,-6 V 6 C 6,2.687 3.313,0 0,0"
             style="fill:#a6a8ab;fill-opacity:1;fill-rule:nonzero;stroke:none"
             id="path140"
             inkscape:connector-curvature="0" /></g><g
           id="g142"
           transform="translate(737.1406,434.0332)"><path
             d="m 0,0 c -2.074,0 -4.09,1.076 -5.202,3.001 -1.656,2.87 -0.673,6.539 2.197,8.196 L 58.86,46.916 c 2.869,1.655 6.54,0.674 8.197,-2.196 1.656,-2.87 0.673,-6.539 -2.197,-8.197 L 2.995,0.805 C 2.05,0.26 1.018,0 0,0"
             style="fill:#a6a8ab;fill-opacity:1;fill-rule:nonzero;stroke:none"
             id="path144"
             inkscape:connector-curvature="0" /></g><g
           id="g146"
           transform="translate(704.5361,434.0332)"><path
             d="M 0,0 C -1.018,0 -2.05,0.259 -2.995,0.805 L -64.86,36.523 c -2.87,1.658 -3.853,5.327 -2.197,8.197 1.658,2.87 5.328,3.853 8.197,2.196 L 3.005,11.197 C 5.875,9.54 6.858,5.871 5.202,3.001 4.09,1.076 2.073,0 0,0"
             style="fill:#a6a8ab;fill-opacity:1;fill-rule:nonzero;stroke:none"
             id="path148"
             inkscape:connector-curvature="0" /></g><g
           id="g150"
           transform="translate(626.2749,499)"><path
             d="m 0,0 c -3.313,0 -6,2.687 -6,6 v 71.617 c 0,3.314 2.687,6 6,6 3.313,0 6,-2.686 6,-6 V 6 C 6,2.687 3.313,0 0,0"
             style="fill:#a6a8ab;fill-opacity:1;fill-rule:nonzero;stroke:none"
             id="path152"
             inkscape:connector-curvature="0" /></g><g
           id="g154"
           transform="translate(642.6812,597.8818)"><path
             d="m 0,0 c -2.074,0 -4.09,1.076 -5.202,3.001 -1.656,2.87 -0.673,6.539 2.197,8.196 L 58.86,46.916 c 2.869,1.656 6.539,0.673 8.197,-2.197 C 68.713,41.85 67.73,38.18 64.86,36.523 L 2.995,0.805 C 2.05,0.259 1.018,0 0,0"
             style="fill:#a6a8ab;fill-opacity:1;fill-rule:nonzero;stroke:none"
             id="path156"
             inkscape:connector-curvature="0" /></g><g
           id="g158"
           transform="translate(815.4019,620.0381)"><path
             d="m 0,0 c -14.152,0 -25.624,-11.472 -25.624,-25.624 0,-14.152 11.472,-25.624 25.624,-25.624 14.151,0 25.624,11.472 25.624,25.624 C 25.624,-11.472 14.151,0 0,0 m 0,-14 c 6.409,0 11.624,-5.215 11.624,-11.624 0,-6.41 -5.215,-11.624 -11.624,-11.624 -6.41,0 -11.624,5.214 -11.624,11.624 C -11.624,-19.215 -6.41,-14 0,-14"
             style="fill:#2ba9e0;fill-opacity:1;fill-rule:nonzero;stroke:none"
             id="path160"
             inkscape:connector-curvature="0" /></g><g
           id="g162"
           transform="translate(626.2749,620.0381)"><path
             d="m 0,0 c -14.151,0 -25.624,-11.472 -25.624,-25.624 0,-14.152 11.473,-25.624 25.624,-25.624 14.152,0 25.624,11.472 25.624,25.624 C 25.624,-11.472 14.152,0 0,0 m 0,-14 c 6.41,0 11.624,-5.215 11.624,-11.624 0,-6.41 -5.214,-11.624 -11.624,-11.624 -6.409,0 -11.624,5.214 -11.624,11.624 0,6.409 5.215,11.624 11.624,11.624"
             style="fill:#2ba9e0;fill-opacity:1;fill-rule:nonzero;stroke:none"
             id="path164"
             inkscape:connector-curvature="0" /></g><g
           id="g166"
           transform="translate(625.6646,510.0107)"><path
             d="m 0,0 c -14.152,0 -25.624,-11.473 -25.624,-25.624 0,-14.152 11.472,-25.624 25.624,-25.624 14.152,0 25.624,11.472 25.624,25.624 C 25.624,-11.473 14.152,0 0,0 m 0,-14 c 6.41,0 11.624,-5.215 11.624,-11.624 0,-6.41 -5.214,-11.624 -11.624,-11.624 -6.41,0 -11.624,5.214 -11.624,11.624 C -11.624,-19.215 -6.41,-14 0,-14"
             style="fill:#2ba9e0;fill-opacity:1;fill-rule:nonzero;stroke:none"
             id="path168"
             inkscape:connector-curvature="0" /></g><g
           id="g170"
           transform="translate(720.8384,456.249)"><path
             d="m 0,0 c -14.152,0 -25.624,-11.472 -25.624,-25.624 0,-14.151 11.472,-25.623 25.624,-25.623 14.152,0 25.624,11.472 25.624,25.623 C 25.624,-11.472 14.152,0 0,0 m 0,-14 c 6.41,0 11.624,-5.214 11.624,-11.624 0,-6.409 -5.214,-11.623 -11.624,-11.623 -6.41,0 -11.624,5.214 -11.624,11.623 0,6.41 5.214,11.624 11.624,11.624"
             style="fill:#2ba9e0;fill-opacity:1;fill-rule:nonzero;stroke:none"
             id="path172"
             inkscape:connector-curvature="0" /></g><g
           id="g174"
           transform="translate(815.4019,510.8457)"><path
             d="m 0,0 c -14.152,0 -25.624,-11.473 -25.624,-25.624 0,-14.151 11.472,-25.624 25.624,-25.624 14.151,0 25.624,11.473 25.624,25.624 C 25.624,-11.473 14.151,0 0,0 m 0,-14 c 6.409,0 11.624,-5.215 11.624,-11.624 0,-6.409 -5.215,-11.624 -11.624,-11.624 -6.41,0 -11.624,5.215 -11.624,11.624 C -11.624,-19.215 -6.41,-14 0,-14"
             style="fill:#2ba9e0;fill-opacity:1;fill-rule:nonzero;stroke:none"
             id="path176"
             inkscape:connector-curvature="0" /></g><g
           id="g178"
           transform="translate(720.8384,674.6343)"><path
             d="m 0,0 c -14.152,0 -25.624,-11.472 -25.624,-25.624 0,-14.152 11.472,-25.624 25.624,-25.624 14.152,0 25.624,11.472 25.624,25.624 C 25.624,-11.472 14.152,0 0,0 m 0,-14 c 6.41,0 11.624,-5.215 11.624,-11.624 0,-6.41 -5.214,-11.624 -11.624,-11.624 -6.41,0 -11.624,5.214 -11.624,11.624 C -11.624,-19.215 -6.41,-14 0,-14"
             style="fill:#2ba9e0;fill-opacity:1;fill-rule:nonzero;stroke:none"
             id="path180"
             inkscape:connector-curvature="0" /></g><g
           id="g182"
           transform="translate(720.8384,705.6978)"><path
             d="m 0,0 c -5.078,0 -10.156,-1.307 -14.686,-3.922 l -118.231,-68.261 c -9.058,-5.23 -14.686,-14.977 -14.686,-25.436 V -234.14 c 0,-10.46 5.628,-20.207 14.686,-25.437 l 118.231,-68.26 c 9.059,-5.231 20.313,-5.231 29.372,0 l 118.231,68.26 c 9.058,5.23 14.685,14.977 14.685,25.437 v 136.521 c 0,10.46 -5.627,20.206 -14.685,25.436 L 14.686,-3.922 C 10.156,-1.307 5.078,0 0,0 m 0,-343.754 c -7.153,0 -14.306,1.84 -20.686,5.524 l -118.231,68.261 c -12.759,7.367 -20.686,21.095 -20.686,35.829 v 136.521 c 0,14.733 7.927,28.462 20.686,35.828 L -20.686,6.47 c 12.76,7.366 28.612,7.366 41.372,0 l 118.231,-68.261 c 12.759,-7.366 20.685,-21.095 20.685,-35.828 V -234.14 c 0,-14.734 -7.926,-28.463 -20.685,-35.829 L 20.686,-338.23 C 14.306,-341.914 7.153,-343.754 0,-343.754"
             style="fill:#a6a8ab;fill-opacity:1;fill-rule:nonzero;stroke:none"
             id="path184"
             inkscape:connector-curvature="0" /></g></g></g><g
       id="g344"><g
         id="g346"
         clip-path="url(#clipPath350)"><g
           id="g352"
           transform="translate(720.8379,554.4585)"><path
             d="m 0,0 c -3.313,0 -6,2.687 -6,6 v 69.321 c 0,3.313 2.687,6 6,6 3.313,0 6,-2.687 6,-6 V 6 C 6,2.687 3.313,0 0,0"
             style="fill:#a5a7aa;fill-opacity:1;fill-rule:nonzero;stroke:none"
             id="path354"
             inkscape:connector-curvature="0" /></g><g
           id="g356"
           transform="translate(642.4106,488.7461)"><path
             d="m 0,0 c -2.071,0 -4.085,1.073 -5.198,2.993 -1.661,2.868 -0.683,6.539 2.185,8.199 l 60.864,35.257 c 2.867,1.663 6.538,0.683 8.199,-2.183 1.661,-2.869 0.684,-6.539 -2.184,-8.2 L 3.001,0.81 C 2.055,0.261 1.021,0 0,0"
             style="fill:#a5a7aa;fill-opacity:1;fill-rule:nonzero;stroke:none"
             id="path358"
             inkscape:connector-curvature="0" /></g><g
           id="g360"
           transform="translate(720.8379,565.8057)"><path
             d="m 0,0 c -14.151,0 -25.624,-11.472 -25.624,-25.624 0,-14.151 11.473,-25.623 25.624,-25.623 14.152,0 25.624,11.472 25.624,25.623 C 25.624,-11.472 14.152,0 0,0 m 0,-14 c 6.41,0 11.624,-5.214 11.624,-11.624 0,-6.409 -5.214,-11.623 -11.624,-11.623 -6.409,0 -11.624,5.214 -11.624,11.623 0,6.41 5.215,11.624 11.624,11.624"
             style="fill:#e73432;fill-opacity:1;fill-rule:nonzero;stroke:none"
             id="path362"
             inkscape:connector-curvature="0" /></g><g
           id="g364"
           transform="translate(626.2749,497.2666)"><path
             d="m 0,0 c -3.313,0 -6,2.687 -6,6 v 72 c 0,3.314 2.687,6 6,6 3.313,0 6,-2.686 6,-6 V 6 C 6,2.687 3.313,0 0,0"
             style="fill:#a5a7aa;fill-opacity:1;fill-rule:nonzero;stroke:none"
             id="path366"
             inkscape:connector-curvature="0" /></g><g
           id="g368"
           transform="translate(643.8193,598.7212)"><path
             d="m 0,0 c -2.074,0 -4.091,1.076 -5.202,3.001 -1.656,2.87 -0.673,6.539 2.197,8.196 l 61.073,35.261 c 2.87,1.657 6.54,0.674 8.197,-2.196 1.657,-2.869 0.673,-6.539 -2.197,-8.196 L 2.995,0.805 C 2.05,0.259 1.018,0 0,0"
             style="fill:#a5a7aa;fill-opacity:1;fill-rule:nonzero;stroke:none"
             id="path370"
             inkscape:connector-curvature="0" /></g><g
           id="g372"
           transform="translate(815.4014,620.2197)"><path
             d="m 0,0 c -14.152,0 -25.624,-11.472 -25.624,-25.624 0,-14.151 11.472,-25.624 25.624,-25.624 14.152,0 25.624,11.473 25.624,25.624 C 25.624,-11.472 14.152,0 0,0 m 0,-14 c 6.41,0 11.624,-5.214 11.624,-11.624 0,-6.409 -5.214,-11.624 -11.624,-11.624 -6.409,0 -11.624,5.215 -11.624,11.624 0,6.41 5.215,11.624 11.624,11.624"
             style="fill:#e73432;fill-opacity:1;fill-rule:nonzero;stroke:none"
             id="path374"
             inkscape:connector-curvature="0" /></g><g
           id="g376"
           transform="translate(626.2749,620.2197)"><path
             d="m 0,0 c -14.152,0 -25.624,-11.472 -25.624,-25.624 0,-14.151 11.472,-25.624 25.624,-25.624 14.151,0 25.624,11.473 25.624,25.624 C 25.624,-11.472 14.151,0 0,0 m 0,-14 c 6.409,0 11.624,-5.214 11.624,-11.624 0,-6.409 -5.215,-11.624 -11.624,-11.624 -6.41,0 -11.624,5.215 -11.624,11.624 0,6.41 5.214,11.624 11.624,11.624"
             style="fill:#e73432;fill-opacity:1;fill-rule:nonzero;stroke:none"
             id="path378"
             inkscape:connector-curvature="0" /></g><g
           id="g380"
           transform="translate(625.6646,510.1924)"><path
             d="m 0,0 c -14.152,0 -25.624,-11.472 -25.624,-25.624 0,-14.151 11.472,-25.624 25.624,-25.624 14.151,0 25.624,11.473 25.624,25.624 C 25.624,-11.472 14.151,0 0,0 m 0,-14 c 6.409,0 11.624,-5.214 11.624,-11.624 0,-6.409 -5.215,-11.624 -11.624,-11.624 -6.41,0 -11.624,5.215 -11.624,11.624 0,6.41 5.214,11.624 11.624,11.624"
             style="fill:#e73432;fill-opacity:1;fill-rule:nonzero;stroke:none"
             id="path382"
             inkscape:connector-curvature="0" /></g><g
           id="g384"
           transform="translate(720.8379,456.4316)"><path
             d="m 0,0 c -14.151,0 -25.624,-11.473 -25.624,-25.624 0,-14.151 11.473,-25.624 25.624,-25.624 14.152,0 25.624,11.473 25.624,25.624 C 25.624,-11.473 14.152,0 0,0 m 0,-14 c 6.41,0 11.624,-5.215 11.624,-11.624 0,-6.409 -5.214,-11.624 -11.624,-11.624 -6.409,0 -11.624,5.215 -11.624,11.624 0,6.409 5.215,11.624 11.624,11.624"
             style="fill:#e73432;fill-opacity:1;fill-rule:nonzero;stroke:none"
             id="path386"
             inkscape:connector-curvature="0" /></g><g
           id="g388"
           transform="translate(815.4014,511.0273)"><path
             d="m 0,0 c -14.152,0 -25.624,-11.472 -25.624,-25.624 0,-14.151 11.472,-25.624 25.624,-25.624 14.152,0 25.624,11.473 25.624,25.624 C 25.624,-11.472 14.152,0 0,0 m 0,-14 c 6.41,0 11.624,-5.214 11.624,-11.624 0,-6.409 -5.214,-11.624 -11.624,-11.624 -6.409,0 -11.624,5.215 -11.624,11.624 0,6.41 5.215,11.624 11.624,11.624"
             style="fill:#e73432;fill-opacity:1;fill-rule:nonzero;stroke:none"
             id="path390"
             inkscape:connector-curvature="0" /></g><g
           id="g392"
           transform="translate(720.8379,674.8159)"><path
             d="m 0,0 c -14.151,0 -25.624,-11.472 -25.624,-25.624 0,-14.151 11.473,-25.624 25.624,-25.624 14.152,0 25.624,11.473 25.624,25.624 C 25.624,-11.472 14.152,0 0,0 m 0,-14 c 6.41,0 11.624,-5.214 11.624,-11.624 0,-6.409 -5.214,-11.624 -11.624,-11.624 -6.409,0 -11.624,5.215 -11.624,11.624 0,6.41 5.215,11.624 11.624,11.624"
             style="fill:#e73432;fill-opacity:1;fill-rule:nonzero;stroke:none"
             id="path394"
             inkscape:connector-curvature="0" /></g><g
           id="g396"
           transform="translate(720.8379,705.8799)"><path
             d="m 0,0 c -5.078,0 -10.156,-1.307 -14.686,-3.922 l -118.23,-68.261 c -9.059,-5.23 -14.686,-14.977 -14.686,-25.436 v -136.522 c 0,-10.46 5.627,-20.207 14.686,-25.436 l 118.23,-68.261 c 9.059,-5.23 20.313,-5.23 29.372,0 l 118.231,68.261 c 9.058,5.229 14.686,14.976 14.686,25.436 v 136.522 c 0,10.459 -5.628,20.206 -14.686,25.436 L 14.686,-3.922 C 10.156,-1.307 5.078,0 0,0 m 0,-343.755 c -7.152,0 -14.306,1.841 -20.686,5.525 l -118.23,68.26 c -12.76,7.367 -20.686,21.096 -20.686,35.829 v 136.522 c 0,14.733 7.926,28.462 20.686,35.828 L -20.686,6.47 c 12.76,7.366 28.612,7.366 41.372,0 l 118.231,-68.261 c 12.759,-7.366 20.686,-21.095 20.686,-35.828 v -136.522 c 0,-14.733 -7.927,-28.462 -20.686,-35.829 L 20.686,-338.23 C 14.306,-341.914 7.153,-343.755 0,-343.755"
             style="fill:#a5a7aa;fill-opacity:1;fill-rule:nonzero;stroke:none"
             id="path398"
             inkscape:connector-curvature="0" /></g><g
           id="g400"
           transform="translate(815.4414,549.9951)"><path
             d="m 0,0 c -3.31,0.021 -5.99,2.721 -5.98,6.03 0.02,3.31 2.71,5.991 6.03,5.98 C 3.36,11.99 6.04,9.3 6.02,5.98 6.01,2.67 3.33,0 0.03,0 Z m -0.06,-16 c -3.32,0.021 -5.99,2.721 -5.98,6.03 0.01,3.31 2.71,5.991 6.02,5.98 3.32,-0.02 6,-2.71 5.98,-6.03 -0.01,-3.31 -2.7,-5.98 -6,-5.98 z m -0.06,-16 c -3.32,0.021 -6,2.721 -5.98,6.03 0.01,3.31 2.71,5.991 6.02,5.98 3.32,-0.02 5.99,-2.71 5.98,-6.03 C 5.89,-29.319 3.2,-32 -0.1,-32 Z"
             style="fill:#a5a7aa;fill-opacity:1;fill-rule:nonzero;stroke:none"
             id="path402"
             inkscape:connector-curvature="0" /></g><g
           id="g404"
           transform="translate(776.6382,463.1592)"><path
             d="M 0,0 C -1.637,2.877 -0.639,6.549 2.232,8.194 5.108,9.832 8.775,8.842 10.426,5.962 12.064,3.085 11.074,-0.581 8.189,-2.223 5.317,-3.869 1.665,-2.884 0.015,-0.026 0.01,-0.017 0.005,-0.008 0,0 m -13.886,-7.948 c -1.643,2.886 -0.639,6.548 2.232,8.194 2.871,1.647 6.543,0.649 8.189,-2.224 1.642,-2.884 0.652,-6.551 -2.232,-8.193 -2.872,-1.646 -6.53,-0.651 -8.179,2.206 -0.005,0.008 -0.005,0.008 -0.01,0.017 m -13.887,-7.948 c -1.643,2.886 -0.644,6.557 2.232,8.194 2.872,1.646 6.543,0.648 8.189,-2.224 1.643,-2.885 0.648,-6.542 -2.231,-8.193 -2.864,-1.641 -6.53,-0.652 -8.18,2.206 -0.005,0.009 -0.01,0.017 -0.01,0.017"
             style="fill:#a5a7aa;fill-opacity:1;fill-rule:nonzero;stroke:none"
             id="path406"
             inkscape:connector-curvature="0" /></g><g
           id="g408"
           transform="translate(682.0347,453.3467)"><path
             d="M 0,0 C 1.672,2.855 5.351,3.827 8.212,2.164 11.068,0.491 12.045,-3.179 10.376,-6.048 8.704,-8.905 5.034,-9.881 2.169,-8.203 -0.693,-6.54 -1.665,-2.884 -0.015,-0.026 -0.01,-0.017 -0.005,-0.009 0,0 m -13.827,8.052 c 1.678,2.865 5.352,3.827 8.213,2.164 2.861,-1.663 3.833,-5.342 2.168,-8.204 -1.677,-2.865 -5.347,-3.841 -8.211,-2.163 -2.863,1.663 -3.829,5.328 -2.179,8.185 z m -13.826,8.052 c 1.678,2.865 5.357,3.835 8.213,2.164 2.86,-1.664 3.832,-5.343 2.168,-8.204 -1.677,-2.866 -5.342,-3.833 -8.212,-2.165 -2.852,1.66 -3.829,5.33 -2.179,8.187 0.005,0.01 0.01,0.018 0.01,0.018"
             style="fill:#a5a7aa;fill-opacity:1;fill-rule:nonzero;stroke:none"
             id="path410"
             inkscape:connector-curvature="0" /></g><g
           id="g412"
           transform="translate(759.6416,627.0176)"><path
             d="m 0,0 c -1.672,-2.856 -5.352,-3.828 -8.212,-2.164 -2.856,1.672 -3.833,5.343 -2.164,8.212 1.672,2.857 5.342,3.832 8.207,2.155 C 0.693,6.54 1.665,2.884 0.015,0.026 0.01,0.017 0.005,0.008 0,0 m 13.827,-8.052 c -1.678,-2.865 -5.352,-3.827 -8.213,-2.164 -2.861,1.663 -3.833,5.342 -2.168,8.204 1.677,2.865 5.347,3.841 8.211,2.163 2.862,-1.663 3.829,-5.328 2.179,-8.186 -0.004,-0.008 -0.004,-0.008 -0.009,-0.017 m 13.826,-8.052 c -1.678,-2.865 -5.357,-3.836 -8.213,-2.164 -2.861,1.664 -3.832,5.343 -2.168,8.204 1.677,2.865 5.342,3.832 8.212,2.164 2.852,-1.659 3.829,-5.329 2.179,-8.186 -0.005,-0.01 -0.01,-0.018 -0.01,-0.018"
             style="fill:#a5a7aa;fill-opacity:1;fill-rule:nonzero;stroke:none"
             id="path414"
             inkscape:connector-curvature="0" /></g><g
           id="g416"
           transform="translate(759.4043,517.96)"><path
             d="m 0,0 c -1.673,-2.855 -5.352,-3.827 -8.213,-2.164 -2.856,1.673 -3.832,5.343 -2.163,8.212 1.672,2.857 5.342,3.833 8.206,2.155 C 0.692,6.54 1.665,2.884 0.015,0.026 0.01,0.018 0.005,0.009 0,0 m 13.826,-8.052 c -1.678,-2.865 -5.351,-3.827 -8.212,-2.164 -2.862,1.664 -3.833,5.343 -2.168,8.204 1.676,2.866 5.346,3.841 8.211,2.164 2.862,-1.664 3.829,-5.329 2.179,-8.186 z m 13.826,-8.052 c -1.677,-2.865 -5.356,-3.835 -8.212,-2.163 -2.861,1.663 -3.832,5.342 -2.168,8.203 1.677,2.866 5.342,3.833 8.211,2.165 2.853,-1.66 3.829,-5.33 2.18,-8.187 -0.006,-0.01 -0.011,-0.018 -0.011,-0.018"
             style="fill:#a5a7aa;fill-opacity:1;fill-rule:nonzero;stroke:none"
             id="path418"
             inkscape:connector-curvature="0" /></g></g></g></g></svg>