<?xml version="1.0" encoding="UTF-8" standalone="no"?>
<!-- Created with Inkscape (http://www.inkscape.org/) -->

<svg
   xmlns:dc="http://purl.org/dc/elements/1.1/"
   xmlns:cc="http://creativecommons.org/ns#"
   xmlns:rdf="http://www.w3.org/1999/02/22-rdf-syntax-ns#"
   xmlns:svg="http://www.w3.org/2000/svg"
   xmlns="http://www.w3.org/2000/svg"
   xmlns:sodipodi="http://sodipodi.sourceforge.net/DTD/sodipodi-0.dtd"
   xmlns:inkscape="http://www.inkscape.org/namespaces/inkscape"
   version="1.1"
   id="svg2"
   xml:space="preserve"
   width="425.60666"
   height="474.33182"
   viewBox="0 0 425.60666 474.33182"
   sodipodi:docname="logo-rds.svg"
   inkscape:version="0.92.4 (5da689c313, 2019-01-14)"><metadata
     id="metadata8"><rdf:RDF><cc:Work
         rdf:about=""><dc:format>image/svg+xml</dc:format><dc:type
           rdf:resource="http://purl.org/dc/dcmitype/StillImage" /><dc:title></dc:title></cc:Work></rdf:RDF></metadata><defs
     id="defs6"><clipPath
       clipPathUnits="userSpaceOnUse"
       id="clipPath18"><path
         d="M 0,1080 H 1920 V 0 H 0 Z"
         id="path16"
         inkscape:connector-curvature="0" /></clipPath><clipPath
       clipPathUnits="userSpaceOnUse"
       id="clipPath128"><path
         d="M 0,1080 H 1920 V 0 H 0 Z"
         id="path126"
         inkscape:connector-curvature="0" /></clipPath><clipPath
       clipPathUnits="userSpaceOnUse"
       id="clipPath192"><path
         d="M 0,1080 H 1920 V 0 H 0 Z"
         id="path190"
         inkscape:connector-curvature="0" /></clipPath><clipPath
       clipPathUnits="userSpaceOnUse"
       id="clipPath200"><path
         d="M 441.896,837.032 H 1820.97 V 242.604 H 441.896 Z"
         id="path198"
         inkscape:connector-curvature="0" /></clipPath><clipPath
       clipPathUnits="userSpaceOnUse"
       id="clipPath348"><path
         d="M 0,1080 H 1920 V 0 H 0 Z"
         id="path346"
         inkscape:connector-curvature="0" /></clipPath><clipPath
       clipPathUnits="userSpaceOnUse"
       id="clipPath412"><path
         d="M 0,1080 H 1920 V 0 H 0 Z"
         id="path410"
         inkscape:connector-curvature="0" /></clipPath></defs><sodipodi:namedview
     pagecolor="#ffffff"
     bordercolor="#666666"
     borderopacity="1"
     objecttolerance="10"
     gridtolerance="10"
     guidetolerance="10"
     inkscape:pageopacity="0"
     inkscape:pageshadow="2"
     inkscape:window-width="1680"
     inkscape:window-height="991"
     id="namedview4"
     showgrid="false"
     fit-margin-top="0"
     fit-margin-left="0"
     fit-margin-right="0"
     fit-margin-bottom="0"
     inkscape:zoom="0.394433"
     inkscape:cx="600.01208"
     inkscape:cy="-31.897484"
     inkscape:window-x="0"
     inkscape:window-y="30"
     inkscape:window-maximized="1"
     inkscape:current-layer="g10" /><g
     id="g10"
     inkscape:groupmode="layer"
     inkscape:label="Logo_RDS_CMYK_ENG"
     transform="matrix(1.3333333,0,0,-1.3333333,-690.55545,957.16568)"><g
       id="g342"><g
         id="g344"
         clip-path="url(#clipPath348)"><g
           id="g350"
           transform="translate(677.5186,552.4155)"><path
             d="m 0,0 c -3.313,0 -6,2.687 -6,6 v 72 c 0,3.313 2.687,6 6,6 3.313,0 6,-2.687 6,-6 V 6 C 6,2.687 3.313,0 0,0"
             style="fill:#a4a5a8;fill-opacity:1;fill-rule:nonzero;stroke:none"
             id="path352"
             inkscape:connector-curvature="0" /></g><g
           id="g354"
           transform="translate(693.3154,543.2979)"><path
             d="m 0,0 c -2.074,0 -4.09,1.076 -5.202,3.001 -1.656,2.87 -0.673,6.539 2.197,8.196 l 62.353,36 c 2.869,1.657 6.54,0.674 8.196,-2.196 1.657,-2.87 0.674,-6.539 -2.196,-8.196 L 2.995,0.805 C 2.05,0.259 1.018,0 0,0"
             style="fill:#a4a5a8;fill-opacity:1;fill-rule:nonzero;stroke:none"
             id="path356"
             inkscape:connector-curvature="0" /></g><g
           id="g358"
           transform="translate(755.6582,489.0635)"><path
             d="m 0,0 c -1.018,0 -2.05,0.259 -2.995,0.805 l -62.353,36 c -2.87,1.657 -3.853,5.326 -2.196,8.196 1.656,2.87 5.327,3.853 8.196,2.196 l 62.353,-36 C 5.875,9.54 6.858,5.871 5.202,3.001 4.09,1.076 2.073,0 0,0"
             style="fill:#a4a5a8;fill-opacity:1;fill-rule:nonzero;stroke:none"
             id="path360"
             inkscape:connector-curvature="0" /></g><g
           id="g362"
           transform="translate(677.5186,443.9473)"><path
             d="m 0,0 c -3.313,0 -6,2.687 -6,6 v 72 c 0,3.313 2.687,6 6,6 3.313,0 6,-2.687 6,-6 V 6 C 6,2.687 3.313,0 0,0"
             style="fill:#a4a5a8;fill-opacity:1;fill-rule:nonzero;stroke:none"
             id="path364"
             inkscape:connector-curvature="0" /></g><g
           id="g366"
           transform="translate(599.3789,489.0635)"><path
             d="m 0,0 c -2.074,0 -4.09,1.076 -5.202,3.001 -1.656,2.87 -0.673,6.539 2.197,8.196 l 62.354,36 c 2.869,1.655 6.539,0.674 8.196,-2.196 1.657,-2.87 0.673,-6.539 -2.196,-8.196 L 2.995,0.805 C 2.05,0.26 1.018,0 0,0"
             style="fill:#a4a5a8;fill-opacity:1;fill-rule:nonzero;stroke:none"
             id="path368"
             inkscape:connector-curvature="0" /></g><g
           id="g370"
           transform="translate(661.7222,543.2979)"><path
             d="m 0,0 c -1.018,0 -2.05,0.259 -2.995,0.805 l -62.354,36 c -2.869,1.657 -3.853,5.326 -2.196,8.196 1.657,2.87 5.327,3.852 8.196,2.196 l 62.354,-36 C 5.875,9.54 6.858,5.871 5.202,3.001 4.09,1.076 2.073,0 0,0"
             style="fill:#a4a5a8;fill-opacity:1;fill-rule:nonzero;stroke:none"
             id="path372"
             inkscape:connector-curvature="0" /></g><g
           id="g374"
           transform="translate(677.5186,565.8057)"><path
             d="m 0,0 c -14.151,0 -25.624,-11.472 -25.624,-25.624 0,-14.151 11.473,-25.624 25.624,-25.624 14.152,0 25.624,11.473 25.624,25.624 C 25.624,-11.472 14.152,0 0,0 m 0,-14 c 6.41,0 11.624,-5.214 11.624,-11.624 0,-6.409 -5.214,-11.624 -11.624,-11.624 -6.41,0 -11.624,5.215 -11.624,11.624 0,6.41 5.214,11.624 11.624,11.624"
             style="fill:#f29123;fill-opacity:1;fill-rule:nonzero;stroke:none"
             id="path376"
             inkscape:connector-curvature="0" /></g><g
           id="g378"
           transform="translate(772.082,620.2197)"><path
             d="m 0,0 c -14.152,0 -25.624,-11.472 -25.624,-25.624 0,-14.152 11.472,-25.624 25.624,-25.624 14.151,0 25.624,11.472 25.624,25.624 C 25.624,-11.472 14.151,0 0,0 m 0,-14 c 6.409,0 11.624,-5.214 11.624,-11.624 0,-6.409 -5.215,-11.624 -11.624,-11.624 -6.41,0 -11.624,5.215 -11.624,11.624 0,6.41 5.214,11.624 11.624,11.624"
             style="fill:#f29123;fill-opacity:1;fill-rule:nonzero;stroke:none"
             id="path380"
             inkscape:connector-curvature="0" /></g><g
           id="g382"
           transform="translate(582.9556,620.2197)"><path
             d="m 0,0 c -14.152,0 -25.624,-11.472 -25.624,-25.624 0,-14.152 11.472,-25.624 25.624,-25.624 14.151,0 25.624,11.472 25.624,25.624 C 25.624,-11.472 14.151,0 0,0 m 0,-14 c 6.409,0 11.624,-5.214 11.624,-11.624 0,-6.409 -5.215,-11.624 -11.624,-11.624 -6.41,0 -11.624,5.215 -11.624,11.624 0,6.41 5.214,11.624 11.624,11.624"
             style="fill:#f29123;fill-opacity:1;fill-rule:nonzero;stroke:none"
             id="path384"
             inkscape:connector-curvature="0" /></g><g
           id="g386"
           transform="translate(582.3447,510.1924)"><path
             d="m 0,0 c -14.151,0 -25.624,-11.473 -25.624,-25.624 0,-14.151 11.473,-25.624 25.624,-25.624 14.152,0 25.624,11.473 25.624,25.624 C 25.624,-11.473 14.152,0 0,0 m 0,-14 c 6.41,0 11.624,-5.215 11.624,-11.624 0,-6.409 -5.214,-11.624 -11.624,-11.624 -6.409,0 -11.624,5.215 -11.624,11.624 0,6.409 5.215,11.624 11.624,11.624"
             style="fill:#f29123;fill-opacity:1;fill-rule:nonzero;stroke:none"
             id="path388"
             inkscape:connector-curvature="0" /></g><g
           id="g390"
           transform="translate(677.5186,456.4316)"><path
             d="m 0,0 c -14.151,0 -25.624,-11.473 -25.624,-25.624 0,-14.152 11.473,-25.624 25.624,-25.624 14.152,0 25.624,11.472 25.624,25.624 C 25.624,-11.473 14.152,0 0,0 m 0,-14 c 6.41,0 11.624,-5.215 11.624,-11.624 0,-6.41 -5.214,-11.624 -11.624,-11.624 -6.41,0 -11.624,5.214 -11.624,11.624 C -11.624,-19.215 -6.41,-14 0,-14"
             style="fill:#f29123;fill-opacity:1;fill-rule:nonzero;stroke:none"
             id="path392"
             inkscape:connector-curvature="0" /></g><g
           id="g394"
           transform="translate(772.082,511.0273)"><path
             d="m 0,0 c -14.152,0 -25.624,-11.472 -25.624,-25.624 0,-14.151 11.472,-25.624 25.624,-25.624 14.151,0 25.624,11.473 25.624,25.624 C 25.624,-11.472 14.151,0 0,0 m 0,-14 c 6.409,0 11.624,-5.214 11.624,-11.624 0,-6.409 -5.215,-11.624 -11.624,-11.624 -6.41,0 -11.624,5.215 -11.624,11.624 0,6.41 5.214,11.624 11.624,11.624"
             style="fill:#f29123;fill-opacity:1;fill-rule:nonzero;stroke:none"
             id="path396"
             inkscape:connector-curvature="0" /></g><g
           id="g398"
           transform="translate(677.5186,674.8159)"><path
             d="m 0,0 c -14.151,0 -25.624,-11.472 -25.624,-25.624 0,-14.152 11.473,-25.624 25.624,-25.624 14.152,0 25.624,11.472 25.624,25.624 C 25.624,-11.472 14.152,0 0,0 m 0,-14 c 6.41,0 11.624,-5.214 11.624,-11.624 0,-6.41 -5.214,-11.624 -11.624,-11.624 -6.41,0 -11.624,5.214 -11.624,11.624 0,6.41 5.214,11.624 11.624,11.624"
             style="fill:#f29123;fill-opacity:1;fill-rule:nonzero;stroke:none"
             id="path400"
             inkscape:connector-curvature="0" /></g><g
           id="g402"
           transform="translate(677.5186,705.8794)"><path
             d="m 0,0 c -5.078,0 -10.156,-1.307 -14.686,-3.922 l -118.231,-68.261 c -9.058,-5.23 -14.685,-14.976 -14.685,-25.436 V -234.14 c 0,-10.46 5.627,-20.207 14.685,-25.437 l 118.231,-68.26 c 9.059,-5.23 20.313,-5.23 29.372,0 l 118.231,68.26 c 9.059,5.23 14.686,14.977 14.686,25.437 v 136.521 c 0,10.46 -5.627,20.206 -14.686,25.436 L 14.686,-3.922 C 10.157,-1.307 5.079,0 0,0 m 0,-343.754 c -7.153,0 -14.306,1.84 -20.686,5.524 l -118.231,68.261 c -12.759,7.366 -20.685,21.095 -20.685,35.829 v 136.521 c 0,14.733 7.926,28.462 20.685,35.828 L -20.686,6.47 c 12.759,7.367 28.612,7.366 41.372,0 l 118.231,-68.261 c 12.759,-7.366 20.686,-21.095 20.686,-35.828 V -234.14 c 0,-14.734 -7.927,-28.463 -20.686,-35.829 L 20.686,-338.23 C 14.306,-341.913 7.153,-343.754 0,-343.754"
             style="fill:#a4a5a8;fill-opacity:1;fill-rule:nonzero;stroke:none"
             id="path404"
             inkscape:connector-curvature="0" /></g></g></g></g></svg>