<?xml version="1.0" encoding="UTF-8" standalone="no"?>
<!-- Created with Inkscape (http://www.inkscape.org/) -->

<svg
   xmlns:dc="http://purl.org/dc/elements/1.1/"
   xmlns:cc="http://creativecommons.org/ns#"
   xmlns:rdf="http://www.w3.org/1999/02/22-rdf-syntax-ns#"
   xmlns:svg="http://www.w3.org/2000/svg"
   xmlns="http://www.w3.org/2000/svg"
   xmlns:sodipodi="http://sodipodi.sourceforge.net/DTD/sodipodi-0.dtd"
   xmlns:inkscape="http://www.inkscape.org/namespaces/inkscape"
   version="1.1"
   id="svg2"
   xml:space="preserve"
   width="425.60666"
   height="476.25064"
   viewBox="0 0 425.60666 476.25064"
   sodipodi:docname="repod_logo.ai.svg"
   inkscape:version="0.92.4 (5da689c313, 2019-01-14)"><metadata
     id="metadata8"><rdf:RDF><cc:Work
         rdf:about=""><dc:format>image/svg+xml</dc:format><dc:type
           rdf:resource="http://purl.org/dc/dcmitype/StillImage" /><dc:title></dc:title></cc:Work></rdf:RDF></metadata><defs
     id="defs6"><clipPath
       clipPathUnits="userSpaceOnUse"
       id="clipPath18"><path
         d="M 0,1080 H 1920 V 0 H 0 Z"
         id="path16"
         inkscape:connector-curvature="0" /></clipPath><clipPath
       clipPathUnits="userSpaceOnUse"
       id="clipPath128"><path
         d="M 0,1080 H 1920 V 0 H 0 Z"
         id="path126"
         inkscape:connector-curvature="0" /></clipPath><clipPath
       clipPathUnits="userSpaceOnUse"
       id="clipPath192"><path
         d="M 0,1080 H 1920 V 0 H 0 Z"
         id="path190"
         inkscape:connector-curvature="0" /></clipPath><clipPath
       clipPathUnits="userSpaceOnUse"
       id="clipPath200"><path
         d="M 441.896,837.032 H 1820.97 V 242.604 H 441.896 Z"
         id="path198"
         inkscape:connector-curvature="0" /></clipPath><clipPath
       clipPathUnits="userSpaceOnUse"
       id="clipPath348"><path
         d="M 0,1080 H 1920 V 0 H 0 Z"
         id="path346"
         inkscape:connector-curvature="0" /></clipPath><clipPath
       clipPathUnits="userSpaceOnUse"
       id="clipPath412"><path
         d="M 0,1080 H 1920 V 0 H 0 Z"
         id="path410"
         inkscape:connector-curvature="0" /></clipPath></defs><sodipodi:namedview
     pagecolor="#ffffff"
     bordercolor="#666666"
     borderopacity="1"
     objecttolerance="10"
     gridtolerance="10"
     guidetolerance="10"
     inkscape:pageopacity="0"
     inkscape:pageshadow="2"
     inkscape:window-width="1680"
     inkscape:window-height="991"
     id="namedview4"
     showgrid="false"
     fit-margin-top="0"
     fit-margin-left="0"
     fit-margin-right="0"
     fit-margin-bottom="0"
     inkscape:zoom="0.58979779"
     inkscape:cx="549.02583"
     inkscape:cy="31.723332"
     inkscape:window-x="0"
     inkscape:window-y="30"
     inkscape:window-maximized="1"
     inkscape:current-layer="g10" /><g
     id="g10"
     inkscape:groupmode="layer"
     inkscape:label="Logo_RepOD_CMYK_ENG"
     transform="matrix(1.3333333,0,0,-1.3333333,-748.31385,956.92304)"><g
       id="g122"><g
         id="g124"
         clip-path="url(#clipPath128)"><g
           id="g130"
           transform="translate(720.8384,565.624)"><path
             d="m 0,0 c -14.152,0 -25.624,-11.472 -25.624,-25.624 0,-14.151 11.472,-25.624 25.624,-25.624 14.152,0 25.624,11.473 25.624,25.624 C 25.624,-11.472 14.152,0 0,0 m 0,-14 c 6.41,0 11.624,-5.214 11.624,-11.624 0,-6.409 -5.214,-11.624 -11.624,-11.624 -6.41,0 -11.624,5.215 -11.624,11.624 0,6.41 5.214,11.624 11.624,11.624"
             style="fill:#a6a8ab;fill-opacity:1;fill-rule:nonzero;stroke:none"
             id="path132"
             inkscape:connector-curvature="0" /></g><g
           id="g134"
           transform="translate(798.9956,597.8818)"><path
             d="M 0,0 C -1.018,0 -2.05,0.259 -2.995,0.805 L -64.86,36.523 c -2.87,1.657 -3.853,5.327 -2.197,8.196 1.657,2.87 5.328,3.852 8.197,2.197 L 3.005,11.197 C 5.875,9.54 6.858,5.871 5.202,3.001 4.09,1.076 2.073,0 0,0"
             style="fill:#a6a8ab;fill-opacity:1;fill-rule:nonzero;stroke:none"
             id="path136"
             inkscape:connector-curvature="0" /></g><g
           id="g138"
           transform="translate(815.4019,499)"><path
             d="m 0,0 c -3.313,0 -6,2.687 -6,6 v 71.617 c 0,3.314 2.687,6 6,6 3.313,0 6,-2.686 6,-6 V 6 C 6,2.687 3.313,0 0,0"
             style="fill:#a6a8ab;fill-opacity:1;fill-rule:nonzero;stroke:none"
             id="path140"
             inkscape:connector-curvature="0" /></g><g
           id="g142"
           transform="translate(737.1406,434.0332)"><path
             d="m 0,0 c -2.074,0 -4.09,1.076 -5.202,3.001 -1.656,2.87 -0.673,6.539 2.197,8.196 L 58.86,46.916 c 2.869,1.655 6.54,0.674 8.197,-2.196 1.656,-2.87 0.673,-6.539 -2.197,-8.197 L 2.995,0.805 C 2.05,0.26 1.018,0 0,0"
             style="fill:#a6a8ab;fill-opacity:1;fill-rule:nonzero;stroke:none"
             id="path144"
             inkscape:connector-curvature="0" /></g><g
           id="g146"
           transform="translate(704.5361,434.0332)"><path
             d="M 0,0 C -1.018,0 -2.05,0.259 -2.995,0.805 L -64.86,36.523 c -2.87,1.658 -3.853,5.327 -2.197,8.197 1.658,2.87 5.328,3.853 8.197,2.196 L 3.005,11.197 C 5.875,9.54 6.858,5.871 5.202,3.001 4.09,1.076 2.073,0 0,0"
             style="fill:#a6a8ab;fill-opacity:1;fill-rule:nonzero;stroke:none"
             id="path148"
             inkscape:connector-curvature="0" /></g><g
           id="g150"
           transform="translate(626.2749,499)"><path
             d="m 0,0 c -3.313,0 -6,2.687 -6,6 v 71.617 c 0,3.314 2.687,6 6,6 3.313,0 6,-2.686 6,-6 V 6 C 6,2.687 3.313,0 0,0"
             style="fill:#a6a8ab;fill-opacity:1;fill-rule:nonzero;stroke:none"
             id="path152"
             inkscape:connector-curvature="0" /></g><g
           id="g154"
           transform="translate(642.6812,597.8818)"><path
             d="m 0,0 c -2.074,0 -4.09,1.076 -5.202,3.001 -1.656,2.87 -0.673,6.539 2.197,8.196 L 58.86,46.916 c 2.869,1.656 6.539,0.673 8.197,-2.197 C 68.713,41.85 67.73,38.18 64.86,36.523 L 2.995,0.805 C 2.05,0.259 1.018,0 0,0"
             style="fill:#a6a8ab;fill-opacity:1;fill-rule:nonzero;stroke:none"
             id="path156"
             inkscape:connector-curvature="0" /></g><g
           id="g158"
           transform="translate(815.4019,620.0381)"><path
             d="m 0,0 c -14.152,0 -25.624,-11.472 -25.624,-25.624 0,-14.152 11.472,-25.624 25.624,-25.624 14.151,0 25.624,11.472 25.624,25.624 C 25.624,-11.472 14.151,0 0,0 m 0,-14 c 6.409,0 11.624,-5.215 11.624,-11.624 0,-6.41 -5.215,-11.624 -11.624,-11.624 -6.41,0 -11.624,5.214 -11.624,11.624 C -11.624,-19.215 -6.41,-14 0,-14"
             style="fill:#2ba9e0;fill-opacity:1;fill-rule:nonzero;stroke:none"
             id="path160"
             inkscape:connector-curvature="0" /></g><g
           id="g162"
           transform="translate(626.2749,620.0381)"><path
             d="m 0,0 c -14.151,0 -25.624,-11.472 -25.624,-25.624 0,-14.152 11.473,-25.624 25.624,-25.624 14.152,0 25.624,11.472 25.624,25.624 C 25.624,-11.472 14.152,0 0,0 m 0,-14 c 6.41,0 11.624,-5.215 11.624,-11.624 0,-6.41 -5.214,-11.624 -11.624,-11.624 -6.409,0 -11.624,5.214 -11.624,11.624 0,6.409 5.215,11.624 11.624,11.624"
             style="fill:#2ba9e0;fill-opacity:1;fill-rule:nonzero;stroke:none"
             id="path164"
             inkscape:connector-curvature="0" /></g><g
           id="g166"
           transform="translate(625.6646,510.0107)"><path
             d="m 0,0 c -14.152,0 -25.624,-11.473 -25.624,-25.624 0,-14.152 11.472,-25.624 25.624,-25.624 14.152,0 25.624,11.472 25.624,25.624 C 25.624,-11.473 14.152,0 0,0 m 0,-14 c 6.41,0 11.624,-5.215 11.624,-11.624 0,-6.41 -5.214,-11.624 -11.624,-11.624 -6.41,0 -11.624,5.214 -11.624,11.624 C -11.624,-19.215 -6.41,-14 0,-14"
             style="fill:#2ba9e0;fill-opacity:1;fill-rule:nonzero;stroke:none"
             id="path168"
             inkscape:connector-curvature="0" /></g><g
           id="g170"
           transform="translate(720.8384,456.249)"><path
             d="m 0,0 c -14.152,0 -25.624,-11.472 -25.624,-25.624 0,-14.151 11.472,-25.623 25.624,-25.623 14.152,0 25.624,11.472 25.624,25.623 C 25.624,-11.472 14.152,0 0,0 m 0,-14 c 6.41,0 11.624,-5.214 11.624,-11.624 0,-6.409 -5.214,-11.623 -11.624,-11.623 -6.41,0 -11.624,5.214 -11.624,11.623 0,6.41 5.214,11.624 11.624,11.624"
             style="fill:#2ba9e0;fill-opacity:1;fill-rule:nonzero;stroke:none"
             id="path172"
             inkscape:connector-curvature="0" /></g><g
           id="g174"
           transform="translate(815.4019,510.8457)"><path
             d="m 0,0 c -14.152,0 -25.624,-11.473 -25.624,-25.624 0,-14.151 11.472,-25.624 25.624,-25.624 14.151,0 25.624,11.473 25.624,25.624 C 25.624,-11.473 14.151,0 0,0 m 0,-14 c 6.409,0 11.624,-5.215 11.624,-11.624 0,-6.409 -5.215,-11.624 -11.624,-11.624 -6.41,0 -11.624,5.215 -11.624,11.624 C -11.624,-19.215 -6.41,-14 0,-14"
             style="fill:#2ba9e0;fill-opacity:1;fill-rule:nonzero;stroke:none"
             id="path176"
             inkscape:connector-curvature="0" /></g><g
           id="g178"
           transform="translate(720.8384,674.6343)"><path
             d="m 0,0 c -14.152,0 -25.624,-11.472 -25.624,-25.624 0,-14.152 11.472,-25.624 25.624,-25.624 14.152,0 25.624,11.472 25.624,25.624 C 25.624,-11.472 14.152,0 0,0 m 0,-14 c 6.41,0 11.624,-5.215 11.624,-11.624 0,-6.41 -5.214,-11.624 -11.624,-11.624 -6.41,0 -11.624,5.214 -11.624,11.624 C -11.624,-19.215 -6.41,-14 0,-14"
             style="fill:#2ba9e0;fill-opacity:1;fill-rule:nonzero;stroke:none"
             id="path180"
             inkscape:connector-curvature="0" /></g><g
           id="g182"
           transform="translate(720.8384,705.6978)"><path
             d="m 0,0 c -5.078,0 -10.156,-1.307 -14.686,-3.922 l -118.231,-68.261 c -9.058,-5.23 -14.686,-14.977 -14.686,-25.436 V -234.14 c 0,-10.46 5.628,-20.207 14.686,-25.437 l 118.231,-68.26 c 9.059,-5.231 20.313,-5.231 29.372,0 l 118.231,68.26 c 9.058,5.23 14.685,14.977 14.685,25.437 v 136.521 c 0,10.46 -5.627,20.206 -14.685,25.436 L 14.686,-3.922 C 10.156,-1.307 5.078,0 0,0 m 0,-343.754 c -7.153,0 -14.306,1.84 -20.686,5.524 l -118.231,68.261 c -12.759,7.367 -20.686,21.095 -20.686,35.829 v 136.521 c 0,14.733 7.927,28.462 20.686,35.828 L -20.686,6.47 c 12.76,7.366 28.612,7.366 41.372,0 l 118.231,-68.261 c 12.759,-7.366 20.685,-21.095 20.685,-35.828 V -234.14 c 0,-14.734 -7.926,-28.463 -20.685,-35.829 L 20.686,-338.23 C 14.306,-341.914 7.153,-343.754 0,-343.754"
             style="fill:#a6a8ab;fill-opacity:1;fill-rule:nonzero;stroke:none"
             id="path184"
             inkscape:connector-curvature="0" /></g></g></g><g
       id="g342"><g
         id="g344"
         clip-path="url(#clipPath348)"><g
           id="g350"
           transform="translate(720.8384,564.1846)"><path
             d="m 0,0 c -14.152,0 -25.624,-11.472 -25.624,-25.624 0,-14.151 11.472,-25.624 25.624,-25.624 14.152,0 25.624,11.473 25.624,25.624 C 25.624,-11.472 14.152,0 0,0 m 0,-14 c 6.41,0 11.624,-5.215 11.624,-11.624 0,-6.409 -5.214,-11.624 -11.624,-11.624 -6.41,0 -11.624,5.215 -11.624,11.624 C -11.624,-19.215 -6.41,-14 0,-14"
             style="fill:#a5a7aa;fill-opacity:1;fill-rule:nonzero;stroke:none"
             id="path352"
             inkscape:connector-curvature="0" /></g><g
           id="g354"
           transform="translate(798.9956,596.4424)"><path
             d="M 0,0 C -1.018,0 -2.05,0.259 -2.995,0.805 L -64.86,36.523 c -2.87,1.657 -3.853,5.327 -2.197,8.196 1.657,2.87 5.328,3.852 8.197,2.197 L 3.005,11.197 C 5.875,9.54 6.858,5.871 5.202,3.001 4.09,1.076 2.073,0 0,0"
             style="fill:#a5a7aa;fill-opacity:1;fill-rule:nonzero;stroke:none"
             id="path356"
             inkscape:connector-curvature="0" /></g><g
           id="g358"
           transform="translate(815.4019,497.5605)"><path
             d="m 0,0 c -3.313,0 -6,2.687 -6,6 v 71.617 c 0,3.314 2.687,6 6,6 3.313,0 6,-2.686 6,-6 V 6 C 6,2.687 3.313,0 0,0"
             style="fill:#a5a7aa;fill-opacity:1;fill-rule:nonzero;stroke:none"
             id="path360"
             inkscape:connector-curvature="0" /></g><g
           id="g362"
           transform="translate(737.1406,432.5937)"><path
             d="m 0,0 c -2.074,0 -4.09,1.076 -5.202,3.001 -1.656,2.87 -0.673,6.539 2.197,8.196 L 58.86,46.916 c 2.869,1.655 6.54,0.674 8.197,-2.196 1.656,-2.87 0.673,-6.539 -2.197,-8.197 L 2.995,0.805 C 2.05,0.26 1.018,0 0,0"
             style="fill:#a5a7aa;fill-opacity:1;fill-rule:nonzero;stroke:none"
             id="path364"
             inkscape:connector-curvature="0" /></g><g
           id="g366"
           transform="translate(704.5361,432.5937)"><path
             d="M 0,0 C -1.018,0 -2.05,0.259 -2.995,0.805 L -64.86,36.523 c -2.87,1.658 -3.853,5.327 -2.197,8.197 1.658,2.87 5.328,3.853 8.197,2.196 L 3.005,11.197 C 5.875,9.54 6.858,5.871 5.202,3.001 4.09,1.076 2.073,0 0,0"
             style="fill:#a5a7aa;fill-opacity:1;fill-rule:nonzero;stroke:none"
             id="path368"
             inkscape:connector-curvature="0" /></g><g
           id="g370"
           transform="translate(626.2749,497.5605)"><path
             d="m 0,0 c -3.313,0 -6,2.687 -6,6 v 71.617 c 0,3.314 2.687,6 6,6 3.313,0 6,-2.686 6,-6 V 6 C 6,2.687 3.313,0 0,0"
             style="fill:#a5a7aa;fill-opacity:1;fill-rule:nonzero;stroke:none"
             id="path372"
             inkscape:connector-curvature="0" /></g><g
           id="g374"
           transform="translate(642.6812,596.4424)"><path
             d="m 0,0 c -2.074,0 -4.09,1.076 -5.202,3.001 -1.656,2.87 -0.673,6.539 2.197,8.196 L 58.86,46.916 c 2.869,1.656 6.539,0.673 8.197,-2.197 C 68.713,41.85 67.73,38.18 64.86,36.523 L 2.995,0.805 C 2.05,0.259 1.018,0 0,0"
             style="fill:#a5a7aa;fill-opacity:1;fill-rule:nonzero;stroke:none"
             id="path376"
             inkscape:connector-curvature="0" /></g><g
           id="g378"
           transform="translate(815.4019,618.5986)"><path
             d="m 0,0 c -14.152,0 -25.624,-11.473 -25.624,-25.624 0,-14.152 11.472,-25.624 25.624,-25.624 14.151,0 25.624,11.472 25.624,25.624 C 25.624,-11.473 14.151,0 0,0 m 0,-14 c 6.409,0 11.624,-5.215 11.624,-11.624 0,-6.41 -5.215,-11.624 -11.624,-11.624 -6.41,0 -11.624,5.214 -11.624,11.624 C -11.624,-19.215 -6.41,-14 0,-14"
             style="fill:#2da8e0;fill-opacity:1;fill-rule:nonzero;stroke:none"
             id="path380"
             inkscape:connector-curvature="0" /></g><g
           id="g382"
           transform="translate(626.2749,618.5986)"><path
             d="m 0,0 c -14.151,0 -25.624,-11.473 -25.624,-25.624 0,-14.152 11.473,-25.624 25.624,-25.624 14.152,0 25.624,11.472 25.624,25.624 C 25.624,-11.473 14.152,0 0,0 m 0,-14 c 6.41,0 11.624,-5.215 11.624,-11.624 0,-6.41 -5.214,-11.624 -11.624,-11.624 -6.409,0 -11.624,5.214 -11.624,11.624 0,6.409 5.215,11.624 11.624,11.624"
             style="fill:#2da8e0;fill-opacity:1;fill-rule:nonzero;stroke:none"
             id="path384"
             inkscape:connector-curvature="0" /></g><g
           id="g386"
           transform="translate(625.6646,508.5713)"><path
             d="m 0,0 c -14.152,0 -25.624,-11.473 -25.624,-25.624 0,-14.152 11.472,-25.624 25.624,-25.624 14.152,0 25.624,11.472 25.624,25.624 C 25.624,-11.473 14.152,0 0,0 m 0,-14 c 6.41,0 11.624,-5.215 11.624,-11.624 0,-6.41 -5.214,-11.624 -11.624,-11.624 -6.41,0 -11.624,5.214 -11.624,11.624 C -11.624,-19.215 -6.41,-14 0,-14"
             style="fill:#2da8e0;fill-opacity:1;fill-rule:nonzero;stroke:none"
             id="path388"
             inkscape:connector-curvature="0" /></g><g
           id="g390"
           transform="translate(720.8384,454.8096)"><path
             d="m 0,0 c -14.152,0 -25.624,-11.472 -25.624,-25.624 0,-14.151 11.472,-25.623 25.624,-25.623 14.152,0 25.624,11.472 25.624,25.623 C 25.624,-11.472 14.152,0 0,0 m 0,-14 c 6.41,0 11.624,-5.214 11.624,-11.624 0,-6.409 -5.214,-11.623 -11.624,-11.623 -6.41,0 -11.624,5.214 -11.624,11.623 0,6.41 5.214,11.624 11.624,11.624"
             style="fill:#2da8e0;fill-opacity:1;fill-rule:nonzero;stroke:none"
             id="path392"
             inkscape:connector-curvature="0" /></g><g
           id="g394"
           transform="translate(815.4019,509.4062)"><path
             d="m 0,0 c -14.152,0 -25.624,-11.473 -25.624,-25.624 0,-14.151 11.472,-25.624 25.624,-25.624 14.151,0 25.624,11.473 25.624,25.624 C 25.624,-11.473 14.151,0 0,0 m 0,-14 c 6.409,0 11.624,-5.215 11.624,-11.624 0,-6.409 -5.215,-11.624 -11.624,-11.624 -6.41,0 -11.624,5.215 -11.624,11.624 C -11.624,-19.215 -6.41,-14 0,-14"
             style="fill:#2da8e0;fill-opacity:1;fill-rule:nonzero;stroke:none"
             id="path396"
             inkscape:connector-curvature="0" /></g><g
           id="g398"
           transform="translate(720.8384,673.1943)"><path
             d="m 0,0 c -14.152,0 -25.624,-11.472 -25.624,-25.624 0,-14.151 11.472,-25.624 25.624,-25.624 14.152,0 25.624,11.473 25.624,25.624 C 25.624,-11.472 14.152,0 0,0 m 0,-14 c 6.41,0 11.624,-5.214 11.624,-11.624 0,-6.409 -5.214,-11.624 -11.624,-11.624 -6.41,0 -11.624,5.215 -11.624,11.624 0,6.41 5.214,11.624 11.624,11.624"
             style="fill:#2da8e0;fill-opacity:1;fill-rule:nonzero;stroke:none"
             id="path400"
             inkscape:connector-curvature="0" /></g><g
           id="g402"
           transform="translate(720.8384,704.2583)"><path
             d="m 0,0 c -5.078,0 -10.156,-1.307 -14.686,-3.922 l -118.231,-68.261 c -9.058,-5.23 -14.686,-14.977 -14.686,-25.436 V -234.14 c 0,-10.46 5.628,-20.207 14.686,-25.437 l 118.231,-68.26 c 9.059,-5.231 20.313,-5.231 29.372,0 l 118.231,68.26 c 9.058,5.23 14.685,14.977 14.685,25.437 v 136.521 c 0,10.46 -5.627,20.206 -14.685,25.436 L 14.686,-3.922 C 10.156,-1.307 5.078,0 0,0 m 0,-343.754 c -7.153,0 -14.306,1.84 -20.686,5.524 l -118.231,68.261 c -12.759,7.367 -20.686,21.095 -20.686,35.829 v 136.521 c 0,14.733 7.927,28.462 20.686,35.828 L -20.686,6.47 c 12.76,7.366 28.612,7.366 41.372,0 l 118.231,-68.261 c 12.759,-7.366 20.685,-21.095 20.685,-35.828 V -234.14 c 0,-14.734 -7.926,-28.463 -20.685,-35.829 L 20.686,-338.23 C 14.306,-341.914 7.153,-343.754 0,-343.754"
             style="fill:#a5a7aa;fill-opacity:1;fill-rule:nonzero;stroke:none"
             id="path404"
             inkscape:connector-curvature="0" /></g></g></g></g></svg>