<?xml version="1.0" encoding="UTF-8" standalone="no"?>
<!-- Created with Inkscape (http://www.inkscape.org/) -->

<svg
   width="107.02771mm"
   height="64.833687mm"
   viewBox="0 0 107.02771 64.833687"
   version="1.1"
   id="svg1"
   xml:space="preserve"
   inkscape:version="1.3.2 (091e20e, 2023-11-25, custom)"
   sodipodi:docname="publish-a-collection.svg"
   inkscape:export-filename="publish-a-dataset-button.png"
   inkscape:export-xdpi="189.86"
   inkscape:export-ydpi="189.86"
   xmlns:inkscape="http://www.inkscape.org/namespaces/inkscape"
   xmlns:sodipodi="http://sodipodi.sourceforge.net/DTD/sodipodi-0.dtd"
   xmlns="http://www.w3.org/2000/svg"
   xmlns:svg="http://www.w3.org/2000/svg"><sodipodi:namedview
     id="namedview1"
     pagecolor="#ffffff"
     bordercolor="#000000"
     borderopacity="0.25"
     inkscape:showpageshadow="2"
     inkscape:pageopacity="0.0"
     inkscape:pagecheckerboard="0"
     inkscape:deskcolor="#d1d1d1"
     inkscape:document-units="mm"
     inkscape:zoom="4.0970528"
     inkscape:cx="111.42156"
     inkscape:cy="141.68722"
     inkscape:window-width="2880"
     inkscape:window-height="1514"
     inkscape:window-x="2869"
     inkscape:window-y="-11"
     inkscape:window-maximized="1"
     inkscape:current-layer="layer1" /><defs
     id="defs1" /><g
     inkscape:label="Layer 1"
     inkscape:groupmode="layer"
     id="layer1"
     transform="translate(-23.608319,-66.31671)"><rect
       style="fill:none;stroke:#c55b28;stroke-width:1.90874;stroke-linecap:round;stroke-linejoin:round;stroke-opacity:1"
       id="rect1"
       width="105.11897"
       height="62.924946"
       x="24.562689"
       y="67.27108"
       ry="6.2233462" /><text
       xml:space="preserve"
       style="font-style:normal;font-variant:normal;font-weight:normal;font-stretch:normal;font-size:8.46667px;font-family:helvetica;-inkscape-font-specification:helvetica;text-align:start;letter-spacing:0px;text-anchor:start;fill:#337ab7;fill-opacity:1;stroke:none;stroke-width:2;stroke-linecap:round;stroke-linejoin:round;stroke-opacity:1"
       x="32.981232"
       y="104.27881"
       id="text1"><tspan
         id="tspan1"
         style="font-size:8.46667px;text-align:start;text-anchor:start;fill:#337ab7;fill-opacity:1;stroke:none;stroke-width:2"
         x="32.981232"
         y="104.27881"
         sodipodi:role="line">Publish a Collection</tspan></text><text
       xml:space="preserve"
       style="font-style:normal;font-variant:normal;font-weight:normal;font-stretch:normal;font-size:5.64444px;font-family:helvetica;-inkscape-font-specification:helvetica;text-align:start;letter-spacing:0px;text-anchor:start;white-space:pre;inline-size:82.9212;display:inline;fill:#333333;fill-opacity:1;stroke:none;stroke-width:2;stroke-linecap:round;stroke-linejoin:round;stroke-opacity:1"
       x="-6.0697236"
       y="112.33395"
       id="text2"
       transform="translate(39.58278,4.3978051)"><tspan
         x="-6.0697236"
         y="112.33395"
         id="tspan2">A quickstart guide to create and </tspan><tspan
         x="-6.0697236"
         y="119.3895"
         id="tspan5">publish a data collection</tspan></text><g
       style="overflow:hidden;fill:#c55b28;fill-opacity:1"
       id="g3"
       transform="matrix(0.04232757,0,0,0.04232757,30.508751,73.234822)"><g
         transform="translate(-359)"
         id="g7"
         style="fill:#c55b28;fill-opacity:1"><path
           d="m 431.917,395.833 h 354.166 v 31.25 H 431.917 Z"
           id="path1-0"
           style="fill:#c55b28;fill-opacity:1" /><path
           d="m 431.917,72.9167 h 41.666 V 375 h -41.666 z"
           id="path2"
           style="fill:#c55b28;fill-opacity:1" /><path
           d="m 692.333,333.333 h 93.75 V 375 h -93.75 z"
           id="path3"
           style="fill:#c55b28;fill-opacity:1" /><path
           d="m 692.333,156.25 h 93.75 V 312.5 h -93.75 z"
           id="path4"
           style="fill:#c55b28;fill-opacity:1" /><path
           d="m 692.333,93.75 h 93.75 v 41.667 h -93.75 z"
           id="path5"
           style="fill:#c55b28;fill-opacity:1" /><path
           d="m 629.833,187.5 c -5.729,0 -10.416,-4.688 -10.416,-10.417 0,-5.729 4.687,-10.416 10.416,-10.416 5.729,0 10.417,4.687 10.417,10.416 0,5.729 -4.688,10.417 -10.417,10.417 z m 0,166.667 c -5.729,0 -10.416,-4.688 -10.416,-10.417 0,-5.729 4.687,-10.417 10.416,-10.417 5.729,0 10.417,4.688 10.417,10.417 0,5.729 -4.688,10.417 -10.417,10.417 z M 671.5,145.833 H 588.167 V 375 H 671.5 Z"
           id="path6"
           style="fill:#c55b28;fill-opacity:1" /><path
           d="M 546.5,156.25 H 515.25 V 125 h 31.25 z m 20.833,-52.083 H 494.417 V 375 h 72.916 z"
           id="path7"
           style="fill:#c55b28;fill-opacity:1" /></g></g></g></svg>
