<?xml version="1.0" encoding="UTF-8" standalone="no"?>
<!-- Created with Inkscape (http://www.inkscape.org/) -->

<svg
   width="110.681mm"
   height="40.157001mm"
   viewBox="0 0 110.681 40.157002"
   version="1.1"
   id="svg1"
   xml:space="preserve"
   inkscape:version="1.3.2 (091e20e, 2023-11-25, custom)"
   sodipodi:docname="what-is-dataverse.svg"
   inkscape:export-filename="publish-a-dataset-button.png"
   inkscape:export-xdpi="189.86"
   inkscape:export-ydpi="189.86"
   xmlns:inkscape="http://www.inkscape.org/namespaces/inkscape"
   xmlns:sodipodi="http://sodipodi.sourceforge.net/DTD/sodipodi-0.dtd"
   xmlns="http://www.w3.org/2000/svg"
   xmlns:svg="http://www.w3.org/2000/svg"><sodipodi:namedview
     id="namedview1"
     pagecolor="#ffffff"
     bordercolor="#000000"
     borderopacity="0.25"
     inkscape:showpageshadow="2"
     inkscape:pageopacity="0.0"
     inkscape:pagecheckerboard="0"
     inkscape:deskcolor="#d1d1d1"
     inkscape:document-units="mm"
     inkscape:zoom="2.8970538"
     inkscape:cx="232.82274"
     inkscape:cy="118.91391"
     inkscape:window-width="2880"
     inkscape:window-height="1514"
     inkscape:window-x="2869"
     inkscape:window-y="-11"
     inkscape:window-maximized="1"
     inkscape:current-layer="layer1" /><defs
     id="defs1" /><rect
     style="fill:none;stroke:none;stroke-width:1.56463;stroke-linecap:round;stroke-linejoin:round;stroke-opacity:1"
     id="rect1-6"
     width="110.681"
     height="40.157001"
     x="0"
     y="0"
     ry="3.9715712" /><g
     inkscape:groupmode="layer"
     id="layer4"
     inkscape:label="Padding"
     transform="translate(1.8856709,3.8344653)" /><g
     inkscape:label="Layer 1"
     inkscape:groupmode="layer"
     id="layer1"
     transform="translate(-21.722648,-62.482245)"><text
       xml:space="preserve"
       style="font-style:normal;font-variant:normal;font-weight:normal;font-stretch:normal;font-size:7.05556px;font-family:helvetica;-inkscape-font-specification:helvetica;text-align:start;letter-spacing:0px;text-anchor:start;fill:#337ab7;fill-opacity:1;stroke:none;stroke-width:2;stroke-linecap:round;stroke-linejoin:round;stroke-opacity:1"
       x="49.713181"
       y="78.187553"
       id="text1"><tspan
         sodipodi:role="line"
         id="tspan1"
         style="font-size:7.05556px;text-align:start;text-anchor:start;fill:#337ab7;fill-opacity:1;stroke:none;stroke-width:2"
         x="49.713181"
         y="78.187553">What is Dataverse?</tspan></text><text
       xml:space="preserve"
       style="font-style:normal;font-variant:normal;font-weight:normal;font-stretch:normal;font-size:4.23333px;font-family:helvetica;-inkscape-font-specification:helvetica;text-align:start;letter-spacing:0px;text-anchor:start;white-space:pre;inline-size:82.9212;display:inline;fill:#333333;fill-opacity:1;stroke:none;stroke-width:2;stroke-linecap:round;stroke-linejoin:round;stroke-opacity:1"
       x="-6.0697236"
       y="112.33395"
       id="text2"
       transform="translate(55.84895,-25.649114)"><tspan
         x="-6.0697236"
         y="112.33395"
         id="tspan2">A quick look at what a Dataverse
</tspan><tspan
         x="-6.0697236"
         y="117.62561"
         id="tspan3">repository is</tspan></text><g
       id="g1"
       transform="matrix(0.03816027,0,0,0.03816027,32.605288,73.019269)"
       style="fill:#c55b28;fill-opacity:1"><g
         id="Layer_1"
         class="st0"
         style="fill:#c55b28;fill-opacity:1">
	<path
   class="st1"
   d="M 245.4,472.9"
   id="path1"
   style="fill:#c55b28;fill-opacity:1" />
	<path
   class="st2"
   d="m 245.4,472.9 c -4.8,-3.5 -9.2,-7.4 -13.4,-11.6 -21.5,-21.5 -34.9,-51.4 -34.8,-84.2 0,-32.8 13.3,-62.7 34.8,-84.2 13.9,-13.9 31.3,-24.4 50.8,-30.1 l -21.2,-95.3 c -0.9,0 -1.8,0.1 -2.8,0.1 -22.7,0 -43.4,-9.2 -58.3,-24.1 -14.9,-14.9 -24.2,-35.6 -24.1,-58.3 0,-22.7 9.2,-43.4 24.1,-58.3 C 215.4,12.2 236.1,3 258.8,3 c 22.7,0 43.4,9.3 58.3,24.1 14.9,14.9 24.1,35.6 24.1,58.3 0,22.7 -9.3,43.4 -24.1,58.3 -6.6,6.6 -14.4,12 -22.9,16.1 l 21.9,98.4 c 0,0 0.1,0 0.1,0 32.8,0 62.7,13.4 84.2,34.9 21.5,21.5 34.9,51.4 34.9,84.2 0,32.8 -13.4,62.7 -34.9,84.2 -21.5,21.5 -51.4,34.9 -84.2,34.9 -14.5,0 -28.4,-2.6 -41.2,-7.3 v 0 C 264.3,485 254.4,479.6 245.4,472.9 Z M 201.5,85.4 c 0,-15.8 6.4,-30.1 16.8,-40.5 10.4,-10.4 24.6,-16.8 40.5,-16.8 15.9,0 30.1,6.4 40.5,16.8 10.4,10.4 16.8,24.6 16.8,40.5 0,15.9 -6.4,30.1 -16.8,40.5 -10.4,10.4 -24.6,16.8 -40.5,16.8 -15.9,0 -30.1,-6.4 -40.5,-16.8 -10.4,-10.4 -16.8,-24.6 -16.8,-40.5 z m 175.1,352.3 c -15.5,15.5 -36.8,25 -60.5,25 -23.7,0 -44.9,-9.5 -60.4,-25 -15.5,-15.5 -25,-36.8 -25,-60.5 0,-23.7 9.5,-44.9 25,-60.5 15.5,-15.5 36.8,-25 60.4,-25 23.7,0 44.9,9.5 60.5,25 15.5,15.5 25,36.8 25,60.5 0,23.7 -9.5,44.9 -25,60.5 z"
   id="path2-4"
   style="fill:#c55b28;fill-opacity:1" />
</g><g
         id="Layer_2"
         style="fill:#c55b28;fill-opacity:1">
	<path
   class="st3"
   d="m 142.1,258.7 c 0,0 -0.1,0 -0.1,0 v 0 L 120,159.4 C 148,146 167.4,117.4 167.4,84.3 167.4,38.3 130.1,1.1 84.2,1.1 38.3,1.1 1,38.3 1,84.2 c 0,45.9 37.3,83.2 83.2,83.2 1,0 1.9,0 2.9,-0.1 l 21.3,96.1 C 58.4,278.1 22,324.2 22,378.8 22,445.2 75.8,499 142.1,499 c 66.3,0 120.2,-53.8 120.2,-120.2 0,-66.4 -53.8,-120.1 -120.2,-120.1 z M 84.2,142 c -31.9,0 -57.8,-25.9 -57.8,-57.8 0,-31.9 25.9,-57.8 57.8,-57.8 31.9,0 57.8,25.9 57.8,57.8 0,31.9 -25.9,57.8 -57.8,57.8 z m 57.9,323.1 c -47.7,0 -86.3,-38.6 -86.3,-86.3 0,-47.7 38.6,-86.3 86.3,-86.3 47.7,0 86.3,38.6 86.3,86.3 0,47.7 -38.6,86.3 -86.3,86.3 z"
   id="path3"
   style="fill:#c55b28;fill-opacity:1" />
</g></g><rect
       style="fill:none;stroke:#c55b28;stroke-width:1.34669;stroke-linecap:round;stroke-linejoin:round;stroke-opacity:1"
       id="rect1-8"
       width="105.68102"
       height="31.156733"
       x="24.222637"
       y="66.982384"
       ry="3.081435"
       inkscape:label="rect1" /></g><style
     type="text/css"
     id="style1">
	.st0{display:none;}
	.st1{fill:none;stroke:#DEBAA0;stroke-miterlimit:10;}
	.st2{display:inline;fill:none;stroke:#B76138;stroke-width:0.25;stroke-miterlimit:10;}
	.st3{fill:#B86138;}
</style></svg>
