<?xml version="1.0" standalone="no"?>
<!DOCTYPE svg PUBLIC "-//W3C//DTD SVG 20010904//EN"
 "http://www.w3.org/TR/2001/REC-SVG-20010904/DTD/svg10.dtd">
<svg version="1.0" xmlns="http://www.w3.org/2000/svg"
 width="700.000000pt" height="700.000000pt" viewBox="0 0 700.000000 700.000000"
 preserveAspectRatio="xMidYMid meet">
<metadata>
Created by potrace 1.11, written by Peter Selinger 2001-2013
</metadata>
<g transform="translate(0.000000,700.000000) scale(0.100000,-0.100000)"
fill="#000000" stroke="none">
<path d="M2757 6995 c-1 -2 -30 -5 -63 -8 -294 -28 -604 -203 -790 -447 -121
-159 -206 -352 -231 -531 -15 -103 -9 -333 11 -424 14 -63 30 -121 36 -130 4
-5 13 -28 20 -50 19 -58 83 -177 134 -249 77 -108 136 -167 272 -275 69 -55
224 -131 336 -166 115 -35 209 -50 305 -50 46 0 83 0 83 0 0 -1 68 -304 150
-675 151 -679 153 -689 114 -690 -16 0 -181 -68 -258 -107 -498 -250 -844
-750 -912 -1318 -10 -82 -11 -288 -2 -355 4 -30 10 -73 13 -95 27 -209 131
-476 252 -647 81 -116 109 -154 148 -197 355 -402 743 -576 1285 -574 74 0
169 6 210 12 41 7 84 14 95 16 321 52 676 246 914 499 25 27 53 57 61 65 28
30 118 156 157 221 91 150 157 312 198 483 35 148 39 193 40 382 0 193 -8 267
-46 417 -86 343 -287 663 -549 876 -25 21 -51 42 -58 49 -32 31 -197 132 -282
174 -210 103 -437 163 -659 174 -46 2 -87 7 -91 12 -5 4 -20 62 -35 128 -14
66 -32 147 -40 180 -14 63 -44 199 -50 225 -17 80 -119 539 -130 585 -28 119
-55 245 -55 259 0 8 24 26 53 41 229 120 446 366 534 605 17 46 54 178 58 205
1 11 6 43 10 70 8 55 9 221 2 275 -21 149 -58 273 -115 385 -180 354 -507 586
-901 641 -42 6 -219 13 -224 9z m228 -369 c155 -39 263 -91 360 -171 76 -63
109 -100 168 -188 255 -382 123 -918 -283 -1146 -319 -178 -730 -120 -980 140
-117 121 -196 277 -225 442 -11 68 -7 211 10 289 68 328 341 589 665 635 19 3
37 7 39 9 6 6 220 -3 246 -10z m870 -3740 c136 -30 204 -53 315 -103 220 -101
436 -307 549 -523 70 -134 121 -295 136 -425 8 -67 9 -271 2 -283 -3 -4 -8
-32 -12 -62 -3 -30 -10 -68 -15 -85 -41 -133 -57 -179 -87 -240 -116 -234
-313 -434 -538 -549 -83 -43 -209 -90 -266 -101 -13 -3 -35 -7 -49 -10 -78
-16 -117 -19 -235 -20 -187 0 -303 20 -454 80 -72 28 -240 119 -268 144 -10 9
-29 24 -43 34 -72 50 -219 215 -278 312 -72 117 -128 263 -158 405 -19 91 -25
326 -10 410 9 54 43 190 55 222 5 13 9 26 10 31 3 19 88 179 126 237 180 272
477 466 805 524 76 14 356 15 415 2z"/>
</g>
</svg>
