<svg version="1" xmlns="http://www.w3.org/2000/svg" width="968" height="968" viewBox="0 0 726.000000 726.000000"><path d="M359.7 17.7c-.3.4-17.9 54.6-39.2 120.3-21.3 65.7-40.4 125-42.6 131.7l-4 12.2-137-.6-137.1-.6.4 2.6c.2 2.1 18.5 15.7 109.6 81.8 60.2 43.6 109.6 79.7 109.8 80.4.3.6-18.9 60.5-42.5 133-23.7 72.5-42.9 132-42.7 132.2.1.1 50.8-36.6 112.7-81.7 61.8-45 112.6-81.9 112.9-82 .3 0 51.2 36.9 113 81.9 61.9 45.1 112.6 81.7 112.7 81.3.2-.4-6.7-21.8-15.1-47.7-8.5-25.9-21.4-65.2-28.7-87.5-7.3-22.3-13.4-40.7-13.6-41-.2-.2-10.2 9.7-22.2 22l-21.9 22.5-.6-5.5c-.3-3-1.5-29.1-2.6-58s-2.3-55.8-2.6-59.8c-.6-7.2-.6-7.3-2.7-5.9-1.2.8-26.9 16.1-57.2 34.2-30.2 18-56.4 33.6-58.1 34.6l-3.1 1.9-5-11.3C331.5 462.1 300 390 300 389.2c0-1.3-1.8-.7 74.3-26.7l63.8-21.8-3.4-3.6c-1.9-2-23.2-25-47.2-51.1l-43.8-47.5 44.2-.3 44.2-.2-.7-2.3c-4.9-15.7-70.7-218.3-70.9-218.5-.2-.2-.5 0-.8.5z"/><path d="M431.7 284.3c1 1.3 14.9 16.1 30.8 33 16 16.9 29.1 31.1 29.3 31.5.1.5-30.8 13.6-68.7 29.1l-69 28.4 1.8 3.6c.9 2 7.3 15.4 14.2 29.8 9.4 20 12.8 26.1 13.9 25.7.8-.3 29.6-15.5 64-33.9s63.3-33.7 64.2-34c1.6-.6 1.7 2.2 1.1 46.2l-.5 46.8 4.8-4.5c5.9-5.6 168.8-165.3 191.4-187.6l16.5-16.4H429.9l1.8 2.3z"/></svg>