<?xml version="1.0" standalone="no"?>
<!DOCTYPE svg PUBLIC "-//W3C//DTD SVG 20010904//EN"
 "http://www.w3.org/TR/2001/REC-SVG-20010904/DTD/svg10.dtd">
<svg version="1.0" xmlns="http://www.w3.org/2000/svg"
 width="1936.000000pt" height="1936.000000pt" viewBox="0 0 1936.000000 1936.000000"
 preserveAspectRatio="xMidYMid meet">
<metadata>
Created by potrace 1.11, written by Peter Selinger 2001-2013
</metadata>
<g transform="translate(0.000000,1936.000000) scale(0.100000,-0.100000)"
fill="#000000" stroke="none">
<path d="M3099 13946 c-3 -3 -73 -10 -229 -22 -19 -1 -35 -3 -35 -4 0 -1 -12
-3 -26 -5 -50 -6 -122 -18 -189 -30 -94 -18 -313 -74 -404 -105 -63 -21 -117
-36 -120 -32 -3 3 -6 0 -6 -6 0 -7 -7 -12 -15 -12 -9 0 -35 -9 -57 -20 -23
-11 -46 -20 -51 -20 -11 0 -297 -141 -369 -182 -32 -18 -67 -41 -78 -50 -11
-10 -24 -18 -29 -18 -5 0 -14 -7 -21 -15 -7 -8 -16 -12 -21 -9 -5 3 -9 1 -9
-4 0 -6 -19 -21 -42 -35 -24 -14 -53 -33 -65 -44 -12 -10 -33 -27 -48 -37 -14
-11 -35 -27 -45 -35 -10 -9 -38 -32 -61 -51 -64 -53 -155 -138 -218 -204 -31
-32 -67 -71 -81 -85 -32 -34 -169 -206 -200 -251 -13 -19 -27 -37 -30 -40 -3
-3 -25 -36 -50 -75 -25 -38 -49 -73 -55 -77 -5 -4 -6 -8 -1 -8 5 0 2 -8 -6
-17 -33 -39 -218 -402 -218 -428 0 -3 -9 -24 -19 -48 -50 -112 -140 -386 -166
-506 -3 -11 -7 -29 -9 -38 -17 -69 -28 -121 -32 -140 -5 -31 -12 -64 -17 -88
-3 -11 -8 -40 -11 -65 -3 -25 -9 -58 -12 -75 -4 -16 -7 -39 -9 -50 -1 -11 -5
-45 -9 -75 -4 -30 -9 -77 -11 -105 -2 -27 -8 -90 -12 -140 -10 -113 -10 -620
0 -740 9 -110 21 -217 31 -280 3 -16 7 -49 10 -72 3 -22 7 -52 10 -65 3 -12 7
-36 10 -53 2 -16 14 -73 26 -125 12 -52 23 -102 25 -110 25 -110 114 -376 170
-510 51 -123 164 -343 207 -402 11 -16 16 -28 11 -28 -4 0 -3 -4 3 -8 6 -4 30
-36 54 -72 41 -61 143 -202 165 -226 6 -6 39 -44 75 -84 70 -79 90 -99 171
-175 73 -68 129 -116 163 -140 15 -11 37 -28 49 -39 34 -29 185 -128 262 -173
77 -44 243 -132 250 -132 3 -1 20 -7 38 -14 140 -59 232 -93 342 -125 83 -24
216 -57 265 -66 19 -3 46 -8 60 -11 47 -10 77 -15 115 -20 20 -2 56 -7 79 -11
22 -4 60 -7 83 -8 24 0 43 -3 43 -6 0 -6 58 -8 336 -12 182 -3 205 -6 229 -23
15 -11 62 -47 104 -80 43 -33 93 -71 111 -85 19 -14 142 -110 274 -215 133
-104 259 -203 280 -220 21 -16 47 -38 57 -47 11 -10 22 -18 26 -18 3 0 13 -7
22 -15 17 -16 32 -28 163 -128 48 -37 90 -67 93 -67 5 0 35 -24 59 -46 6 -6
18 -15 27 -20 16 -9 73 -54 113 -87 121 -105 337 -268 428 -322 152 -91 336
-168 432 -182 23 -3 50 -9 61 -12 26 -9 205 -7 270 3 58 9 223 63 245 80 8 6
33 20 55 31 99 49 253 199 310 303 11 20 22 39 25 42 23 21 117 277 106 288
-3 2 -1 12 3 21 5 9 12 37 15 62 l6 47 -37 7 c-21 4 -44 11 -50 17 -7 6 -13 8
-13 5 0 -5 -21 1 -250 63 -63 18 -122 33 -130 35 -8 2 -58 15 -110 30 -52 14
-129 35 -170 46 -41 11 -78 22 -82 25 -4 3 -20 7 -35 9 -16 2 -66 15 -113 28
-47 14 -98 28 -115 33 -16 4 -32 8 -35 9 -67 20 -97 29 -105 30 -5 1 -12 3
-15 4 -3 2 -12 4 -21 6 -9 1 -41 10 -70 18 -30 9 -65 18 -79 21 -14 3 -50 12
-80 21 -30 9 -71 20 -90 25 -19 5 -84 23 -145 40 -60 17 -117 33 -125 35 -16
3 -104 27 -190 51 -30 9 -59 17 -65 18 -31 8 -83 22 -195 53 -69 19 -132 36
-140 38 -8 2 -29 8 -47 14 -17 5 -34 7 -37 3 -3 -3 -6 0 -6 6 0 6 -7 9 -15 6
-8 -4 -21 -2 -28 4 -6 5 -28 13 -47 17 -19 4 -59 14 -88 23 l-53 16 63 13 c89
19 97 21 118 28 10 3 29 8 42 10 39 8 201 57 235 71 17 8 36 14 42 14 12 0 71
25 116 48 17 9 31 15 33 14 1 -1 4 -1 7 -1 3 1 8 2 13 3 27 7 277 135 363 187
95 57 186 116 199 129 3 3 18 14 33 23 33 21 34 22 155 122 77 64 290 270 327
317 11 14 148 184 165 205 6 7 10 17 10 23 0 5 4 10 8 10 4 0 16 15 27 33 10
17 21 34 24 37 7 6 10 10 96 153 36 59 65 112 65 117 0 6 5 10 12 10 6 0 9 3
6 6 -4 3 9 34 27 68 59 111 189 428 209 511 2 6 6 17 9 25 5 13 24 78 33 115
1 6 10 38 19 72 9 35 18 71 20 80 1 10 8 38 15 63 7 25 14 54 15 65 6 44 16
101 20 115 5 15 7 27 20 120 3 25 8 56 11 70 3 14 8 50 10 80 2 30 6 69 9 87
8 51 16 186 20 338 2 77 5 142 6 145 1 3 1 9 -1 15 -1 5 -3 84 -5 175 -2 91
-6 183 -9 205 -5 41 -17 167 -22 220 -1 17 -3 30 -4 30 -1 0 -3 11 -4 25 -6
56 -24 166 -41 243 -3 12 -7 33 -10 47 -22 112 -22 109 -25 113 -1 1 -3 9 -5
17 -1 8 -15 60 -30 115 -54 199 -127 388 -224 583 -85 171 -93 186 -101 192
-4 3 -10 15 -14 28 -4 12 -12 22 -17 22 -5 0 -9 5 -9 11 0 6 -15 31 -32 57
-18 26 -37 54 -43 63 -33 53 -89 129 -95 129 -4 0 -11 8 -16 19 -23 48 -260
296 -373 391 -29 25 -59 51 -67 58 -7 6 -15 12 -19 12 -4 0 -13 6 -20 14 -8 7
-53 40 -102 72 -48 32 -89 62 -91 67 -2 4 -7 7 -12 7 -4 0 -37 17 -71 39 -95
57 -389 197 -389 184 0 -3 -6 -1 -12 4 -10 8 -68 31 -98 38 -3 1 -12 4 -20 8
-26 10 -204 61 -255 73 -76 17 -113 25 -132 28 -12 2 -34 7 -50 10 -15 3 -50
8 -78 12 -27 3 -59 8 -70 11 -11 2 -40 6 -65 9 -25 2 -67 6 -95 10 -57 6 -570
15 -576 10z m177 -510 c17 -3 51 -10 75 -16 24 -6 54 -13 66 -15 12 -3 35 -10
50 -17 16 -6 33 -12 38 -14 37 -9 135 -61 206 -109 78 -53 234 -200 269 -254
8 -13 23 -33 32 -44 10 -12 21 -26 25 -32 24 -30 73 -113 73 -123 0 -7 4 -12
9 -12 5 0 14 -12 20 -27 5 -16 19 -44 30 -63 24 -43 79 -163 96 -210 7 -19 19
-48 26 -65 6 -16 13 -34 15 -40 1 -5 10 -30 19 -55 19 -52 73 -223 80 -254 2
-12 16 -64 31 -116 14 -52 28 -108 31 -125 7 -42 11 -60 13 -62 3 -3 2 -2 15
-58 9 -41 11 -50 15 -62 1 -5 2 -11 1 -15 0 -4 6 -37 14 -73 9 -36 13 -70 10
-75 -4 -6 -2 -10 2 -10 5 0 10 -15 11 -33 1 -18 5 -44 8 -57 5 -26 10 -51 20
-110 10 -60 12 -74 18 -120 3 -25 8 -54 10 -65 2 -11 7 -47 10 -80 4 -33 9
-67 12 -76 2 -9 7 -39 9 -65 3 -27 6 -62 9 -79 2 -16 6 -61 10 -98 4 -37 9
-76 11 -85 1 -9 6 -53 9 -97 4 -44 9 -93 12 -110 2 -16 7 -59 9 -95 5 -61 10
-124 20 -250 28 -335 38 -531 38 -745 0 -162 -10 -411 -17 -424 -2 -3 -7 -33
-10 -66 -22 -195 -83 -431 -148 -575 -39 -88 -63 -135 -71 -141 -5 -3 -9 -10
-9 -15 -1 -16 -69 -117 -117 -174 -69 -81 -111 -122 -187 -179 -38 -28 -78
-58 -89 -66 -10 -8 -25 -15 -32 -15 -7 0 -13 -4 -13 -10 0 -5 -6 -10 -13 -10
-7 0 -30 -9 -51 -21 -77 -41 -248 -93 -376 -113 -71 -12 -188 -20 -290 -19
-91 0 -133 3 -235 17 -47 7 -161 40 -218 63 -62 25 -158 73 -167 84 -3 3 -27
21 -55 39 -145 99 -304 301 -417 528 -29 59 -57 110 -61 113 -5 3 -8 9 -7 13
2 6 -46 134 -71 191 -13 32 -65 195 -84 266 -9 35 -19 71 -23 79 -3 8 -6 20
-6 25 -1 6 -7 28 -13 50 -7 22 -14 52 -17 67 -2 15 -7 32 -10 37 -3 5 -8 26
-11 47 -4 22 -8 47 -11 56 -3 9 -7 27 -10 40 -2 13 -7 34 -10 48 -3 14 -7 41
-10 60 -3 19 -9 49 -14 65 -5 17 -12 53 -16 80 -3 28 -8 59 -11 70 -5 23 -8
41 -17 105 -4 25 -11 70 -16 100 -5 30 -12 73 -15 95 -2 22 -7 50 -9 62 -3 12
-7 48 -11 80 -3 32 -8 72 -10 88 -3 17 -7 50 -9 75 -3 25 -7 59 -10 75 -3 17
-7 59 -10 95 -3 36 -8 74 -10 86 -2 11 -7 59 -10 105 -3 46 -8 102 -11 124 -6
45 -13 125 -20 235 -3 41 -8 104 -11 140 -3 36 -7 88 -9 115 -1 28 -6 106 -11
175 -14 219 -8 634 11 750 5 31 11 79 20 145 4 28 11 68 17 90 6 22 12 51 14
65 8 45 12 65 14 65 1 0 3 8 5 17 11 60 89 272 107 292 4 6 8 18 8 27 0 10 3
19 8 21 4 2 20 28 36 58 63 121 185 270 291 355 28 22 53 45 57 50 5 7 8 7 8
0 0 -6 3 -6 8 0 14 21 172 110 172 98 0 -4 4 -3 8 3 7 11 108 52 145 60 10 2
28 6 40 10 12 4 29 9 37 10 23 4 73 14 90 19 8 2 42 7 75 11 33 3 62 7 64 9 5
6 341 -2 377 -9z"/>
<path d="M6923 13766 c-4 -5 -6 -109 -6 -229 0 -173 3 -221 14 -227 7 -5 17
-7 21 -4 4 3 25 1 45 -5 21 -5 58 -12 83 -15 25 -3 56 -8 70 -11 14 -3 34 -7
45 -9 27 -4 96 -26 120 -39 11 -6 23 -11 26 -12 21 -1 84 -67 104 -110 30 -60
33 -75 43 -180 9 -104 7 -4906 -2 -4965 -17 -110 -45 -173 -95 -218 -28 -24
-99 -62 -128 -67 -10 -2 -19 -4 -20 -5 -3 -3 -6 -3 -48 -13 -16 -4 -43 -9 -60
-11 -127 -20 -209 -37 -214 -45 -8 -12 -6 -440 2 -447 6 -6 2926 -6 3017 0 95
7 214 17 240 21 55 8 126 18 150 20 14 1 43 6 65 10 22 4 47 9 55 10 108 21
325 75 395 100 117 40 226 81 274 103 30 13 60 25 65 26 6 1 17 5 24 9 6 5 49
28 95 51 45 24 98 53 117 65 19 12 43 24 53 27 9 4 17 10 17 15 0 5 4 8 8 7 5
-2 20 5 33 14 13 10 62 44 108 77 189 133 423 355 543 512 12 18 31 40 41 50
9 11 17 22 17 27 0 4 11 19 25 34 14 15 25 32 25 38 0 5 4 10 8 10 5 0 14 10
20 23 22 41 57 96 74 117 10 11 16 20 13 20 -3 0 15 34 40 75 24 41 41 75 37
75 -4 0 -2 4 4 8 14 10 95 180 145 303 35 88 89 248 89 264 0 8 4 15 8 15 8 0
10 7 13 48 1 9 6 23 12 30 5 6 6 12 2 12 -4 0 -2 7 5 15 7 8 10 15 7 15 -3 0
3 29 13 65 10 36 17 65 15 65 -2 0 2 18 10 40 8 22 14 44 14 48 1 21 14 98 19
106 3 5 7 27 8 48 2 21 6 43 9 48 3 6 8 34 11 62 7 68 12 113 14 113 1 0 3 16
5 35 2 19 6 58 9 85 36 319 37 826 2 1110 -2 17 -6 57 -10 90 -4 33 -9 67 -11
75 -2 8 -7 35 -10 60 -2 25 -7 56 -10 70 -3 14 -8 41 -11 60 -3 19 -7 43 -10
52 -3 10 -8 30 -11 45 -8 43 -11 58 -13 58 -1 0 -3 9 -5 20 -9 54 -67 261 -84
300 -11 25 -23 57 -27 70 -1 6 -8 24 -15 40 -7 17 -13 32 -14 35 -1 3 -7 18
-13 33 -41 98 -59 138 -85 182 -16 28 -29 50 -28 50 0 0 -2 10 -5 23 -4 12
-10 22 -14 22 -4 0 -10 8 -13 18 -6 19 -36 70 -52 88 -5 6 -22 31 -37 55 -47
75 -59 93 -98 139 -8 9 -26 32 -40 51 -51 68 -224 244 -272 278 -13 8 -35 28
-50 43 -15 16 -31 28 -36 28 -5 0 -15 6 -21 14 -23 28 -217 150 -336 212 -209
109 -433 189 -695 249 -63 15 -126 28 -140 29 -14 2 -43 6 -65 10 -97 16 -175
26 -235 32 -36 3 -87 8 -115 11 -105 10 -3386 10 -3392 -1z m2285 -528 c33 2
53 3 75 1 6 -1 35 -1 62 0 216 4 486 -5 555 -18 60 -12 99 -21 115 -25 6 -2
24 -6 40 -11 17 -4 35 -10 40 -14 6 -3 15 -6 20 -6 6 -1 19 -5 30 -9 89 -37
142 -61 155 -71 8 -6 32 -20 53 -30 20 -11 37 -22 37 -26 0 -3 10 -10 23 -16
25 -12 139 -104 177 -144 122 -128 240 -280 240 -308 0 -6 5 -11 10 -11 6 0
10 -7 10 -15 0 -8 4 -15 9 -15 5 0 11 -6 13 -12 2 -7 26 -58 54 -113 29 -55
53 -104 54 -110 2 -5 16 -38 31 -72 16 -35 26 -63 22 -63 -3 0 -1 -6 5 -12 9
-12 78 -207 88 -250 8 -34 13 -54 38 -148 13 -52 27 -109 30 -125 2 -17 5 -30
6 -30 1 0 3 -12 5 -28 2 -15 8 -51 14 -80 12 -60 18 -93 27 -162 3 -27 8 -59
10 -70 7 -38 18 -140 18 -182 1 -24 3 -43 7 -43 3 0 5 -10 6 -22 0 -13 4 -75
8 -138 9 -148 11 -762 2 -905 -14 -213 -18 -262 -33 -400 -3 -27 -17 -117 -30
-200 -13 -82 -26 -162 -29 -178 -2 -15 -7 -31 -9 -36 -3 -5 -8 -24 -11 -42 -5
-42 -9 -57 -33 -141 -11 -37 -17 -70 -14 -73 3 -3 1 -5 -4 -5 -5 0 -10 -9 -11
-21 -4 -49 -104 -304 -164 -415 -23 -44 -47 -89 -53 -101 -6 -13 -14 -23 -18
-23 -5 0 -8 -5 -8 -10 0 -9 -35 -65 -50 -80 -3 -3 -18 -23 -34 -45 -76 -103
-320 -315 -364 -315 -7 0 -12 -4 -12 -9 0 -8 -37 -24 -52 -22 -5 1 -8 -3 -8
-8 0 -5 -10 -12 -22 -16 -13 -4 -25 -8 -28 -9 -56 -20 -116 -40 -120 -41 -3
-1 -12 -5 -20 -8 -8 -4 -26 -9 -40 -11 -14 -3 -25 -5 -25 -6 0 -2 -30 -7 -95
-15 -30 -4 -75 -10 -100 -14 -25 -3 -245 -6 -490 -6 l-445 1 -1 2754 c0 1515
2 2760 4 2767 2 7 29 12 74 12 39 0 73 2 75 5 3 3 15 2 27 -2 11 -4 36 -6 54
-4z"/>
<path d="M13439 13756 c-3 -84 -1 -185 5 -195 4 -6 4 -11 -1 -11 -10 0 -9
-152 1 -168 3 -6 2 -13 -2 -16 -5 -3 -7 -16 -5 -30 4 -20 13 -25 51 -31 62
-10 90 -14 132 -20 19 -2 50 -8 68 -14 17 -5 32 -8 32 -6 0 2 24 -4 53 -14
165 -57 215 -124 236 -316 8 -79 5 -4963 -3 -4995 -4 -14 -8 -34 -10 -45 -6
-40 -45 -113 -76 -143 -26 -25 -90 -64 -110 -67 -3 0 -21 -6 -41 -13 -51 -18
-81 -24 -106 -23 -13 0 -23 -3 -23 -7 0 -4 -15 -7 -33 -8 -29 -1 -76 -7 -137
-19 -13 -2 -26 -9 -29 -14 -8 -12 -5 -127 4 -141 3 -5 3 -10 -2 -10 -4 0 -7
-51 -5 -112 3 -134 3 -153 0 -170 -3 -11 243 -13 1322 -14 l1325 -2 -2 212
c-1 116 -2 220 -3 232 0 11 -6 21 -12 21 -11 0 -84 11 -183 28 -16 3 -46 7
-65 10 -92 15 -210 66 -233 102 -4 7 -15 19 -23 28 -28 27 -54 111 -61 197 -4
46 -7 535 -8 1088 l0 1005 93 0 c50 0 92 4 92 8 0 5 5 5 11 1 6 -3 74 -6 152
-5 78 1 149 1 157 1 89 1 208 -2 221 -6 9 -3 23 -19 29 -37 7 -18 37 -83 67
-145 29 -62 53 -115 53 -117 0 -2 23 -52 50 -112 62 -132 79 -169 118 -253 16
-36 42 -92 58 -125 16 -33 29 -62 29 -65 0 -3 12 -30 27 -60 27 -58 69 -149
111 -240 13 -30 38 -84 55 -120 17 -36 32 -72 34 -80 2 -8 6 -17 9 -20 9 -8
109 -227 109 -239 0 -6 4 -11 10 -11 5 0 9 -3 8 -7 -2 -9 8 -33 82 -188 71
-151 116 -246 157 -335 111 -238 224 -453 253 -480 3 -3 21 -27 40 -55 42 -61
146 -164 209 -208 25 -17 48 -32 51 -32 3 -1 28 -13 57 -28 57 -30 173 -64
249 -74 55 -7 305 -7 374 0 69 7 131 17 174 28 21 6 44 8 52 5 8 -3 14 -1 14
4 0 4 15 11 33 15 17 3 61 16 97 27 58 18 91 31 155 59 11 5 31 13 45 19 14 5
32 14 40 19 8 5 22 12 30 15 8 4 33 17 55 30 22 14 54 32 71 41 17 9 41 25 52
35 12 11 24 20 27 20 4 0 13 6 21 14 7 8 19 16 26 19 10 3 10 8 -2 23 -8 10
-21 29 -27 42 -7 12 -19 32 -25 45 -7 12 -15 24 -18 27 -3 3 -35 52 -70 110
-35 58 -68 107 -72 108 -4 2 -8 8 -8 12 0 9 -49 89 -301 493 -14 23 -60 97
-102 165 -43 68 -77 127 -77 133 0 5 -4 9 -10 9 -5 0 -10 7 -10 15 0 8 -4 15
-8 15 -5 0 -16 15 -25 33 -20 39 -35 63 -155 254 -51 81 -99 157 -105 168 -7
11 -28 44 -48 75 -19 30 -38 62 -42 70 -4 8 -45 75 -92 149 -47 73 -85 138
-85 142 0 5 -4 9 -10 9 -5 0 -10 5 -10 11 0 6 -15 34 -33 62 -19 29 -47 73
-63 99 -16 27 -43 69 -59 95 -17 27 -48 77 -70 113 -21 36 -43 67 -47 68 -4 2
-8 8 -8 13 0 4 -21 41 -46 81 -69 108 -78 123 -76 125 0 1 -21 35 -48 75 -54
80 -55 77 29 108 113 43 346 159 390 193 14 12 46 31 71 44 8 4 20 11 25 15 6
4 51 38 100 74 94 69 105 79 221 191 86 83 247 281 243 299 0 4 3 10 8 13 22
15 153 267 153 293 0 8 4 18 9 24 9 9 57 161 65 204 2 14 5 26 7 28 1 1 2 10
3 20 1 9 5 31 9 47 25 105 35 323 22 510 -4 55 -8 112 -8 128 -1 15 -4 27 -7
27 -3 0 -5 10 -6 23 -1 46 -17 121 -57 262 -19 66 -105 258 -118 263 -5 2 -9
9 -9 16 0 45 -293 370 -314 349 -3 -4 -6 -2 -6 4 0 15 -122 93 -237 151 -155
77 -461 173 -632 197 -39 5 -103 15 -131 20 -40 7 -100 14 -175 21 -38 3 -95
8 -125 11 -30 2 -873 6 -1872 7 l-1818 3 -1 -21z m3041 -535 c0 -3 12 -6 28
-7 48 -1 125 -13 182 -29 30 -9 64 -18 75 -20 36 -8 149 -58 200 -89 133 -81
249 -215 317 -366 26 -57 76 -211 84 -258 3 -15 7 -38 10 -52 3 -14 7 -41 10
-60 2 -19 7 -48 9 -65 25 -150 25 -624 0 -740 -2 -11 -7 -36 -10 -55 -2 -19
-7 -46 -10 -60 -3 -14 -7 -34 -9 -45 -2 -11 -9 -40 -16 -65 -7 -25 -12 -47
-12 -50 0 -3 -3 -9 -7 -15 -5 -5 -11 -23 -15 -39 -10 -39 -88 -196 -98 -196
-4 0 -8 -5 -8 -11 0 -11 -63 -92 -104 -133 -11 -11 -47 -40 -80 -65 -151 -115
-370 -183 -656 -206 -35 -3 -786 -7 -860 -5 -13 0 -15 152 -14 1318 1 724 2
1318 3 1320 2 6 981 -1 981 -7z"/>
</g>
</svg>
