<svg version="1" xmlns="http://www.w3.org/2000/svg" width="1440" height="1440" viewBox="0 0 1080.000000 1080.000000"><path d="M162.8 8.1C98.2 14.4 41.1 56.6 15.2 117.2c-5 11.7-8.5 23.6-11.4 38.3l-2.2 11L1.2 533c-.2 264.2 0 369.7.8 378 4.1 42.1 20.9 78.4 50.4 108.9C81.7 1050 120 1068.6 162 1073c13.7 1.4 744.8 1.4 757.8-.1 55.5-6.1 103.9-36.6 133.4-84.2 14.4-23.1 22.6-47.5 25.7-75.9 1.5-13.6 1.5-731 0-744.6-4.6-42.4-21.8-78.2-51.8-108.3-27.2-27.1-59.2-43.7-98.1-50.6-8.8-1.6-37.3-1.7-383.5-1.9-205.7-.1-377.9.2-382.7.7zm87.4 389.4c53.3 3.5 95.8 39.2 111.1 93.2 1.4 4.9 3.3 13.1 4.2 18.3 2.3 12.6 3.1 46.3 1.6 61.2-5.7 55.3-28.1 91.3-69.6 112-5 2.5-10.7 5.1-12.7 5.7-2.1.7-3.8 1.6-3.8 2 0 1.3 21 10.8 32 14.4 25.9 8.6 67 16.3 98 18.3 5.5.4 10 1 10 1.3 0 .3-10.5 5.9-23.4 12.3l-23.4 11.7-9.9-3.3c-25.5-8.7-59.3-24.6-87.8-41.5l-14-8.3-9.2 1.1c-28.9 3.5-60.4-1.3-82.4-12.4-16.1-8.2-34.6-24.6-44.6-39.5-20.4-30.6-29.4-72.2-25.3-118 6.2-68.9 43.1-114.7 101.8-126.5 8.8-1.8 27.7-3.3 35.2-2.8 2.5.1 8 .5 12.2.8zm622.8 7.1c18.7 3.2 35.9 11.6 45 22.2 5.7 6.6 11.7 19.2 13.6 28.6 1.2 6.1 1.5 11.8 1.2 23.5-.4 14.3-.7 16.4-3.7 25-7.1 21-20.4 35.5-41.8 45.9-4.4 2.1-9.1 4.2-10.2 4.5-2.4.6-2.8.1 39.1 63.2 24.1 36.3 34.1 50.1 39.8 54.7 3.9 3.1 9.5 4.4 22.3 5.4l7.7.6V690l-36.6-.2-36.6-.3-38.7-62.7-38.6-62.8H802v39.2c0 41.9.9 59.3 3.4 65.2 1.9 4.6 7 7 17.9 8.5 4.3.6 8.3 1.1 8.8 1.1s.9 2.7.9 6v6H726v-11.8l6.8-.7c10.7-1.1 20.5-3.3 23.2-5.3 5.7-4.3 5.5-.6 5.5-125.2 0-89.9-.3-115.4-1.3-118.7-2.2-7.4-6.5-9.5-23.9-11.4l-10.3-1.2V404l34.3-.1c18.8-.1 43.4-.5 54.7-.9 26.1-1 45.9-.4 58 1.6zm-293.5.8c38.8 7.4 66.1 24.7 83.6 53 12.8 20.8 18.6 43.3 19.6 76.1 1.6 54.9-14.4 97.7-46.9 125.2-19.7 16.6-39.4 25-67.8 28.8-8.3 1.2-26.4 1.5-84.7 1.5H409v-11.8l6.8-.7c10.7-1.1 20.5-3.3 23.2-5.3 5.7-4.3 5.5-.6 5.5-125.2 0-89.9-.3-115.4-1.3-118.7-2.2-7.4-6.5-9.5-23.9-11.4l-10.3-1.2V404l48.8-.3c86.5-.6 111.6-.2 121.7 1.7z"/><path d="M220.5 410.6c-14.4 3.3-21.2 6-30.1 11.6-14.2 9.1-28.4 28.6-35.9 49.6-13.2 36.9-15.1 93.8-4.4 135.7 6.3 25 18.7 46.7 33.5 58.9 7.8 6.4 20.1 12.7 29.4 15.1 11.1 2.8 26.9 3 38.5.7 41.3-8.5 66.8-47.1 72.6-109.6 1.5-16 .6-52.1-1.6-66.1-7.9-50.8-30.7-83.8-64.5-93.5-5.7-1.7-10.9-2.3-21.5-2.5-7.7-.2-14.9-.2-16 .1zM803 483.9V551h9.8c47.9 0 73-18.4 78.2-57.3 2.2-16.7.3-36.9-4.6-49.1-3.2-8-10.1-16-17.1-19.8-10.5-5.7-17.7-7-43-7.5l-23.3-.5v67.1zM486.2 538.6c.3 132.9.1 127.3 5.9 131.7 6.8 4.9 32.7 7.8 52.8 5.8 27.8-2.8 46.5-10.7 62.1-26.1 16.2-15.9 25.7-37.2 30.7-68.4 2.5-15.6 2.4-57.7-.1-72.1-9.4-54.5-33.3-80-83.8-89.6-9.3-1.7-16.4-2.2-39.6-2.6l-28.2-.5.2 121.8z"/></svg>