<?xml version="1.0" encoding="UTF-8" standalone="no"?><svg xmlns="http://www.w3.org/2000/svg" xmlns:xlink="http://www.w3.org/1999/xlink" contentScriptType="application/ecmascript" contentStyleType="text/css" height="1006px" preserveAspectRatio="none" style="width:1257px;height:1006px;" version="1.1" viewBox="0 0 1257 1006" width="1257px" zoomAndPan="magnify"><defs><filter height="300%" id="fobgo7l" width="300%" x="-1" y="-1"><feGaussianBlur result="blurOut" stdDeviation="2.0"/><feColorMatrix in="blurOut" result="blurOut2" type="matrix" values="0 0 0 0 0 0 0 0 0 0 0 0 0 0 0 0 0 0 .4 0"/><feOffset dx="4.0" dy="4.0" in="blurOut2" result="blurOut3"/><feBlend in="SourceGraphic" in2="blurOut3" mode="normal"/></filter></defs><g><!--cluster engine.command--><polygon fill="#FFFFFF" filter="url(#fobgo7l)" points="582,53,709,53,716,75.4883,1015,75.4883,1015,152,582,152,582,53" style="stroke: #000000; stroke-width: 2.0;"/><line style="stroke: #000000; stroke-width: 2.0;" x1="582" x2="716" y1="75.4883" y2="75.4883"/><text fill="#000000" font-family="sans-serif" font-size="14" font-weight="bold" lengthAdjust="spacingAndGlyphs" textLength="121" x="586" y="68.5352">engine.command</text><!--cluster api--><polygon fill="#FFFFFF" filter="url(#fobgo7l)" points="22,24,50,24,57,46.4883,532,46.4883,532,181,22,181,22,24" style="stroke: #000000; stroke-width: 2.0;"/><line style="stroke: #000000; stroke-width: 2.0;" x1="22" x2="57" y1="46.4883" y2="46.4883"/><text fill="#000000" font-family="sans-serif" font-size="14" font-weight="bold" lengthAdjust="spacingAndGlyphs" textLength="22" x="26" y="39.5352">api</text><!--class PublishDatasetCommand--><rect fill="#FEFECE" filter="url(#fobgo7l)" height="48" style="stroke: #A80036; stroke-width: 1.5;" width="176" x="823" y="88"/><ellipse cx="838" cy="104" fill="#ADD1B2" rx="11" ry="11" style="stroke: #A80036; stroke-width: 1.0;"/><path d="M840.9731,109.6431 Q840.3921,109.9419 839.7529,110.0913 Q839.1138,110.2407 838.4082,110.2407 Q835.9014,110.2407 834.5815,108.5889 Q833.2617,106.937 833.2617,103.8159 Q833.2617,100.6865 834.5815,99.0347 Q835.9014,97.3828 838.4082,97.3828 Q839.1138,97.3828 839.7612,97.5322 Q840.4087,97.6816 840.9731,97.9805 L840.9731,100.7031 Q840.3423,100.1221 839.7488,99.8523 Q839.1553,99.5825 838.5244,99.5825 Q837.1797,99.5825 836.4949,100.6492 Q835.8101,101.7158 835.8101,103.8159 Q835.8101,105.9077 836.4949,106.9744 Q837.1797,108.041 838.5244,108.041 Q839.1553,108.041 839.7488,107.7712 Q840.3423,107.5015 840.9731,106.9204 Z "/><text fill="#000000" font-family="sans-serif" font-size="12" lengthAdjust="spacingAndGlyphs" textLength="144" x="852" y="108.5352">PublishDatasetCommand</text><line style="stroke: #A80036; stroke-width: 1.5;" x1="824" x2="998" y1="120" y2="120"/><line style="stroke: #A80036; stroke-width: 1.5;" x1="824" x2="998" y1="128" y2="128"/><!--class ResumeWorkflowCommand--><rect fill="#FEFECE" filter="url(#fobgo7l)" height="48" style="stroke: #A80036; stroke-width: 1.5;" width="189" x="598.5" y="88"/><ellipse cx="613.5" cy="104" fill="#ADD1B2" rx="11" ry="11" style="stroke: #A80036; stroke-width: 1.0;"/><path d="M616.4731,109.6431 Q615.8921,109.9419 615.2529,110.0913 Q614.6138,110.2407 613.9082,110.2407 Q611.4014,110.2407 610.0815,108.5889 Q608.7617,106.937 608.7617,103.8159 Q608.7617,100.6865 610.0815,99.0347 Q611.4014,97.3828 613.9082,97.3828 Q614.6138,97.3828 615.2612,97.5322 Q615.9087,97.6816 616.4731,97.9805 L616.4731,100.7031 Q615.8423,100.1221 615.2488,99.8523 Q614.6553,99.5825 614.0244,99.5825 Q612.6797,99.5825 611.9949,100.6492 Q611.3101,101.7158 611.3101,103.8159 Q611.3101,105.9077 611.9949,106.9744 Q612.6797,108.041 614.0244,108.041 Q614.6553,108.041 615.2488,107.7712 Q615.8423,107.5015 616.4731,106.9204 Z "/><text fill="#000000" font-family="sans-serif" font-size="12" lengthAdjust="spacingAndGlyphs" textLength="157" x="627.5" y="108.5352">ResumeWorkflowCommand</text><line style="stroke: #A80036; stroke-width: 1.5;" x1="599.5" x2="786.5" y1="120" y2="120"/><line style="stroke: #A80036; stroke-width: 1.5;" x1="599.5" x2="786.5" y1="128" y2="128"/><!--class WorkflowStepResponse--><rect fill="#FEFECE" filter="url(#fobgo7l)" height="67.2207" style="stroke: #A80036; stroke-width: 1.5;" width="165" x="350.5" y="78.5"/><ellipse cx="365.5" cy="97.6328" fill="#ADD1B2" rx="11" ry="11" style="stroke: #A80036; stroke-width: 1.0;"/><path d="M368.4731,103.2759 Q367.8921,103.5747 367.2529,103.7241 Q366.6138,103.8735 365.9082,103.8735 Q363.4014,103.8735 362.0815,102.2217 Q360.7617,100.5698 360.7617,97.4487 Q360.7617,94.3193 362.0815,92.6675 Q363.4014,91.0156 365.9082,91.0156 Q366.6138,91.0156 367.2612,91.165 Q367.9087,91.3145 368.4731,91.6133 L368.4731,94.3359 Q367.8423,93.7549 367.2488,93.4851 Q366.6553,93.2153 366.0244,93.2153 Q364.6797,93.2153 363.9949,94.282 Q363.3101,95.3486 363.3101,97.4487 Q363.3101,99.5405 363.9949,100.6072 Q364.6797,101.6738 366.0244,101.6738 Q366.6553,101.6738 367.2488,101.4041 Q367.8423,101.1343 368.4731,100.5532 Z "/><text fill="#000000" font-family="sans-serif" font-size="12" font-style="italic" lengthAdjust="spacingAndGlyphs" textLength="63" x="414.5" y="95.1016">«endpoint»</text><text fill="#000000" font-family="sans-serif" font-size="12" lengthAdjust="spacingAndGlyphs" textLength="133" x="379.5" y="109.2344">WorkflowStepResponse</text><line style="stroke: #A80036; stroke-width: 1.5;" x1="351.5" x2="514.5" y1="116.7656" y2="116.7656"/><text fill="#000000" font-family="sans-serif" font-size="11" lengthAdjust="spacingAndGlyphs" textLength="135" x="356.5" y="131.4004">POST /step/${externalId}</text><line style="stroke: #A80036; stroke-width: 1.5;" x1="351.5" x2="514.5" y1="137.7207" y2="137.7207"/><!--class WorkflowManagementEndpoint--><rect fill="#FEFECE" filter="url(#fobgo7l)" height="106.0859" style="stroke: #A80036; stroke-width: 1.5;" width="277" x="38.5" y="59"/><ellipse cx="53.5" cy="78.1328" fill="#ADD1B2" rx="11" ry="11" style="stroke: #A80036; stroke-width: 1.0;"/><path d="M56.4731,83.7759 Q55.8921,84.0747 55.2529,84.2241 Q54.6138,84.3735 53.9082,84.3735 Q51.4014,84.3735 50.0815,82.7217 Q48.7617,81.0698 48.7617,77.9487 Q48.7617,74.8193 50.0815,73.1675 Q51.4014,71.5156 53.9082,71.5156 Q54.6138,71.5156 55.2612,71.665 Q55.9087,71.8145 56.4731,72.1133 L56.4731,74.8359 Q55.8423,74.2549 55.2488,73.9851 Q54.6553,73.7153 54.0244,73.7153 Q52.6797,73.7153 51.9949,74.782 Q51.3101,75.8486 51.3101,77.9487 Q51.3101,80.0405 51.9949,81.1072 Q52.6797,82.1738 54.0244,82.1738 Q54.6553,82.1738 55.2488,81.9041 Q55.8423,81.6343 56.4731,81.0532 Z "/><text fill="#000000" font-family="sans-serif" font-size="12" font-style="italic" lengthAdjust="spacingAndGlyphs" textLength="63" x="124.5" y="75.6016">«endpoint»</text><text fill="#000000" font-family="sans-serif" font-size="12" lengthAdjust="spacingAndGlyphs" textLength="177" x="67.5" y="89.7344">WorkflowManagementEndpoint</text><rect fill="#FFFFFF" height="16.1328" style="stroke: #000000; stroke-width: 1.0; stroke-dasharray: 2.0,2.0;" width="66" x="252.5" y="56"/><text fill="#000000" font-family="sans-serif" font-size="12" font-style="italic" lengthAdjust="spacingAndGlyphs" textLength="64" x="253.5" y="68.6016">In Progress</text><line style="stroke: #A80036; stroke-width: 1.5;" x1="39.5" x2="314.5" y1="97.2656" y2="97.2656"/><text fill="#000000" font-family="sans-serif" font-size="11" lengthAdjust="spacingAndGlyphs" textLength="51" x="44.5" y="111.9004">POST add</text><text fill="#000000" font-family="sans-serif" font-size="11" lengthAdjust="spacingAndGlyphs" textLength="40" x="44.5" y="124.8555">GET list</text><text fill="#000000" font-family="sans-serif" font-size="11" lengthAdjust="spacingAndGlyphs" textLength="52" x="44.5" y="137.8105">DELETE id</text><text fill="#000000" font-family="sans-serif" font-size="11" lengthAdjust="spacingAndGlyphs" textLength="123" x="44.5" y="150.7656">GET pendingWorkflows</text><line style="stroke: #A80036; stroke-width: 1.5;" x1="39.5" x2="314.5" y1="157.0859" y2="157.0859"/><!--class DvObject--><rect fill="#FEFECE" filter="url(#fobgo7l)" height="54.2656" style="stroke: #A80036; stroke-width: 1.5;" width="101" x="478.5" y="822"/><ellipse cx="493.5" cy="841.1328" fill="#ADD1B2" rx="11" ry="11" style="stroke: #A80036; stroke-width: 1.0;"/><path d="M496.4731,846.7759 Q495.8921,847.0747 495.2529,847.2241 Q494.6138,847.3735 493.9082,847.3735 Q491.4014,847.3735 490.0815,845.7217 Q488.7617,844.0698 488.7617,840.9487 Q488.7617,837.8193 490.0815,836.1675 Q491.4014,834.5156 493.9082,834.5156 Q494.6138,834.5156 495.2612,834.665 Q495.9087,834.8145 496.4731,835.1133 L496.4731,837.8359 Q495.8423,837.2549 495.2488,836.9851 Q494.6553,836.7153 494.0244,836.7153 Q492.6797,836.7153 491.9949,837.782 Q491.3101,838.8486 491.3101,840.9487 Q491.3101,843.0405 491.9949,844.1072 Q492.6797,845.1738 494.0244,845.1738 Q494.6553,845.1738 495.2488,844.9041 Q495.8423,844.6343 496.4731,844.0532 Z "/><text fill="#000000" font-family="sans-serif" font-size="12" font-style="italic" lengthAdjust="spacingAndGlyphs" textLength="43" x="520.5" y="838.6016">«entity»</text><text fill="#000000" font-family="sans-serif" font-size="12" lengthAdjust="spacingAndGlyphs" textLength="69" x="507.5" y="852.7344">DvObject ✅</text><line style="stroke: #A80036; stroke-width: 1.5;" x1="479.5" x2="578.5" y1="860.2656" y2="860.2656"/><line style="stroke: #A80036; stroke-width: 1.5;" x1="479.5" x2="578.5" y1="868.2656" y2="868.2656"/><!--class DvObjectContainer--><rect fill="#FEFECE" filter="url(#fobgo7l)" height="54.2656" style="stroke: #A80036; stroke-width: 1.5;" width="156" x="516" y="671.5"/><ellipse cx="531" cy="690.6328" fill="#ADD1B2" rx="11" ry="11" style="stroke: #A80036; stroke-width: 1.0;"/><path d="M533.9731,696.2759 Q533.3921,696.5747 532.7529,696.7241 Q532.1138,696.8735 531.4082,696.8735 Q528.9014,696.8735 527.5815,695.2217 Q526.2617,693.5698 526.2617,690.4487 Q526.2617,687.3193 527.5815,685.6675 Q528.9014,684.0156 531.4082,684.0156 Q532.1138,684.0156 532.7612,684.165 Q533.4087,684.3145 533.9731,684.6133 L533.9731,687.3359 Q533.3423,686.7549 532.7488,686.4851 Q532.1553,686.2153 531.5244,686.2153 Q530.1797,686.2153 529.4949,687.282 Q528.8101,688.3486 528.8101,690.4487 Q528.8101,692.5405 529.4949,693.6072 Q530.1797,694.6738 531.5244,694.6738 Q532.1553,694.6738 532.7488,694.4041 Q533.3423,694.1343 533.9731,693.5532 Z "/><text fill="#000000" font-family="sans-serif" font-size="12" font-style="italic" lengthAdjust="spacingAndGlyphs" textLength="43" x="585.5" y="688.1016">«entity»</text><text fill="#000000" font-family="sans-serif" font-size="12" lengthAdjust="spacingAndGlyphs" textLength="124" x="545" y="702.2344">DvObjectContainer ✅</text><line style="stroke: #A80036; stroke-width: 1.5;" x1="517" x2="671" y1="709.7656" y2="709.7656"/><line style="stroke: #A80036; stroke-width: 1.5;" x1="517" x2="671" y1="717.7656" y2="717.7656"/><!--class Dataverse--><rect fill="#FEFECE" filter="url(#fobgo7l)" height="54.2656" style="stroke: #A80036; stroke-width: 1.5;" width="106" x="615" y="822"/><ellipse cx="630" cy="841.1328" fill="#ADD1B2" rx="11" ry="11" style="stroke: #A80036; stroke-width: 1.0;"/><path d="M632.9731,846.7759 Q632.3921,847.0747 631.7529,847.2241 Q631.1138,847.3735 630.4082,847.3735 Q627.9014,847.3735 626.5815,845.7217 Q625.2617,844.0698 625.2617,840.9487 Q625.2617,837.8193 626.5815,836.1675 Q627.9014,834.5156 630.4082,834.5156 Q631.1138,834.5156 631.7612,834.665 Q632.4087,834.8145 632.9731,835.1133 L632.9731,837.8359 Q632.3423,837.2549 631.7488,836.9851 Q631.1553,836.7153 630.5244,836.7153 Q629.1797,836.7153 628.4949,837.782 Q627.8101,838.8486 627.8101,840.9487 Q627.8101,843.0405 628.4949,844.1072 Q629.1797,845.1738 630.5244,845.1738 Q631.1553,845.1738 631.7488,844.9041 Q632.3423,844.6343 632.9731,844.0532 Z "/><text fill="#000000" font-family="sans-serif" font-size="12" font-style="italic" lengthAdjust="spacingAndGlyphs" textLength="43" x="659.5" y="838.6016">«entity»</text><text fill="#000000" font-family="sans-serif" font-size="12" lengthAdjust="spacingAndGlyphs" textLength="74" x="644" y="852.7344">Dataverse ✅</text><line style="stroke: #A80036; stroke-width: 1.5;" x1="616" x2="720" y1="860.2656" y2="860.2656"/><line style="stroke: #A80036; stroke-width: 1.5;" x1="616" x2="720" y1="868.2656" y2="868.2656"/><!--class Dataset--><rect fill="#FEFECE" filter="url(#fobgo7l)" height="54.2656" style="stroke: #A80036; stroke-width: 1.5;" width="76" x="556" y="491.5"/><ellipse cx="571" cy="510.6328" fill="#ADD1B2" rx="11" ry="11" style="stroke: #A80036; stroke-width: 1.0;"/><path d="M573.9731,516.2759 Q573.3921,516.5747 572.7529,516.7241 Q572.1138,516.8735 571.4082,516.8735 Q568.9014,516.8735 567.5815,515.2217 Q566.2617,513.5698 566.2617,510.4487 Q566.2617,507.3193 567.5815,505.6675 Q568.9014,504.0156 571.4082,504.0156 Q572.1138,504.0156 572.7612,504.165 Q573.4087,504.3145 573.9731,504.6133 L573.9731,507.3359 Q573.3423,506.7549 572.7488,506.4851 Q572.1553,506.2153 571.5244,506.2153 Q570.1797,506.2153 569.4949,507.282 Q568.8101,508.3486 568.8101,510.4487 Q568.8101,512.5405 569.4949,513.6072 Q570.1797,514.6738 571.5244,514.6738 Q572.1553,514.6738 572.7488,514.4041 Q573.3423,514.1343 573.9731,513.5532 Z "/><text fill="#000000" font-family="sans-serif" font-size="12" font-style="italic" lengthAdjust="spacingAndGlyphs" textLength="43" x="585.5" y="508.1016">«entity»</text><text fill="#000000" font-family="sans-serif" font-size="12" lengthAdjust="spacingAndGlyphs" textLength="44" x="585" y="522.2344">Dataset</text><line style="stroke: #A80036; stroke-width: 1.5;" x1="557" x2="631" y1="529.7656" y2="529.7656"/><line style="stroke: #A80036; stroke-width: 1.5;" x1="557" x2="631" y1="537.7656" y2="537.7656"/><!--class Workflow--><rect fill="#FEFECE" filter="url(#fobgo7l)" height="93.1309" style="stroke: #A80036; stroke-width: 1.5;" width="100" x="667" y="472"/><ellipse cx="682" cy="491.1328" fill="#ADD1B2" rx="11" ry="11" style="stroke: #A80036; stroke-width: 1.0;"/><path d="M684.9731,496.7759 Q684.3921,497.0747 683.7529,497.2241 Q683.1138,497.3735 682.4082,497.3735 Q679.9014,497.3735 678.5815,495.7217 Q677.2617,494.0698 677.2617,490.9487 Q677.2617,487.8193 678.5815,486.1675 Q679.9014,484.5156 682.4082,484.5156 Q683.1138,484.5156 683.7612,484.665 Q684.4087,484.8145 684.9731,485.1133 L684.9731,487.8359 Q684.3423,487.2549 683.7488,486.9851 Q683.1553,486.7153 682.5244,486.7153 Q681.1797,486.7153 680.4949,487.782 Q679.8101,488.8486 679.8101,490.9487 Q679.8101,493.0405 680.4949,494.1072 Q681.1797,495.1738 682.5244,495.1738 Q683.1553,495.1738 683.7488,494.9041 Q684.3423,494.6343 684.9731,494.0532 Z "/><text fill="#000000" font-family="sans-serif" font-size="12" font-style="italic" lengthAdjust="spacingAndGlyphs" textLength="43" x="708.5" y="488.6016">«entity»</text><text fill="#000000" font-family="sans-serif" font-size="12" lengthAdjust="spacingAndGlyphs" textLength="68" x="696" y="502.7344">Workflow ✅</text><line style="stroke: #A80036; stroke-width: 1.5;" x1="668" x2="766" y1="510.2656" y2="510.2656"/><text fill="#000000" font-family="sans-serif" font-size="11" lengthAdjust="spacingAndGlyphs" textLength="10" x="673" y="524.9004">id</text><text fill="#000000" font-family="sans-serif" font-size="11" lengthAdjust="spacingAndGlyphs" textLength="29" x="673" y="537.8555">name</text><text fill="#000000" font-family="sans-serif" font-size="11" lengthAdjust="spacingAndGlyphs" textLength="61" x="673" y="550.8105">description</text><line style="stroke: #A80036; stroke-width: 1.5;" x1="668" x2="766" y1="557.1309" y2="557.1309"/><!--class WorkflowStepData--><rect fill="#FEFECE" filter="url(#fobgo7l)" height="93.1309" style="stroke: #A80036; stroke-width: 1.5;" width="186" x="263" y="652"/><ellipse cx="293.3" cy="671.1328" fill="#ADD1B2" rx="11" ry="11" style="stroke: #A80036; stroke-width: 1.0;"/><path d="M296.2731,676.7759 Q295.6921,677.0747 295.0529,677.2241 Q294.4138,677.3735 293.7082,677.3735 Q291.2014,677.3735 289.8815,675.7217 Q288.5617,674.0698 288.5617,670.9487 Q288.5617,667.8193 289.8815,666.1675 Q291.2014,664.5156 293.7082,664.5156 Q294.4138,664.5156 295.0612,664.665 Q295.7087,664.8145 296.2731,665.1133 L296.2731,667.8359 Q295.6423,667.2549 295.0488,666.9851 Q294.4553,666.7153 293.8244,666.7153 Q292.4797,666.7153 291.7949,667.782 Q291.1101,668.8486 291.1101,670.9487 Q291.1101,673.0405 291.7949,674.1072 Q292.4797,675.1738 293.8244,675.1738 Q294.4553,675.1738 295.0488,674.9041 Q295.6423,674.6343 296.2731,674.0532 Z "/><text fill="#000000" font-family="sans-serif" font-size="12" font-style="italic" lengthAdjust="spacingAndGlyphs" textLength="43" x="349.2" y="668.6016">«entity»</text><text fill="#000000" font-family="sans-serif" font-size="12" lengthAdjust="spacingAndGlyphs" textLength="120" x="310.7" y="682.7344">WorkflowStepData ✅</text><line style="stroke: #A80036; stroke-width: 1.5;" x1="264" x2="448" y1="690.2656" y2="690.2656"/><text fill="#000000" font-family="sans-serif" font-size="11" lengthAdjust="spacingAndGlyphs" textLength="94" x="269" y="704.9004">providerId: String</text><text fill="#000000" font-family="sans-serif" font-size="11" lengthAdjust="spacingAndGlyphs" textLength="71" x="269" y="717.8555">stepId: String</text><text fill="#000000" font-family="sans-serif" font-size="11" lengthAdjust="spacingAndGlyphs" textLength="174" x="269" y="730.8105">parameters: Map&lt;String,String&gt;</text><line style="stroke: #A80036; stroke-width: 1.5;" x1="264" x2="448" y1="737.1309" y2="737.1309"/><!--class WorkflowBean--><rect fill="#FEFECE" filter="url(#fobgo7l)" height="140.9512" style="stroke: #A80036; stroke-width: 1.5;" width="180" x="968" y="244"/><ellipse cx="983" cy="263.1328" fill="#ADD1B2" rx="11" ry="11" style="stroke: #A80036; stroke-width: 1.0;"/><path d="M985.9731,268.7759 Q985.3921,269.0747 984.7529,269.2241 Q984.1138,269.3735 983.4082,269.3735 Q980.9014,269.3735 979.5815,267.7217 Q978.2617,266.0698 978.2617,262.9487 Q978.2617,259.8193 979.5815,258.1675 Q980.9014,256.5156 983.4082,256.5156 Q984.1138,256.5156 984.7612,256.665 Q985.4087,256.8145 985.9731,257.1133 L985.9731,259.8359 Q985.3423,259.2549 984.7488,258.9851 Q984.1553,258.7153 983.5244,258.7153 Q982.1797,258.7153 981.4949,259.782 Q980.8101,260.8486 980.8101,262.9487 Q980.8101,265.0405 981.4949,266.1072 Q982.1797,267.1738 983.5244,267.1738 Q984.1553,267.1738 984.7488,266.9041 Q985.3423,266.6343 985.9731,266.0532 Z "/><text fill="#000000" font-family="sans-serif" font-size="12" font-style="italic" lengthAdjust="spacingAndGlyphs" textLength="41" x="1016.5" y="260.6016">«bean»</text><text fill="#000000" font-family="sans-serif" font-size="12" lengthAdjust="spacingAndGlyphs" textLength="80" x="997" y="274.7344">WorkflowBean</text><rect fill="#FFFFFF" height="16.1328" style="stroke: #000000; stroke-width: 1.0; stroke-dasharray: 2.0,2.0;" width="66" x="1085" y="241"/><text fill="#000000" font-family="sans-serif" font-size="12" font-style="italic" lengthAdjust="spacingAndGlyphs" textLength="64" x="1086" y="253.6016">In Progress</text><line style="stroke: #A80036; stroke-width: 1.5;" x1="969" x2="1147" y1="282.2656" y2="282.2656"/><text fill="#000000" font-family="sans-serif" font-size="11" lengthAdjust="spacingAndGlyphs" textLength="80" x="974" y="296.9004">getWorkflows()</text><text fill="#000000" font-family="sans-serif" font-size="11" lengthAdjust="spacingAndGlyphs" textLength="84" x="974" y="309.8555">getWorkflow(id)</text><text fill="#000000" font-family="sans-serif" font-size="11" lengthAdjust="spacingAndGlyphs" textLength="99" x="974" y="322.8105">deleteWorkflow(id)</text><text fill="#000000" font-family="sans-serif" font-size="11" lengthAdjust="spacingAndGlyphs" textLength="89" x="974" y="335.7656">saveWorkflow(w)</text><text fill="#000000" font-family="sans-serif" font-size="11" lengthAdjust="spacingAndGlyphs" textLength="116" x="974" y="348.7207">resumeWorkflow(pwf)</text><text fill="#000000" font-family="sans-serif" font-size="11" lengthAdjust="spacingAndGlyphs" textLength="103" x="974" y="378.6309">getStepProvider(id)</text><line style="stroke: #A80036; stroke-width: 1.0; stroke-dasharray: 1.0,2.0;" x1="969" x2="1007" y1="361.5186" y2="361.5186"/><text fill="#000000" font-family="sans-serif" font-size="11" lengthAdjust="spacingAndGlyphs" textLength="102" x="1007" y="365.1758">. not implemented .</text><line style="stroke: #A80036; stroke-width: 1.0; stroke-dasharray: 1.0,2.0;" x1="1109" x2="1147" y1="361.5186" y2="361.5186"/><!--class WorkflowContext--><rect fill="#FEFECE" filter="url(#fobgo7l)" height="112.7754" style="stroke: #A80036; stroke-width: 1.5;" width="144" x="377" y="462"/><ellipse cx="392" cy="478" fill="#ADD1B2" rx="11" ry="11" style="stroke: #A80036; stroke-width: 1.0;"/><path d="M394.9731,483.6431 Q394.3921,483.9419 393.7529,484.0913 Q393.1138,484.2407 392.4082,484.2407 Q389.9014,484.2407 388.5815,482.5889 Q387.2617,480.937 387.2617,477.8159 Q387.2617,474.6865 388.5815,473.0347 Q389.9014,471.3828 392.4082,471.3828 Q393.1138,471.3828 393.7612,471.5322 Q394.4087,471.6816 394.9731,471.9805 L394.9731,474.7031 Q394.3423,474.1221 393.7488,473.8523 Q393.1553,473.5825 392.5244,473.5825 Q391.1797,473.5825 390.4949,474.6492 Q389.8101,475.7158 389.8101,477.8159 Q389.8101,479.9077 390.4949,480.9744 Q391.1797,482.041 392.5244,482.041 Q393.1553,482.041 393.7488,481.7712 Q394.3423,481.5015 394.9731,480.9204 Z "/><text fill="#000000" font-family="sans-serif" font-size="12" lengthAdjust="spacingAndGlyphs" textLength="112" x="406" y="482.5352">WorkflowContext ✅</text><line style="stroke: #A80036; stroke-width: 1.5;" x1="378" x2="520" y1="494" y2="494"/><text fill="#000000" font-family="sans-serif" font-size="11" lengthAdjust="spacingAndGlyphs" textLength="104" x="383" y="508.6348">r:DataverseRequest</text><text fill="#000000" font-family="sans-serif" font-size="11" lengthAdjust="spacingAndGlyphs" textLength="50" x="383" y="521.5898">d:Dataset</text><text fill="#000000" font-family="sans-serif" font-size="11" lengthAdjust="spacingAndGlyphs" textLength="96" x="383" y="534.5449">invocationId:UUID</text><text fill="#000000" font-family="sans-serif" font-size="11" lengthAdjust="spacingAndGlyphs" textLength="64" x="383" y="547.5">versionData</text><line style="stroke: #A80036; stroke-width: 1.5;" x1="378" x2="520" y1="553.8203" y2="553.8203"/><text fill="#000000" font-family="sans-serif" font-size="11" lengthAdjust="spacingAndGlyphs" textLength="88" x="383" y="568.4551">isMinorRelease()</text><!--class PendingWorkflow--><rect fill="#FEFECE" filter="url(#fobgo7l)" height="131.9961" style="stroke: #A80036; stroke-width: 1.5;" width="181" x="342.5" y="248.5"/><ellipse cx="373.25" cy="267.6328" fill="#ADD1B2" rx="11" ry="11" style="stroke: #A80036; stroke-width: 1.0;"/><path d="M376.2231,273.2759 Q375.6421,273.5747 375.0029,273.7241 Q374.3638,273.8735 373.6582,273.8735 Q371.1514,273.8735 369.8315,272.2217 Q368.5117,270.5698 368.5117,267.4487 Q368.5117,264.3193 369.8315,262.6675 Q371.1514,261.0156 373.6582,261.0156 Q374.3638,261.0156 375.0112,261.165 Q375.6587,261.3145 376.2231,261.6133 L376.2231,264.3359 Q375.5923,263.7549 374.9988,263.4851 Q374.4053,263.2153 373.7744,263.2153 Q372.4297,263.2153 371.7449,264.282 Q371.0601,265.3486 371.0601,267.4487 Q371.0601,269.5405 371.7449,270.6072 Q372.4297,271.6738 373.7744,271.6738 Q374.4053,271.6738 374.9988,271.4041 Q375.5923,271.1343 376.2231,270.5532 Z "/><text fill="#000000" font-family="sans-serif" font-size="12" font-style="italic" lengthAdjust="spacingAndGlyphs" textLength="43" x="426.25" y="265.1016">«entity»</text><text fill="#000000" font-family="sans-serif" font-size="12" lengthAdjust="spacingAndGlyphs" textLength="114" x="390.75" y="279.2344">PendingWorkflow ✅</text><line style="stroke: #A80036; stroke-width: 1.5;" x1="343.5" x2="522.5" y1="286.7656" y2="286.7656"/><text fill="#000000" font-family="sans-serif" font-size="11" lengthAdjust="spacingAndGlyphs" textLength="87" x="348.5" y="301.4004">externalId: UUID</text><text fill="#000000" font-family="sans-serif" font-size="11" lengthAdjust="spacingAndGlyphs" textLength="103" x="348.5" y="314.3555">workflow: Workflow</text><text fill="#000000" font-family="sans-serif" font-size="11" lengthAdjust="spacingAndGlyphs" textLength="169" x="348.5" y="327.3105">pendingStep: WorkflowStepData</text><text fill="#000000" font-family="sans-serif" font-size="11" lengthAdjust="spacingAndGlyphs" textLength="86" x="348.5" y="340.2656">localData: DATA</text><text fill="#000000" font-family="sans-serif" font-size="11" lengthAdjust="spacingAndGlyphs" textLength="143" x="348.5" y="353.2207">request: DataverseRequest</text><text fill="#000000" font-family="sans-serif" font-size="11" lengthAdjust="spacingAndGlyphs" textLength="85" x="348.5" y="366.1758">dataset: Dataset</text><line style="stroke: #A80036; stroke-width: 1.5;" x1="343.5" x2="522.5" y1="372.4961" y2="372.4961"/><!--class WorkflowStepSPI--><rect fill="#FEFECE" filter="url(#fobgo7l)" height="73.9102" style="stroke: #A80036; stroke-width: 1.5;" width="186" x="965" y="481.5"/><ellipse cx="1000.25" cy="497.5" fill="#B4A7E5" rx="11" ry="11" style="stroke: #A80036; stroke-width: 1.0;"/><path d="M996.1777,493.2651 L996.1777,491.1069 L1003.5571,491.1069 L1003.5571,493.2651 L1001.0918,493.2651 L1001.0918,501.3418 L1003.5571,501.3418 L1003.5571,503.5 L996.1777,503.5 L996.1777,501.3418 L998.6431,501.3418 L998.6431,493.2651 Z "/><text fill="#000000" font-family="sans-serif" font-size="12" font-style="italic" lengthAdjust="spacingAndGlyphs" textLength="109" x="1018.75" y="502.0352">WorkflowStepSPI ✅</text><line style="stroke: #A80036; stroke-width: 1.5;" x1="966" x2="1150" y1="513.5" y2="513.5"/><text fill="#000000" font-family="sans-serif" font-size="11" lengthAdjust="spacingAndGlyphs" textLength="10" x="971" y="528.1348">id</text><line style="stroke: #A80036; stroke-width: 1.5;" x1="966" x2="1150" y1="534.4551" y2="534.4551"/><text fill="#000000" font-family="sans-serif" font-size="11" lengthAdjust="spacingAndGlyphs" textLength="174" x="971" y="549.0898">getStep(stepId, parameters):Step</text><!--class WorkflowStep--><rect fill="#FEFECE" filter="url(#fobgo7l)" height="86.8652" style="stroke: #A80036; stroke-width: 1.5;" width="269" x="923.5" y="655"/><ellipse cx="1007.25" cy="671" fill="#B4A7E5" rx="11" ry="11" style="stroke: #A80036; stroke-width: 1.0;"/><path d="M1003.1777,666.7651 L1003.1777,664.6069 L1010.5571,664.6069 L1010.5571,666.7651 L1008.0918,666.7651 L1008.0918,674.8418 L1010.5571,674.8418 L1010.5571,677 L1003.1777,677 L1003.1777,674.8418 L1005.6431,674.8418 L1005.6431,666.7651 Z "/><text fill="#000000" font-family="sans-serif" font-size="12" font-style="italic" lengthAdjust="spacingAndGlyphs" textLength="93" x="1027.75" y="675.5352">WorkflowStep ✅</text><line style="stroke: #A80036; stroke-width: 1.5;" x1="924.5" x2="1191.5" y1="687" y2="687"/><line style="stroke: #A80036; stroke-width: 1.5;" x1="924.5" x2="1191.5" y1="695" y2="695"/><text fill="#000000" font-family="sans-serif" font-size="11" lengthAdjust="spacingAndGlyphs" textLength="236" x="929.5" y="709.6348">run( WorkflowContext ): WorkflowStepResult</text><text fill="#000000" font-family="sans-serif" font-size="11" lengthAdjust="spacingAndGlyphs" textLength="257" x="929.5" y="722.5898">resume( WorkflowContext ): WorkflowStepResult</text><text fill="#000000" font-family="sans-serif" font-size="11" lengthAdjust="spacingAndGlyphs" textLength="152" x="929.5" y="735.5449">rollback( WorkflowContext  )</text><!--class WorkflowStepResult--><rect fill="#FEFECE" filter="url(#fobgo7l)" height="54.2656" style="stroke: #A80036; stroke-width: 1.5;" width="160" x="978" y="822"/><ellipse cx="993" cy="841.1328" fill="#ADD1B2" rx="11" ry="11" style="stroke: #A80036; stroke-width: 1.0;"/><path d="M995.9731,846.7759 Q995.3921,847.0747 994.7529,847.2241 Q994.1138,847.3735 993.4082,847.3735 Q990.9014,847.3735 989.5815,845.7217 Q988.2617,844.0698 988.2617,840.9487 Q988.2617,837.8193 989.5815,836.1675 Q990.9014,834.5156 993.4082,834.5156 Q994.1138,834.5156 994.7612,834.665 Q995.4087,834.8145 995.9731,835.1133 L995.9731,837.8359 Q995.3423,837.2549 994.7488,836.9851 Q994.1553,836.7153 993.5244,836.7153 Q992.1797,836.7153 991.4949,837.782 Q990.8101,838.8486 990.8101,840.9487 Q990.8101,843.0405 991.4949,844.1072 Q992.1797,845.1738 993.5244,845.1738 Q994.1553,845.1738 994.7488,844.9041 Q995.3423,844.6343 995.9731,844.0532 Z "/><text fill="#000000" font-family="sans-serif" font-size="12" font-style="italic" lengthAdjust="spacingAndGlyphs" textLength="59" x="1041.5" y="838.6016">«abstract»</text><text fill="#000000" font-family="sans-serif" font-size="12" lengthAdjust="spacingAndGlyphs" textLength="128" x="1007" y="852.7344">WorkflowStepResult ✅</text><line style="stroke: #A80036; stroke-width: 1.5;" x1="979" x2="1137" y1="860.2656" y2="860.2656"/><line style="stroke: #A80036; stroke-width: 1.5;" x1="979" x2="1137" y1="868.2656" y2="868.2656"/><!--class OK--><rect fill="#FEFECE" filter="url(#fobgo7l)" height="54.2656" style="stroke: #A80036; stroke-width: 1.5;" width="91" x="884.5" y="940.5"/><ellipse cx="899.5" cy="959.6328" fill="#ADD1B2" rx="11" ry="11" style="stroke: #A80036; stroke-width: 1.0;"/><path d="M902.4731,965.2759 Q901.8921,965.5747 901.2529,965.7241 Q900.6138,965.8735 899.9082,965.8735 Q897.4014,965.8735 896.0815,964.2217 Q894.7617,962.5698 894.7617,959.4487 Q894.7617,956.3193 896.0815,954.6675 Q897.4014,953.0156 899.9082,953.0156 Q900.6138,953.0156 901.2612,953.165 Q901.9087,953.3145 902.4731,953.6133 L902.4731,956.3359 Q901.8423,955.7549 901.2488,955.4851 Q900.6553,955.2153 900.0244,955.2153 Q898.6797,955.2153 897.9949,956.282 Q897.3101,957.3486 897.3101,959.4487 Q897.3101,961.5405 897.9949,962.6072 Q898.6797,963.6738 900.0244,963.6738 Q900.6553,963.6738 901.2488,963.4041 Q901.8423,963.1343 902.4731,962.5532 Z "/><text fill="#000000" font-family="sans-serif" font-size="12" font-style="italic" lengthAdjust="spacingAndGlyphs" textLength="63" x="911.5" y="957.1016">«singleton»</text><text fill="#000000" font-family="sans-serif" font-size="12" lengthAdjust="spacingAndGlyphs" textLength="33" x="926.5" y="971.2344">OK ✅</text><line style="stroke: #A80036; stroke-width: 1.5;" x1="885.5" x2="974.5" y1="978.7656" y2="978.7656"/><line style="stroke: #A80036; stroke-width: 1.5;" x1="885.5" x2="974.5" y1="986.7656" y2="986.7656"/><!--class Pending--><rect fill="#FEFECE" filter="url(#fobgo7l)" height="60.9551" style="stroke: #A80036; stroke-width: 1.5;" width="94" x="1011" y="937"/><ellipse cx="1026" cy="953" fill="#ADD1B2" rx="11" ry="11" style="stroke: #A80036; stroke-width: 1.0;"/><path d="M1028.9731,958.6431 Q1028.3921,958.9419 1027.7529,959.0913 Q1027.1138,959.2407 1026.4082,959.2407 Q1023.9014,959.2407 1022.5815,957.5889 Q1021.2617,955.937 1021.2617,952.8159 Q1021.2617,949.6865 1022.5815,948.0347 Q1023.9014,946.3828 1026.4082,946.3828 Q1027.1138,946.3828 1027.7612,946.5322 Q1028.4087,946.6816 1028.9731,946.9805 L1028.9731,949.7031 Q1028.3423,949.1221 1027.7488,948.8523 Q1027.1553,948.5825 1026.5244,948.5825 Q1025.1797,948.5825 1024.4949,949.6492 Q1023.8101,950.7158 1023.8101,952.8159 Q1023.8101,954.9077 1024.4949,955.9744 Q1025.1797,957.041 1026.5244,957.041 Q1027.1553,957.041 1027.7488,956.7712 Q1028.3423,956.5015 1028.9731,955.9204 Z "/><text fill="#000000" font-family="sans-serif" font-size="12" lengthAdjust="spacingAndGlyphs" textLength="62" x="1040" y="957.5352">Pending ✅</text><line style="stroke: #A80036; stroke-width: 1.5;" x1="1012" x2="1104" y1="969" y2="969"/><text fill="#000000" font-family="sans-serif" font-size="11" lengthAdjust="spacingAndGlyphs" textLength="49" x="1017" y="983.6348">localData</text><line style="stroke: #A80036; stroke-width: 1.5;" x1="1012" x2="1104" y1="989.9551" y2="989.9551"/><!--class Failure--><rect fill="#FEFECE" filter="url(#fobgo7l)" height="60.9551" style="stroke: #A80036; stroke-width: 1.5;" width="108" x="1140" y="937"/><ellipse cx="1164.9" cy="953" fill="#ADD1B2" rx="11" ry="11" style="stroke: #A80036; stroke-width: 1.0;"/><path d="M1167.8731,958.6431 Q1167.2921,958.9419 1166.6529,959.0913 Q1166.0138,959.2407 1165.3082,959.2407 Q1162.8014,959.2407 1161.4815,957.5889 Q1160.1617,955.937 1160.1617,952.8159 Q1160.1617,949.6865 1161.4815,948.0347 Q1162.8014,946.3828 1165.3082,946.3828 Q1166.0138,946.3828 1166.6612,946.5322 Q1167.3087,946.6816 1167.8731,946.9805 L1167.8731,949.7031 Q1167.2423,949.1221 1166.6488,948.8523 Q1166.0553,948.5825 1165.4244,948.5825 Q1164.0797,948.5825 1163.3949,949.6492 Q1162.7101,950.7158 1162.7101,952.8159 Q1162.7101,954.9077 1163.3949,955.9744 Q1164.0797,957.041 1165.4244,957.041 Q1166.0553,957.041 1166.6488,956.7712 Q1167.2423,956.5015 1167.8731,955.9204 Z "/><text fill="#000000" font-family="sans-serif" font-size="12" lengthAdjust="spacingAndGlyphs" textLength="54" x="1181.1" y="957.5352">Failure ✅</text><line style="stroke: #A80036; stroke-width: 1.5;" x1="1141" x2="1247" y1="969" y2="969"/><text fill="#000000" font-family="sans-serif" font-size="11" lengthAdjust="spacingAndGlyphs" textLength="96" x="1146" y="983.6348">reason:Throwable</text><line style="stroke: #A80036; stroke-width: 1.5;" x1="1141" x2="1247" y1="989.9551" y2="989.9551"/><path d="M594,545.8381 C594,573.7522 594,617.6317 594,651.1976 " fill="none" style="stroke: #A80036; stroke-width: 1.0;"/><polygon fill="none" points="601.0001,651.4944,594,671.4944,587.0001,651.4943,601.0001,651.4944" style="stroke: #A80036; stroke-width: 1.0;"/><path d="M590.6506,725.6762 C587.5665,744.8826 581.9166,770.8644 572,792 C569.9342,796.4029 567.4916,800.7951 564.8362,805.0764 " fill="none" style="stroke: #A80036; stroke-width: 1.0;"/><polygon fill="none" points="570.342,809.4179,553.1431,821.7951,558.8696,801.3939,570.342,809.4179" style="stroke: #A80036; stroke-width: 1.0;"/><path d="M518.4821,808.6464 C517.3388,797.4474 517.84,785.4897 522,775 C527.9356,760.0329 538.3397,746.2911 549.4246,734.7095 " fill="none" style="stroke: #A80036; stroke-width: 1.0;"/><polygon fill="#A80036" points="558.8128,725.5095,549.5851,728.9518,555.2417,729.0091,555.1844,734.6656,558.8128,725.5095" style="stroke: #A80036; stroke-width: 1.0;"/><line style="stroke: #A80036; stroke-width: 1.0;" x1="555.2417" x2="549.5278" y1="729.0091" y2="734.6084"/><polygon fill="#FFFFFF" points="520.5569,821.7806,523.5716,815.2299,518.6844,809.9276,515.6696,816.4783,520.5569,821.7806" style="stroke: #A80036; stroke-width: 1.0;"/><text fill="#000000" font-family="sans-serif" font-size="13" lengthAdjust="spacingAndGlyphs" textLength="40" x="523" y="788.5684">parent</text><path d="M616.3328,743.9201 C628.8502,769.3779 644.0399,800.2703 654.6989,821.9483 " fill="none" style="stroke: #A80036; stroke-width: 1.0;"/><polygon fill="none" points="609.944,746.7909,607.4008,725.7544,622.5074,740.6135,609.944,746.7909" style="stroke: #A80036; stroke-width: 1.0;"/><path d="M1013.8457,889.8772 C995.7853,906.5972 975.3849,925.4835 959.2291,940.4402 " fill="none" style="stroke: #A80036; stroke-width: 1.0;"/><polygon fill="none" points="1009.2024,884.6366,1028.6342,876.1863,1018.7134,894.91,1009.2024,884.6366" style="stroke: #A80036; stroke-width: 1.0;"/><path d="M1058,896.3684 C1058,909.9411 1058,924.3813 1058,936.6797 " fill="none" style="stroke: #A80036; stroke-width: 1.0;"/><polygon fill="none" points="1051.0001,896.1863,1058,876.1863,1065.0001,896.1863,1051.0001,896.1863" style="stroke: #A80036; stroke-width: 1.0;"/><path d="M1104.4037,889.4326 C1122.146,904.892 1142.0772,922.2584 1158.6282,936.6797 " fill="none" style="stroke: #A80036; stroke-width: 1.0;"/><polygon fill="none" points="1099.6816,894.6026,1089.2011,876.1863,1108.8787,884.0473,1099.6816,894.6026" style="stroke: #A80036; stroke-width: 1.0;"/><path d="M534.9515,380.6317 C571.7911,405.3512 613.3227,434.1881 650,462 C652.1786,463.652 654.3814,465.3504 656.5943,467.0806 " fill="none" style="stroke: #A80036; stroke-width: 1.0;"/><polygon fill="#A80036" points="666.9711,475.3546,662.4279,466.6162,663.0617,472.2375,657.4405,472.8713,666.9711,475.3546" style="stroke: #A80036; stroke-width: 1.0;"/><line style="stroke: #A80036; stroke-width: 1.0;" x1="663.0617" x2="656.8067" y1="472.2375" y2="467.25"/><polygon fill="#FFFFFF" points="523.6798,373.098,526.4454,379.7577,533.6565,379.7662,530.8909,373.1065,523.6798,373.098" style="stroke: #A80036; stroke-width: 1.0;"/><path d="M385.6903,392.5001 C374.8065,414.2451 364.7475,438.3956 359,462 C344.6594,520.8959 345.8601,590.5086 349.447,638.8945 " fill="none" style="stroke: #A80036; stroke-width: 1.0;"/><polygon fill="#A80036" points="350.511,651.9523,353.7668,642.6572,350.1049,646.9688,345.7932,643.3069,350.511,651.9523" style="stroke: #A80036; stroke-width: 1.0;"/><line style="stroke: #A80036; stroke-width: 1.0;" x1="350.1049" x2="349.4552" y1="646.9688" y2="638.9953"/><polygon fill="#FFFFFF" points="391.7995,380.6857,385.4905,384.178,386.2875,391.3449,392.5966,387.8526,391.7995,380.6857" style="stroke: #A80036; stroke-width: 1.0;"/><path d="M500.273,390.7323 C507.0411,398.8394 513.7253,407.0328 520,415 C536.6433,436.1325 554.1974,460.5802 568.0296,480.4071 " fill="none" style="stroke: #A80036; stroke-width: 1.0;"/><polygon fill="#A80036" points="575.5048,491.1908,573.6649,481.5153,572.6563,487.0815,567.0901,486.0729,575.5048,491.1908" style="stroke: #A80036; stroke-width: 1.0;"/><line style="stroke: #A80036; stroke-width: 1.0;" x1="572.6563" x2="568.0987" y1="487.0815" y2="480.5067"/><polygon fill="#FFFFFF" points="491.6797,380.5329,492.4867,387.6987,499.4117,389.7098,498.6047,382.544,491.6797,380.5329" style="stroke: #A80036; stroke-width: 1.0;"/><path d="M655.7541,571.3299 C653.8387,572.5994 651.9184,573.8261 650,575 C590.9374,611.1413 519.41,641.4468 461.6955,662.992 " fill="none" style="stroke: #A80036; stroke-width: 1.0;"/><polygon fill="#A80036" points="449.2246,667.592,459.0528,668.2302,453.9156,665.8616,456.2842,660.7245,449.2246,667.592" style="stroke: #A80036; stroke-width: 1.0;"/><line style="stroke: #A80036; stroke-width: 1.0;" x1="453.9156" x2="461.4213" y1="665.8616" y2="663.0931"/><polygon fill="#A80036" points="666.6263,563.661,659.4177,563.8508,656.8203,570.5779,664.0289,570.3881,666.6263,563.661" style="stroke: #A80036; stroke-width: 1.0;"/><text fill="#000000" font-family="sans-serif" font-size="13" lengthAdjust="spacingAndGlyphs" textLength="62" x="589" y="618.5684">«ordered»</text><text fill="#000000" font-family="sans-serif" font-size="13" lengthAdjust="spacingAndGlyphs" textLength="8" x="650.98" y="566.5381">1</text><text fill="#000000" font-family="sans-serif" font-size="13" lengthAdjust="spacingAndGlyphs" textLength="22" x="456.8786" y="662.3464">1..*</text><path d="M1058,555.7961 C1058,583.0523 1058,620.2657 1058,649.8569 " fill="none" style="stroke: #A80036; stroke-width: 1.0; stroke-dasharray: 7.0,7.0;"/><polygon fill="#A80036" points="1058,654.9127,1062,645.9127,1058,649.9127,1054,645.9127,1058,654.9127" style="stroke: #A80036; stroke-width: 1.0;"/><text fill="#000000" font-family="sans-serif" font-size="13" lengthAdjust="spacingAndGlyphs" textLength="45" x="1059" y="618.5684">creates</text><path d="M1058,742.0308 C1058,765.8204 1058,794.7869 1058,816.5741 " fill="none" style="stroke: #A80036; stroke-width: 1.0; stroke-dasharray: 7.0,7.0;"/><polygon fill="#A80036" points="1058,821.6692,1062,812.6692,1058,816.6692,1054,812.6692,1058,821.6692" style="stroke: #A80036; stroke-width: 1.0;"/><text fill="#000000" font-family="sans-serif" font-size="13" lengthAdjust="spacingAndGlyphs" textLength="45" x="1059" y="788.5684">creates</text><path d="M433,145.8939 C433,172.2918 433,209.869 433,242.8514 " fill="none" style="stroke: #A80036; stroke-width: 1.0; stroke-dasharray: 7.0,7.0;"/><polygon fill="#A80036" points="433,248.103,437,239.103,433,243.103,429,239.103,433,248.103" style="stroke: #A80036; stroke-width: 1.0;"/><text fill="#000000" font-family="sans-serif" font-size="13" lengthAdjust="spacingAndGlyphs" textLength="49" x="434" y="210.5684">invokes</text><path d="M1058,398.3715 C1058,422.0644 1058,447.1056 1058,468.158 " fill="none" style="stroke: #A80036; stroke-width: 1.0;"/><polygon fill="#A80036" points="1058,481.3621,1062,472.3621,1058,476.3621,1054,472.3621,1058,481.3621" style="stroke: #A80036; stroke-width: 1.0;"/><line style="stroke: #A80036; stroke-width: 1.0;" x1="1058" x2="1058.0001" y1="476.3621" y2="468.3621"/><polygon fill="#A80036" points="1058,385.2768,1054,391.2768,1058,397.2768,1062,391.2768,1058,385.2768" style="stroke: #A80036; stroke-width: 1.0;"/><path d="M978.8999,393.7548 C962.8353,407.5557 945.4812,420.9915 928,432 C881.3481,461.3783 823.0163,484.3901 779.5155,499.2688 " fill="none" style="stroke: #A80036; stroke-width: 1.0;"/><polygon fill="#A80036" points="767.0923,503.4355,776.8971,504.3659,771.8328,501.8455,774.3531,496.7812,767.0923,503.4355" style="stroke: #A80036; stroke-width: 1.0;"/><line style="stroke: #A80036; stroke-width: 1.0;" x1="771.8328" x2="779.4175" y1="501.8455" y2="499.3016"/><polygon fill="#A80036" points="988.7253,385.1331,981.5772,386.0839,979.7055,393.0479,986.8537,392.0971,988.7253,385.1331" style="stroke: #A80036; stroke-width: 1.0;"/><path d="M909.3223,136.151 C904.4016,192.4632 886.0292,335.0403 822,432 C808.8111,451.972 789.611,469.6863 771.2253,483.8008 " fill="none" style="stroke: #A80036; stroke-width: 1.0; stroke-dasharray: 7.0,7.0;"/><polygon fill="#A80036" points="767.0707,486.9409,776.6625,484.7053,771.0595,483.9261,771.8387,478.3231,767.0707,486.9409" style="stroke: #A80036; stroke-width: 1.0;"/><text fill="#000000" font-family="sans-serif" font-size="13" lengthAdjust="spacingAndGlyphs" textLength="29" x="893" y="319.5684">uses</text><path d="M877.6342,136.0411 C858.0536,151.5794 834.0778,173.2812 818,197 C767.8856,270.9313 799.6537,312.8552 747,385 C714.5509,429.461 691.0019,425.2771 650,462 C640.9982,470.0624 631.6078,479.214 623.146,487.7683 " fill="none" style="stroke: #A80036; stroke-width: 1.0; stroke-dasharray: 7.0,7.0;"/><polygon fill="#A80036" points="619.5802,491.393,628.7434,487.7824,623.0867,487.8287,623.0404,482.172,619.5802,491.393" style="stroke: #A80036; stroke-width: 1.0;"/><text fill="#000000" font-family="sans-serif" font-size="13" lengthAdjust="spacingAndGlyphs" textLength="29" x="795" y="319.5684">uses</text><path d="M928.4401,136.0246 C946.8566,161.3943 976.8341,202.6899 1003.3172,239.1716 " fill="none" style="stroke: #A80036; stroke-width: 1.0; stroke-dasharray: 7.0,7.0;"/><polygon fill="#A80036" points="1006.5285,243.5953,1004.4784,233.9622,1003.5912,239.549,998.0044,238.6618,1006.5285,243.5953" style="stroke: #A80036; stroke-width: 1.0;"/><text fill="#000000" font-family="sans-serif" font-size="13" lengthAdjust="spacingAndGlyphs" textLength="29" x="985" y="210.5684">uses</text><path d="M694.4294,136.2111 C698.2387,200.7307 708.6996,377.9117 713.9335,466.5608 " fill="none" style="stroke: #A80036; stroke-width: 1.0; stroke-dasharray: 7.0,7.0;"/><polygon fill="#A80036" points="714.2399,471.7515,717.7022,462.5313,713.945,466.7602,709.7161,463.003,714.2399,471.7515" style="stroke: #A80036; stroke-width: 1.0;"/><text fill="#000000" font-family="sans-serif" font-size="13" lengthAdjust="spacingAndGlyphs" textLength="29" x="709" y="319.5684">uses</text><path d="M687.1036,136.2111 C670.1182,205.9541 621.0724,407.339 601.8557,486.2441 " fill="none" style="stroke: #A80036; stroke-width: 1.0; stroke-dasharray: 7.0,7.0;"/><polygon fill="#A80036" points="600.6337,491.2616,606.6498,483.4637,601.8168,486.4036,598.877,481.5707,600.6337,491.2616" style="stroke: #A80036; stroke-width: 1.0;"/><text fill="#000000" font-family="sans-serif" font-size="13" lengthAdjust="spacingAndGlyphs" textLength="29" x="660" y="319.5684">uses</text><path d="M724.4928,136.1239 C746.5516,152.3443 777.1329,173.5094 806,189 C863.0882,219.6345 883.0788,214.9712 941,244 C948.2863,247.6517 955.7249,251.5936 963.1436,255.6818 " fill="none" style="stroke: #A80036; stroke-width: 1.0; stroke-dasharray: 7.0,7.0;"/><polygon fill="#A80036" points="967.7586,258.245,961.8329,250.3782,963.3876,255.8173,957.9485,257.3719,967.7586,258.245" style="stroke: #A80036; stroke-width: 1.0;"/><text fill="#000000" font-family="sans-serif" font-size="13" lengthAdjust="spacingAndGlyphs" textLength="29" x="862" y="210.5684">uses</text><path d="M438.1947,380.733 C440.1115,405.1714 442.2742,432.7463 444.1585,456.7706 " fill="none" style="stroke: #A80036; stroke-width: 1.0; stroke-dasharray: 7.0,7.0;"/><polygon fill="#A80036" points="444.5561,461.8408,447.84,452.5556,444.1651,456.8561,439.8645,453.1812,444.5561,461.8408" style="stroke: #A80036; stroke-width: 1.0;"/><text fill="#000000" font-family="sans-serif" font-size="13" lengthAdjust="spacingAndGlyphs" textLength="68" x="443" y="428.5684">«contains»</text></g></svg>