<?xml version="1.0" encoding="UTF-8"?>
<svg xmlns="http://www.w3.org/2000/svg" xmlns:xlink="http://www.w3.org/1999/xlink" width="12pt" height="14pt" viewBox="0 0 12 14" version="1.1">
<g id="surface1">
<path style=" stroke:none;fill-rule:nonzero;fill:rgb(100%,100%,100%);fill-opacity:1;" d="M 1.941406 1.972656 L 10.515625 1.972656 L 10.515625 9.996094 L 1.941406 9.996094 Z M 1.941406 1.972656 "/>
<path style=" stroke:none;fill-rule:evenodd;fill:rgb(0%,0%,0%);fill-opacity:1;" d="M 0 1.003906 C 0 0.449219 0.449219 0 1.003906 0 L 10.996094 0 C 11.550781 0 12 0.449219 12 1.003906 L 12 10.996094 C 12 11.550781 11.550781 12 10.996094 12 L 1.003906 12 C 0.449219 12 0 11.550781 0 10.996094 Z M 4.5 12 L 6 14 L 7.5 12 Z M 3.503906 2 L 2 2 L 2 10 L 3.503906 10 L 3.503906 7.5 C 3.503906 6.003906 4.085938 6.003906 4.5 6 C 5 6.003906 5.507812 6.03125 5.507812 7 L 5.507812 10 L 7.011719 10 L 7.011719 6.554688 C 7.011719 5 6 4.5 5 4.5 C 4.003906 4.5 4 4.5 3.503906 5.5 Z M 9.5 9.992188 C 10.050781 9.992188 10.5 9.546875 10.5 8.996094 C 10.5 8.445312 10.050781 8 9.5 8 C 8.949219 8 8.5 8.445312 8.5 8.996094 C 8.5 9.546875 8.949219 9.992188 9.5 9.992188 Z M 9.5 9.992188 "/>
</g>
</svg>
