<?xml version="1.0" encoding="UTF-8" standalone="yes"?><svg xmlns="http://www.w3.org/2000/svg" xmlns:xlink="http://www.w3.org/1999/xlink" height="252pt" style="width:1985px;height:252px;" version="1.1" viewBox="0 0 1985 252" width="1985pt"><defs><filter height="300%" id="f1" width="300%" x="-1" y="-1"><feGaussianBlur result="blurOut" stdDeviation="2.0"/><feColorMatrix in="blurOut" result="blurOut2" type="matrix" values="0 0 0 0 0 0 0 0 0 0 0 0 0 0 0 0 0 0 .4 0"/><feOffset dx="4.0" dy="4.0" in="blurOut2" result="blurOut3"/><feBlend in="SourceGraphic" in2="blurOut3" mode="normal"/></filter></defs><g><rect fill="#FEFECE" filter="url(#f1)" height="48" style="stroke: #A80036; stroke-width: 1.5;" width="118" x="441.25" y="28"/><ellipse cx="456.25" cy="44" fill="#ADD1B2" rx="11" ry="11" style="stroke: #A80036; stroke-width: 1.0;"/><path d="M459.2231,49.6431 Q458.6421,49.9419 458.0029,50.0913 Q457.3638,50.2407 456.6582,50.2407 Q454.1514,50.2407 452.8315,48.5889 Q451.5117,46.937 451.5117,43.8159 Q451.5117,40.6865 452.8315,39.0347 Q454.1514,37.3828 456.6582,37.3828 Q457.3638,37.3828 458.0112,37.5322 Q458.6587,37.6816 459.2231,37.9805 L459.2231,40.7031 Q458.5923,40.1221 457.9988,39.8523 Q457.4053,39.5825 456.7744,39.5825 Q455.4297,39.5825 454.7449,40.6492 Q454.0601,41.7158 454.0601,43.8159 Q454.0601,45.9077 454.7449,46.9744 Q455.4297,48.041 456.7744,48.041 Q457.4053,48.041 457.9988,47.7712 Q458.5923,47.5015 459.2231,46.9204 Z "/><text fill="#000000" font-family="sans-serif" font-size="12" lengthAdjust="spacingAndGlyphs" textLength="86" x="470.25" y="48.5352">AccessRequest</text><line style="stroke: #A80036; stroke-width: 1.5;" x1="442.25" x2="558.25" y1="60" y2="60"/><line style="stroke: #A80036; stroke-width: 1.5;" x1="442.25" x2="558.25" y1="68" y2="68"/><rect fill="#FEFECE" filter="url(#f1)" height="48" style="stroke: #A80036; stroke-width: 1.5;" width="78" x="730.25" y="176"/><ellipse cx="745.25" cy="192" fill="#ADD1B2" rx="11" ry="11" style="stroke: #A80036; stroke-width: 1.0;"/><path d="M748.2231,197.6431 Q747.6421,197.9419 747.0029,198.0913 Q746.3638,198.2407 745.6582,198.2407 Q743.1514,198.2407 741.8315,196.5889 Q740.5117,194.937 740.5117,191.8159 Q740.5117,188.6865 741.8315,187.0347 Q743.1514,185.3828 745.6582,185.3828 Q746.3638,185.3828 747.0112,185.5322 Q747.6587,185.6816 748.2231,185.9805 L748.2231,188.7031 Q747.5923,188.1221 746.9988,187.8523 Q746.4053,187.5825 745.7744,187.5825 Q744.4297,187.5825 743.7449,188.6492 Q743.0601,189.7158 743.0601,191.8159 Q743.0601,193.9077 743.7449,194.9744 Q744.4297,196.041 745.7744,196.041 Q746.4053,196.041 746.9988,195.7712 Q747.5923,195.5015 748.2231,194.9204 Z "/><text fill="#000000" font-family="sans-serif" font-size="12" lengthAdjust="spacingAndGlyphs" textLength="46" x="759.25" y="196.5352">AllUsers</text><line style="stroke: #A80036; stroke-width: 1.5;" x1="731.25" x2="807.25" y1="208" y2="208"/><line style="stroke: #A80036; stroke-width: 1.5;" x1="731.25" x2="807.25" y1="216" y2="216"/><rect fill="#FEFECE" filter="url(#f1)" height="73.9102" style="stroke: #A80036; stroke-width: 1.5;" width="95" x="19" y="15"/><ellipse cx="44.35" cy="31" fill="#ADD1B2" rx="11" ry="11" style="stroke: #A80036; stroke-width: 1.0;"/><path d="M47.3231,36.6431 Q46.7421,36.9419 46.1029,37.0913 Q45.4638,37.2407 44.7582,37.2407 Q42.2514,37.2407 40.9315,35.5889 Q39.6117,33.937 39.6117,30.8159 Q39.6117,27.6865 40.9315,26.0347 Q42.2514,24.3828 44.7582,24.3828 Q45.4638,24.3828 46.1112,24.5322 Q46.7587,24.6816 47.3231,24.9805 L47.3231,27.7031 Q46.6923,27.1221 46.0988,26.8523 Q45.5053,26.5825 44.8744,26.5825 Q43.5297,26.5825 42.8449,27.6492 Q42.1601,28.7158 42.1601,30.8159 Q42.1601,32.9077 42.8449,33.9744 Q43.5297,35.041 44.8744,35.041 Q45.5053,35.041 46.0988,34.7712 Q46.6923,34.5015 47.3231,33.9204 Z "/><text fill="#000000" font-family="sans-serif" font-size="12" lengthAdjust="spacingAndGlyphs" textLength="40" x="60.65" y="35.5352">ApiKey</text><line style="stroke: #A80036; stroke-width: 1.5;" x1="20" x2="113" y1="47" y2="47"/><line style="stroke: #A80036; stroke-width: 1.5;" x1="20" x2="113" y1="55" y2="55"/><text fill="#000000" font-family="sans-serif" font-size="11" lengthAdjust="spacingAndGlyphs" textLength="79" x="25" y="69.6348">String getKey()</text><text fill="#000000" font-family="sans-serif" font-size="11" lengthAdjust="spacingAndGlyphs" textLength="83" x="25" y="82.5898">String getTitle()</text><rect fill="#FEFECE" filter="url(#f1)" height="48" style="stroke: #A80036; stroke-width: 1.5;" width="137" x="432" y="176"/><ellipse cx="447" cy="192" fill="#ADD1B2" rx="11" ry="11" style="stroke: #A80036; stroke-width: 1.0;"/><path d="M449.9731,197.6431 Q449.3921,197.9419 448.7529,198.0913 Q448.1138,198.2407 447.4082,198.2407 Q444.9014,198.2407 443.5815,196.5889 Q442.2617,194.937 442.2617,191.8159 Q442.2617,188.6865 443.5815,187.0347 Q444.9014,185.3828 447.4082,185.3828 Q448.1138,185.3828 448.7612,185.5322 Q449.4087,185.6816 449.9731,185.9805 L449.9731,188.7031 Q449.3423,188.1221 448.7488,187.8523 Q448.1553,187.5825 447.5244,187.5825 Q446.1797,187.5825 445.4949,188.6492 Q444.8101,189.7158 444.8101,191.8159 Q444.8101,193.9077 445.4949,194.9744 Q446.1797,196.041 447.5244,196.041 Q448.1553,196.041 448.7488,195.7712 Q449.3423,195.5015 449.9731,194.9204 Z "/><text fill="#000000" font-family="sans-serif" font-size="12" lengthAdjust="spacingAndGlyphs" textLength="105" x="461" y="196.5352">AuthenticatedUser</text><line style="stroke: #A80036; stroke-width: 1.5;" x1="433" x2="568" y1="208" y2="208"/><line style="stroke: #A80036; stroke-width: 1.5;" x1="433" x2="568" y1="216" y2="216"/><rect fill="#FEFECE" filter="url(#f1)" height="48" style="stroke: #A80036; stroke-width: 1.5;" width="143" x="844" y="176"/><ellipse cx="859" cy="192" fill="#ADD1B2" rx="11" ry="11" style="stroke: #A80036; stroke-width: 1.0;"/><path d="M861.9731,197.6431 Q861.3921,197.9419 860.7529,198.0913 Q860.1138,198.2407 859.4082,198.2407 Q856.9014,198.2407 855.5815,196.5889 Q854.2617,194.937 854.2617,191.8159 Q854.2617,188.6865 855.5815,187.0347 Q856.9014,185.3828 859.4082,185.3828 Q860.1138,185.3828 860.7612,185.5322 Q861.4087,185.6816 861.9731,185.9805 L861.9731,188.7031 Q861.3423,188.1221 860.7488,187.8523 Q860.1553,187.5825 859.5244,187.5825 Q858.1797,187.5825 857.4949,188.6492 Q856.8101,189.7158 856.8101,191.8159 Q856.8101,193.9077 857.4949,194.9744 Q858.1797,196.041 859.5244,196.041 Q860.1553,196.041 860.7488,195.7712 Q861.3423,195.5015 861.9731,194.9204 Z "/><text fill="#000000" font-family="sans-serif" font-size="12" lengthAdjust="spacingAndGlyphs" textLength="111" x="873" y="196.5352">AuthenticatedUsers</text><line style="stroke: #A80036; stroke-width: 1.5;" x1="845" x2="986" y1="208" y2="208"/><line style="stroke: #A80036; stroke-width: 1.5;" x1="845" x2="986" y1="216" y2="216"/><rect fill="#FEFECE" filter="url(#f1)" height="73.9102" style="stroke: #A80036; stroke-width: 1.5;" width="257" x="149" y="15"/><ellipse cx="207.75" cy="31" fill="#B4A7E5" rx="11" ry="11" style="stroke: #A80036; stroke-width: 1.0;"/><path d="M203.6777,26.7651 L203.6777,24.6069 L211.0571,24.6069 L211.0571,26.7651 L208.5918,26.7651 L208.5918,34.8418 L211.0571,34.8418 L211.0571,37 L203.6777,37 L203.6777,34.8418 L206.1431,34.8418 L206.1431,26.7651 Z "/><text fill="#000000" font-family="sans-serif" font-size="12" font-style="italic" lengthAdjust="spacingAndGlyphs" textLength="131" x="228.25" y="35.5352">AuthenticationManager</text><line style="stroke: #A80036; stroke-width: 1.5;" x1="150" x2="405" y1="47" y2="47"/><text fill="#000000" font-family="sans-serif" font-size="11" lengthAdjust="spacingAndGlyphs" textLength="185" x="155" y="61.6348">Collection authenticationProviders</text><line style="stroke: #A80036; stroke-width: 1.5;" x1="150" x2="405" y1="67.9551" y2="67.9551"/><text fill="#000000" font-family="sans-serif" font-size="11" lengthAdjust="spacingAndGlyphs" textLength="245" x="155" y="82.5898">void registerProvider(AuthenticationProvider)</text><rect fill="#FEFECE" filter="url(#f1)" height="60.9551" style="stroke: #A80036; stroke-width: 1.5;" width="216" x="1760.25" y="21.5"/><ellipse cx="1800" cy="37.5" fill="#B4A7E5" rx="11" ry="11" style="stroke: #A80036; stroke-width: 1.0;"/><path d="M1795.9277,33.2651 L1795.9277,31.1069 L1803.3071,31.1069 L1803.3071,33.2651 L1800.8418,33.2651 L1800.8418,41.3418 L1803.3071,41.3418 L1803.3071,43.5 L1795.9277,43.5 L1795.9277,41.3418 L1798.3931,41.3418 L1798.3931,33.2651 Z "/><text fill="#000000" font-family="sans-serif" font-size="12" font-style="italic" lengthAdjust="spacingAndGlyphs" textLength="129" x="1819.5" y="42.0352">AuthenticationProvider</text><line style="stroke: #A80036; stroke-width: 1.5;" x1="1761.25" x2="1975.25" y1="53.5" y2="53.5"/><line style="stroke: #A80036; stroke-width: 1.5;" x1="1761.25" x2="1975.25" y1="61.5" y2="61.5"/><text fill="#000000" font-family="sans-serif" font-size="11" lengthAdjust="spacingAndGlyphs" textLength="204" x="1766.25" y="76.1348">RoleAssignee getRoleAssignee(String)</text><rect fill="#FEFECE" filter="url(#f1)" height="86.8652" style="stroke: #A80036; stroke-width: 1.5;" width="158" x="1022.25" y="156.5"/><ellipse cx="1059.3" cy="172.5" fill="#ADD1B2" rx="11" ry="11" style="stroke: #A80036; stroke-width: 1.0;"/><path d="M1062.2731,178.1431 Q1061.6921,178.4419 1061.0529,178.5913 Q1060.4138,178.7407 1059.7082,178.7407 Q1057.2014,178.7407 1055.8815,177.0889 Q1054.5617,175.437 1054.5617,172.3159 Q1054.5617,169.1865 1055.8815,167.5347 Q1057.2014,165.8828 1059.7082,165.8828 Q1060.4138,165.8828 1061.0612,166.0322 Q1061.7087,166.1816 1062.2731,166.4805 L1062.2731,169.2031 Q1061.6423,168.6221 1061.0488,168.3523 Q1060.4553,168.0825 1059.8244,168.0825 Q1058.4797,168.0825 1057.7949,169.1492 Q1057.1101,170.2158 1057.1101,172.3159 Q1057.1101,174.4077 1057.7949,175.4744 Q1058.4797,176.541 1059.8244,176.541 Q1060.4553,176.541 1061.0488,176.2712 Q1061.6423,176.0015 1062.2731,175.4204 Z "/><text fill="#000000" font-family="sans-serif" font-size="12" lengthAdjust="spacingAndGlyphs" textLength="77" x="1078.2" y="177.0352">ExplicitGroup</text><line style="stroke: #A80036; stroke-width: 1.5;" x1="1023.25" x2="1179.25" y1="188.5" y2="188.5"/><line style="stroke: #A80036; stroke-width: 1.5;" x1="1023.25" x2="1179.25" y1="196.5" y2="196.5"/><text fill="#000000" font-family="sans-serif" font-size="11" lengthAdjust="spacingAndGlyphs" textLength="126" x="1028.25" y="211.1348">void add(RoleAssignee)</text><text fill="#000000" font-family="sans-serif" font-size="11" lengthAdjust="spacingAndGlyphs" textLength="146" x="1028.25" y="224.0898">void remove(RoleAssignee)</text><text fill="#000000" font-family="sans-serif" font-size="11" lengthAdjust="spacingAndGlyphs" textLength="125" x="1028.25" y="237.0449">List getRoleAssignees()</text><rect fill="#FEFECE" filter="url(#f1)" height="86.8652" style="stroke: #A80036; stroke-width: 1.5;" width="145" x="1029" y="8.5"/><ellipse cx="1079.25" cy="24.5" fill="#B4A7E5" rx="11" ry="11" style="stroke: #A80036; stroke-width: 1.0;"/><path d="M1075.1777,20.2651 L1075.1777,18.1069 L1082.5571,18.1069 L1082.5571,20.2651 L1080.0918,20.2651 L1080.0918,28.3418 L1082.5571,28.3418 L1082.5571,30.5 L1075.1777,30.5 L1075.1777,28.3418 L1077.6431,28.3418 L1077.6431,20.2651 Z "/><text fill="#000000" font-family="sans-serif" font-size="12" font-style="italic" lengthAdjust="spacingAndGlyphs" textLength="36" x="1099.75" y="29.0352">Group</text><line style="stroke: #A80036; stroke-width: 1.5;" x1="1030" x2="1173" y1="40.5" y2="40.5"/><text fill="#000000" font-family="sans-serif" font-size="11" lengthAdjust="spacingAndGlyphs" textLength="64" x="1035" y="55.1348">String name</text><text fill="#000000" font-family="sans-serif" font-size="11" lengthAdjust="spacingAndGlyphs" textLength="96" x="1035" y="68.0898">String description</text><text fill="#000000" font-family="sans-serif" font-size="11" lengthAdjust="spacingAndGlyphs" textLength="133" x="1035" y="81.0449">Collection roleAssignees</text><line style="stroke: #A80036; stroke-width: 1.5;" x1="1030" x2="1173" y1="87.3652" y2="87.3652"/><rect fill="#FEFECE" filter="url(#f1)" height="60.9551" style="stroke: #A80036; stroke-width: 1.5;" width="124" x="1601.25" y="21.5"/><ellipse cx="1622.1" cy="37.5" fill="#B4A7E5" rx="11" ry="11" style="stroke: #A80036; stroke-width: 1.0;"/><path d="M1618.0277,33.2651 L1618.0277,31.1069 L1625.4071,31.1069 L1625.4071,33.2651 L1622.9418,33.2651 L1622.9418,41.3418 L1625.4071,41.3418 L1625.4071,43.5 L1618.0277,43.5 L1618.0277,41.3418 L1620.4931,41.3418 L1620.4931,33.2651 Z "/><text fill="#000000" font-family="sans-serif" font-size="12" font-style="italic" lengthAdjust="spacingAndGlyphs" textLength="79" x="1637.4" y="42.0352">GroupCreator</text><line style="stroke: #A80036; stroke-width: 1.5;" x1="1602.25" x2="1724.25" y1="53.5" y2="53.5"/><line style="stroke: #A80036; stroke-width: 1.5;" x1="1602.25" x2="1724.25" y1="61.5" y2="61.5"/><text fill="#000000" font-family="sans-serif" font-size="11" lengthAdjust="spacingAndGlyphs" textLength="112" x="1607.25" y="76.1348">Group createGroup()</text><rect fill="#FEFECE" filter="url(#f1)" height="48" style="stroke: #A80036; stroke-width: 1.5;" width="91" x="604" y="176"/><ellipse cx="619" cy="192" fill="#ADD1B2" rx="11" ry="11" style="stroke: #A80036; stroke-width: 1.0;"/><path d="M621.9731,197.6431 Q621.3921,197.9419 620.7529,198.0913 Q620.1138,198.2407 619.4082,198.2407 Q616.9014,198.2407 615.5815,196.5889 Q614.2617,194.937 614.2617,191.8159 Q614.2617,188.6865 615.5815,187.0347 Q616.9014,185.3828 619.4082,185.3828 Q620.1138,185.3828 620.7612,185.5322 Q621.4087,185.6816 621.9731,185.9805 L621.9731,188.7031 Q621.3423,188.1221 620.7488,187.8523 Q620.1553,187.5825 619.5244,187.5825 Q618.1797,187.5825 617.4949,188.6492 Q616.8101,189.7158 616.8101,191.8159 Q616.8101,193.9077 617.4949,194.9744 Q618.1797,196.041 619.5244,196.041 Q620.1553,196.041 620.7488,195.7712 Q621.3423,195.5015 621.9731,194.9204 Z "/><text fill="#000000" font-family="sans-serif" font-size="12" lengthAdjust="spacingAndGlyphs" textLength="59" x="633" y="196.5352">GuestUser</text><line style="stroke: #A80036; stroke-width: 1.5;" x1="605" x2="694" y1="208" y2="208"/><line style="stroke: #A80036; stroke-width: 1.5;" x1="605" x2="694" y1="216" y2="216"/><rect fill="#FEFECE" filter="url(#f1)" height="48" style="stroke: #A80036; stroke-width: 1.5;" width="79" x="1216" y="176"/><ellipse cx="1231" cy="192" fill="#ADD1B2" rx="11" ry="11" style="stroke: #A80036; stroke-width: 1.0;"/><path d="M1233.9731,197.6431 Q1233.3921,197.9419 1232.7529,198.0913 Q1232.1138,198.2407 1231.4082,198.2407 Q1228.9014,198.2407 1227.5815,196.5889 Q1226.2617,194.937 1226.2617,191.8159 Q1226.2617,188.6865 1227.5815,187.0347 Q1228.9014,185.3828 1231.4082,185.3828 Q1232.1138,185.3828 1232.7612,185.5322 Q1233.4087,185.6816 1233.9731,185.9805 L1233.9731,188.7031 Q1233.3423,188.1221 1232.7488,187.8523 Q1232.1553,187.5825 1231.5244,187.5825 Q1230.1797,187.5825 1229.4949,188.6492 Q1228.8101,189.7158 1228.8101,191.8159 Q1228.8101,193.9077 1229.4949,194.9744 Q1230.1797,196.041 1231.5244,196.041 Q1232.1553,196.041 1232.7488,195.7712 Q1233.3423,195.5015 1233.9731,194.9204 Z "/><text fill="#000000" font-family="sans-serif" font-size="12" lengthAdjust="spacingAndGlyphs" textLength="47" x="1245" y="196.5352">IpGroup</text><line style="stroke: #A80036; stroke-width: 1.5;" x1="1217" x2="1294" y1="208" y2="208"/><line style="stroke: #A80036; stroke-width: 1.5;" x1="1217" x2="1294" y1="216" y2="216"/><rect fill="#FEFECE" filter="url(#f1)" height="86.8652" style="stroke: #A80036; stroke-width: 1.5;" width="216" x="1509.25" y="156.5"/><ellipse cx="1535.95" cy="172.5" fill="#ADD1B2" rx="11" ry="11" style="stroke: #A80036; stroke-width: 1.0;"/><path d="M1538.9231,178.1431 Q1538.3421,178.4419 1537.7029,178.5913 Q1537.0638,178.7407 1536.3582,178.7407 Q1533.8514,178.7407 1532.5315,177.0889 Q1531.2117,175.437 1531.2117,172.3159 Q1531.2117,169.1865 1532.5315,167.5347 Q1533.8514,165.8828 1536.3582,165.8828 Q1537.0638,165.8828 1537.7112,166.0322 Q1538.3587,166.1816 1538.9231,166.4805 L1538.9231,169.2031 Q1538.2923,168.6221 1537.6988,168.3523 Q1537.1053,168.0825 1536.4744,168.0825 Q1535.1297,168.0825 1534.4449,169.1492 Q1533.7601,170.2158 1533.7601,172.3159 Q1533.7601,174.4077 1534.4449,175.4744 Q1535.1297,176.541 1536.4744,176.541 Q1537.1053,176.541 1537.6988,176.2712 Q1538.2923,176.0015 1538.9231,175.4204 Z "/><text fill="#000000" font-family="sans-serif" font-size="12" lengthAdjust="spacingAndGlyphs" textLength="158" x="1552.55" y="177.0352">LocalAuthenticationProvider</text><line style="stroke: #A80036; stroke-width: 1.5;" x1="1510.25" x2="1724.25" y1="188.5" y2="188.5"/><line style="stroke: #A80036; stroke-width: 1.5;" x1="1510.25" x2="1724.25" y1="196.5" y2="196.5"/><text fill="#000000" font-family="sans-serif" font-size="11" lengthAdjust="spacingAndGlyphs" textLength="204" x="1515.25" y="211.1348">RoleAssignee getRoleAssignee(String)</text><text fill="#000000" font-family="sans-serif" font-size="11" lengthAdjust="spacingAndGlyphs" textLength="77" x="1515.25" y="224.0898">List listUsers()</text><text fill="#000000" font-family="sans-serif" font-size="11" lengthAdjust="spacingAndGlyphs" textLength="112" x="1515.25" y="237.0449">Group createGroup()</text><rect fill="#FEFECE" filter="url(#f1)" height="86.8652" style="stroke: #A80036; stroke-width: 1.5;" width="121" x="6" y="156.5"/><ellipse cx="26.85" cy="172.5" fill="#B4A7E5" rx="11" ry="11" style="stroke: #A80036; stroke-width: 1.0;"/><path d="M22.7777,168.2651 L22.7777,166.1069 L30.1571,166.1069 L30.1571,168.2651 L27.6918,168.2651 L27.6918,176.3418 L30.1571,176.3418 L30.1571,178.5 L22.7777,178.5 L22.7777,176.3418 L25.2431,176.3418 L25.2431,168.2651 Z "/><text fill="#000000" font-family="sans-serif" font-size="12" font-style="italic" lengthAdjust="spacingAndGlyphs" textLength="76" x="42.15" y="177.0352">RoleAssignee</text><line style="stroke: #A80036; stroke-width: 1.5;" x1="7" x2="126" y1="188.5" y2="188.5"/><text fill="#000000" font-family="sans-serif" font-size="11" lengthAdjust="spacingAndGlyphs" textLength="83" x="12" y="203.1348">String identifier</text><text fill="#000000" font-family="sans-serif" font-size="11" lengthAdjust="spacingAndGlyphs" textLength="109" x="12" y="216.0898">boolean showInLists</text><line style="stroke: #A80036; stroke-width: 1.5;" x1="7" x2="126" y1="222.4102" y2="222.4102"/><text fill="#000000" font-family="sans-serif" font-size="11" lengthAdjust="spacingAndGlyphs" textLength="102" x="12" y="237.0449">String displayInfo()</text><rect fill="#FEFECE" filter="url(#f1)" height="73.9102" style="stroke: #A80036; stroke-width: 1.5;" width="216" x="1760.25" y="163"/><ellipse cx="1789.2" cy="179" fill="#ADD1B2" rx="11" ry="11" style="stroke: #A80036; stroke-width: 1.0;"/><path d="M1792.1731,184.6431 Q1791.5921,184.9419 1790.9529,185.0913 Q1790.3138,185.2407 1789.6082,185.2407 Q1787.1014,185.2407 1785.7815,183.5889 Q1784.4617,181.937 1784.4617,178.8159 Q1784.4617,175.6865 1785.7815,174.0347 Q1787.1014,172.3828 1789.6082,172.3828 Q1790.3138,172.3828 1790.9612,172.5322 Q1791.6087,172.6816 1792.1731,172.9805 L1792.1731,175.7031 Q1791.5423,175.1221 1790.9488,174.8523 Q1790.3553,174.5825 1789.7244,174.5825 Q1788.3797,174.5825 1787.6949,175.6492 Q1787.0101,176.7158 1787.0101,178.8159 Q1787.0101,180.9077 1787.6949,181.9744 Q1788.3797,183.041 1789.7244,183.041 Q1790.3553,183.041 1790.9488,182.7712 Q1791.5423,182.5015 1792.1731,181.9204 Z "/><text fill="#000000" font-family="sans-serif" font-size="12" lengthAdjust="spacingAndGlyphs" textLength="153" x="1806.3" y="183.5352">ShibAuthenticationProvider</text><line style="stroke: #A80036; stroke-width: 1.5;" x1="1761.25" x2="1975.25" y1="195" y2="195"/><line style="stroke: #A80036; stroke-width: 1.5;" x1="1761.25" x2="1975.25" y1="203" y2="203"/><text fill="#000000" font-family="sans-serif" font-size="11" lengthAdjust="spacingAndGlyphs" textLength="204" x="1766.25" y="217.6348">RoleAssignee getRoleAssignee(String)</text><text fill="#000000" font-family="sans-serif" font-size="11" lengthAdjust="spacingAndGlyphs" textLength="112" x="1766.25" y="230.5898">Group createGroup()</text><rect fill="#FEFECE" filter="url(#f1)" height="60.9551" style="stroke: #A80036; stroke-width: 1.5;" width="144" x="1330.25" y="169.5"/><ellipse cx="1368.65" cy="185.5" fill="#ADD1B2" rx="11" ry="11" style="stroke: #A80036; stroke-width: 1.0;"/><path d="M1371.6231,191.1431 Q1371.0421,191.4419 1370.4029,191.5913 Q1369.7638,191.7407 1369.0582,191.7407 Q1366.5514,191.7407 1365.2315,190.0889 Q1363.9117,188.437 1363.9117,185.3159 Q1363.9117,182.1865 1365.2315,180.5347 Q1366.5514,178.8828 1369.0582,178.8828 Q1369.7638,178.8828 1370.4112,179.0322 Q1371.0587,179.1816 1371.6231,179.4805 L1371.6231,182.2031 Q1370.9923,181.6221 1370.3988,181.3523 Q1369.8053,181.0825 1369.1744,181.0825 Q1367.8297,181.0825 1367.1449,182.1492 Q1366.4601,183.2158 1366.4601,185.3159 Q1366.4601,187.4077 1367.1449,188.4744 Q1367.8297,189.541 1369.1744,189.541 Q1369.8053,189.541 1370.3988,189.2712 Q1370.9923,189.0015 1371.6231,188.4204 Z "/><text fill="#000000" font-family="sans-serif" font-size="12" lengthAdjust="spacingAndGlyphs" textLength="60" x="1387.85" y="190.0352">ShibGroup</text><line style="stroke: #A80036; stroke-width: 1.5;" x1="1331.25" x2="1473.25" y1="201.5" y2="201.5"/><line style="stroke: #A80036; stroke-width: 1.5;" x1="1331.25" x2="1473.25" y1="209.5" y2="209.5"/><text fill="#000000" font-family="sans-serif" font-size="11" lengthAdjust="spacingAndGlyphs" textLength="132" x="1336.25" y="224.1348">Map getHeaderMatches()</text><rect fill="#FEFECE" filter="url(#f1)" height="48" style="stroke: #A80036; stroke-width: 1.5;" width="58" x="607.25" y="28"/><ellipse cx="622.25" cy="44" fill="#B4A7E5" rx="11" ry="11" style="stroke: #A80036; stroke-width: 1.0;"/><path d="M618.1777,39.7651 L618.1777,37.6069 L625.5571,37.6069 L625.5571,39.7651 L623.0918,39.7651 L623.0918,47.8418 L625.5571,47.8418 L625.5571,50 L618.1777,50 L618.1777,47.8418 L620.6431,47.8418 L620.6431,39.7651 Z "/><text fill="#000000" font-family="sans-serif" font-size="12" font-style="italic" lengthAdjust="spacingAndGlyphs" textLength="26" x="636.25" y="48.5352">User</text><line style="stroke: #A80036; stroke-width: 1.5;" x1="608.25" x2="664.25" y1="60" y2="60"/><line style="stroke: #A80036; stroke-width: 1.5;" x1="608.25" x2="664.25" y1="68" y2="68"/><rect fill="#FEFECE" filter="url(#f1)" height="60.9551" style="stroke: #A80036; stroke-width: 1.5;" width="89" x="1477" y="21.5"/><ellipse cx="1492" cy="37.5" fill="#B4A7E5" rx="11" ry="11" style="stroke: #A80036; stroke-width: 1.0;"/><path d="M1487.9277,33.2651 L1487.9277,31.1069 L1495.3071,31.1069 L1495.3071,33.2651 L1492.8418,33.2651 L1492.8418,41.3418 L1495.3071,41.3418 L1495.3071,43.5 L1487.9277,43.5 L1487.9277,41.3418 L1490.3931,41.3418 L1490.3931,33.2651 Z "/><text fill="#000000" font-family="sans-serif" font-size="12" font-style="italic" lengthAdjust="spacingAndGlyphs" textLength="57" x="1506" y="42.0352">UserLister</text><line style="stroke: #A80036; stroke-width: 1.5;" x1="1478" x2="1565" y1="53.5" y2="53.5"/><line style="stroke: #A80036; stroke-width: 1.5;" x1="1478" x2="1565" y1="61.5" y2="61.5"/><text fill="#000000" font-family="sans-serif" font-size="11" lengthAdjust="spacingAndGlyphs" textLength="77" x="1483" y="76.1348">List listUsers()</text><path d="M1799.92,92.748 C1765.96,112.498 1724.91,136.377 1690.33,156.4918 " fill="none" style="stroke: #A80036; stroke-width: 1.0; stroke-dasharray: 7.0,7.0;"/><polygon fill="none" points="1796.65,86.551,1817.46,82.545,1803.69,98.652,1796.65,86.551" style="stroke: #A80036; stroke-width: 1.0;"/><path d="M1551.79,99.442 C1563.81,117.734 1577.54,138.602 1589.3,156.4918 " fill="none" style="stroke: #A80036; stroke-width: 1.0; stroke-dasharray: 7.0,7.0;"/><polygon fill="none" points="1545.82,103.102,1540.68,82.545,1557.51,95.411,1545.82,103.102" style="stroke: #A80036; stroke-width: 1.0;"/><path d="M1647.9,101.729 C1642.31,119.459 1636.05,139.344 1630.64,156.4918 " fill="none" style="stroke: #A80036; stroke-width: 1.0; stroke-dasharray: 7.0,7.0;"/><polygon fill="none" points="1641.25,99.517,1653.94,82.545,1654.61,103.724,1641.25,99.517" style="stroke: #A80036; stroke-width: 1.0;"/><path d="M1009.87,79.879 C954.928,97.811 884.58,123.957 826.25,156 C816.037,161.6102 805.64,168.898 796.569,175.8749 " fill="none" style="stroke: #A80036; stroke-width: 1.0; stroke-dasharray: 7.0,7.0;"/><polygon fill="none" points="1007.81,73.19,1028.99,73.766,1012.07,86.525,1007.81,73.19" style="stroke: #A80036; stroke-width: 1.0;"/><path d="M1868.25,102.632 C1868.25,122.353 1868.25,144.6185 1868.25,162.7753 " fill="none" style="stroke: #A80036; stroke-width: 1.0; stroke-dasharray: 7.0,7.0;"/><polygon fill="none" points="1861.25,102.545,1868.25,82.545,1875.25,102.545,1861.25,102.545" style="stroke: #A80036; stroke-width: 1.0;"/><path d="M1721.26,94.312 C1751.53,115.873 1788.23,142.011 1817.39,162.7753 " fill="none" style="stroke: #A80036; stroke-width: 1.0; stroke-dasharray: 7.0,7.0;"/><polygon fill="none" points="1716.96,99.849,1704.73,82.545,1725.09,88.446,1716.96,99.849" style="stroke: #A80036; stroke-width: 1.0;"/><path d="M1160.9,109.547 C1185.13,132.527 1211.8,157.8029 1230.58,175.6071 " fill="none" style="stroke: #A80036; stroke-width: 1.0; stroke-dasharray: 7.0,7.0;"/><polygon fill="none" points="1155.91,114.462,1146.21,95.622,1165.54,104.302,1155.91,114.462" style="stroke: #A80036; stroke-width: 1.0;"/><path d="M1030.81,108.29 C1001,131.691 967.896,157.6758 944.787,175.8148 " fill="none" style="stroke: #A80036; stroke-width: 1.0; stroke-dasharray: 7.0,7.0;"/><polygon fill="none" points="1026.9,102.464,1046.95,95.622,1035.54,113.477,1026.9,102.464" style="stroke: #A80036; stroke-width: 1.0;"/><path d="M1192.02,97.027 C1240.23,120.413 1298.21,148.5361 1341.06,169.3193 " fill="none" style="stroke: #A80036; stroke-width: 1.0; stroke-dasharray: 7.0,7.0;"/><polygon fill="none" points="1188.67,103.183,1173.73,88.156,1194.78,90.587,1188.67,103.183" style="stroke: #A80036; stroke-width: 1.0;"/><path d="M600.969,90.875 C575.865,117.825 542.95,153.1606 521.699,175.9741 " fill="none" style="stroke: #A80036; stroke-width: 1.0; stroke-dasharray: 7.0,7.0;"/><polygon fill="none" points="595.946,85.997,614.7,76.134,606.19,95.54,595.946,85.997" style="stroke: #A80036; stroke-width: 1.0;"/><path d="M500.25,76.134 C500.25,101.764 500.25,143.102 500.25,170.6558 " fill="none" style="stroke: #A80036; stroke-width: 1.0;"/><polygon fill="#A80036" points="500.25,175.9741,504.25,166.9741,500.25,170.9741,496.25,166.9741,500.25,175.9741" style="stroke: #A80036; stroke-width: 1.0;"/><text fill="#000000" font-family="sans-serif" font-size="13" lengthAdjust="spacingAndGlyphs" textLength="8" x="490.0359" y="165.0568">1</text><path d="M1101.25,115.765 C1101.25,129.454 1101.25,143.634 1101.25,156.3253 " fill="none" style="stroke: #A80036; stroke-width: 1.0; stroke-dasharray: 7.0,7.0;"/><polygon fill="none" points="1094.25,115.622,1101.25,95.622,1108.25,115.622,1094.25,115.622" style="stroke: #A80036; stroke-width: 1.0;"/><path d="M640.102,96.266 C642.429,122.395 645.301,154.6531 647.2,175.9741 " fill="none" style="stroke: #A80036; stroke-width: 1.0; stroke-dasharray: 7.0,7.0;"/><polygon fill="none" points="633.111,96.676,638.31,76.134,647.056,95.434,633.111,96.676" style="stroke: #A80036; stroke-width: 1.0;"/></g></svg>