<?xml version="1.0" encoding="UTF-8" standalone="yes"?><svg xmlns="http://www.w3.org/2000/svg" xmlns:xlink="http://www.w3.org/1999/xlink" height="252pt" style="width:1683px;height:252px;" version="1.1" viewBox="0 0 1683 252" width="1683pt"><defs><filter height="300%" id="f1" width="300%" x="-1" y="-1"><feGaussianBlur result="blurOut" stdDeviation="2.0"/><feColorMatrix in="blurOut" result="blurOut2" type="matrix" values="0 0 0 0 0 0 0 0 0 0 0 0 0 0 0 0 0 0 .4 0"/><feOffset dx="4.0" dy="4.0" in="blurOut2" result="blurOut3"/><feBlend in="SourceGraphic" in2="blurOut3" mode="normal"/></filter></defs><g><rect fill="#FEFECE" filter="url(#f1)" height="48" style="stroke: #A80036; stroke-width: 1.5;" width="118" x="441.25" y="28"/><ellipse cx="456.25" cy="44" fill="#ADD1B2" rx="11" ry="11" style="stroke: #A80036; stroke-width: 1.0;"/><path d="M459.2231,49.6431 Q458.6421,49.9419 458.0029,50.0913 Q457.3638,50.2407 456.6582,50.2407 Q454.1514,50.2407 452.8315,48.5889 Q451.5117,46.937 451.5117,43.8159 Q451.5117,40.6865 452.8315,39.0347 Q454.1514,37.3828 456.6582,37.3828 Q457.3638,37.3828 458.0112,37.5322 Q458.6587,37.6816 459.2231,37.9805 L459.2231,40.7031 Q458.5923,40.1221 457.9988,39.8523 Q457.4053,39.5825 456.7744,39.5825 Q455.4297,39.5825 454.7449,40.6492 Q454.0601,41.7158 454.0601,43.8159 Q454.0601,45.9077 454.7449,46.9744 Q455.4297,48.041 456.7744,48.041 Q457.4053,48.041 457.9988,47.7712 Q458.5923,47.5015 459.2231,46.9204 Z "/><text fill="#000000" font-family="sans-serif" font-size="12" lengthAdjust="spacingAndGlyphs" textLength="86" x="470.25" y="48.5352">AccessRequest</text><line style="stroke: #A80036; stroke-width: 1.5;" x1="442.25" x2="558.25" y1="60" y2="60"/><line style="stroke: #A80036; stroke-width: 1.5;" x1="442.25" x2="558.25" y1="68" y2="68"/><rect fill="#FEFECE" filter="url(#f1)" height="73.9102" style="stroke: #A80036; stroke-width: 1.5;" width="95" x="19" y="15"/><ellipse cx="44.35" cy="31" fill="#ADD1B2" rx="11" ry="11" style="stroke: #A80036; stroke-width: 1.0;"/><path d="M47.3231,36.6431 Q46.7421,36.9419 46.1029,37.0913 Q45.4638,37.2407 44.7582,37.2407 Q42.2514,37.2407 40.9315,35.5889 Q39.6117,33.937 39.6117,30.8159 Q39.6117,27.6865 40.9315,26.0347 Q42.2514,24.3828 44.7582,24.3828 Q45.4638,24.3828 46.1112,24.5322 Q46.7587,24.6816 47.3231,24.9805 L47.3231,27.7031 Q46.6923,27.1221 46.0988,26.8523 Q45.5053,26.5825 44.8744,26.5825 Q43.5297,26.5825 42.8449,27.6492 Q42.1601,28.7158 42.1601,30.8159 Q42.1601,32.9077 42.8449,33.9744 Q43.5297,35.041 44.8744,35.041 Q45.5053,35.041 46.0988,34.7712 Q46.6923,34.5015 47.3231,33.9204 Z "/><text fill="#000000" font-family="sans-serif" font-size="12" lengthAdjust="spacingAndGlyphs" textLength="40" x="60.65" y="35.5352">ApiKey</text><line style="stroke: #A80036; stroke-width: 1.5;" x1="20" x2="113" y1="47" y2="47"/><line style="stroke: #A80036; stroke-width: 1.5;" x1="20" x2="113" y1="55" y2="55"/><text fill="#000000" font-family="sans-serif" font-size="11" lengthAdjust="spacingAndGlyphs" textLength="79" x="25" y="69.6348">String getKey()</text><text fill="#000000" font-family="sans-serif" font-size="11" lengthAdjust="spacingAndGlyphs" textLength="83" x="25" y="82.5898">String getTitle()</text><rect fill="#FEFECE" filter="url(#f1)" height="48" style="stroke: #A80036; stroke-width: 1.5;" width="137" x="490" y="176"/><ellipse cx="505" cy="192" fill="#ADD1B2" rx="11" ry="11" style="stroke: #A80036; stroke-width: 1.0;"/><path d="M507.9731,197.6431 Q507.3921,197.9419 506.7529,198.0913 Q506.1138,198.2407 505.4082,198.2407 Q502.9014,198.2407 501.5815,196.5889 Q500.2617,194.937 500.2617,191.8159 Q500.2617,188.6865 501.5815,187.0347 Q502.9014,185.3828 505.4082,185.3828 Q506.1138,185.3828 506.7612,185.5322 Q507.4087,185.6816 507.9731,185.9805 L507.9731,188.7031 Q507.3423,188.1221 506.7488,187.8523 Q506.1553,187.5825 505.5244,187.5825 Q504.1797,187.5825 503.4949,188.6492 Q502.8101,189.7158 502.8101,191.8159 Q502.8101,193.9077 503.4949,194.9744 Q504.1797,196.041 505.5244,196.041 Q506.1553,196.041 506.7488,195.7712 Q507.3423,195.5015 507.9731,194.9204 Z "/><text fill="#000000" font-family="sans-serif" font-size="12" lengthAdjust="spacingAndGlyphs" textLength="105" x="519" y="196.5352">AuthenticatedUser</text><line style="stroke: #A80036; stroke-width: 1.5;" x1="491" x2="626" y1="208" y2="208"/><line style="stroke: #A80036; stroke-width: 1.5;" x1="491" x2="626" y1="216" y2="216"/><rect fill="#FEFECE" filter="url(#f1)" height="73.9102" style="stroke: #A80036; stroke-width: 1.5;" width="257" x="149" y="15"/><ellipse cx="207.75" cy="31" fill="#B4A7E5" rx="11" ry="11" style="stroke: #A80036; stroke-width: 1.0;"/><path d="M203.6777,26.7651 L203.6777,24.6069 L211.0571,24.6069 L211.0571,26.7651 L208.5918,26.7651 L208.5918,34.8418 L211.0571,34.8418 L211.0571,37 L203.6777,37 L203.6777,34.8418 L206.1431,34.8418 L206.1431,26.7651 Z "/><text fill="#000000" font-family="sans-serif" font-size="12" font-style="italic" lengthAdjust="spacingAndGlyphs" textLength="131" x="228.25" y="35.5352">AuthenticationManager</text><line style="stroke: #A80036; stroke-width: 1.5;" x1="150" x2="405" y1="47" y2="47"/><text fill="#000000" font-family="sans-serif" font-size="11" lengthAdjust="spacingAndGlyphs" textLength="185" x="155" y="61.6348">Collection authenticationProviders</text><line style="stroke: #A80036; stroke-width: 1.5;" x1="150" x2="405" y1="67.9551" y2="67.9551"/><text fill="#000000" font-family="sans-serif" font-size="11" lengthAdjust="spacingAndGlyphs" textLength="245" x="155" y="82.5898">void registerProvider(AuthenticationProvider)</text><rect fill="#FEFECE" filter="url(#f1)" height="60.9551" style="stroke: #A80036; stroke-width: 1.5;" width="216" x="971.25" y="21.5"/><ellipse cx="1011" cy="37.5" fill="#B4A7E5" rx="11" ry="11" style="stroke: #A80036; stroke-width: 1.0;"/><path d="M1006.9277,33.2651 L1006.9277,31.1069 L1014.3071,31.1069 L1014.3071,33.2651 L1011.8418,33.2651 L1011.8418,41.3418 L1014.3071,41.3418 L1014.3071,43.5 L1006.9277,43.5 L1006.9277,41.3418 L1009.3931,41.3418 L1009.3931,33.2651 Z "/><text fill="#000000" font-family="sans-serif" font-size="12" font-style="italic" lengthAdjust="spacingAndGlyphs" textLength="129" x="1030.5" y="42.0352">AuthenticationProvider</text><line style="stroke: #A80036; stroke-width: 1.5;" x1="972.25" x2="1186.25" y1="53.5" y2="53.5"/><line style="stroke: #A80036; stroke-width: 1.5;" x1="972.25" x2="1186.25" y1="61.5" y2="61.5"/><text fill="#000000" font-family="sans-serif" font-size="11" lengthAdjust="spacingAndGlyphs" textLength="204" x="977.25" y="76.1348">RoleAssignee getRoleAssignee(String)</text><rect fill="#FEFECE" filter="url(#f1)" height="86.8652" style="stroke: #A80036; stroke-width: 1.5;" width="158" x="1222.25" y="156.5"/><ellipse cx="1259.3" cy="172.5" fill="#ADD1B2" rx="11" ry="11" style="stroke: #A80036; stroke-width: 1.0;"/><path d="M1262.2731,178.1431 Q1261.6921,178.4419 1261.0529,178.5913 Q1260.4138,178.7407 1259.7082,178.7407 Q1257.2014,178.7407 1255.8815,177.0889 Q1254.5617,175.437 1254.5617,172.3159 Q1254.5617,169.1865 1255.8815,167.5347 Q1257.2014,165.8828 1259.7082,165.8828 Q1260.4138,165.8828 1261.0612,166.0322 Q1261.7087,166.1816 1262.2731,166.4805 L1262.2731,169.2031 Q1261.6423,168.6221 1261.0488,168.3523 Q1260.4553,168.0825 1259.8244,168.0825 Q1258.4797,168.0825 1257.7949,169.1492 Q1257.1101,170.2158 1257.1101,172.3159 Q1257.1101,174.4077 1257.7949,175.4744 Q1258.4797,176.541 1259.8244,176.541 Q1260.4553,176.541 1261.0488,176.2712 Q1261.6423,176.0015 1262.2731,175.4204 Z "/><text fill="#000000" font-family="sans-serif" font-size="12" lengthAdjust="spacingAndGlyphs" textLength="77" x="1278.2" y="177.0352">ExplicitGroup</text><line style="stroke: #A80036; stroke-width: 1.5;" x1="1223.25" x2="1379.25" y1="188.5" y2="188.5"/><line style="stroke: #A80036; stroke-width: 1.5;" x1="1223.25" x2="1379.25" y1="196.5" y2="196.5"/><text fill="#000000" font-family="sans-serif" font-size="11" lengthAdjust="spacingAndGlyphs" textLength="126" x="1228.25" y="211.1348">void add(RoleAssignee)</text><text fill="#000000" font-family="sans-serif" font-size="11" lengthAdjust="spacingAndGlyphs" textLength="146" x="1228.25" y="224.0898">void remove(RoleAssignee)</text><text fill="#000000" font-family="sans-serif" font-size="11" lengthAdjust="spacingAndGlyphs" textLength="125" x="1228.25" y="237.0449">List getRoleAssignees()</text><rect fill="#FEFECE" filter="url(#f1)" height="86.8652" style="stroke: #A80036; stroke-width: 1.5;" width="145" x="1383" y="8.5"/><ellipse cx="1433.25" cy="24.5" fill="#B4A7E5" rx="11" ry="11" style="stroke: #A80036; stroke-width: 1.0;"/><path d="M1429.1777,20.2651 L1429.1777,18.1069 L1436.5571,18.1069 L1436.5571,20.2651 L1434.0918,20.2651 L1434.0918,28.3418 L1436.5571,28.3418 L1436.5571,30.5 L1429.1777,30.5 L1429.1777,28.3418 L1431.6431,28.3418 L1431.6431,20.2651 Z "/><text fill="#000000" font-family="sans-serif" font-size="12" font-style="italic" lengthAdjust="spacingAndGlyphs" textLength="36" x="1453.75" y="29.0352">Group</text><line style="stroke: #A80036; stroke-width: 1.5;" x1="1384" x2="1527" y1="40.5" y2="40.5"/><text fill="#000000" font-family="sans-serif" font-size="11" lengthAdjust="spacingAndGlyphs" textLength="64" x="1389" y="55.1348">String name</text><text fill="#000000" font-family="sans-serif" font-size="11" lengthAdjust="spacingAndGlyphs" textLength="96" x="1389" y="68.0898">String description</text><text fill="#000000" font-family="sans-serif" font-size="11" lengthAdjust="spacingAndGlyphs" textLength="133" x="1389" y="81.0449">Collection roleAssignees</text><line style="stroke: #A80036; stroke-width: 1.5;" x1="1384" x2="1527" y1="87.3652" y2="87.3652"/><rect fill="#FEFECE" filter="url(#f1)" height="60.9551" style="stroke: #A80036; stroke-width: 1.5;" width="124" x="812.25" y="21.5"/><ellipse cx="833.1" cy="37.5" fill="#B4A7E5" rx="11" ry="11" style="stroke: #A80036; stroke-width: 1.0;"/><path d="M829.0277,33.2651 L829.0277,31.1069 L836.4071,31.1069 L836.4071,33.2651 L833.9418,33.2651 L833.9418,41.3418 L836.4071,41.3418 L836.4071,43.5 L829.0277,43.5 L829.0277,41.3418 L831.4931,41.3418 L831.4931,33.2651 Z "/><text fill="#000000" font-family="sans-serif" font-size="12" font-style="italic" lengthAdjust="spacingAndGlyphs" textLength="79" x="848.4" y="42.0352">GroupCreator</text><line style="stroke: #A80036; stroke-width: 1.5;" x1="813.25" x2="935.25" y1="53.5" y2="53.5"/><line style="stroke: #A80036; stroke-width: 1.5;" x1="813.25" x2="935.25" y1="61.5" y2="61.5"/><text fill="#000000" font-family="sans-serif" font-size="11" lengthAdjust="spacingAndGlyphs" textLength="112" x="818.25" y="76.1348">Group createGroup()</text><rect fill="#FEFECE" filter="url(#f1)" height="48" style="stroke: #A80036; stroke-width: 1.5;" width="79" x="1416" y="176"/><ellipse cx="1431" cy="192" fill="#ADD1B2" rx="11" ry="11" style="stroke: #A80036; stroke-width: 1.0;"/><path d="M1433.9731,197.6431 Q1433.3921,197.9419 1432.7529,198.0913 Q1432.1138,198.2407 1431.4082,198.2407 Q1428.9014,198.2407 1427.5815,196.5889 Q1426.2617,194.937 1426.2617,191.8159 Q1426.2617,188.6865 1427.5815,187.0347 Q1428.9014,185.3828 1431.4082,185.3828 Q1432.1138,185.3828 1432.7612,185.5322 Q1433.4087,185.6816 1433.9731,185.9805 L1433.9731,188.7031 Q1433.3423,188.1221 1432.7488,187.8523 Q1432.1553,187.5825 1431.5244,187.5825 Q1430.1797,187.5825 1429.4949,188.6492 Q1428.8101,189.7158 1428.8101,191.8159 Q1428.8101,193.9077 1429.4949,194.9744 Q1430.1797,196.041 1431.5244,196.041 Q1432.1553,196.041 1432.7488,195.7712 Q1433.3423,195.5015 1433.9731,194.9204 Z "/><text fill="#000000" font-family="sans-serif" font-size="12" lengthAdjust="spacingAndGlyphs" textLength="47" x="1445" y="196.5352">IpGroup</text><line style="stroke: #A80036; stroke-width: 1.5;" x1="1417" x2="1494" y1="208" y2="208"/><line style="stroke: #A80036; stroke-width: 1.5;" x1="1417" x2="1494" y1="216" y2="216"/><rect fill="#FEFECE" filter="url(#f1)" height="86.8652" style="stroke: #A80036; stroke-width: 1.5;" width="216" x="720.25" y="156.5"/><ellipse cx="746.95" cy="172.5" fill="#ADD1B2" rx="11" ry="11" style="stroke: #A80036; stroke-width: 1.0;"/><path d="M749.9231,178.1431 Q749.3421,178.4419 748.7029,178.5913 Q748.0638,178.7407 747.3582,178.7407 Q744.8514,178.7407 743.5315,177.0889 Q742.2117,175.437 742.2117,172.3159 Q742.2117,169.1865 743.5315,167.5347 Q744.8514,165.8828 747.3582,165.8828 Q748.0638,165.8828 748.7112,166.0322 Q749.3587,166.1816 749.9231,166.4805 L749.9231,169.2031 Q749.2923,168.6221 748.6988,168.3523 Q748.1053,168.0825 747.4744,168.0825 Q746.1297,168.0825 745.4449,169.1492 Q744.7601,170.2158 744.7601,172.3159 Q744.7601,174.4077 745.4449,175.4744 Q746.1297,176.541 747.4744,176.541 Q748.1053,176.541 748.6988,176.2712 Q749.2923,176.0015 749.9231,175.4204 Z "/><text fill="#000000" font-family="sans-serif" font-size="12" lengthAdjust="spacingAndGlyphs" textLength="158" x="763.55" y="177.0352">LocalAuthenticationProvider</text><line style="stroke: #A80036; stroke-width: 1.5;" x1="721.25" x2="935.25" y1="188.5" y2="188.5"/><line style="stroke: #A80036; stroke-width: 1.5;" x1="721.25" x2="935.25" y1="196.5" y2="196.5"/><text fill="#000000" font-family="sans-serif" font-size="11" lengthAdjust="spacingAndGlyphs" textLength="204" x="726.25" y="211.1348">RoleAssignee getRoleAssignee(String)</text><text fill="#000000" font-family="sans-serif" font-size="11" lengthAdjust="spacingAndGlyphs" textLength="77" x="726.25" y="224.0898">List listUsers()</text><text fill="#000000" font-family="sans-serif" font-size="11" lengthAdjust="spacingAndGlyphs" textLength="112" x="726.25" y="237.0449">Group createGroup()</text><rect fill="#FEFECE" filter="url(#f1)" height="86.8652" style="stroke: #A80036; stroke-width: 1.5;" width="121" x="6" y="156.5"/><ellipse cx="26.85" cy="172.5" fill="#B4A7E5" rx="11" ry="11" style="stroke: #A80036; stroke-width: 1.0;"/><path d="M22.7777,168.2651 L22.7777,166.1069 L30.1571,166.1069 L30.1571,168.2651 L27.6918,168.2651 L27.6918,176.3418 L30.1571,176.3418 L30.1571,178.5 L22.7777,178.5 L22.7777,176.3418 L25.2431,176.3418 L25.2431,168.2651 Z "/><text fill="#000000" font-family="sans-serif" font-size="12" font-style="italic" lengthAdjust="spacingAndGlyphs" textLength="76" x="42.15" y="177.0352">RoleAssignee</text><line style="stroke: #A80036; stroke-width: 1.5;" x1="7" x2="126" y1="188.5" y2="188.5"/><text fill="#000000" font-family="sans-serif" font-size="11" lengthAdjust="spacingAndGlyphs" textLength="83" x="12" y="203.1348">String identifier</text><text fill="#000000" font-family="sans-serif" font-size="11" lengthAdjust="spacingAndGlyphs" textLength="109" x="12" y="216.0898">boolean showInLists</text><line style="stroke: #A80036; stroke-width: 1.5;" x1="7" x2="126" y1="222.4102" y2="222.4102"/><text fill="#000000" font-family="sans-serif" font-size="11" lengthAdjust="spacingAndGlyphs" textLength="102" x="12" y="237.0449">String displayInfo()</text><rect fill="#FEFECE" filter="url(#f1)" height="73.9102" style="stroke: #A80036; stroke-width: 1.5;" width="216" x="971.25" y="163"/><ellipse cx="1000.2" cy="179" fill="#ADD1B2" rx="11" ry="11" style="stroke: #A80036; stroke-width: 1.0;"/><path d="M1003.1731,184.6431 Q1002.5921,184.9419 1001.9529,185.0913 Q1001.3138,185.2407 1000.6082,185.2407 Q998.1014,185.2407 996.7815,183.5889 Q995.4617,181.937 995.4617,178.8159 Q995.4617,175.6865 996.7815,174.0347 Q998.1014,172.3828 1000.6082,172.3828 Q1001.3138,172.3828 1001.9612,172.5322 Q1002.6087,172.6816 1003.1731,172.9805 L1003.1731,175.7031 Q1002.5423,175.1221 1001.9488,174.8523 Q1001.3553,174.5825 1000.7244,174.5825 Q999.3797,174.5825 998.6949,175.6492 Q998.0101,176.7158 998.0101,178.8159 Q998.0101,180.9077 998.6949,181.9744 Q999.3797,183.041 1000.7244,183.041 Q1001.3553,183.041 1001.9488,182.7712 Q1002.5423,182.5015 1003.1731,181.9204 Z "/><text fill="#000000" font-family="sans-serif" font-size="12" lengthAdjust="spacingAndGlyphs" textLength="153" x="1017.3" y="183.5352">ShibAuthenticationProvider</text><line style="stroke: #A80036; stroke-width: 1.5;" x1="972.25" x2="1186.25" y1="195" y2="195"/><line style="stroke: #A80036; stroke-width: 1.5;" x1="972.25" x2="1186.25" y1="203" y2="203"/><text fill="#000000" font-family="sans-serif" font-size="11" lengthAdjust="spacingAndGlyphs" textLength="204" x="977.25" y="217.6348">RoleAssignee getRoleAssignee(String)</text><text fill="#000000" font-family="sans-serif" font-size="11" lengthAdjust="spacingAndGlyphs" textLength="112" x="977.25" y="230.5898">Group createGroup()</text><rect fill="#FEFECE" filter="url(#f1)" height="60.9551" style="stroke: #A80036; stroke-width: 1.5;" width="144" x="1530.25" y="169.5"/><ellipse cx="1568.65" cy="185.5" fill="#ADD1B2" rx="11" ry="11" style="stroke: #A80036; stroke-width: 1.0;"/><path d="M1571.6231,191.1431 Q1571.0421,191.4419 1570.4029,191.5913 Q1569.7638,191.7407 1569.0582,191.7407 Q1566.5514,191.7407 1565.2315,190.0889 Q1563.9117,188.437 1563.9117,185.3159 Q1563.9117,182.1865 1565.2315,180.5347 Q1566.5514,178.8828 1569.0582,178.8828 Q1569.7638,178.8828 1570.4112,179.0322 Q1571.0587,179.1816 1571.6231,179.4805 L1571.6231,182.2031 Q1570.9923,181.6221 1570.3988,181.3523 Q1569.8053,181.0825 1569.1744,181.0825 Q1567.8297,181.0825 1567.1449,182.1492 Q1566.4601,183.2158 1566.4601,185.3159 Q1566.4601,187.4077 1567.1449,188.4744 Q1567.8297,189.541 1569.1744,189.541 Q1569.8053,189.541 1570.3988,189.2712 Q1570.9923,189.0015 1571.6231,188.4204 Z "/><text fill="#000000" font-family="sans-serif" font-size="12" lengthAdjust="spacingAndGlyphs" textLength="60" x="1587.85" y="190.0352">ShibGroup</text><line style="stroke: #A80036; stroke-width: 1.5;" x1="1531.25" x2="1673.25" y1="201.5" y2="201.5"/><line style="stroke: #A80036; stroke-width: 1.5;" x1="1531.25" x2="1673.25" y1="209.5" y2="209.5"/><text fill="#000000" font-family="sans-serif" font-size="11" lengthAdjust="spacingAndGlyphs" textLength="132" x="1536.25" y="224.1348">Map getHeaderMatches()</text><rect fill="#FEFECE" filter="url(#f1)" height="48" style="stroke: #A80036; stroke-width: 1.5;" width="58" x="594.25" y="28"/><ellipse cx="609.25" cy="44" fill="#B4A7E5" rx="11" ry="11" style="stroke: #A80036; stroke-width: 1.0;"/><path d="M605.1777,39.7651 L605.1777,37.6069 L612.5571,37.6069 L612.5571,39.7651 L610.0918,39.7651 L610.0918,47.8418 L612.5571,47.8418 L612.5571,50 L605.1777,50 L605.1777,47.8418 L607.6431,47.8418 L607.6431,39.7651 Z "/><text fill="#000000" font-family="sans-serif" font-size="12" font-style="italic" lengthAdjust="spacingAndGlyphs" textLength="26" x="623.25" y="48.5352">User</text><line style="stroke: #A80036; stroke-width: 1.5;" x1="595.25" x2="651.25" y1="60" y2="60"/><line style="stroke: #A80036; stroke-width: 1.5;" x1="595.25" x2="651.25" y1="68" y2="68"/><rect fill="#FEFECE" filter="url(#f1)" height="60.9551" style="stroke: #A80036; stroke-width: 1.5;" width="89" x="688" y="21.5"/><ellipse cx="703" cy="37.5" fill="#B4A7E5" rx="11" ry="11" style="stroke: #A80036; stroke-width: 1.0;"/><path d="M698.9277,33.2651 L698.9277,31.1069 L706.3071,31.1069 L706.3071,33.2651 L703.8418,33.2651 L703.8418,41.3418 L706.3071,41.3418 L706.3071,43.5 L698.9277,43.5 L698.9277,41.3418 L701.3931,41.3418 L701.3931,33.2651 Z "/><text fill="#000000" font-family="sans-serif" font-size="12" font-style="italic" lengthAdjust="spacingAndGlyphs" textLength="57" x="717" y="42.0352">UserLister</text><line style="stroke: #A80036; stroke-width: 1.5;" x1="689" x2="776" y1="53.5" y2="53.5"/><line style="stroke: #A80036; stroke-width: 1.5;" x1="689" x2="776" y1="61.5" y2="61.5"/><text fill="#000000" font-family="sans-serif" font-size="11" lengthAdjust="spacingAndGlyphs" textLength="77" x="694" y="76.1348">List listUsers()</text><path d="M1455.25,115.774 C1455.25,136.998 1455.25,159.3985 1455.25,175.6071 " fill="none" style="stroke: #A80036; stroke-width: 1.0; stroke-dasharray: 7.0,7.0;"/><polygon fill="none" points="1448.25,115.622,1455.25,95.622,1462.25,115.622,1448.25,115.622" style="stroke: #A80036; stroke-width: 1.0;"/><path d="M1079.25,102.632 C1079.25,122.353 1079.25,144.6185 1079.25,162.7753 " fill="none" style="stroke: #A80036; stroke-width: 1.0; stroke-dasharray: 7.0,7.0;"/><polygon fill="none" points="1072.25,102.545,1079.25,82.545,1086.25,102.545,1072.25,102.545" style="stroke: #A80036; stroke-width: 1.0;"/><path d="M932.257,94.312 C962.531,115.873 999.231,142.011 1028.39,162.7753 " fill="none" style="stroke: #A80036; stroke-width: 1.0; stroke-dasharray: 7.0,7.0;"/><polygon fill="none" points="927.965,99.849,915.735,82.545,936.086,88.446,927.965,99.849" style="stroke: #A80036; stroke-width: 1.0;"/><path d="M509.44,76.134 C519.664,101.87 536.181,143.446 547.127,170.9995 " fill="none" style="stroke: #A80036; stroke-width: 1.0;"/><polygon fill="#A80036" points="549.103,175.9741,549.4979,166.1332,547.2571,171.3273,542.063,169.0865,549.103,175.9741" style="stroke: #A80036; stroke-width: 1.0;"/><text fill="#000000" font-family="sans-serif" font-size="13" lengthAdjust="spacingAndGlyphs" textLength="8" x="536.7737" y="165.0568">1</text><path d="M1395.63,109.526 C1379.22,125.082 1361.7,141.692 1346.26,156.3253 " fill="none" style="stroke: #A80036; stroke-width: 1.0; stroke-dasharray: 7.0,7.0;"/><polygon fill="none" points="1390.96,104.302,1410.29,95.622,1400.59,114.462,1390.96,104.302" style="stroke: #A80036; stroke-width: 1.0;"/><path d="M1512.56,109.924 C1532.89,130.116 1554.96,152.0332 1572.12,169.0748 " fill="none" style="stroke: #A80036; stroke-width: 1.0; stroke-dasharray: 7.0,7.0;"/><polygon fill="none" points="1507.42,114.682,1498.16,95.622,1517.29,104.749,1507.42,114.682" style="stroke: #A80036; stroke-width: 1.0;"/><path d="M604.682,94.706 C592.932,121.1 578.183,154.2267 568.501,175.9741 " fill="none" style="stroke: #A80036; stroke-width: 1.0; stroke-dasharray: 7.0,7.0;"/><polygon fill="none" points="598.421,91.558,612.951,76.134,611.211,97.252,598.421,91.558" style="stroke: #A80036; stroke-width: 1.0;"/><path d="M1010.92,92.748 C976.963,112.498 935.909,136.377 901.329,156.4918 " fill="none" style="stroke: #A80036; stroke-width: 1.0; stroke-dasharray: 7.0,7.0;"/><polygon fill="none" points="1007.65,86.551,1028.46,82.545,1014.69,98.652,1007.65,86.551" style="stroke: #A80036; stroke-width: 1.0;"/><path d="M762.787,99.442 C774.815,117.734 788.536,138.602 800.299,156.4918 " fill="none" style="stroke: #A80036; stroke-width: 1.0; stroke-dasharray: 7.0,7.0;"/><polygon fill="none" points="756.816,103.102,751.677,82.545,768.514,95.411,756.816,103.102" style="stroke: #A80036; stroke-width: 1.0;"/><path d="M858.897,101.729 C853.311,119.459 847.046,139.344 841.643,156.4918 " fill="none" style="stroke: #A80036; stroke-width: 1.0; stroke-dasharray: 7.0,7.0;"/><polygon fill="none" points="852.255,99.517,864.941,82.545,865.607,103.724,852.255,99.517" style="stroke: #A80036; stroke-width: 1.0;"/></g></svg>