<?xml version="1.0" encoding="UTF-8" standalone="yes"?><svg xmlns="http://www.w3.org/2000/svg" xmlns:xlink="http://www.w3.org/1999/xlink" height="165pt" style="width:266px;height:165px;" version="1.1" viewBox="0 0 266 165" width="266pt"><defs><filter height="300%" id="f1" width="300%" x="-1" y="-1"><feGaussianBlur result="blurOut" stdDeviation="2.0"/><feColorMatrix in="blurOut" result="blurOut2" type="matrix" values="0 0 0 0 0 0 0 0 0 0 0 0 0 0 0 0 0 0 .4 0"/><feOffset dx="4.0" dy="4.0" in="blurOut2" result="blurOut3"/><feBlend in="SourceGraphic" in2="blurOut3" mode="normal"/></filter></defs><g><polygon fill="#FFFFFF" filter="url(#f1)" points="6,18,16,8,116,8,116,44.4883,106,54.4883,6,54.4883,6,18" style="stroke: #A80036; stroke-width: 1.5;"/><line style="stroke: #A80036; stroke-width: 1.5;" x1="106" x2="115" y1="18" y2="9"/><line style="stroke: #A80036; stroke-width: 1.5;" x1="6" x2="106" y1="18" y2="18"/><line style="stroke: #A80036; stroke-width: 1.5;" x1="106" x2="106" y1="18" y2="54.4883"/><text fill="#000000" font-family="sans-serif" font-size="14" lengthAdjust="spacingAndGlyphs" textLength="70" x="21" y="41.5352">Glassfish1</text><polygon fill="#FFFFFF" filter="url(#f1)" points="151,18,161,8,261,8,261,44.4883,251,54.4883,151,54.4883,151,18" style="stroke: #A80036; stroke-width: 1.5;"/><line style="stroke: #A80036; stroke-width: 1.5;" x1="251" x2="260" y1="18" y2="9"/><line style="stroke: #A80036; stroke-width: 1.5;" x1="151" x2="251" y1="18" y2="18"/><line style="stroke: #A80036; stroke-width: 1.5;" x1="251" x2="251" y1="18" y2="54.4883"/><text fill="#000000" font-family="sans-serif" font-size="14" lengthAdjust="spacingAndGlyphs" textLength="70" x="166" y="41.5352">Glassfish2</text><path d="M19,126.5 C19,116.5 68,116.5 68,116.5 C68,116.5 117,116.5 117,126.5 L117,147.9883 C117,157.9883 68,157.9883 68,157.9883 C68,157.9883 19,157.9883 19,147.9883 L19,126.5 " fill="#FFFFFF" filter="url(#f1)" style="stroke: #A80036; stroke-width: 1.5;"/><path d="M19,126.5 C19,136.5 68,136.5 68,136.5 C68,136.5 117,136.5 117,126.5 " fill="none" style="stroke: #A80036; stroke-width: 1.5;"/><text fill="#000000" font-family="sans-serif" font-size="14" lengthAdjust="spacingAndGlyphs" textLength="78" x="29" y="150.0352">PostgreSQL</text><polygon fill="#FFFFFF" filter="url(#f1)" points="165.75,124,175.75,114,232.75,114,232.75,150.4883,222.75,160.4883,165.75,160.4883,165.75,124" style="stroke: #A80036; stroke-width: 1.5;"/><line style="stroke: #A80036; stroke-width: 1.5;" x1="222.75" x2="231.75" y1="124" y2="115"/><line style="stroke: #A80036; stroke-width: 1.5;" x1="165.75" x2="222.75" y1="124" y2="124"/><line style="stroke: #A80036; stroke-width: 1.5;" x1="222.75" x2="222.75" y1="124" y2="160.4883"/><text fill="#000000" font-family="sans-serif" font-size="14" lengthAdjust="spacingAndGlyphs" textLength="27" x="180.75" y="147.5352">Solr</text><path d="M62.4845,54.056 C63.612,70.8068 65.1628,93.8467 66.3328,111.2306 " fill="none" style="stroke: #A80036; stroke-width: 1.0;"/><polygon fill="#A80036" points="66.6828,116.4308,70.0692,107.1824,66.3469,111.4421,62.0873,107.7198,66.6828,116.4308" style="stroke: #A80036; stroke-width: 1.0;"/><path d="M176.734,54.056 C153.644,71.4566 121.55,95.6437 98.2174,113.2275 " fill="none" style="stroke: #A80036; stroke-width: 1.0;"/><polygon fill="#A80036" points="93.9669,116.4308,103.5618,114.2085,97.9599,113.4215,98.7469,107.8197,93.9669,116.4308" style="stroke: #A80036; stroke-width: 1.0;"/><path d="M90.2663,54.056 C112.313,70.6707 142.57,93.4729 165.569,110.806 " fill="none" style="stroke: #A80036; stroke-width: 1.0;"/><polygon fill="#A80036" points="169.776,113.9761,164.9949,105.3656,165.7826,110.9673,160.1809,111.755,169.776,113.9761" style="stroke: #A80036; stroke-width: 1.0;"/><path d="M204.515,54.056 C203.439,70.0503 201.976,91.7785 200.828,108.8418 " fill="none" style="stroke: #A80036; stroke-width: 1.0;"/><polygon fill="#A80036" points="200.482,113.9761,205.0775,105.2651,200.8179,108.9874,197.0956,104.7277,200.482,113.9761" style="stroke: #A80036; stroke-width: 1.0;"/></g></svg>