<?xml version="1.0" encoding="UTF-8" standalone="yes"?><svg xmlns="http://www.w3.org/2000/svg" xmlns:xlink="http://www.w3.org/1999/xlink" height="657pt" style="width:574px;height:657px;" version="1.1" viewBox="0 0 574 657" width="574pt"><defs><filter height="300%" id="f1" width="300%" x="-1" y="-1"><feGaussianBlur result="blurOut" stdDeviation="2.0"/><feColorMatrix in="blurOut" result="blurOut2" type="matrix" values="0 0 0 0 0 0 0 0 0 0 0 0 0 0 0 0 0 0 .4 0"/><feOffset dx="4.0" dy="4.0" in="blurOut2" result="blurOut3"/><feBlend in="SourceGraphic" in2="blurOut3" mode="normal"/></filter></defs><g><polygon fill="#FFFFFF" filter="url(#f1)" points="22,171,32,161,164,161,164,354,154,364,22,364,22,171" style="stroke: #000000; stroke-width: 2.0;"/><line style="stroke: #000000; stroke-width: 2.0;" x1="154" x2="163" y1="171" y2="162"/><line style="stroke: #000000; stroke-width: 2.0;" x1="22" x2="154" y1="171" y2="171"/><line style="stroke: #000000; stroke-width: 2.0;" x1="154" x2="154" y1="171" y2="364"/><text fill="#000000" font-family="sans-serif" font-size="14" font-weight="bold" lengthAdjust="spacingAndGlyphs" textLength="83" x="25" y="187.5352">WebServer1</text><polygon fill="#FFFFFF" filter="url(#f1)" points="188,171,198,161,330,161,330,354,320,364,188,364,188,171" style="stroke: #000000; stroke-width: 2.0;"/><line style="stroke: #000000; stroke-width: 2.0;" x1="320" x2="329" y1="171" y2="162"/><line style="stroke: #000000; stroke-width: 2.0;" x1="188" x2="320" y1="171" y2="171"/><line style="stroke: #000000; stroke-width: 2.0;" x1="320" x2="320" y1="171" y2="364"/><text fill="#000000" font-family="sans-serif" font-size="14" font-weight="bold" lengthAdjust="spacingAndGlyphs" textLength="83" x="191" y="187.5352">WebServer2</text><polygon fill="#FFFFFF" filter="url(#f1)" points="354,171,364,161,496,161,496,354,486,364,354,364,354,171" style="stroke: #000000; stroke-width: 2.0;"/><line style="stroke: #000000; stroke-width: 2.0;" x1="486" x2="495" y1="171" y2="162"/><line style="stroke: #000000; stroke-width: 2.0;" x1="354" x2="486" y1="171" y2="171"/><line style="stroke: #000000; stroke-width: 2.0;" x1="486" x2="486" y1="171" y2="364"/><text fill="#000000" font-family="sans-serif" font-size="14" font-weight="bold" lengthAdjust="spacingAndGlyphs" textLength="83" x="357" y="187.5352">WebServer3</text><polygon fill="#FFFFFF" filter="url(#f1)" points="66,406,76,396,396,396,396,494,386,504,66,504,66,406" style="stroke: #000000; stroke-width: 2.0;"/><line style="stroke: #000000; stroke-width: 2.0;" x1="386" x2="395" y1="406" y2="397"/><line style="stroke: #000000; stroke-width: 2.0;" x1="66" x2="386" y1="406" y2="406"/><line style="stroke: #000000; stroke-width: 2.0;" x1="386" x2="386" y1="406" y2="504"/><text fill="#000000" font-family="sans-serif" font-size="14" font-weight="bold" lengthAdjust="spacingAndGlyphs" textLength="119" x="69" y="422.5352">DatabaseServer1</text><polygon fill="#FFFFFF" filter="url(#f1)" points="66,554,76,544,422,544,422,642,412,652,66,652,66,554" style="stroke: #000000; stroke-width: 2.0;"/><line style="stroke: #000000; stroke-width: 2.0;" x1="412" x2="421" y1="554" y2="545"/><line style="stroke: #000000; stroke-width: 2.0;" x1="66" x2="412" y1="554" y2="554"/><line style="stroke: #000000; stroke-width: 2.0;" x1="412" x2="412" y1="554" y2="652"/><text fill="#000000" font-family="sans-serif" font-size="14" font-weight="bold" lengthAdjust="spacingAndGlyphs" textLength="119" x="69" y="570.5352">DatabaseServer2</text><polygon fill="#FFFFFF" filter="url(#f1)" points="436,406,446,396,569,396,569,494,559,504,436,504,436,406" style="stroke: #000000; stroke-width: 2.0;"/><line style="stroke: #000000; stroke-width: 2.0;" x1="559" x2="568" y1="406" y2="397"/><line style="stroke: #000000; stroke-width: 2.0;" x1="436" x2="559" y1="406" y2="406"/><line style="stroke: #000000; stroke-width: 2.0;" x1="559" x2="559" y1="406" y2="504"/><text fill="#000000" font-family="sans-serif" font-size="14" font-weight="bold" lengthAdjust="spacingAndGlyphs" textLength="101" x="439" y="422.5352">RserveServer1</text><rect fill="#FFFFFF" filter="url(#f1)" height="46.4883" style="stroke: #A80036; stroke-width: 1.5;" width="100" x="46" y="196"/><rect fill="#FFFFFF" height="10" style="stroke: #A80036; stroke-width: 1.5;" width="15" x="126" y="201"/><rect fill="#FFFFFF" height="2" style="stroke: #A80036; stroke-width: 1.5;" width="4" x="124" y="203"/><rect fill="#FFFFFF" height="2" style="stroke: #A80036; stroke-width: 1.5;" width="4" x="124" y="207"/><text fill="#000000" font-family="sans-serif" font-size="14" lengthAdjust="spacingAndGlyphs" textLength="60" x="61" y="229.5352">Apache1</text><rect fill="#FFFFFF" filter="url(#f1)" height="46.4883" style="stroke: #A80036; stroke-width: 1.5;" width="110" x="38" y="302"/><rect fill="#FFFFFF" height="10" style="stroke: #A80036; stroke-width: 1.5;" width="15" x="128" y="307"/><rect fill="#FFFFFF" height="2" style="stroke: #A80036; stroke-width: 1.5;" width="4" x="126" y="309"/><rect fill="#FFFFFF" height="2" style="stroke: #A80036; stroke-width: 1.5;" width="4" x="126" y="313"/><text fill="#000000" font-family="sans-serif" font-size="14" lengthAdjust="spacingAndGlyphs" textLength="70" x="53" y="335.5352">Glassfish1</text><rect fill="#FFFFFF" filter="url(#f1)" height="46.4883" style="stroke: #A80036; stroke-width: 1.5;" width="100" x="209" y="196"/><rect fill="#FFFFFF" height="10" style="stroke: #A80036; stroke-width: 1.5;" width="15" x="289" y="201"/><rect fill="#FFFFFF" height="2" style="stroke: #A80036; stroke-width: 1.5;" width="4" x="287" y="203"/><rect fill="#FFFFFF" height="2" style="stroke: #A80036; stroke-width: 1.5;" width="4" x="287" y="207"/><text fill="#000000" font-family="sans-serif" font-size="14" lengthAdjust="spacingAndGlyphs" textLength="60" x="224" y="229.5352">Apache2</text><rect fill="#FFFFFF" filter="url(#f1)" height="46.4883" style="stroke: #A80036; stroke-width: 1.5;" width="110" x="204" y="302"/><rect fill="#FFFFFF" height="10" style="stroke: #A80036; stroke-width: 1.5;" width="15" x="294" y="307"/><rect fill="#FFFFFF" height="2" style="stroke: #A80036; stroke-width: 1.5;" width="4" x="292" y="309"/><rect fill="#FFFFFF" height="2" style="stroke: #A80036; stroke-width: 1.5;" width="4" x="292" y="313"/><text fill="#000000" font-family="sans-serif" font-size="14" lengthAdjust="spacingAndGlyphs" textLength="70" x="219" y="335.5352">Glassfish2</text><rect fill="#FFFFFF" filter="url(#f1)" height="46.4883" style="stroke: #A80036; stroke-width: 1.5;" width="100" x="372" y="196"/><rect fill="#FFFFFF" height="10" style="stroke: #A80036; stroke-width: 1.5;" width="15" x="452" y="201"/><rect fill="#FFFFFF" height="2" style="stroke: #A80036; stroke-width: 1.5;" width="4" x="450" y="203"/><rect fill="#FFFFFF" height="2" style="stroke: #A80036; stroke-width: 1.5;" width="4" x="450" y="207"/><text fill="#000000" font-family="sans-serif" font-size="14" lengthAdjust="spacingAndGlyphs" textLength="60" x="387" y="229.5352">Apache3</text><rect fill="#FFFFFF" filter="url(#f1)" height="46.4883" style="stroke: #A80036; stroke-width: 1.5;" width="110" x="370" y="302"/><rect fill="#FFFFFF" height="10" style="stroke: #A80036; stroke-width: 1.5;" width="15" x="460" y="307"/><rect fill="#FFFFFF" height="2" style="stroke: #A80036; stroke-width: 1.5;" width="4" x="458" y="309"/><rect fill="#FFFFFF" height="2" style="stroke: #A80036; stroke-width: 1.5;" width="4" x="458" y="313"/><text fill="#000000" font-family="sans-serif" font-size="14" lengthAdjust="spacingAndGlyphs" textLength="70" x="385" y="335.5352">Glassfish3</text><path d="M232.5,449 C232.5,439 302,439 302,439 C302,439 371.5,439 371.5,449 L371.5,470.4883 C371.5,480.4883 302,480.4883 302,480.4883 C302,480.4883 232.5,480.4883 232.5,470.4883 L232.5,449 " fill="#FFFFFF" filter="url(#f1)" style="stroke: #A80036; stroke-width: 1.5;"/><path d="M232.5,449 C232.5,459 302,459 302,459 C302,459 371.5,459 371.5,449 " fill="none" style="stroke: #A80036; stroke-width: 1.5;"/><text fill="#000000" font-family="sans-serif" font-size="14" lengthAdjust="spacingAndGlyphs" textLength="119" x="242.5" y="472.5352">PostgreSQLActive</text><path d="M109,449 C109,439 153,439 153,439 C153,439 197,439 197,449 L197,470.4883 C197,480.4883 153,480.4883 153,480.4883 C153,480.4883 109,480.4883 109,470.4883 L109,449 " fill="#FFFFFF" filter="url(#f1)" style="stroke: #A80036; stroke-width: 1.5;"/><path d="M109,449 C109,459 153,459 153,459 C153,459 197,459 197,449 " fill="none" style="stroke: #A80036; stroke-width: 1.5;"/><text fill="#000000" font-family="sans-serif" font-size="14" lengthAdjust="spacingAndGlyphs" textLength="68" x="119" y="472.5352">SolrActive</text><path d="M246,597 C246,587 322,587 322,587 C322,587 398,587 398,597 L398,618.4883 C398,628.4883 322,628.4883 322,628.4883 C322,628.4883 246,628.4883 246,618.4883 L246,597 " fill="#FFFFFF" filter="url(#f1)" style="stroke: #A80036; stroke-width: 1.5;"/><path d="M246,597 C246,607 322,607 322,607 C322,607 398,607 398,597 " fill="none" style="stroke: #A80036; stroke-width: 1.5;"/><text fill="#000000" font-family="sans-serif" font-size="14" lengthAdjust="spacingAndGlyphs" textLength="132" x="256" y="620.5352">PostgreSQLStandBy</text><path d="M109.5,597 C109.5,587 160,587 160,587 C160,587 210.5,587 210.5,597 L210.5,618.4883 C210.5,628.4883 160,628.4883 160,628.4883 C160,628.4883 109.5,628.4883 109.5,618.4883 L109.5,597 " fill="#FFFFFF" filter="url(#f1)" style="stroke: #A80036; stroke-width: 1.5;"/><path d="M109.5,597 C109.5,607 160,607 160,607 C160,607 210.5,607 210.5,597 " fill="none" style="stroke: #A80036; stroke-width: 1.5;"/><text fill="#000000" font-family="sans-serif" font-size="14" lengthAdjust="spacingAndGlyphs" textLength="81" x="119.5" y="620.5352">SolrStandBy</text><path d="M479.5,449 C479.5,439 512,439 512,439 C512,439 544.5,439 544.5,449 L544.5,470.4883 C544.5,480.4883 512,480.4883 512,480.4883 C512,480.4883 479.5,480.4883 479.5,470.4883 L479.5,449 " fill="#FFFFFF" filter="url(#f1)" style="stroke: #A80036; stroke-width: 1.5;"/><path d="M479.5,449 C479.5,459 512,459 512,459 C512,459 544.5,459 544.5,449 " fill="none" style="stroke: #A80036; stroke-width: 1.5;"/><text fill="#000000" font-family="sans-serif" font-size="14" lengthAdjust="spacingAndGlyphs" textLength="45" x="489.5" y="472.5352">Rserve</text><ellipse cx="259" cy="17" fill="#FEFECE" filter="url(#f1)" rx="8" ry="8" style="stroke: #A80036; stroke-width: 2.0;"/><text fill="#000000" font-family="sans-serif" font-size="14" lengthAdjust="spacingAndGlyphs" textLength="47" x="235.5" y="39.5352">Clients</text><ellipse cx="259" cy="111" fill="#FEFECE" filter="url(#f1)" rx="8" ry="8" style="stroke: #A80036; stroke-width: 2.0;"/><text fill="#000000" font-family="sans-serif" font-size="14" lengthAdjust="spacingAndGlyphs" textLength="91" x="213.5" y="133.5352">LoadBalancer</text><path d="M95.3638,242.056 C94.9024,258.05 94.2756,279.778 93.7834,296.842 " fill="none" style="stroke: #A80036; stroke-width: 1.0;"/><polygon fill="#A80036" points="93.6353,301.976,97.8934,293.0952,93.7796,296.9781,89.8967,292.8643,93.6353,301.976" style="stroke: #A80036; stroke-width: 1.0;"/><path d="M259,242.056 C259,258.05 259,279.778 259,296.842 " fill="none" style="stroke: #A80036; stroke-width: 1.0;"/><polygon fill="#A80036" points="259,301.976,263,292.976,259,296.976,255,292.976,259,301.976" style="stroke: #A80036; stroke-width: 1.0;"/><path d="M422.636,242.056 C423.098,258.05 423.724,279.778 424.217,296.842 " fill="none" style="stroke: #A80036; stroke-width: 1.0;"/><polygon fill="#A80036" points="424.365,301.976,428.1037,292.8643,424.2207,296.9781,420.107,293.0952,424.365,301.976" style="stroke: #A80036; stroke-width: 1.0;"/><path d="M259,42.025 C259,57.104 259,79.793 259,96.451 " fill="none" style="stroke: #A80036; stroke-width: 1.0;"/><polygon fill="#A80036" points="259,101.85,263,92.85,259,96.85,255,92.85,259,101.85" style="stroke: #A80036; stroke-width: 1.0;"/><path d="M221.141,136.066 C210.239,141.099 198.468,146.936 188,153 C167.564,164.839 145.936,179.973 128.787,192.659 " fill="none" style="stroke: #A80036; stroke-width: 1.0;"/><polygon fill="#A80036" points="124.528,195.828,134.1365,193.6653,128.5396,192.8436,129.3614,187.2467,124.528,195.828" style="stroke: #A80036; stroke-width: 1.0;"/><path d="M259,136.183 C259,150.963 259,173.116 259,190.645 " fill="none" style="stroke: #A80036; stroke-width: 1.0;"/><polygon fill="#A80036" points="259,195.923,263,186.923,259,190.923,255,186.923,259,195.923" style="stroke: #A80036; stroke-width: 1.0;"/><path d="M296.859,136.066 C307.761,141.099 319.532,146.936 330,153 C350.436,164.839 372.064,179.973 389.213,192.659 " fill="none" style="stroke: #A80036; stroke-width: 1.0;"/><polygon fill="#A80036" points="393.472,195.828,388.6386,187.2467,389.4604,192.8436,383.8635,193.6653,393.472,195.828" style="stroke: #A80036; stroke-width: 1.0;"/><path d="M89.8198,348.178 C88.1172,360.051 85.919,375.381 83.7058,390.815 " fill="none" style="stroke: #A80036; stroke-width: 1.0;"/><polygon fill="#A80036" points="82.9554,396.048,88.1928,387.7072,83.6654,391.0987,80.2739,386.5712,82.9554,396.048" style="stroke: #A80036; stroke-width: 1.0;"/><path d="M220.899,348.115 C203.995,356.949 183.54,366.348 164,372 C148.748,376.412 104.9079,369.498 93,380 C89.1677,383.38 86.0415,387.388 83.4979,391.778 " fill="none" style="stroke: #A80036; stroke-width: 1.0;"/><polygon fill="#A80036" points="81.144,396.285,88.8555,390.1586,83.4584,391.8529,81.7641,386.4557,81.144,396.285" style="stroke: #A80036; stroke-width: 1.0;"/><path d="M388.457,348.131 C371.337,357.317 350.28,366.987 330,372 C317.211,375.161 103.2145,371.68 93,380 C88.906,383.335 85.6054,387.387 82.9532,391.873 " fill="none" style="stroke: #A80036; stroke-width: 1.0;"/><polygon fill="#A80036" points="80.5119,396.494,88.2529,390.405,82.8476,392.0731,81.1795,386.6678,80.5119,396.494" style="stroke: #A80036; stroke-width: 1.0;"/><path d="M129.557,348.073 C146.681,357.246 167.736,366.924 188,372 C209.573,377.404 368.435,369.424 388,380 C409.75,391.757 425.043,416.076 434.09,434.549 " fill="none" style="stroke: #A80036; stroke-width: 1.0;"/><polygon fill="#A80036" points="436.256,439.109,436.0063,429.2633,434.1101,434.5929,428.7805,432.6967,436.256,439.109" style="stroke: #A80036; stroke-width: 1.0;"/><path d="M299.771,348.18 C316.26,356.501 335.694,365.504 354,372 C368.63,377.192 375.11,371.349 388,380 C408.771,393.941 424.373,418.353 433.764,436.262 " fill="none" style="stroke: #A80036; stroke-width: 1.0;"/><polygon fill="#A80036" points="436.247,441.127,435.7181,431.2924,433.9739,436.6736,428.5926,434.9294,436.247,441.127" style="stroke: #A80036; stroke-width: 1.0;"/><path d="M428.18,348.178 C430.252,362.628 433.059,382.199 435.733,400.846 " fill="none" style="stroke: #A80036; stroke-width: 1.0;"/><polygon fill="#A80036" points="436.482,406.075,439.1636,396.5983,435.7721,401.1257,431.2447,397.7341,436.482,406.075" style="stroke: #A80036; stroke-width: 1.0;"/><path d="M74,503.946 C74,514.932 74,526.993 74,538.863 " fill="none" style="stroke: #A80036; stroke-width: 1.0;"/><polygon fill="#A80036" points="74,544.313,78,535.313,74,539.313,70,535.313,74,544.313" style="stroke: #A80036; stroke-width: 1.0;"/></g></svg>