<?xml version="1.0" encoding="UTF-8" standalone="no"?><svg xmlns="http://www.w3.org/2000/svg" xmlns:xlink="http://www.w3.org/1999/xlink" contentScriptType="application/ecmascript" contentStyleType="text/css" height="675px" preserveAspectRatio="none" style="width:651px;height:675px;" version="1.1" viewBox="0 0 651 675" width="651px" zoomAndPan="magnify"><defs><filter height="300%" id="fgulbze" width="300%" x="-1" y="-1"><feGaussianBlur result="blurOut" stdDeviation="2.0"/><feColorMatrix in="blurOut" result="blurOut2" type="matrix" values="0 0 0 0 0 0 0 0 0 0 0 0 0 0 0 0 0 0 .4 0"/><feOffset dx="4.0" dy="4.0" in="blurOut2" result="blurOut3"/><feBlend in="SourceGraphic" in2="blurOut3" mode="normal"/></filter></defs><g><!--cluster WebServer1--><polygon fill="#FFFFFF" filter="url(#fgulbze)" points="22,166,32,156,181,156,181,354,171,364,22,364,22,166" style="stroke: #000000; stroke-width: 2.0;"/><line style="stroke: #000000; stroke-width: 2.0;" x1="171" x2="180" y1="166" y2="157"/><line style="stroke: #000000; stroke-width: 2.0;" x1="22" x2="171" y1="166" y2="166"/><line style="stroke: #000000; stroke-width: 2.0;" x1="171" x2="171" y1="166" y2="364"/><text fill="#000000" font-family="sans-serif" font-size="14" font-weight="bold" lengthAdjust="spacingAndGlyphs" textLength="83" x="56" y="182.5352">WebServer1</text><!--cluster WebServer2--><polygon fill="#FFFFFF" filter="url(#fgulbze)" points="205,166,215,156,364,156,364,354,354,364,205,364,205,166" style="stroke: #000000; stroke-width: 2.0;"/><line style="stroke: #000000; stroke-width: 2.0;" x1="354" x2="363" y1="166" y2="157"/><line style="stroke: #000000; stroke-width: 2.0;" x1="205" x2="354" y1="166" y2="166"/><line style="stroke: #000000; stroke-width: 2.0;" x1="354" x2="354" y1="166" y2="364"/><text fill="#000000" font-family="sans-serif" font-size="14" font-weight="bold" lengthAdjust="spacingAndGlyphs" textLength="83" x="239" y="182.5352">WebServer2</text><!--cluster WebServer3--><polygon fill="#FFFFFF" filter="url(#fgulbze)" points="388,166,398,156,547,156,547,354,537,364,388,364,388,166" style="stroke: #000000; stroke-width: 2.0;"/><line style="stroke: #000000; stroke-width: 2.0;" x1="537" x2="546" y1="166" y2="157"/><line style="stroke: #000000; stroke-width: 2.0;" x1="388" x2="537" y1="166" y2="166"/><line style="stroke: #000000; stroke-width: 2.0;" x1="537" x2="537" y1="166" y2="364"/><text fill="#000000" font-family="sans-serif" font-size="14" font-weight="bold" lengthAdjust="spacingAndGlyphs" textLength="83" x="422" y="182.5352">WebServer3</text><!--cluster DatabaseServer1--><polygon fill="#FFFFFF" filter="url(#fgulbze)" points="54,406,64,396,384,396,384,503,374,513,54,513,54,406" style="stroke: #000000; stroke-width: 2.0;"/><line style="stroke: #000000; stroke-width: 2.0;" x1="374" x2="383" y1="406" y2="397"/><line style="stroke: #000000; stroke-width: 2.0;" x1="54" x2="374" y1="406" y2="406"/><line style="stroke: #000000; stroke-width: 2.0;" x1="374" x2="374" y1="406" y2="513"/><text fill="#000000" font-family="sans-serif" font-size="14" font-weight="bold" lengthAdjust="spacingAndGlyphs" textLength="119" x="155.5" y="422.5352">DatabaseServer1</text><!--cluster DatabaseServer2--><polygon fill="#FFFFFF" filter="url(#fgulbze)" points="54,563,64,553,410,553,410,660,400,670,54,670,54,563" style="stroke: #000000; stroke-width: 2.0;"/><line style="stroke: #000000; stroke-width: 2.0;" x1="400" x2="409" y1="563" y2="554"/><line style="stroke: #000000; stroke-width: 2.0;" x1="54" x2="400" y1="563" y2="563"/><line style="stroke: #000000; stroke-width: 2.0;" x1="400" x2="400" y1="563" y2="670"/><text fill="#000000" font-family="sans-serif" font-size="14" font-weight="bold" lengthAdjust="spacingAndGlyphs" textLength="119" x="168.5" y="579.5352">DatabaseServer2</text><!--cluster RserveServer1--><polygon fill="#FFFFFF" filter="url(#fgulbze)" points="416,413.5,426,403.5,646,403.5,646,495.5,636,505.5,416,505.5,416,413.5" style="stroke: #000000; stroke-width: 2.0;"/><line style="stroke: #000000; stroke-width: 2.0;" x1="636" x2="645" y1="413.5" y2="404.5"/><line style="stroke: #000000; stroke-width: 2.0;" x1="416" x2="636" y1="413.5" y2="413.5"/><line style="stroke: #000000; stroke-width: 2.0;" x1="636" x2="636" y1="413.5" y2="505.5"/><text fill="#000000" font-family="sans-serif" font-size="14" font-weight="bold" lengthAdjust="spacingAndGlyphs" textLength="101" x="476.5" y="430.0352">RserveServer1</text><!--entity Apache1--><rect fill="#FFFFFF" filter="url(#fgulbze)" height="46.4883" style="stroke: #000000; stroke-width: 1.5;" width="100" x="62" y="196"/><rect fill="#FFFFFF" height="10" style="stroke: #000000; stroke-width: 1.5;" width="15" x="142" y="201"/><rect fill="#FFFFFF" height="2" style="stroke: #000000; stroke-width: 1.5;" width="4" x="140" y="203"/><rect fill="#FFFFFF" height="2" style="stroke: #000000; stroke-width: 1.5;" width="4" x="140" y="207"/><text fill="#000000" font-family="sans-serif" font-size="14" lengthAdjust="spacingAndGlyphs" textLength="60" x="77" y="229.5352">Apache1</text><!--entity Glassfish1--><rect fill="#FFFFFF" filter="url(#fgulbze)" height="46.4883" style="stroke: #000000; stroke-width: 1.5;" width="110" x="55" y="302"/><rect fill="#FFFFFF" height="10" style="stroke: #000000; stroke-width: 1.5;" width="15" x="145" y="307"/><rect fill="#FFFFFF" height="2" style="stroke: #000000; stroke-width: 1.5;" width="4" x="143" y="309"/><rect fill="#FFFFFF" height="2" style="stroke: #000000; stroke-width: 1.5;" width="4" x="143" y="313"/><text fill="#000000" font-family="sans-serif" font-size="14" lengthAdjust="spacingAndGlyphs" textLength="70" x="70" y="335.5352">Glassfish1</text><!--entity Apache2--><rect fill="#FFFFFF" filter="url(#fgulbze)" height="46.4883" style="stroke: #000000; stroke-width: 1.5;" width="100" x="245" y="196"/><rect fill="#FFFFFF" height="10" style="stroke: #000000; stroke-width: 1.5;" width="15" x="325" y="201"/><rect fill="#FFFFFF" height="2" style="stroke: #000000; stroke-width: 1.5;" width="4" x="323" y="203"/><rect fill="#FFFFFF" height="2" style="stroke: #000000; stroke-width: 1.5;" width="4" x="323" y="207"/><text fill="#000000" font-family="sans-serif" font-size="14" lengthAdjust="spacingAndGlyphs" textLength="60" x="260" y="229.5352">Apache2</text><!--entity Glassfish2--><rect fill="#FFFFFF" filter="url(#fgulbze)" height="46.4883" style="stroke: #000000; stroke-width: 1.5;" width="110" x="238" y="302"/><rect fill="#FFFFFF" height="10" style="stroke: #000000; stroke-width: 1.5;" width="15" x="328" y="307"/><rect fill="#FFFFFF" height="2" style="stroke: #000000; stroke-width: 1.5;" width="4" x="326" y="309"/><rect fill="#FFFFFF" height="2" style="stroke: #000000; stroke-width: 1.5;" width="4" x="326" y="313"/><text fill="#000000" font-family="sans-serif" font-size="14" lengthAdjust="spacingAndGlyphs" textLength="70" x="253" y="335.5352">Glassfish2</text><!--entity Apache3--><rect fill="#FFFFFF" filter="url(#fgulbze)" height="46.4883" style="stroke: #000000; stroke-width: 1.5;" width="100" x="407" y="196"/><rect fill="#FFFFFF" height="10" style="stroke: #000000; stroke-width: 1.5;" width="15" x="487" y="201"/><rect fill="#FFFFFF" height="2" style="stroke: #000000; stroke-width: 1.5;" width="4" x="485" y="203"/><rect fill="#FFFFFF" height="2" style="stroke: #000000; stroke-width: 1.5;" width="4" x="485" y="207"/><text fill="#000000" font-family="sans-serif" font-size="14" lengthAdjust="spacingAndGlyphs" textLength="60" x="422" y="229.5352">Apache3</text><!--entity Glassfish3--><rect fill="#FFFFFF" filter="url(#fgulbze)" height="46.4883" style="stroke: #000000; stroke-width: 1.5;" width="110" x="404" y="302"/><rect fill="#FFFFFF" height="10" style="stroke: #000000; stroke-width: 1.5;" width="15" x="494" y="307"/><rect fill="#FFFFFF" height="2" style="stroke: #000000; stroke-width: 1.5;" width="4" x="492" y="309"/><rect fill="#FFFFFF" height="2" style="stroke: #000000; stroke-width: 1.5;" width="4" x="492" y="313"/><text fill="#000000" font-family="sans-serif" font-size="14" lengthAdjust="spacingAndGlyphs" textLength="70" x="419" y="335.5352">Glassfish3</text><!--entity PostgreSQLActive--><path d="M220.5,454 C220.5,444 290,444 290,444 C290,444 359.5,444 359.5,454 L359.5,479.4883 C359.5,489.4883 290,489.4883 290,489.4883 C290,489.4883 220.5,489.4883 220.5,479.4883 L220.5,454 " fill="#FFFFFF" filter="url(#fgulbze)" style="stroke: #000000; stroke-width: 1.5;"/><path d="M220.5,454 C220.5,464 290,464 290,464 C290,464 359.5,464 359.5,454 " fill="none" style="stroke: #000000; stroke-width: 1.5;"/><text fill="#000000" font-family="sans-serif" font-size="14" lengthAdjust="spacingAndGlyphs" textLength="119" x="230.5" y="481.5352">PostgreSQLActive</text><!--entity SolrActive--><path d="M97,454 C97,444 141,444 141,444 C141,444 185,444 185,454 L185,479.4883 C185,489.4883 141,489.4883 141,489.4883 C141,489.4883 97,489.4883 97,479.4883 L97,454 " fill="#FFFFFF" filter="url(#fgulbze)" style="stroke: #000000; stroke-width: 1.5;"/><path d="M97,454 C97,464 141,464 141,464 C141,464 185,464 185,454 " fill="none" style="stroke: #000000; stroke-width: 1.5;"/><text fill="#000000" font-family="sans-serif" font-size="14" lengthAdjust="spacingAndGlyphs" textLength="68" x="107" y="481.5352">SolrActive</text><!--entity PostgreSQLStandBy--><path d="M234,611 C234,601 310,601 310,601 C310,601 386,601 386,611 L386,636.4883 C386,646.4883 310,646.4883 310,646.4883 C310,646.4883 234,646.4883 234,636.4883 L234,611 " fill="#FFFFFF" filter="url(#fgulbze)" style="stroke: #000000; stroke-width: 1.5;"/><path d="M234,611 C234,621 310,621 310,621 C310,621 386,621 386,611 " fill="none" style="stroke: #000000; stroke-width: 1.5;"/><text fill="#000000" font-family="sans-serif" font-size="14" lengthAdjust="spacingAndGlyphs" textLength="132" x="244" y="638.5352">PostgreSQLStandBy</text><!--entity SolrStandBy--><path d="M97.5,611 C97.5,601 148,601 148,601 C148,601 198.5,601 198.5,611 L198.5,636.4883 C198.5,646.4883 148,646.4883 148,646.4883 C148,646.4883 97.5,646.4883 97.5,636.4883 L97.5,611 " fill="#FFFFFF" filter="url(#fgulbze)" style="stroke: #000000; stroke-width: 1.5;"/><path d="M97.5,611 C97.5,621 148,621 148,621 C148,621 198.5,621 198.5,611 " fill="none" style="stroke: #000000; stroke-width: 1.5;"/><text fill="#000000" font-family="sans-serif" font-size="14" lengthAdjust="spacingAndGlyphs" textLength="81" x="107.5" y="638.5352">SolrStandBy</text><!--entity rApache--><rect fill="#FFFFFF" filter="url(#fgulbze)" height="46.4883" style="stroke: #000000; stroke-width: 1.5;" width="97" x="532.5" y="443.5"/><rect fill="#FFFFFF" height="10" style="stroke: #000000; stroke-width: 1.5;" width="15" x="609.5" y="448.5"/><rect fill="#FFFFFF" height="2" style="stroke: #000000; stroke-width: 1.5;" width="4" x="607.5" y="450.5"/><rect fill="#FFFFFF" height="2" style="stroke: #000000; stroke-width: 1.5;" width="4" x="607.5" y="454.5"/><text fill="#000000" font-family="sans-serif" font-size="14" lengthAdjust="spacingAndGlyphs" textLength="57" x="547.5" y="477.0352">rApache</text><!--entity Rserve--><path d="M432.5,454 C432.5,444 465,444 465,444 C465,444 497.5,444 497.5,454 L497.5,479.4883 C497.5,489.4883 465,489.4883 465,489.4883 C465,489.4883 432.5,489.4883 432.5,479.4883 L432.5,454 " fill="#FFFFFF" filter="url(#fgulbze)" style="stroke: #000000; stroke-width: 1.5;"/><path d="M432.5,454 C432.5,464 465,464 465,464 C465,464 497.5,464 497.5,454 " fill="none" style="stroke: #000000; stroke-width: 1.5;"/><text fill="#000000" font-family="sans-serif" font-size="14" lengthAdjust="spacingAndGlyphs" textLength="45" x="442.5" y="481.5352">Rserve</text><!--entity Clients--><ellipse cx="437" cy="17" fill="#FEFECE" filter="url(#fgulbze)" rx="8" ry="8" style="stroke: #A80036; stroke-width: 2.0;"/><text fill="#000000" font-family="sans-serif" font-size="14" lengthAdjust="spacingAndGlyphs" textLength="47" x="413.5" y="39.5352">Clients</text><!--entity LoadBalancer--><ellipse cx="375" cy="111" fill="#FEFECE" filter="url(#fgulbze)" rx="8" ry="8" style="stroke: #A80036; stroke-width: 2.0;"/><text fill="#000000" font-family="sans-serif" font-size="14" lengthAdjust="spacingAndGlyphs" textLength="91" x="329.5" y="133.5352">LoadBalancer</text><path d="M111.566,242.0004 C111.2641,258.003 110.8595,279.4461 110.5372,296.528 " fill="none" style="stroke: #A80036; stroke-width: 1.0;"/><polygon fill="#A80036" points="110.44,301.6784,114.6093,292.7555,110.5344,296.6793,106.6107,292.6045,110.44,301.6784" style="stroke: #A80036; stroke-width: 1.0;"/><path d="M294.566,242.0004 C294.2641,258.003 293.8595,279.4461 293.5372,296.528 " fill="none" style="stroke: #A80036; stroke-width: 1.0;"/><polygon fill="#A80036" points="293.44,301.6784,297.6093,292.7555,293.5344,296.6793,289.6107,292.6045,293.44,301.6784" style="stroke: #A80036; stroke-width: 1.0;"/><path d="M457.434,242.0004 C457.7359,258.003 458.1405,279.4461 458.4628,296.528 " fill="none" style="stroke: #A80036; stroke-width: 1.0;"/><polygon fill="#A80036" points="458.56,301.6784,462.3893,292.6045,458.4656,296.6793,454.3907,292.7555,458.56,301.6784" style="stroke: #A80036; stroke-width: 1.0;"/><path d="M425.6282,42.241 C415.4028,57.7441 400.3371,80.5856 389.2989,97.3211 " fill="none" style="stroke: #A80036; stroke-width: 1.0;"/><polygon fill="#A80036" points="386.2997,101.8683,394.5942,96.5578,389.0527,97.6945,387.916,92.153,386.2997,101.8683" style="stroke: #A80036; stroke-width: 1.0;"/><path d="M454.6338,42.3572 C476.1651,64.6798 511.938,105.6442 530,148 C572.8788,248.552 580.0191,380.9436 580.9921,438.1551 " fill="none" style="stroke: #A80036; stroke-width: 1.0;"/><polygon fill="#A80036" points="581.068,443.4535,584.9385,434.3971,580.9963,438.454,576.9393,434.5118,581.068,443.4535" style="stroke: #A80036; stroke-width: 1.0;"/><path d="M329.1896,123.0199 C298.095,126.8609 256.5185,134.203 222,148 C194.298,159.0725 166.0872,177.4541 145.1709,192.7398 " fill="none" style="stroke: #A80036; stroke-width: 1.0;"/><polygon fill="#A80036" points="141.0872,195.7525,150.7042,193.6281,145.1107,192.784,145.9547,187.1905,141.0872,195.7525" style="stroke: #A80036; stroke-width: 1.0;"/><path d="M361.0651,136.4187 C348.8291,151.7137 330.8295,174.2132 316.7071,191.8661 " fill="none" style="stroke: #A80036; stroke-width: 1.0;"/><polygon fill="#A80036" points="313.5736,195.783,322.3194,191.2542,316.6972,191.8787,316.0726,186.2565,313.5736,195.783" style="stroke: #A80036; stroke-width: 1.0;"/><path d="M389.2833,136.4187 C401.8252,151.7137 420.2748,174.2132 434.7502,191.8661 " fill="none" style="stroke: #A80036; stroke-width: 1.0;"/><polygon fill="#A80036" points="437.9621,195.783,435.3485,186.2873,434.7917,191.9166,429.1623,191.3598,437.9621,195.783" style="stroke: #A80036; stroke-width: 1.0;"/><path d="M95.9967,348.1831 C90.6857,357.7649 84.9684,369.1529 81,380 C79.4152,384.3318 77.9409,388.8363 76.573,393.4134 C76.402,393.9855 76.2327,394.5588 76.065,395.133 C75.9812,395.4201 75.8978,395.7075 75.8148,395.995 " fill="none" style="stroke: #A80036; stroke-width: 1.0;"/><polygon fill="#A80036" points="75.8148,395.995,82.154,388.4575,77.2015,391.1912,74.4679,386.2387,75.8148,395.995" style="stroke: #A80036; stroke-width: 1.0;"/><path d="M247.2581,348.0755 C227.3871,357.0698 203.5388,366.5183 181,372 C159.3382,377.2683 97.8012,365.3471 81,380 C77.4658,383.0823 74.504,386.658 72.0284,390.5657 C71.4096,391.5426 70.8211,392.5403 70.2616,393.5562 C69.9819,394.0642 69.7094,394.5767 69.444,395.0935 C69.3113,395.3518 69.1804,395.6113 69.0512,395.8717 " fill="none" style="stroke: #A80036; stroke-width: 1.0;"/><polygon fill="#A80036" points="69.0512,395.8717,76.6333,389.5859,71.2726,391.3923,69.4662,386.0316,69.0512,395.8717" style="stroke: #A80036; stroke-width: 1.0;"/><path d="M421.6241,348.1602 C404.6831,357.4061 383.9996,367.0242 364,372 C348.7368,375.7974 93.1163,369.971 81,380 C77.3875,382.9902 74.3661,386.4956 71.8462,390.3512 C71.2162,391.3151 70.6176,392.3009 70.0489,393.306 C69.7646,393.8085 69.4877,394.3159 69.2182,394.8277 C69.0834,395.0837 68.9505,395.3407 68.8193,395.5989 C68.7538,395.7279 68.6886,395.8573 68.624,395.9869 " fill="none" style="stroke: #A80036; stroke-width: 1.0;"/><polygon fill="#A80036" points="68.624,395.9869,76.2213,389.7195,70.8563,391.5129,69.0629,386.1478,68.624,395.9869" style="stroke: #A80036; stroke-width: 1.0;"/><path d="M154.8592,348.0133 C174.8772,357.1721 199.0785,366.7632 222,372 C255.4076,379.6326 344.5927,366.2923 376,380 C405.0665,392.686 430.13,419.3786 446.185,439.7779 " fill="none" style="stroke: #A80036; stroke-width: 1.0;"/><polygon fill="#A80036" points="449.2745,443.7678,446.9272,434.2028,446.2134,439.8144,440.6017,439.1006,449.2745,443.7678" style="stroke: #A80036; stroke-width: 1.0;"/><path d="M331.229,348.215 C345.6774,357.5292 362.0005,368.7211 376,380 C399.0866,398.6 423.0665,422.1941 440.3103,440.0406 " fill="none" style="stroke: #A80036; stroke-width: 1.0;"/><polygon fill="#A80036" points="444.1038,443.9865,440.7498,434.7263,440.6385,440.3821,434.9828,440.2708,444.1038,443.9865" style="stroke: #A80036; stroke-width: 1.0;"/><path d="M459.9774,348.0493 C461.0296,372.8644 462.7032,412.3341 463.826,438.814 " fill="none" style="stroke: #A80036; stroke-width: 1.0;"/><polygon fill="#A80036" points="464.0429,443.9286,467.658,434.7672,463.831,438.9331,459.6651,435.1062,464.0429,443.9286" style="stroke: #A80036; stroke-width: 1.0;"/><path d="M62,513.1486 C62,513.6798 62,514.2133 62,514.7491 C62,515.8206 62,516.9009 62,517.9892 C62,526.6953 62,535.9062 62,545.115 C62,547.4172 62,549.7193 62,552.0133 C62,552.3 62,552.5866 62,552.8731 " fill="none" style="stroke: #A80036; stroke-width: 1.0;"/><polygon fill="#A80036" points="62,552.8731,66,543.8731,62,547.8731,58,543.8731,62,552.8731" style="stroke: #A80036; stroke-width: 1.0;"/></g></svg>