<?xml version="1.0" encoding="UTF-8" standalone="yes"?><svg xmlns="http://www.w3.org/2000/svg" xmlns:xlink="http://www.w3.org/1999/xlink" height="883pt" style="width:895px;height:883px;" version="1.1" viewBox="0 0 895 883" width="895pt"><defs><filter height="300%" id="f1" width="300%" x="-1" y="-1"><feGaussianBlur result="blurOut" stdDeviation="2.0"/><feColorMatrix in="blurOut" result="blurOut2" type="matrix" values="0 0 0 0 0 0 0 0 0 0 0 0 0 0 0 0 0 0 .4 0"/><feOffset dx="4.0" dy="4.0" in="blurOut2" result="blurOut3"/><feBlend in="SourceGraphic" in2="blurOut3" mode="normal"/></filter></defs><g><polygon fill="#FFFFFF" filter="url(#f1)" points="351,24,451,24,458,46.4883,864,46.4883,864,271,351,271,351,24" style="stroke: #000000; stroke-width: 2.0;"/><line style="stroke: #000000; stroke-width: 2.0;" x1="351" x2="458" y1="46.4883" y2="46.4883"/><text fill="#000000" font-family="sans-serif" font-size="14" font-weight="bold" lengthAdjust="spacingAndGlyphs" textLength="94" x="354" y="40.5352">existingCode</text><polygon fill="#FFFFFF" filter="url(#f1)" points="22,320,99,320,106,342.4883,888,342.4883,888,876,22,876,22,320" style="stroke: #000000; stroke-width: 2.0;"/><line style="stroke: #000000; stroke-width: 2.0;" x1="22" x2="106" y1="342.4883" y2="342.4883"/><text fill="#000000" font-family="sans-serif" font-size="14" font-weight="bold" lengthAdjust="spacingAndGlyphs" textLength="71" x="25" y="336.5352">assignees</text><rect fill="#FEFECE" filter="url(#f1)" height="48" style="stroke: #A80036; stroke-width: 1.5;" width="57" x="603.5" y="70.5"/><ellipse cx="618.5" cy="86.5" fill="#ADD1B2" rx="11" ry="11" style="stroke: #A80036; stroke-width: 1.0;"/><path d="M621.4731,92.1431 Q620.8921,92.4419 620.2529,92.5913 Q619.6138,92.7407 618.9082,92.7407 Q616.4014,92.7407 615.0815,91.0889 Q613.7617,89.437 613.7617,86.3159 Q613.7617,83.1865 615.0815,81.5347 Q616.4014,79.8828 618.9082,79.8828 Q619.6138,79.8828 620.2612,80.0322 Q620.9087,80.1816 621.4731,80.4805 L621.4731,83.2031 Q620.8423,82.6221 620.2488,82.3523 Q619.6553,82.0825 619.0244,82.0825 Q617.6797,82.0825 616.9949,83.1492 Q616.3101,84.2158 616.3101,86.3159 Q616.3101,88.4077 616.9949,89.4744 Q617.6797,90.541 619.0244,90.541 Q619.6553,90.541 620.2488,90.2712 Q620.8423,90.0015 621.4731,89.4204 Z "/><text fill="#000000" font-family="sans-serif" font-size="12" lengthAdjust="spacingAndGlyphs" textLength="25" x="632.5" y="91.0352">Role</text><line style="stroke: #A80036; stroke-width: 1.5;" x1="604.5" x2="659.5" y1="102.5" y2="102.5"/><line style="stroke: #A80036; stroke-width: 1.5;" x1="604.5" x2="659.5" y1="110.5" y2="110.5"/><rect fill="#FEFECE" filter="url(#f1)" height="48" style="stroke: #A80036; stroke-width: 1.5;" width="85" x="762.5" y="70.5"/><ellipse cx="777.5" cy="86.5" fill="#ADD1B2" rx="11" ry="11" style="stroke: #A80036; stroke-width: 1.0;"/><path d="M780.4731,92.1431 Q779.8921,92.4419 779.2529,92.5913 Q778.6138,92.7407 777.9082,92.7407 Q775.4014,92.7407 774.0815,91.0889 Q772.7617,89.437 772.7617,86.3159 Q772.7617,83.1865 774.0815,81.5347 Q775.4014,79.8828 777.9082,79.8828 Q778.6138,79.8828 779.2612,80.0322 Q779.9087,80.1816 780.4731,80.4805 L780.4731,83.2031 Q779.8423,82.6221 779.2488,82.3523 Q778.6553,82.0825 778.0244,82.0825 Q776.6797,82.0825 775.9949,83.1492 Q775.3101,84.2158 775.3101,86.3159 Q775.3101,88.4077 775.9949,89.4744 Q776.6797,90.541 778.0244,90.541 Q778.6553,90.541 779.2488,90.2712 Q779.8423,90.0015 780.4731,89.4204 Z "/><text fill="#000000" font-family="sans-serif" font-size="12" lengthAdjust="spacingAndGlyphs" textLength="53" x="791.5" y="91.0352">DvObject</text><line style="stroke: #A80036; stroke-width: 1.5;" x1="763.5" x2="846.5" y1="102.5" y2="102.5"/><line style="stroke: #A80036; stroke-width: 1.5;" x1="763.5" x2="846.5" y1="110.5" y2="110.5"/><rect fill="#FEFECE" filter="url(#f1)" height="48" style="stroke: #A80036; stroke-width: 1.5;" width="123" x="575.5" y="207"/><ellipse cx="590.5" cy="223" fill="#ADD1B2" rx="11" ry="11" style="stroke: #A80036; stroke-width: 1.0;"/><path d="M593.4731,228.6431 Q592.8921,228.9419 592.2529,229.0913 Q591.6138,229.2407 590.9082,229.2407 Q588.4014,229.2407 587.0815,227.5889 Q585.7617,225.937 585.7617,222.8159 Q585.7617,219.6865 587.0815,218.0347 Q588.4014,216.3828 590.9082,216.3828 Q591.6138,216.3828 592.2612,216.5322 Q592.9087,216.6816 593.4731,216.9805 L593.4731,219.7031 Q592.8423,219.1221 592.2488,218.8523 Q591.6553,218.5825 591.0244,218.5825 Q589.6797,218.5825 588.9949,219.6492 Q588.3101,220.7158 588.3101,222.8159 Q588.3101,224.9077 588.9949,225.9744 Q589.6797,227.041 591.0244,227.041 Q591.6553,227.041 592.2488,226.7712 Q592.8423,226.5015 593.4731,225.9204 Z "/><text fill="#000000" font-family="sans-serif" font-size="12" lengthAdjust="spacingAndGlyphs" textLength="91" x="604.5" y="227.5352">RoleAssignment</text><line style="stroke: #A80036; stroke-width: 1.5;" x1="576.5" x2="697.5" y1="239" y2="239"/><line style="stroke: #A80036; stroke-width: 1.5;" x1="576.5" x2="697.5" y1="247" y2="247"/><rect fill="#FEFECE" filter="url(#f1)" height="48" style="stroke: #A80036; stroke-width: 1.5;" width="90" x="758" y="207"/><ellipse cx="773" cy="223" fill="#ADD1B2" rx="11" ry="11" style="stroke: #A80036; stroke-width: 1.0;"/><path d="M775.9731,228.6431 Q775.3921,228.9419 774.7529,229.0913 Q774.1138,229.2407 773.4082,229.2407 Q770.9014,229.2407 769.5815,227.5889 Q768.2617,225.937 768.2617,222.8159 Q768.2617,219.6865 769.5815,218.0347 Q770.9014,216.3828 773.4082,216.3828 Q774.1138,216.3828 774.7612,216.5322 Q775.4087,216.6816 775.9731,216.9805 L775.9731,219.7031 Q775.3423,219.1221 774.7488,218.8523 Q774.1553,218.5825 773.5244,218.5825 Q772.1797,218.5825 771.4949,219.6492 Q770.8101,220.7158 770.8101,222.8159 Q770.8101,224.9077 771.4949,225.9744 Q772.1797,227.041 773.5244,227.041 Q774.1553,227.041 774.7488,226.7712 Q775.3423,226.5015 775.9731,225.9204 Z "/><text fill="#000000" font-family="sans-serif" font-size="12" lengthAdjust="spacingAndGlyphs" textLength="58" x="787" y="227.5352">Dataverse</text><line style="stroke: #A80036; stroke-width: 1.5;" x1="759" x2="847" y1="239" y2="239"/><line style="stroke: #A80036; stroke-width: 1.5;" x1="759" x2="847" y1="247" y2="247"/><polygon fill="#FBFB77" filter="url(#f1)" points="367.5,59,367.5,130.2422,568.5,130.2422,568.5,69,558.5,59,367.5,59" style="stroke: #A80036; stroke-width: 1.0;"/><line style="stroke: #A80036; stroke-width: 1.0;" x1="558.5" x2="558.5" y1="59" y2="69"/><line style="stroke: #A80036; stroke-width: 1.0;" x1="568.5" x2="558.5" y1="69" y2="69"/><text fill="#000000" font-family="sans-serif" font-size="13" lengthAdjust="spacingAndGlyphs" textLength="142" x="373.5" y="76.5684">A role can be assigned</text><text fill="#000000" font-family="sans-serif" font-size="13" lengthAdjust="spacingAndGlyphs" textLength="152" x="373.5" y="91.8789">at the DvObject where it</text><text fill="#000000" font-family="sans-serif" font-size="13" lengthAdjust="spacingAndGlyphs" textLength="142" x="373.5" y="107.1895">is defined, or at any of</text><text fill="#000000" font-family="sans-serif" font-size="13" lengthAdjust="spacingAndGlyphs" textLength="180" x="373.5" y="122.5">that DvObject's descendants</text><rect fill="#FEFECE" filter="url(#f1)" height="73.9102" style="stroke: #A80036; stroke-width: 1.5;" width="137" x="568.5" y="355"/><ellipse cx="607.8" cy="371" fill="#ADD1B2" rx="11" ry="11" style="stroke: #A80036; stroke-width: 1.0;"/><path d="M610.7731,376.6431 Q610.1921,376.9419 609.5529,377.0913 Q608.9138,377.2407 608.2082,377.2407 Q605.7014,377.2407 604.3815,375.5889 Q603.0617,373.937 603.0617,370.8159 Q603.0617,367.6865 604.3815,366.0347 Q605.7014,364.3828 608.2082,364.3828 Q608.9138,364.3828 609.5612,364.5322 Q610.2087,364.6816 610.7731,364.9805 L610.7731,367.7031 Q610.1423,367.1221 609.5488,366.8523 Q608.9553,366.5825 608.3244,366.5825 Q606.9797,366.5825 606.2949,367.6492 Q605.6101,368.7158 605.6101,370.8159 Q605.6101,372.9077 606.2949,373.9744 Q606.9797,375.041 608.3244,375.041 Q608.9553,375.041 609.5488,374.7712 Q610.1423,374.5015 610.7731,373.9204 Z "/><text fill="#000000" font-family="sans-serif" font-size="12" lengthAdjust="spacingAndGlyphs" textLength="51" x="627.2" y="375.5352">Assignee</text><line style="stroke: #A80036; stroke-width: 1.5;" x1="569.5" x2="704.5" y1="387" y2="387"/><ellipse cx="579.5" cy="398.9775" fill="none" rx="3" ry="3" style="stroke: #038048; stroke-width: 1.0;"/><text fill="#000000" font-family="sans-serif" font-size="11" lengthAdjust="spacingAndGlyphs" textLength="111" x="588.5" y="401.6348">showInLists: Boolean</text><line style="stroke: #A80036; stroke-width: 1.5;" x1="569.5" x2="704.5" y1="407.9551" y2="407.9551"/><ellipse cx="579.5" cy="419.9326" fill="#84BE84" rx="3" ry="3" style="stroke: #038048; stroke-width: 1.0;"/><text fill="#000000" font-family="sans-serif" font-size="11" lengthAdjust="spacingAndGlyphs" textLength="78" x="588.5" y="422.5898">displayString()</text><rect fill="#FEFECE" filter="url(#f1)" height="60.9551" style="stroke: #A80036; stroke-width: 1.5;" width="99" x="231.5" y="512.5"/><ellipse cx="264.95" cy="528.5" fill="#ADD1B2" rx="11" ry="11" style="stroke: #A80036; stroke-width: 1.0;"/><path d="M267.9231,534.1431 Q267.3421,534.4419 266.7029,534.5913 Q266.0638,534.7407 265.3582,534.7407 Q262.8514,534.7407 261.5315,533.0889 Q260.2117,531.437 260.2117,528.3159 Q260.2117,525.1865 261.5315,523.5347 Q262.8514,521.8828 265.3582,521.8828 Q266.0638,521.8828 266.7112,522.0322 Q267.3587,522.1816 267.9231,522.4805 L267.9231,525.2031 Q267.2923,524.6221 266.6988,524.3523 Q266.1053,524.0825 265.4744,524.0825 Q264.1297,524.0825 263.4449,525.1492 Q262.7601,526.2158 262.7601,528.3159 Q262.7601,530.4077 263.4449,531.4744 Q264.1297,532.541 265.4744,532.541 Q266.1053,532.541 266.6988,532.2712 Q267.2923,532.0015 267.9231,531.4204 Z "/><text fill="#000000" font-family="sans-serif" font-size="12" lengthAdjust="spacingAndGlyphs" textLength="26" x="283.05" y="533.0352">User</text><line style="stroke: #A80036; stroke-width: 1.5;" x1="232.5" x2="329.5" y1="544.5" y2="544.5"/><ellipse cx="242.5" cy="556.4775" fill="none" rx="3" ry="3" style="stroke: #038048; stroke-width: 1.0;"/><text fill="#000000" font-family="sans-serif" font-size="11" lengthAdjust="spacingAndGlyphs" textLength="73" x="251.5" y="559.1348">locator:String</text><line style="stroke: #A80036; stroke-width: 1.5;" x1="232.5" x2="329.5" y1="565.4551" y2="565.4551"/><rect fill="#FEFECE" filter="url(#f1)" height="73.9102" style="stroke: #A80036; stroke-width: 1.5;" width="90" x="316" y="647.5"/><ellipse cx="332.35" cy="663.5" fill="#ADD1B2" rx="11" ry="11" style="stroke: #A80036; stroke-width: 1.0;"/><path d="M335.3231,669.1431 Q334.7421,669.4419 334.1029,669.5913 Q333.4638,669.7407 332.7582,669.7407 Q330.2514,669.7407 328.9315,668.0889 Q327.6117,666.437 327.6117,663.3159 Q327.6117,660.1865 328.9315,658.5347 Q330.2514,656.8828 332.7582,656.8828 Q333.4638,656.8828 334.1112,657.0322 Q334.7587,657.1816 335.3231,657.4805 L335.3231,660.2031 Q334.6923,659.6221 334.0988,659.3523 Q333.5053,659.0825 332.8744,659.0825 Q331.5297,659.0825 330.8449,660.1492 Q330.1601,661.2158 330.1601,663.3159 Q330.1601,665.4077 330.8449,666.4744 Q331.5297,667.541 332.8744,667.541 Q333.5053,667.541 334.0988,667.2712 Q334.6923,667.0015 335.3231,666.4204 Z "/><text fill="#000000" font-family="sans-serif" font-size="12" lengthAdjust="spacingAndGlyphs" textLength="55" x="346.65" y="668.0352">LocalUser</text><line style="stroke: #A80036; stroke-width: 1.5;" x1="317" x2="405" y1="679.5" y2="679.5"/><ellipse cx="327" cy="691.4775" fill="none" rx="3" ry="3" style="stroke: #038048; stroke-width: 1.0;"/><text fill="#000000" font-family="sans-serif" font-size="11" lengthAdjust="spacingAndGlyphs" textLength="40" x="336" y="694.1348">id:Long</text><ellipse cx="327" cy="704.4326" fill="none" rx="3" ry="3" style="stroke: #038048; stroke-width: 1.0;"/><text fill="#000000" font-family="sans-serif" font-size="11" lengthAdjust="spacingAndGlyphs" textLength="64" x="336" y="707.0898">name:String</text><line style="stroke: #A80036; stroke-width: 1.5;" x1="317" x2="405" y1="713.4102" y2="713.4102"/><rect fill="#FEFECE" filter="url(#f1)" height="60.9551" style="stroke: #A80036; stroke-width: 1.5;" width="106" x="38" y="654"/><ellipse cx="59.75" cy="670" fill="#ADD1B2" rx="11" ry="11" style="stroke: #A80036; stroke-width: 1.0;"/><path d="M62.7231,675.6431 Q62.1421,675.9419 61.5029,676.0913 Q60.8638,676.2407 60.1582,676.2407 Q57.6514,676.2407 56.3315,674.5889 Q55.0117,672.937 55.0117,669.8159 Q55.0117,666.6865 56.3315,665.0347 Q57.6514,663.3828 60.1582,663.3828 Q60.8638,663.3828 61.5112,663.5322 Q62.1587,663.6816 62.7231,663.9805 L62.7231,666.7031 Q62.0923,666.1221 61.4988,665.8523 Q60.9053,665.5825 60.2744,665.5825 Q58.9297,665.5825 58.2449,666.6492 Q57.5601,667.7158 57.5601,669.8159 Q57.5601,671.9077 58.2449,672.9744 Q58.9297,674.041 60.2744,674.041 Q60.9053,674.041 61.4988,673.7712 Q62.0923,673.5015 62.7231,672.9204 Z "/><text fill="#000000" font-family="sans-serif" font-size="12" lengthAdjust="spacingAndGlyphs" textLength="59" x="75.25" y="674.5352">GuestUser</text><line style="stroke: #A80036; stroke-width: 1.5;" x1="39" x2="143" y1="686" y2="686"/><text fill="#000000" font-family="sans-serif" font-size="11" lengthAdjust="spacingAndGlyphs" textLength="94" x="44" y="700.6348">shoeInLists: False</text><line style="stroke: #A80036; stroke-width: 1.5;" x1="39" x2="143" y1="706.9551" y2="706.9551"/><polygon fill="#FBFB77" filter="url(#f1)" points="38.5,804,38.5,844.6211,201.5,844.6211,201.5,814,191.5,804,38.5,804" style="stroke: #A80036; stroke-width: 1.0;"/><polygon fill="#FBFB77" points="38.5,804,38.5,844.6211,201.5,844.6211,201.5,814,191.5,804,119.845,804,97.2212,715.104,111.845,804,38.5,804" style="stroke: #A80036; stroke-width: 1.0;"/><line style="stroke: #A80036; stroke-width: 1.0;" x1="191.5" x2="191.5" y1="804" y2="814"/><line style="stroke: #A80036; stroke-width: 1.0;" x1="201.5" x2="191.5" y1="814" y2="814"/><text fill="#000000" font-family="sans-serif" font-size="13" lengthAdjust="spacingAndGlyphs" textLength="124" x="44.5" y="821.5684">Maintains invariant:</text><text fill="#000000" font-family="sans-serif" font-size="13" lengthAdjust="spacingAndGlyphs" textLength="17" x="44.5" y="836.8789">we</text><text fill="#000000" font-family="sans-serif" font-size="13" font-weight="bold" lengthAdjust="spacingAndGlyphs" textLength="46" x="65.5" y="836.8789">always</text><text fill="#000000" font-family="sans-serif" font-size="13" lengthAdjust="spacingAndGlyphs" textLength="71" x="115.5" y="836.8789">have a user</text><rect fill="#FEFECE" filter="url(#f1)" height="73.9102" style="stroke: #A80036; stroke-width: 1.5;" width="102" x="179" y="647.5"/><ellipse cx="194" cy="663.5" fill="#ADD1B2" rx="11" ry="11" style="stroke: #A80036; stroke-width: 1.0;"/><path d="M196.9731,669.1431 Q196.3921,669.4419 195.7529,669.5913 Q195.1138,669.7407 194.4082,669.7407 Q191.9014,669.7407 190.5815,668.0889 Q189.2617,666.437 189.2617,663.3159 Q189.2617,660.1865 190.5815,658.5347 Q191.9014,656.8828 194.4082,656.8828 Q195.1138,656.8828 195.7612,657.0322 Q196.4087,657.1816 196.9731,657.4805 L196.9731,660.2031 Q196.3423,659.6221 195.7488,659.3523 Q195.1553,659.0825 194.5244,659.0825 Q193.1797,659.0825 192.4949,660.1492 Q191.8101,661.2158 191.8101,663.3159 Q191.8101,665.4077 192.4949,666.4744 Q193.1797,667.541 194.5244,667.541 Q195.1553,667.541 195.7488,667.2712 Q196.3423,667.0015 196.9731,666.4204 Z "/><text fill="#000000" font-family="sans-serif" font-size="12" lengthAdjust="spacingAndGlyphs" textLength="70" x="208" y="668.0352">RemoteUser</text><line style="stroke: #A80036; stroke-width: 1.5;" x1="180" x2="280" y1="679.5" y2="679.5"/><ellipse cx="190" cy="691.4775" fill="none" rx="3" ry="3" style="stroke: #038048; stroke-width: 1.0;"/><text fill="#000000" font-family="sans-serif" font-size="11" lengthAdjust="spacingAndGlyphs" textLength="10" x="199" y="694.1348">id</text><ellipse cx="190" cy="704.4326" fill="none" rx="3" ry="3" style="stroke: #038048; stroke-width: 1.0;"/><text fill="#000000" font-family="sans-serif" font-size="11" lengthAdjust="spacingAndGlyphs" textLength="59" x="199" y="707.0898">origin:Data</text><line style="stroke: #A80036; stroke-width: 1.5;" x1="180" x2="280" y1="713.4102" y2="713.4102"/><polygon fill="#FBFB77" filter="url(#f1)" points="237,789,237,860.2422,381,860.2422,381,799,371,789,237,789" style="stroke: #A80036; stroke-width: 1.0;"/><polygon fill="#FBFB77" points="237,789,237,860.2422,381,860.2422,381,799,371,789,293.199,789,250.756,721.758,285.199,789,237,789" style="stroke: #A80036; stroke-width: 1.0;"/><line style="stroke: #A80036; stroke-width: 1.0;" x1="371" x2="371" y1="789" y2="799"/><line style="stroke: #A80036; stroke-width: 1.0;" x1="381" x2="371" y1="799" y2="799"/><text fill="#000000" font-family="sans-serif" font-size="13" lengthAdjust="spacingAndGlyphs" textLength="104" x="243" y="806.5684">May be stored in</text><text fill="#000000" font-family="sans-serif" font-size="13" lengthAdjust="spacingAndGlyphs" textLength="122" x="243" y="821.8789">the DB, if has some</text><text fill="#000000" font-family="sans-serif" font-size="13" lengthAdjust="spacingAndGlyphs" textLength="123" x="243" y="837.1895">long-lasting effect,</text><text fill="#000000" font-family="sans-serif" font-size="13" lengthAdjust="spacingAndGlyphs" textLength="98" x="243" y="852.5">such as API Key</text><rect fill="#FEFECE" filter="url(#f1)" height="73.9102" style="stroke: #A80036; stroke-width: 1.5;" width="84" x="400" y="506"/><ellipse cx="420.4" cy="522" fill="#ADD1B2" rx="11" ry="11" style="stroke: #A80036; stroke-width: 1.0;"/><path d="M423.3731,527.6431 Q422.7921,527.9419 422.1529,528.0913 Q421.5138,528.2407 420.8082,528.2407 Q418.3014,528.2407 416.9815,526.5889 Q415.6617,524.937 415.6617,521.8159 Q415.6617,518.6865 416.9815,517.0347 Q418.3014,515.3828 420.8082,515.3828 Q421.5138,515.3828 422.1612,515.5322 Q422.8087,515.6816 423.3731,515.9805 L423.3731,518.7031 Q422.7423,518.1221 422.1488,517.8523 Q421.5553,517.5825 420.9244,517.5825 Q419.5797,517.5825 418.8949,518.6492 Q418.2101,519.7158 418.2101,521.8159 Q418.2101,523.9077 418.8949,524.9744 Q419.5797,526.041 420.9244,526.041 Q421.5553,526.041 422.1488,525.7712 Q422.7423,525.5015 423.3731,524.9204 Z "/><text fill="#000000" font-family="sans-serif" font-size="12" lengthAdjust="spacingAndGlyphs" textLength="40" x="435.6" y="526.5352">ApiKey</text><line style="stroke: #A80036; stroke-width: 1.5;" x1="401" x2="483" y1="538" y2="538"/><ellipse cx="411" cy="549.9775" fill="none" rx="3" ry="3" style="stroke: #038048; stroke-width: 1.0;"/><text fill="#000000" font-family="sans-serif" font-size="11" lengthAdjust="spacingAndGlyphs" textLength="53" x="420" y="552.6348">key:String</text><ellipse cx="411" cy="562.9326" fill="none" rx="3" ry="3" style="stroke: #038048; stroke-width: 1.0;"/><text fill="#000000" font-family="sans-serif" font-size="11" lengthAdjust="spacingAndGlyphs" textLength="58" x="420" y="565.5898">title: String</text><line style="stroke: #A80036; stroke-width: 1.5;" x1="401" x2="483" y1="571.9102" y2="571.9102"/><rect fill="#FEFECE" filter="url(#f1)" height="60.9551" style="stroke: #A80036; stroke-width: 1.5;" width="144" x="569" y="512.5"/><ellipse cx="618.75" cy="528.5" fill="#ADD1B2" rx="11" ry="11" style="stroke: #A80036; stroke-width: 1.0;"/><path d="M621.7231,534.1431 Q621.1421,534.4419 620.5029,534.5913 Q619.8638,534.7407 619.1582,534.7407 Q616.6514,534.7407 615.3315,533.0889 Q614.0117,531.437 614.0117,528.3159 Q614.0117,525.1865 615.3315,523.5347 Q616.6514,521.8828 619.1582,521.8828 Q619.8638,521.8828 620.5112,522.0322 Q621.1587,522.1816 621.7231,522.4805 L621.7231,525.2031 Q621.0923,524.6221 620.4988,524.3523 Q619.9053,524.0825 619.2744,524.0825 Q617.9297,524.0825 617.2449,525.1492 Q616.5601,526.2158 616.5601,528.3159 Q616.5601,530.4077 617.2449,531.4744 Q617.9297,532.541 619.2744,532.541 Q619.9053,532.541 620.4988,532.2712 Q621.0923,532.0015 621.7231,531.4204 Z "/><text fill="#000000" font-family="sans-serif" font-size="12" lengthAdjust="spacingAndGlyphs" textLength="36" x="639.25" y="533.0352">Group</text><line style="stroke: #A80036; stroke-width: 1.5;" x1="570" x2="712" y1="544.5" y2="544.5"/><line style="stroke: #A80036; stroke-width: 1.5;" x1="570" x2="712" y1="552.5" y2="552.5"/><ellipse cx="580" cy="564.4775" fill="#84BE84" rx="3" ry="3" style="stroke: #038048; stroke-width: 1.0;"/><text fill="#000000" font-family="sans-serif" font-size="11" lengthAdjust="spacingAndGlyphs" textLength="118" x="589" y="567.1348">contains( a:Assignee )</text><rect fill="#FEFECE" filter="url(#f1)" height="86.8652" style="stroke: #A80036; stroke-width: 1.5;" width="138" x="734" y="641"/><ellipse cx="762.05" cy="657" fill="#ADD1B2" rx="11" ry="11" style="stroke: #A80036; stroke-width: 1.0;"/><path d="M765.0231,662.6431 Q764.4421,662.9419 763.8029,663.0913 Q763.1638,663.2407 762.4582,663.2407 Q759.9514,663.2407 758.6315,661.5889 Q757.3117,659.937 757.3117,656.8159 Q757.3117,653.6865 758.6315,652.0347 Q759.9514,650.3828 762.4582,650.3828 Q763.1638,650.3828 763.8112,650.5322 Q764.4587,650.6816 765.0231,650.9805 L765.0231,653.7031 Q764.3923,653.1221 763.7988,652.8523 Q763.2053,652.5825 762.5744,652.5825 Q761.2297,652.5825 760.5449,653.6492 Q759.8601,654.7158 759.8601,656.8159 Q759.8601,658.9077 760.5449,659.9744 Q761.2297,661.041 762.5744,661.041 Q763.2053,661.041 763.7988,660.7712 Q764.3923,660.5015 765.0231,659.9204 Z "/><text fill="#000000" font-family="sans-serif" font-size="12" lengthAdjust="spacingAndGlyphs" textLength="77" x="778.95" y="661.5352">ExplicitGroup</text><line style="stroke: #A80036; stroke-width: 1.5;" x1="735" x2="871" y1="673" y2="673"/><ellipse cx="745" cy="684.9775" fill="none" rx="3" ry="3" style="stroke: #038048; stroke-width: 1.0;"/><text fill="#000000" font-family="sans-serif" font-size="11" lengthAdjust="spacingAndGlyphs" textLength="79" x="754" y="687.6348">list: Assignee[]</text><line style="stroke: #A80036; stroke-width: 1.5;" x1="735" x2="871" y1="693.9551" y2="693.9551"/><ellipse cx="745" cy="705.9326" fill="#84BE84" rx="3" ry="3" style="stroke: #038048; stroke-width: 1.0;"/><text fill="#000000" font-family="sans-serif" font-size="11" lengthAdjust="spacingAndGlyphs" textLength="92" x="754" y="708.5898">add( a:Assignee )</text><ellipse cx="745" cy="718.8877" fill="#84BE84" rx="3" ry="3" style="stroke: #038048; stroke-width: 1.0;"/><text fill="#000000" font-family="sans-serif" font-size="11" lengthAdjust="spacingAndGlyphs" textLength="112" x="754" y="721.5449">remove( a:Assignee )</text><rect fill="#FEFECE" filter="url(#f1)" height="48" style="stroke: #A80036; stroke-width: 1.5;" width="107" x="441.5" y="660.5"/><ellipse cx="456.5" cy="676.5" fill="#ADD1B2" rx="11" ry="11" style="stroke: #A80036; stroke-width: 1.0;"/><path d="M459.4731,682.1431 Q458.8921,682.4419 458.2529,682.5913 Q457.6138,682.7407 456.9082,682.7407 Q454.4014,682.7407 453.0815,681.0889 Q451.7617,679.437 451.7617,676.3159 Q451.7617,673.1865 453.0815,671.5347 Q454.4014,669.8828 456.9082,669.8828 Q457.6138,669.8828 458.2612,670.0322 Q458.9087,670.1816 459.4731,670.4805 L459.4731,673.2031 Q458.8423,672.6221 458.2488,672.3523 Q457.6553,672.0825 457.0244,672.0825 Q455.6797,672.0825 454.9949,673.1492 Q454.3101,674.2158 454.3101,676.3159 Q454.3101,678.4077 454.9949,679.4744 Q455.6797,680.541 457.0244,680.541 Q457.6553,680.541 458.2488,680.2712 Q458.8423,680.0015 459.4731,679.4204 Z "/><text fill="#000000" font-family="sans-serif" font-size="12" lengthAdjust="spacingAndGlyphs" textLength="75" x="470.5" y="681.0352">LogicalGroup</text><line style="stroke: #A80036; stroke-width: 1.5;" x1="442.5" x2="547.5" y1="692.5" y2="692.5"/><line style="stroke: #A80036; stroke-width: 1.5;" x1="442.5" x2="547.5" y1="700.5" y2="700.5"/><rect fill="#FEFECE" filter="url(#f1)" height="48" style="stroke: #A80036; stroke-width: 1.5;" width="126" x="549" y="800.5"/><ellipse cx="564" cy="816.5" fill="#ADD1B2" rx="11" ry="11" style="stroke: #A80036; stroke-width: 1.0;"/><path d="M566.9731,822.1431 Q566.3921,822.4419 565.7529,822.5913 Q565.1138,822.7407 564.4082,822.7407 Q561.9014,822.7407 560.5815,821.0889 Q559.2617,819.437 559.2617,816.3159 Q559.2617,813.1865 560.5815,811.5347 Q561.9014,809.8828 564.4082,809.8828 Q565.1138,809.8828 565.7612,810.0322 Q566.4087,810.1816 566.9731,810.4805 L566.9731,813.2031 Q566.3423,812.6221 565.7488,812.3523 Q565.1553,812.0825 564.5244,812.0825 Q563.1797,812.0825 562.4949,813.1492 Q561.8101,814.2158 561.8101,816.3159 Q561.8101,818.4077 562.4949,819.4744 Q563.1797,820.541 564.5244,820.541 Q565.1553,820.541 565.7488,820.2712 Q566.3423,820.0015 566.9731,819.4204 Z "/><text fill="#000000" font-family="sans-serif" font-size="12" lengthAdjust="spacingAndGlyphs" textLength="94" x="578" y="821.0352">RegisteredUsers</text><line style="stroke: #A80036; stroke-width: 1.5;" x1="550" x2="674" y1="832.5" y2="832.5"/><line style="stroke: #A80036; stroke-width: 1.5;" x1="550" x2="674" y1="840.5" y2="840.5"/><rect fill="#FEFECE" filter="url(#f1)" height="48" style="stroke: #A80036; stroke-width: 1.5;" width="97" x="416.5" y="800.5"/><ellipse cx="431.5" cy="816.5" fill="#ADD1B2" rx="11" ry="11" style="stroke: #A80036; stroke-width: 1.0;"/><path d="M434.4731,822.1431 Q433.8921,822.4419 433.2529,822.5913 Q432.6138,822.7407 431.9082,822.7407 Q429.4014,822.7407 428.0815,821.0889 Q426.7617,819.437 426.7617,816.3159 Q426.7617,813.1865 428.0815,811.5347 Q429.4014,809.8828 431.9082,809.8828 Q432.6138,809.8828 433.2612,810.0322 Q433.9087,810.1816 434.4731,810.4805 L434.4731,813.2031 Q433.8423,812.6221 433.2488,812.3523 Q432.6553,812.0825 432.0244,812.0825 Q430.6797,812.0825 429.9949,813.1492 Q429.3101,814.2158 429.3101,816.3159 Q429.3101,818.4077 429.9949,819.4744 Q430.6797,820.541 432.0244,820.541 Q432.6553,820.541 433.2488,820.2712 Q433.8423,820.0015 434.4731,819.4204 Z "/><text fill="#000000" font-family="sans-serif" font-size="12" lengthAdjust="spacingAndGlyphs" textLength="65" x="445.5" y="821.0352">GuestUsers</text><line style="stroke: #A80036; stroke-width: 1.5;" x1="417.5" x2="512.5" y1="832.5" y2="832.5"/><line style="stroke: #A80036; stroke-width: 1.5;" x1="417.5" x2="512.5" y1="840.5" y2="840.5"/><rect fill="#FEFECE" filter="url(#f1)" height="48" style="stroke: #A80036; stroke-width: 1.5;" width="115" x="583.5" y="660.5"/><ellipse cx="598.5" cy="676.5" fill="#ADD1B2" rx="11" ry="11" style="stroke: #A80036; stroke-width: 1.0;"/><path d="M601.4731,682.1431 Q600.8921,682.4419 600.2529,682.5913 Q599.6138,682.7407 598.9082,682.7407 Q596.4014,682.7407 595.0815,681.0889 Q593.7617,679.437 593.7617,676.3159 Q593.7617,673.1865 595.0815,671.5347 Q596.4014,669.8828 598.9082,669.8828 Q599.6138,669.8828 600.2612,670.0322 Q600.9087,670.1816 601.4731,670.4805 L601.4731,673.2031 Q600.8423,672.6221 600.2488,672.3523 Q599.6553,672.0825 599.0244,672.0825 Q597.6797,672.0825 596.9949,673.1492 Q596.3101,674.2158 596.3101,676.3159 Q596.3101,678.4077 596.9949,679.4744 Q597.6797,680.541 599.0244,680.541 Q599.6553,680.541 600.2488,680.2712 Q600.8423,680.0015 601.4731,679.4204 Z "/><text fill="#000000" font-family="sans-serif" font-size="12" lengthAdjust="spacingAndGlyphs" textLength="83" x="612.5" y="681.0352">ExternalGroup</text><line style="stroke: #A80036; stroke-width: 1.5;" x1="584.5" x2="697.5" y1="692.5" y2="692.5"/><line style="stroke: #A80036; stroke-width: 1.5;" x1="584.5" x2="697.5" y1="700.5" y2="700.5"/><polygon fill="#FBFB77" filter="url(#f1)" points="710.5,789,710.5,860.2422,855.5,860.2422,855.5,799,845.5,789,710.5,789" style="stroke: #A80036; stroke-width: 1.0;"/><polygon fill="#FBFB77" points="710.5,789,710.5,860.2422,855.5,860.2422,855.5,799,845.5,789,751.427,789,664.768,708.598,743.427,789,710.5,789" style="stroke: #A80036; stroke-width: 1.0;"/><line style="stroke: #A80036; stroke-width: 1.0;" x1="845.5" x2="845.5" y1="789" y2="799"/><line style="stroke: #A80036; stroke-width: 1.0;" x1="855.5" x2="845.5" y1="799" y2="799"/><text fill="#000000" font-family="sans-serif" font-size="13" lengthAdjust="spacingAndGlyphs" textLength="84" x="716.5" y="806.5684">Maps a set of</text><text fill="#000000" font-family="sans-serif" font-size="13" lengthAdjust="spacingAndGlyphs" textLength="124" x="716.5" y="821.8789">external credentials</text><text fill="#000000" font-family="sans-serif" font-size="13" lengthAdjust="spacingAndGlyphs" textLength="84" x="716.5" y="837.1895">to an internal</text><text fill="#000000" font-family="sans-serif" font-size="13" lengthAdjust="spacingAndGlyphs" textLength="93" x="716.5" y="852.5">Asignee object</text><path d="M549.63,429.568 C480.72,458.409 387.094,497.595 330.524,521.272 " fill="none" style="stroke: #A80036; stroke-width: 1.0;"/><polygon fill="none" points="547.208,422.993,568.36,421.729,552.613,435.908,547.208,422.993" style="stroke: #A80036; stroke-width: 1.0;"/><path d="M607.434,448.431 C605.343,457.542 604.809,466.961 607,476 C610.037,488.527 615.889,501.337 621.894,512.299 " fill="none" style="stroke: #A80036; stroke-width: 1.0;"/><polygon fill="none" points="600.911,445.875,614.044,429.246,614.148,450.435,600.911,445.875" style="stroke: #A80036; stroke-width: 1.0;"/><path d="M640.202,512.273 C639.602,489.914 638.772,459.003 638.107,434.252 " fill="none" style="stroke: #A80036; stroke-width: 1.0; stroke-dasharray: 7.0,7.0;"/><polygon fill="#A80036" points="637.968,429.069,634.2111,438.1732,638.1023,434.0672,642.2083,437.9583,637.968,429.069" style="stroke: #A80036; stroke-width: 1.0;"/><text fill="#000000" font-family="sans-serif" font-size="13" lengthAdjust="spacingAndGlyphs" textLength="96" x="640" y="472.5684">&lt;&lt;Contains&gt;&gt;</text><path d="M224.337,585.602 C194.376,607.6 158.303,634.086 131.236,653.958 " fill="none" style="stroke: #A80036; stroke-width: 1.0;"/><polygon fill="none" points="220.442,579.778,240.706,573.584,228.727,591.063,220.442,579.778" style="stroke: #A80036; stroke-width: 1.0;"/><path d="M307.925,590.95 C318.463,609.327 330.362,630.076 340.219,647.263 " fill="none" style="stroke: #A80036; stroke-width: 1.0;"/><polygon fill="none" points="301.843,594.416,297.966,573.584,313.988,587.452,301.843,594.416" style="stroke: #A80036; stroke-width: 1.0;"/><path d="M263.309,592.391 C256.723,610.405 249.368,630.523 243.248,647.263 " fill="none" style="stroke: #A80036; stroke-width: 1.0;"/><polygon fill="none" points="256.742,589.965,270.184,573.584,269.891,594.772,256.742,589.965" style="stroke: #A80036; stroke-width: 1.0;"/><path d="M690.634,586.741 C710.636,603.965 733.656,623.787 753.632,640.988 " fill="none" style="stroke: #A80036; stroke-width: 1.0;"/><polygon fill="none" points="685.944,591.939,675.356,573.584,695.079,581.33,685.944,591.939" style="stroke: #A80036; stroke-width: 1.0;"/><path d="M595.499,587.475 C570.256,611.595 539.874,640.624 519.17,660.406 " fill="none" style="stroke: #A80036; stroke-width: 1.0;"/><polygon fill="none" points="590.741,582.34,610.037,573.584,600.413,592.462,590.741,582.34" style="stroke: #A80036; stroke-width: 1.0;"/><path d="M641,593.687 C641,616.435 641,642.295 641,660.406 " fill="none" style="stroke: #A80036; stroke-width: 1.0;"/><polygon fill="none" points="634,593.584,641,573.584,648,593.584,634,593.584" style="stroke: #A80036; stroke-width: 1.0;"/><path d="M527.628,723.985 C548.431,748.521 574.7,779.505 592.353,800.3265 " fill="none" style="stroke: #A80036; stroke-width: 1.0;"/><polygon fill="none" points="522.178,728.38,514.583,708.598,532.856,719.326,522.178,728.38" style="stroke: #A80036; stroke-width: 1.0;"/><path d="M485.702,728.272 C480.534,752.046 474.304,780.7 470.038,800.3265 " fill="none" style="stroke: #A80036; stroke-width: 1.0;"/><polygon fill="none" points="478.89,726.655,489.979,708.598,492.57,729.629,478.89,726.655" style="stroke: #A80036; stroke-width: 1.0;"/><path d="M343.917,543 C362.552,543 381.187,543 399.822,543 " fill="none" style="stroke: #A80036; stroke-width: 1.0;"/><polygon fill="#A80036" points="330.684,543,336.684,547,342.684,543,336.684,539,330.684,543" style="stroke: #A80036; stroke-width: 1.0;"/><text fill="#000000" font-family="sans-serif" font-size="13" lengthAdjust="spacingAndGlyphs" textLength="8" x="338.5688" y="539.4929">1</text><text fill="#000000" font-family="sans-serif" font-size="13" lengthAdjust="spacingAndGlyphs" textLength="22" x="370.0115" y="539.4962">0..*</text><path d="M660.567,94.5 C686.786,94.5 726.147,94.5 757.16,94.5 " fill="none" style="stroke: #A80036; stroke-width: 1.0;"/><polygon fill="#A80036" points="762.454,94.5,753.454,90.5,757.454,94.5,753.454,98.5,762.454,94.5" style="stroke: #A80036; stroke-width: 1.0;"/><text fill="#000000" font-family="sans-serif" font-size="13" lengthAdjust="spacingAndGlyphs" textLength="65" x="679" y="88.0684">Defined at</text><path d="M772.045,121.883 C741.107,146.652 695.288,183.335 665.784,206.956 " fill="none" style="stroke: #A80036; stroke-width: 1.0;"/><polygon fill="#A80036" points="776.12,118.621,766.5942,121.1228,772.2166,121.7457,771.5937,127.3681,776.12,118.621" style="stroke: #A80036; stroke-width: 1.0;"/><text fill="#000000" font-family="sans-serif" font-size="13" lengthAdjust="spacingAndGlyphs" textLength="14" x="722" y="173.5684">At</text><text fill="#000000" font-family="sans-serif" font-size="13" lengthAdjust="spacingAndGlyphs" textLength="8" x="760.1055" y="138.9348">1</text><path d="M633.049,123.708 C633.965,148.345 635.278,183.678 636.135,206.73 " fill="none" style="stroke: #A80036; stroke-width: 1.0;"/><polygon fill="#A80036" points="632.86,118.621,629.1971,127.7634,633.0457,123.6175,637.1916,127.4662,632.86,118.621" style="stroke: #A80036; stroke-width: 1.0;"/><text fill="#000000" font-family="sans-serif" font-size="13" lengthAdjust="spacingAndGlyphs" textLength="50" x="635" y="173.5684">Assigns</text><text fill="#000000" font-family="sans-serif" font-size="13" lengthAdjust="spacingAndGlyphs" textLength="8" x="624.0946" y="138.9348">1</text><path d="M637,255.12 C637,279.871 637,319.645 637,349.78 " fill="none" style="stroke: #A80036; stroke-width: 1.0;"/><polygon fill="#A80036" points="637,354.908,641,345.908,637,349.908,633,345.908,637,354.908" style="stroke: #A80036; stroke-width: 1.0;"/><text fill="#000000" font-family="sans-serif" font-size="13" lengthAdjust="spacingAndGlyphs" textLength="16" x="638" y="300.5684">To</text><text fill="#000000" font-family="sans-serif" font-size="13" lengthAdjust="spacingAndGlyphs" textLength="8" x="628.2625" y="344.2916">1</text><path d="M782.366,628.301 C780.447,622.493 778.618,616.648 777,611 C757.958,544.545 783.938,515.425 744,459 C736.576,448.511 726.908,439.356 716.42,431.476 " fill="none" style="stroke: #A80036; stroke-width: 1.0;"/><polygon fill="#A80036" points="705.711,424.019,710.8112,432.4444,709.8143,426.8761,715.3826,425.8792,705.711,424.019" style="stroke: #A80036; stroke-width: 1.0;"/><line style="stroke: #A80036; stroke-width: 1.0;" x1="709.8143" x2="716.379" y1="426.8761" y2="431.448"/><polygon fill="none" points="786.666,640.865,788.5082,633.8932,782.7812,629.5112,780.939,636.483,786.666,640.865" style="stroke: #A80036; stroke-width: 1.0;"/><path d="M803,640.927 C803,549.626 803,337.074 803,260.3 " fill="none" style="stroke: #A80036; stroke-width: 1.0;"/><polygon fill="#A80036" points="803,255.011,799,264.011,803,260.011,807,264.011,803,255.011" style="stroke: #A80036; stroke-width: 1.0;"/><text fill="#000000" font-family="sans-serif" font-size="13" lengthAdjust="spacingAndGlyphs" textLength="67" x="804" y="472.5684">Defined At</text><path d="M804.354,138.959 C804.019,161.491 803.623,188.115 803.346,206.73 " fill="none" style="stroke: #A80036; stroke-width: 1.0;"/><polygon fill="none" points="797.359,138.515,804.656,118.621,811.358,138.723,797.359,138.515" style="stroke: #A80036; stroke-width: 1.0;"/></g></svg>