<?xml version="1.0" encoding="UTF-8" standalone="yes"?><svg xmlns="http://www.w3.org/2000/svg" xmlns:xlink="http://www.w3.org/1999/xlink" height="824pt" style="width:1216px;height:824px;" version="1.1" viewBox="0 0 1216 824" width="1216pt"><defs><filter height="300%" id="f1" width="300%" x="-1" y="-1"><feGaussianBlur result="blurOut" stdDeviation="2.0"/><feColorMatrix in="blurOut" result="blurOut2" type="matrix" values="0 0 0 0 0 0 0 0 0 0 0 0 0 0 0 0 0 0 .4 0"/><feOffset dx="4.0" dy="4.0" in="blurOut2" result="blurOut3"/><feBlend in="SourceGraphic" in2="blurOut3" mode="normal"/></filter></defs><g><text fill="#000000" font-family="sans-serif" font-size="14" font-weight="bold" lengthAdjust="spacingAndGlyphs" textLength="227" x="495" y="20.5352">Authentication in Dataverse 4.0</text><rect fill="#FFFFFF" filter="url(#f1)" height="208.1289" style="stroke: #000000; stroke-width: 2.0;" width="466" x="741.5" y="512.0137"/><rect fill="#FFFFFF" height="132.1973" style="stroke: none; stroke-width: 1.0;" width="466" x="741.5" y="587.9453"/><rect fill="#DDDDDD" height="792" style="stroke: #A80036; stroke-width: 1.0;" width="920.5" x="281" y="31.4883"/><text fill="#000000" font-family="sans-serif" font-size="13" font-weight="bold" lengthAdjust="spacingAndGlyphs" textLength="116" x="683.25" y="44.0566">DataverseSystem</text><line style="stroke: #A80036; stroke-width: 1.0; stroke-dasharray: 5.0,5.0;" x1="23" x2="23" y1="113.9766" y2="737.1426"/><line style="stroke: #A80036; stroke-width: 1.0; stroke-dasharray: 5.0,5.0;" x1="211" x2="211" y1="113.9766" y2="737.1426"/><line style="stroke: #A80036; stroke-width: 1.0; stroke-dasharray: 5.0,5.0;" x1="334" x2="334" y1="113.9766" y2="737.1426"/><line style="stroke: #A80036; stroke-width: 1.0; stroke-dasharray: 5.0,5.0;" x1="479.5" x2="479.5" y1="113.9766" y2="737.1426"/><line style="stroke: #A80036; stroke-width: 1.0; stroke-dasharray: 5.0,5.0;" x1="657.5" x2="657.5" y1="113.9766" y2="737.1426"/><line style="stroke: #A80036; stroke-width: 1.0; stroke-dasharray: 5.0,5.0;" x1="792.5" x2="792.5" y1="113.9766" y2="737.1426"/><line style="stroke: #A80036; stroke-width: 1.0; stroke-dasharray: 5.0,5.0;" x1="1179.5" x2="1179.5" y1="113.9766" y2="737.1426"/><text fill="#000000" font-family="sans-serif" font-size="14" lengthAdjust="spacingAndGlyphs" textLength="31" x="5" y="111.0234">User</text><ellipse cx="23.5" cy="40.4883" fill="#FEFECE" filter="url(#f1)" rx="8" ry="8" style="stroke: #A80036; stroke-width: 2.0;"/><path d="M23.5,48.4883 L23.5,75.4883 M10.5,56.4883 L36.5,56.4883 M23.5,75.4883 L10.5,90.4883 M23.5,75.4883 L36.5,90.4883 " fill="#FEFECE" filter="url(#f1)" style="stroke: #A80036; stroke-width: 2.0;"/><text fill="#000000" font-family="sans-serif" font-size="14" lengthAdjust="spacingAndGlyphs" textLength="31" x="5" y="749.5352">User</text><ellipse cx="23.5" cy="762.4883" fill="#FEFECE" filter="url(#f1)" rx="8" ry="8" style="stroke: #A80036; stroke-width: 2.0;"/><path d="M23.5,770.4883 L23.5,797.4883 M10.5,778.4883 L36.5,778.4883 M23.5,797.4883 L10.5,812.4883 M23.5,797.4883 L36.5,812.4883 " fill="#FEFECE" filter="url(#f1)" style="stroke: #A80036; stroke-width: 2.0;"/><rect fill="#FEFECE" filter="url(#f1)" height="46.9766" style="stroke: #A80036; stroke-width: 1.5;" width="123" x="148" y="62"/><text fill="#000000" font-family="sans-serif" font-size="14" lengthAdjust="spacingAndGlyphs" textLength="81" x="169" y="82.5352">AuthSystem</text><text fill="#000000" font-family="sans-serif" font-size="14" lengthAdjust="spacingAndGlyphs" textLength="109" x="155" y="99.0234">May be external</text><rect fill="#FEFECE" filter="url(#f1)" height="46.9766" style="stroke: #A80036; stroke-width: 1.5;" width="123" x="148" y="736"/><text fill="#000000" font-family="sans-serif" font-size="14" lengthAdjust="spacingAndGlyphs" textLength="81" x="169" y="756.5352">AuthSystem</text><text fill="#000000" font-family="sans-serif" font-size="14" lengthAdjust="spacingAndGlyphs" textLength="109" x="155" y="773.0234">May be external</text><rect fill="#FEFECE" filter="url(#f1)" height="30.4883" style="stroke: #A80036; stroke-width: 1.5;" width="95" x="285" y="78.4883"/><text fill="#000000" font-family="sans-serif" font-size="14" lengthAdjust="spacingAndGlyphs" textLength="81" x="292" y="99.0234">DataverseUI</text><rect fill="#FEFECE" filter="url(#f1)" height="30.4883" style="stroke: #A80036; stroke-width: 1.5;" width="95" x="285" y="736"/><text fill="#000000" font-family="sans-serif" font-size="14" lengthAdjust="spacingAndGlyphs" textLength="81" x="292" y="756.5352">DataverseUI</text><rect fill="#FEFECE" filter="url(#f1)" height="30.4883" style="stroke: #A80036; stroke-width: 1.5;" width="166" x="394.5" y="78.4883"/><text fill="#000000" font-family="sans-serif" font-size="14" lengthAdjust="spacingAndGlyphs" textLength="152" x="401.5" y="99.0234">RoleAssigneeManager</text><rect fill="#FEFECE" filter="url(#f1)" height="30.4883" style="stroke: #A80036; stroke-width: 1.5;" width="166" x="394.5" y="736"/><text fill="#000000" font-family="sans-serif" font-size="14" lengthAdjust="spacingAndGlyphs" textLength="152" x="401.5" y="756.5352">RoleAssigneeManager</text><rect fill="#FEFECE" filter="url(#f1)" height="30.4883" style="stroke: #A80036; stroke-width: 1.5;" width="163" x="574.5" y="78.4883"/><text fill="#000000" font-family="sans-serif" font-size="14" lengthAdjust="spacingAndGlyphs" textLength="149" x="581.5" y="99.0234">RoleAssigneeProvider</text><rect fill="#FEFECE" filter="url(#f1)" height="30.4883" style="stroke: #A80036; stroke-width: 1.5;" width="163" x="574.5" y="736"/><text fill="#000000" font-family="sans-serif" font-size="14" lengthAdjust="spacingAndGlyphs" textLength="149" x="581.5" y="756.5352">RoleAssigneeProvider</text><rect fill="#FEFECE" filter="url(#f1)" height="30.4883" style="stroke: #A80036; stroke-width: 1.5;" width="78" x="751.5" y="78.4883"/><text fill="#000000" font-family="sans-serif" font-size="14" lengthAdjust="spacingAndGlyphs" textLength="64" x="758.5" y="99.0234">UserBean</text><rect fill="#FEFECE" filter="url(#f1)" height="30.4883" style="stroke: #A80036; stroke-width: 1.5;" width="78" x="751.5" y="736"/><text fill="#000000" font-family="sans-serif" font-size="14" lengthAdjust="spacingAndGlyphs" textLength="64" x="758.5" y="756.5352">UserBean</text><text fill="#000000" font-family="sans-serif" font-size="14" lengthAdjust="spacingAndGlyphs" textLength="18" x="1167.5" y="111.0234">db</text><path d="M1161.5,65.4883 C1161.5,55.4883 1179.5,55.4883 1179.5,55.4883 C1179.5,55.4883 1197.5,55.4883 1197.5,65.4883 L1197.5,87.4883 C1197.5,97.4883 1179.5,97.4883 1179.5,97.4883 C1179.5,97.4883 1161.5,97.4883 1161.5,87.4883 L1161.5,65.4883 " fill="#FEFECE" filter="url(#f1)" style="stroke: #A80036; stroke-width: 1.5;"/><path d="M1161.5,65.4883 C1161.5,75.4883 1179.5,75.4883 1179.5,75.4883 C1179.5,75.4883 1197.5,75.4883 1197.5,65.4883 " fill="none" style="stroke: #A80036; stroke-width: 1.5;"/><text fill="#000000" font-family="sans-serif" font-size="14" lengthAdjust="spacingAndGlyphs" textLength="18" x="1167.5" y="749.5352">db</text><path d="M1161.5,762.4883 C1161.5,752.4883 1179.5,752.4883 1179.5,752.4883 C1179.5,752.4883 1197.5,752.4883 1197.5,762.4883 L1197.5,784.4883 C1197.5,794.4883 1179.5,794.4883 1179.5,794.4883 C1179.5,794.4883 1161.5,794.4883 1161.5,784.4883 L1161.5,762.4883 " fill="#FEFECE" filter="url(#f1)" style="stroke: #A80036; stroke-width: 1.5;"/><path d="M1161.5,762.4883 C1161.5,772.4883 1179.5,772.4883 1179.5,772.4883 C1179.5,772.4883 1197.5,772.4883 1197.5,762.4883 " fill="none" style="stroke: #A80036; stroke-width: 1.5;"/><polygon fill="#A80036" points="322.5,140.9766,332.5,144.9766,322.5,148.9766,326.5,144.9766" style="stroke: #A80036; stroke-width: 1.0;"/><line style="stroke: #A80036; stroke-width: 1.0; stroke-dasharray: 2.0,2.0;" x1="23.5" x2="328.5" y1="144.9766" y2="144.9766"/><text fill="#0000FF" font-family="sans-serif" font-size="13" lengthAdjust="spacingAndGlyphs" textLength="8" x="30.5" y="140.5449">1</text><text fill="#000000" font-family="sans-serif" font-size="13" lengthAdjust="spacingAndGlyphs" textLength="35" x="42.5" y="140.5449">GET /</text><polygon fill="#A80036" points="34.5,170.2871,24.5,174.2871,34.5,178.2871,30.5,174.2871" style="stroke: #A80036; stroke-width: 1.0;"/><line style="stroke: #A80036; stroke-width: 1.0; stroke-dasharray: 2.0,2.0;" x1="28.5" x2="333.5" y1="174.2871" y2="174.2871"/><text fill="#0000FF" font-family="sans-serif" font-size="13" lengthAdjust="spacingAndGlyphs" textLength="8" x="40.5" y="169.8555">2</text><text fill="#000000" font-family="sans-serif" font-size="13" lengthAdjust="spacingAndGlyphs" textLength="135" x="52.5" y="169.8555">"Select Login System"</text><polygon fill="#A80036" points="322.5,199.5977,332.5,203.5977,322.5,207.5977,326.5,203.5977" style="stroke: #A80036; stroke-width: 1.0;"/><line style="stroke: #A80036; stroke-width: 1.0; stroke-dasharray: 2.0,2.0;" x1="23.5" x2="328.5" y1="203.5977" y2="203.5977"/><text fill="#0000FF" font-family="sans-serif" font-size="13" lengthAdjust="spacingAndGlyphs" textLength="8" x="30.5" y="199.166">3</text><text fill="#000000" font-family="sans-serif" font-size="13" lengthAdjust="spacingAndGlyphs" textLength="73" x="42.5" y="199.166">authSystem</text><polygon fill="#A80036" points="467.5,228.9082,477.5,232.9082,467.5,236.9082,471.5,232.9082" style="stroke: #A80036; stroke-width: 1.0;"/><line style="stroke: #A80036; stroke-width: 1.0; stroke-dasharray: 2.0,2.0;" x1="334.5" x2="473.5" y1="232.9082" y2="232.9082"/><text fill="#0000FF" font-family="sans-serif" font-size="13" lengthAdjust="spacingAndGlyphs" textLength="8" x="341.5" y="228.4766">4</text><text fill="#000000" font-family="sans-serif" font-size="13" lengthAdjust="spacingAndGlyphs" textLength="109" x="353.5" y="228.4766">get( authSystem )</text><polygon fill="#A80036" points="345.5,258.2188,335.5,262.2188,345.5,266.2188,341.5,262.2188" style="stroke: #A80036; stroke-width: 1.0;"/><line style="stroke: #A80036; stroke-width: 1.0; stroke-dasharray: 2.0,2.0;" x1="339.5" x2="478.5" y1="262.2188" y2="262.2188"/><text fill="#0000FF" font-family="sans-serif" font-size="13" lengthAdjust="spacingAndGlyphs" textLength="8" x="351.5" y="257.7871">5</text><text fill="#000000" font-family="sans-serif" font-size="13" lengthAdjust="spacingAndGlyphs" textLength="73" x="363.5" y="257.7871">authSystem</text><polygon fill="#A80036" points="34.5,287.5293,24.5,291.5293,34.5,295.5293,30.5,291.5293" style="stroke: #A80036; stroke-width: 1.0;"/><line style="stroke: #A80036; stroke-width: 1.0; stroke-dasharray: 2.0,2.0;" x1="28.5" x2="333.5" y1="291.5293" y2="291.5293"/><text fill="#0000FF" font-family="sans-serif" font-size="13" lengthAdjust="spacingAndGlyphs" textLength="8" x="40.5" y="287.0977">6</text><text fill="#000000" font-family="sans-serif" font-size="13" lengthAdjust="spacingAndGlyphs" textLength="142" x="52.5" y="287.0977">redirect to authSystem</text><polygon fill="#A80036" points="199.5,316.8398,209.5,320.8398,199.5,324.8398,203.5,320.8398" style="stroke: #A80036; stroke-width: 1.0;"/><line style="stroke: #A80036; stroke-width: 1.0; stroke-dasharray: 2.0,2.0;" x1="23.5" x2="205.5" y1="320.8398" y2="320.8398"/><text fill="#0000FF" font-family="sans-serif" font-size="13" lengthAdjust="spacingAndGlyphs" textLength="8" x="30.5" y="316.4082">7</text><text fill="#000000" font-family="sans-serif" font-size="13" lengthAdjust="spacingAndGlyphs" textLength="69" x="42.5" y="316.4082">credentials</text><polygon fill="#A80036" points="34.5,346.1504,24.5,350.1504,34.5,354.1504,30.5,350.1504" style="stroke: #A80036; stroke-width: 1.0;"/><line style="stroke: #A80036; stroke-width: 1.0; stroke-dasharray: 2.0,2.0;" x1="28.5" x2="210.5" y1="350.1504" y2="350.1504"/><text fill="#0000FF" font-family="sans-serif" font-size="13" lengthAdjust="spacingAndGlyphs" textLength="8" x="40.5" y="345.7188">8</text><text fill="#000000" font-family="sans-serif" font-size="13" lengthAdjust="spacingAndGlyphs" textLength="152" x="52.5" y="345.7188">Ok, back to DataverseUI</text><polygon fill="#A80036" points="322.5,375.4609,332.5,379.4609,322.5,383.4609,326.5,379.4609" style="stroke: #A80036; stroke-width: 1.0;"/><line style="stroke: #A80036; stroke-width: 1.0; stroke-dasharray: 2.0,2.0;" x1="23.5" x2="328.5" y1="379.4609" y2="379.4609"/><text fill="#0000FF" font-family="sans-serif" font-size="13" lengthAdjust="spacingAndGlyphs" textLength="8" x="30.5" y="375.0293">9</text><text fill="#000000" font-family="sans-serif" font-size="13" lengthAdjust="spacingAndGlyphs" textLength="121" x="42.5" y="375.0293">autenticated( data )</text><polygon fill="#A80036" points="646,404.7715,656,408.7715,646,412.7715,650,408.7715" style="stroke: #A80036; stroke-width: 1.0;"/><line style="stroke: #A80036; stroke-width: 1.0; stroke-dasharray: 2.0,2.0;" x1="334.5" x2="652" y1="408.7715" y2="408.7715"/><text fill="#0000FF" font-family="sans-serif" font-size="13" lengthAdjust="spacingAndGlyphs" textLength="16" x="341.5" y="404.3398">10</text><text fill="#000000" font-family="sans-serif" font-size="13" lengthAdjust="spacingAndGlyphs" textLength="113" x="361.5" y="404.3398">getUserObj( data )</text><polygon fill="#A80036" points="345.5,434.082,335.5,438.082,345.5,442.082,341.5,438.082" style="stroke: #A80036; stroke-width: 1.0;"/><line style="stroke: #A80036; stroke-width: 1.0; stroke-dasharray: 2.0,2.0;" x1="339.5" x2="657" y1="438.082" y2="438.082"/><text fill="#0000FF" font-family="sans-serif" font-size="13" lengthAdjust="spacingAndGlyphs" textLength="16" x="351.5" y="433.6504">11</text><text fill="#000000" font-family="sans-serif" font-size="13" lengthAdjust="spacingAndGlyphs" textLength="49" x="371.5" y="433.6504">userObj</text><polygon fill="#A80036" points="780.5,463.3926,790.5,467.3926,780.5,471.3926,784.5,467.3926" style="stroke: #A80036; stroke-width: 1.0;"/><line style="stroke: #A80036; stroke-width: 1.0; stroke-dasharray: 2.0,2.0;" x1="334.5" x2="786.5" y1="467.3926" y2="467.3926"/><text fill="#0000FF" font-family="sans-serif" font-size="13" lengthAdjust="spacingAndGlyphs" textLength="16" x="341.5" y="462.9609">12</text><text fill="#000000" font-family="sans-serif" font-size="13" lengthAdjust="spacingAndGlyphs" textLength="112" x="361.5" y="462.9609">setUser( userObj )</text><polygon fill="#A80036" points="1167.5,492.7031,1177.5,496.7031,1167.5,500.7031,1171.5,496.7031" style="stroke: #A80036; stroke-width: 1.0;"/><line style="stroke: #A80036; stroke-width: 1.0; stroke-dasharray: 2.0,2.0;" x1="792.5" x2="1173.5" y1="496.7031" y2="496.7031"/><text fill="#0000FF" font-family="sans-serif" font-size="13" lengthAdjust="spacingAndGlyphs" textLength="16" x="799.5" y="492.2715">13</text><text fill="#000000" font-family="sans-serif" font-size="13" lengthAdjust="spacingAndGlyphs" textLength="241" x="819.5" y="492.2715">lookupAuthenticatedUser( userObj.id )</text><rect fill="none" height="208.1289" style="stroke: #000000; stroke-width: 2.0;" width="466" x="741.5" y="512.0137"/><polygon fill="#EEEEEE" points="741.5,512.0137,803.5,512.0137,803.5,519.0137,793.5,529.0137,741.5,529.0137,741.5,512.0137" style="stroke: #000000; stroke-width: 2.0;"/><text fill="#000000" font-family="sans-serif" font-size="13" font-weight="bold" lengthAdjust="spacingAndGlyphs" textLength="17" x="756.5" y="525.582">alt</text><text fill="#000000" font-family="sans-serif" font-size="11" font-weight="bold" lengthAdjust="spacingAndGlyphs" textLength="56" x="818.5" y="524.6484">[id found]</text><polygon fill="#A80036" points="803.5,546.3242,793.5,550.3242,803.5,554.3242,799.5,550.3242" style="stroke: #A80036; stroke-width: 1.0;"/><line style="stroke: #A80036; stroke-width: 1.0; stroke-dasharray: 2.0,2.0;" x1="797.5" x2="1178.5" y1="550.3242" y2="550.3242"/><text fill="#0000FF" font-family="sans-serif" font-size="13" lengthAdjust="spacingAndGlyphs" textLength="16" x="809.5" y="545.8926">14</text><text fill="#000000" font-family="sans-serif" font-size="13" lengthAdjust="spacingAndGlyphs" textLength="114" x="829.5" y="545.8926">authenticatedUser</text><polygon fill="#A80036" points="1167.5,575.6348,1177.5,579.6348,1167.5,583.6348,1171.5,579.6348" style="stroke: #A80036; stroke-width: 1.0;"/><line style="stroke: #A80036; stroke-width: 1.0; stroke-dasharray: 2.0,2.0;" x1="792.5" x2="1173.5" y1="579.6348" y2="579.6348"/><text fill="#0000FF" font-family="sans-serif" font-size="13" lengthAdjust="spacingAndGlyphs" textLength="16" x="799.5" y="575.2031">15</text><text fill="#000000" font-family="sans-serif" font-size="13" lengthAdjust="spacingAndGlyphs" textLength="230" x="819.5" y="575.2031">update( authenticatedUser, userObj )</text><line style="stroke: #000000; stroke-width: 1.0; stroke-dasharray: 2.0,2.0;" x1="741.5" x2="1207.5" y1="588.9453" y2="588.9453"/><text fill="#000000" font-family="sans-serif" font-size="11" font-weight="bold" lengthAdjust="spacingAndGlyphs" textLength="78" x="746.5" y="599.5801">[id not found]</text><polygon fill="#A80036" points="803.5,619.9004,793.5,623.9004,803.5,627.9004,799.5,623.9004" style="stroke: #A80036; stroke-width: 1.0;"/><line style="stroke: #A80036; stroke-width: 1.0; stroke-dasharray: 2.0,2.0;" x1="797.5" x2="1178.5" y1="623.9004" y2="623.9004"/><text fill="#0000FF" font-family="sans-serif" font-size="13" lengthAdjust="spacingAndGlyphs" textLength="16" x="809.5" y="619.4688">16</text><text fill="#000000" font-family="sans-serif" font-size="13" lengthAdjust="spacingAndGlyphs" textLength="103" x="829.5" y="619.4688">"user not found"</text><polygon fill="#A80036" points="1167.5,649.2109,1177.5,653.2109,1167.5,657.2109,1171.5,653.2109" style="stroke: #A80036; stroke-width: 1.0;"/><line style="stroke: #A80036; stroke-width: 1.0; stroke-dasharray: 2.0,2.0;" x1="792.5" x2="1173.5" y1="653.2109" y2="653.2109"/><text fill="#0000FF" font-family="sans-serif" font-size="13" lengthAdjust="spacingAndGlyphs" textLength="16" x="799.5" y="648.7793">17</text><text fill="#000000" font-family="sans-serif" font-size="13" lengthAdjust="spacingAndGlyphs" textLength="219" x="819.5" y="648.7793">createAuthenticatedUser( userObj )</text><polygon fill="#A80036" points="803.5,678.5215,793.5,682.5215,803.5,686.5215,799.5,682.5215" style="stroke: #A80036; stroke-width: 1.0;"/><line style="stroke: #A80036; stroke-width: 1.0; stroke-dasharray: 2.0,2.0;" x1="797.5" x2="1178.5" y1="682.5215" y2="682.5215"/><text fill="#0000FF" font-family="sans-serif" font-size="13" lengthAdjust="spacingAndGlyphs" textLength="16" x="809.5" y="678.0898">18</text><text fill="#000000" font-family="sans-serif" font-size="13" lengthAdjust="spacingAndGlyphs" textLength="114" x="829.5" y="678.0898">authenticatedUser</text><polygon fill="#A80036" points="1167.5,707.832,1177.5,711.832,1167.5,715.832,1171.5,711.832" style="stroke: #A80036; stroke-width: 1.0;"/><line style="stroke: #A80036; stroke-width: 1.0; stroke-dasharray: 2.0,2.0;" x1="792.5" x2="1173.5" y1="711.832" y2="711.832"/><text fill="#0000FF" font-family="sans-serif" font-size="13" lengthAdjust="spacingAndGlyphs" textLength="16" x="799.5" y="707.4004">19</text><text fill="#000000" font-family="sans-serif" font-size="13" lengthAdjust="spacingAndGlyphs" textLength="343" x="819.5" y="707.4004">updateLookupTable( userObj.id, authenticatedUser.id )</text></g></svg>