<?xml version="1.0" encoding="UTF-8" standalone="yes"?><svg xmlns="http://www.w3.org/2000/svg" xmlns:xlink="http://www.w3.org/1999/xlink" height="870pt" style="width:881px;height:870px;" version="1.1" viewBox="0 0 881 870" width="881pt"><defs><filter height="300%" id="f1" width="300%" x="-1" y="-1"><feGaussianBlur result="blurOut" stdDeviation="2.0"/><feColorMatrix in="blurOut" result="blurOut2" type="matrix" values="0 0 0 0 0 0 0 0 0 0 0 0 0 0 0 0 0 0 .4 0"/><feOffset dx="4.0" dy="4.0" in="blurOut2" result="blurOut3"/><feBlend in="SourceGraphic" in2="blurOut3" mode="normal"/></filter></defs><g><polygon fill="#FFFFFF" filter="url(#f1)" points="356,24,456,24,463,46.4883,869,46.4883,869,271,356,271,356,24" style="stroke: #000000; stroke-width: 2.0;"/><line style="stroke: #000000; stroke-width: 2.0;" x1="356" x2="463" y1="46.4883" y2="46.4883"/><text fill="#000000" font-family="sans-serif" font-size="14" font-weight="bold" lengthAdjust="spacingAndGlyphs" textLength="94" x="359" y="40.5352">existingCode</text><polygon fill="#FFFFFF" filter="url(#f1)" points="22,320,99,320,106,342.4883,874,342.4883,874,863,22,863,22,320" style="stroke: #000000; stroke-width: 2.0;"/><line style="stroke: #000000; stroke-width: 2.0;" x1="22" x2="106" y1="342.4883" y2="342.4883"/><text fill="#000000" font-family="sans-serif" font-size="14" font-weight="bold" lengthAdjust="spacingAndGlyphs" textLength="71" x="25" y="336.5352">assignees</text><rect fill="#FEFECE" filter="url(#f1)" height="48" style="stroke: #A80036; stroke-width: 1.5;" width="57" x="608.5" y="70.5"/><ellipse cx="623.5" cy="86.5" fill="#ADD1B2" rx="11" ry="11" style="stroke: #A80036; stroke-width: 1.0;"/><path d="M626.4731,92.1431 Q625.8921,92.4419 625.2529,92.5913 Q624.6138,92.7407 623.9082,92.7407 Q621.4014,92.7407 620.0815,91.0889 Q618.7617,89.437 618.7617,86.3159 Q618.7617,83.1865 620.0815,81.5347 Q621.4014,79.8828 623.9082,79.8828 Q624.6138,79.8828 625.2612,80.0322 Q625.9087,80.1816 626.4731,80.4805 L626.4731,83.2031 Q625.8423,82.6221 625.2488,82.3523 Q624.6553,82.0825 624.0244,82.0825 Q622.6797,82.0825 621.9949,83.1492 Q621.3101,84.2158 621.3101,86.3159 Q621.3101,88.4077 621.9949,89.4744 Q622.6797,90.541 624.0244,90.541 Q624.6553,90.541 625.2488,90.2712 Q625.8423,90.0015 626.4731,89.4204 Z "/><text fill="#000000" font-family="sans-serif" font-size="12" lengthAdjust="spacingAndGlyphs" textLength="25" x="637.5" y="91.0352">Role</text><line style="stroke: #A80036; stroke-width: 1.5;" x1="609.5" x2="664.5" y1="102.5" y2="102.5"/><line style="stroke: #A80036; stroke-width: 1.5;" x1="609.5" x2="664.5" y1="110.5" y2="110.5"/><rect fill="#FEFECE" filter="url(#f1)" height="48" style="stroke: #A80036; stroke-width: 1.5;" width="85" x="767.5" y="70.5"/><ellipse cx="782.5" cy="86.5" fill="#ADD1B2" rx="11" ry="11" style="stroke: #A80036; stroke-width: 1.0;"/><path d="M785.4731,92.1431 Q784.8921,92.4419 784.2529,92.5913 Q783.6138,92.7407 782.9082,92.7407 Q780.4014,92.7407 779.0815,91.0889 Q777.7617,89.437 777.7617,86.3159 Q777.7617,83.1865 779.0815,81.5347 Q780.4014,79.8828 782.9082,79.8828 Q783.6138,79.8828 784.2612,80.0322 Q784.9087,80.1816 785.4731,80.4805 L785.4731,83.2031 Q784.8423,82.6221 784.2488,82.3523 Q783.6553,82.0825 783.0244,82.0825 Q781.6797,82.0825 780.9949,83.1492 Q780.3101,84.2158 780.3101,86.3159 Q780.3101,88.4077 780.9949,89.4744 Q781.6797,90.541 783.0244,90.541 Q783.6553,90.541 784.2488,90.2712 Q784.8423,90.0015 785.4731,89.4204 Z "/><text fill="#000000" font-family="sans-serif" font-size="12" lengthAdjust="spacingAndGlyphs" textLength="53" x="796.5" y="91.0352">DvObject</text><line style="stroke: #A80036; stroke-width: 1.5;" x1="768.5" x2="851.5" y1="102.5" y2="102.5"/><line style="stroke: #A80036; stroke-width: 1.5;" x1="768.5" x2="851.5" y1="110.5" y2="110.5"/><rect fill="#FEFECE" filter="url(#f1)" height="48" style="stroke: #A80036; stroke-width: 1.5;" width="123" x="598.5" y="207"/><ellipse cx="613.5" cy="223" fill="#ADD1B2" rx="11" ry="11" style="stroke: #A80036; stroke-width: 1.0;"/><path d="M616.4731,228.6431 Q615.8921,228.9419 615.2529,229.0913 Q614.6138,229.2407 613.9082,229.2407 Q611.4014,229.2407 610.0815,227.5889 Q608.7617,225.937 608.7617,222.8159 Q608.7617,219.6865 610.0815,218.0347 Q611.4014,216.3828 613.9082,216.3828 Q614.6138,216.3828 615.2612,216.5322 Q615.9087,216.6816 616.4731,216.9805 L616.4731,219.7031 Q615.8423,219.1221 615.2488,218.8523 Q614.6553,218.5825 614.0244,218.5825 Q612.6797,218.5825 611.9949,219.6492 Q611.3101,220.7158 611.3101,222.8159 Q611.3101,224.9077 611.9949,225.9744 Q612.6797,227.041 614.0244,227.041 Q614.6553,227.041 615.2488,226.7712 Q615.8423,226.5015 616.4731,225.9204 Z "/><text fill="#000000" font-family="sans-serif" font-size="12" lengthAdjust="spacingAndGlyphs" textLength="91" x="627.5" y="227.5352">RoleAssignment</text><line style="stroke: #A80036; stroke-width: 1.5;" x1="599.5" x2="720.5" y1="239" y2="239"/><line style="stroke: #A80036; stroke-width: 1.5;" x1="599.5" x2="720.5" y1="247" y2="247"/><polygon fill="#FBFB77" filter="url(#f1)" points="372.5,59,372.5,130.2422,573.5,130.2422,573.5,69,563.5,59,372.5,59" style="stroke: #A80036; stroke-width: 1.0;"/><line style="stroke: #A80036; stroke-width: 1.0;" x1="563.5" x2="563.5" y1="59" y2="69"/><line style="stroke: #A80036; stroke-width: 1.0;" x1="573.5" x2="563.5" y1="69" y2="69"/><text fill="#000000" font-family="sans-serif" font-size="13" lengthAdjust="spacingAndGlyphs" textLength="142" x="378.5" y="76.5684">A role can be assigned</text><text fill="#000000" font-family="sans-serif" font-size="13" lengthAdjust="spacingAndGlyphs" textLength="152" x="378.5" y="91.8789">at the DvObject where it</text><text fill="#000000" font-family="sans-serif" font-size="13" lengthAdjust="spacingAndGlyphs" textLength="142" x="378.5" y="107.1895">is defined, or at any of</text><text fill="#000000" font-family="sans-serif" font-size="13" lengthAdjust="spacingAndGlyphs" textLength="180" x="378.5" y="122.5">that DvObject's descendants</text><rect fill="#FEFECE" filter="url(#f1)" height="60.9551" style="stroke: #A80036; stroke-width: 1.5;" width="104" x="608" y="355"/><ellipse cx="632.45" cy="371" fill="#ADD1B2" rx="11" ry="11" style="stroke: #A80036; stroke-width: 1.0;"/><path d="M635.4231,376.6431 Q634.8421,376.9419 634.2029,377.0913 Q633.5638,377.2407 632.8582,377.2407 Q630.3514,377.2407 629.0315,375.5889 Q627.7117,373.937 627.7117,370.8159 Q627.7117,367.6865 629.0315,366.0347 Q630.3514,364.3828 632.8582,364.3828 Q633.5638,364.3828 634.2112,364.5322 Q634.8587,364.6816 635.4231,364.9805 L635.4231,367.7031 Q634.7923,367.1221 634.1988,366.8523 Q633.6053,366.5825 632.9744,366.5825 Q631.6297,366.5825 630.9449,367.6492 Q630.2601,368.7158 630.2601,370.8159 Q630.2601,372.9077 630.9449,373.9744 Q631.6297,375.041 632.9744,375.041 Q633.6053,375.041 634.1988,374.7712 Q634.7923,374.5015 635.4231,373.9204 Z "/><text fill="#000000" font-family="sans-serif" font-size="12" lengthAdjust="spacingAndGlyphs" textLength="51" x="648.55" y="375.5352">Assignee</text><line style="stroke: #A80036; stroke-width: 1.5;" x1="609" x2="711" y1="387" y2="387"/><line style="stroke: #A80036; stroke-width: 1.5;" x1="609" x2="711" y1="395" y2="395"/><ellipse cx="619" cy="406.9775" fill="#84BE84" rx="3" ry="3" style="stroke: #038048; stroke-width: 1.0;"/><text fill="#000000" font-family="sans-serif" font-size="11" lengthAdjust="spacingAndGlyphs" textLength="78" x="628" y="409.6348">displayString()</text><rect fill="#FEFECE" filter="url(#f1)" height="60.9551" style="stroke: #A80036; stroke-width: 1.5;" width="99" x="218.5" y="499.5"/><ellipse cx="251.95" cy="515.5" fill="#ADD1B2" rx="11" ry="11" style="stroke: #A80036; stroke-width: 1.0;"/><path d="M254.9231,521.1431 Q254.3421,521.4419 253.7029,521.5913 Q253.0638,521.7407 252.3582,521.7407 Q249.8514,521.7407 248.5315,520.0889 Q247.2117,518.437 247.2117,515.3159 Q247.2117,512.1865 248.5315,510.5347 Q249.8514,508.8828 252.3582,508.8828 Q253.0638,508.8828 253.7112,509.0322 Q254.3587,509.1816 254.9231,509.4805 L254.9231,512.2031 Q254.2923,511.6221 253.6988,511.3523 Q253.1053,511.0825 252.4744,511.0825 Q251.1297,511.0825 250.4449,512.1492 Q249.7601,513.2158 249.7601,515.3159 Q249.7601,517.4077 250.4449,518.4744 Q251.1297,519.541 252.4744,519.541 Q253.1053,519.541 253.6988,519.2712 Q254.2923,519.0015 254.9231,518.4204 Z "/><text fill="#000000" font-family="sans-serif" font-size="12" lengthAdjust="spacingAndGlyphs" textLength="26" x="270.05" y="520.0352">User</text><line style="stroke: #A80036; stroke-width: 1.5;" x1="219.5" x2="316.5" y1="531.5" y2="531.5"/><ellipse cx="229.5" cy="543.4775" fill="none" rx="3" ry="3" style="stroke: #038048; stroke-width: 1.0;"/><text fill="#000000" font-family="sans-serif" font-size="11" lengthAdjust="spacingAndGlyphs" textLength="73" x="238.5" y="546.1348">locator:String</text><line style="stroke: #A80036; stroke-width: 1.5;" x1="219.5" x2="316.5" y1="552.4551" y2="552.4551"/><rect fill="#FEFECE" filter="url(#f1)" height="73.9102" style="stroke: #A80036; stroke-width: 1.5;" width="90" x="175" y="634.5"/><ellipse cx="191.35" cy="650.5" fill="#ADD1B2" rx="11" ry="11" style="stroke: #A80036; stroke-width: 1.0;"/><path d="M194.3231,656.1431 Q193.7421,656.4419 193.1029,656.5913 Q192.4638,656.7407 191.7582,656.7407 Q189.2514,656.7407 187.9315,655.0889 Q186.6117,653.437 186.6117,650.3159 Q186.6117,647.1865 187.9315,645.5347 Q189.2514,643.8828 191.7582,643.8828 Q192.4638,643.8828 193.1112,644.0322 Q193.7587,644.1816 194.3231,644.4805 L194.3231,647.2031 Q193.6923,646.6221 193.0988,646.3523 Q192.5053,646.0825 191.8744,646.0825 Q190.5297,646.0825 189.8449,647.1492 Q189.1601,648.2158 189.1601,650.3159 Q189.1601,652.4077 189.8449,653.4744 Q190.5297,654.541 191.8744,654.541 Q192.5053,654.541 193.0988,654.2712 Q193.6923,654.0015 194.3231,653.4204 Z "/><text fill="#000000" font-family="sans-serif" font-size="12" lengthAdjust="spacingAndGlyphs" textLength="55" x="205.65" y="655.0352">LocalUser</text><line style="stroke: #A80036; stroke-width: 1.5;" x1="176" x2="264" y1="666.5" y2="666.5"/><ellipse cx="186" cy="678.4775" fill="none" rx="3" ry="3" style="stroke: #038048; stroke-width: 1.0;"/><text fill="#000000" font-family="sans-serif" font-size="11" lengthAdjust="spacingAndGlyphs" textLength="40" x="195" y="681.1348">id:Long</text><ellipse cx="186" cy="691.4326" fill="none" rx="3" ry="3" style="stroke: #038048; stroke-width: 1.0;"/><text fill="#000000" font-family="sans-serif" font-size="11" lengthAdjust="spacingAndGlyphs" textLength="64" x="195" y="694.0898">name:String</text><line style="stroke: #A80036; stroke-width: 1.5;" x1="176" x2="264" y1="700.4102" y2="700.4102"/><rect fill="#FEFECE" filter="url(#f1)" height="48" style="stroke: #A80036; stroke-width: 1.5;" width="91" x="300.5" y="647.5"/><ellipse cx="315.5" cy="663.5" fill="#ADD1B2" rx="11" ry="11" style="stroke: #A80036; stroke-width: 1.0;"/><path d="M318.4731,669.1431 Q317.8921,669.4419 317.2529,669.5913 Q316.6138,669.7407 315.9082,669.7407 Q313.4014,669.7407 312.0815,668.0889 Q310.7617,666.437 310.7617,663.3159 Q310.7617,660.1865 312.0815,658.5347 Q313.4014,656.8828 315.9082,656.8828 Q316.6138,656.8828 317.2612,657.0322 Q317.9087,657.1816 318.4731,657.4805 L318.4731,660.2031 Q317.8423,659.6221 317.2488,659.3523 Q316.6553,659.0825 316.0244,659.0825 Q314.6797,659.0825 313.9949,660.1492 Q313.3101,661.2158 313.3101,663.3159 Q313.3101,665.4077 313.9949,666.4744 Q314.6797,667.541 316.0244,667.541 Q316.6553,667.541 317.2488,667.2712 Q317.8423,667.0015 318.4731,666.4204 Z "/><text fill="#000000" font-family="sans-serif" font-size="12" lengthAdjust="spacingAndGlyphs" textLength="59" x="329.5" y="668.0352">GuestUser</text><line style="stroke: #A80036; stroke-width: 1.5;" x1="301.5" x2="390.5" y1="679.5" y2="679.5"/><line style="stroke: #A80036; stroke-width: 1.5;" x1="301.5" x2="390.5" y1="687.5" y2="687.5"/><polygon fill="#FBFB77" filter="url(#f1)" points="219.5,791,219.5,831.6211,382.5,831.6211,382.5,801,372.5,791,219.5,791" style="stroke: #A80036; stroke-width: 1.0;"/><polygon fill="#FBFB77" points="219.5,791,219.5,831.6211,382.5,831.6211,382.5,801,372.5,791,311.39,791,338.468,695.598,303.39,791,219.5,791" style="stroke: #A80036; stroke-width: 1.0;"/><line style="stroke: #A80036; stroke-width: 1.0;" x1="372.5" x2="372.5" y1="791" y2="801"/><line style="stroke: #A80036; stroke-width: 1.0;" x1="382.5" x2="372.5" y1="801" y2="801"/><text fill="#000000" font-family="sans-serif" font-size="13" lengthAdjust="spacingAndGlyphs" textLength="59" x="225.5" y="808.5684">Invariant:</text><text fill="#000000" font-family="sans-serif" font-size="13" lengthAdjust="spacingAndGlyphs" textLength="17" x="225.5" y="823.8789">we</text><text fill="#000000" font-family="sans-serif" font-size="13" font-weight="bold" lengthAdjust="spacingAndGlyphs" textLength="46" x="246.5" y="823.8789">always</text><text fill="#000000" font-family="sans-serif" font-size="13" lengthAdjust="spacingAndGlyphs" textLength="71" x="296.5" y="823.8789">have a user</text><rect fill="#FEFECE" filter="url(#f1)" height="73.9102" style="stroke: #A80036; stroke-width: 1.5;" width="102" x="38" y="634.5"/><ellipse cx="53" cy="650.5" fill="#ADD1B2" rx="11" ry="11" style="stroke: #A80036; stroke-width: 1.0;"/><path d="M55.9731,656.1431 Q55.3921,656.4419 54.7529,656.5913 Q54.1138,656.7407 53.4082,656.7407 Q50.9014,656.7407 49.5815,655.0889 Q48.2617,653.437 48.2617,650.3159 Q48.2617,647.1865 49.5815,645.5347 Q50.9014,643.8828 53.4082,643.8828 Q54.1138,643.8828 54.7612,644.0322 Q55.4087,644.1816 55.9731,644.4805 L55.9731,647.2031 Q55.3423,646.6221 54.7488,646.3523 Q54.1553,646.0825 53.5244,646.0825 Q52.1797,646.0825 51.4949,647.1492 Q50.8101,648.2158 50.8101,650.3159 Q50.8101,652.4077 51.4949,653.4744 Q52.1797,654.541 53.5244,654.541 Q54.1553,654.541 54.7488,654.2712 Q55.3423,654.0015 55.9731,653.4204 Z "/><text fill="#000000" font-family="sans-serif" font-size="12" lengthAdjust="spacingAndGlyphs" textLength="70" x="67" y="655.0352">RemoteUser</text><line style="stroke: #A80036; stroke-width: 1.5;" x1="39" x2="139" y1="666.5" y2="666.5"/><ellipse cx="49" cy="678.4775" fill="none" rx="3" ry="3" style="stroke: #038048; stroke-width: 1.0;"/><text fill="#000000" font-family="sans-serif" font-size="11" lengthAdjust="spacingAndGlyphs" textLength="10" x="58" y="681.1348">id</text><ellipse cx="49" cy="691.4326" fill="none" rx="3" ry="3" style="stroke: #038048; stroke-width: 1.0;"/><text fill="#000000" font-family="sans-serif" font-size="11" lengthAdjust="spacingAndGlyphs" textLength="59" x="58" y="694.0898">origin:Data</text><line style="stroke: #A80036; stroke-width: 1.5;" x1="39" x2="139" y1="700.4102" y2="700.4102"/><polygon fill="#FBFB77" filter="url(#f1)" points="38,776,38,847.2422,182,847.2422,182,786,172,776,38,776" style="stroke: #A80036; stroke-width: 1.0;"/><polygon fill="#FBFB77" points="38,776,38,847.2422,182,847.2422,182,786,172,776,108.7364,776,94.5175,708.758,100.7364,776,38,776" style="stroke: #A80036; stroke-width: 1.0;"/><line style="stroke: #A80036; stroke-width: 1.0;" x1="172" x2="172" y1="776" y2="786"/><line style="stroke: #A80036; stroke-width: 1.0;" x1="182" x2="172" y1="786" y2="786"/><text fill="#000000" font-family="sans-serif" font-size="13" lengthAdjust="spacingAndGlyphs" textLength="104" x="44" y="793.5684">May be stored in</text><text fill="#000000" font-family="sans-serif" font-size="13" lengthAdjust="spacingAndGlyphs" textLength="122" x="44" y="808.8789">the DB, if has some</text><text fill="#000000" font-family="sans-serif" font-size="13" lengthAdjust="spacingAndGlyphs" textLength="123" x="44" y="824.1895">long-lasting effect,</text><text fill="#000000" font-family="sans-serif" font-size="13" lengthAdjust="spacingAndGlyphs" textLength="98" x="44" y="839.5">such as API Key</text><rect fill="#FEFECE" filter="url(#f1)" height="73.9102" style="stroke: #A80036; stroke-width: 1.5;" width="84" x="65" y="493"/><ellipse cx="85.4" cy="509" fill="#ADD1B2" rx="11" ry="11" style="stroke: #A80036; stroke-width: 1.0;"/><path d="M88.3731,514.6431 Q87.7921,514.9419 87.1529,515.0913 Q86.5138,515.2407 85.8082,515.2407 Q83.3014,515.2407 81.9815,513.5889 Q80.6617,511.937 80.6617,508.8159 Q80.6617,505.6865 81.9815,504.0347 Q83.3014,502.3828 85.8082,502.3828 Q86.5138,502.3828 87.1612,502.5322 Q87.8087,502.6816 88.3731,502.9805 L88.3731,505.7031 Q87.7423,505.1221 87.1488,504.8523 Q86.5553,504.5825 85.9244,504.5825 Q84.5797,504.5825 83.8949,505.6492 Q83.2101,506.7158 83.2101,508.8159 Q83.2101,510.9077 83.8949,511.9744 Q84.5797,513.041 85.9244,513.041 Q86.5553,513.041 87.1488,512.7712 Q87.7423,512.5015 88.3731,511.9204 Z "/><text fill="#000000" font-family="sans-serif" font-size="12" lengthAdjust="spacingAndGlyphs" textLength="40" x="100.6" y="513.5352">ApiKey</text><line style="stroke: #A80036; stroke-width: 1.5;" x1="66" x2="148" y1="525" y2="525"/><ellipse cx="76" cy="536.9775" fill="none" rx="3" ry="3" style="stroke: #038048; stroke-width: 1.0;"/><text fill="#000000" font-family="sans-serif" font-size="11" lengthAdjust="spacingAndGlyphs" textLength="53" x="85" y="539.6348">key:String</text><ellipse cx="76" cy="549.9326" fill="none" rx="3" ry="3" style="stroke: #038048; stroke-width: 1.0;"/><text fill="#000000" font-family="sans-serif" font-size="11" lengthAdjust="spacingAndGlyphs" textLength="58" x="85" y="552.5898">title: String</text><line style="stroke: #A80036; stroke-width: 1.5;" x1="66" x2="148" y1="558.9102" y2="558.9102"/><rect fill="#FEFECE" filter="url(#f1)" height="60.9551" style="stroke: #A80036; stroke-width: 1.5;" width="144" x="574" y="499.5"/><ellipse cx="623.75" cy="515.5" fill="#ADD1B2" rx="11" ry="11" style="stroke: #A80036; stroke-width: 1.0;"/><path d="M626.7231,521.1431 Q626.1421,521.4419 625.5029,521.5913 Q624.8638,521.7407 624.1582,521.7407 Q621.6514,521.7407 620.3315,520.0889 Q619.0117,518.437 619.0117,515.3159 Q619.0117,512.1865 620.3315,510.5347 Q621.6514,508.8828 624.1582,508.8828 Q624.8638,508.8828 625.5112,509.0322 Q626.1587,509.1816 626.7231,509.4805 L626.7231,512.2031 Q626.0923,511.6221 625.4988,511.3523 Q624.9053,511.0825 624.2744,511.0825 Q622.9297,511.0825 622.2449,512.1492 Q621.5601,513.2158 621.5601,515.3159 Q621.5601,517.4077 622.2449,518.4744 Q622.9297,519.541 624.2744,519.541 Q624.9053,519.541 625.4988,519.2712 Q626.0923,519.0015 626.7231,518.4204 Z "/><text fill="#000000" font-family="sans-serif" font-size="12" lengthAdjust="spacingAndGlyphs" textLength="36" x="644.25" y="520.0352">Group</text><line style="stroke: #A80036; stroke-width: 1.5;" x1="575" x2="717" y1="531.5" y2="531.5"/><line style="stroke: #A80036; stroke-width: 1.5;" x1="575" x2="717" y1="539.5" y2="539.5"/><ellipse cx="585" cy="551.4775" fill="#84BE84" rx="3" ry="3" style="stroke: #038048; stroke-width: 1.0;"/><text fill="#000000" font-family="sans-serif" font-size="11" lengthAdjust="spacingAndGlyphs" textLength="118" x="594" y="554.1348">contains( a:Assignee )</text><rect fill="#FEFECE" filter="url(#f1)" height="86.8652" style="stroke: #A80036; stroke-width: 1.5;" width="138" x="577" y="628"/><ellipse cx="605.05" cy="644" fill="#ADD1B2" rx="11" ry="11" style="stroke: #A80036; stroke-width: 1.0;"/><path d="M608.0231,649.6431 Q607.4421,649.9419 606.8029,650.0913 Q606.1638,650.2407 605.4582,650.2407 Q602.9514,650.2407 601.6315,648.5889 Q600.3117,646.937 600.3117,643.8159 Q600.3117,640.6865 601.6315,639.0347 Q602.9514,637.3828 605.4582,637.3828 Q606.1638,637.3828 606.8112,637.5322 Q607.4587,637.6816 608.0231,637.9805 L608.0231,640.7031 Q607.3923,640.1221 606.7988,639.8523 Q606.2053,639.5825 605.5744,639.5825 Q604.2297,639.5825 603.5449,640.6492 Q602.8601,641.7158 602.8601,643.8159 Q602.8601,645.9077 603.5449,646.9744 Q604.2297,648.041 605.5744,648.041 Q606.2053,648.041 606.7988,647.7712 Q607.3923,647.5015 608.0231,646.9204 Z "/><text fill="#000000" font-family="sans-serif" font-size="12" lengthAdjust="spacingAndGlyphs" textLength="77" x="621.95" y="648.5352">ExplicitGroup</text><line style="stroke: #A80036; stroke-width: 1.5;" x1="578" x2="714" y1="660" y2="660"/><ellipse cx="588" cy="671.9775" fill="none" rx="3" ry="3" style="stroke: #038048; stroke-width: 1.0;"/><text fill="#000000" font-family="sans-serif" font-size="11" lengthAdjust="spacingAndGlyphs" textLength="79" x="597" y="674.6348">list: Assignee[]</text><line style="stroke: #A80036; stroke-width: 1.5;" x1="578" x2="714" y1="680.9551" y2="680.9551"/><ellipse cx="588" cy="692.9326" fill="#84BE84" rx="3" ry="3" style="stroke: #038048; stroke-width: 1.0;"/><text fill="#000000" font-family="sans-serif" font-size="11" lengthAdjust="spacingAndGlyphs" textLength="92" x="597" y="695.5898">add( a:Assignee )</text><ellipse cx="588" cy="705.8877" fill="#84BE84" rx="3" ry="3" style="stroke: #038048; stroke-width: 1.0;"/><text fill="#000000" font-family="sans-serif" font-size="11" lengthAdjust="spacingAndGlyphs" textLength="112" x="597" y="708.5449">remove( a:Assignee )</text><rect fill="#FEFECE" filter="url(#f1)" height="48" style="stroke: #A80036; stroke-width: 1.5;" width="107" x="750.5" y="647.5"/><ellipse cx="765.5" cy="663.5" fill="#ADD1B2" rx="11" ry="11" style="stroke: #A80036; stroke-width: 1.0;"/><path d="M768.4731,669.1431 Q767.8921,669.4419 767.2529,669.5913 Q766.6138,669.7407 765.9082,669.7407 Q763.4014,669.7407 762.0815,668.0889 Q760.7617,666.437 760.7617,663.3159 Q760.7617,660.1865 762.0815,658.5347 Q763.4014,656.8828 765.9082,656.8828 Q766.6138,656.8828 767.2612,657.0322 Q767.9087,657.1816 768.4731,657.4805 L768.4731,660.2031 Q767.8423,659.6221 767.2488,659.3523 Q766.6553,659.0825 766.0244,659.0825 Q764.6797,659.0825 763.9949,660.1492 Q763.3101,661.2158 763.3101,663.3159 Q763.3101,665.4077 763.9949,666.4744 Q764.6797,667.541 766.0244,667.541 Q766.6553,667.541 767.2488,667.2712 Q767.8423,667.0015 768.4731,666.4204 Z "/><text fill="#000000" font-family="sans-serif" font-size="12" lengthAdjust="spacingAndGlyphs" textLength="75" x="779.5" y="668.0352">LogicalGroup</text><line style="stroke: #A80036; stroke-width: 1.5;" x1="751.5" x2="856.5" y1="679.5" y2="679.5"/><line style="stroke: #A80036; stroke-width: 1.5;" x1="751.5" x2="856.5" y1="687.5" y2="687.5"/><rect fill="#FEFECE" filter="url(#f1)" height="48" style="stroke: #A80036; stroke-width: 1.5;" width="126" x="732" y="787.5"/><ellipse cx="747" cy="803.5" fill="#ADD1B2" rx="11" ry="11" style="stroke: #A80036; stroke-width: 1.0;"/><path d="M749.9731,809.1431 Q749.3921,809.4419 748.7529,809.5913 Q748.1138,809.7407 747.4082,809.7407 Q744.9014,809.7407 743.5815,808.0889 Q742.2617,806.437 742.2617,803.3159 Q742.2617,800.1865 743.5815,798.5347 Q744.9014,796.8828 747.4082,796.8828 Q748.1138,796.8828 748.7612,797.0322 Q749.4087,797.1816 749.9731,797.4805 L749.9731,800.2031 Q749.3423,799.6221 748.7488,799.3523 Q748.1553,799.0825 747.5244,799.0825 Q746.1797,799.0825 745.4949,800.1492 Q744.8101,801.2158 744.8101,803.3159 Q744.8101,805.4077 745.4949,806.4744 Q746.1797,807.541 747.5244,807.541 Q748.1553,807.541 748.7488,807.2712 Q749.3423,807.0015 749.9731,806.4204 Z "/><text fill="#000000" font-family="sans-serif" font-size="12" lengthAdjust="spacingAndGlyphs" textLength="94" x="761" y="808.0352">RegisteredUsers</text><line style="stroke: #A80036; stroke-width: 1.5;" x1="733" x2="857" y1="819.5" y2="819.5"/><line style="stroke: #A80036; stroke-width: 1.5;" x1="733" x2="857" y1="827.5" y2="827.5"/><rect fill="#FEFECE" filter="url(#f1)" height="48" style="stroke: #A80036; stroke-width: 1.5;" width="97" x="599.5" y="787.5"/><ellipse cx="614.5" cy="803.5" fill="#ADD1B2" rx="11" ry="11" style="stroke: #A80036; stroke-width: 1.0;"/><path d="M617.4731,809.1431 Q616.8921,809.4419 616.2529,809.5913 Q615.6138,809.7407 614.9082,809.7407 Q612.4014,809.7407 611.0815,808.0889 Q609.7617,806.437 609.7617,803.3159 Q609.7617,800.1865 611.0815,798.5347 Q612.4014,796.8828 614.9082,796.8828 Q615.6138,796.8828 616.2612,797.0322 Q616.9087,797.1816 617.4731,797.4805 L617.4731,800.2031 Q616.8423,799.6221 616.2488,799.3523 Q615.6553,799.0825 615.0244,799.0825 Q613.6797,799.0825 612.9949,800.1492 Q612.3101,801.2158 612.3101,803.3159 Q612.3101,805.4077 612.9949,806.4744 Q613.6797,807.541 615.0244,807.541 Q615.6553,807.541 616.2488,807.2712 Q616.8423,807.0015 617.4731,806.4204 Z "/><text fill="#000000" font-family="sans-serif" font-size="12" lengthAdjust="spacingAndGlyphs" textLength="65" x="628.5" y="808.0352">GuestUsers</text><line style="stroke: #A80036; stroke-width: 1.5;" x1="600.5" x2="695.5" y1="819.5" y2="819.5"/><line style="stroke: #A80036; stroke-width: 1.5;" x1="600.5" x2="695.5" y1="827.5" y2="827.5"/><rect fill="#FEFECE" filter="url(#f1)" height="48" style="stroke: #A80036; stroke-width: 1.5;" width="115" x="426.5" y="647.5"/><ellipse cx="441.5" cy="663.5" fill="#ADD1B2" rx="11" ry="11" style="stroke: #A80036; stroke-width: 1.0;"/><path d="M444.4731,669.1431 Q443.8921,669.4419 443.2529,669.5913 Q442.6138,669.7407 441.9082,669.7407 Q439.4014,669.7407 438.0815,668.0889 Q436.7617,666.437 436.7617,663.3159 Q436.7617,660.1865 438.0815,658.5347 Q439.4014,656.8828 441.9082,656.8828 Q442.6138,656.8828 443.2612,657.0322 Q443.9087,657.1816 444.4731,657.4805 L444.4731,660.2031 Q443.8423,659.6221 443.2488,659.3523 Q442.6553,659.0825 442.0244,659.0825 Q440.6797,659.0825 439.9949,660.1492 Q439.3101,661.2158 439.3101,663.3159 Q439.3101,665.4077 439.9949,666.4744 Q440.6797,667.541 442.0244,667.541 Q442.6553,667.541 443.2488,667.2712 Q443.8423,667.0015 444.4731,666.4204 Z "/><text fill="#000000" font-family="sans-serif" font-size="12" lengthAdjust="spacingAndGlyphs" textLength="83" x="455.5" y="668.0352">ExternalGroup</text><line style="stroke: #A80036; stroke-width: 1.5;" x1="427.5" x2="540.5" y1="679.5" y2="679.5"/><line style="stroke: #A80036; stroke-width: 1.5;" x1="427.5" x2="540.5" y1="687.5" y2="687.5"/><polygon fill="#FBFB77" filter="url(#f1)" points="417.5,776,417.5,847.2422,562.5,847.2422,562.5,786,552.5,776,417.5,776" style="stroke: #A80036; stroke-width: 1.0;"/><polygon fill="#FBFB77" points="417.5,776,417.5,847.2422,562.5,847.2422,562.5,786,552.5,776,492.497,776,485.004,695.598,484.497,776,417.5,776" style="stroke: #A80036; stroke-width: 1.0;"/><line style="stroke: #A80036; stroke-width: 1.0;" x1="552.5" x2="552.5" y1="776" y2="786"/><line style="stroke: #A80036; stroke-width: 1.0;" x1="562.5" x2="552.5" y1="786" y2="786"/><text fill="#000000" font-family="sans-serif" font-size="13" lengthAdjust="spacingAndGlyphs" textLength="84" x="423.5" y="793.5684">Maps a set of</text><text fill="#000000" font-family="sans-serif" font-size="13" lengthAdjust="spacingAndGlyphs" textLength="124" x="423.5" y="808.8789">external credentials</text><text fill="#000000" font-family="sans-serif" font-size="13" lengthAdjust="spacingAndGlyphs" textLength="84" x="423.5" y="824.1895">to an internal</text><text fill="#000000" font-family="sans-serif" font-size="13" lengthAdjust="spacingAndGlyphs" textLength="93" x="423.5" y="839.5">Asignee object</text><path d="M589.067,412.286 C510.686,440.779 386.478,485.931 317.79,510.9 " fill="none" style="stroke: #A80036; stroke-width: 1.0;"/><polygon fill="none" points="586.757,405.677,607.945,405.423,591.54,418.835,586.757,405.677" style="stroke: #A80036; stroke-width: 1.0;"/><path d="M648.361,436.204 C647.829,439.507 647.366,442.794 647,446 C644.991,463.611 644.682,483.46 644.903,499.33 " fill="none" style="stroke: #A80036; stroke-width: 1.0;"/><polygon fill="none" points="641.551,434.552,652.256,416.265,655.292,437.236,641.551,434.552" style="stroke: #A80036; stroke-width: 1.0;"/><path d="M648.945,499.021 C651.175,476.322 654.244,445.092 656.582,421.292 " fill="none" style="stroke: #A80036; stroke-width: 1.0; stroke-dasharray: 7.0,7.0;"/><polygon fill="#A80036" points="657.099,416.026,652.2387,424.592,656.6104,421.0021,660.2004,425.3738,657.099,416.026" style="stroke: #A80036; stroke-width: 1.0;"/><text fill="#000000" font-family="sans-serif" font-size="13" lengthAdjust="spacingAndGlyphs" textLength="56" x="654" y="459.5684">Contains</text><path d="M294.419,578.249 C307.458,601.568 322.597,628.645 333.087,647.406 " fill="none" style="stroke: #A80036; stroke-width: 1.0;"/><polygon fill="none" points="288.193,581.457,284.542,560.584,300.412,574.625,288.193,581.457" style="stroke: #A80036; stroke-width: 1.0;"/><path d="M251.25,579.68 C245.077,597.62 238.198,617.613 232.469,634.263 " fill="none" style="stroke: #A80036; stroke-width: 1.0;"/><polygon fill="none" points="244.694,577.219,257.82,560.584,257.932,581.774,244.694,577.219" style="stroke: #A80036; stroke-width: 1.0;"/><path d="M213.942,573.129 C188.926,592.625 159.504,615.554 135.497,634.263 " fill="none" style="stroke: #A80036; stroke-width: 1.0;"/><polygon fill="none" points="209.961,567.357,230.039,560.584,218.566,578.4,209.961,567.357" style="stroke: #A80036; stroke-width: 1.0;"/><path d="M646,580.774 C646,596.217 646,613.087 646,627.988 " fill="none" style="stroke: #A80036; stroke-width: 1.0;"/><polygon fill="none" points="639,580.584,646,560.584,653,580.584,639,580.584" style="stroke: #A80036; stroke-width: 1.0;"/><path d="M694.856,574.136 C722.25,598.322 755.332,627.531 777.843,647.406 " fill="none" style="stroke: #A80036; stroke-width: 1.0;"/><polygon fill="none" points="689.867,579.069,679.508,560.584,699.133,568.574,689.867,579.069" style="stroke: #A80036; stroke-width: 1.0;"/><path d="M596.3,573.797 C568.137,598.049 534.008,627.438 510.819,647.406 " fill="none" style="stroke: #A80036; stroke-width: 1.0;"/><polygon fill="none" points="591.921,568.33,611.644,560.584,601.056,578.939,591.921,568.33" style="stroke: #A80036; stroke-width: 1.0;"/><path d="M801.187,715.634 C799.641,739.336 797.785,767.8 796.511,787.3265 " fill="none" style="stroke: #A80036; stroke-width: 1.0;"/><polygon fill="none" points="794.207,715.1,802.494,695.598,808.177,716.011,794.207,715.1" style="stroke: #A80036; stroke-width: 1.0;"/><path d="M762.866,708.888 C734.779,733.734 698.409,765.907 674.196,787.3265 " fill="none" style="stroke: #A80036; stroke-width: 1.0;"/><polygon fill="none" points="758.271,703.607,777.889,695.598,767.547,714.093,758.271,703.607" style="stroke: #A80036; stroke-width: 1.0;"/><path d="M149.137,530 C167.783,530 186.43,530 205.077,530 " fill="none" style="stroke: #A80036; stroke-width: 1.0;"/><polygon fill="#A80036" points="218.319,530,212.319,526,206.319,530,212.319,534,218.319,530" style="stroke: #A80036; stroke-width: 1.0;"/><text fill="#000000" font-family="sans-serif" font-size="13" lengthAdjust="spacingAndGlyphs" textLength="22" x="156.9415" y="526.4962">0..*</text><text fill="#000000" font-family="sans-serif" font-size="13" lengthAdjust="spacingAndGlyphs" textLength="8" x="202.4346" y="526.4929">1</text><path d="M665.567,94.5 C691.786,94.5 731.147,94.5 762.16,94.5 " fill="none" style="stroke: #A80036; stroke-width: 1.0;"/><polygon fill="#A80036" points="767.454,94.5,758.454,90.5,762.454,94.5,758.454,98.5,767.454,94.5" style="stroke: #A80036; stroke-width: 1.0;"/><text fill="#000000" font-family="sans-serif" font-size="13" lengthAdjust="spacingAndGlyphs" textLength="65" x="684" y="88.0684">Defined at</text><path d="M780.25,122.176 C752.719,146.862 712.198,183.195 685.951,206.73 " fill="none" style="stroke: #A80036; stroke-width: 1.0;"/><polygon fill="#A80036" points="784.214,118.621,774.8431,121.6518,780.4916,121.9592,780.1842,127.6077,784.214,118.621" style="stroke: #A80036; stroke-width: 1.0;"/><text fill="#000000" font-family="sans-serif" font-size="13" lengthAdjust="spacingAndGlyphs" textLength="14" x="736" y="173.5684">At</text><text fill="#000000" font-family="sans-serif" font-size="13" lengthAdjust="spacingAndGlyphs" textLength="8" x="768.9537" y="138.9348">1</text><path d="M641.824,123.708 C646.037,148.345 652.079,183.678 656.021,206.73 " fill="none" style="stroke: #A80036; stroke-width: 1.0;"/><polygon fill="#A80036" points="640.954,118.621,638.5283,128.1665,641.7968,123.5495,646.4139,126.8179,640.954,118.621" style="stroke: #A80036; stroke-width: 1.0;"/><text fill="#000000" font-family="sans-serif" font-size="13" lengthAdjust="spacingAndGlyphs" textLength="50" x="651" y="173.5684">Assigns</text><text fill="#000000" font-family="sans-serif" font-size="13" lengthAdjust="spacingAndGlyphs" textLength="8" x="632.9428" y="138.9348">1</text><path d="M660,255.161 C660,280.263 660,320.601 660,349.557 " fill="none" style="stroke: #A80036; stroke-width: 1.0;"/><polygon fill="#A80036" points="660,354.825,664,345.825,660,349.825,656,345.825,660,354.825" style="stroke: #A80036; stroke-width: 1.0;"/><text fill="#000000" font-family="sans-serif" font-size="13" lengthAdjust="spacingAndGlyphs" textLength="16" x="661" y="300.5684">To</text><text fill="#000000" font-family="sans-serif" font-size="13" lengthAdjust="spacingAndGlyphs" textLength="8" x="651.125" y="344.0815">1</text><path d="M795.386,634.502 C783.243,588.284 758.107,506.803 719,446 C714.507,439.014 709.084,432.185 703.368,425.79 " fill="none" style="stroke: #A80036; stroke-width: 1.0;"/><polygon fill="#A80036" points="694.238,416.138,697.5164,425.4252,697.6738,419.7705,703.3285,419.9279,694.238,416.138" style="stroke: #A80036; stroke-width: 1.0;"/><line style="stroke: #A80036; stroke-width: 1.0;" x1="697.6738" x2="703.1715" y1="419.7705" y2="425.5825"/><polygon fill="none" points="798.671,647.378,801.0632,640.5753,795.7038,635.7506,793.3116,642.5534,798.671,647.378" style="stroke: #A80036; stroke-width: 1.0;"/></g></svg>