<?xml version="1.0" encoding="UTF-8" standalone="yes"?><svg xmlns="http://www.w3.org/2000/svg" xmlns:xlink="http://www.w3.org/1999/xlink" height="993pt" style="width:3000px;height:993px;" version="1.1" viewBox="0 0 3000 993" width="3000pt"><defs><filter height="300%" id="f1" width="300%" x="-1" y="-1"><feGaussianBlur result="blurOut" stdDeviation="2.0"/><feColorMatrix in="blurOut" result="blurOut2" type="matrix" values="0 0 0 0 0 0 0 0 0 0 0 0 0 0 0 0 0 0 .4 0"/><feOffset dx="4.0" dy="4.0" in="blurOut2" result="blurOut3"/><feBlend in="SourceGraphic" in2="blurOut3" mode="normal"/></filter></defs><g><polygon fill="#FFFFFF" filter="url(#f1)" points="2424,211,2524,211,2531,233.4883,2993,233.4883,2993,526,2424,526,2424,211" style="stroke: #000000; stroke-width: 2.0;"/><line style="stroke: #000000; stroke-width: 2.0;" x1="2424" x2="2531" y1="233.4883" y2="233.4883"/><text fill="#000000" font-family="sans-serif" font-size="14" font-weight="bold" lengthAdjust="spacingAndGlyphs" textLength="94" x="2427" y="227.5352">existingCode</text><polygon fill="#FFFFFF" filter="url(#f1)" points="1015,24,1092,24,1099,46.4883,2400,46.4883,2400,545.5,1015,545.5,1015,24" style="stroke: #000000; stroke-width: 2.0;"/><line style="stroke: #000000; stroke-width: 2.0;" x1="1015" x2="1099" y1="46.4883" y2="46.4883"/><text fill="#000000" font-family="sans-serif" font-size="14" font-weight="bold" lengthAdjust="spacingAndGlyphs" textLength="71" x="1018" y="40.5352">assignees</text><polygon fill="#FFFFFF" filter="url(#f1)" points="22,401,179,401,186,423.4883,991,423.4883,991,986,22,986,22,401" style="stroke: #000000; stroke-width: 2.0;"/><line style="stroke: #000000; stroke-width: 2.0;" x1="22" x2="186" y1="423.4883" y2="423.4883"/><text fill="#000000" font-family="sans-serif" font-size="14" font-weight="bold" lengthAdjust="spacingAndGlyphs" textLength="151" x="25" y="417.5352">roleassigneeprovider</text><polygon fill="#FFFFFF" filter="url(#f1)" points="2424,24,2645,24,2652,46.4883,2749,46.4883,2749,162,2424,162,2424,24" style="stroke: #000000; stroke-width: 2.0;"/><line style="stroke: #000000; stroke-width: 2.0;" x1="2424" x2="2652" y1="46.4883" y2="46.4883"/><text fill="#000000" font-family="sans-serif" font-size="14" font-weight="bold" lengthAdjust="spacingAndGlyphs" textLength="215" x="2427" y="40.5352">somewhere_else_in_dataverse</text><rect fill="#FEFECE" filter="url(#f1)" height="48" style="stroke: #A80036; stroke-width: 1.5;" width="85" x="2891.5" y="257.5"/><ellipse cx="2906.5" cy="273.5" fill="#ADD1B2" rx="11" ry="11" style="stroke: #A80036; stroke-width: 1.0;"/><path d="M2909.4731,279.1431 Q2908.8921,279.4419 2908.2529,279.5913 Q2907.6138,279.7407 2906.9082,279.7407 Q2904.4014,279.7407 2903.0815,278.0889 Q2901.7617,276.437 2901.7617,273.3159 Q2901.7617,270.1865 2903.0815,268.5347 Q2904.4014,266.8828 2906.9082,266.8828 Q2907.6138,266.8828 2908.2612,267.0322 Q2908.9087,267.1816 2909.4731,267.4805 L2909.4731,270.2031 Q2908.8423,269.6221 2908.2488,269.3523 Q2907.6553,269.0825 2907.0244,269.0825 Q2905.6797,269.0825 2904.9949,270.1492 Q2904.3101,271.2158 2904.3101,273.3159 Q2904.3101,275.4077 2904.9949,276.4744 Q2905.6797,277.541 2907.0244,277.541 Q2907.6553,277.541 2908.2488,277.2712 Q2908.8423,277.0015 2909.4731,276.4204 Z "/><text fill="#000000" font-family="sans-serif" font-size="12" lengthAdjust="spacingAndGlyphs" textLength="25" x="2920.5" y="278.0352">Role</text><rect fill="#FFFFFF" height="16.1328" style="stroke: #000000; stroke-width: 1.0; stroke-dasharray: 2.0,2.0;" width="26" x="2953.5" y="254.5"/><text fill="#000000" font-family="sans-serif" font-size="12" font-style="italic" lengthAdjust="spacingAndGlyphs" textLength="16" x="2958.5" y="267.1016">DB</text><line style="stroke: #A80036; stroke-width: 1.5;" x1="2892.5" x2="2975.5" y1="289.5" y2="289.5"/><line style="stroke: #A80036; stroke-width: 1.5;" x1="2892.5" x2="2975.5" y1="297.5" y2="297.5"/><rect fill="#FEFECE" filter="url(#f1)" height="48" style="stroke: #A80036; stroke-width: 1.5;" width="113" x="2676.5" y="257.5"/><ellipse cx="2691.5" cy="273.5" fill="#ADD1B2" rx="11" ry="11" style="stroke: #A80036; stroke-width: 1.0;"/><path d="M2694.4731,279.1431 Q2693.8921,279.4419 2693.2529,279.5913 Q2692.6138,279.7407 2691.9082,279.7407 Q2689.4014,279.7407 2688.0815,278.0889 Q2686.7617,276.437 2686.7617,273.3159 Q2686.7617,270.1865 2688.0815,268.5347 Q2689.4014,266.8828 2691.9082,266.8828 Q2692.6138,266.8828 2693.2612,267.0322 Q2693.9087,267.1816 2694.4731,267.4805 L2694.4731,270.2031 Q2693.8423,269.6221 2693.2488,269.3523 Q2692.6553,269.0825 2692.0244,269.0825 Q2690.6797,269.0825 2689.9949,270.1492 Q2689.3101,271.2158 2689.3101,273.3159 Q2689.3101,275.4077 2689.9949,276.4744 Q2690.6797,277.541 2692.0244,277.541 Q2692.6553,277.541 2693.2488,277.2712 Q2693.8423,277.0015 2694.4731,276.4204 Z "/><text fill="#000000" font-family="sans-serif" font-size="12" lengthAdjust="spacingAndGlyphs" textLength="53" x="2705.5" y="278.0352">DvObject</text><rect fill="#FFFFFF" height="16.1328" style="stroke: #000000; stroke-width: 1.0; stroke-dasharray: 2.0,2.0;" width="26" x="2766.5" y="254.5"/><text fill="#000000" font-family="sans-serif" font-size="12" font-style="italic" lengthAdjust="spacingAndGlyphs" textLength="16" x="2771.5" y="267.1016">DB</text><line style="stroke: #A80036; stroke-width: 1.5;" x1="2677.5" x2="2788.5" y1="289.5" y2="289.5"/><line style="stroke: #A80036; stroke-width: 1.5;" x1="2677.5" x2="2788.5" y1="297.5" y2="297.5"/><rect fill="#FEFECE" filter="url(#f1)" height="48" style="stroke: #A80036; stroke-width: 1.5;" width="151" x="2657.5" y="462"/><ellipse cx="2672.5" cy="478" fill="#ADD1B2" rx="11" ry="11" style="stroke: #A80036; stroke-width: 1.0;"/><path d="M2675.4731,483.6431 Q2674.8921,483.9419 2674.2529,484.0913 Q2673.6138,484.2407 2672.9082,484.2407 Q2670.4014,484.2407 2669.0815,482.5889 Q2667.7617,480.937 2667.7617,477.8159 Q2667.7617,474.6865 2669.0815,473.0347 Q2670.4014,471.3828 2672.9082,471.3828 Q2673.6138,471.3828 2674.2612,471.5322 Q2674.9087,471.6816 2675.4731,471.9805 L2675.4731,474.7031 Q2674.8423,474.1221 2674.2488,473.8523 Q2673.6553,473.5825 2673.0244,473.5825 Q2671.6797,473.5825 2670.9949,474.6492 Q2670.3101,475.7158 2670.3101,477.8159 Q2670.3101,479.9077 2670.9949,480.9744 Q2671.6797,482.041 2673.0244,482.041 Q2673.6553,482.041 2674.2488,481.7712 Q2674.8423,481.5015 2675.4731,480.9204 Z "/><text fill="#000000" font-family="sans-serif" font-size="12" lengthAdjust="spacingAndGlyphs" textLength="91" x="2686.5" y="482.5352">RoleAssignment</text><rect fill="#FFFFFF" height="16.1328" style="stroke: #000000; stroke-width: 1.0; stroke-dasharray: 2.0,2.0;" width="26" x="2785.5" y="459"/><text fill="#000000" font-family="sans-serif" font-size="12" font-style="italic" lengthAdjust="spacingAndGlyphs" textLength="16" x="2790.5" y="471.6016">DB</text><line style="stroke: #A80036; stroke-width: 1.5;" x1="2658.5" x2="2807.5" y1="494" y2="494"/><line style="stroke: #A80036; stroke-width: 1.5;" x1="2658.5" x2="2807.5" y1="502" y2="502"/><polygon fill="#FBFB77" filter="url(#f1)" points="2440.5,246,2440.5,317.2422,2641.5,317.2422,2641.5,256,2631.5,246,2440.5,246" style="stroke: #A80036; stroke-width: 1.0;"/><line style="stroke: #A80036; stroke-width: 1.0;" x1="2631.5" x2="2631.5" y1="246" y2="256"/><line style="stroke: #A80036; stroke-width: 1.0;" x1="2641.5" x2="2631.5" y1="256" y2="256"/><text fill="#000000" font-family="sans-serif" font-size="13" lengthAdjust="spacingAndGlyphs" textLength="142" x="2446.5" y="263.5684">A role can be assigned</text><text fill="#000000" font-family="sans-serif" font-size="13" lengthAdjust="spacingAndGlyphs" textLength="152" x="2446.5" y="278.8789">at the DvObject where it</text><text fill="#000000" font-family="sans-serif" font-size="13" lengthAdjust="spacingAndGlyphs" textLength="142" x="2446.5" y="294.1895">is defined, or at any of</text><text fill="#000000" font-family="sans-serif" font-size="13" lengthAdjust="spacingAndGlyphs" textLength="180" x="2446.5" y="309.5">that DvObject's descendants</text><rect fill="#FEFECE" filter="url(#f1)" height="86.8652" style="stroke: #A80036; stroke-width: 1.5;" width="137" x="1792.5" y="59"/><ellipse cx="1807.95" cy="75" fill="#B4A7E5" rx="11" ry="11" style="stroke: #A80036; stroke-width: 1.0;"/><path d="M1803.8777,70.7651 L1803.8777,68.6069 L1811.2571,68.6069 L1811.2571,70.7651 L1808.7918,70.7651 L1808.7918,78.8418 L1811.2571,78.8418 L1811.2571,81 L1803.8777,81 L1803.8777,78.8418 L1806.3431,78.8418 L1806.3431,70.7651 Z "/><text fill="#000000" font-family="sans-serif" font-size="12" font-style="italic" lengthAdjust="spacingAndGlyphs" textLength="76" x="1822.05" y="79.5352">RoleAssignee</text><rect fill="#FFFFFF" height="16.1328" style="stroke: #000000; stroke-width: 1.0; stroke-dasharray: 2.0,2.0;" width="26" x="1906.5" y="56"/><text fill="#000000" font-family="sans-serif" font-size="12" font-style="italic" lengthAdjust="spacingAndGlyphs" textLength="16" x="1911.5" y="68.6016">DB</text><line style="stroke: #A80036; stroke-width: 1.5;" x1="1793.5" x2="1928.5" y1="91" y2="91"/><ellipse cx="1803.5" cy="102.9775" fill="none" rx="3" ry="3" style="stroke: #038048; stroke-width: 1.0;"/><text fill="#000000" font-family="sans-serif" font-size="11" lengthAdjust="spacingAndGlyphs" textLength="83" x="1812.5" y="105.6348">identifier:String</text><ellipse cx="1803.5" cy="115.9326" fill="none" rx="3" ry="3" style="stroke: #038048; stroke-width: 1.0;"/><text fill="#000000" font-family="sans-serif" font-size="11" lengthAdjust="spacingAndGlyphs" textLength="111" x="1812.5" y="118.5898">showInLists: Boolean</text><line style="stroke: #A80036; stroke-width: 1.5;" x1="1793.5" x2="1928.5" y1="124.9102" y2="124.9102"/><ellipse cx="1803.5" cy="136.8877" fill="#84BE84" rx="3" ry="3" style="stroke: #038048; stroke-width: 1.0;"/><text fill="#000000" font-family="sans-serif" font-size="11" lengthAdjust="spacingAndGlyphs" textLength="97" x="1812.5" y="139.5449">displayInfo() : TBD</text><rect fill="#FEFECE" filter="url(#f1)" height="48" style="stroke: #A80036; stroke-width: 1.5;" width="58" x="2010" y="257.5"/><ellipse cx="2025" cy="273.5" fill="#ADD1B2" rx="11" ry="11" style="stroke: #A80036; stroke-width: 1.0;"/><path d="M2027.9731,279.1431 Q2027.3921,279.4419 2026.7529,279.5913 Q2026.1138,279.7407 2025.4082,279.7407 Q2022.9014,279.7407 2021.5815,278.0889 Q2020.2617,276.437 2020.2617,273.3159 Q2020.2617,270.1865 2021.5815,268.5347 Q2022.9014,266.8828 2025.4082,266.8828 Q2026.1138,266.8828 2026.7612,267.0322 Q2027.4087,267.1816 2027.9731,267.4805 L2027.9731,270.2031 Q2027.3423,269.6221 2026.7488,269.3523 Q2026.1553,269.0825 2025.5244,269.0825 Q2024.1797,269.0825 2023.4949,270.1492 Q2022.8101,271.2158 2022.8101,273.3159 Q2022.8101,275.4077 2023.4949,276.4744 Q2024.1797,277.541 2025.5244,277.541 Q2026.1553,277.541 2026.7488,277.2712 Q2027.3423,277.0015 2027.9731,276.4204 Z "/><text fill="#000000" font-family="sans-serif" font-size="12" lengthAdjust="spacingAndGlyphs" textLength="26" x="2039" y="278.0352">User</text><line style="stroke: #A80036; stroke-width: 1.5;" x1="2011" x2="2067" y1="289.5" y2="289.5"/><line style="stroke: #A80036; stroke-width: 1.5;" x1="2011" x2="2067" y1="297.5" y2="297.5"/><rect fill="#FEFECE" filter="url(#f1)" height="48" style="stroke: #A80036; stroke-width: 1.5;" width="165" x="2049.5" y="462"/><ellipse cx="2064.5" cy="478" fill="#ADD1B2" rx="11" ry="11" style="stroke: #A80036; stroke-width: 1.0;"/><path d="M2067.4731,483.6431 Q2066.8921,483.9419 2066.2529,484.0913 Q2065.6138,484.2407 2064.9082,484.2407 Q2062.4014,484.2407 2061.0815,482.5889 Q2059.7617,480.937 2059.7617,477.8159 Q2059.7617,474.6865 2061.0815,473.0347 Q2062.4014,471.3828 2064.9082,471.3828 Q2065.6138,471.3828 2066.2612,471.5322 Q2066.9087,471.6816 2067.4731,471.9805 L2067.4731,474.7031 Q2066.8423,474.1221 2066.2488,473.8523 Q2065.6553,473.5825 2065.0244,473.5825 Q2063.6797,473.5825 2062.9949,474.6492 Q2062.3101,475.7158 2062.3101,477.8159 Q2062.3101,479.9077 2062.9949,480.9744 Q2063.6797,482.041 2065.0244,482.041 Q2065.6553,482.041 2066.2488,481.7712 Q2066.8423,481.5015 2067.4731,480.9204 Z "/><text fill="#000000" font-family="sans-serif" font-size="12" lengthAdjust="spacingAndGlyphs" textLength="105" x="2078.5" y="482.5352">AuthenticatedUser</text><rect fill="#FFFFFF" height="16.1328" style="stroke: #000000; stroke-width: 1.0; stroke-dasharray: 2.0,2.0;" width="26" x="2191.5" y="459"/><text fill="#000000" font-family="sans-serif" font-size="12" font-style="italic" lengthAdjust="spacingAndGlyphs" textLength="16" x="2196.5" y="471.6016">DB</text><line style="stroke: #A80036; stroke-width: 1.5;" x1="2050.5" x2="2213.5" y1="494" y2="494"/><line style="stroke: #A80036; stroke-width: 1.5;" x1="2050.5" x2="2213.5" y1="502" y2="502"/><rect fill="#FEFECE" filter="url(#f1)" height="60.9551" style="stroke: #A80036; stroke-width: 1.5;" width="100" x="1282" y="455.5"/><ellipse cx="1306.45" cy="471.5" fill="#ADD1B2" rx="11" ry="11" style="stroke: #A80036; stroke-width: 1.0;"/><path d="M1309.4231,477.1431 Q1308.8421,477.4419 1308.2029,477.5913 Q1307.5638,477.7407 1306.8582,477.7407 Q1304.3514,477.7407 1303.0315,476.0889 Q1301.7117,474.437 1301.7117,471.3159 Q1301.7117,468.1865 1303.0315,466.5347 Q1304.3514,464.8828 1306.8582,464.8828 Q1307.5638,464.8828 1308.2112,465.0322 Q1308.8587,465.1816 1309.4231,465.4805 L1309.4231,468.2031 Q1308.7923,467.6221 1308.1988,467.3523 Q1307.6053,467.0825 1306.9744,467.0825 Q1305.6297,467.0825 1304.9449,468.1492 Q1304.2601,469.2158 1304.2601,471.3159 Q1304.2601,473.4077 1304.9449,474.4744 Q1305.6297,475.541 1306.9744,475.541 Q1307.6053,475.541 1308.1988,475.2712 Q1308.7923,475.0015 1309.4231,474.4204 Z "/><text fill="#000000" font-family="sans-serif" font-size="12" lengthAdjust="spacingAndGlyphs" textLength="47" x="1322.55" y="476.0352">IpGroup</text><line style="stroke: #A80036; stroke-width: 1.5;" x1="1283" x2="1381" y1="487.5" y2="487.5"/><text fill="#000000" font-family="sans-serif" font-size="11" lengthAdjust="spacingAndGlyphs" textLength="88" x="1288" y="502.1348">range: IpRange[]</text><line style="stroke: #A80036; stroke-width: 1.5;" x1="1283" x2="1381" y1="508.4551" y2="508.4551"/><rect fill="#FEFECE" filter="url(#f1)" height="60.9551" style="stroke: #A80036; stroke-width: 1.5;" width="108" x="1906" y="455.5"/><ellipse cx="1928.65" cy="471.5" fill="#ADD1B2" rx="11" ry="11" style="stroke: #A80036; stroke-width: 1.0;"/><path d="M1931.6231,477.1431 Q1931.0421,477.4419 1930.4029,477.5913 Q1929.7638,477.7407 1929.0582,477.7407 Q1926.5514,477.7407 1925.2315,476.0889 Q1923.9117,474.437 1923.9117,471.3159 Q1923.9117,468.1865 1925.2315,466.5347 Q1926.5514,464.8828 1929.0582,464.8828 Q1929.7638,464.8828 1930.4112,465.0322 Q1931.0587,465.1816 1931.6231,465.4805 L1931.6231,468.2031 Q1930.9923,467.6221 1930.3988,467.3523 Q1929.8053,467.0825 1929.1744,467.0825 Q1927.8297,467.0825 1927.1449,468.1492 Q1926.4601,469.2158 1926.4601,471.3159 Q1926.4601,473.4077 1927.1449,474.4744 Q1927.8297,475.541 1929.1744,475.541 Q1929.8053,475.541 1930.3988,475.2712 Q1930.9923,475.0015 1931.6231,474.4204 Z "/><text fill="#000000" font-family="sans-serif" font-size="12" lengthAdjust="spacingAndGlyphs" textLength="59" x="1944.35" y="476.0352">GuestUser</text><line style="stroke: #A80036; stroke-width: 1.5;" x1="1907" x2="2013" y1="487.5" y2="487.5"/><text fill="#000000" font-family="sans-serif" font-size="11" lengthAdjust="spacingAndGlyphs" textLength="96" x="1912" y="502.1348">showInLists: False</text><line style="stroke: #A80036; stroke-width: 1.5;" x1="1907" x2="2013" y1="508.4551" y2="508.4551"/><rect fill="#FEFECE" filter="url(#f1)" height="73.9102" style="stroke: #A80036; stroke-width: 1.5;" width="100" x="2284" y="449"/><ellipse cx="2299" cy="465" fill="#ADD1B2" rx="11" ry="11" style="stroke: #A80036; stroke-width: 1.0;"/><path d="M2301.9731,470.6431 Q2301.3921,470.9419 2300.7529,471.0913 Q2300.1138,471.2407 2299.4082,471.2407 Q2296.9014,471.2407 2295.5815,469.5889 Q2294.2617,467.937 2294.2617,464.8159 Q2294.2617,461.6865 2295.5815,460.0347 Q2296.9014,458.3828 2299.4082,458.3828 Q2300.1138,458.3828 2300.7612,458.5322 Q2301.4087,458.6816 2301.9731,458.9805 L2301.9731,461.7031 Q2301.3423,461.1221 2300.7488,460.8523 Q2300.1553,460.5825 2299.5244,460.5825 Q2298.1797,460.5825 2297.4949,461.6492 Q2296.8101,462.7158 2296.8101,464.8159 Q2296.8101,466.9077 2297.4949,467.9744 Q2298.1797,469.041 2299.5244,469.041 Q2300.1553,469.041 2300.7488,468.7712 Q2301.3423,468.5015 2301.9731,467.9204 Z "/><text fill="#000000" font-family="sans-serif" font-size="12" lengthAdjust="spacingAndGlyphs" textLength="40" x="2313" y="469.5352">ApiKey</text><rect fill="#FFFFFF" height="16.1328" style="stroke: #000000; stroke-width: 1.0; stroke-dasharray: 2.0,2.0;" width="26" x="2361" y="446"/><text fill="#000000" font-family="sans-serif" font-size="12" font-style="italic" lengthAdjust="spacingAndGlyphs" textLength="16" x="2366" y="458.6016">DB</text><line style="stroke: #A80036; stroke-width: 1.5;" x1="2285" x2="2383" y1="481" y2="481"/><ellipse cx="2295" cy="492.9775" fill="none" rx="3" ry="3" style="stroke: #038048; stroke-width: 1.0;"/><text fill="#000000" font-family="sans-serif" font-size="11" lengthAdjust="spacingAndGlyphs" textLength="53" x="2304" y="495.6348">key:String</text><ellipse cx="2295" cy="505.9326" fill="none" rx="3" ry="3" style="stroke: #038048; stroke-width: 1.0;"/><text fill="#000000" font-family="sans-serif" font-size="11" lengthAdjust="spacingAndGlyphs" textLength="58" x="2304" y="508.5898">title: String</text><line style="stroke: #A80036; stroke-width: 1.5;" x1="2285" x2="2383" y1="514.9102" y2="514.9102"/><rect fill="#FEFECE" filter="url(#f1)" height="112.7754" style="stroke: #A80036; stroke-width: 1.5;" width="202" x="1388" y="225"/><ellipse cx="1466.75" cy="241" fill="#B4A7E5" rx="11" ry="11" style="stroke: #A80036; stroke-width: 1.0;"/><path d="M1462.6777,236.7651 L1462.6777,234.6069 L1470.0571,234.6069 L1470.0571,236.7651 L1467.5918,236.7651 L1467.5918,244.8418 L1470.0571,244.8418 L1470.0571,247 L1462.6777,247 L1462.6777,244.8418 L1465.1431,244.8418 L1465.1431,236.7651 Z "/><text fill="#000000" font-family="sans-serif" font-size="12" font-style="italic" lengthAdjust="spacingAndGlyphs" textLength="36" x="1487.25" y="245.5352">Group</text><line style="stroke: #A80036; stroke-width: 1.5;" x1="1389" x2="1589" y1="257" y2="257"/><ellipse cx="1399" cy="268.9775" fill="none" rx="3" ry="3" style="stroke: #038048; stroke-width: 1.0;"/><text fill="#000000" font-family="sans-serif" font-size="11" lengthAdjust="spacingAndGlyphs" textLength="67" x="1408" y="271.6348">name: String</text><ellipse cx="1399" cy="281.9326" fill="none" rx="3" ry="3" style="stroke: #038048; stroke-width: 1.0;"/><text fill="#000000" font-family="sans-serif" font-size="11" lengthAdjust="spacingAndGlyphs" textLength="102" x="1408" y="284.5898">description : String</text><ellipse cx="1399" cy="294.8877" fill="none" rx="3" ry="3" style="stroke: #038048; stroke-width: 1.0;"/><text fill="#000000" font-family="sans-serif" font-size="11" lengthAdjust="spacingAndGlyphs" textLength="52" x="1408" y="297.5449">data: Blob</text><ellipse cx="1399" cy="307.8428" fill="none" rx="3" ry="3" style="stroke: #038048; stroke-width: 1.0;"/><text fill="#000000" font-family="sans-serif" font-size="11" lengthAdjust="spacingAndGlyphs" textLength="176" x="1408" y="310.5">provider: AuthenticationProvider</text><line style="stroke: #A80036; stroke-width: 1.5;" x1="1389" x2="1589" y1="316.8203" y2="316.8203"/><ellipse cx="1399" cy="328.7979" fill="#84BE84" rx="3" ry="3" style="stroke: #038048; stroke-width: 1.0;"/><text fill="#000000" font-family="sans-serif" font-size="11" lengthAdjust="spacingAndGlyphs" textLength="141" x="1408" y="331.4551">contains( a:RoleAssignee )</text><rect fill="#FEFECE" filter="url(#f1)" height="86.8652" style="stroke: #A80036; stroke-width: 1.5;" width="161" x="1709.5" y="442.5"/><ellipse cx="1747.9" cy="458.5" fill="#ADD1B2" rx="11" ry="11" style="stroke: #A80036; stroke-width: 1.0;"/><path d="M1750.8731,464.1431 Q1750.2921,464.4419 1749.6529,464.5913 Q1749.0138,464.7407 1748.3082,464.7407 Q1745.8014,464.7407 1744.4815,463.0889 Q1743.1617,461.437 1743.1617,458.3159 Q1743.1617,455.1865 1744.4815,453.5347 Q1745.8014,451.8828 1748.3082,451.8828 Q1749.0138,451.8828 1749.6612,452.0322 Q1750.3087,452.1816 1750.8731,452.4805 L1750.8731,455.2031 Q1750.2423,454.6221 1749.6488,454.3523 Q1749.0553,454.0825 1748.4244,454.0825 Q1747.0797,454.0825 1746.3949,455.1492 Q1745.7101,456.2158 1745.7101,458.3159 Q1745.7101,460.4077 1746.3949,461.4744 Q1747.0797,462.541 1748.4244,462.541 Q1749.0553,462.541 1749.6488,462.2712 Q1750.2423,462.0015 1750.8731,461.4204 Z "/><text fill="#000000" font-family="sans-serif" font-size="12" lengthAdjust="spacingAndGlyphs" textLength="77" x="1767.1" y="463.0352">ExplicitGroup</text><line style="stroke: #A80036; stroke-width: 1.5;" x1="1710.5" x2="1869.5" y1="474.5" y2="474.5"/><ellipse cx="1720.5" cy="486.4775" fill="none" rx="3" ry="3" style="stroke: #038048; stroke-width: 1.0;"/><text fill="#000000" font-family="sans-serif" font-size="11" lengthAdjust="spacingAndGlyphs" textLength="102" x="1729.5" y="489.1348">list: RoleAssignee[]</text><line style="stroke: #A80036; stroke-width: 1.5;" x1="1710.5" x2="1869.5" y1="495.4551" y2="495.4551"/><ellipse cx="1720.5" cy="507.4326" fill="#84BE84" rx="3" ry="3" style="stroke: #038048; stroke-width: 1.0;"/><text fill="#000000" font-family="sans-serif" font-size="11" lengthAdjust="spacingAndGlyphs" textLength="115" x="1729.5" y="510.0898">add( a:RoleAssignee )</text><ellipse cx="1720.5" cy="520.3877" fill="#84BE84" rx="3" ry="3" style="stroke: #038048; stroke-width: 1.0;"/><text fill="#000000" font-family="sans-serif" font-size="11" lengthAdjust="spacingAndGlyphs" textLength="135" x="1729.5" y="523.0449">remove( a:RoleAssignee )</text><rect fill="#FEFECE" filter="url(#f1)" height="48" style="stroke: #A80036; stroke-width: 1.5;" width="143" x="1417.5" y="462"/><ellipse cx="1432.5" cy="478" fill="#ADD1B2" rx="11" ry="11" style="stroke: #A80036; stroke-width: 1.0;"/><path d="M1435.4731,483.6431 Q1434.8921,483.9419 1434.2529,484.0913 Q1433.6138,484.2407 1432.9082,484.2407 Q1430.4014,484.2407 1429.0815,482.5889 Q1427.7617,480.937 1427.7617,477.8159 Q1427.7617,474.6865 1429.0815,473.0347 Q1430.4014,471.3828 1432.9082,471.3828 Q1433.6138,471.3828 1434.2612,471.5322 Q1434.9087,471.6816 1435.4731,471.9805 L1435.4731,474.7031 Q1434.8423,474.1221 1434.2488,473.8523 Q1433.6553,473.5825 1433.0244,473.5825 Q1431.6797,473.5825 1430.9949,474.6492 Q1430.3101,475.7158 1430.3101,477.8159 Q1430.3101,479.9077 1430.9949,480.9744 Q1431.6797,482.041 1433.0244,482.041 Q1433.6553,482.041 1434.2488,481.7712 Q1434.8423,481.5015 1435.4731,480.9204 Z "/><text fill="#000000" font-family="sans-serif" font-size="12" lengthAdjust="spacingAndGlyphs" textLength="111" x="1446.5" y="482.5352">AuthenticatedUsers</text><line style="stroke: #A80036; stroke-width: 1.5;" x1="1418.5" x2="1559.5" y1="494" y2="494"/><line style="stroke: #A80036; stroke-width: 1.5;" x1="1418.5" x2="1559.5" y1="502" y2="502"/><rect fill="#FEFECE" filter="url(#f1)" height="48" style="stroke: #A80036; stroke-width: 1.5;" width="78" x="1596" y="462"/><ellipse cx="1611" cy="478" fill="#ADD1B2" rx="11" ry="11" style="stroke: #A80036; stroke-width: 1.0;"/><path d="M1613.9731,483.6431 Q1613.3921,483.9419 1612.7529,484.0913 Q1612.1138,484.2407 1611.4082,484.2407 Q1608.9014,484.2407 1607.5815,482.5889 Q1606.2617,480.937 1606.2617,477.8159 Q1606.2617,474.6865 1607.5815,473.0347 Q1608.9014,471.3828 1611.4082,471.3828 Q1612.1138,471.3828 1612.7612,471.5322 Q1613.4087,471.6816 1613.9731,471.9805 L1613.9731,474.7031 Q1613.3423,474.1221 1612.7488,473.8523 Q1612.1553,473.5825 1611.5244,473.5825 Q1610.1797,473.5825 1609.4949,474.6492 Q1608.8101,475.7158 1608.8101,477.8159 Q1608.8101,479.9077 1609.4949,480.9744 Q1610.1797,482.041 1611.5244,482.041 Q1612.1553,482.041 1612.7488,481.7712 Q1613.3423,481.5015 1613.9731,480.9204 Z "/><text fill="#000000" font-family="sans-serif" font-size="12" lengthAdjust="spacingAndGlyphs" textLength="46" x="1625" y="482.5352">AllUsers</text><line style="stroke: #A80036; stroke-width: 1.5;" x1="1597" x2="1673" y1="494" y2="494"/><line style="stroke: #A80036; stroke-width: 1.5;" x1="1597" x2="1673" y1="502" y2="502"/><rect fill="#FEFECE" filter="url(#f1)" height="60.9551" style="stroke: #A80036; stroke-width: 1.5;" width="215" x="1031.5" y="455.5"/><ellipse cx="1104.75" cy="471.5" fill="#ADD1B2" rx="11" ry="11" style="stroke: #A80036; stroke-width: 1.0;"/><path d="M1107.7231,477.1431 Q1107.1421,477.4419 1106.5029,477.5913 Q1105.8638,477.7407 1105.1582,477.7407 Q1102.6514,477.7407 1101.3315,476.0889 Q1100.0117,474.437 1100.0117,471.3159 Q1100.0117,468.1865 1101.3315,466.5347 Q1102.6514,464.8828 1105.1582,464.8828 Q1105.8638,464.8828 1106.5112,465.0322 Q1107.1587,465.1816 1107.7231,465.4805 L1107.7231,468.2031 Q1107.0923,467.6221 1106.4988,467.3523 Q1105.9053,467.0825 1105.2744,467.0825 Q1103.9297,467.0825 1103.2449,468.1492 Q1102.5601,469.2158 1102.5601,471.3159 Q1102.5601,473.4077 1103.2449,474.4744 Q1103.9297,475.541 1105.2744,475.541 Q1105.9053,475.541 1106.4988,475.2712 Q1107.0923,475.0015 1107.7231,474.4204 Z "/><text fill="#000000" font-family="sans-serif" font-size="12" lengthAdjust="spacingAndGlyphs" textLength="60" x="1125.25" y="476.0352">ShibGroup</text><line style="stroke: #A80036; stroke-width: 1.5;" x1="1032.5" x2="1245.5" y1="487.5" y2="487.5"/><text fill="#000000" font-family="sans-serif" font-size="11" lengthAdjust="spacingAndGlyphs" textLength="203" x="1037.5" y="502.1348">headerMatchers: Map&lt;String, Regex&gt;</text><line style="stroke: #A80036; stroke-width: 1.5;" x1="1032.5" x2="1245.5" y1="508.4551" y2="508.4551"/><rect fill="#FEFECE" filter="url(#f1)" height="99.8203" style="stroke: #A80036; stroke-width: 1.5;" width="342" x="411" y="436"/><ellipse cx="484.75" cy="452" fill="#ADD1B2" rx="11" ry="11" style="stroke: #A80036; stroke-width: 1.0;"/><path d="M487.7231,457.6431 Q487.1421,457.9419 486.5029,458.0913 Q485.8638,458.2407 485.1582,458.2407 Q482.6514,458.2407 481.3315,456.5889 Q480.0117,454.937 480.0117,451.8159 Q480.0117,448.6865 481.3315,447.0347 Q482.6514,445.3828 485.1582,445.3828 Q485.8638,445.3828 486.5112,445.5322 Q487.1587,445.6816 487.7231,445.9805 L487.7231,448.7031 Q487.0923,448.1221 486.4988,447.8523 Q485.9053,447.5825 485.2744,447.5825 Q483.9297,447.5825 483.2449,448.6492 Q482.5601,449.7158 482.5601,451.8159 Q482.5601,453.9077 483.2449,454.9744 Q483.9297,456.041 485.2744,456.041 Q485.9053,456.041 486.4988,455.7712 Q487.0923,455.5015 487.7231,454.9204 Z "/><text fill="#000000" font-family="sans-serif" font-size="12" lengthAdjust="spacingAndGlyphs" textLength="131" x="505.25" y="456.5352">AuthenticationManager</text><rect fill="#FFFFFF" height="16.1328" style="stroke: #000000; stroke-width: 1.0; stroke-dasharray: 2.0,2.0;" width="53" x="703" y="433"/><text fill="#000000" font-family="sans-serif" font-size="12" font-style="italic" lengthAdjust="spacingAndGlyphs" textLength="51" x="704" y="445.6016">Singleton</text><line style="stroke: #A80036; stroke-width: 1.5;" x1="412" x2="752" y1="468" y2="468"/><text fill="#000000" font-family="sans-serif" font-size="11" lengthAdjust="spacingAndGlyphs" textLength="330" x="417" y="482.6348">authenticationProviders: Collection&lt;AuthenticationProvider&gt;</text><line style="stroke: #A80036; stroke-width: 1.5;" x1="412" x2="752" y1="488.9551" y2="488.9551"/><text fill="#000000" font-family="sans-serif" font-size="11" lengthAdjust="spacingAndGlyphs" textLength="235" x="417" y="503.5898">registerProvider( p:AuthenticationProvider )</text><text fill="#000000" font-family="sans-serif" font-size="11" lengthAdjust="spacingAndGlyphs" textLength="237" x="417" y="516.5449">getRoleAssignee( idtf:String ) : RoleAssignee</text><text fill="#000000" font-family="sans-serif" font-size="11" lengthAdjust="spacingAndGlyphs" textLength="271" x="417" y="529.5">getRoleAssignee( req:HttpRequest ) : RoleAssignee</text><rect fill="#FEFECE" filter="url(#f1)" height="112.7754" style="stroke: #A80036; stroke-width: 1.5;" width="283" x="440.5" y="613"/><ellipse cx="513.25" cy="629" fill="#B4A7E5" rx="11" ry="11" style="stroke: #A80036; stroke-width: 1.0;"/><path d="M509.1777,624.7651 L509.1777,622.6069 L516.5571,622.6069 L516.5571,624.7651 L514.0918,624.7651 L514.0918,632.8418 L516.5571,632.8418 L516.5571,635 L509.1777,635 L509.1777,632.8418 L511.6431,632.8418 L511.6431,624.7651 Z "/><text fill="#000000" font-family="sans-serif" font-size="12" font-style="italic" lengthAdjust="spacingAndGlyphs" textLength="129" x="533.75" y="633.5352">AuthenticationProvider</text><line style="stroke: #A80036; stroke-width: 1.5;" x1="441.5" x2="722.5" y1="645" y2="645"/><ellipse cx="451.5" cy="656.9775" fill="none" rx="3" ry="3" style="stroke: #038048; stroke-width: 1.0;"/><text fill="#000000" font-family="sans-serif" font-size="11" lengthAdjust="spacingAndGlyphs" textLength="168" x="460.5" y="659.6348">info : RoleAssigneeProviderInfo</text><line style="stroke: #A80036; stroke-width: 1.5;" x1="441.5" x2="722.5" y1="665.9551" y2="665.9551"/><text fill="#000000" font-family="sans-serif" font-size="11" lengthAdjust="spacingAndGlyphs" textLength="120" x="446.5" y="680.5898">isQueryable(): Boolean</text><text fill="#000000" font-family="sans-serif" font-size="11" lengthAdjust="spacingAndGlyphs" textLength="258" x="446.5" y="693.5449">acceptsRoleAssigneeIdentifier( idtf:String ): bool</text><text fill="#000000" font-family="sans-serif" font-size="11" lengthAdjust="spacingAndGlyphs" textLength="237" x="446.5" y="706.5">getRoleAssignee( idtf:String ) : RoleAssignee</text><text fill="#000000" font-family="sans-serif" font-size="11" lengthAdjust="spacingAndGlyphs" textLength="271" x="446.5" y="719.4551">getRoleAssignee( req:HttpRequest ) : RoleAssignee</text><rect fill="#FEFECE" filter="url(#f1)" height="60.9551" style="stroke: #A80036; stroke-width: 1.5;" width="136" x="301" y="793.5"/><ellipse cx="327.25" cy="809.5" fill="#B4A7E5" rx="11" ry="11" style="stroke: #A80036; stroke-width: 1.0;"/><path d="M323.1777,805.2651 L323.1777,803.1069 L330.5571,803.1069 L330.5571,805.2651 L328.0918,805.2651 L328.0918,813.3418 L330.5571,813.3418 L330.5571,815.5 L323.1777,815.5 L323.1777,813.3418 L325.6431,813.3418 L325.6431,805.2651 Z "/><text fill="#000000" font-family="sans-serif" font-size="12" font-style="italic" lengthAdjust="spacingAndGlyphs" textLength="79" x="343.75" y="814.0352">GroupCreator</text><line style="stroke: #A80036; stroke-width: 1.5;" x1="302" x2="436" y1="825.5" y2="825.5"/><ellipse cx="312" cy="837.4775" fill="none" rx="3" ry="3" style="stroke: #038048; stroke-width: 1.0;"/><text fill="#000000" font-family="sans-serif" font-size="11" lengthAdjust="spacingAndGlyphs" textLength="110" x="321" y="840.1348">createGroup : Group</text><line style="stroke: #A80036; stroke-width: 1.5;" x1="302" x2="436" y1="846.4551" y2="846.4551"/><rect fill="#FEFECE" filter="url(#f1)" height="73.9102" style="stroke: #A80036; stroke-width: 1.5;" width="226" x="472" y="787"/><ellipse cx="552.25" cy="803" fill="#B4A7E5" rx="11" ry="11" style="stroke: #A80036; stroke-width: 1.0;"/><path d="M548.1777,798.7651 L548.1777,796.6069 L555.5571,796.6069 L555.5571,798.7651 L553.0918,798.7651 L553.0918,806.8418 L555.5571,806.8418 L555.5571,809 L548.1777,809 L548.1777,806.8418 L550.6431,806.8418 L550.6431,798.7651 Z "/><text fill="#000000" font-family="sans-serif" font-size="12" font-style="italic" lengthAdjust="spacingAndGlyphs" textLength="57" x="572.75" y="807.5352">UserLister</text><line style="stroke: #A80036; stroke-width: 1.5;" x1="473" x2="697" y1="819" y2="819"/><line style="stroke: #A80036; stroke-width: 1.5;" x1="473" x2="697" y1="827" y2="827"/><ellipse cx="483" cy="838.9775" fill="#84BE84" rx="3" ry="3" style="stroke: #038048; stroke-width: 1.0;"/><text fill="#000000" font-family="sans-serif" font-size="11" lengthAdjust="spacingAndGlyphs" textLength="126" x="492" y="841.6348">listUsers() : List&lt;User&gt;</text><ellipse cx="483" cy="851.9326" fill="#84BE84" rx="3" ry="3" style="stroke: #038048; stroke-width: 1.0;"/><text fill="#000000" font-family="sans-serif" font-size="11" lengthAdjust="spacingAndGlyphs" textLength="200" x="492" y="854.5898">findUsers( queryString ) : List&lt;User&gt;</text><rect fill="#FEFECE" filter="url(#f1)" height="99.8203" style="stroke: #A80036; stroke-width: 1.5;" width="182" x="793" y="619.5"/><ellipse cx="808" cy="635.5" fill="#ADD1B2" rx="11" ry="11" style="stroke: #A80036; stroke-width: 1.0;"/><path d="M810.9731,641.1431 Q810.3921,641.4419 809.7529,641.5913 Q809.1138,641.7407 808.4082,641.7407 Q805.9014,641.7407 804.5815,640.0889 Q803.2617,638.437 803.2617,635.3159 Q803.2617,632.1865 804.5815,630.5347 Q805.9014,628.8828 808.4082,628.8828 Q809.1138,628.8828 809.7612,629.0322 Q810.4087,629.1816 810.9731,629.4805 L810.9731,632.2031 Q810.3423,631.6221 809.7488,631.3523 Q809.1553,631.0825 808.5244,631.0825 Q807.1797,631.0825 806.4949,632.1492 Q805.8101,633.2158 805.8101,635.3159 Q805.8101,637.4077 806.4949,638.4744 Q807.1797,639.541 808.5244,639.541 Q809.1553,639.541 809.7488,639.2712 Q810.3423,639.0015 810.9731,638.4204 Z "/><text fill="#000000" font-family="sans-serif" font-size="12" lengthAdjust="spacingAndGlyphs" textLength="150" x="822" y="640.0352">AuthenticationProviderInfo</text><line style="stroke: #A80036; stroke-width: 1.5;" x1="794" x2="974" y1="651.5" y2="651.5"/><ellipse cx="804" cy="663.4775" fill="none" rx="3" ry="3" style="stroke: #038048; stroke-width: 1.0;"/><text fill="#000000" font-family="sans-serif" font-size="11" lengthAdjust="spacingAndGlyphs" textLength="29" x="813" y="666.1348">name</text><ellipse cx="804" cy="676.4326" fill="none" rx="3" ry="3" style="stroke: #038048; stroke-width: 1.0;"/><text fill="#000000" font-family="sans-serif" font-size="11" lengthAdjust="spacingAndGlyphs" textLength="61" x="813" y="679.0898">description</text><ellipse cx="804" cy="689.3877" fill="none" rx="3" ry="3" style="stroke: #038048; stroke-width: 1.0;"/><text fill="#000000" font-family="sans-serif" font-size="11" lengthAdjust="spacingAndGlyphs" textLength="28" x="813" y="692.0449">icon?</text><ellipse cx="804" cy="702.3428" fill="none" rx="3" ry="3" style="stroke: #038048; stroke-width: 1.0;"/><text fill="#000000" font-family="sans-serif" font-size="11" lengthAdjust="spacingAndGlyphs" textLength="9" x="813" y="705">...</text><line style="stroke: #A80036; stroke-width: 1.5;" x1="794" x2="974" y1="711.3203" y2="711.3203"/><rect fill="#FEFECE" filter="url(#f1)" height="48" style="stroke: #A80036; stroke-width: 1.5;" width="190" x="514" y="922"/><ellipse cx="529" cy="938" fill="#ADD1B2" rx="11" ry="11" style="stroke: #A80036; stroke-width: 1.0;"/><path d="M531.9731,943.6431 Q531.3921,943.9419 530.7529,944.0913 Q530.1138,944.2407 529.4082,944.2407 Q526.9014,944.2407 525.5815,942.5889 Q524.2617,940.937 524.2617,937.8159 Q524.2617,934.6865 525.5815,933.0347 Q526.9014,931.3828 529.4082,931.3828 Q530.1138,931.3828 530.7612,931.5322 Q531.4087,931.6816 531.9731,931.9805 L531.9731,934.7031 Q531.3423,934.1221 530.7488,933.8523 Q530.1553,933.5825 529.5244,933.5825 Q528.1797,933.5825 527.4949,934.6492 Q526.8101,935.7158 526.8101,937.8159 Q526.8101,939.9077 527.4949,940.9744 Q528.1797,942.041 529.5244,942.041 Q530.1553,942.041 530.7488,941.7712 Q531.3423,941.5015 531.9731,940.9204 Z "/><text fill="#000000" font-family="sans-serif" font-size="12" lengthAdjust="spacingAndGlyphs" textLength="158" x="543" y="942.5352">LocalAuthenticationProvider</text><line style="stroke: #A80036; stroke-width: 1.5;" x1="515" x2="703" y1="954" y2="954"/><line style="stroke: #A80036; stroke-width: 1.5;" x1="515" x2="703" y1="962" y2="962"/><rect fill="#FEFECE" filter="url(#f1)" height="48" style="stroke: #A80036; stroke-width: 1.5;" width="185" x="38.5" y="922"/><ellipse cx="53.5" cy="938" fill="#ADD1B2" rx="11" ry="11" style="stroke: #A80036; stroke-width: 1.0;"/><path d="M56.4731,943.6431 Q55.8921,943.9419 55.2529,944.0913 Q54.6138,944.2407 53.9082,944.2407 Q51.4014,944.2407 50.0815,942.5889 Q48.7617,940.937 48.7617,937.8159 Q48.7617,934.6865 50.0815,933.0347 Q51.4014,931.3828 53.9082,931.3828 Q54.6138,931.3828 55.2612,931.5322 Q55.9087,931.6816 56.4731,931.9805 L56.4731,934.7031 Q55.8423,934.1221 55.2488,933.8523 Q54.6553,933.5825 54.0244,933.5825 Q52.6797,933.5825 51.9949,934.6492 Q51.3101,935.7158 51.3101,937.8159 Q51.3101,939.9077 51.9949,940.9744 Q52.6797,942.041 54.0244,942.041 Q54.6553,942.041 55.2488,941.7712 Q55.8423,941.5015 56.4731,940.9204 Z "/><text fill="#000000" font-family="sans-serif" font-size="12" lengthAdjust="spacingAndGlyphs" textLength="153" x="67.5" y="942.5352">ShibAuthenticationProvider</text><line style="stroke: #A80036; stroke-width: 1.5;" x1="39.5" x2="222.5" y1="954" y2="954"/><line style="stroke: #A80036; stroke-width: 1.5;" x1="39.5" x2="222.5" y1="962" y2="962"/><rect fill="#FEFECE" filter="url(#f1)" height="48" style="stroke: #A80036; stroke-width: 1.5;" width="220" x="259" y="922"/><ellipse cx="274" cy="938" fill="#ADD1B2" rx="11" ry="11" style="stroke: #A80036; stroke-width: 1.0;"/><path d="M276.9731,943.6431 Q276.3921,943.9419 275.7529,944.0913 Q275.1138,944.2407 274.4082,944.2407 Q271.9014,944.2407 270.5815,942.5889 Q269.2617,940.937 269.2617,937.8159 Q269.2617,934.6865 270.5815,933.0347 Q271.9014,931.3828 274.4082,931.3828 Q275.1138,931.3828 275.7612,931.5322 Q276.4087,931.6816 276.9731,931.9805 L276.9731,934.7031 Q276.3423,934.1221 275.7488,933.8523 Q275.1553,933.5825 274.5244,933.5825 Q273.1797,933.5825 272.4949,934.6492 Q271.8101,935.7158 271.8101,937.8159 Q271.8101,939.9077 272.4949,940.9744 Q273.1797,942.041 274.5244,942.041 Q275.1553,942.041 275.7488,941.7712 Q276.3423,941.5015 276.9731,940.9204 Z "/><text fill="#000000" font-family="sans-serif" font-size="12" lengthAdjust="spacingAndGlyphs" textLength="188" x="288" y="942.5352">IpAddressAuthenticationProvider</text><line style="stroke: #A80036; stroke-width: 1.5;" x1="260" x2="478" y1="954" y2="954"/><line style="stroke: #A80036; stroke-width: 1.5;" x1="260" x2="478" y1="962" y2="962"/><rect fill="#FEFECE" filter="url(#f1)" height="48" style="stroke: #A80036; stroke-width: 1.5;" width="236" x="739" y="922"/><ellipse cx="754" cy="938" fill="#ADD1B2" rx="11" ry="11" style="stroke: #A80036; stroke-width: 1.0;"/><path d="M756.9731,943.6431 Q756.3921,943.9419 755.7529,944.0913 Q755.1138,944.2407 754.4082,944.2407 Q751.9014,944.2407 750.5815,942.5889 Q749.2617,940.937 749.2617,937.8159 Q749.2617,934.6865 750.5815,933.0347 Q751.9014,931.3828 754.4082,931.3828 Q755.1138,931.3828 755.7612,931.5322 Q756.4087,931.6816 756.9731,931.9805 L756.9731,934.7031 Q756.3423,934.1221 755.7488,933.8523 Q755.1553,933.5825 754.5244,933.5825 Q753.1797,933.5825 752.4949,934.6492 Q751.8101,935.7158 751.8101,937.8159 Q751.8101,939.9077 752.4949,940.9744 Q753.1797,942.041 754.5244,942.041 Q755.1553,942.041 755.7488,941.7712 Q756.3423,941.5015 756.9731,940.9204 Z "/><text fill="#000000" font-family="sans-serif" font-size="12" lengthAdjust="spacingAndGlyphs" textLength="158" x="768" y="942.5352">LdapAuthenticationProvider</text><rect fill="#FFFFFF" height="16.1328" style="stroke: #000000; stroke-width: 1.0; stroke-dasharray: 2.0,2.0;" width="44" x="934" y="919"/><text fill="#000000" font-family="sans-serif" font-size="12" font-style="italic" lengthAdjust="spacingAndGlyphs" textLength="34" x="939" y="931.6016">future</text><line style="stroke: #A80036; stroke-width: 1.5;" x1="740" x2="974" y1="954" y2="954"/><line style="stroke: #A80036; stroke-width: 1.5;" x1="740" x2="974" y1="962" y2="962"/><rect fill="#FEFECE" filter="url(#f1)" height="48" style="stroke: #A80036; stroke-width: 1.5;" width="242" x="733" y="800"/><ellipse cx="748" cy="816" fill="#ADD1B2" rx="11" ry="11" style="stroke: #A80036; stroke-width: 1.0;"/><path d="M750.9731,821.6431 Q750.3921,821.9419 749.7529,822.0913 Q749.1138,822.2407 748.4082,822.2407 Q745.9014,822.2407 744.5815,820.5889 Q743.2617,818.937 743.2617,815.8159 Q743.2617,812.6865 744.5815,811.0347 Q745.9014,809.3828 748.4082,809.3828 Q749.1138,809.3828 749.7612,809.5322 Q750.4087,809.6816 750.9731,809.9805 L750.9731,812.7031 Q750.3423,812.1221 749.7488,811.8523 Q749.1553,811.5825 748.5244,811.5825 Q747.1797,811.5825 746.4949,812.6492 Q745.8101,813.7158 745.8101,815.8159 Q745.8101,817.9077 746.4949,818.9744 Q747.1797,820.041 748.5244,820.041 Q749.1553,820.041 749.7488,819.7712 Q750.3423,819.5015 750.9731,818.9204 Z "/><text fill="#000000" font-family="sans-serif" font-size="12" lengthAdjust="spacingAndGlyphs" textLength="164" x="762" y="820.5352">OAuthAuthenticationProvider</text><rect fill="#FFFFFF" height="16.1328" style="stroke: #000000; stroke-width: 1.0; stroke-dasharray: 2.0,2.0;" width="44" x="934" y="797"/><text fill="#000000" font-family="sans-serif" font-size="12" font-style="italic" lengthAdjust="spacingAndGlyphs" textLength="34" x="939" y="809.6016">future</text><line style="stroke: #A80036; stroke-width: 1.5;" x1="734" x2="974" y1="832" y2="832"/><line style="stroke: #A80036; stroke-width: 1.5;" x1="734" x2="974" y1="840" y2="840"/><rect fill="#FEFECE" filter="url(#f1)" height="86.8652" style="stroke: #A80036; stroke-width: 1.5;" width="146" x="2587" y="59"/><ellipse cx="2602" cy="75" fill="#ADD1B2" rx="11" ry="11" style="stroke: #A80036; stroke-width: 1.0;"/><path d="M2604.9731,80.6431 Q2604.3921,80.9419 2603.7529,81.0913 Q2603.1138,81.2407 2602.4082,81.2407 Q2599.9014,81.2407 2598.5815,79.5889 Q2597.2617,77.937 2597.2617,74.8159 Q2597.2617,71.6865 2598.5815,70.0347 Q2599.9014,68.3828 2602.4082,68.3828 Q2603.1138,68.3828 2603.7612,68.5322 Q2604.4087,68.6816 2604.9731,68.9805 L2604.9731,71.7031 Q2604.3423,71.1221 2603.7488,70.8523 Q2603.1553,70.5825 2602.5244,70.5825 Q2601.1797,70.5825 2600.4949,71.6492 Q2599.8101,72.7158 2599.8101,74.8159 Q2599.8101,76.9077 2600.4949,77.9744 Q2601.1797,79.041 2602.5244,79.041 Q2603.1553,79.041 2603.7488,78.7712 Q2604.3423,78.5015 2604.9731,77.9204 Z "/><text fill="#000000" font-family="sans-serif" font-size="12" lengthAdjust="spacingAndGlyphs" textLength="86" x="2616" y="79.5352">AccessRequest</text><rect fill="#FFFFFF" height="16.1328" style="stroke: #000000; stroke-width: 1.0; stroke-dasharray: 2.0,2.0;" width="26" x="2710" y="56"/><text fill="#000000" font-family="sans-serif" font-size="12" font-style="italic" lengthAdjust="spacingAndGlyphs" textLength="16" x="2715" y="68.6016">DB</text><line style="stroke: #A80036; stroke-width: 1.5;" x1="2588" x2="2732" y1="91" y2="91"/><text fill="#000000" font-family="sans-serif" font-size="11" lengthAdjust="spacingAndGlyphs" textLength="132" x="2593" y="105.6348">from: AuthenticatedUser</text><text fill="#000000" font-family="sans-serif" font-size="11" lengthAdjust="spacingAndGlyphs" textLength="75" x="2593" y="118.5898">dvo: DvObject</text><text fill="#000000" font-family="sans-serif" font-size="11" lengthAdjust="spacingAndGlyphs" textLength="79" x="2593" y="131.5449">metadata : TBD</text><line style="stroke: #A80036; stroke-width: 1.5;" x1="2588" x2="2732" y1="137.8652" y2="137.8652"/><rect fill="#FEFECE" filter="url(#f1)" height="73.9102" style="stroke: #A80036; stroke-width: 1.5;" width="111" x="2440.5" y="65.5"/><ellipse cx="2464.5" cy="81.5" fill="#B4A7E5" rx="11" ry="11" style="stroke: #A80036; stroke-width: 1.0;"/><path d="M2460.4277,77.2651 L2460.4277,75.1069 L2467.8071,75.1069 L2467.8071,77.2651 L2465.3418,77.2651 L2465.3418,85.3418 L2467.8071,85.3418 L2467.8071,87.5 L2460.4277,87.5 L2460.4277,85.3418 L2462.8931,85.3418 L2462.8931,77.2651 Z "/><text fill="#000000" font-family="sans-serif" font-size="12" font-style="italic" lengthAdjust="spacingAndGlyphs" textLength="59" x="2480.5" y="86.0352">Command</text><line style="stroke: #A80036; stroke-width: 1.5;" x1="2441.5" x2="2550.5" y1="97.5" y2="97.5"/><text fill="#000000" font-family="sans-serif" font-size="11" lengthAdjust="spacingAndGlyphs" textLength="78" x="2446.5" y="112.1348">issuedBy: User</text><text fill="#000000" font-family="sans-serif" font-size="11" lengthAdjust="spacingAndGlyphs" textLength="99" x="2446.5" y="125.0898">effects: DvObject[]</text><line style="stroke: #A80036; stroke-width: 1.5;" x1="2441.5" x2="2550.5" y1="131.4102" y2="131.4102"/><path d="M1918.64,160.816 C1951.48,193.469 1990.85,232.616 2015.4,257.03 " fill="none" style="stroke: #A80036; stroke-width: 1.0;"/><polygon fill="none" points="1913.33,165.413,1904.09,146.347,1923.21,155.485,1913.33,165.413" style="stroke: #A80036; stroke-width: 1.0;"/><path d="M1773.99,144.9 C1719.01,171.058 1647.76,204.962 1590.25,232.325 " fill="none" style="stroke: #A80036; stroke-width: 1.0;"/><polygon fill="none" points="1771.27,138.443,1792.34,136.171,1777.28,151.085,1771.27,138.443" style="stroke: #A80036; stroke-width: 1.0;"/><path d="M2058.05,323.984 C2077.16,365.585 2105.89,428.152 2121.31,461.731 " fill="none" style="stroke: #A80036; stroke-width: 1.0;"/><polygon fill="none" points="2051.65,326.826,2049.67,305.729,2064.38,320.983,2051.65,326.826" style="stroke: #A80036; stroke-width: 1.0;"/><path d="M2022.61,324.521 C2007.39,363.534 1985.11,420.643 1971.64,455.171 " fill="none" style="stroke: #A80036; stroke-width: 1.0;"/><polygon fill="none" points="2016.15,321.818,2029.94,305.729,2029.19,326.906,2016.15,321.818" style="stroke: #A80036; stroke-width: 1.0;"/><path d="M1607.86,341.124 C1635.95,356.7 1665.21,374.406 1691,393 C1711.17,407.545 1731.62,425.818 1748.64,442.238 " fill="none" style="stroke: #A80036; stroke-width: 1.0;"/><polygon fill="none" points="1604.32,347.167,1590.09,331.462,1611.01,334.868,1604.32,347.167" style="stroke: #A80036; stroke-width: 1.0;"/><path d="M1489,358.235 C1489,395.104 1489,436.8 1489,461.982 " fill="none" style="stroke: #A80036; stroke-width: 1.0;"/><polygon fill="none" points="1482,358.102,1489,338.102,1496,358.102,1482,358.102" style="stroke: #A80036; stroke-width: 1.0;"/><path d="M1548.72,354.036 C1558.77,366.804 1568.89,380.139 1578,393 C1594.08,415.691 1610.61,442.895 1621.71,461.809 " fill="none" style="stroke: #A80036; stroke-width: 1.0;"/><polygon fill="none" points="1543.12,358.239,1536.11,338.243,1554.06,349.502,1543.12,358.239" style="stroke: #A80036; stroke-width: 1.0;"/><path d="M1369.44,336.321 C1334.75,353.239 1297.27,372.808 1264,393 C1232.9,411.874 1199.84,436.426 1175.54,455.419 " fill="none" style="stroke: #A80036; stroke-width: 1.0;"/><polygon fill="none" points="1366.78,329.835,1387.84,327.469,1372.85,342.45,1366.78,329.835" style="stroke: #A80036; stroke-width: 1.0;"/><path d="M1430.65,354.055 C1420.35,366.946 1409.79,380.317 1400,393 C1384.1,413.598 1366.67,437.206 1353.43,455.35 " fill="none" style="stroke: #A80036; stroke-width: 1.0;"/><polygon fill="none" points="1425.51,349.278,1443.5,338.072,1436.43,358.047,1425.51,349.278" style="stroke: #A80036; stroke-width: 1.0;"/><path d="M2228.04,486 C2246.6,486 2265.17,486 2283.73,486 " fill="none" style="stroke: #A80036; stroke-width: 1.0;"/><polygon fill="#A80036" points="2214.85,486,2220.85,490,2226.85,486,2220.85,482,2214.85,486" style="stroke: #A80036; stroke-width: 1.0;"/><text fill="#000000" font-family="sans-serif" font-size="13" lengthAdjust="spacingAndGlyphs" textLength="8" x="2222.5851" y="482.9142">1</text><text fill="#000000" font-family="sans-serif" font-size="13" lengthAdjust="spacingAndGlyphs" textLength="22" x="2253.8798" y="482.6331">0..*</text><path d="M2891.28,281.5 C2863.25,281.5 2826.13,281.5 2794.89,281.5 " fill="none" style="stroke: #A80036; stroke-width: 1.0;"/><polygon fill="#A80036" points="2789.52,281.5,2798.52,285.5,2794.52,281.5,2798.52,277.5,2789.52,281.5" style="stroke: #A80036; stroke-width: 1.0;"/><text fill="#000000" font-family="sans-serif" font-size="13" lengthAdjust="spacingAndGlyphs" textLength="65" x="2808" y="275.0684">Defined at</text><path d="M2733,310.962 C2733,351.323 2733,424.421 2733,461.731 " fill="none" style="stroke: #A80036; stroke-width: 1.0;"/><polygon fill="#A80036" points="2733,305.729,2729,314.729,2733,310.729,2737,314.729,2733,305.729" style="stroke: #A80036; stroke-width: 1.0;"/><text fill="#000000" font-family="sans-serif" font-size="13" lengthAdjust="spacingAndGlyphs" textLength="14" x="2734" y="381.5684">At</text><text fill="#000000" font-family="sans-serif" font-size="13" lengthAdjust="spacingAndGlyphs" textLength="8" x="2724.025" y="326.0692">1</text><path d="M2907.21,309.494 C2867.47,349.528 2793.58,423.964 2756.1,461.731 " fill="none" style="stroke: #A80036; stroke-width: 1.0;"/><polygon fill="#A80036" points="2910.94,305.729,2901.7577,309.2905,2907.4145,309.2745,2907.4305,314.9314,2910.94,305.729" style="stroke: #A80036; stroke-width: 1.0;"/><text fill="#000000" font-family="sans-serif" font-size="13" lengthAdjust="spacingAndGlyphs" textLength="50" x="2846" y="381.5684">Assigns</text><text fill="#000000" font-family="sans-serif" font-size="13" lengthAdjust="spacingAndGlyphs" textLength="8" x="2896.3441" y="326.0692">1</text><path d="M2667.33,461.975 C2600.87,439.838 2494.69,407.646 2400,393 C2388.24,391.181 2195.1,392.659 2186,385 C2114.02,324.454 2206.83,246.14 2142,178 C2113.76,148.319 2008.32,126.321 1934.96,114.199 " fill="none" style="stroke: #A80036; stroke-width: 1.0;"/><polygon fill="#A80036" points="1929.73,113.343,1937.9586,118.755,1934.6633,114.1571,1939.2612,110.8618,1929.73,113.343" style="stroke: #A80036; stroke-width: 1.0;"/><text fill="#000000" font-family="sans-serif" font-size="13" lengthAdjust="spacingAndGlyphs" textLength="16" x="2168" y="286.5684">To</text><text fill="#000000" font-family="sans-serif" font-size="13" lengthAdjust="spacingAndGlyphs" textLength="8" x="1937.6848" y="111.3014">1</text><path d="M1797.94,442.331 C1811.28,370.64 1838.11,226.512 1852.08,151.437 " fill="none" style="stroke: #A80036; stroke-width: 1.0; stroke-dasharray: 7.0,7.0;"/><polygon fill="#A80036" points="1853.06,146.152,1847.4813,154.2685,1852.1455,151.0677,1855.3463,155.7318,1853.06,146.152" style="stroke: #A80036; stroke-width: 1.0;"/><text fill="#000000" font-family="sans-serif" font-size="13" lengthAdjust="spacingAndGlyphs" textLength="56" x="1843" y="286.5684">Contains</text><path d="M1787.82,428.883 C1787.04,371.174 1789.91,279.218 1811,203 C1815.23,187.716 1821.88,172.01 1828.97,157.723 " fill="none" style="stroke: #A80036; stroke-width: 1.0;"/><polygon fill="#A80036" points="1834.99,146.095,1827.3019,152.2507,1832.6926,150.5359,1834.4074,155.9266,1834.99,146.095" style="stroke: #A80036; stroke-width: 1.0;"/><line style="stroke: #A80036; stroke-width: 1.0;" x1="1832.6926" x2="1829.01" y1="150.5359" y2="157.642"/><polygon fill="none" points="1788.07,442.076,1791.9558,436.0014,1787.843,430.0781,1783.9572,436.1527,1788.07,442.076" style="stroke: #A80036; stroke-width: 1.0;"/><path d="M1832.91,432.665 C1848.54,417.185 1867.46,401.988 1888,393 C2202.72,255.268 2337.17,458.17 2659,338 C2673.4,332.624 2687.37,323.511 2699.23,314.206 " fill="none" style="stroke: #A80036; stroke-width: 1.0;"/><polygon fill="#A80036" points="2709.47,305.709,2702.2982,306.4611,2700.2341,313.3704,2707.4059,312.6184,2709.47,305.709" style="stroke: #A80036; stroke-width: 1.0;"/><polygon fill="#A80036" points="1823.62,442.288,1832.7509,438.5965,1827.0948,438.6928,1826.9985,433.0367,1823.62,442.288" style="stroke: #A80036; stroke-width: 1.0;"/><line style="stroke: #A80036; stroke-width: 1.0;" x1="1827.0948" x2="1832.65" y1="438.6928" y2="432.9355"/><text fill="#000000" font-family="sans-serif" font-size="13" lengthAdjust="spacingAndGlyphs" textLength="48" x="2552" y="381.5684">Defines</text><text fill="#000000" font-family="sans-serif" font-size="13" lengthAdjust="spacingAndGlyphs" textLength="22" x="1805.2251" y="431.7299">0..*</text><text fill="#000000" font-family="sans-serif" font-size="13" lengthAdjust="spacingAndGlyphs" textLength="8" x="2694.7596" y="326.0443">1</text><path d="M582,549.324 C582,565.624 582,583.284 582,599.89 " fill="none" style="stroke: #A80036; stroke-width: 1.0;"/><polygon fill="#A80036" points="582,612.936,586,603.936,582,607.936,578,603.936,582,612.936" style="stroke: #A80036; stroke-width: 1.0;"/><line style="stroke: #A80036; stroke-width: 1.0;" x1="582" x2="582" y1="607.936" y2="599.936"/><polygon fill="#A80036" points="582,536.117,578,542.117,582,548.117,586,542.117,582,536.117" style="stroke: #A80036; stroke-width: 1.0;"/><text fill="#000000" font-family="sans-serif" font-size="13" lengthAdjust="spacingAndGlyphs" textLength="22" x="558.5906" y="602.3304">1..*</text><path d="M698.873,736.026 C739.478,758.792 782.403,782.859 812.781,799.89 " fill="none" style="stroke: #A80036; stroke-width: 1.0; stroke-dasharray: 7.0,7.0;"/><polygon fill="none" points="695.375,742.09,681.353,726.203,702.221,729.878,695.375,742.09" style="stroke: #A80036; stroke-width: 1.0;"/><path d="M583.497,746.605 C583.771,760.534 584.045,774.469 584.283,786.551 " fill="none" style="stroke: #A80036; stroke-width: 1.0;"/><polygon fill="none" points="576.495,746.553,583.1,726.419,590.492,746.278,576.495,746.553" style="stroke: #A80036; stroke-width: 1.0;"/><path d="M487.575,738.105 C460.557,757.448 432.49,777.544 410.448,793.325 " fill="none" style="stroke: #A80036; stroke-width: 1.0;"/><polygon fill="none" points="483.861,732.155,504.198,726.203,492.011,743.538,483.861,732.155" style="stroke: #A80036; stroke-width: 1.0;"/><path d="M596.18,880.9 C599.075,895.374 602.034,910.1684 604.378,921.8917 " fill="none" style="stroke: #A80036; stroke-width: 1.0;"/><polygon fill="none" points="589.259,881.988,592.201,861.004,602.987,879.243,589.259,881.988" style="stroke: #A80036; stroke-width: 1.0;"/><path d="M445.968,863.484 C484.387,882.693 529.589,905.2946 562.641,921.8203 " fill="none" style="stroke: #A80036; stroke-width: 1.0;"/><polygon fill="none" points="442.776,869.714,428.018,854.509,449.037,857.192,442.776,869.714" style="stroke: #A80036; stroke-width: 1.0;"/><path d="M685.156,869.186 C725.688,887.068 770.794,906.9681 804.621,921.8917 " fill="none" style="stroke: #A80036; stroke-width: 1.0;"/><polygon fill="none" points="682.082,875.481,666.609,861.004,687.733,862.672,682.082,875.481" style="stroke: #A80036; stroke-width: 1.0;"/><path d="M454.921,860.496 C528.773,881.831 648.022,905.6737 738.638,922.9795 " fill="none" style="stroke: #A80036; stroke-width: 1.0;"/><polygon fill="none" points="452.458,867.063,435.356,854.552,456.527,853.668,452.458,867.063" style="stroke: #A80036; stroke-width: 1.0;"/><path d="M292.414,863.615 C254.371,882.796 209.675,905.3321 176.973,921.8203 " fill="none" style="stroke: #A80036; stroke-width: 1.0;"/><polygon fill="none" points="289.464,857.263,310.474,854.509,295.767,869.764,289.464,857.263" style="stroke: #A80036; stroke-width: 1.0;"/><path d="M369,874.7 C369,890.983 369,908.3096 369,921.6871 " fill="none" style="stroke: #A80036; stroke-width: 1.0;"/><polygon fill="none" points="362,874.663,369,854.663,376,874.663,362,874.663" style="stroke: #A80036; stroke-width: 1.0;"/><path d="M736.818,669.5 C751.108,669.5 765.399,669.5 779.69,669.5 " fill="none" style="stroke: #A80036; stroke-width: 1.0;"/><polygon fill="#A80036" points="792.814,669.5,783.814,665.5,787.814,669.5,783.814,673.5,792.814,669.5" style="stroke: #A80036; stroke-width: 1.0;"/><line style="stroke: #A80036; stroke-width: 1.0;" x1="787.814" x2="779.814" y1="669.5" y2="669.5"/><polygon fill="#A80036" points="723.562,669.5,729.562,673.5,735.562,669.5,729.562,665.5,723.562,669.5" style="stroke: #A80036; stroke-width: 1.0;"/><path d="M1382.7,289.967 C1273.31,301.001 1100.27,327.952 965,393 C863.841,441.646 861.433,488.388 770,553.5 C741.171,574.03 708.631,594.738 678.825,612.815 " fill="none" style="stroke: #A80036; stroke-width: 1.0; stroke-dasharray: 7.0,7.0;"/><polygon fill="#A80036" points="1387.86,289.453,1378.5052,286.3729,1382.8851,289.9529,1379.305,294.3328,1387.86,289.453" style="stroke: #A80036; stroke-width: 1.0;"/><text fill="#000000" font-family="sans-serif" font-size="13" lengthAdjust="spacingAndGlyphs" textLength="47" x="966" y="491.0684">Creates</text><path d="M2101.2,513.592 C2082.29,528.235 2056.8,545.1 2031,553.5 C1765.31,640.018 1050.69,567.47 775,613 C758.231,615.769 740.849,619.497 723.697,623.717 " fill="none" style="stroke: #A80036; stroke-width: 1.0; stroke-dasharray: 7.0,7.0;"/><polygon fill="#A80036" points="2105.38,510.312,2095.8302,512.7205,2101.4463,513.3984,2100.7684,519.0145,2105.38,510.312" style="stroke: #A80036; stroke-width: 1.0;"/><text fill="#000000" font-family="sans-serif" font-size="13" lengthAdjust="spacingAndGlyphs" textLength="105" x="1980" y="579.5684">Creates/Updates</text><path d="M2607.35,146.007 C2595.19,154.661 2582,163.189 2569,170 C2539,185.722 2530.17,188.124 2497,195 C2485.33,197.42 2399.03,195.211 2390,203 C2327.22,257.168 2411.19,330.161 2349,385 C2335.1,397.255 2283.41,386.666 2266,393 C2225.98,407.559 2186.57,436.928 2160.96,458.584 " fill="none" style="stroke: #A80036; stroke-width: 1.0; stroke-dasharray: 7.0,7.0;"/><polygon fill="#A80036" points="2156.97,461.99,2166.4131,459.1922,2160.7739,458.745,2161.2211,453.1058,2156.97,461.99" style="stroke: #A80036; stroke-width: 1.0;"/><text fill="#000000" font-family="sans-serif" font-size="13" lengthAdjust="spacingAndGlyphs" textLength="32" x="2391" y="286.5684">From</text><path d="M2677.67,146.347 C2691.23,179.23 2709.57,223.694 2721.35,252.241 " fill="none" style="stroke: #A80036; stroke-width: 1.0; stroke-dasharray: 7.0,7.0;"/><polygon fill="#A80036" points="2723.32,257.03,2723.5789,247.1845,2721.4101,252.4091,2716.1856,250.2403,2723.32,257.03" style="stroke: #A80036; stroke-width: 1.0;"/><text fill="#000000" font-family="sans-serif" font-size="13" lengthAdjust="spacingAndGlyphs" textLength="36" x="2697" y="191.5684">about</text><path d="M2453.15,139.841 C2437.38,151.341 2418.77,162.896 2400,170 C2283.22,214.194 2234.11,150.102 2121,203 C2096.59,214.418 2074.73,235.951 2059.73,253.426 " fill="none" style="stroke: #A80036; stroke-width: 1.0; stroke-dasharray: 7.0,7.0;"/><polygon fill="#A80036" points="2056.45,257.316,2065.3159,253.0269,2059.6787,253.4982,2059.2074,247.861,2056.45,257.316" style="stroke: #A80036; stroke-width: 1.0;"/><text fill="#000000" font-family="sans-serif" font-size="13" lengthAdjust="spacingAndGlyphs" textLength="59" x="2375" y="191.5684">Issued By</text><text fill="#000000" font-family="sans-serif" font-size="13" lengthAdjust="spacingAndGlyphs" textLength="22" x="2422.2311" y="159.8693">0..*</text><text fill="#000000" font-family="sans-serif" font-size="13" lengthAdjust="spacingAndGlyphs" textLength="8" x="2051.8966" y="246.8051">1</text><path d="M2530.15,139.648 C2541.72,150.458 2555.22,161.644 2569,170 C2573.55,172.761 2654.55,200.082 2659,203 C2679.66,216.533 2698.79,236.871 2712.42,253.317 " fill="none" style="stroke: #A80036; stroke-width: 1.0; stroke-dasharray: 7.0,7.0;"/><polygon fill="#A80036" points="2715.77,257.407,2713.1694,247.9077,2712.6049,253.5363,2706.9763,252.9719,2715.77,257.407" style="stroke: #A80036; stroke-width: 1.0;"/><text fill="#000000" font-family="sans-serif" font-size="13" lengthAdjust="spacingAndGlyphs" textLength="43" x="2637" y="191.5684">effects</text><text fill="#000000" font-family="sans-serif" font-size="13" lengthAdjust="spacingAndGlyphs" textLength="22" x="2686.5361" y="246.9194">1..*</text></g></svg>