<?xml version="1.0" encoding="UTF-8" standalone="yes"?><svg xmlns="http://www.w3.org/2000/svg" xmlns:xlink="http://www.w3.org/1999/xlink" height="1130pt" style="width:2695px;height:1130px;" version="1.1" viewBox="0 0 2695 1130" width="2695pt"><defs><filter height="300%" id="f1" width="300%" x="-1" y="-1"><feGaussianBlur result="blurOut" stdDeviation="2.0"/><feColorMatrix in="blurOut" result="blurOut2" type="matrix" values="0 0 0 0 0 0 0 0 0 0 0 0 0 0 0 0 0 0 .4 0"/><feOffset dx="4.0" dy="4.0" in="blurOut2" result="blurOut3"/><feBlend in="SourceGraphic" in2="blurOut3" mode="normal"/></filter></defs><g><polygon fill="#FFFFFF" filter="url(#f1)" points="2118,215,2218,215,2225,237.4883,2688,237.4883,2688,486,2118,486,2118,215" style="stroke: #000000; stroke-width: 2.0;"/><line style="stroke: #000000; stroke-width: 2.0;" x1="2118" x2="2225" y1="237.4883" y2="237.4883"/><text fill="#000000" font-family="sans-serif" font-size="14" font-weight="bold" lengthAdjust="spacingAndGlyphs" textLength="94" x="2121" y="231.5352">existingCode</text><polygon fill="#FFFFFF" filter="url(#f1)" points="875,214,952,214,959,236.4883,2094,236.4883,2094,1011,875,1011,875,214" style="stroke: #000000; stroke-width: 2.0;"/><line style="stroke: #000000; stroke-width: 2.0;" x1="875" x2="959" y1="236.4883" y2="236.4883"/><text fill="#000000" font-family="sans-serif" font-size="14" font-weight="bold" lengthAdjust="spacingAndGlyphs" textLength="71" x="878" y="230.5352">assignees</text><polygon fill="#FFFFFF" filter="url(#f1)" points="22,538,179,538,186,560.4883,851,560.4883,851,1123,22,1123,22,538" style="stroke: #000000; stroke-width: 2.0;"/><line style="stroke: #000000; stroke-width: 2.0;" x1="22" x2="186" y1="560.4883" y2="560.4883"/><text fill="#000000" font-family="sans-serif" font-size="14" font-weight="bold" lengthAdjust="spacingAndGlyphs" textLength="151" x="25" y="554.5352">roleassigneeprovider</text><polygon fill="#FFFFFF" filter="url(#f1)" points="1887,24,2108,24,2115,46.4883,2220,46.4883,2220,164,1887,164,1887,24" style="stroke: #000000; stroke-width: 2.0;"/><line style="stroke: #000000; stroke-width: 2.0;" x1="1887" x2="2115" y1="46.4883" y2="46.4883"/><text fill="#000000" font-family="sans-serif" font-size="14" font-weight="bold" lengthAdjust="spacingAndGlyphs" textLength="215" x="1890" y="40.5352">somewhere_else_in_dataverse</text><rect fill="#FEFECE" filter="url(#f1)" height="48" style="stroke: #A80036; stroke-width: 1.5;" width="85" x="2370.75" y="263"/><ellipse cx="2385.75" cy="279" fill="#ADD1B2" rx="11" ry="11" style="stroke: #A80036; stroke-width: 1.0;"/><path d="M2388.7231,284.6431 Q2388.1421,284.9419 2387.5029,285.0913 Q2386.8638,285.2407 2386.1582,285.2407 Q2383.6514,285.2407 2382.3315,283.5889 Q2381.0117,281.937 2381.0117,278.8159 Q2381.0117,275.6865 2382.3315,274.0347 Q2383.6514,272.3828 2386.1582,272.3828 Q2386.8638,272.3828 2387.5112,272.5322 Q2388.1587,272.6816 2388.7231,272.9805 L2388.7231,275.7031 Q2388.0923,275.1221 2387.4988,274.8523 Q2386.9053,274.5825 2386.2744,274.5825 Q2384.9297,274.5825 2384.2449,275.6492 Q2383.5601,276.7158 2383.5601,278.8159 Q2383.5601,280.9077 2384.2449,281.9744 Q2384.9297,283.041 2386.2744,283.041 Q2386.9053,283.041 2387.4988,282.7712 Q2388.0923,282.5015 2388.7231,281.9204 Z "/><text fill="#000000" font-family="sans-serif" font-size="12" lengthAdjust="spacingAndGlyphs" textLength="25" x="2399.75" y="283.5352">Role</text><rect fill="#FFFFFF" height="16.1328" style="stroke: #000000; stroke-width: 1.0; stroke-dasharray: 2.0,2.0;" width="26" x="2432.75" y="260"/><text fill="#000000" font-family="sans-serif" font-size="12" font-style="italic" lengthAdjust="spacingAndGlyphs" textLength="16" x="2437.75" y="272.6016">DB</text><line style="stroke: #A80036; stroke-width: 1.5;" x1="2371.75" x2="2454.75" y1="295" y2="295"/><line style="stroke: #A80036; stroke-width: 1.5;" x1="2371.75" x2="2454.75" y1="303" y2="303"/><rect fill="#FEFECE" filter="url(#f1)" height="48" style="stroke: #A80036; stroke-width: 1.5;" width="113" x="2558.75" y="263"/><ellipse cx="2573.75" cy="279" fill="#ADD1B2" rx="11" ry="11" style="stroke: #A80036; stroke-width: 1.0;"/><path d="M2576.7231,284.6431 Q2576.1421,284.9419 2575.5029,285.0913 Q2574.8638,285.2407 2574.1582,285.2407 Q2571.6514,285.2407 2570.3315,283.5889 Q2569.0117,281.937 2569.0117,278.8159 Q2569.0117,275.6865 2570.3315,274.0347 Q2571.6514,272.3828 2574.1582,272.3828 Q2574.8638,272.3828 2575.5112,272.5322 Q2576.1587,272.6816 2576.7231,272.9805 L2576.7231,275.7031 Q2576.0923,275.1221 2575.4988,274.8523 Q2574.9053,274.5825 2574.2744,274.5825 Q2572.9297,274.5825 2572.2449,275.6492 Q2571.5601,276.7158 2571.5601,278.8159 Q2571.5601,280.9077 2572.2449,281.9744 Q2572.9297,283.041 2574.2744,283.041 Q2574.9053,283.041 2575.4988,282.7712 Q2576.0923,282.5015 2576.7231,281.9204 Z "/><text fill="#000000" font-family="sans-serif" font-size="12" lengthAdjust="spacingAndGlyphs" textLength="53" x="2587.75" y="283.5352">DvObject</text><rect fill="#FFFFFF" height="16.1328" style="stroke: #000000; stroke-width: 1.0; stroke-dasharray: 2.0,2.0;" width="26" x="2648.75" y="260"/><text fill="#000000" font-family="sans-serif" font-size="12" font-style="italic" lengthAdjust="spacingAndGlyphs" textLength="16" x="2653.75" y="272.6016">DB</text><line style="stroke: #A80036; stroke-width: 1.5;" x1="2559.75" x2="2670.75" y1="295" y2="295"/><line style="stroke: #A80036; stroke-width: 1.5;" x1="2559.75" x2="2670.75" y1="303" y2="303"/><rect fill="#FEFECE" filter="url(#f1)" height="48" style="stroke: #A80036; stroke-width: 1.5;" width="151" x="2337.75" y="422"/><ellipse cx="2352.75" cy="438" fill="#ADD1B2" rx="11" ry="11" style="stroke: #A80036; stroke-width: 1.0;"/><path d="M2355.7231,443.6431 Q2355.1421,443.9419 2354.5029,444.0913 Q2353.8638,444.2407 2353.1582,444.2407 Q2350.6514,444.2407 2349.3315,442.5889 Q2348.0117,440.937 2348.0117,437.8159 Q2348.0117,434.6865 2349.3315,433.0347 Q2350.6514,431.3828 2353.1582,431.3828 Q2353.8638,431.3828 2354.5112,431.5322 Q2355.1587,431.6816 2355.7231,431.9805 L2355.7231,434.7031 Q2355.0923,434.1221 2354.4988,433.8523 Q2353.9053,433.5825 2353.2744,433.5825 Q2351.9297,433.5825 2351.2449,434.6492 Q2350.5601,435.7158 2350.5601,437.8159 Q2350.5601,439.9077 2351.2449,440.9744 Q2351.9297,442.041 2353.2744,442.041 Q2353.9053,442.041 2354.4988,441.7712 Q2355.0923,441.5015 2355.7231,440.9204 Z "/><text fill="#000000" font-family="sans-serif" font-size="12" lengthAdjust="spacingAndGlyphs" textLength="91" x="2366.75" y="442.5352">RoleAssignment</text><rect fill="#FFFFFF" height="16.1328" style="stroke: #000000; stroke-width: 1.0; stroke-dasharray: 2.0,2.0;" width="26" x="2465.75" y="419"/><text fill="#000000" font-family="sans-serif" font-size="12" font-style="italic" lengthAdjust="spacingAndGlyphs" textLength="16" x="2470.75" y="431.6016">DB</text><line style="stroke: #A80036; stroke-width: 1.5;" x1="2338.75" x2="2487.75" y1="454" y2="454"/><line style="stroke: #A80036; stroke-width: 1.5;" x1="2338.75" x2="2487.75" y1="462" y2="462"/><rect fill="#FEFECE" filter="url(#f1)" height="48" style="stroke: #A80036; stroke-width: 1.5;" width="118" x="2532" y="422"/><ellipse cx="2547" cy="438" fill="#ADD1B2" rx="11" ry="11" style="stroke: #A80036; stroke-width: 1.0;"/><path d="M2549.9731,443.6431 Q2549.3921,443.9419 2548.7529,444.0913 Q2548.1138,444.2407 2547.4082,444.2407 Q2544.9014,444.2407 2543.5815,442.5889 Q2542.2617,440.937 2542.2617,437.8159 Q2542.2617,434.6865 2543.5815,433.0347 Q2544.9014,431.3828 2547.4082,431.3828 Q2548.1138,431.3828 2548.7612,431.5322 Q2549.4087,431.6816 2549.9731,431.9805 L2549.9731,434.7031 Q2549.3423,434.1221 2548.7488,433.8523 Q2548.1553,433.5825 2547.5244,433.5825 Q2546.1797,433.5825 2545.4949,434.6492 Q2544.8101,435.7158 2544.8101,437.8159 Q2544.8101,439.9077 2545.4949,440.9744 Q2546.1797,442.041 2547.5244,442.041 Q2548.1553,442.041 2548.7488,441.7712 Q2549.3423,441.5015 2549.9731,440.9204 Z "/><text fill="#000000" font-family="sans-serif" font-size="12" lengthAdjust="spacingAndGlyphs" textLength="58" x="2561" y="442.5352">Dataverse</text><rect fill="#FFFFFF" height="16.1328" style="stroke: #000000; stroke-width: 1.0; stroke-dasharray: 2.0,2.0;" width="26" x="2627" y="419"/><text fill="#000000" font-family="sans-serif" font-size="12" font-style="italic" lengthAdjust="spacingAndGlyphs" textLength="16" x="2632" y="431.6016">DB</text><line style="stroke: #A80036; stroke-width: 1.5;" x1="2533" x2="2649" y1="454" y2="454"/><line style="stroke: #A80036; stroke-width: 1.5;" x1="2533" x2="2649" y1="462" y2="462"/><polygon fill="#FBFB77" filter="url(#f1)" points="2134.75,251.5,2134.75,322.7422,2335.75,322.7422,2335.75,261.5,2325.75,251.5,2134.75,251.5" style="stroke: #A80036; stroke-width: 1.0;"/><line style="stroke: #A80036; stroke-width: 1.0;" x1="2325.75" x2="2325.75" y1="251.5" y2="261.5"/><line style="stroke: #A80036; stroke-width: 1.0;" x1="2335.75" x2="2325.75" y1="261.5" y2="261.5"/><text fill="#000000" font-family="sans-serif" font-size="13" lengthAdjust="spacingAndGlyphs" textLength="142" x="2140.75" y="269.0684">A role can be assigned</text><text fill="#000000" font-family="sans-serif" font-size="13" lengthAdjust="spacingAndGlyphs" textLength="152" x="2140.75" y="284.3789">at the DvObject where it</text><text fill="#000000" font-family="sans-serif" font-size="13" lengthAdjust="spacingAndGlyphs" textLength="142" x="2140.75" y="299.6895">is defined, or at any of</text><text fill="#000000" font-family="sans-serif" font-size="13" lengthAdjust="spacingAndGlyphs" textLength="180" x="2140.75" y="315">that DvObject's descendants</text><rect fill="#FEFECE" filter="url(#f1)" height="86.8652" style="stroke: #A80036; stroke-width: 1.5;" width="137" x="1751.75" y="402.5"/><ellipse cx="1779.8" cy="418.5" fill="#B4A7E5" rx="11" ry="11" style="stroke: #A80036; stroke-width: 1.0;"/><path d="M1775.7277,414.2651 L1775.7277,412.1069 L1783.1071,412.1069 L1783.1071,414.2651 L1780.6418,414.2651 L1780.6418,422.3418 L1783.1071,422.3418 L1783.1071,424.5 L1775.7277,424.5 L1775.7277,422.3418 L1778.1931,422.3418 L1778.1931,414.2651 Z "/><text fill="#000000" font-family="sans-serif" font-size="12" font-style="italic" lengthAdjust="spacingAndGlyphs" textLength="76" x="1796.7" y="423.0352">RoleAssignee</text><line style="stroke: #A80036; stroke-width: 1.5;" x1="1752.75" x2="1887.75" y1="434.5" y2="434.5"/><ellipse cx="1762.75" cy="446.4775" fill="none" rx="3" ry="3" style="stroke: #038048; stroke-width: 1.0;"/><text fill="#000000" font-family="sans-serif" font-size="11" lengthAdjust="spacingAndGlyphs" textLength="83" x="1771.75" y="449.1348">identifier:String</text><ellipse cx="1762.75" cy="459.4326" fill="none" rx="3" ry="3" style="stroke: #038048; stroke-width: 1.0;"/><text fill="#000000" font-family="sans-serif" font-size="11" lengthAdjust="spacingAndGlyphs" textLength="111" x="1771.75" y="462.0898">showInLists: Boolean</text><line style="stroke: #A80036; stroke-width: 1.5;" x1="1752.75" x2="1887.75" y1="468.4102" y2="468.4102"/><ellipse cx="1762.75" cy="480.3877" fill="#84BE84" rx="3" ry="3" style="stroke: #038048; stroke-width: 1.0;"/><text fill="#000000" font-family="sans-serif" font-size="11" lengthAdjust="spacingAndGlyphs" textLength="97" x="1771.75" y="483.0449">displayInfo() : TBD</text><rect fill="#FEFECE" filter="url(#f1)" height="48" style="stroke: #A80036; stroke-width: 1.5;" width="58" x="1074" y="600"/><ellipse cx="1089" cy="616" fill="#B4A7E5" rx="11" ry="11" style="stroke: #A80036; stroke-width: 1.0;"/><path d="M1084.9277,611.7651 L1084.9277,609.6069 L1092.3071,609.6069 L1092.3071,611.7651 L1089.8418,611.7651 L1089.8418,619.8418 L1092.3071,619.8418 L1092.3071,622 L1084.9277,622 L1084.9277,619.8418 L1087.3931,619.8418 L1087.3931,611.7651 Z "/><text fill="#000000" font-family="sans-serif" font-size="12" font-style="italic" lengthAdjust="spacingAndGlyphs" textLength="26" x="1103" y="620.5352">User</text><line style="stroke: #A80036; stroke-width: 1.5;" x1="1075" x2="1131" y1="632" y2="632"/><line style="stroke: #A80036; stroke-width: 1.5;" x1="1075" x2="1131" y1="640" y2="640"/><rect fill="#FEFECE" filter="url(#f1)" height="48" style="stroke: #A80036; stroke-width: 1.5;" width="137" x="1034.75" y="785"/><ellipse cx="1049.75" cy="801" fill="#ADD1B2" rx="11" ry="11" style="stroke: #A80036; stroke-width: 1.0;"/><path d="M1052.7231,806.6431 Q1052.1421,806.9419 1051.5029,807.0913 Q1050.8638,807.2407 1050.1582,807.2407 Q1047.6514,807.2407 1046.3315,805.5889 Q1045.0117,803.937 1045.0117,800.8159 Q1045.0117,797.6865 1046.3315,796.0347 Q1047.6514,794.3828 1050.1582,794.3828 Q1050.8638,794.3828 1051.5112,794.5322 Q1052.1587,794.6816 1052.7231,794.9805 L1052.7231,797.7031 Q1052.0923,797.1221 1051.4988,796.8523 Q1050.9053,796.5825 1050.2744,796.5825 Q1048.9297,796.5825 1048.2449,797.6492 Q1047.5601,798.7158 1047.5601,800.8159 Q1047.5601,802.9077 1048.2449,803.9744 Q1048.9297,805.041 1050.2744,805.041 Q1050.9053,805.041 1051.4988,804.7712 Q1052.0923,804.5015 1052.7231,803.9204 Z "/><text fill="#000000" font-family="sans-serif" font-size="12" lengthAdjust="spacingAndGlyphs" textLength="105" x="1063.75" y="805.5352">AuthenticatedUser</text><line style="stroke: #A80036; stroke-width: 1.5;" x1="1035.75" x2="1170.75" y1="817" y2="817"/><line style="stroke: #A80036; stroke-width: 1.5;" x1="1035.75" x2="1170.75" y1="825" y2="825"/><rect fill="#FEFECE" filter="url(#f1)" height="60.9551" style="stroke: #A80036; stroke-width: 1.5;" width="100" x="1376" y="778.5"/><ellipse cx="1400.45" cy="794.5" fill="#ADD1B2" rx="11" ry="11" style="stroke: #A80036; stroke-width: 1.0;"/><path d="M1403.4231,800.1431 Q1402.8421,800.4419 1402.2029,800.5913 Q1401.5638,800.7407 1400.8582,800.7407 Q1398.3514,800.7407 1397.0315,799.0889 Q1395.7117,797.437 1395.7117,794.3159 Q1395.7117,791.1865 1397.0315,789.5347 Q1398.3514,787.8828 1400.8582,787.8828 Q1401.5638,787.8828 1402.2112,788.0322 Q1402.8587,788.1816 1403.4231,788.4805 L1403.4231,791.2031 Q1402.7923,790.6221 1402.1988,790.3523 Q1401.6053,790.0825 1400.9744,790.0825 Q1399.6297,790.0825 1398.9449,791.1492 Q1398.2601,792.2158 1398.2601,794.3159 Q1398.2601,796.4077 1398.9449,797.4744 Q1399.6297,798.541 1400.9744,798.541 Q1401.6053,798.541 1402.1988,798.2712 Q1402.7923,798.0015 1403.4231,797.4204 Z "/><text fill="#000000" font-family="sans-serif" font-size="12" lengthAdjust="spacingAndGlyphs" textLength="47" x="1416.55" y="799.0352">IpGroup</text><line style="stroke: #A80036; stroke-width: 1.5;" x1="1377" x2="1475" y1="810.5" y2="810.5"/><text fill="#000000" font-family="sans-serif" font-size="11" lengthAdjust="spacingAndGlyphs" textLength="88" x="1382" y="825.1348">range: IpRange[]</text><line style="stroke: #A80036; stroke-width: 1.5;" x1="1377" x2="1475" y1="831.4551" y2="831.4551"/><rect fill="#FEFECE" filter="url(#f1)" height="73.9102" style="stroke: #A80036; stroke-width: 1.5;" width="141" x="1298.75" y="921"/><ellipse cx="1313.75" cy="937" fill="#ADD1B2" rx="11" ry="11" style="stroke: #A80036; stroke-width: 1.0;"/><path d="M1316.7231,942.6431 Q1316.1421,942.9419 1315.5029,943.0913 Q1314.8638,943.2407 1314.1582,943.2407 Q1311.6514,943.2407 1310.3315,941.5889 Q1309.0117,939.937 1309.0117,936.8159 Q1309.0117,933.6865 1310.3315,932.0347 Q1311.6514,930.3828 1314.1582,930.3828 Q1314.8638,930.3828 1315.5112,930.5322 Q1316.1587,930.6816 1316.7231,930.9805 L1316.7231,933.7031 Q1316.0923,933.1221 1315.4988,932.8523 Q1314.9053,932.5825 1314.2744,932.5825 Q1312.9297,932.5825 1312.2449,933.6492 Q1311.5601,934.7158 1311.5601,936.8159 Q1311.5601,938.9077 1312.2449,939.9744 Q1312.9297,941.041 1314.2744,941.041 Q1314.9053,941.041 1315.4988,940.7712 Q1316.0923,940.5015 1316.7231,939.9204 Z "/><text fill="#000000" font-family="sans-serif" font-size="12" lengthAdjust="spacingAndGlyphs" textLength="81" x="1327.75" y="941.5352">DatabaseUser</text><rect fill="#FFFFFF" height="16.1328" style="stroke: #000000; stroke-width: 1.0; stroke-dasharray: 2.0,2.0;" width="26" x="1416.75" y="918"/><text fill="#000000" font-family="sans-serif" font-size="12" font-style="italic" lengthAdjust="spacingAndGlyphs" textLength="16" x="1421.75" y="930.6016">DB</text><line style="stroke: #A80036; stroke-width: 1.5;" x1="1299.75" x2="1438.75" y1="953" y2="953"/><ellipse cx="1309.75" cy="964.9775" fill="none" rx="3" ry="3" style="stroke: #038048; stroke-width: 1.0;"/><text fill="#000000" font-family="sans-serif" font-size="11" lengthAdjust="spacingAndGlyphs" textLength="40" x="1318.75" y="967.6348">id:Long</text><ellipse cx="1309.75" cy="977.9326" fill="none" rx="3" ry="3" style="stroke: #038048; stroke-width: 1.0;"/><text fill="#000000" font-family="sans-serif" font-size="11" lengthAdjust="spacingAndGlyphs" textLength="64" x="1318.75" y="980.5898">name:String</text><line style="stroke: #A80036; stroke-width: 1.5;" x1="1299.75" x2="1438.75" y1="986.9102" y2="986.9102"/><rect fill="#FEFECE" filter="url(#f1)" height="73.9102" style="stroke: #A80036; stroke-width: 1.5;" width="177" x="1900.75" y="250"/><ellipse cx="1915.75" cy="266" fill="#ADD1B2" rx="11" ry="11" style="stroke: #A80036; stroke-width: 1.0;"/><path d="M1918.7231,271.6431 Q1918.1421,271.9419 1917.5029,272.0913 Q1916.8638,272.2407 1916.1582,272.2407 Q1913.6514,272.2407 1912.3315,270.5889 Q1911.0117,268.937 1911.0117,265.8159 Q1911.0117,262.6865 1912.3315,261.0347 Q1913.6514,259.3828 1916.1582,259.3828 Q1916.8638,259.3828 1917.5112,259.5322 Q1918.1587,259.6816 1918.7231,259.9805 L1918.7231,262.7031 Q1918.0923,262.1221 1917.4988,261.8523 Q1916.9053,261.5825 1916.2744,261.5825 Q1914.9297,261.5825 1914.2449,262.6492 Q1913.5601,263.7158 1913.5601,265.8159 Q1913.5601,267.9077 1914.2449,268.9744 Q1914.9297,270.041 1916.2744,270.041 Q1916.9053,270.041 1917.4988,269.7712 Q1918.0923,269.5015 1918.7231,268.9204 Z "/><text fill="#000000" font-family="sans-serif" font-size="12" lengthAdjust="spacingAndGlyphs" textLength="117" x="1929.75" y="270.5352">RoleAssigneeRecord</text><rect fill="#FFFFFF" height="16.1328" style="stroke: #000000; stroke-width: 1.0; stroke-dasharray: 2.0,2.0;" width="26" x="2054.75" y="247"/><text fill="#000000" font-family="sans-serif" font-size="12" font-style="italic" lengthAdjust="spacingAndGlyphs" textLength="16" x="2059.75" y="259.6016">DB</text><line style="stroke: #A80036; stroke-width: 1.5;" x1="1901.75" x2="2076.75" y1="282" y2="282"/><text fill="#000000" font-family="sans-serif" font-size="11" lengthAdjust="spacingAndGlyphs" textLength="86" x="1906.75" y="296.6348">identifier: String</text><text fill="#000000" font-family="sans-serif" font-size="11" lengthAdjust="spacingAndGlyphs" textLength="86" x="1906.75" y="309.5898">displayInfo: TBD</text><line style="stroke: #A80036; stroke-width: 1.5;" x1="1901.75" x2="2076.75" y1="315.9102" y2="315.9102"/><polygon fill="#FBFB77" filter="url(#f1)" points="1355.75,274.5,1355.75,299.8105,1632.75,299.8105,1632.75,284.5,1622.75,274.5,1355.75,274.5" style="stroke: #A80036; stroke-width: 1.0;"/><polygon fill="#FBFB77" points="1355.75,274.5,1355.75,299.8105,1632.75,299.8105,1632.75,292.5,1900.51,287,1632.75,284.5,1632.75,284.5,1622.75,274.5,1355.75,274.5" style="stroke: #A80036; stroke-width: 1.0;"/><line style="stroke: #A80036; stroke-width: 1.0;" x1="1622.75" x2="1622.75" y1="274.5" y2="284.5"/><line style="stroke: #A80036; stroke-width: 1.0;" x1="1632.75" x2="1622.75" y1="284.5" y2="284.5"/><text fill="#000000" font-family="sans-serif" font-size="13" lengthAdjust="spacingAndGlyphs" textLength="256" x="1361.75" y="292.0684">Locally persistent proxy for the assignee</text><rect fill="#FEFECE" filter="url(#f1)" height="73.9102" style="stroke: #A80036; stroke-width: 1.5;" width="120" x="894" y="921"/><ellipse cx="926.1" cy="937" fill="#ADD1B2" rx="11" ry="11" style="stroke: #A80036; stroke-width: 1.0;"/><path d="M929.0731,942.6431 Q928.4921,942.9419 927.8529,943.0913 Q927.2138,943.2407 926.5082,943.2407 Q924.0014,943.2407 922.6815,941.5889 Q921.3617,939.937 921.3617,936.8159 Q921.3617,933.6865 922.6815,932.0347 Q924.0014,930.3828 926.5082,930.3828 Q927.2138,930.3828 927.8612,930.5322 Q928.5087,930.6816 929.0731,930.9805 L929.0731,933.7031 Q928.4423,933.1221 927.8488,932.8523 Q927.2553,932.5825 926.6244,932.5825 Q925.2797,932.5825 924.5949,933.6492 Q923.9101,934.7158 923.9101,936.8159 Q923.9101,938.9077 924.5949,939.9744 Q925.2797,941.041 926.6244,941.041 Q927.2553,941.041 927.8488,940.7712 Q928.4423,940.5015 929.0731,939.9204 Z "/><text fill="#000000" font-family="sans-serif" font-size="12" lengthAdjust="spacingAndGlyphs" textLength="50" x="943.9" y="941.5352">ShibUser</text><line style="stroke: #A80036; stroke-width: 1.5;" x1="895" x2="1013" y1="953" y2="953"/><text fill="#000000" font-family="sans-serif" font-size="11" lengthAdjust="spacingAndGlyphs" textLength="108" x="900" y="967.6348">persisstentId: String</text><text fill="#000000" font-family="sans-serif" font-size="11" lengthAdjust="spacingAndGlyphs" textLength="78" x="900" y="980.5898">shibIdp: String</text><line style="stroke: #A80036; stroke-width: 1.5;" x1="895" x2="1013" y1="986.9102" y2="986.9102"/><rect fill="#FEFECE" filter="url(#f1)" height="48" style="stroke: #A80036; stroke-width: 1.5;" width="92" x="1049" y="934"/><ellipse cx="1064" cy="950" fill="#ADD1B2" rx="11" ry="11" style="stroke: #A80036; stroke-width: 1.0;"/><path d="M1066.9731,955.6431 Q1066.3921,955.9419 1065.7529,956.0913 Q1065.1138,956.2407 1064.4082,956.2407 Q1061.9014,956.2407 1060.5815,954.5889 Q1059.2617,952.937 1059.2617,949.8159 Q1059.2617,946.6865 1060.5815,945.0347 Q1061.9014,943.3828 1064.4082,943.3828 Q1065.1138,943.3828 1065.7612,943.5322 Q1066.4087,943.6816 1066.9731,943.9805 L1066.9731,946.7031 Q1066.3423,946.1221 1065.7488,945.8523 Q1065.1553,945.5825 1064.5244,945.5825 Q1063.1797,945.5825 1062.4949,946.6492 Q1061.8101,947.7158 1061.8101,949.8159 Q1061.8101,951.9077 1062.4949,952.9744 Q1063.1797,954.041 1064.5244,954.041 Q1065.1553,954.041 1065.7488,953.7712 Q1066.3423,953.5015 1066.9731,952.9204 Z "/><text fill="#000000" font-family="sans-serif" font-size="12" lengthAdjust="spacingAndGlyphs" textLength="60" x="1078" y="954.5352">OauthUser</text><line style="stroke: #A80036; stroke-width: 1.5;" x1="1050" x2="1140" y1="966" y2="966"/><line style="stroke: #A80036; stroke-width: 1.5;" x1="1050" x2="1140" y1="974" y2="974"/><rect fill="#FEFECE" filter="url(#f1)" height="48" style="stroke: #A80036; stroke-width: 1.5;" width="87" x="1176.75" y="934"/><ellipse cx="1191.75" cy="950" fill="#ADD1B2" rx="11" ry="11" style="stroke: #A80036; stroke-width: 1.0;"/><path d="M1194.7231,955.6431 Q1194.1421,955.9419 1193.5029,956.0913 Q1192.8638,956.2407 1192.1582,956.2407 Q1189.6514,956.2407 1188.3315,954.5889 Q1187.0117,952.937 1187.0117,949.8159 Q1187.0117,946.6865 1188.3315,945.0347 Q1189.6514,943.3828 1192.1582,943.3828 Q1192.8638,943.3828 1193.5112,943.5322 Q1194.1587,943.6816 1194.7231,943.9805 L1194.7231,946.7031 Q1194.0923,946.1221 1193.4988,945.8523 Q1192.9053,945.5825 1192.2744,945.5825 Q1190.9297,945.5825 1190.2449,946.6492 Q1189.5601,947.7158 1189.5601,949.8159 Q1189.5601,951.9077 1190.2449,952.9744 Q1190.9297,954.041 1192.2744,954.041 Q1192.9053,954.041 1193.4988,953.7712 Q1194.0923,953.5015 1194.7231,952.9204 Z "/><text fill="#000000" font-family="sans-serif" font-size="12" lengthAdjust="spacingAndGlyphs" textLength="55" x="1205.75" y="954.5352">LdapUser</text><line style="stroke: #A80036; stroke-width: 1.5;" x1="1177.75" x2="1262.75" y1="966" y2="966"/><line style="stroke: #A80036; stroke-width: 1.5;" x1="1177.75" x2="1262.75" y1="974" y2="974"/><rect fill="#FEFECE" filter="url(#f1)" height="60.9551" style="stroke: #A80036; stroke-width: 1.5;" width="108" x="891" y="778.5"/><ellipse cx="913.65" cy="794.5" fill="#ADD1B2" rx="11" ry="11" style="stroke: #A80036; stroke-width: 1.0;"/><path d="M916.6231,800.1431 Q916.0421,800.4419 915.4029,800.5913 Q914.7638,800.7407 914.0582,800.7407 Q911.5514,800.7407 910.2315,799.0889 Q908.9117,797.437 908.9117,794.3159 Q908.9117,791.1865 910.2315,789.5347 Q911.5514,787.8828 914.0582,787.8828 Q914.7638,787.8828 915.4112,788.0322 Q916.0587,788.1816 916.6231,788.4805 L916.6231,791.2031 Q915.9923,790.6221 915.3988,790.3523 Q914.8053,790.0825 914.1744,790.0825 Q912.8297,790.0825 912.1449,791.1492 Q911.4601,792.2158 911.4601,794.3159 Q911.4601,796.4077 912.1449,797.4744 Q912.8297,798.541 914.1744,798.541 Q914.8053,798.541 915.3988,798.2712 Q915.9923,798.0015 916.6231,797.4204 Z "/><text fill="#000000" font-family="sans-serif" font-size="12" lengthAdjust="spacingAndGlyphs" textLength="59" x="929.35" y="799.0352">GuestUser</text><line style="stroke: #A80036; stroke-width: 1.5;" x1="892" x2="998" y1="810.5" y2="810.5"/><text fill="#000000" font-family="sans-serif" font-size="11" lengthAdjust="spacingAndGlyphs" textLength="96" x="897" y="825.1348">showInLists: False</text><line style="stroke: #A80036; stroke-width: 1.5;" x1="892" x2="998" y1="831.4551" y2="831.4551"/><rect fill="#FEFECE" filter="url(#f1)" height="73.9102" style="stroke: #A80036; stroke-width: 1.5;" width="100" x="1241" y="772"/><ellipse cx="1256" cy="788" fill="#ADD1B2" rx="11" ry="11" style="stroke: #A80036; stroke-width: 1.0;"/><path d="M1258.9731,793.6431 Q1258.3921,793.9419 1257.7529,794.0913 Q1257.1138,794.2407 1256.4082,794.2407 Q1253.9014,794.2407 1252.5815,792.5889 Q1251.2617,790.937 1251.2617,787.8159 Q1251.2617,784.6865 1252.5815,783.0347 Q1253.9014,781.3828 1256.4082,781.3828 Q1257.1138,781.3828 1257.7612,781.5322 Q1258.4087,781.6816 1258.9731,781.9805 L1258.9731,784.7031 Q1258.3423,784.1221 1257.7488,783.8523 Q1257.1553,783.5825 1256.5244,783.5825 Q1255.1797,783.5825 1254.4949,784.6492 Q1253.8101,785.7158 1253.8101,787.8159 Q1253.8101,789.9077 1254.4949,790.9744 Q1255.1797,792.041 1256.5244,792.041 Q1257.1553,792.041 1257.7488,791.7712 Q1258.3423,791.5015 1258.9731,790.9204 Z "/><text fill="#000000" font-family="sans-serif" font-size="12" lengthAdjust="spacingAndGlyphs" textLength="40" x="1270" y="792.5352">ApiKey</text><rect fill="#FFFFFF" height="16.1328" style="stroke: #000000; stroke-width: 1.0; stroke-dasharray: 2.0,2.0;" width="26" x="1318" y="769"/><text fill="#000000" font-family="sans-serif" font-size="12" font-style="italic" lengthAdjust="spacingAndGlyphs" textLength="16" x="1323" y="781.6016">DB</text><line style="stroke: #A80036; stroke-width: 1.5;" x1="1242" x2="1340" y1="804" y2="804"/><ellipse cx="1252" cy="815.9775" fill="none" rx="3" ry="3" style="stroke: #038048; stroke-width: 1.0;"/><text fill="#000000" font-family="sans-serif" font-size="11" lengthAdjust="spacingAndGlyphs" textLength="53" x="1261" y="818.6348">key:String</text><ellipse cx="1252" cy="828.9326" fill="none" rx="3" ry="3" style="stroke: #038048; stroke-width: 1.0;"/><text fill="#000000" font-family="sans-serif" font-size="11" lengthAdjust="spacingAndGlyphs" textLength="58" x="1261" y="831.5898">title: String</text><line style="stroke: #A80036; stroke-width: 1.5;" x1="1242" x2="1340" y1="837.9102" y2="837.9102"/><rect fill="#FEFECE" filter="url(#f1)" height="112.7754" style="stroke: #A80036; stroke-width: 1.5;" width="195" x="1473.75" y="567.5"/><ellipse cx="1535" cy="583.5" fill="#B4A7E5" rx="11" ry="11" style="stroke: #A80036; stroke-width: 1.0;"/><path d="M1530.9277,579.2651 L1530.9277,577.1069 L1538.3071,577.1069 L1538.3071,579.2651 L1535.8418,579.2651 L1535.8418,587.3418 L1538.3071,587.3418 L1538.3071,589.5 L1530.9277,589.5 L1530.9277,587.3418 L1533.3931,587.3418 L1533.3931,579.2651 Z "/><text fill="#000000" font-family="sans-serif" font-size="12" font-style="italic" lengthAdjust="spacingAndGlyphs" textLength="36" x="1555.5" y="588.0352">Group</text><rect fill="#FFFFFF" height="16.1328" style="stroke: #000000; stroke-width: 1.0; stroke-dasharray: 2.0,2.0;" width="26" x="1645.75" y="564.5"/><text fill="#000000" font-family="sans-serif" font-size="12" font-style="italic" lengthAdjust="spacingAndGlyphs" textLength="16" x="1650.75" y="577.1016">DB</text><line style="stroke: #A80036; stroke-width: 1.5;" x1="1474.75" x2="1667.75" y1="599.5" y2="599.5"/><ellipse cx="1484.75" cy="611.4775" fill="none" rx="3" ry="3" style="stroke: #038048; stroke-width: 1.0;"/><text fill="#000000" font-family="sans-serif" font-size="11" lengthAdjust="spacingAndGlyphs" textLength="67" x="1493.75" y="614.1348">name: String</text><ellipse cx="1484.75" cy="624.4326" fill="none" rx="3" ry="3" style="stroke: #038048; stroke-width: 1.0;"/><text fill="#000000" font-family="sans-serif" font-size="11" lengthAdjust="spacingAndGlyphs" textLength="102" x="1493.75" y="627.0898">description : String</text><ellipse cx="1484.75" cy="637.3877" fill="none" rx="3" ry="3" style="stroke: #038048; stroke-width: 1.0;"/><text fill="#000000" font-family="sans-serif" font-size="11" lengthAdjust="spacingAndGlyphs" textLength="52" x="1493.75" y="640.0449">data: Blob</text><ellipse cx="1484.75" cy="650.3428" fill="none" rx="3" ry="3" style="stroke: #038048; stroke-width: 1.0;"/><text fill="#000000" font-family="sans-serif" font-size="11" lengthAdjust="spacingAndGlyphs" textLength="169" x="1493.75" y="653">provider: RoleAssigneeProvider</text><line style="stroke: #A80036; stroke-width: 1.5;" x1="1474.75" x2="1667.75" y1="659.3203" y2="659.3203"/><ellipse cx="1484.75" cy="671.2979" fill="#84BE84" rx="3" ry="3" style="stroke: #038048; stroke-width: 1.0;"/><text fill="#000000" font-family="sans-serif" font-size="11" lengthAdjust="spacingAndGlyphs" textLength="141" x="1493.75" y="673.9551">contains( a:RoleAssignee )</text><rect fill="#FEFECE" filter="url(#f1)" height="86.8652" style="stroke: #A80036; stroke-width: 1.5;" width="161" x="1916.75" y="765.5"/><ellipse cx="1942.55" cy="781.5" fill="#ADD1B2" rx="11" ry="11" style="stroke: #A80036; stroke-width: 1.0;"/><path d="M1945.5231,787.1431 Q1944.9421,787.4419 1944.3029,787.5913 Q1943.6638,787.7407 1942.9582,787.7407 Q1940.4514,787.7407 1939.1315,786.0889 Q1937.8117,784.437 1937.8117,781.3159 Q1937.8117,778.1865 1939.1315,776.5347 Q1940.4514,774.8828 1942.9582,774.8828 Q1943.6638,774.8828 1944.3112,775.0322 Q1944.9587,775.1816 1945.5231,775.4805 L1945.5231,778.2031 Q1944.8923,777.6221 1944.2988,777.3523 Q1943.7053,777.0825 1943.0744,777.0825 Q1941.7297,777.0825 1941.0449,778.1492 Q1940.3601,779.2158 1940.3601,781.3159 Q1940.3601,783.4077 1941.0449,784.4744 Q1941.7297,785.541 1943.0744,785.541 Q1943.7053,785.541 1944.2988,785.2712 Q1944.8923,785.0015 1945.5231,784.4204 Z "/><text fill="#000000" font-family="sans-serif" font-size="12" lengthAdjust="spacingAndGlyphs" textLength="77" x="1958.95" y="786.0352">ExplicitGroup</text><rect fill="#FFFFFF" height="16.1328" style="stroke: #000000; stroke-width: 1.0; stroke-dasharray: 2.0,2.0;" width="26" x="2054.75" y="762.5"/><text fill="#000000" font-family="sans-serif" font-size="12" font-style="italic" lengthAdjust="spacingAndGlyphs" textLength="16" x="2059.75" y="775.1016">DB</text><line style="stroke: #A80036; stroke-width: 1.5;" x1="1917.75" x2="2076.75" y1="797.5" y2="797.5"/><ellipse cx="1927.75" cy="809.4775" fill="none" rx="3" ry="3" style="stroke: #038048; stroke-width: 1.0;"/><text fill="#000000" font-family="sans-serif" font-size="11" lengthAdjust="spacingAndGlyphs" textLength="102" x="1936.75" y="812.1348">list: RoleAssignee[]</text><line style="stroke: #A80036; stroke-width: 1.5;" x1="1917.75" x2="2076.75" y1="818.4551" y2="818.4551"/><ellipse cx="1927.75" cy="830.4326" fill="#84BE84" rx="3" ry="3" style="stroke: #038048; stroke-width: 1.0;"/><text fill="#000000" font-family="sans-serif" font-size="11" lengthAdjust="spacingAndGlyphs" textLength="115" x="1936.75" y="833.0898">add( a:RoleAssignee )</text><ellipse cx="1927.75" cy="843.3877" fill="#84BE84" rx="3" ry="3" style="stroke: #038048; stroke-width: 1.0;"/><text fill="#000000" font-family="sans-serif" font-size="11" lengthAdjust="spacingAndGlyphs" textLength="135" x="1936.75" y="846.0449">remove( a:RoleAssignee )</text><rect fill="#FEFECE" filter="url(#f1)" height="48" style="stroke: #A80036; stroke-width: 1.5;" width="120" x="1511" y="785"/><ellipse cx="1526" cy="801" fill="#ADD1B2" rx="11" ry="11" style="stroke: #A80036; stroke-width: 1.0;"/><path d="M1528.9731,806.6431 Q1528.3921,806.9419 1527.7529,807.0913 Q1527.1138,807.2407 1526.4082,807.2407 Q1523.9014,807.2407 1522.5815,805.5889 Q1521.2617,803.937 1521.2617,800.8159 Q1521.2617,797.6865 1522.5815,796.0347 Q1523.9014,794.3828 1526.4082,794.3828 Q1527.1138,794.3828 1527.7612,794.5322 Q1528.4087,794.6816 1528.9731,794.9805 L1528.9731,797.7031 Q1528.3423,797.1221 1527.7488,796.8523 Q1527.1553,796.5825 1526.5244,796.5825 Q1525.1797,796.5825 1524.4949,797.6492 Q1523.8101,798.7158 1523.8101,800.8159 Q1523.8101,802.9077 1524.4949,803.9744 Q1525.1797,805.041 1526.5244,805.041 Q1527.1553,805.041 1527.7488,804.7712 Q1528.3423,804.5015 1528.9731,803.9204 Z "/><text fill="#000000" font-family="sans-serif" font-size="12" lengthAdjust="spacingAndGlyphs" textLength="88" x="1540" y="805.5352">NonGuestUsers</text><line style="stroke: #A80036; stroke-width: 1.5;" x1="1512" x2="1630" y1="817" y2="817"/><line style="stroke: #A80036; stroke-width: 1.5;" x1="1512" x2="1630" y1="825" y2="825"/><rect fill="#FEFECE" filter="url(#f1)" height="60.9551" style="stroke: #A80036; stroke-width: 1.5;" width="215" x="1666.75" y="778.5"/><ellipse cx="1740" cy="794.5" fill="#ADD1B2" rx="11" ry="11" style="stroke: #A80036; stroke-width: 1.0;"/><path d="M1742.9731,800.1431 Q1742.3921,800.4419 1741.7529,800.5913 Q1741.1138,800.7407 1740.4082,800.7407 Q1737.9014,800.7407 1736.5815,799.0889 Q1735.2617,797.437 1735.2617,794.3159 Q1735.2617,791.1865 1736.5815,789.5347 Q1737.9014,787.8828 1740.4082,787.8828 Q1741.1138,787.8828 1741.7612,788.0322 Q1742.4087,788.1816 1742.9731,788.4805 L1742.9731,791.2031 Q1742.3423,790.6221 1741.7488,790.3523 Q1741.1553,790.0825 1740.5244,790.0825 Q1739.1797,790.0825 1738.4949,791.1492 Q1737.8101,792.2158 1737.8101,794.3159 Q1737.8101,796.4077 1738.4949,797.4744 Q1739.1797,798.541 1740.5244,798.541 Q1741.1553,798.541 1741.7488,798.2712 Q1742.3423,798.0015 1742.9731,797.4204 Z "/><text fill="#000000" font-family="sans-serif" font-size="12" lengthAdjust="spacingAndGlyphs" textLength="60" x="1760.5" y="799.0352">ShibGroup</text><line style="stroke: #A80036; stroke-width: 1.5;" x1="1667.75" x2="1880.75" y1="810.5" y2="810.5"/><text fill="#000000" font-family="sans-serif" font-size="11" lengthAdjust="spacingAndGlyphs" textLength="203" x="1672.75" y="825.1348">headerMatchers: Map&lt;String, Regex&gt;</text><line style="stroke: #A80036; stroke-width: 1.5;" x1="1667.75" x2="1880.75" y1="831.4551" y2="831.4551"/><rect fill="#FEFECE" filter="url(#f1)" height="99.8203" style="stroke: #A80036; stroke-width: 1.5;" width="283" x="304.75" y="574"/><ellipse cx="351.5" cy="590" fill="#ADD1B2" rx="11" ry="11" style="stroke: #A80036; stroke-width: 1.0;"/><path d="M354.4731,595.6431 Q353.8921,595.9419 353.2529,596.0913 Q352.6138,596.2407 351.9082,596.2407 Q349.4014,596.2407 348.0815,594.5889 Q346.7617,592.937 346.7617,589.8159 Q346.7617,586.6865 348.0815,585.0347 Q349.4014,583.3828 351.9082,583.3828 Q352.6138,583.3828 353.2612,583.5322 Q353.9087,583.6816 354.4731,583.9805 L354.4731,586.7031 Q353.8423,586.1221 353.2488,585.8523 Q352.6553,585.5825 352.0244,585.5825 Q350.6797,585.5825 349.9949,586.6492 Q349.3101,587.7158 349.3101,589.8159 Q349.3101,591.9077 349.9949,592.9744 Q350.6797,594.041 352.0244,594.041 Q352.6553,594.041 353.2488,593.7712 Q353.8423,593.5015 354.4731,592.9204 Z "/><text fill="#000000" font-family="sans-serif" font-size="12" lengthAdjust="spacingAndGlyphs" textLength="126" x="372" y="594.5352">RoleAssigneeManager</text><rect fill="#FFFFFF" height="16.1328" style="stroke: #000000; stroke-width: 1.0; stroke-dasharray: 2.0,2.0;" width="53" x="537.75" y="571"/><text fill="#000000" font-family="sans-serif" font-size="12" font-style="italic" lengthAdjust="spacingAndGlyphs" textLength="51" x="538.75" y="583.6016">Singleton</text><line style="stroke: #A80036; stroke-width: 1.5;" x1="305.75" x2="586.75" y1="606" y2="606"/><text fill="#000000" font-family="sans-serif" font-size="11" lengthAdjust="spacingAndGlyphs" textLength="270" x="310.75" y="620.6348">assigneeProviders: Collection&lt;AssigneeProvider&gt;</text><line style="stroke: #A80036; stroke-width: 1.5;" x1="305.75" x2="586.75" y1="626.9551" y2="626.9551"/><text fill="#000000" font-family="sans-serif" font-size="11" lengthAdjust="spacingAndGlyphs" textLength="205" x="310.75" y="641.5898">registerProvider( p:AssigneeProvider )</text><text fill="#000000" font-family="sans-serif" font-size="11" lengthAdjust="spacingAndGlyphs" textLength="237" x="310.75" y="654.5449">getRoleAssignee( idtf:String ) : RoleAssignee</text><text fill="#000000" font-family="sans-serif" font-size="11" lengthAdjust="spacingAndGlyphs" textLength="271" x="310.75" y="667.5">getRoleAssignee( req:HttpRequest ) : RoleAssignee</text><rect fill="#FEFECE" filter="url(#f1)" height="99.8203" style="stroke: #A80036; stroke-width: 1.5;" width="283" x="304.75" y="759"/><ellipse cx="380" cy="775" fill="#B4A7E5" rx="11" ry="11" style="stroke: #A80036; stroke-width: 1.0;"/><path d="M375.9277,770.7651 L375.9277,768.6069 L383.3071,768.6069 L383.3071,770.7651 L380.8418,770.7651 L380.8418,778.8418 L383.3071,778.8418 L383.3071,781 L375.9277,781 L375.9277,778.8418 L378.3931,778.8418 L378.3931,770.7651 Z "/><text fill="#000000" font-family="sans-serif" font-size="12" font-style="italic" lengthAdjust="spacingAndGlyphs" textLength="124" x="400.5" y="779.5352">RoleAssigneeProvider</text><line style="stroke: #A80036; stroke-width: 1.5;" x1="305.75" x2="586.75" y1="791" y2="791"/><ellipse cx="315.75" cy="802.9775" fill="none" rx="3" ry="3" style="stroke: #038048; stroke-width: 1.0;"/><text fill="#000000" font-family="sans-serif" font-size="11" lengthAdjust="spacingAndGlyphs" textLength="168" x="324.75" y="805.6348">info : RoleAssigneeProviderInfo</text><line style="stroke: #A80036; stroke-width: 1.5;" x1="305.75" x2="586.75" y1="811.9551" y2="811.9551"/><text fill="#000000" font-family="sans-serif" font-size="11" lengthAdjust="spacingAndGlyphs" textLength="258" x="310.75" y="826.5898">acceptsRoleAssigneeIdentifier( idtf:String ): bool</text><text fill="#000000" font-family="sans-serif" font-size="11" lengthAdjust="spacingAndGlyphs" textLength="237" x="310.75" y="839.5449">getRoleAssignee( idtf:String ) : RoleAssignee</text><text fill="#000000" font-family="sans-serif" font-size="11" lengthAdjust="spacingAndGlyphs" textLength="271" x="310.75" y="852.5">getRoleAssignee( req:HttpRequest ) : RoleAssignee</text><rect fill="#FEFECE" filter="url(#f1)" height="60.9551" style="stroke: #A80036; stroke-width: 1.5;" width="136" x="237" y="927.5"/><ellipse cx="263.25" cy="943.5" fill="#B4A7E5" rx="11" ry="11" style="stroke: #A80036; stroke-width: 1.0;"/><path d="M259.1777,939.2651 L259.1777,937.1069 L266.5571,937.1069 L266.5571,939.2651 L264.0918,939.2651 L264.0918,947.3418 L266.5571,947.3418 L266.5571,949.5 L259.1777,949.5 L259.1777,947.3418 L261.6431,947.3418 L261.6431,939.2651 Z "/><text fill="#000000" font-family="sans-serif" font-size="12" font-style="italic" lengthAdjust="spacingAndGlyphs" textLength="79" x="279.75" y="948.0352">GroupCreator</text><line style="stroke: #A80036; stroke-width: 1.5;" x1="238" x2="372" y1="959.5" y2="959.5"/><ellipse cx="248" cy="971.4775" fill="none" rx="3" ry="3" style="stroke: #038048; stroke-width: 1.0;"/><text fill="#000000" font-family="sans-serif" font-size="11" lengthAdjust="spacingAndGlyphs" textLength="110" x="257" y="974.1348">createGroup : Group</text><line style="stroke: #A80036; stroke-width: 1.5;" x1="238" x2="372" y1="980.4551" y2="980.4551"/><rect fill="#FEFECE" filter="url(#f1)" height="73.9102" style="stroke: #A80036; stroke-width: 1.5;" width="226" x="408" y="921"/><ellipse cx="488.25" cy="937" fill="#B4A7E5" rx="11" ry="11" style="stroke: #A80036; stroke-width: 1.0;"/><path d="M484.1777,932.7651 L484.1777,930.6069 L491.5571,930.6069 L491.5571,932.7651 L489.0918,932.7651 L489.0918,940.8418 L491.5571,940.8418 L491.5571,943 L484.1777,943 L484.1777,940.8418 L486.6431,940.8418 L486.6431,932.7651 Z "/><text fill="#000000" font-family="sans-serif" font-size="12" font-style="italic" lengthAdjust="spacingAndGlyphs" textLength="57" x="508.75" y="941.5352">UserLister</text><line style="stroke: #A80036; stroke-width: 1.5;" x1="409" x2="633" y1="953" y2="953"/><line style="stroke: #A80036; stroke-width: 1.5;" x1="409" x2="633" y1="961" y2="961"/><ellipse cx="419" cy="972.9775" fill="#84BE84" rx="3" ry="3" style="stroke: #038048; stroke-width: 1.0;"/><text fill="#000000" font-family="sans-serif" font-size="11" lengthAdjust="spacingAndGlyphs" textLength="126" x="428" y="975.6348">listUsers() : List&lt;User&gt;</text><ellipse cx="419" cy="985.9326" fill="#84BE84" rx="3" ry="3" style="stroke: #038048; stroke-width: 1.0;"/><text fill="#000000" font-family="sans-serif" font-size="11" lengthAdjust="spacingAndGlyphs" textLength="200" x="428" y="988.5898">findUsers( queryString ) : List&lt;User&gt;</text><rect fill="#FEFECE" filter="url(#f1)" height="99.8203" style="stroke: #A80036; stroke-width: 1.5;" width="177" x="657.75" y="759"/><ellipse cx="672.75" cy="775" fill="#ADD1B2" rx="11" ry="11" style="stroke: #A80036; stroke-width: 1.0;"/><path d="M675.7231,780.6431 Q675.1421,780.9419 674.5029,781.0913 Q673.8638,781.2407 673.1582,781.2407 Q670.6514,781.2407 669.3315,779.5889 Q668.0117,777.937 668.0117,774.8159 Q668.0117,771.6865 669.3315,770.0347 Q670.6514,768.3828 673.1582,768.3828 Q673.8638,768.3828 674.5112,768.5322 Q675.1587,768.6816 675.7231,768.9805 L675.7231,771.7031 Q675.0923,771.1221 674.4988,770.8523 Q673.9053,770.5825 673.2744,770.5825 Q671.9297,770.5825 671.2449,771.6492 Q670.5601,772.7158 670.5601,774.8159 Q670.5601,776.9077 671.2449,777.9744 Q671.9297,779.041 673.2744,779.041 Q673.9053,779.041 674.4988,778.7712 Q675.0923,778.5015 675.7231,777.9204 Z "/><text fill="#000000" font-family="sans-serif" font-size="12" lengthAdjust="spacingAndGlyphs" textLength="145" x="686.75" y="779.5352">RoleAssigneeProviderInfo</text><line style="stroke: #A80036; stroke-width: 1.5;" x1="658.75" x2="833.75" y1="791" y2="791"/><ellipse cx="668.75" cy="802.9775" fill="none" rx="3" ry="3" style="stroke: #038048; stroke-width: 1.0;"/><text fill="#000000" font-family="sans-serif" font-size="11" lengthAdjust="spacingAndGlyphs" textLength="29" x="677.75" y="805.6348">name</text><ellipse cx="668.75" cy="815.9326" fill="none" rx="3" ry="3" style="stroke: #038048; stroke-width: 1.0;"/><text fill="#000000" font-family="sans-serif" font-size="11" lengthAdjust="spacingAndGlyphs" textLength="61" x="677.75" y="818.5898">description</text><ellipse cx="668.75" cy="828.8877" fill="none" rx="3" ry="3" style="stroke: #038048; stroke-width: 1.0;"/><text fill="#000000" font-family="sans-serif" font-size="11" lengthAdjust="spacingAndGlyphs" textLength="28" x="677.75" y="831.5449">icon?</text><ellipse cx="668.75" cy="841.8428" fill="none" rx="3" ry="3" style="stroke: #038048; stroke-width: 1.0;"/><text fill="#000000" font-family="sans-serif" font-size="11" lengthAdjust="spacingAndGlyphs" textLength="9" x="677.75" y="844.5">...</text><line style="stroke: #A80036; stroke-width: 1.5;" x1="658.75" x2="833.75" y1="850.8203" y2="850.8203"/><rect fill="#FEFECE" filter="url(#f1)" height="48" style="stroke: #A80036; stroke-width: 1.5;" width="186" x="649" y="1059"/><ellipse cx="664" cy="1075" fill="#ADD1B2" rx="11" ry="11" style="stroke: #A80036; stroke-width: 1.0;"/><path d="M666.9731,1080.6431 Q666.3921,1080.9419 665.7529,1081.0913 Q665.1138,1081.2407 664.4082,1081.2407 Q661.9014,1081.2407 660.5815,1079.5889 Q659.2617,1077.937 659.2617,1074.8159 Q659.2617,1071.6865 660.5815,1070.0347 Q661.9014,1068.3828 664.4082,1068.3828 Q665.1138,1068.3828 665.7612,1068.5322 Q666.4087,1068.6816 666.9731,1068.9805 L666.9731,1071.7031 Q666.3423,1071.1221 665.7488,1070.8523 Q665.1553,1070.5825 664.5244,1070.5825 Q663.1797,1070.5825 662.4949,1071.6492 Q661.8101,1072.7158 661.8101,1074.8159 Q661.8101,1076.9077 662.4949,1077.9744 Q663.1797,1079.041 664.5244,1079.041 Q665.1553,1079.041 665.7488,1078.7712 Q666.3423,1078.5015 666.9731,1077.9204 Z "/><text fill="#000000" font-family="sans-serif" font-size="12" lengthAdjust="spacingAndGlyphs" textLength="154" x="678" y="1079.5352">DatabaseAssigneeProvider</text><line style="stroke: #A80036; stroke-width: 1.5;" x1="650" x2="834" y1="1091" y2="1091"/><line style="stroke: #A80036; stroke-width: 1.5;" x1="650" x2="834" y1="1099" y2="1099"/><rect fill="#FEFECE" filter="url(#f1)" height="48" style="stroke: #A80036; stroke-width: 1.5;" width="155" x="263.75" y="1059"/><ellipse cx="278.75" cy="1075" fill="#ADD1B2" rx="11" ry="11" style="stroke: #A80036; stroke-width: 1.0;"/><path d="M281.7231,1080.6431 Q281.1421,1080.9419 280.5029,1081.0913 Q279.8638,1081.2407 279.1582,1081.2407 Q276.6514,1081.2407 275.3315,1079.5889 Q274.0117,1077.937 274.0117,1074.8159 Q274.0117,1071.6865 275.3315,1070.0347 Q276.6514,1068.3828 279.1582,1068.3828 Q279.8638,1068.3828 280.5112,1068.5322 Q281.1587,1068.6816 281.7231,1068.9805 L281.7231,1071.7031 Q281.0923,1071.1221 280.4988,1070.8523 Q279.9053,1070.5825 279.2744,1070.5825 Q277.9297,1070.5825 277.2449,1071.6492 Q276.5601,1072.7158 276.5601,1074.8159 Q276.5601,1076.9077 277.2449,1077.9744 Q277.9297,1079.041 279.2744,1079.041 Q279.9053,1079.041 280.4988,1078.7712 Q281.0923,1078.5015 281.7231,1077.9204 Z "/><text fill="#000000" font-family="sans-serif" font-size="12" lengthAdjust="spacingAndGlyphs" textLength="123" x="292.75" y="1079.5352">ShibAssigneeProvider</text><line style="stroke: #A80036; stroke-width: 1.5;" x1="264.75" x2="417.75" y1="1091" y2="1091"/><line style="stroke: #A80036; stroke-width: 1.5;" x1="264.75" x2="417.75" y1="1099" y2="1099"/><rect fill="#FEFECE" filter="url(#f1)" height="48" style="stroke: #A80036; stroke-width: 1.5;" width="190" x="38" y="1059"/><ellipse cx="53" cy="1075" fill="#ADD1B2" rx="11" ry="11" style="stroke: #A80036; stroke-width: 1.0;"/><path d="M55.9731,1080.6431 Q55.3921,1080.9419 54.7529,1081.0913 Q54.1138,1081.2407 53.4082,1081.2407 Q50.9014,1081.2407 49.5815,1079.5889 Q48.2617,1077.937 48.2617,1074.8159 Q48.2617,1071.6865 49.5815,1070.0347 Q50.9014,1068.3828 53.4082,1068.3828 Q54.1138,1068.3828 54.7612,1068.5322 Q55.4087,1068.6816 55.9731,1068.9805 L55.9731,1071.7031 Q55.3423,1071.1221 54.7488,1070.8523 Q54.1553,1070.5825 53.5244,1070.5825 Q52.1797,1070.5825 51.4949,1071.6492 Q50.8101,1072.7158 50.8101,1074.8159 Q50.8101,1076.9077 51.4949,1077.9744 Q52.1797,1079.041 53.5244,1079.041 Q54.1553,1079.041 54.7488,1078.7712 Q55.3423,1078.5015 55.9731,1077.9204 Z "/><text fill="#000000" font-family="sans-serif" font-size="12" lengthAdjust="spacingAndGlyphs" textLength="158" x="67" y="1079.5352">IpAddressAssigneeProvider</text><line style="stroke: #A80036; stroke-width: 1.5;" x1="39" x2="227" y1="1091" y2="1091"/><line style="stroke: #A80036; stroke-width: 1.5;" x1="39" x2="227" y1="1099" y2="1099"/><rect fill="#FEFECE" filter="url(#f1)" height="48" style="stroke: #A80036; stroke-width: 1.5;" width="160" x="454" y="1059"/><ellipse cx="469" cy="1075" fill="#ADD1B2" rx="11" ry="11" style="stroke: #A80036; stroke-width: 1.0;"/><path d="M471.9731,1080.6431 Q471.3921,1080.9419 470.7529,1081.0913 Q470.1138,1081.2407 469.4082,1081.2407 Q466.9014,1081.2407 465.5815,1079.5889 Q464.2617,1077.937 464.2617,1074.8159 Q464.2617,1071.6865 465.5815,1070.0347 Q466.9014,1068.3828 469.4082,1068.3828 Q470.1138,1068.3828 470.7612,1068.5322 Q471.4087,1068.6816 471.9731,1068.9805 L471.9731,1071.7031 Q471.3423,1071.1221 470.7488,1070.8523 Q470.1553,1070.5825 469.5244,1070.5825 Q468.1797,1070.5825 467.4949,1071.6492 Q466.8101,1072.7158 466.8101,1074.8159 Q466.8101,1076.9077 467.4949,1077.9744 Q468.1797,1079.041 469.5244,1079.041 Q470.1553,1079.041 470.7488,1078.7712 Q471.3423,1078.5015 471.9731,1077.9204 Z "/><text fill="#000000" font-family="sans-serif" font-size="12" lengthAdjust="spacingAndGlyphs" textLength="128" x="483" y="1079.5352">LdapAssigneeProvider</text><line style="stroke: #A80036; stroke-width: 1.5;" x1="455" x2="613" y1="1091" y2="1091"/><line style="stroke: #A80036; stroke-width: 1.5;" x1="455" x2="613" y1="1099" y2="1099"/><rect fill="#FEFECE" filter="url(#f1)" height="48" style="stroke: #A80036; stroke-width: 1.5;" width="166" x="669" y="934"/><ellipse cx="684" cy="950" fill="#ADD1B2" rx="11" ry="11" style="stroke: #A80036; stroke-width: 1.0;"/><path d="M686.9731,955.6431 Q686.3921,955.9419 685.7529,956.0913 Q685.1138,956.2407 684.4082,956.2407 Q681.9014,956.2407 680.5815,954.5889 Q679.2617,952.937 679.2617,949.8159 Q679.2617,946.6865 680.5815,945.0347 Q681.9014,943.3828 684.4082,943.3828 Q685.1138,943.3828 685.7612,943.5322 Q686.4087,943.6816 686.9731,943.9805 L686.9731,946.7031 Q686.3423,946.1221 685.7488,945.8523 Q685.1553,945.5825 684.5244,945.5825 Q683.1797,945.5825 682.4949,946.6492 Q681.8101,947.7158 681.8101,949.8159 Q681.8101,951.9077 682.4949,952.9744 Q683.1797,954.041 684.5244,954.041 Q685.1553,954.041 685.7488,953.7712 Q686.3423,953.5015 686.9731,952.9204 Z "/><text fill="#000000" font-family="sans-serif" font-size="12" lengthAdjust="spacingAndGlyphs" textLength="134" x="698" y="954.5352">OAuthAssigneeProvider</text><line style="stroke: #A80036; stroke-width: 1.5;" x1="670" x2="834" y1="966" y2="966"/><line style="stroke: #A80036; stroke-width: 1.5;" x1="670" x2="834" y1="974" y2="974"/><rect fill="#FEFECE" filter="url(#f1)" height="86.8652" style="stroke: #A80036; stroke-width: 1.5;" width="154" x="2050" y="60.5"/><ellipse cx="2068.6" cy="76.5" fill="#ADD1B2" rx="11" ry="11" style="stroke: #A80036; stroke-width: 1.0;"/><path d="M2071.5731,82.1431 Q2070.9921,82.4419 2070.3529,82.5913 Q2069.7138,82.7407 2069.0082,82.7407 Q2066.5014,82.7407 2065.1815,81.0889 Q2063.8617,79.437 2063.8617,76.3159 Q2063.8617,73.1865 2065.1815,71.5347 Q2066.5014,69.8828 2069.0082,69.8828 Q2069.7138,69.8828 2070.3612,70.0322 Q2071.0087,70.1816 2071.5731,70.4805 L2071.5731,73.2031 Q2070.9423,72.6221 2070.3488,72.3523 Q2069.7553,72.0825 2069.1244,72.0825 Q2067.7797,72.0825 2067.0949,73.1492 Q2066.4101,74.2158 2066.4101,76.3159 Q2066.4101,78.4077 2067.0949,79.4744 Q2067.7797,80.541 2069.1244,80.541 Q2069.7553,80.541 2070.3488,80.2712 Q2070.9423,80.0015 2071.5731,79.4204 Z "/><text fill="#000000" font-family="sans-serif" font-size="12" lengthAdjust="spacingAndGlyphs" textLength="86" x="2083.4" y="81.0352">AccessRequest</text><rect fill="#FFFFFF" height="16.1328" style="stroke: #000000; stroke-width: 1.0; stroke-dasharray: 2.0,2.0;" width="26" x="2181" y="57.5"/><text fill="#000000" font-family="sans-serif" font-size="12" font-style="italic" lengthAdjust="spacingAndGlyphs" textLength="16" x="2186" y="70.1016">DB</text><line style="stroke: #A80036; stroke-width: 1.5;" x1="2051" x2="2203" y1="92.5" y2="92.5"/><text fill="#000000" font-family="sans-serif" font-size="11" lengthAdjust="spacingAndGlyphs" textLength="142" x="2056" y="107.1348">from: RoleAssigneeRecord</text><text fill="#000000" font-family="sans-serif" font-size="11" lengthAdjust="spacingAndGlyphs" textLength="75" x="2056" y="120.0898">dvo: DvObject</text><text fill="#000000" font-family="sans-serif" font-size="11" lengthAdjust="spacingAndGlyphs" textLength="79" x="2056" y="133.0449">metadata : TBD</text><line style="stroke: #A80036; stroke-width: 1.5;" x1="2051" x2="2203" y1="139.3652" y2="139.3652"/><rect fill="#FEFECE" filter="url(#f1)" height="73.9102" style="stroke: #A80036; stroke-width: 1.5;" width="111" x="1903.75" y="67"/><ellipse cx="1927.75" cy="83" fill="#B4A7E5" rx="11" ry="11" style="stroke: #A80036; stroke-width: 1.0;"/><path d="M1923.6777,78.7651 L1923.6777,76.6069 L1931.0571,76.6069 L1931.0571,78.7651 L1928.5918,78.7651 L1928.5918,86.8418 L1931.0571,86.8418 L1931.0571,89 L1923.6777,89 L1923.6777,86.8418 L1926.1431,86.8418 L1926.1431,78.7651 Z "/><text fill="#000000" font-family="sans-serif" font-size="12" font-style="italic" lengthAdjust="spacingAndGlyphs" textLength="59" x="1943.75" y="87.5352">Command</text><line style="stroke: #A80036; stroke-width: 1.5;" x1="1904.75" x2="2013.75" y1="99" y2="99"/><text fill="#000000" font-family="sans-serif" font-size="11" lengthAdjust="spacingAndGlyphs" textLength="78" x="1909.75" y="113.6348">issuedBy: User</text><text fill="#000000" font-family="sans-serif" font-size="11" lengthAdjust="spacingAndGlyphs" textLength="99" x="1909.75" y="126.5898">effects: DvObject[]</text><line style="stroke: #A80036; stroke-width: 1.5;" x1="1904.75" x2="2013.75" y1="132.9102" y2="132.9102"/><polygon fill="#FBFB77" filter="url(#f1)" points="2239.75,60.5,2239.75,147.0527,2598.75,147.0527,2598.75,70.5,2588.75,60.5,2239.75,60.5" style="stroke: #A80036; stroke-width: 1.0;"/><line style="stroke: #A80036; stroke-width: 1.0;" x1="2588.75" x2="2588.75" y1="60.5" y2="70.5"/><line style="stroke: #A80036; stroke-width: 1.0;" x1="2598.75" x2="2588.75" y1="70.5" y2="70.5"/><text fill="#000000" font-family="sans-serif" font-size="13" lengthAdjust="spacingAndGlyphs" textLength="81" x="2245.75" y="78.0684">Invariant: We</text><text fill="#000000" font-family="sans-serif" font-size="13" font-weight="bold" lengthAdjust="spacingAndGlyphs" textLength="46" x="2330.75" y="78.0684">always</text><text fill="#000000" font-family="sans-serif" font-size="13" lengthAdjust="spacingAndGlyphs" textLength="71" x="2380.75" y="78.0684">have a user</text><text fill="#000000" font-family="sans-serif" font-size="13" lengthAdjust="spacingAndGlyphs" textLength="338" x="2245.75" y="93.3789">Local users are just users supplied by a local provider</text><text fill="#000000" font-family="sans-serif" font-size="13" lengthAdjust="spacingAndGlyphs" textLength="222" x="2245.75" y="108.6895">Non-explicit groups, maps a set of</text><text fill="#000000" font-family="sans-serif" font-size="13" lengthAdjust="spacingAndGlyphs" textLength="152" x="2245.75" y="124">HTTP request properties</text><text fill="#000000" font-family="sans-serif" font-size="13" lengthAdjust="spacingAndGlyphs" textLength="215" x="2245.75" y="139.3105">to an internal RoleAssignee object</text><path d="M1731.87,466.231 C1658.03,482.55 1549.93,506.925 1456,530 C1335.37,559.635 1192.53,598.406 1132.2,614.952 " fill="none" style="stroke: #A80036; stroke-width: 1.0;"/><polygon fill="none" points="1730.71,459.319,1751.75,461.849,1733.72,472.99,1730.71,459.319" style="stroke: #A80036; stroke-width: 1.0;"/><path d="M1743.23,501.26 C1713.49,522.281 1679.47,546.33 1649.56,567.471 " fill="none" style="stroke: #A80036; stroke-width: 1.0;"/><polygon fill="none" points="1739.35,495.432,1759.72,489.605,1747.43,506.865,1739.35,495.432" style="stroke: #A80036; stroke-width: 1.0;"/><path d="M1103,668.21 C1103,704.669 1103,755.465 1103,784.723 " fill="none" style="stroke: #A80036; stroke-width: 1.0;"/><polygon fill="none" points="1096,668.177,1103,648.177,1110,668.177,1096,668.177" style="stroke: #A80036; stroke-width: 1.0;"/><path d="M1069.65,663.632 C1040.08,697.871 997.543,747.143 970.594,778.356 " fill="none" style="stroke: #A80036; stroke-width: 1.0;"/><polygon fill="none" points="1064.62,658.741,1082.99,648.177,1075.22,667.89,1064.62,658.741" style="stroke: #A80036; stroke-width: 1.0;"/><path d="M1162.46,842.86 C1204.43,866.051 1260.64,897.114 1303.82,920.98 " fill="none" style="stroke: #A80036; stroke-width: 1.0;"/><polygon fill="none" points="1158.97,848.931,1144.86,833.13,1165.75,836.678,1158.97,848.931" style="stroke: #A80036; stroke-width: 1.0;"/><path d="M1065.03,847.461 C1042.16,870.025 1013.19,898.609 990.571,920.92 " fill="none" style="stroke: #A80036; stroke-width: 1.0;"/><polygon fill="none" points="1060.24,842.356,1079.39,833.293,1070.07,852.322,1060.24,842.356" style="stroke: #A80036; stroke-width: 1.0;"/><path d="M1100.63,853.562 C1099.2,879.87 1097.43,912.349 1096.26,933.816 " fill="none" style="stroke: #A80036; stroke-width: 1.0;"/><polygon fill="none" points="1093.66,852.883,1101.73,833.293,1107.64,853.643,1093.66,852.883" style="stroke: #A80036; stroke-width: 1.0;"/><path d="M1134.26,849.28 C1155.74,876.264 1183.52,911.169 1201.55,933.816 " fill="none" style="stroke: #A80036; stroke-width: 1.0;"/><polygon fill="none" points="1128.52,853.3,1121.54,833.293,1139.47,844.582,1128.52,853.3" style="stroke: #A80036; stroke-width: 1.0;"/><path d="M1687.31,670.342 C1750.16,695.421 1828.83,727.758 1898,759 C1904.12,761.763 1910.41,764.686 1916.72,767.675 " fill="none" style="stroke: #A80036; stroke-width: 1.0;"/><polygon fill="none" points="1684.35,676.695,1668.35,662.801,1689.52,663.685,1684.35,676.695" style="stroke: #A80036; stroke-width: 1.0;"/><path d="M1571,701.226 C1571,731.352 1571,763.75 1571,784.858 " fill="none" style="stroke: #A80036; stroke-width: 1.0;"/><polygon fill="none" points="1564,700.9,1571,680.9,1578,700.9,1564,700.9" style="stroke: #A80036; stroke-width: 1.0;"/><path d="M1647.75,694.192 C1680.05,723.308 1715.91,755.633 1741.13,778.37 " fill="none" style="stroke: #A80036; stroke-width: 1.0;"/><polygon fill="none" points="1642.9,699.242,1632.73,680.651,1652.28,688.844,1642.9,699.242" style="stroke: #A80036; stroke-width: 1.0;"/><path d="M1514.1,696.808 C1491.56,725.265 1466.89,756.389 1449.41,778.452 " fill="none" style="stroke: #A80036; stroke-width: 1.0;"/><polygon fill="none" points="1508.8,692.229,1526.71,680.9,1519.77,700.923,1508.8,692.229" style="stroke: #A80036; stroke-width: 1.0;"/><path d="M1950.23,324.019 C1926.26,346.281 1895.28,375.066 1869.55,398.973 " fill="none" style="stroke: #A80036; stroke-width: 1.0; stroke-dasharray: 7.0,7.0;"/><polygon fill="#A80036" points="1865.79,402.463,1875.1075,399.2718,1869.4546,399.0614,1869.665,393.4085,1865.79,402.463" style="stroke: #A80036; stroke-width: 1.0;"/><text fill="#000000" font-family="sans-serif" font-size="13" lengthAdjust="spacingAndGlyphs" textLength="48" x="1916" y="367.5684">Locates</text><path d="M1184.36,809 C1203.23,809 1222.1,809 1240.97,809 " fill="none" style="stroke: #A80036; stroke-width: 1.0;"/><polygon fill="#A80036" points="1171.3,809,1177.3,813,1183.3,809,1177.3,805,1171.3,809" style="stroke: #A80036; stroke-width: 1.0;"/><text fill="#000000" font-family="sans-serif" font-size="13" lengthAdjust="spacingAndGlyphs" textLength="8" x="1179.6308" y="804.6035">1</text><text fill="#000000" font-family="sans-serif" font-size="13" lengthAdjust="spacingAndGlyphs" textLength="22" x="1211.1855" y="804.6606">0..*</text><path d="M2455.35,287 C2483.79,287 2521.73,287 2553.48,287 " fill="none" style="stroke: #A80036; stroke-width: 1.0;"/><polygon fill="#A80036" points="2558.53,287,2549.53,283,2553.53,287,2549.53,291,2558.53,287" style="stroke: #A80036; stroke-width: 1.0;"/><text fill="#000000" font-family="sans-serif" font-size="13" lengthAdjust="spacingAndGlyphs" textLength="65" x="2473.75" y="279.5684">Defined at</text><path d="M2581.05,314.384 C2542.28,344.52 2479.46,393.348 2442.6,421.995 " fill="none" style="stroke: #A80036; stroke-width: 1.0;"/><polygon fill="#A80036" points="2585.19,311.166,2575.6306,313.5362,2581.2439,314.2366,2580.5436,319.8499,2585.19,311.166" style="stroke: #A80036; stroke-width: 1.0;"/><text fill="#000000" font-family="sans-serif" font-size="13" lengthAdjust="spacingAndGlyphs" textLength="14" x="2527" y="367.5684">At</text><text fill="#000000" font-family="sans-serif" font-size="13" lengthAdjust="spacingAndGlyphs" textLength="8" x="2567.6441" y="331.4908">1</text><path d="M2413,316.237 C2413,346.488 2413,393.928 2413,421.995 " fill="none" style="stroke: #A80036; stroke-width: 1.0;"/><polygon fill="#A80036" points="2413,311.166,2409,320.166,2413,316.166,2417,320.166,2413,311.166" style="stroke: #A80036; stroke-width: 1.0;"/><text fill="#000000" font-family="sans-serif" font-size="13" lengthAdjust="spacingAndGlyphs" textLength="50" x="2414" y="367.5684">Assigns</text><text fill="#000000" font-family="sans-serif" font-size="13" lengthAdjust="spacingAndGlyphs" textLength="8" x="2402.7203" y="331.4908">1</text><path d="M2350.84,421.983 C2280.09,395.787 2163.81,352.729 2082.2,322.512 " fill="none" style="stroke: #A80036; stroke-width: 1.0;"/><polygon fill="#A80036" points="2077.37,320.721,2084.4314,327.5866,2082.0615,322.4501,2087.198,320.0802,2077.37,320.721" style="stroke: #A80036; stroke-width: 1.0;"/><text fill="#000000" font-family="sans-serif" font-size="13" lengthAdjust="spacingAndGlyphs" textLength="16" x="2215" y="367.5684">To</text><text fill="#000000" font-family="sans-serif" font-size="13" lengthAdjust="spacingAndGlyphs" textLength="8" x="2085.8623" y="319.6329">1</text><path d="M1971.49,765.342 C1957.24,740.949 1939.49,709.603 1925,681 C1892.91,617.632 1860.04,542.376 1839.83,494.654 " fill="none" style="stroke: #A80036; stroke-width: 1.0; stroke-dasharray: 7.0,7.0;"/><polygon fill="#A80036" points="1837.79,489.836,1837.6037,499.6831,1839.7339,494.4426,1844.9744,496.5728,1837.79,489.836" style="stroke: #A80036; stroke-width: 1.0;"/><text fill="#000000" font-family="sans-serif" font-size="13" lengthAdjust="spacingAndGlyphs" textLength="56" x="1926" y="628.5684">Contains</text><path d="M1996.14,752.235 C1994.57,650.069 1991.25,434.463 1989.76,337.306 " fill="none" style="stroke: #A80036; stroke-width: 1.0;"/><polygon fill="#A80036" points="1989.56,324.153,1985.6989,333.2135,1989.6369,329.1524,1993.698,333.0904,1989.56,324.153" style="stroke: #A80036; stroke-width: 1.0;"/><line style="stroke: #A80036; stroke-width: 1.0;" x1="1989.6369" x2="1989.76" y1="329.1524" y2="337.151"/><polygon fill="none" points="1996.34,765.289,2000.2472,759.2282,1996.1554,753.2904,1992.2482,759.3512,1996.34,765.289" style="stroke: #A80036; stroke-width: 1.0;"/><path d="M2078.81,758.283 C2204.07,682.154 2439.6,539.01 2541.71,476.956 " fill="none" style="stroke: #A80036; stroke-width: 1.0;"/><polygon fill="#A80036" points="2552.94,470.131,2545.7354,469.8249,2542.6819,476.3576,2549.8865,476.6637,2552.94,470.131" style="stroke: #A80036; stroke-width: 1.0;"/><polygon fill="#A80036" points="2067.4,765.213,2077.168,763.9532,2071.6718,762.6146,2073.0104,757.1184,2067.4,765.213" style="stroke: #A80036; stroke-width: 1.0;"/><line style="stroke: #A80036; stroke-width: 1.0;" x1="2071.6718" x2="2078.515" y1="762.6146" y2="758.461"/><text fill="#000000" font-family="sans-serif" font-size="13" lengthAdjust="spacingAndGlyphs" textLength="22" x="2052.2139" y="754.7852">0..*</text><text fill="#000000" font-family="sans-serif" font-size="13" lengthAdjust="spacingAndGlyphs" textLength="8" x="2533.4441" y="490.4473">1</text><path d="M2608.4,331.187 C2603.91,360.542 2598.15,398.219 2594.52,421.995 " fill="none" style="stroke: #A80036; stroke-width: 1.0;"/><polygon fill="none" points="2601.52,329.878,2611.46,311.166,2615.36,331.994,2601.52,329.878" style="stroke: #A80036; stroke-width: 1.0;"/><path d="M446,687.068 C446,705.994 446,726.8 446,745.738 " fill="none" style="stroke: #A80036; stroke-width: 1.0;"/><polygon fill="#A80036" points="446,758.824,450,749.824,446,753.824,442,749.824,446,758.824" style="stroke: #A80036; stroke-width: 1.0;"/><line style="stroke: #A80036; stroke-width: 1.0;" x1="446" x2="446" y1="753.824" y2="745.824"/><polygon fill="#A80036" points="446,674.041,442,680.041,446,686.041,450,680.041,446,674.041" style="stroke: #A80036; stroke-width: 1.0;"/><text fill="#000000" font-family="sans-serif" font-size="13" lengthAdjust="spacingAndGlyphs" textLength="22" x="421.507" y="748.2711">1..*</text><path d="M566.454,867.865 C614.453,890.924 666.934,916.135 703.794,933.842 " fill="none" style="stroke: #A80036; stroke-width: 1.0; stroke-dasharray: 7.0,7.0;"/><polygon fill="none" points="563.316,874.123,548.319,859.153,569.378,861.504,563.316,874.123" style="stroke: #A80036; stroke-width: 1.0;"/><path d="M480.298,877.224 C487.913,892.149 495.705,907.422 502.406,920.557 " fill="none" style="stroke: #A80036; stroke-width: 1.0;"/><polygon fill="none" points="474.037,880.354,471.183,859.358,486.507,873.992,474.037,880.354" style="stroke: #A80036; stroke-width: 1.0;"/><path d="M384.641,873.971 C366.842,892.527 348.252,911.908 333.514,927.273 " fill="none" style="stroke: #A80036; stroke-width: 1.0;"/><polygon fill="none" points="379.76,868.946,398.657,859.358,389.864,878.637,379.76,868.946" style="stroke: #A80036; stroke-width: 1.0;"/><path d="M605.529,1004.656 C619.091,1012.075 632.952,1019.714 646,1027 C664.448,1037.301 684.767,1048.9041 701.943,1058.7886 " fill="none" style="stroke: #A80036; stroke-width: 1.0;"/><polygon fill="none" points="602.174,1010.799,587.967,995.078,608.878,998.509,602.174,1010.799" style="stroke: #A80036; stroke-width: 1.0;"/><path d="M355.871,1000.38 C366.637,1007.53 378.298,1014.196 390,1019 C440.221,1039.6181 577.632,1049.0461 631,1059 C636.804,1060.0825 642.772,1061.2272 648.786,1062.4046 " fill="none" style="stroke: #A80036; stroke-width: 1.0;"/><polygon fill="none" points="351.499,1005.86,339.285,988.545,359.631,994.464,351.499,1005.86" style="stroke: #A80036; stroke-width: 1.0;"/><path d="M526.942,1015.22 C528.567,1030.598 530.24,1046.4202 531.548,1058.8014 " fill="none" style="stroke: #A80036; stroke-width: 1.0;"/><polygon fill="none" points="519.971,1015.864,524.83,995.239,533.894,1014.392,519.971,1015.864" style="stroke: #A80036; stroke-width: 1.0;"/><path d="M360.421,1000.512 C370.069,1007.04 380.167,1013.454 390,1019 C416.62,1034.014 447.51,1047.9495 473.839,1058.8762 " fill="none" style="stroke: #A80036; stroke-width: 1.0;"/><polygon fill="none" points="356.064,1006.007,343.696,988.801,364.094,994.538,356.064,1006.007" style="stroke: #A80036; stroke-width: 1.0;"/><path d="M319.407,1008.225 C324.501,1025.629 329.995,1044.3998 334.166,1058.6521 " fill="none" style="stroke: #A80036; stroke-width: 1.0;"/><polygon fill="none" points="312.614,1009.936,313.715,988.775,326.051,1006.003,312.614,1009.936" style="stroke: #A80036; stroke-width: 1.0;"/><path d="M247.058,1000.435 C219.812,1019.92 188.345,1042.4215 165.374,1058.8488 " fill="none" style="stroke: #A80036; stroke-width: 1.0;"/><polygon fill="none" points="243.023,994.715,263.364,988.775,251.167,1006.103,243.023,994.715" style="stroke: #A80036; stroke-width: 1.0;"/><path d="M600.622,809 C615.129,809 629.635,809 644.142,809 " fill="none" style="stroke: #A80036; stroke-width: 1.0;"/><polygon fill="#A80036" points="657.465,809,648.465,805,652.465,809,648.465,813,657.465,809" style="stroke: #A80036; stroke-width: 1.0;"/><line style="stroke: #A80036; stroke-width: 1.0;" x1="652.465" x2="644.465" y1="809" y2="809"/><polygon fill="#A80036" points="587.504,809,593.504,813,599.504,809,593.504,805,587.504,809" style="stroke: #A80036; stroke-width: 1.0;"/><path d="M1473.5,639.115 C1388.06,651.202 1260.46,668.574 1149,681 C1001.755,697.415 962.947,685.508 817,711 C811.08,712.034 693.74,742.779 592.593,769.38 " fill="none" style="stroke: #A80036; stroke-width: 1.0; stroke-dasharray: 7.0,7.0;"/><polygon fill="#A80036" points="587.485,770.723,597.2063,772.303,592.3207,769.4516,595.172,764.5659,587.485,770.723" style="stroke: #A80036; stroke-width: 1.0;"/><text fill="#000000" font-family="sans-serif" font-size="13" lengthAdjust="spacingAndGlyphs" textLength="66" x="818" y="724.5684">Created By</text><path d="M1468.51,641.702 C1335.37,663.157 1095.63,700.968 890,729 C779.117,744.116 750.031,738.589 640,759 C622.837,762.184 604.937,766.006 587.251,770.092 " fill="none" style="stroke: #A80036; stroke-width: 1.0; stroke-dasharray: 7.0,7.0;"/><polygon fill="#A80036" points="1473.59,640.882,1464.0661,638.3731,1468.6544,641.6818,1465.3457,646.2701,1473.59,640.882" style="stroke: #A80036; stroke-width: 1.0;"/><text fill="#000000" font-family="sans-serif" font-size="13" lengthAdjust="spacingAndGlyphs" textLength="47" x="1003" y="724.5684">Creates</text><path d="M1068.85,632.956 C1020.46,644.142 929.149,664.948 851,681 C780.557,695.469 761.092,691.055 692,711 C647.121,723.956 599.055,741.936 557.426,758.901 " fill="none" style="stroke: #A80036; stroke-width: 1.0; stroke-dasharray: 7.0,7.0;"/><polygon fill="#A80036" points="1073.96,631.772,1064.2894,629.9065,1069.089,632.9005,1066.095,637.7,1073.96,631.772" style="stroke: #A80036; stroke-width: 1.0;"/><text fill="#000000" font-family="sans-serif" font-size="13" lengthAdjust="spacingAndGlyphs" textLength="47" x="693" y="724.5684">Creates</text><path d="M2094.3,147.894 C2071.73,177.487 2041.93,216.574 2019.79,245.61 " fill="none" style="stroke: #A80036; stroke-width: 1.0; stroke-dasharray: 7.0,7.0;"/><polygon fill="#A80036" points="2016.59,249.819,2025.2303,245.092,2019.6237,245.8445,2018.8712,240.238,2016.59,249.819" style="stroke: #A80036; stroke-width: 1.0;"/><text fill="#000000" font-family="sans-serif" font-size="13" lengthAdjust="spacingAndGlyphs" textLength="32" x="2068" y="193.5684">From</text><path d="M2176.3,147.684 C2190.21,157.434 2205.95,166.529 2222,172 C2261.16,185.352 2367.55,171.305 2408,180 C2438.42,186.539 2444.94,192.557 2473,206 C2507.4,222.479 2544.94,243.783 2572.78,260.262 " fill="none" style="stroke: #A80036; stroke-width: 1.0; stroke-dasharray: 7.0,7.0;"/><polygon fill="#A80036" points="2577.16,262.864,2571.4493,254.8398,2572.8562,260.3189,2567.3771,261.7259,2577.16,262.864" style="stroke: #A80036; stroke-width: 1.0;"/><text fill="#000000" font-family="sans-serif" font-size="13" lengthAdjust="spacingAndGlyphs" textLength="36" x="2456" y="193.5684">about</text><path d="M1903.36,107.94 C1768.62,116.02 1429.25,142.306 1338,206 C1196.43,304.825 1129.86,517.902 1109.81,594.69 " fill="none" style="stroke: #A80036; stroke-width: 1.0; stroke-dasharray: 7.0,7.0;"/><polygon fill="#A80036" points="1108.44,599.98,1114.5602,592.2636,1109.6883,595.1383,1106.8135,590.2664,1108.44,599.98" style="stroke: #A80036; stroke-width: 1.0;"/><text fill="#000000" font-family="sans-serif" font-size="13" lengthAdjust="spacingAndGlyphs" textLength="59" x="1209" y="367.5684">Issued By</text><text fill="#000000" font-family="sans-serif" font-size="13" lengthAdjust="spacingAndGlyphs" textLength="22" x="1873.6771" y="104.0792">0..*</text><text fill="#000000" font-family="sans-serif" font-size="13" lengthAdjust="spacingAndGlyphs" textLength="8" x="1099.5418" y="589.064">1</text><path d="M1989.37,141.298 C2001.35,153.154 2016.08,165.049 2032,172 C2040.22,175.59 2345.05,197.338 2354,198 C2380.43,199.956 2447.6,198.419 2473,206 C2511.86,217.601 2551.72,241.29 2579.28,259.894 " fill="none" style="stroke: #A80036; stroke-width: 1.0; stroke-dasharray: 7.0,7.0;"/><polygon fill="#A80036" points="2583.59,262.833,2578.4037,254.4603,2579.4577,260.0181,2573.8998,261.072,2583.59,262.833" style="stroke: #A80036; stroke-width: 1.0;"/><text fill="#000000" font-family="sans-serif" font-size="13" lengthAdjust="spacingAndGlyphs" textLength="43" x="2355" y="193.5684">effects</text><text fill="#000000" font-family="sans-serif" font-size="13" lengthAdjust="spacingAndGlyphs" textLength="22" x="2551.0394" y="252.2894">1..*</text></g></svg>