<?xml version="1.0" encoding="UTF-8" standalone="yes"?><svg xmlns="http://www.w3.org/2000/svg" xmlns:xlink="http://www.w3.org/1999/xlink" height="993pt" style="width:3004px;height:993px;" version="1.1" viewBox="0 0 3004 993" width="3004pt"><defs><filter height="300%" id="f1" width="300%" x="-1" y="-1"><feGaussianBlur result="blurOut" stdDeviation="2.0"/><feColorMatrix in="blurOut" result="blurOut2" type="matrix" values="0 0 0 0 0 0 0 0 0 0 0 0 0 0 0 0 0 0 .4 0"/><feOffset dx="4.0" dy="4.0" in="blurOut2" result="blurOut3"/><feBlend in="SourceGraphic" in2="blurOut3" mode="normal"/></filter></defs><g><polygon fill="#FFFFFF" filter="url(#f1)" points="83.4914,211,183.4914,211,190.4914,233.4883,652.491,233.4883,652.491,526,83.4914,526,83.4914,211" style="stroke: #000000; stroke-width: 2.0;"/><line style="stroke: #000000; stroke-width: 2.0;" x1="83.4914" x2="190.4914" y1="233.4883" y2="233.4883"/><text fill="#000000" font-family="sans-serif" font-size="14" font-weight="bold" lengthAdjust="spacingAndGlyphs" textLength="94" x="86.4914" y="227.5352">existingCode</text><polygon fill="#FFFFFF" filter="url(#f1)" points="676.491,24,753.491,24,760.491,46.4883,2098.49,46.4883,2098.49,722.5,676.491,722.5,676.491,24" style="stroke: #000000; stroke-width: 2.0;"/><line style="stroke: #000000; stroke-width: 2.0;" x1="676.491" x2="760.491" y1="46.4883" y2="46.4883"/><text fill="#000000" font-family="sans-serif" font-size="14" font-weight="bold" lengthAdjust="spacingAndGlyphs" textLength="71" x="679.491" y="40.5352">assignees</text><polygon fill="#FFFFFF" filter="url(#f1)" points="2122.49,401,2279.49,401,2286.49,423.4883,2997.49,423.4883,2997.49,986,2122.49,986,2122.49,401" style="stroke: #000000; stroke-width: 2.0;"/><line style="stroke: #000000; stroke-width: 2.0;" x1="2122.49" x2="2286.49" y1="423.4883" y2="423.4883"/><text fill="#000000" font-family="sans-serif" font-size="14" font-weight="bold" lengthAdjust="spacingAndGlyphs" textLength="151" x="2125.49" y="417.5352">roleassigneeprovider</text><polygon fill="#FFFFFF" filter="url(#f1)" points="316.491,24,537.491,24,544.491,46.4883,649.491,46.4883,649.491,162,316.491,162,316.491,24" style="stroke: #000000; stroke-width: 2.0;"/><line style="stroke: #000000; stroke-width: 2.0;" x1="316.491" x2="544.491" y1="46.4883" y2="46.4883"/><text fill="#000000" font-family="sans-serif" font-size="14" font-weight="bold" lengthAdjust="spacingAndGlyphs" textLength="215" x="319.491" y="40.5352">somewhere_else_in_dataverse</text><rect fill="#FEFECE" filter="url(#f1)" height="48" style="stroke: #A80036; stroke-width: 1.5;" width="85" x="335.991" y="257.5"/><ellipse cx="350.991" cy="273.5" fill="#ADD1B2" rx="11" ry="11" style="stroke: #A80036; stroke-width: 1.0;"/><path d="M353.9641,279.1431 Q353.3831,279.4419 352.7439,279.5913 Q352.1048,279.7407 351.3992,279.7407 Q348.8924,279.7407 347.5725,278.0889 Q346.2527,276.437 346.2527,273.3159 Q346.2527,270.1865 347.5725,268.5347 Q348.8924,266.8828 351.3992,266.8828 Q352.1048,266.8828 352.7522,267.0322 Q353.3997,267.1816 353.9641,267.4805 L353.9641,270.2031 Q353.3333,269.6221 352.7398,269.3523 Q352.1463,269.0825 351.5154,269.0825 Q350.1707,269.0825 349.4859,270.1492 Q348.8011,271.2158 348.8011,273.3159 Q348.8011,275.4077 349.4859,276.4744 Q350.1707,277.541 351.5154,277.541 Q352.1463,277.541 352.7398,277.2712 Q353.3333,277.0015 353.9641,276.4204 Z "/><text fill="#000000" font-family="sans-serif" font-size="12" lengthAdjust="spacingAndGlyphs" textLength="25" x="364.991" y="278.0352">Role</text><rect fill="#FFFFFF" height="16.1328" style="stroke: #000000; stroke-width: 1.0; stroke-dasharray: 2.0,2.0;" width="26" x="397.991" y="254.5"/><text fill="#000000" font-family="sans-serif" font-size="12" font-style="italic" lengthAdjust="spacingAndGlyphs" textLength="16" x="402.991" y="267.1016">DB</text><line style="stroke: #A80036; stroke-width: 1.5;" x1="336.991" x2="419.991" y1="289.5" y2="289.5"/><line style="stroke: #A80036; stroke-width: 1.5;" x1="336.991" x2="419.991" y1="297.5" y2="297.5"/><rect fill="#FEFECE" filter="url(#f1)" height="48" style="stroke: #A80036; stroke-width: 1.5;" width="113" x="522.991" y="257.5"/><ellipse cx="537.991" cy="273.5" fill="#ADD1B2" rx="11" ry="11" style="stroke: #A80036; stroke-width: 1.0;"/><path d="M540.9641,279.1431 Q540.3831,279.4419 539.7439,279.5913 Q539.1048,279.7407 538.3992,279.7407 Q535.8924,279.7407 534.5725,278.0889 Q533.2527,276.437 533.2527,273.3159 Q533.2527,270.1865 534.5725,268.5347 Q535.8924,266.8828 538.3992,266.8828 Q539.1048,266.8828 539.7522,267.0322 Q540.3997,267.1816 540.9641,267.4805 L540.9641,270.2031 Q540.3333,269.6221 539.7398,269.3523 Q539.1463,269.0825 538.5154,269.0825 Q537.1707,269.0825 536.4859,270.1492 Q535.8011,271.2158 535.8011,273.3159 Q535.8011,275.4077 536.4859,276.4744 Q537.1707,277.541 538.5154,277.541 Q539.1463,277.541 539.7398,277.2712 Q540.3333,277.0015 540.9641,276.4204 Z "/><text fill="#000000" font-family="sans-serif" font-size="12" lengthAdjust="spacingAndGlyphs" textLength="53" x="551.991" y="278.0352">DvObject</text><rect fill="#FFFFFF" height="16.1328" style="stroke: #000000; stroke-width: 1.0; stroke-dasharray: 2.0,2.0;" width="26" x="612.991" y="254.5"/><text fill="#000000" font-family="sans-serif" font-size="12" font-style="italic" lengthAdjust="spacingAndGlyphs" textLength="16" x="617.991" y="267.1016">DB</text><line style="stroke: #A80036; stroke-width: 1.5;" x1="523.991" x2="634.991" y1="289.5" y2="289.5"/><line style="stroke: #A80036; stroke-width: 1.5;" x1="523.991" x2="634.991" y1="297.5" y2="297.5"/><rect fill="#FEFECE" filter="url(#f1)" height="48" style="stroke: #A80036; stroke-width: 1.5;" width="151" x="331.991" y="462"/><ellipse cx="346.991" cy="478" fill="#ADD1B2" rx="11" ry="11" style="stroke: #A80036; stroke-width: 1.0;"/><path d="M349.9641,483.6431 Q349.3831,483.9419 348.7439,484.0913 Q348.1048,484.2407 347.3992,484.2407 Q344.8924,484.2407 343.5725,482.5889 Q342.2527,480.937 342.2527,477.8159 Q342.2527,474.6865 343.5725,473.0347 Q344.8924,471.3828 347.3992,471.3828 Q348.1048,471.3828 348.7522,471.5322 Q349.3997,471.6816 349.9641,471.9805 L349.9641,474.7031 Q349.3333,474.1221 348.7398,473.8523 Q348.1463,473.5825 347.5154,473.5825 Q346.1707,473.5825 345.4859,474.6492 Q344.8011,475.7158 344.8011,477.8159 Q344.8011,479.9077 345.4859,480.9744 Q346.1707,482.041 347.5154,482.041 Q348.1463,482.041 348.7398,481.7712 Q349.3333,481.5015 349.9641,480.9204 Z "/><text fill="#000000" font-family="sans-serif" font-size="12" lengthAdjust="spacingAndGlyphs" textLength="91" x="360.991" y="482.5352">RoleAssignment</text><rect fill="#FFFFFF" height="16.1328" style="stroke: #000000; stroke-width: 1.0; stroke-dasharray: 2.0,2.0;" width="26" x="459.991" y="459"/><text fill="#000000" font-family="sans-serif" font-size="12" font-style="italic" lengthAdjust="spacingAndGlyphs" textLength="16" x="464.991" y="471.6016">DB</text><line style="stroke: #A80036; stroke-width: 1.5;" x1="332.991" x2="481.991" y1="494" y2="494"/><line style="stroke: #A80036; stroke-width: 1.5;" x1="332.991" x2="481.991" y1="502" y2="502"/><rect fill="#FEFECE" filter="url(#f1)" height="48" style="stroke: #A80036; stroke-width: 1.5;" width="118" x="518.491" y="462"/><ellipse cx="533.491" cy="478" fill="#ADD1B2" rx="11" ry="11" style="stroke: #A80036; stroke-width: 1.0;"/><path d="M536.4641,483.6431 Q535.8831,483.9419 535.2439,484.0913 Q534.6048,484.2407 533.8992,484.2407 Q531.3924,484.2407 530.0725,482.5889 Q528.7527,480.937 528.7527,477.8159 Q528.7527,474.6865 530.0725,473.0347 Q531.3924,471.3828 533.8992,471.3828 Q534.6048,471.3828 535.2522,471.5322 Q535.8997,471.6816 536.4641,471.9805 L536.4641,474.7031 Q535.8333,474.1221 535.2398,473.8523 Q534.6463,473.5825 534.0154,473.5825 Q532.6707,473.5825 531.9859,474.6492 Q531.3011,475.7158 531.3011,477.8159 Q531.3011,479.9077 531.9859,480.9744 Q532.6707,482.041 534.0154,482.041 Q534.6463,482.041 535.2398,481.7712 Q535.8333,481.5015 536.4641,480.9204 Z "/><text fill="#000000" font-family="sans-serif" font-size="12" lengthAdjust="spacingAndGlyphs" textLength="58" x="547.491" y="482.5352">Dataverse</text><rect fill="#FFFFFF" height="16.1328" style="stroke: #000000; stroke-width: 1.0; stroke-dasharray: 2.0,2.0;" width="26" x="613.491" y="459"/><text fill="#000000" font-family="sans-serif" font-size="12" font-style="italic" lengthAdjust="spacingAndGlyphs" textLength="16" x="618.491" y="471.6016">DB</text><line style="stroke: #A80036; stroke-width: 1.5;" x1="519.491" x2="635.491" y1="494" y2="494"/><line style="stroke: #A80036; stroke-width: 1.5;" x1="519.491" x2="635.491" y1="502" y2="502"/><polygon fill="#FBFB77" filter="url(#f1)" points="99.9914,246,99.9914,317.2422,300.9914,317.2422,300.9914,256,290.9914,246,99.9914,246" style="stroke: #A80036; stroke-width: 1.0;"/><line style="stroke: #A80036; stroke-width: 1.0;" x1="290.9914" x2="290.9914" y1="246" y2="256"/><line style="stroke: #A80036; stroke-width: 1.0;" x1="300.9914" x2="290.9914" y1="256" y2="256"/><text fill="#000000" font-family="sans-serif" font-size="13" lengthAdjust="spacingAndGlyphs" textLength="142" x="105.9914" y="263.5684">A role can be assigned</text><text fill="#000000" font-family="sans-serif" font-size="13" lengthAdjust="spacingAndGlyphs" textLength="152" x="105.9914" y="278.8789">at the DvObject where it</text><text fill="#000000" font-family="sans-serif" font-size="13" lengthAdjust="spacingAndGlyphs" textLength="142" x="105.9914" y="294.1895">is defined, or at any of</text><text fill="#000000" font-family="sans-serif" font-size="13" lengthAdjust="spacingAndGlyphs" textLength="180" x="105.9914" y="309.5">that DvObject's descendants</text><rect fill="#FEFECE" filter="url(#f1)" height="86.8652" style="stroke: #A80036; stroke-width: 1.5;" width="137" x="826.991" y="59"/><ellipse cx="855.041" cy="75" fill="#B4A7E5" rx="11" ry="11" style="stroke: #A80036; stroke-width: 1.0;"/><path d="M850.9687,70.7651 L850.9687,68.6069 L858.3481,68.6069 L858.3481,70.7651 L855.8828,70.7651 L855.8828,78.8418 L858.3481,78.8418 L858.3481,81 L850.9687,81 L850.9687,78.8418 L853.4341,78.8418 L853.4341,70.7651 Z "/><text fill="#000000" font-family="sans-serif" font-size="12" font-style="italic" lengthAdjust="spacingAndGlyphs" textLength="76" x="871.941" y="79.5352">RoleAssignee</text><line style="stroke: #A80036; stroke-width: 1.5;" x1="827.991" x2="962.991" y1="91" y2="91"/><ellipse cx="837.991" cy="102.9775" fill="none" rx="3" ry="3" style="stroke: #038048; stroke-width: 1.0;"/><text fill="#000000" font-family="sans-serif" font-size="11" lengthAdjust="spacingAndGlyphs" textLength="83" x="846.991" y="105.6348">identifier:String</text><ellipse cx="837.991" cy="115.9326" fill="none" rx="3" ry="3" style="stroke: #038048; stroke-width: 1.0;"/><text fill="#000000" font-family="sans-serif" font-size="11" lengthAdjust="spacingAndGlyphs" textLength="111" x="846.991" y="118.5898">showInLists: Boolean</text><line style="stroke: #A80036; stroke-width: 1.5;" x1="827.991" x2="962.991" y1="124.9102" y2="124.9102"/><ellipse cx="837.991" cy="136.8877" fill="#84BE84" rx="3" ry="3" style="stroke: #038048; stroke-width: 1.0;"/><text fill="#000000" font-family="sans-serif" font-size="11" lengthAdjust="spacingAndGlyphs" textLength="97" x="846.991" y="139.5449">displayInfo() : TBD</text><rect fill="#FEFECE" filter="url(#f1)" height="48" style="stroke: #A80036; stroke-width: 1.5;" width="58" x="798.491" y="257.5"/><ellipse cx="813.491" cy="273.5" fill="#B4A7E5" rx="11" ry="11" style="stroke: #A80036; stroke-width: 1.0;"/><path d="M809.4187,269.2651 L809.4187,267.1069 L816.7981,267.1069 L816.7981,269.2651 L814.3328,269.2651 L814.3328,277.3418 L816.7981,277.3418 L816.7981,279.5 L809.4187,279.5 L809.4187,277.3418 L811.8841,277.3418 L811.8841,269.2651 Z "/><text fill="#000000" font-family="sans-serif" font-size="12" font-style="italic" lengthAdjust="spacingAndGlyphs" textLength="26" x="827.491" y="278.0352">User</text><line style="stroke: #A80036; stroke-width: 1.5;" x1="799.491" x2="855.491" y1="289.5" y2="289.5"/><line style="stroke: #A80036; stroke-width: 1.5;" x1="799.491" x2="855.491" y1="297.5" y2="297.5"/><rect fill="#FEFECE" filter="url(#f1)" height="48" style="stroke: #A80036; stroke-width: 1.5;" width="165" x="872.991" y="462"/><ellipse cx="887.991" cy="478" fill="#ADD1B2" rx="11" ry="11" style="stroke: #A80036; stroke-width: 1.0;"/><path d="M890.9641,483.6431 Q890.3831,483.9419 889.7439,484.0913 Q889.1048,484.2407 888.3992,484.2407 Q885.8924,484.2407 884.5725,482.5889 Q883.2527,480.937 883.2527,477.8159 Q883.2527,474.6865 884.5725,473.0347 Q885.8924,471.3828 888.3992,471.3828 Q889.1048,471.3828 889.7522,471.5322 Q890.3997,471.6816 890.9641,471.9805 L890.9641,474.7031 Q890.3333,474.1221 889.7398,473.8523 Q889.1463,473.5825 888.5154,473.5825 Q887.1707,473.5825 886.4859,474.6492 Q885.8011,475.7158 885.8011,477.8159 Q885.8011,479.9077 886.4859,480.9744 Q887.1707,482.041 888.5154,482.041 Q889.1463,482.041 889.7398,481.7712 Q890.3333,481.5015 890.9641,480.9204 Z "/><text fill="#000000" font-family="sans-serif" font-size="12" lengthAdjust="spacingAndGlyphs" textLength="105" x="901.991" y="482.5352">AuthenticatedUser</text><rect fill="#FFFFFF" height="16.1328" style="stroke: #000000; stroke-width: 1.0; stroke-dasharray: 2.0,2.0;" width="26" x="1014.991" y="459"/><text fill="#000000" font-family="sans-serif" font-size="12" font-style="italic" lengthAdjust="spacingAndGlyphs" textLength="16" x="1019.991" y="471.6016">DB</text><line style="stroke: #A80036; stroke-width: 1.5;" x1="873.991" x2="1036.991" y1="494" y2="494"/><line style="stroke: #A80036; stroke-width: 1.5;" x1="873.991" x2="1036.991" y1="502" y2="502"/><rect fill="#FEFECE" filter="url(#f1)" height="60.9551" style="stroke: #A80036; stroke-width: 1.5;" width="100" x="1439.49" y="455.5"/><ellipse cx="1463.94" cy="471.5" fill="#ADD1B2" rx="11" ry="11" style="stroke: #A80036; stroke-width: 1.0;"/><path d="M1466.9131,477.1431 Q1466.3321,477.4419 1465.6929,477.5913 Q1465.0538,477.7407 1464.3482,477.7407 Q1461.8414,477.7407 1460.5215,476.0889 Q1459.2017,474.437 1459.2017,471.3159 Q1459.2017,468.1865 1460.5215,466.5347 Q1461.8414,464.8828 1464.3482,464.8828 Q1465.0538,464.8828 1465.7012,465.0322 Q1466.3487,465.1816 1466.9131,465.4805 L1466.9131,468.2031 Q1466.2823,467.6221 1465.6888,467.3523 Q1465.0953,467.0825 1464.4644,467.0825 Q1463.1197,467.0825 1462.4349,468.1492 Q1461.7501,469.2158 1461.7501,471.3159 Q1461.7501,473.4077 1462.4349,474.4744 Q1463.1197,475.541 1464.4644,475.541 Q1465.0953,475.541 1465.6888,475.2712 Q1466.2823,475.0015 1466.9131,474.4204 Z "/><text fill="#000000" font-family="sans-serif" font-size="12" lengthAdjust="spacingAndGlyphs" textLength="47" x="1480.04" y="476.0352">IpGroup</text><line style="stroke: #A80036; stroke-width: 1.5;" x1="1440.49" x2="1538.49" y1="487.5" y2="487.5"/><text fill="#000000" font-family="sans-serif" font-size="11" lengthAdjust="spacingAndGlyphs" textLength="88" x="1445.49" y="502.1348">range: IpRange[]</text><line style="stroke: #A80036; stroke-width: 1.5;" x1="1440.49" x2="1538.49" y1="508.4551" y2="508.4551"/><rect fill="#FEFECE" filter="url(#f1)" height="73.9102" style="stroke: #A80036; stroke-width: 1.5;" width="177" x="692.991" y="632.5"/><ellipse cx="707.991" cy="648.5" fill="#ADD1B2" rx="11" ry="11" style="stroke: #A80036; stroke-width: 1.0;"/><path d="M710.9641,654.1431 Q710.3831,654.4419 709.7439,654.5913 Q709.1048,654.7407 708.3992,654.7407 Q705.8924,654.7407 704.5725,653.0889 Q703.2527,651.437 703.2527,648.3159 Q703.2527,645.1865 704.5725,643.5347 Q705.8924,641.8828 708.3992,641.8828 Q709.1048,641.8828 709.7522,642.0322 Q710.3997,642.1816 710.9641,642.4805 L710.9641,645.2031 Q710.3333,644.6221 709.7398,644.3523 Q709.1463,644.0825 708.5154,644.0825 Q707.1707,644.0825 706.4859,645.1492 Q705.8011,646.2158 705.8011,648.3159 Q705.8011,650.4077 706.4859,651.4744 Q707.1707,652.541 708.5154,652.541 Q709.1463,652.541 709.7398,652.2712 Q710.3333,652.0015 710.9641,651.4204 Z "/><text fill="#000000" font-family="sans-serif" font-size="12" lengthAdjust="spacingAndGlyphs" textLength="117" x="721.991" y="653.0352">RoleAssigneeRecord</text><rect fill="#FFFFFF" height="16.1328" style="stroke: #000000; stroke-width: 1.0; stroke-dasharray: 2.0,2.0;" width="26" x="846.991" y="629.5"/><text fill="#000000" font-family="sans-serif" font-size="12" font-style="italic" lengthAdjust="spacingAndGlyphs" textLength="16" x="851.991" y="642.1016">DB</text><line style="stroke: #A80036; stroke-width: 1.5;" x1="693.991" x2="868.991" y1="664.5" y2="664.5"/><text fill="#000000" font-family="sans-serif" font-size="11" lengthAdjust="spacingAndGlyphs" textLength="86" x="698.991" y="679.1348">identifier: String</text><text fill="#000000" font-family="sans-serif" font-size="11" lengthAdjust="spacingAndGlyphs" textLength="86" x="698.991" y="692.0898">displayInfo: TBD</text><line style="stroke: #A80036; stroke-width: 1.5;" x1="693.991" x2="868.991" y1="698.4102" y2="698.4102"/><rect fill="#FEFECE" filter="url(#f1)" height="60.9551" style="stroke: #A80036; stroke-width: 1.5;" width="108" x="729.491" y="455.5"/><ellipse cx="752.141" cy="471.5" fill="#ADD1B2" rx="11" ry="11" style="stroke: #A80036; stroke-width: 1.0;"/><path d="M755.1141,477.1431 Q754.5331,477.4419 753.8939,477.5913 Q753.2548,477.7407 752.5492,477.7407 Q750.0424,477.7407 748.7225,476.0889 Q747.4027,474.437 747.4027,471.3159 Q747.4027,468.1865 748.7225,466.5347 Q750.0424,464.8828 752.5492,464.8828 Q753.2548,464.8828 753.9022,465.0322 Q754.5497,465.1816 755.1141,465.4805 L755.1141,468.2031 Q754.4833,467.6221 753.8898,467.3523 Q753.2963,467.0825 752.6654,467.0825 Q751.3207,467.0825 750.6359,468.1492 Q749.9511,469.2158 749.9511,471.3159 Q749.9511,473.4077 750.6359,474.4744 Q751.3207,475.541 752.6654,475.541 Q753.2963,475.541 753.8898,475.2712 Q754.4833,475.0015 755.1141,474.4204 Z "/><text fill="#000000" font-family="sans-serif" font-size="12" lengthAdjust="spacingAndGlyphs" textLength="59" x="767.841" y="476.0352">GuestUser</text><line style="stroke: #A80036; stroke-width: 1.5;" x1="730.491" x2="836.491" y1="487.5" y2="487.5"/><text fill="#000000" font-family="sans-serif" font-size="11" lengthAdjust="spacingAndGlyphs" textLength="96" x="735.491" y="502.1348">showInLists: False</text><line style="stroke: #A80036; stroke-width: 1.5;" x1="730.491" x2="836.491" y1="508.4551" y2="508.4551"/><rect fill="#FEFECE" filter="url(#f1)" height="73.9102" style="stroke: #A80036; stroke-width: 1.5;" width="100" x="1107.49" y="449"/><ellipse cx="1122.49" cy="465" fill="#ADD1B2" rx="11" ry="11" style="stroke: #A80036; stroke-width: 1.0;"/><path d="M1125.4631,470.6431 Q1124.8821,470.9419 1124.2429,471.0913 Q1123.6038,471.2407 1122.8982,471.2407 Q1120.3914,471.2407 1119.0715,469.5889 Q1117.7517,467.937 1117.7517,464.8159 Q1117.7517,461.6865 1119.0715,460.0347 Q1120.3914,458.3828 1122.8982,458.3828 Q1123.6038,458.3828 1124.2512,458.5322 Q1124.8987,458.6816 1125.4631,458.9805 L1125.4631,461.7031 Q1124.8323,461.1221 1124.2388,460.8523 Q1123.6453,460.5825 1123.0144,460.5825 Q1121.6697,460.5825 1120.9849,461.6492 Q1120.3001,462.7158 1120.3001,464.8159 Q1120.3001,466.9077 1120.9849,467.9744 Q1121.6697,469.041 1123.0144,469.041 Q1123.6453,469.041 1124.2388,468.7712 Q1124.8323,468.5015 1125.4631,467.9204 Z "/><text fill="#000000" font-family="sans-serif" font-size="12" lengthAdjust="spacingAndGlyphs" textLength="40" x="1136.49" y="469.5352">ApiKey</text><rect fill="#FFFFFF" height="16.1328" style="stroke: #000000; stroke-width: 1.0; stroke-dasharray: 2.0,2.0;" width="26" x="1184.49" y="446"/><text fill="#000000" font-family="sans-serif" font-size="12" font-style="italic" lengthAdjust="spacingAndGlyphs" textLength="16" x="1189.49" y="458.6016">DB</text><line style="stroke: #A80036; stroke-width: 1.5;" x1="1108.49" x2="1206.49" y1="481" y2="481"/><ellipse cx="1118.49" cy="492.9775" fill="none" rx="3" ry="3" style="stroke: #038048; stroke-width: 1.0;"/><text fill="#000000" font-family="sans-serif" font-size="11" lengthAdjust="spacingAndGlyphs" textLength="53" x="1127.49" y="495.6348">key:String</text><ellipse cx="1118.49" cy="505.9326" fill="none" rx="3" ry="3" style="stroke: #038048; stroke-width: 1.0;"/><text fill="#000000" font-family="sans-serif" font-size="11" lengthAdjust="spacingAndGlyphs" textLength="58" x="1127.49" y="508.5898">title: String</text><line style="stroke: #A80036; stroke-width: 1.5;" x1="1108.49" x2="1206.49" y1="514.9102" y2="514.9102"/><rect fill="#FEFECE" filter="url(#f1)" height="112.7754" style="stroke: #A80036; stroke-width: 1.5;" width="195" x="1548.99" y="225"/><ellipse cx="1610.24" cy="241" fill="#B4A7E5" rx="11" ry="11" style="stroke: #A80036; stroke-width: 1.0;"/><path d="M1606.1677,236.7651 L1606.1677,234.6069 L1613.5471,234.6069 L1613.5471,236.7651 L1611.0818,236.7651 L1611.0818,244.8418 L1613.5471,244.8418 L1613.5471,247 L1606.1677,247 L1606.1677,244.8418 L1608.6331,244.8418 L1608.6331,236.7651 Z "/><text fill="#000000" font-family="sans-serif" font-size="12" font-style="italic" lengthAdjust="spacingAndGlyphs" textLength="36" x="1630.74" y="245.5352">Group</text><rect fill="#FFFFFF" height="16.1328" style="stroke: #000000; stroke-width: 1.0; stroke-dasharray: 2.0,2.0;" width="26" x="1720.99" y="222"/><text fill="#000000" font-family="sans-serif" font-size="12" font-style="italic" lengthAdjust="spacingAndGlyphs" textLength="16" x="1725.99" y="234.6016">DB</text><line style="stroke: #A80036; stroke-width: 1.5;" x1="1549.99" x2="1742.99" y1="257" y2="257"/><ellipse cx="1559.99" cy="268.9775" fill="none" rx="3" ry="3" style="stroke: #038048; stroke-width: 1.0;"/><text fill="#000000" font-family="sans-serif" font-size="11" lengthAdjust="spacingAndGlyphs" textLength="67" x="1568.99" y="271.6348">name: String</text><ellipse cx="1559.99" cy="281.9326" fill="none" rx="3" ry="3" style="stroke: #038048; stroke-width: 1.0;"/><text fill="#000000" font-family="sans-serif" font-size="11" lengthAdjust="spacingAndGlyphs" textLength="102" x="1568.99" y="284.5898">description : String</text><ellipse cx="1559.99" cy="294.8877" fill="none" rx="3" ry="3" style="stroke: #038048; stroke-width: 1.0;"/><text fill="#000000" font-family="sans-serif" font-size="11" lengthAdjust="spacingAndGlyphs" textLength="52" x="1568.99" y="297.5449">data: Blob</text><ellipse cx="1559.99" cy="307.8428" fill="none" rx="3" ry="3" style="stroke: #038048; stroke-width: 1.0;"/><text fill="#000000" font-family="sans-serif" font-size="11" lengthAdjust="spacingAndGlyphs" textLength="169" x="1568.99" y="310.5">provider: RoleAssigneeProvider</text><line style="stroke: #A80036; stroke-width: 1.5;" x1="1549.99" x2="1742.99" y1="316.8203" y2="316.8203"/><ellipse cx="1559.99" cy="328.7979" fill="#84BE84" rx="3" ry="3" style="stroke: #038048; stroke-width: 1.0;"/><text fill="#000000" font-family="sans-serif" font-size="11" lengthAdjust="spacingAndGlyphs" textLength="141" x="1568.99" y="331.4551">contains( a:RoleAssignee )</text><rect fill="#FEFECE" filter="url(#f1)" height="86.8652" style="stroke: #A80036; stroke-width: 1.5;" width="161" x="1242.99" y="442.5"/><ellipse cx="1268.79" cy="458.5" fill="#ADD1B2" rx="11" ry="11" style="stroke: #A80036; stroke-width: 1.0;"/><path d="M1271.7631,464.1431 Q1271.1821,464.4419 1270.5429,464.5913 Q1269.9038,464.7407 1269.1982,464.7407 Q1266.6914,464.7407 1265.3715,463.0889 Q1264.0517,461.437 1264.0517,458.3159 Q1264.0517,455.1865 1265.3715,453.5347 Q1266.6914,451.8828 1269.1982,451.8828 Q1269.9038,451.8828 1270.5512,452.0322 Q1271.1987,452.1816 1271.7631,452.4805 L1271.7631,455.2031 Q1271.1323,454.6221 1270.5388,454.3523 Q1269.9453,454.0825 1269.3144,454.0825 Q1267.9697,454.0825 1267.2849,455.1492 Q1266.6001,456.2158 1266.6001,458.3159 Q1266.6001,460.4077 1267.2849,461.4744 Q1267.9697,462.541 1269.3144,462.541 Q1269.9453,462.541 1270.5388,462.2712 Q1271.1323,462.0015 1271.7631,461.4204 Z "/><text fill="#000000" font-family="sans-serif" font-size="12" lengthAdjust="spacingAndGlyphs" textLength="77" x="1285.19" y="463.0352">ExplicitGroup</text><rect fill="#FFFFFF" height="16.1328" style="stroke: #000000; stroke-width: 1.0; stroke-dasharray: 2.0,2.0;" width="26" x="1380.99" y="439.5"/><text fill="#000000" font-family="sans-serif" font-size="12" font-style="italic" lengthAdjust="spacingAndGlyphs" textLength="16" x="1385.99" y="452.1016">DB</text><line style="stroke: #A80036; stroke-width: 1.5;" x1="1243.99" x2="1402.99" y1="474.5" y2="474.5"/><ellipse cx="1253.99" cy="486.4775" fill="none" rx="3" ry="3" style="stroke: #038048; stroke-width: 1.0;"/><text fill="#000000" font-family="sans-serif" font-size="11" lengthAdjust="spacingAndGlyphs" textLength="102" x="1262.99" y="489.1348">list: RoleAssignee[]</text><line style="stroke: #A80036; stroke-width: 1.5;" x1="1243.99" x2="1402.99" y1="495.4551" y2="495.4551"/><ellipse cx="1253.99" cy="507.4326" fill="#84BE84" rx="3" ry="3" style="stroke: #038048; stroke-width: 1.0;"/><text fill="#000000" font-family="sans-serif" font-size="11" lengthAdjust="spacingAndGlyphs" textLength="115" x="1262.99" y="510.0898">add( a:RoleAssignee )</text><ellipse cx="1253.99" cy="520.3877" fill="#84BE84" rx="3" ry="3" style="stroke: #038048; stroke-width: 1.0;"/><text fill="#000000" font-family="sans-serif" font-size="11" lengthAdjust="spacingAndGlyphs" textLength="135" x="1262.99" y="523.0449">remove( a:RoleAssignee )</text><rect fill="#FEFECE" filter="url(#f1)" height="48" style="stroke: #A80036; stroke-width: 1.5;" width="143" x="1574.99" y="462"/><ellipse cx="1589.99" cy="478" fill="#ADD1B2" rx="11" ry="11" style="stroke: #A80036; stroke-width: 1.0;"/><path d="M1592.9631,483.6431 Q1592.3821,483.9419 1591.7429,484.0913 Q1591.1038,484.2407 1590.3982,484.2407 Q1587.8914,484.2407 1586.5715,482.5889 Q1585.2517,480.937 1585.2517,477.8159 Q1585.2517,474.6865 1586.5715,473.0347 Q1587.8914,471.3828 1590.3982,471.3828 Q1591.1038,471.3828 1591.7512,471.5322 Q1592.3987,471.6816 1592.9631,471.9805 L1592.9631,474.7031 Q1592.3323,474.1221 1591.7388,473.8523 Q1591.1453,473.5825 1590.5144,473.5825 Q1589.1697,473.5825 1588.4849,474.6492 Q1587.8001,475.7158 1587.8001,477.8159 Q1587.8001,479.9077 1588.4849,480.9744 Q1589.1697,482.041 1590.5144,482.041 Q1591.1453,482.041 1591.7388,481.7712 Q1592.3323,481.5015 1592.9631,480.9204 Z "/><text fill="#000000" font-family="sans-serif" font-size="12" lengthAdjust="spacingAndGlyphs" textLength="111" x="1603.99" y="482.5352">AuthenticatedUsers</text><line style="stroke: #A80036; stroke-width: 1.5;" x1="1575.99" x2="1716.99" y1="494" y2="494"/><line style="stroke: #A80036; stroke-width: 1.5;" x1="1575.99" x2="1716.99" y1="502" y2="502"/><rect fill="#FEFECE" filter="url(#f1)" height="48" style="stroke: #A80036; stroke-width: 1.5;" width="78" x="1753.49" y="462"/><ellipse cx="1768.49" cy="478" fill="#ADD1B2" rx="11" ry="11" style="stroke: #A80036; stroke-width: 1.0;"/><path d="M1771.4631,483.6431 Q1770.8821,483.9419 1770.2429,484.0913 Q1769.6038,484.2407 1768.8982,484.2407 Q1766.3914,484.2407 1765.0715,482.5889 Q1763.7517,480.937 1763.7517,477.8159 Q1763.7517,474.6865 1765.0715,473.0347 Q1766.3914,471.3828 1768.8982,471.3828 Q1769.6038,471.3828 1770.2512,471.5322 Q1770.8987,471.6816 1771.4631,471.9805 L1771.4631,474.7031 Q1770.8323,474.1221 1770.2388,473.8523 Q1769.6453,473.5825 1769.0144,473.5825 Q1767.6697,473.5825 1766.9849,474.6492 Q1766.3001,475.7158 1766.3001,477.8159 Q1766.3001,479.9077 1766.9849,480.9744 Q1767.6697,482.041 1769.0144,482.041 Q1769.6453,482.041 1770.2388,481.7712 Q1770.8323,481.5015 1771.4631,480.9204 Z "/><text fill="#000000" font-family="sans-serif" font-size="12" lengthAdjust="spacingAndGlyphs" textLength="46" x="1782.49" y="482.5352">AllUsers</text><line style="stroke: #A80036; stroke-width: 1.5;" x1="1754.49" x2="1830.49" y1="494" y2="494"/><line style="stroke: #A80036; stroke-width: 1.5;" x1="1754.49" x2="1830.49" y1="502" y2="502"/><rect fill="#FEFECE" filter="url(#f1)" height="60.9551" style="stroke: #A80036; stroke-width: 1.5;" width="215" x="1866.99" y="455.5"/><ellipse cx="1940.24" cy="471.5" fill="#ADD1B2" rx="11" ry="11" style="stroke: #A80036; stroke-width: 1.0;"/><path d="M1943.2131,477.1431 Q1942.6321,477.4419 1941.9929,477.5913 Q1941.3538,477.7407 1940.6482,477.7407 Q1938.1414,477.7407 1936.8215,476.0889 Q1935.5017,474.437 1935.5017,471.3159 Q1935.5017,468.1865 1936.8215,466.5347 Q1938.1414,464.8828 1940.6482,464.8828 Q1941.3538,464.8828 1942.0012,465.0322 Q1942.6487,465.1816 1943.2131,465.4805 L1943.2131,468.2031 Q1942.5823,467.6221 1941.9888,467.3523 Q1941.3953,467.0825 1940.7644,467.0825 Q1939.4197,467.0825 1938.7349,468.1492 Q1938.0501,469.2158 1938.0501,471.3159 Q1938.0501,473.4077 1938.7349,474.4744 Q1939.4197,475.541 1940.7644,475.541 Q1941.3953,475.541 1941.9888,475.2712 Q1942.5823,475.0015 1943.2131,474.4204 Z "/><text fill="#000000" font-family="sans-serif" font-size="12" lengthAdjust="spacingAndGlyphs" textLength="60" x="1960.74" y="476.0352">ShibGroup</text><line style="stroke: #A80036; stroke-width: 1.5;" x1="1867.99" x2="2080.99" y1="487.5" y2="487.5"/><text fill="#000000" font-family="sans-serif" font-size="11" lengthAdjust="spacingAndGlyphs" textLength="203" x="1872.99" y="502.1348">headerMatchers: Map&lt;String, Regex&gt;</text><line style="stroke: #A80036; stroke-width: 1.5;" x1="1867.99" x2="2080.99" y1="508.4551" y2="508.4551"/><rect fill="#FEFECE" filter="url(#f1)" height="99.8203" style="stroke: #A80036; stroke-width: 1.5;" width="283" x="2138.99" y="436"/><ellipse cx="2185.74" cy="452" fill="#ADD1B2" rx="11" ry="11" style="stroke: #A80036; stroke-width: 1.0;"/><path d="M2188.7131,457.6431 Q2188.1321,457.9419 2187.4929,458.0913 Q2186.8538,458.2407 2186.1482,458.2407 Q2183.6414,458.2407 2182.3215,456.5889 Q2181.0017,454.937 2181.0017,451.8159 Q2181.0017,448.6865 2182.3215,447.0347 Q2183.6414,445.3828 2186.1482,445.3828 Q2186.8538,445.3828 2187.5012,445.5322 Q2188.1487,445.6816 2188.7131,445.9805 L2188.7131,448.7031 Q2188.0823,448.1221 2187.4888,447.8523 Q2186.8953,447.5825 2186.2644,447.5825 Q2184.9197,447.5825 2184.2349,448.6492 Q2183.5501,449.7158 2183.5501,451.8159 Q2183.5501,453.9077 2184.2349,454.9744 Q2184.9197,456.041 2186.2644,456.041 Q2186.8953,456.041 2187.4888,455.7712 Q2188.0823,455.5015 2188.7131,454.9204 Z "/><text fill="#000000" font-family="sans-serif" font-size="12" lengthAdjust="spacingAndGlyphs" textLength="126" x="2206.24" y="456.5352">RoleAssigneeManager</text><rect fill="#FFFFFF" height="16.1328" style="stroke: #000000; stroke-width: 1.0; stroke-dasharray: 2.0,2.0;" width="53" x="2371.99" y="433"/><text fill="#000000" font-family="sans-serif" font-size="12" font-style="italic" lengthAdjust="spacingAndGlyphs" textLength="51" x="2372.99" y="445.6016">Singleton</text><line style="stroke: #A80036; stroke-width: 1.5;" x1="2139.99" x2="2420.99" y1="468" y2="468"/><text fill="#000000" font-family="sans-serif" font-size="11" lengthAdjust="spacingAndGlyphs" textLength="270" x="2144.99" y="482.6348">assigneeProviders: Collection&lt;AssigneeProvider&gt;</text><line style="stroke: #A80036; stroke-width: 1.5;" x1="2139.99" x2="2420.99" y1="488.9551" y2="488.9551"/><text fill="#000000" font-family="sans-serif" font-size="11" lengthAdjust="spacingAndGlyphs" textLength="205" x="2144.99" y="503.5898">registerProvider( p:AssigneeProvider )</text><text fill="#000000" font-family="sans-serif" font-size="11" lengthAdjust="spacingAndGlyphs" textLength="237" x="2144.99" y="516.5449">getRoleAssignee( idtf:String ) : RoleAssignee</text><text fill="#000000" font-family="sans-serif" font-size="11" lengthAdjust="spacingAndGlyphs" textLength="271" x="2144.99" y="529.5">getRoleAssignee( req:HttpRequest ) : RoleAssignee</text><rect fill="#FEFECE" filter="url(#f1)" height="112.7754" style="stroke: #A80036; stroke-width: 1.5;" width="283" x="2318.99" y="613"/><ellipse cx="2394.24" cy="629" fill="#B4A7E5" rx="11" ry="11" style="stroke: #A80036; stroke-width: 1.0;"/><path d="M2390.1677,624.7651 L2390.1677,622.6069 L2397.5471,622.6069 L2397.5471,624.7651 L2395.0818,624.7651 L2395.0818,632.8418 L2397.5471,632.8418 L2397.5471,635 L2390.1677,635 L2390.1677,632.8418 L2392.6331,632.8418 L2392.6331,624.7651 Z "/><text fill="#000000" font-family="sans-serif" font-size="12" font-style="italic" lengthAdjust="spacingAndGlyphs" textLength="124" x="2414.74" y="633.5352">RoleAssigneeProvider</text><line style="stroke: #A80036; stroke-width: 1.5;" x1="2319.99" x2="2600.99" y1="645" y2="645"/><ellipse cx="2329.99" cy="656.9775" fill="none" rx="3" ry="3" style="stroke: #038048; stroke-width: 1.0;"/><text fill="#000000" font-family="sans-serif" font-size="11" lengthAdjust="spacingAndGlyphs" textLength="168" x="2338.99" y="659.6348">info : RoleAssigneeProviderInfo</text><line style="stroke: #A80036; stroke-width: 1.5;" x1="2319.99" x2="2600.99" y1="665.9551" y2="665.9551"/><text fill="#000000" font-family="sans-serif" font-size="11" lengthAdjust="spacingAndGlyphs" textLength="120" x="2324.99" y="680.5898">isQueryable(): Boolean</text><text fill="#000000" font-family="sans-serif" font-size="11" lengthAdjust="spacingAndGlyphs" textLength="258" x="2324.99" y="693.5449">acceptsRoleAssigneeIdentifier( idtf:String ): bool</text><text fill="#000000" font-family="sans-serif" font-size="11" lengthAdjust="spacingAndGlyphs" textLength="237" x="2324.99" y="706.5">getRoleAssignee( idtf:String ) : RoleAssignee</text><text fill="#000000" font-family="sans-serif" font-size="11" lengthAdjust="spacingAndGlyphs" textLength="271" x="2324.99" y="719.4551">getRoleAssignee( req:HttpRequest ) : RoleAssignee</text><rect fill="#FEFECE" filter="url(#f1)" height="60.9551" style="stroke: #A80036; stroke-width: 1.5;" width="136" x="2337.49" y="793.5"/><ellipse cx="2363.74" cy="809.5" fill="#B4A7E5" rx="11" ry="11" style="stroke: #A80036; stroke-width: 1.0;"/><path d="M2359.6677,805.2651 L2359.6677,803.1069 L2367.0471,803.1069 L2367.0471,805.2651 L2364.5818,805.2651 L2364.5818,813.3418 L2367.0471,813.3418 L2367.0471,815.5 L2359.6677,815.5 L2359.6677,813.3418 L2362.1331,813.3418 L2362.1331,805.2651 Z "/><text fill="#000000" font-family="sans-serif" font-size="12" font-style="italic" lengthAdjust="spacingAndGlyphs" textLength="79" x="2380.24" y="814.0352">GroupCreator</text><line style="stroke: #A80036; stroke-width: 1.5;" x1="2338.49" x2="2472.49" y1="825.5" y2="825.5"/><ellipse cx="2348.49" cy="837.4775" fill="none" rx="3" ry="3" style="stroke: #038048; stroke-width: 1.0;"/><text fill="#000000" font-family="sans-serif" font-size="11" lengthAdjust="spacingAndGlyphs" textLength="110" x="2357.49" y="840.1348">createGroup : Group</text><line style="stroke: #A80036; stroke-width: 1.5;" x1="2338.49" x2="2472.49" y1="846.4551" y2="846.4551"/><rect fill="#FEFECE" filter="url(#f1)" height="73.9102" style="stroke: #A80036; stroke-width: 1.5;" width="226" x="2508.49" y="787"/><ellipse cx="2588.74" cy="803" fill="#B4A7E5" rx="11" ry="11" style="stroke: #A80036; stroke-width: 1.0;"/><path d="M2584.6677,798.7651 L2584.6677,796.6069 L2592.0471,796.6069 L2592.0471,798.7651 L2589.5818,798.7651 L2589.5818,806.8418 L2592.0471,806.8418 L2592.0471,809 L2584.6677,809 L2584.6677,806.8418 L2587.1331,806.8418 L2587.1331,798.7651 Z "/><text fill="#000000" font-family="sans-serif" font-size="12" font-style="italic" lengthAdjust="spacingAndGlyphs" textLength="57" x="2609.24" y="807.5352">UserLister</text><line style="stroke: #A80036; stroke-width: 1.5;" x1="2509.49" x2="2733.49" y1="819" y2="819"/><line style="stroke: #A80036; stroke-width: 1.5;" x1="2509.49" x2="2733.49" y1="827" y2="827"/><ellipse cx="2519.49" cy="838.9775" fill="#84BE84" rx="3" ry="3" style="stroke: #038048; stroke-width: 1.0;"/><text fill="#000000" font-family="sans-serif" font-size="11" lengthAdjust="spacingAndGlyphs" textLength="126" x="2528.49" y="841.6348">listUsers() : List&lt;User&gt;</text><ellipse cx="2519.49" cy="851.9326" fill="#84BE84" rx="3" ry="3" style="stroke: #038048; stroke-width: 1.0;"/><text fill="#000000" font-family="sans-serif" font-size="11" lengthAdjust="spacingAndGlyphs" textLength="200" x="2528.49" y="854.5898">findUsers( queryString ) : List&lt;User&gt;</text><rect fill="#FEFECE" filter="url(#f1)" height="99.8203" style="stroke: #A80036; stroke-width: 1.5;" width="177" x="2671.99" y="619.5"/><ellipse cx="2686.99" cy="635.5" fill="#ADD1B2" rx="11" ry="11" style="stroke: #A80036; stroke-width: 1.0;"/><path d="M2689.9631,641.1431 Q2689.3821,641.4419 2688.7429,641.5913 Q2688.1038,641.7407 2687.3982,641.7407 Q2684.8914,641.7407 2683.5715,640.0889 Q2682.2517,638.437 2682.2517,635.3159 Q2682.2517,632.1865 2683.5715,630.5347 Q2684.8914,628.8828 2687.3982,628.8828 Q2688.1038,628.8828 2688.7512,629.0322 Q2689.3987,629.1816 2689.9631,629.4805 L2689.9631,632.2031 Q2689.3323,631.6221 2688.7388,631.3523 Q2688.1453,631.0825 2687.5144,631.0825 Q2686.1697,631.0825 2685.4849,632.1492 Q2684.8001,633.2158 2684.8001,635.3159 Q2684.8001,637.4077 2685.4849,638.4744 Q2686.1697,639.541 2687.5144,639.541 Q2688.1453,639.541 2688.7388,639.2712 Q2689.3323,639.0015 2689.9631,638.4204 Z "/><text fill="#000000" font-family="sans-serif" font-size="12" lengthAdjust="spacingAndGlyphs" textLength="145" x="2700.99" y="640.0352">RoleAssigneeProviderInfo</text><line style="stroke: #A80036; stroke-width: 1.5;" x1="2672.99" x2="2847.99" y1="651.5" y2="651.5"/><ellipse cx="2682.99" cy="663.4775" fill="none" rx="3" ry="3" style="stroke: #038048; stroke-width: 1.0;"/><text fill="#000000" font-family="sans-serif" font-size="11" lengthAdjust="spacingAndGlyphs" textLength="29" x="2691.99" y="666.1348">name</text><ellipse cx="2682.99" cy="676.4326" fill="none" rx="3" ry="3" style="stroke: #038048; stroke-width: 1.0;"/><text fill="#000000" font-family="sans-serif" font-size="11" lengthAdjust="spacingAndGlyphs" textLength="61" x="2691.99" y="679.0898">description</text><ellipse cx="2682.99" cy="689.3877" fill="none" rx="3" ry="3" style="stroke: #038048; stroke-width: 1.0;"/><text fill="#000000" font-family="sans-serif" font-size="11" lengthAdjust="spacingAndGlyphs" textLength="28" x="2691.99" y="692.0449">icon?</text><ellipse cx="2682.99" cy="702.3428" fill="none" rx="3" ry="3" style="stroke: #038048; stroke-width: 1.0;"/><text fill="#000000" font-family="sans-serif" font-size="11" lengthAdjust="spacingAndGlyphs" textLength="9" x="2691.99" y="705">...</text><line style="stroke: #A80036; stroke-width: 1.5;" x1="2672.99" x2="2847.99" y1="711.3203" y2="711.3203"/><rect fill="#FEFECE" filter="url(#f1)" height="48" style="stroke: #A80036; stroke-width: 1.5;" width="186" x="2554.49" y="922"/><ellipse cx="2569.49" cy="938" fill="#ADD1B2" rx="11" ry="11" style="stroke: #A80036; stroke-width: 1.0;"/><path d="M2572.4631,943.6431 Q2571.8821,943.9419 2571.2429,944.0913 Q2570.6038,944.2407 2569.8982,944.2407 Q2567.3914,944.2407 2566.0715,942.5889 Q2564.7517,940.937 2564.7517,937.8159 Q2564.7517,934.6865 2566.0715,933.0347 Q2567.3914,931.3828 2569.8982,931.3828 Q2570.6038,931.3828 2571.2512,931.5322 Q2571.8987,931.6816 2572.4631,931.9805 L2572.4631,934.7031 Q2571.8323,934.1221 2571.2388,933.8523 Q2570.6453,933.5825 2570.0144,933.5825 Q2568.6697,933.5825 2567.9849,934.6492 Q2567.3001,935.7158 2567.3001,937.8159 Q2567.3001,939.9077 2567.9849,940.9744 Q2568.6697,942.041 2570.0144,942.041 Q2570.6453,942.041 2571.2388,941.7712 Q2571.8323,941.5015 2572.4631,940.9204 Z "/><text fill="#000000" font-family="sans-serif" font-size="12" lengthAdjust="spacingAndGlyphs" textLength="154" x="2583.49" y="942.5352">DatabaseAssigneeProvider</text><line style="stroke: #A80036; stroke-width: 1.5;" x1="2555.49" x2="2739.49" y1="954" y2="954"/><line style="stroke: #A80036; stroke-width: 1.5;" x1="2555.49" x2="2739.49" y1="962" y2="962"/><rect fill="#FEFECE" filter="url(#f1)" height="48" style="stroke: #A80036; stroke-width: 1.5;" width="155" x="2138.99" y="922"/><ellipse cx="2153.99" cy="938" fill="#ADD1B2" rx="11" ry="11" style="stroke: #A80036; stroke-width: 1.0;"/><path d="M2156.9631,943.6431 Q2156.3821,943.9419 2155.7429,944.0913 Q2155.1038,944.2407 2154.3982,944.2407 Q2151.8914,944.2407 2150.5715,942.5889 Q2149.2517,940.937 2149.2517,937.8159 Q2149.2517,934.6865 2150.5715,933.0347 Q2151.8914,931.3828 2154.3982,931.3828 Q2155.1038,931.3828 2155.7512,931.5322 Q2156.3987,931.6816 2156.9631,931.9805 L2156.9631,934.7031 Q2156.3323,934.1221 2155.7388,933.8523 Q2155.1453,933.5825 2154.5144,933.5825 Q2153.1697,933.5825 2152.4849,934.6492 Q2151.8001,935.7158 2151.8001,937.8159 Q2151.8001,939.9077 2152.4849,940.9744 Q2153.1697,942.041 2154.5144,942.041 Q2155.1453,942.041 2155.7388,941.7712 Q2156.3323,941.5015 2156.9631,940.9204 Z "/><text fill="#000000" font-family="sans-serif" font-size="12" lengthAdjust="spacingAndGlyphs" textLength="123" x="2167.99" y="942.5352">ShibAssigneeProvider</text><line style="stroke: #A80036; stroke-width: 1.5;" x1="2139.99" x2="2292.99" y1="954" y2="954"/><line style="stroke: #A80036; stroke-width: 1.5;" x1="2139.99" x2="2292.99" y1="962" y2="962"/><rect fill="#FEFECE" filter="url(#f1)" height="48" style="stroke: #A80036; stroke-width: 1.5;" width="190" x="2329.49" y="922"/><ellipse cx="2344.49" cy="938" fill="#ADD1B2" rx="11" ry="11" style="stroke: #A80036; stroke-width: 1.0;"/><path d="M2347.4631,943.6431 Q2346.8821,943.9419 2346.2429,944.0913 Q2345.6038,944.2407 2344.8982,944.2407 Q2342.3914,944.2407 2341.0715,942.5889 Q2339.7517,940.937 2339.7517,937.8159 Q2339.7517,934.6865 2341.0715,933.0347 Q2342.3914,931.3828 2344.8982,931.3828 Q2345.6038,931.3828 2346.2512,931.5322 Q2346.8987,931.6816 2347.4631,931.9805 L2347.4631,934.7031 Q2346.8323,934.1221 2346.2388,933.8523 Q2345.6453,933.5825 2345.0144,933.5825 Q2343.6697,933.5825 2342.9849,934.6492 Q2342.3001,935.7158 2342.3001,937.8159 Q2342.3001,939.9077 2342.9849,940.9744 Q2343.6697,942.041 2345.0144,942.041 Q2345.6453,942.041 2346.2388,941.7712 Q2346.8323,941.5015 2347.4631,940.9204 Z "/><text fill="#000000" font-family="sans-serif" font-size="12" lengthAdjust="spacingAndGlyphs" textLength="158" x="2358.49" y="942.5352">IpAddressAssigneeProvider</text><line style="stroke: #A80036; stroke-width: 1.5;" x1="2330.49" x2="2518.49" y1="954" y2="954"/><line style="stroke: #A80036; stroke-width: 1.5;" x1="2330.49" x2="2518.49" y1="962" y2="962"/><rect fill="#FEFECE" filter="url(#f1)" height="48" style="stroke: #A80036; stroke-width: 1.5;" width="206" x="2775.49" y="922"/><ellipse cx="2790.49" cy="938" fill="#ADD1B2" rx="11" ry="11" style="stroke: #A80036; stroke-width: 1.0;"/><path d="M2793.4631,943.6431 Q2792.8821,943.9419 2792.2429,944.0913 Q2791.6038,944.2407 2790.8982,944.2407 Q2788.3914,944.2407 2787.0715,942.5889 Q2785.7517,940.937 2785.7517,937.8159 Q2785.7517,934.6865 2787.0715,933.0347 Q2788.3914,931.3828 2790.8982,931.3828 Q2791.6038,931.3828 2792.2512,931.5322 Q2792.8987,931.6816 2793.4631,931.9805 L2793.4631,934.7031 Q2792.8323,934.1221 2792.2388,933.8523 Q2791.6453,933.5825 2791.0144,933.5825 Q2789.6697,933.5825 2788.9849,934.6492 Q2788.3001,935.7158 2788.3001,937.8159 Q2788.3001,939.9077 2788.9849,940.9744 Q2789.6697,942.041 2791.0144,942.041 Q2791.6453,942.041 2792.2388,941.7712 Q2792.8323,941.5015 2793.4631,940.9204 Z "/><text fill="#000000" font-family="sans-serif" font-size="12" lengthAdjust="spacingAndGlyphs" textLength="128" x="2804.49" y="942.5352">LdapAssigneeProvider</text><rect fill="#FFFFFF" height="16.1328" style="stroke: #000000; stroke-width: 1.0; stroke-dasharray: 2.0,2.0;" width="44" x="2940.49" y="919"/><text fill="#000000" font-family="sans-serif" font-size="12" font-style="italic" lengthAdjust="spacingAndGlyphs" textLength="34" x="2945.49" y="931.6016">future</text><line style="stroke: #A80036; stroke-width: 1.5;" x1="2776.49" x2="2980.49" y1="954" y2="954"/><line style="stroke: #A80036; stroke-width: 1.5;" x1="2776.49" x2="2980.49" y1="962" y2="962"/><rect fill="#FEFECE" filter="url(#f1)" height="48" style="stroke: #A80036; stroke-width: 1.5;" width="212" x="2769.49" y="800"/><ellipse cx="2784.49" cy="816" fill="#ADD1B2" rx="11" ry="11" style="stroke: #A80036; stroke-width: 1.0;"/><path d="M2787.4631,821.6431 Q2786.8821,821.9419 2786.2429,822.0913 Q2785.6038,822.2407 2784.8982,822.2407 Q2782.3914,822.2407 2781.0715,820.5889 Q2779.7517,818.937 2779.7517,815.8159 Q2779.7517,812.6865 2781.0715,811.0347 Q2782.3914,809.3828 2784.8982,809.3828 Q2785.6038,809.3828 2786.2512,809.5322 Q2786.8987,809.6816 2787.4631,809.9805 L2787.4631,812.7031 Q2786.8323,812.1221 2786.2388,811.8523 Q2785.6453,811.5825 2785.0144,811.5825 Q2783.6697,811.5825 2782.9849,812.6492 Q2782.3001,813.7158 2782.3001,815.8159 Q2782.3001,817.9077 2782.9849,818.9744 Q2783.6697,820.041 2785.0144,820.041 Q2785.6453,820.041 2786.2388,819.7712 Q2786.8323,819.5015 2787.4631,818.9204 Z "/><text fill="#000000" font-family="sans-serif" font-size="12" lengthAdjust="spacingAndGlyphs" textLength="134" x="2798.49" y="820.5352">OAuthAssigneeProvider</text><rect fill="#FFFFFF" height="16.1328" style="stroke: #000000; stroke-width: 1.0; stroke-dasharray: 2.0,2.0;" width="44" x="2940.49" y="797"/><text fill="#000000" font-family="sans-serif" font-size="12" font-style="italic" lengthAdjust="spacingAndGlyphs" textLength="34" x="2945.49" y="809.6016">future</text><line style="stroke: #A80036; stroke-width: 1.5;" x1="2770.49" x2="2980.49" y1="832" y2="832"/><line style="stroke: #A80036; stroke-width: 1.5;" x1="2770.49" x2="2980.49" y1="840" y2="840"/><rect fill="#FEFECE" filter="url(#f1)" height="86.8652" style="stroke: #A80036; stroke-width: 1.5;" width="154" x="332.491" y="59"/><ellipse cx="351.091" cy="75" fill="#ADD1B2" rx="11" ry="11" style="stroke: #A80036; stroke-width: 1.0;"/><path d="M354.0641,80.6431 Q353.4831,80.9419 352.8439,81.0913 Q352.2048,81.2407 351.4992,81.2407 Q348.9924,81.2407 347.6725,79.5889 Q346.3527,77.937 346.3527,74.8159 Q346.3527,71.6865 347.6725,70.0347 Q348.9924,68.3828 351.4992,68.3828 Q352.2048,68.3828 352.8522,68.5322 Q353.4997,68.6816 354.0641,68.9805 L354.0641,71.7031 Q353.4333,71.1221 352.8398,70.8523 Q352.2463,70.5825 351.6154,70.5825 Q350.2707,70.5825 349.5859,71.6492 Q348.9011,72.7158 348.9011,74.8159 Q348.9011,76.9077 349.5859,77.9744 Q350.2707,79.041 351.6154,79.041 Q352.2463,79.041 352.8398,78.7712 Q353.4333,78.5015 354.0641,77.9204 Z "/><text fill="#000000" font-family="sans-serif" font-size="12" lengthAdjust="spacingAndGlyphs" textLength="86" x="365.891" y="79.5352">AccessRequest</text><rect fill="#FFFFFF" height="16.1328" style="stroke: #000000; stroke-width: 1.0; stroke-dasharray: 2.0,2.0;" width="26" x="463.491" y="56"/><text fill="#000000" font-family="sans-serif" font-size="12" font-style="italic" lengthAdjust="spacingAndGlyphs" textLength="16" x="468.491" y="68.6016">DB</text><line style="stroke: #A80036; stroke-width: 1.5;" x1="333.491" x2="485.491" y1="91" y2="91"/><text fill="#000000" font-family="sans-serif" font-size="11" lengthAdjust="spacingAndGlyphs" textLength="142" x="338.491" y="105.6348">from: RoleAssigneeRecord</text><text fill="#000000" font-family="sans-serif" font-size="11" lengthAdjust="spacingAndGlyphs" textLength="75" x="338.491" y="118.5898">dvo: DvObject</text><text fill="#000000" font-family="sans-serif" font-size="11" lengthAdjust="spacingAndGlyphs" textLength="79" x="338.491" y="131.5449">metadata : TBD</text><line style="stroke: #A80036; stroke-width: 1.5;" x1="333.491" x2="485.491" y1="137.8652" y2="137.8652"/><rect fill="#FEFECE" filter="url(#f1)" height="73.9102" style="stroke: #A80036; stroke-width: 1.5;" width="111" x="521.991" y="65.5"/><ellipse cx="545.991" cy="81.5" fill="#B4A7E5" rx="11" ry="11" style="stroke: #A80036; stroke-width: 1.0;"/><path d="M541.9187,77.2651 L541.9187,75.1069 L549.2981,75.1069 L549.2981,77.2651 L546.8328,77.2651 L546.8328,85.3418 L549.2981,85.3418 L549.2981,87.5 L541.9187,87.5 L541.9187,85.3418 L544.3841,85.3418 L544.3841,77.2651 Z "/><text fill="#000000" font-family="sans-serif" font-size="12" font-style="italic" lengthAdjust="spacingAndGlyphs" textLength="59" x="561.991" y="86.0352">Command</text><line style="stroke: #A80036; stroke-width: 1.5;" x1="522.991" x2="631.991" y1="97.5" y2="97.5"/><text fill="#000000" font-family="sans-serif" font-size="11" lengthAdjust="spacingAndGlyphs" textLength="78" x="527.991" y="112.1348">issuedBy: User</text><text fill="#000000" font-family="sans-serif" font-size="11" lengthAdjust="spacingAndGlyphs" textLength="99" x="527.991" y="125.0898">effects: DvObject[]</text><line style="stroke: #A80036; stroke-width: 1.5;" x1="522.991" x2="631.991" y1="131.4102" y2="131.4102"/><path d="M871.762,165.266 C859.583,196.966 845.465,233.716 836.508,257.03 " fill="none" style="stroke: #A80036; stroke-width: 1.0;"/><polygon fill="none" points="865.324,162.506,879.031,146.347,878.392,167.527,865.324,162.506" style="stroke: #A80036; stroke-width: 1.0;"/><path d="M983.996,124.359 C1125.49,157.707 1401.63,222.789 1548.75,257.463 " fill="none" style="stroke: #A80036; stroke-width: 1.0;"/><polygon fill="none" points="981.989,131.078,964.129,119.677,985.201,117.452,981.989,131.078" style="stroke: #A80036; stroke-width: 1.0;"/><path d="M853.001,322.857 C879.29,364.447 919.365,427.848 940.783,461.731 " fill="none" style="stroke: #A80036; stroke-width: 1.0;"/><polygon fill="none" points="846.944,326.375,842.175,305.729,858.778,318.895,846.944,326.375" style="stroke: #A80036; stroke-width: 1.0;"/><path d="M818.185,325.33 C809.713,364.321 797.423,420.881 789.973,455.171 " fill="none" style="stroke: #A80036; stroke-width: 1.0;"/><polygon fill="none" points="811.357,323.787,822.444,305.729,825.038,326.76,811.357,323.787" style="stroke: #A80036; stroke-width: 1.0;"/><path d="M1530.26,331.469 C1494.13,348.794 1455.02,369.809 1421.49,393 C1400.96,407.205 1380.47,425.608 1363.57,442.218 " fill="none" style="stroke: #A80036; stroke-width: 1.0;"/><polygon fill="none" points="1527.75,324.913,1548.83,322.753,1533.7,337.587,1527.75,324.913" style="stroke: #A80036; stroke-width: 1.0;"/><path d="M1646.49,358.235 C1646.49,395.104 1646.49,436.8 1646.49,461.982 " fill="none" style="stroke: #A80036; stroke-width: 1.0;"/><polygon fill="none" points="1639.49,358.102,1646.49,338.102,1653.49,358.102,1639.49,358.102" style="stroke: #A80036; stroke-width: 1.0;"/><path d="M1706.21,354.036 C1716.26,366.804 1726.38,380.139 1735.49,393 C1751.57,415.691 1768.11,442.895 1779.2,461.809 " fill="none" style="stroke: #A80036; stroke-width: 1.0;"/><polygon fill="none" points="1700.61,358.239,1693.6,338.243,1711.55,349.502,1700.61,358.239" style="stroke: #A80036; stroke-width: 1.0;"/><path d="M1761.69,342.154 C1790.47,357.967 1820.96,375.525 1848.49,393 C1879.13,412.452 1912.22,436.747 1936.8,455.485 " fill="none" style="stroke: #A80036; stroke-width: 1.0;"/><polygon fill="none" points="1758.26,348.257,1744.04,332.55,1764.96,335.959,1758.26,348.257" style="stroke: #A80036; stroke-width: 1.0;"/><path d="M1588.15,354.055 C1577.84,366.946 1567.28,380.317 1557.49,393 C1541.59,413.598 1524.16,437.206 1510.93,455.35 " fill="none" style="stroke: #A80036; stroke-width: 1.0;"/><polygon fill="none" points="1583,349.278,1600.99,338.072,1593.92,358.047,1583,349.278" style="stroke: #A80036; stroke-width: 1.0;"/><path d="M756.268,632.487 C739.94,606.887 720.162,570.974 711.491,536 C696.198,474.312 700.478,455.594 711.491,393 C727.06,304.519 729.546,276.999 780.491,203 C794.132,183.188 812.629,164.875 830.798,149.503 " fill="none" style="stroke: #A80036; stroke-width: 1.0; stroke-dasharray: 7.0,7.0;"/><polygon fill="#A80036" points="834.913,146.067,825.441,148.7655,831.0752,149.2719,830.5688,154.906,834.913,146.067" style="stroke: #A80036; stroke-width: 1.0;"/><text fill="#000000" font-family="sans-serif" font-size="13" lengthAdjust="spacingAndGlyphs" textLength="48" x="717.491" y="381.5684">Locates</text><path d="M1051.53,486 C1070.09,486 1088.66,486 1107.23,486 " fill="none" style="stroke: #A80036; stroke-width: 1.0;"/><polygon fill="#A80036" points="1038.34,486,1044.34,490,1050.34,486,1044.34,482,1038.34,486" style="stroke: #A80036; stroke-width: 1.0;"/><text fill="#000000" font-family="sans-serif" font-size="13" lengthAdjust="spacingAndGlyphs" textLength="8" x="1046.075" y="482.9142">1</text><text fill="#000000" font-family="sans-serif" font-size="13" lengthAdjust="spacingAndGlyphs" textLength="22" x="1077.3811" y="482.6331">0..*</text><path d="M421.118,281.5 C449.115,281.5 486.201,281.5 517.446,281.5 " fill="none" style="stroke: #A80036; stroke-width: 1.0;"/><polygon fill="#A80036" points="522.808,281.5,513.808,277.5,517.808,281.5,513.808,285.5,522.808,281.5" style="stroke: #A80036; stroke-width: 1.0;"/><text fill="#000000" font-family="sans-serif" font-size="13" lengthAdjust="spacingAndGlyphs" textLength="65" x="439.491" y="275.0684">Defined at</text><path d="M556.151,309.98 C522.05,350.127 459.205,424.117 427.256,461.731 " fill="none" style="stroke: #A80036; stroke-width: 1.0;"/><polygon fill="#A80036" points="559.761,305.729,550.8861,309.9993,556.5243,309.54,556.9836,315.1781,559.761,305.729" style="stroke: #A80036; stroke-width: 1.0;"/><text fill="#000000" font-family="sans-serif" font-size="13" lengthAdjust="spacingAndGlyphs" textLength="14" x="505.491" y="381.5684">At</text><text fill="#000000" font-family="sans-serif" font-size="13" lengthAdjust="spacingAndGlyphs" textLength="8" x="545.9768" y="326.0692">1</text><path d="M382.567,310.962 C388.348,351.323 398.816,424.421 404.159,461.731 " fill="none" style="stroke: #A80036; stroke-width: 1.0;"/><polygon fill="#A80036" points="381.818,305.729,379.1341,315.2051,382.5267,310.6785,387.0533,314.0712,381.818,305.729" style="stroke: #A80036; stroke-width: 1.0;"/><text fill="#000000" font-family="sans-serif" font-size="13" lengthAdjust="spacingAndGlyphs" textLength="50" x="394.491" y="381.5684">Assigns</text><text fill="#000000" font-family="sans-serif" font-size="13" lengthAdjust="spacingAndGlyphs" textLength="8" x="373.654" y="326.0692">1</text><path d="M450.347,510.087 C466.043,518.409 483.998,527.771 500.491,536 C566.33,568.847 641.792,604.311 697.926,630.276 " fill="none" style="stroke: #A80036; stroke-width: 1.0;"/><polygon fill="#A80036" points="702.614,632.443,696.1238,625.0351,698.0757,630.3445,692.7662,632.2964,702.614,632.443" style="stroke: #A80036; stroke-width: 1.0;"/><text fill="#000000" font-family="sans-serif" font-size="13" lengthAdjust="spacingAndGlyphs" textLength="16" x="594.491" y="579.5684">To</text><text fill="#000000" font-family="sans-serif" font-size="13" lengthAdjust="spacingAndGlyphs" textLength="8" x="679.3336" y="621.8331">1</text><path d="M1277.89,442.142 C1261.19,426.568 1242.07,408.895 1224.49,393 C1128.08,305.815 1013.82,206.061 948.478,149.345 " fill="none" style="stroke: #A80036; stroke-width: 1.0; stroke-dasharray: 7.0,7.0;"/><polygon fill="#A80036" points="944.632,146.007,948.8069,154.9272,948.408,149.2844,954.0508,148.8855,944.632,146.007" style="stroke: #A80036; stroke-width: 1.0;"/><text fill="#000000" font-family="sans-serif" font-size="13" lengthAdjust="spacingAndGlyphs" textLength="56" x="1161.49" y="286.5684">Contains</text><path d="M1230.79,533.459 C1228.68,534.33 1226.58,535.179 1224.49,536 C1110.11,581.039 974.057,619.606 883.186,643.328 " fill="none" style="stroke: #A80036; stroke-width: 1.0;"/><polygon fill="#A80036" points="870.393,646.648,880.109,648.2601,875.2328,645.3926,878.1004,640.5164,870.393,646.648" style="stroke: #A80036; stroke-width: 1.0;"/><line style="stroke: #A80036; stroke-width: 1.0;" x1="875.2328" x2="882.9765" y1="645.3926" y2="643.3825"/><polygon fill="none" points="1242.95,528.247,1235.8588,526.9375,1231.9226,532.9796,1239.0139,534.2891,1242.95,528.247" style="stroke: #A80036; stroke-width: 1.0;"/><path d="M1287.43,432.188 C1267.14,406.851 1239.37,379.231 1206.99,365.5 C1154.52,343.243 746.467,343.243 693.991,365.5 C653.314,382.753 619.905,421.932 599.453,450.958 " fill="none" style="stroke: #A80036; stroke-width: 1.0;"/><polygon fill="#A80036" points="592.007,461.905,598.689,459.1937,598.7562,451.9829,592.0743,454.6942,592.007,461.905" style="stroke: #A80036; stroke-width: 1.0;"/><polygon fill="#A80036" points="1295.39,442.488,1293.0518,432.9207,1292.3326,438.5317,1286.7217,437.8125,1295.39,442.488" style="stroke: #A80036; stroke-width: 1.0;"/><line style="stroke: #A80036; stroke-width: 1.0;" x1="1292.3326" x2="1287.44" y1="438.5317" y2="432.2"/><text fill="#000000" font-family="sans-serif" font-size="13" lengthAdjust="spacingAndGlyphs" textLength="22" x="1266.9141" y="431.6444">0..*</text><text fill="#000000" font-family="sans-serif" font-size="13" lengthAdjust="spacingAndGlyphs" textLength="8" x="586.7017" y="451.4169">1</text><path d="M579.062,325.98 C578.651,367.564 578.048,428.685 577.721,461.731 " fill="none" style="stroke: #A80036; stroke-width: 1.0;"/><polygon fill="none" points="572.065,325.659,579.262,305.729,586.064,325.798,572.065,325.659" style="stroke: #A80036; stroke-width: 1.0;"/><path d="M2338.52,545.515 C2356.87,564.016 2377.26,584.573 2396.03,603.5 " fill="none" style="stroke: #A80036; stroke-width: 1.0;"/><polygon fill="#A80036" points="2405.39,612.936,2401.8916,603.7294,2401.8688,609.3862,2396.212,609.3633,2405.39,612.936" style="stroke: #A80036; stroke-width: 1.0;"/><line style="stroke: #A80036; stroke-width: 1.0;" x1="2401.8688" x2="2396.23" y1="609.3862" y2="603.706"/><polygon fill="#A80036" points="2329.2,536.117,2330.5856,543.1937,2337.6509,544.6365,2336.2653,537.5598,2329.2,536.117" style="stroke: #A80036; stroke-width: 1.0;"/><text fill="#000000" font-family="sans-serif" font-size="13" lengthAdjust="spacingAndGlyphs" textLength="22" x="2374.9209" y="602.3304">1..*</text><path d="M2621.28,729.584 C2688.19,754.174 2761.95,781.276 2812.7,799.926 " fill="none" style="stroke: #A80036; stroke-width: 1.0; stroke-dasharray: 7.0,7.0;"/><polygon fill="none" points="2618.51,736.024,2602.15,722.555,2623.34,722.883,2618.51,736.024" style="stroke: #A80036; stroke-width: 1.0;"/><path d="M2534.18,740.296 C2551.05,756.279 2568.33,772.642 2583.01,786.551 " fill="none" style="stroke: #A80036; stroke-width: 1.0;"/><polygon fill="none" points="2529.23,745.255,2519.53,726.419,2538.86,735.091,2529.23,745.255" style="stroke: #A80036; stroke-width: 1.0;"/><path d="M2433.49,745.366 C2427.37,762.34 2421.21,779.406 2416.24,793.198 " fill="none" style="stroke: #A80036; stroke-width: 1.0;"/><polygon fill="none" points="2426.95,742.858,2440.32,726.419,2440.12,747.608,2426.95,742.858" style="stroke: #A80036; stroke-width: 1.0;"/><path d="M2633.6,880.9 C2636.74,895.374 2639.94,910.1684 2642.48,921.8917 " fill="none" style="stroke: #A80036; stroke-width: 1.0;"/><polygon fill="none" points="2626.69,882.033,2629.29,861.004,2640.37,879.068,2626.69,882.033" style="stroke: #A80036; stroke-width: 1.0;"/><path d="M2483.1,863.484 C2521.84,882.693 2567.42,905.2946 2600.75,921.8203 " fill="none" style="stroke: #A80036; stroke-width: 1.0;"/><polygon fill="none" points="2479.81,869.665,2465,854.509,2486.03,857.123,2479.81,869.665" style="stroke: #A80036; stroke-width: 1.0;"/><path d="M2716.9,869.55 C2755,887.338 2797.26,907.0692 2829,921.8917 " fill="none" style="stroke: #A80036; stroke-width: 1.0;"/><polygon fill="none" points="2713.76,875.808,2698.6,861.004,2719.68,863.123,2713.76,875.808" style="stroke: #A80036; stroke-width: 1.0;"/><path d="M2492.65,860.629 C2566.54,882.163 2687.68,907.3153 2775.46,924.8497 " fill="none" style="stroke: #A80036; stroke-width: 1.0;"/><polygon fill="none" points="2490.21,867.203,2473.13,854.661,2494.31,853.815,2490.21,867.203" style="stroke: #A80036; stroke-width: 1.0;"/><path d="M2341.54,865.606 C2311.99,884.363 2277.99,905.9529 2252.91,921.8794 " fill="none" style="stroke: #A80036; stroke-width: 1.0;"/><polygon fill="none" points="2338.14,859.474,2358.77,854.663,2345.64,871.293,2338.14,859.474" style="stroke: #A80036; stroke-width: 1.0;"/><path d="M2413.32,874.427 C2415.91,890.789 2418.67,908.2349 2420.8,921.6871 " fill="none" style="stroke: #A80036; stroke-width: 1.0;"/><polygon fill="none" points="2406.4,875.512,2410.19,854.663,2420.23,873.322,2406.4,875.512" style="stroke: #A80036; stroke-width: 1.0;"/><path d="M2615.11,669.5 C2629.62,669.5 2644.13,669.5 2658.63,669.5 " fill="none" style="stroke: #A80036; stroke-width: 1.0;"/><polygon fill="#A80036" points="2671.96,669.5,2662.96,665.5,2666.96,669.5,2662.96,673.5,2671.96,669.5" style="stroke: #A80036; stroke-width: 1.0;"/><line style="stroke: #A80036; stroke-width: 1.0;" x1="2666.96" x2="2658.96" y1="669.5" y2="669.5"/><polygon fill="#A80036" points="2602,669.5,2608,673.5,2614,669.5,2608,665.5,2602,669.5" style="stroke: #A80036; stroke-width: 1.0;"/><path d="M1749.39,281.518 C1942.37,282.039 2347.51,295.093 2439.49,393 C2494.34,451.383 2486.57,550.834 2474.53,612.927 " fill="none" style="stroke: #A80036; stroke-width: 1.0; stroke-dasharray: 7.0,7.0;"/><polygon fill="#A80036" points="1744.3,281.507,1753.2885,285.5327,1749.3,281.5213,1753.3114,277.5327,1744.3,281.507" style="stroke: #A80036; stroke-width: 1.0;"/><text fill="#000000" font-family="sans-serif" font-size="13" lengthAdjust="spacingAndGlyphs" textLength="47" x="2483.49" y="491.0684">Creates</text><path d="M1013.19,512.037 C1036.46,521.09 1063.84,530.442 1089.49,536 C1529.04,631.235 1651.67,561.774 2098.49,613 C2171.45,621.364 2252.26,633.479 2318.99,644.256 " fill="none" style="stroke: #A80036; stroke-width: 1.0; stroke-dasharray: 7.0,7.0;"/><polygon fill="#A80036" points="1008.29,510.111,1015.2033,517.1257,1012.9435,511.9398,1018.1294,509.6801,1008.29,510.111" style="stroke: #A80036; stroke-width: 1.0;"/><text fill="#000000" font-family="sans-serif" font-size="13" lengthAdjust="spacingAndGlyphs" textLength="105" x="1380.49" y="579.5684">Creates/Updates</text><path d="M332.192,105.544 C257.614,111.843 146.956,133.339 83.4914,203 C-16.1817,312.404 -22.9179,433.136 83.4914,536 C168.522,618.197 517.821,651.598 687.763,663.185 " fill="none" style="stroke: #A80036; stroke-width: 1.0; stroke-dasharray: 7.0,7.0;"/><polygon fill="#A80036" points="692.987,663.538,684.2772,658.9402,687.9984,663.2009,683.7378,666.922,692.987,663.538" style="stroke: #A80036; stroke-width: 1.0;"/><text fill="#000000" font-family="sans-serif" font-size="13" lengthAdjust="spacingAndGlyphs" textLength="32" x="7.4914" y="381.5684">From</text><path d="M450.644,146.347 C482.618,179.638 525.993,224.798 553.362,253.295 " fill="none" style="stroke: #A80036; stroke-width: 1.0; stroke-dasharray: 7.0,7.0;"/><polygon fill="#A80036" points="556.95,257.03,553.6009,247.768,553.4866,253.4237,547.8309,253.3094,556.95,257.03" style="stroke: #A80036; stroke-width: 1.0;"/><text fill="#000000" font-family="sans-serif" font-size="13" lengthAdjust="spacingAndGlyphs" textLength="36" x="495.491" y="191.5684">about</text><path d="M628.384,139.532 C677.797,174.517 751.392,226.621 793.893,256.712 " fill="none" style="stroke: #A80036; stroke-width: 1.0; stroke-dasharray: 7.0,7.0;"/><polygon fill="#A80036" points="798.16,259.733,793.1259,251.2679,794.0792,256.8439,788.5033,257.7972,798.16,259.733" style="stroke: #A80036; stroke-width: 1.0;"/><text fill="#000000" font-family="sans-serif" font-size="13" lengthAdjust="spacingAndGlyphs" textLength="59" x="703.491" y="191.5684">Issued By</text><text fill="#000000" font-family="sans-serif" font-size="13" lengthAdjust="spacingAndGlyphs" textLength="22" x="613.4899" y="160.0683">0..*</text><text fill="#000000" font-family="sans-serif" font-size="13" lengthAdjust="spacingAndGlyphs" textLength="8" x="782.4522" y="250.5693">1</text><path d="M574.562,139.852 C573.716,151.976 572.908,165.562 572.491,178 C571.649,203.144 573.859,231.696 576.015,252.268 " fill="none" style="stroke: #A80036; stroke-width: 1.0; stroke-dasharray: 7.0,7.0;"/><polygon fill="#A80036" points="576.56,257.319,579.5724,247.9422,576.0242,252.3478,571.6185,248.7995,576.56,257.319" style="stroke: #A80036; stroke-width: 1.0;"/><text fill="#000000" font-family="sans-serif" font-size="13" lengthAdjust="spacingAndGlyphs" textLength="43" x="573.491" y="191.5684">effects</text><text fill="#000000" font-family="sans-serif" font-size="13" lengthAdjust="spacingAndGlyphs" textLength="22" x="550.9902" y="246.8089">1..*</text></g></svg>