<?xml version="1.0" encoding="UTF-8" standalone="yes"?><svg xmlns="http://www.w3.org/2000/svg" xmlns:xlink="http://www.w3.org/1999/xlink" height="1119pt" style="width:2694px;height:1119px;" version="1.1" viewBox="0 0 2694 1119" width="2694pt"><defs><filter height="300%" id="f1" width="300%" x="-1" y="-1"><feGaussianBlur result="blurOut" stdDeviation="2.0"/><feColorMatrix in="blurOut" result="blurOut2" type="matrix" values="0 0 0 0 0 0 0 0 0 0 0 0 0 0 0 0 0 0 .4 0"/><feOffset dx="4.0" dy="4.0" in="blurOut2" result="blurOut3"/><feBlend in="SourceGraphic" in2="blurOut3" mode="normal"/></filter></defs><g><polygon fill="#FFFFFF" filter="url(#f1)" points="2118,213,2218,213,2225,235.4883,2687,235.4883,2687,481,2118,481,2118,213" style="stroke: #000000; stroke-width: 2.0;"/><line style="stroke: #000000; stroke-width: 2.0;" x1="2118" x2="2225" y1="235.4883" y2="235.4883"/><text fill="#000000" font-family="sans-serif" font-size="14" font-weight="bold" lengthAdjust="spacingAndGlyphs" textLength="94" x="2121" y="229.5352">existingCode</text><polygon fill="#FFFFFF" filter="url(#f1)" points="875,211.5,952,211.5,959,233.9883,2094,233.9883,2094,1001,875,1001,875,211.5" style="stroke: #000000; stroke-width: 2.0;"/><line style="stroke: #000000; stroke-width: 2.0;" x1="875" x2="959" y1="233.9883" y2="233.9883"/><text fill="#000000" font-family="sans-serif" font-size="14" font-weight="bold" lengthAdjust="spacingAndGlyphs" textLength="71" x="878" y="228.0352">assignees</text><polygon fill="#FFFFFF" filter="url(#f1)" points="22,531.5,179,531.5,186,553.9883,851,553.9883,851,1112,22,1112,22,531.5" style="stroke: #000000; stroke-width: 2.0;"/><line style="stroke: #000000; stroke-width: 2.0;" x1="22" x2="186" y1="553.9883" y2="553.9883"/><text fill="#000000" font-family="sans-serif" font-size="14" font-weight="bold" lengthAdjust="spacingAndGlyphs" textLength="151" x="25" y="548.0352">roleassigneeprovider</text><polygon fill="#FFFFFF" filter="url(#f1)" points="1886,24.5,2088,24.5,2095,46.9883,2219,46.9883,2219,162.5,1886,162.5,1886,24.5" style="stroke: #000000; stroke-width: 2.0;"/><line style="stroke: #000000; stroke-width: 2.0;" x1="1886" x2="2095" y1="46.9883" y2="46.9883"/><text fill="#000000" font-family="sans-serif" font-size="14" font-weight="bold" lengthAdjust="spacingAndGlyphs" textLength="196" x="1889" y="41.0352">somewhereElseInDataverse</text><rect fill="#FEFECE" filter="url(#f1)" height="48" style="stroke: #A80036; stroke-width: 1.5;" width="85" x="2370.5" y="259.5"/><ellipse cx="2385.5" cy="275.5" fill="#ADD1B2" rx="11" ry="11" style="stroke: #A80036; stroke-width: 1.0;"/><path d="M2388.4731,281.1431 Q2387.8921,281.4419 2387.2529,281.5913 Q2386.6138,281.7407 2385.9082,281.7407 Q2383.4014,281.7407 2382.0815,280.0889 Q2380.7617,278.437 2380.7617,275.3159 Q2380.7617,272.1865 2382.0815,270.5347 Q2383.4014,268.8828 2385.9082,268.8828 Q2386.6138,268.8828 2387.2612,269.0322 Q2387.9087,269.1816 2388.4731,269.4805 L2388.4731,272.2031 Q2387.8423,271.6221 2387.2488,271.3523 Q2386.6553,271.0825 2386.0244,271.0825 Q2384.6797,271.0825 2383.9949,272.1492 Q2383.3101,273.2158 2383.3101,275.3159 Q2383.3101,277.4077 2383.9949,278.4744 Q2384.6797,279.541 2386.0244,279.541 Q2386.6553,279.541 2387.2488,279.2712 Q2387.8423,279.0015 2388.4731,278.4204 Z "/><text fill="#000000" font-family="sans-serif" font-size="12" lengthAdjust="spacingAndGlyphs" textLength="25" x="2399.5" y="280.0352">Role</text><rect fill="#FFFFFF" height="16.1328" style="stroke: #000000; stroke-width: 1.0; stroke-dasharray: 2.0,2.0;" width="26" x="2432.5" y="256.5"/><text fill="#000000" font-family="sans-serif" font-size="12" font-style="italic" lengthAdjust="spacingAndGlyphs" textLength="16" x="2437.5" y="269.1016">DB</text><line style="stroke: #A80036; stroke-width: 1.5;" x1="2371.5" x2="2454.5" y1="291.5" y2="291.5"/><line style="stroke: #A80036; stroke-width: 1.5;" x1="2371.5" x2="2454.5" y1="299.5" y2="299.5"/><rect fill="#FEFECE" filter="url(#f1)" height="48" style="stroke: #A80036; stroke-width: 1.5;" width="113" x="2557.5" y="259.5"/><ellipse cx="2572.5" cy="275.5" fill="#ADD1B2" rx="11" ry="11" style="stroke: #A80036; stroke-width: 1.0;"/><path d="M2575.4731,281.1431 Q2574.8921,281.4419 2574.2529,281.5913 Q2573.6138,281.7407 2572.9082,281.7407 Q2570.4014,281.7407 2569.0815,280.0889 Q2567.7617,278.437 2567.7617,275.3159 Q2567.7617,272.1865 2569.0815,270.5347 Q2570.4014,268.8828 2572.9082,268.8828 Q2573.6138,268.8828 2574.2612,269.0322 Q2574.9087,269.1816 2575.4731,269.4805 L2575.4731,272.2031 Q2574.8423,271.6221 2574.2488,271.3523 Q2573.6553,271.0825 2573.0244,271.0825 Q2571.6797,271.0825 2570.9949,272.1492 Q2570.3101,273.2158 2570.3101,275.3159 Q2570.3101,277.4077 2570.9949,278.4744 Q2571.6797,279.541 2573.0244,279.541 Q2573.6553,279.541 2574.2488,279.2712 Q2574.8423,279.0015 2575.4731,278.4204 Z "/><text fill="#000000" font-family="sans-serif" font-size="12" lengthAdjust="spacingAndGlyphs" textLength="53" x="2586.5" y="280.0352">DvObject</text><rect fill="#FFFFFF" height="16.1328" style="stroke: #000000; stroke-width: 1.0; stroke-dasharray: 2.0,2.0;" width="26" x="2647.5" y="256.5"/><text fill="#000000" font-family="sans-serif" font-size="12" font-style="italic" lengthAdjust="spacingAndGlyphs" textLength="16" x="2652.5" y="269.1016">DB</text><line style="stroke: #A80036; stroke-width: 1.5;" x1="2558.5" x2="2669.5" y1="291.5" y2="291.5"/><line style="stroke: #A80036; stroke-width: 1.5;" x1="2558.5" x2="2669.5" y1="299.5" y2="299.5"/><rect fill="#FEFECE" filter="url(#f1)" height="48" style="stroke: #A80036; stroke-width: 1.5;" width="151" x="2337.5" y="417"/><ellipse cx="2352.5" cy="433" fill="#ADD1B2" rx="11" ry="11" style="stroke: #A80036; stroke-width: 1.0;"/><path d="M2355.4731,438.6431 Q2354.8921,438.9419 2354.2529,439.0913 Q2353.6138,439.2407 2352.9082,439.2407 Q2350.4014,439.2407 2349.0815,437.5889 Q2347.7617,435.937 2347.7617,432.8159 Q2347.7617,429.6865 2349.0815,428.0347 Q2350.4014,426.3828 2352.9082,426.3828 Q2353.6138,426.3828 2354.2612,426.5322 Q2354.9087,426.6816 2355.4731,426.9805 L2355.4731,429.7031 Q2354.8423,429.1221 2354.2488,428.8523 Q2353.6553,428.5825 2353.0244,428.5825 Q2351.6797,428.5825 2350.9949,429.6492 Q2350.3101,430.7158 2350.3101,432.8159 Q2350.3101,434.9077 2350.9949,435.9744 Q2351.6797,437.041 2353.0244,437.041 Q2353.6553,437.041 2354.2488,436.7712 Q2354.8423,436.5015 2355.4731,435.9204 Z "/><text fill="#000000" font-family="sans-serif" font-size="12" lengthAdjust="spacingAndGlyphs" textLength="91" x="2366.5" y="437.5352">RoleAssignment</text><rect fill="#FFFFFF" height="16.1328" style="stroke: #000000; stroke-width: 1.0; stroke-dasharray: 2.0,2.0;" width="26" x="2465.5" y="414"/><text fill="#000000" font-family="sans-serif" font-size="12" font-style="italic" lengthAdjust="spacingAndGlyphs" textLength="16" x="2470.5" y="426.6016">DB</text><line style="stroke: #A80036; stroke-width: 1.5;" x1="2338.5" x2="2487.5" y1="449" y2="449"/><line style="stroke: #A80036; stroke-width: 1.5;" x1="2338.5" x2="2487.5" y1="457" y2="457"/><rect fill="#FEFECE" filter="url(#f1)" height="48" style="stroke: #A80036; stroke-width: 1.5;" width="118" x="2532" y="417"/><ellipse cx="2547" cy="433" fill="#ADD1B2" rx="11" ry="11" style="stroke: #A80036; stroke-width: 1.0;"/><path d="M2549.9731,438.6431 Q2549.3921,438.9419 2548.7529,439.0913 Q2548.1138,439.2407 2547.4082,439.2407 Q2544.9014,439.2407 2543.5815,437.5889 Q2542.2617,435.937 2542.2617,432.8159 Q2542.2617,429.6865 2543.5815,428.0347 Q2544.9014,426.3828 2547.4082,426.3828 Q2548.1138,426.3828 2548.7612,426.5322 Q2549.4087,426.6816 2549.9731,426.9805 L2549.9731,429.7031 Q2549.3423,429.1221 2548.7488,428.8523 Q2548.1553,428.5825 2547.5244,428.5825 Q2546.1797,428.5825 2545.4949,429.6492 Q2544.8101,430.7158 2544.8101,432.8159 Q2544.8101,434.9077 2545.4949,435.9744 Q2546.1797,437.041 2547.5244,437.041 Q2548.1553,437.041 2548.7488,436.7712 Q2549.3423,436.5015 2549.9731,435.9204 Z "/><text fill="#000000" font-family="sans-serif" font-size="12" lengthAdjust="spacingAndGlyphs" textLength="58" x="2561" y="437.5352">Dataverse</text><rect fill="#FFFFFF" height="16.1328" style="stroke: #000000; stroke-width: 1.0; stroke-dasharray: 2.0,2.0;" width="26" x="2627" y="414"/><text fill="#000000" font-family="sans-serif" font-size="12" font-style="italic" lengthAdjust="spacingAndGlyphs" textLength="16" x="2632" y="426.6016">DB</text><line style="stroke: #A80036; stroke-width: 1.5;" x1="2533" x2="2649" y1="449" y2="449"/><line style="stroke: #A80036; stroke-width: 1.5;" x1="2533" x2="2649" y1="457" y2="457"/><polygon fill="#FBFB77" filter="url(#f1)" points="2134.5,248,2134.5,319.2422,2335.5,319.2422,2335.5,258,2325.5,248,2134.5,248" style="stroke: #A80036; stroke-width: 1.0;"/><line style="stroke: #A80036; stroke-width: 1.0;" x1="2325.5" x2="2325.5" y1="248" y2="258"/><line style="stroke: #A80036; stroke-width: 1.0;" x1="2335.5" x2="2325.5" y1="258" y2="258"/><text fill="#000000" font-family="sans-serif" font-size="13" lengthAdjust="spacingAndGlyphs" textLength="142" x="2140.5" y="265.5684">A role can be assigned</text><text fill="#000000" font-family="sans-serif" font-size="13" lengthAdjust="spacingAndGlyphs" textLength="152" x="2140.5" y="280.8789">at the DvObject where it</text><text fill="#000000" font-family="sans-serif" font-size="13" lengthAdjust="spacingAndGlyphs" textLength="142" x="2140.5" y="296.1895">is defined, or at any of</text><text fill="#000000" font-family="sans-serif" font-size="13" lengthAdjust="spacingAndGlyphs" textLength="180" x="2140.5" y="311.5">that DvObject's descendants</text><rect fill="#FEFECE" filter="url(#f1)" height="86.8652" style="stroke: #A80036; stroke-width: 1.5;" width="137" x="1752.5" y="397.5"/><ellipse cx="1780.55" cy="413.5" fill="#B4A7E5" rx="11" ry="11" style="stroke: #A80036; stroke-width: 1.0;"/><path d="M1776.4777,409.2651 L1776.4777,407.1069 L1783.8571,407.1069 L1783.8571,409.2651 L1781.3918,409.2651 L1781.3918,417.3418 L1783.8571,417.3418 L1783.8571,419.5 L1776.4777,419.5 L1776.4777,417.3418 L1778.9431,417.3418 L1778.9431,409.2651 Z "/><text fill="#000000" font-family="sans-serif" font-size="12" font-style="italic" lengthAdjust="spacingAndGlyphs" textLength="76" x="1797.45" y="418.0352">RoleAssignee</text><line style="stroke: #A80036; stroke-width: 1.5;" x1="1753.5" x2="1888.5" y1="429.5" y2="429.5"/><ellipse cx="1763.5" cy="441.4775" fill="none" rx="3" ry="3" style="stroke: #038048; stroke-width: 1.0;"/><text fill="#000000" font-family="sans-serif" font-size="11" lengthAdjust="spacingAndGlyphs" textLength="83" x="1772.5" y="444.1348">identifier:String</text><ellipse cx="1763.5" cy="454.4326" fill="none" rx="3" ry="3" style="stroke: #038048; stroke-width: 1.0;"/><text fill="#000000" font-family="sans-serif" font-size="11" lengthAdjust="spacingAndGlyphs" textLength="111" x="1772.5" y="457.0898">showInLists: Boolean</text><line style="stroke: #A80036; stroke-width: 1.5;" x1="1753.5" x2="1888.5" y1="463.4102" y2="463.4102"/><ellipse cx="1763.5" cy="475.3877" fill="#84BE84" rx="3" ry="3" style="stroke: #038048; stroke-width: 1.0;"/><text fill="#000000" font-family="sans-serif" font-size="11" lengthAdjust="spacingAndGlyphs" textLength="97" x="1772.5" y="478.0449">displayInfo() : TBD</text><rect fill="#FEFECE" filter="url(#f1)" height="48" style="stroke: #A80036; stroke-width: 1.5;" width="58" x="1074" y="592.5"/><ellipse cx="1089" cy="608.5" fill="#B4A7E5" rx="11" ry="11" style="stroke: #A80036; stroke-width: 1.0;"/><path d="M1084.9277,604.2651 L1084.9277,602.1069 L1092.3071,602.1069 L1092.3071,604.2651 L1089.8418,604.2651 L1089.8418,612.3418 L1092.3071,612.3418 L1092.3071,614.5 L1084.9277,614.5 L1084.9277,612.3418 L1087.3931,612.3418 L1087.3931,604.2651 Z "/><text fill="#000000" font-family="sans-serif" font-size="12" font-style="italic" lengthAdjust="spacingAndGlyphs" textLength="26" x="1103" y="613.0352">User</text><line style="stroke: #A80036; stroke-width: 1.5;" x1="1075" x2="1131" y1="624.5" y2="624.5"/><line style="stroke: #A80036; stroke-width: 1.5;" x1="1075" x2="1131" y1="632.5" y2="632.5"/><rect fill="#FEFECE" filter="url(#f1)" height="48" style="stroke: #A80036; stroke-width: 1.5;" width="137" x="1034.5" y="776"/><ellipse cx="1049.5" cy="792" fill="#ADD1B2" rx="11" ry="11" style="stroke: #A80036; stroke-width: 1.0;"/><path d="M1052.4731,797.6431 Q1051.8921,797.9419 1051.2529,798.0913 Q1050.6138,798.2407 1049.9082,798.2407 Q1047.4014,798.2407 1046.0815,796.5889 Q1044.7617,794.937 1044.7617,791.8159 Q1044.7617,788.6865 1046.0815,787.0347 Q1047.4014,785.3828 1049.9082,785.3828 Q1050.6138,785.3828 1051.2612,785.5322 Q1051.9087,785.6816 1052.4731,785.9805 L1052.4731,788.7031 Q1051.8423,788.1221 1051.2488,787.8523 Q1050.6553,787.5825 1050.0244,787.5825 Q1048.6797,787.5825 1047.9949,788.6492 Q1047.3101,789.7158 1047.3101,791.8159 Q1047.3101,793.9077 1047.9949,794.9744 Q1048.6797,796.041 1050.0244,796.041 Q1050.6553,796.041 1051.2488,795.7712 Q1051.8423,795.5015 1052.4731,794.9204 Z "/><text fill="#000000" font-family="sans-serif" font-size="12" lengthAdjust="spacingAndGlyphs" textLength="105" x="1063.5" y="796.5352">AuthenticatedUser</text><line style="stroke: #A80036; stroke-width: 1.5;" x1="1035.5" x2="1170.5" y1="808" y2="808"/><line style="stroke: #A80036; stroke-width: 1.5;" x1="1035.5" x2="1170.5" y1="816" y2="816"/><rect fill="#FEFECE" filter="url(#f1)" height="60.9551" style="stroke: #A80036; stroke-width: 1.5;" width="100" x="1376" y="769.5"/><ellipse cx="1400.45" cy="785.5" fill="#ADD1B2" rx="11" ry="11" style="stroke: #A80036; stroke-width: 1.0;"/><path d="M1403.4231,791.1431 Q1402.8421,791.4419 1402.2029,791.5913 Q1401.5638,791.7407 1400.8582,791.7407 Q1398.3514,791.7407 1397.0315,790.0889 Q1395.7117,788.437 1395.7117,785.3159 Q1395.7117,782.1865 1397.0315,780.5347 Q1398.3514,778.8828 1400.8582,778.8828 Q1401.5638,778.8828 1402.2112,779.0322 Q1402.8587,779.1816 1403.4231,779.4805 L1403.4231,782.2031 Q1402.7923,781.6221 1402.1988,781.3523 Q1401.6053,781.0825 1400.9744,781.0825 Q1399.6297,781.0825 1398.9449,782.1492 Q1398.2601,783.2158 1398.2601,785.3159 Q1398.2601,787.4077 1398.9449,788.4744 Q1399.6297,789.541 1400.9744,789.541 Q1401.6053,789.541 1402.1988,789.2712 Q1402.7923,789.0015 1403.4231,788.4204 Z "/><text fill="#000000" font-family="sans-serif" font-size="12" lengthAdjust="spacingAndGlyphs" textLength="47" x="1416.55" y="790.0352">IpGroup</text><line style="stroke: #A80036; stroke-width: 1.5;" x1="1377" x2="1475" y1="801.5" y2="801.5"/><text fill="#000000" font-family="sans-serif" font-size="11" lengthAdjust="spacingAndGlyphs" textLength="88" x="1382" y="816.1348">range: IpRange[]</text><line style="stroke: #A80036; stroke-width: 1.5;" x1="1377" x2="1475" y1="822.4551" y2="822.4551"/><rect fill="#FEFECE" filter="url(#f1)" height="73.9102" style="stroke: #A80036; stroke-width: 1.5;" width="141" x="1298.5" y="911"/><ellipse cx="1313.5" cy="927" fill="#ADD1B2" rx="11" ry="11" style="stroke: #A80036; stroke-width: 1.0;"/><path d="M1316.4731,932.6431 Q1315.8921,932.9419 1315.2529,933.0913 Q1314.6138,933.2407 1313.9082,933.2407 Q1311.4014,933.2407 1310.0815,931.5889 Q1308.7617,929.937 1308.7617,926.8159 Q1308.7617,923.6865 1310.0815,922.0347 Q1311.4014,920.3828 1313.9082,920.3828 Q1314.6138,920.3828 1315.2612,920.5322 Q1315.9087,920.6816 1316.4731,920.9805 L1316.4731,923.7031 Q1315.8423,923.1221 1315.2488,922.8523 Q1314.6553,922.5825 1314.0244,922.5825 Q1312.6797,922.5825 1311.9949,923.6492 Q1311.3101,924.7158 1311.3101,926.8159 Q1311.3101,928.9077 1311.9949,929.9744 Q1312.6797,931.041 1314.0244,931.041 Q1314.6553,931.041 1315.2488,930.7712 Q1315.8423,930.5015 1316.4731,929.9204 Z "/><text fill="#000000" font-family="sans-serif" font-size="12" lengthAdjust="spacingAndGlyphs" textLength="81" x="1327.5" y="931.5352">DatabaseUser</text><rect fill="#FFFFFF" height="16.1328" style="stroke: #000000; stroke-width: 1.0; stroke-dasharray: 2.0,2.0;" width="26" x="1416.5" y="908"/><text fill="#000000" font-family="sans-serif" font-size="12" font-style="italic" lengthAdjust="spacingAndGlyphs" textLength="16" x="1421.5" y="920.6016">DB</text><line style="stroke: #A80036; stroke-width: 1.5;" x1="1299.5" x2="1438.5" y1="943" y2="943"/><ellipse cx="1309.5" cy="954.9775" fill="none" rx="3" ry="3" style="stroke: #038048; stroke-width: 1.0;"/><text fill="#000000" font-family="sans-serif" font-size="11" lengthAdjust="spacingAndGlyphs" textLength="40" x="1318.5" y="957.6348">id:Long</text><ellipse cx="1309.5" cy="967.9326" fill="none" rx="3" ry="3" style="stroke: #038048; stroke-width: 1.0;"/><text fill="#000000" font-family="sans-serif" font-size="11" lengthAdjust="spacingAndGlyphs" textLength="64" x="1318.5" y="970.5898">name:String</text><line style="stroke: #A80036; stroke-width: 1.5;" x1="1299.5" x2="1438.5" y1="976.9102" y2="976.9102"/><rect fill="#FEFECE" filter="url(#f1)" height="73.9102" style="stroke: #A80036; stroke-width: 1.5;" width="177" x="1900.5" y="246.5"/><ellipse cx="1915.5" cy="262.5" fill="#ADD1B2" rx="11" ry="11" style="stroke: #A80036; stroke-width: 1.0;"/><path d="M1918.4731,268.1431 Q1917.8921,268.4419 1917.2529,268.5913 Q1916.6138,268.7407 1915.9082,268.7407 Q1913.4014,268.7407 1912.0815,267.0889 Q1910.7617,265.437 1910.7617,262.3159 Q1910.7617,259.1865 1912.0815,257.5347 Q1913.4014,255.8828 1915.9082,255.8828 Q1916.6138,255.8828 1917.2612,256.0322 Q1917.9087,256.1816 1918.4731,256.4805 L1918.4731,259.2031 Q1917.8423,258.6221 1917.2488,258.3523 Q1916.6553,258.0825 1916.0244,258.0825 Q1914.6797,258.0825 1913.9949,259.1492 Q1913.3101,260.2158 1913.3101,262.3159 Q1913.3101,264.4077 1913.9949,265.4744 Q1914.6797,266.541 1916.0244,266.541 Q1916.6553,266.541 1917.2488,266.2712 Q1917.8423,266.0015 1918.4731,265.4204 Z "/><text fill="#000000" font-family="sans-serif" font-size="12" lengthAdjust="spacingAndGlyphs" textLength="117" x="1929.5" y="267.0352">RoleAssigneeRecord</text><rect fill="#FFFFFF" height="16.1328" style="stroke: #000000; stroke-width: 1.0; stroke-dasharray: 2.0,2.0;" width="26" x="2054.5" y="243.5"/><text fill="#000000" font-family="sans-serif" font-size="12" font-style="italic" lengthAdjust="spacingAndGlyphs" textLength="16" x="2059.5" y="256.1016">DB</text><line style="stroke: #A80036; stroke-width: 1.5;" x1="1901.5" x2="2076.5" y1="278.5" y2="278.5"/><text fill="#000000" font-family="sans-serif" font-size="11" lengthAdjust="spacingAndGlyphs" textLength="86" x="1906.5" y="293.1348">identifier: String</text><text fill="#000000" font-family="sans-serif" font-size="11" lengthAdjust="spacingAndGlyphs" textLength="86" x="1906.5" y="306.0898">displayInfo: TBD</text><line style="stroke: #A80036; stroke-width: 1.5;" x1="1901.5" x2="2076.5" y1="312.4102" y2="312.4102"/><polygon fill="#FBFB77" filter="url(#f1)" points="1553.5,271,1553.5,296.3105,1830.5,296.3105,1830.5,281,1820.5,271,1553.5,271" style="stroke: #A80036; stroke-width: 1.0;"/><polygon fill="#FBFB77" points="1553.5,271,1553.5,296.3105,1830.5,296.3105,1830.5,289,1900.23,283.5,1830.5,281,1830.5,281,1820.5,271,1553.5,271" style="stroke: #A80036; stroke-width: 1.0;"/><line style="stroke: #A80036; stroke-width: 1.0;" x1="1820.5" x2="1820.5" y1="271" y2="281"/><line style="stroke: #A80036; stroke-width: 1.0;" x1="1830.5" x2="1820.5" y1="281" y2="281"/><text fill="#000000" font-family="sans-serif" font-size="13" lengthAdjust="spacingAndGlyphs" textLength="256" x="1559.5" y="288.5684">Locally persistent proxy for the assignee</text><rect fill="#FEFECE" filter="url(#f1)" height="73.9102" style="stroke: #A80036; stroke-width: 1.5;" width="120" x="894" y="911"/><ellipse cx="926.1" cy="927" fill="#ADD1B2" rx="11" ry="11" style="stroke: #A80036; stroke-width: 1.0;"/><path d="M929.0731,932.6431 Q928.4921,932.9419 927.8529,933.0913 Q927.2138,933.2407 926.5082,933.2407 Q924.0014,933.2407 922.6815,931.5889 Q921.3617,929.937 921.3617,926.8159 Q921.3617,923.6865 922.6815,922.0347 Q924.0014,920.3828 926.5082,920.3828 Q927.2138,920.3828 927.8612,920.5322 Q928.5087,920.6816 929.0731,920.9805 L929.0731,923.7031 Q928.4423,923.1221 927.8488,922.8523 Q927.2553,922.5825 926.6244,922.5825 Q925.2797,922.5825 924.5949,923.6492 Q923.9101,924.7158 923.9101,926.8159 Q923.9101,928.9077 924.5949,929.9744 Q925.2797,931.041 926.6244,931.041 Q927.2553,931.041 927.8488,930.7712 Q928.4423,930.5015 929.0731,929.9204 Z "/><text fill="#000000" font-family="sans-serif" font-size="12" lengthAdjust="spacingAndGlyphs" textLength="50" x="943.9" y="931.5352">ShibUser</text><line style="stroke: #A80036; stroke-width: 1.5;" x1="895" x2="1013" y1="943" y2="943"/><text fill="#000000" font-family="sans-serif" font-size="11" lengthAdjust="spacingAndGlyphs" textLength="108" x="900" y="957.6348">persisstentId: String</text><text fill="#000000" font-family="sans-serif" font-size="11" lengthAdjust="spacingAndGlyphs" textLength="78" x="900" y="970.5898">shibIdp: String</text><line style="stroke: #A80036; stroke-width: 1.5;" x1="895" x2="1013" y1="976.9102" y2="976.9102"/><rect fill="#FEFECE" filter="url(#f1)" height="48" style="stroke: #A80036; stroke-width: 1.5;" width="92" x="1049" y="924"/><ellipse cx="1064" cy="940" fill="#ADD1B2" rx="11" ry="11" style="stroke: #A80036; stroke-width: 1.0;"/><path d="M1066.9731,945.6431 Q1066.3921,945.9419 1065.7529,946.0913 Q1065.1138,946.2407 1064.4082,946.2407 Q1061.9014,946.2407 1060.5815,944.5889 Q1059.2617,942.937 1059.2617,939.8159 Q1059.2617,936.6865 1060.5815,935.0347 Q1061.9014,933.3828 1064.4082,933.3828 Q1065.1138,933.3828 1065.7612,933.5322 Q1066.4087,933.6816 1066.9731,933.9805 L1066.9731,936.7031 Q1066.3423,936.1221 1065.7488,935.8523 Q1065.1553,935.5825 1064.5244,935.5825 Q1063.1797,935.5825 1062.4949,936.6492 Q1061.8101,937.7158 1061.8101,939.8159 Q1061.8101,941.9077 1062.4949,942.9744 Q1063.1797,944.041 1064.5244,944.041 Q1065.1553,944.041 1065.7488,943.7712 Q1066.3423,943.5015 1066.9731,942.9204 Z "/><text fill="#000000" font-family="sans-serif" font-size="12" lengthAdjust="spacingAndGlyphs" textLength="60" x="1078" y="944.5352">OauthUser</text><line style="stroke: #A80036; stroke-width: 1.5;" x1="1050" x2="1140" y1="956" y2="956"/><line style="stroke: #A80036; stroke-width: 1.5;" x1="1050" x2="1140" y1="964" y2="964"/><rect fill="#FEFECE" filter="url(#f1)" height="48" style="stroke: #A80036; stroke-width: 1.5;" width="87" x="1176.5" y="924"/><ellipse cx="1191.5" cy="940" fill="#ADD1B2" rx="11" ry="11" style="stroke: #A80036; stroke-width: 1.0;"/><path d="M1194.4731,945.6431 Q1193.8921,945.9419 1193.2529,946.0913 Q1192.6138,946.2407 1191.9082,946.2407 Q1189.4014,946.2407 1188.0815,944.5889 Q1186.7617,942.937 1186.7617,939.8159 Q1186.7617,936.6865 1188.0815,935.0347 Q1189.4014,933.3828 1191.9082,933.3828 Q1192.6138,933.3828 1193.2612,933.5322 Q1193.9087,933.6816 1194.4731,933.9805 L1194.4731,936.7031 Q1193.8423,936.1221 1193.2488,935.8523 Q1192.6553,935.5825 1192.0244,935.5825 Q1190.6797,935.5825 1189.9949,936.6492 Q1189.3101,937.7158 1189.3101,939.8159 Q1189.3101,941.9077 1189.9949,942.9744 Q1190.6797,944.041 1192.0244,944.041 Q1192.6553,944.041 1193.2488,943.7712 Q1193.8423,943.5015 1194.4731,942.9204 Z "/><text fill="#000000" font-family="sans-serif" font-size="12" lengthAdjust="spacingAndGlyphs" textLength="55" x="1205.5" y="944.5352">LdapUser</text><line style="stroke: #A80036; stroke-width: 1.5;" x1="1177.5" x2="1262.5" y1="956" y2="956"/><line style="stroke: #A80036; stroke-width: 1.5;" x1="1177.5" x2="1262.5" y1="964" y2="964"/><rect fill="#FEFECE" filter="url(#f1)" height="60.9551" style="stroke: #A80036; stroke-width: 1.5;" width="108" x="891" y="769.5"/><ellipse cx="913.65" cy="785.5" fill="#ADD1B2" rx="11" ry="11" style="stroke: #A80036; stroke-width: 1.0;"/><path d="M916.6231,791.1431 Q916.0421,791.4419 915.4029,791.5913 Q914.7638,791.7407 914.0582,791.7407 Q911.5514,791.7407 910.2315,790.0889 Q908.9117,788.437 908.9117,785.3159 Q908.9117,782.1865 910.2315,780.5347 Q911.5514,778.8828 914.0582,778.8828 Q914.7638,778.8828 915.4112,779.0322 Q916.0587,779.1816 916.6231,779.4805 L916.6231,782.2031 Q915.9923,781.6221 915.3988,781.3523 Q914.8053,781.0825 914.1744,781.0825 Q912.8297,781.0825 912.1449,782.1492 Q911.4601,783.2158 911.4601,785.3159 Q911.4601,787.4077 912.1449,788.4744 Q912.8297,789.541 914.1744,789.541 Q914.8053,789.541 915.3988,789.2712 Q915.9923,789.0015 916.6231,788.4204 Z "/><text fill="#000000" font-family="sans-serif" font-size="12" lengthAdjust="spacingAndGlyphs" textLength="59" x="929.35" y="790.0352">GuestUser</text><line style="stroke: #A80036; stroke-width: 1.5;" x1="892" x2="998" y1="801.5" y2="801.5"/><text fill="#000000" font-family="sans-serif" font-size="11" lengthAdjust="spacingAndGlyphs" textLength="96" x="897" y="816.1348">showInLists: False</text><line style="stroke: #A80036; stroke-width: 1.5;" x1="892" x2="998" y1="822.4551" y2="822.4551"/><rect fill="#FEFECE" filter="url(#f1)" height="73.9102" style="stroke: #A80036; stroke-width: 1.5;" width="100" x="1241" y="763"/><ellipse cx="1256" cy="779" fill="#ADD1B2" rx="11" ry="11" style="stroke: #A80036; stroke-width: 1.0;"/><path d="M1258.9731,784.6431 Q1258.3921,784.9419 1257.7529,785.0913 Q1257.1138,785.2407 1256.4082,785.2407 Q1253.9014,785.2407 1252.5815,783.5889 Q1251.2617,781.937 1251.2617,778.8159 Q1251.2617,775.6865 1252.5815,774.0347 Q1253.9014,772.3828 1256.4082,772.3828 Q1257.1138,772.3828 1257.7612,772.5322 Q1258.4087,772.6816 1258.9731,772.9805 L1258.9731,775.7031 Q1258.3423,775.1221 1257.7488,774.8523 Q1257.1553,774.5825 1256.5244,774.5825 Q1255.1797,774.5825 1254.4949,775.6492 Q1253.8101,776.7158 1253.8101,778.8159 Q1253.8101,780.9077 1254.4949,781.9744 Q1255.1797,783.041 1256.5244,783.041 Q1257.1553,783.041 1257.7488,782.7712 Q1258.3423,782.5015 1258.9731,781.9204 Z "/><text fill="#000000" font-family="sans-serif" font-size="12" lengthAdjust="spacingAndGlyphs" textLength="40" x="1270" y="783.5352">ApiKey</text><rect fill="#FFFFFF" height="16.1328" style="stroke: #000000; stroke-width: 1.0; stroke-dasharray: 2.0,2.0;" width="26" x="1318" y="760"/><text fill="#000000" font-family="sans-serif" font-size="12" font-style="italic" lengthAdjust="spacingAndGlyphs" textLength="16" x="1323" y="772.6016">DB</text><line style="stroke: #A80036; stroke-width: 1.5;" x1="1242" x2="1340" y1="795" y2="795"/><ellipse cx="1252" cy="806.9775" fill="none" rx="3" ry="3" style="stroke: #038048; stroke-width: 1.0;"/><text fill="#000000" font-family="sans-serif" font-size="11" lengthAdjust="spacingAndGlyphs" textLength="53" x="1261" y="809.6348">key:String</text><ellipse cx="1252" cy="819.9326" fill="none" rx="3" ry="3" style="stroke: #038048; stroke-width: 1.0;"/><text fill="#000000" font-family="sans-serif" font-size="11" lengthAdjust="spacingAndGlyphs" textLength="58" x="1261" y="822.5898">title: String</text><line style="stroke: #A80036; stroke-width: 1.5;" x1="1242" x2="1340" y1="828.9102" y2="828.9102"/><rect fill="#FEFECE" filter="url(#f1)" height="112.7754" style="stroke: #A80036; stroke-width: 1.5;" width="195" x="1473.5" y="560"/><ellipse cx="1534.75" cy="576" fill="#B4A7E5" rx="11" ry="11" style="stroke: #A80036; stroke-width: 1.0;"/><path d="M1530.6777,571.7651 L1530.6777,569.6069 L1538.0571,569.6069 L1538.0571,571.7651 L1535.5918,571.7651 L1535.5918,579.8418 L1538.0571,579.8418 L1538.0571,582 L1530.6777,582 L1530.6777,579.8418 L1533.1431,579.8418 L1533.1431,571.7651 Z "/><text fill="#000000" font-family="sans-serif" font-size="12" font-style="italic" lengthAdjust="spacingAndGlyphs" textLength="36" x="1555.25" y="580.5352">Group</text><rect fill="#FFFFFF" height="16.1328" style="stroke: #000000; stroke-width: 1.0; stroke-dasharray: 2.0,2.0;" width="26" x="1645.5" y="557"/><text fill="#000000" font-family="sans-serif" font-size="12" font-style="italic" lengthAdjust="spacingAndGlyphs" textLength="16" x="1650.5" y="569.6016">DB</text><line style="stroke: #A80036; stroke-width: 1.5;" x1="1474.5" x2="1667.5" y1="592" y2="592"/><ellipse cx="1484.5" cy="603.9775" fill="none" rx="3" ry="3" style="stroke: #038048; stroke-width: 1.0;"/><text fill="#000000" font-family="sans-serif" font-size="11" lengthAdjust="spacingAndGlyphs" textLength="67" x="1493.5" y="606.6348">name: String</text><ellipse cx="1484.5" cy="616.9326" fill="none" rx="3" ry="3" style="stroke: #038048; stroke-width: 1.0;"/><text fill="#000000" font-family="sans-serif" font-size="11" lengthAdjust="spacingAndGlyphs" textLength="102" x="1493.5" y="619.5898">description : String</text><ellipse cx="1484.5" cy="629.8877" fill="none" rx="3" ry="3" style="stroke: #038048; stroke-width: 1.0;"/><text fill="#000000" font-family="sans-serif" font-size="11" lengthAdjust="spacingAndGlyphs" textLength="52" x="1493.5" y="632.5449">data: Blob</text><ellipse cx="1484.5" cy="642.8428" fill="none" rx="3" ry="3" style="stroke: #038048; stroke-width: 1.0;"/><text fill="#000000" font-family="sans-serif" font-size="11" lengthAdjust="spacingAndGlyphs" textLength="169" x="1493.5" y="645.5">provider: RoleAssigneeProvider</text><line style="stroke: #A80036; stroke-width: 1.5;" x1="1474.5" x2="1667.5" y1="651.8203" y2="651.8203"/><ellipse cx="1484.5" cy="663.7979" fill="#84BE84" rx="3" ry="3" style="stroke: #038048; stroke-width: 1.0;"/><text fill="#000000" font-family="sans-serif" font-size="11" lengthAdjust="spacingAndGlyphs" textLength="141" x="1493.5" y="666.4551">contains( a:RoleAssignee )</text><rect fill="#FEFECE" filter="url(#f1)" height="86.8652" style="stroke: #A80036; stroke-width: 1.5;" width="161" x="1916.5" y="756.5"/><ellipse cx="1942.3" cy="772.5" fill="#ADD1B2" rx="11" ry="11" style="stroke: #A80036; stroke-width: 1.0;"/><path d="M1945.2731,778.1431 Q1944.6921,778.4419 1944.0529,778.5913 Q1943.4138,778.7407 1942.7082,778.7407 Q1940.2014,778.7407 1938.8815,777.0889 Q1937.5617,775.437 1937.5617,772.3159 Q1937.5617,769.1865 1938.8815,767.5347 Q1940.2014,765.8828 1942.7082,765.8828 Q1943.4138,765.8828 1944.0612,766.0322 Q1944.7087,766.1816 1945.2731,766.4805 L1945.2731,769.2031 Q1944.6423,768.6221 1944.0488,768.3523 Q1943.4553,768.0825 1942.8244,768.0825 Q1941.4797,768.0825 1940.7949,769.1492 Q1940.1101,770.2158 1940.1101,772.3159 Q1940.1101,774.4077 1940.7949,775.4744 Q1941.4797,776.541 1942.8244,776.541 Q1943.4553,776.541 1944.0488,776.2712 Q1944.6423,776.0015 1945.2731,775.4204 Z "/><text fill="#000000" font-family="sans-serif" font-size="12" lengthAdjust="spacingAndGlyphs" textLength="77" x="1958.7" y="777.0352">ExplicitGroup</text><rect fill="#FFFFFF" height="16.1328" style="stroke: #000000; stroke-width: 1.0; stroke-dasharray: 2.0,2.0;" width="26" x="2054.5" y="753.5"/><text fill="#000000" font-family="sans-serif" font-size="12" font-style="italic" lengthAdjust="spacingAndGlyphs" textLength="16" x="2059.5" y="766.1016">DB</text><line style="stroke: #A80036; stroke-width: 1.5;" x1="1917.5" x2="2076.5" y1="788.5" y2="788.5"/><ellipse cx="1927.5" cy="800.4775" fill="none" rx="3" ry="3" style="stroke: #038048; stroke-width: 1.0;"/><text fill="#000000" font-family="sans-serif" font-size="11" lengthAdjust="spacingAndGlyphs" textLength="102" x="1936.5" y="803.1348">list: RoleAssignee[]</text><line style="stroke: #A80036; stroke-width: 1.5;" x1="1917.5" x2="2076.5" y1="809.4551" y2="809.4551"/><ellipse cx="1927.5" cy="821.4326" fill="#84BE84" rx="3" ry="3" style="stroke: #038048; stroke-width: 1.0;"/><text fill="#000000" font-family="sans-serif" font-size="11" lengthAdjust="spacingAndGlyphs" textLength="115" x="1936.5" y="824.0898">add( a:RoleAssignee )</text><ellipse cx="1927.5" cy="834.3877" fill="#84BE84" rx="3" ry="3" style="stroke: #038048; stroke-width: 1.0;"/><text fill="#000000" font-family="sans-serif" font-size="11" lengthAdjust="spacingAndGlyphs" textLength="135" x="1936.5" y="837.0449">remove( a:RoleAssignee )</text><rect fill="#FEFECE" filter="url(#f1)" height="48" style="stroke: #A80036; stroke-width: 1.5;" width="120" x="1511" y="776"/><ellipse cx="1526" cy="792" fill="#ADD1B2" rx="11" ry="11" style="stroke: #A80036; stroke-width: 1.0;"/><path d="M1528.9731,797.6431 Q1528.3921,797.9419 1527.7529,798.0913 Q1527.1138,798.2407 1526.4082,798.2407 Q1523.9014,798.2407 1522.5815,796.5889 Q1521.2617,794.937 1521.2617,791.8159 Q1521.2617,788.6865 1522.5815,787.0347 Q1523.9014,785.3828 1526.4082,785.3828 Q1527.1138,785.3828 1527.7612,785.5322 Q1528.4087,785.6816 1528.9731,785.9805 L1528.9731,788.7031 Q1528.3423,788.1221 1527.7488,787.8523 Q1527.1553,787.5825 1526.5244,787.5825 Q1525.1797,787.5825 1524.4949,788.6492 Q1523.8101,789.7158 1523.8101,791.8159 Q1523.8101,793.9077 1524.4949,794.9744 Q1525.1797,796.041 1526.5244,796.041 Q1527.1553,796.041 1527.7488,795.7712 Q1528.3423,795.5015 1528.9731,794.9204 Z "/><text fill="#000000" font-family="sans-serif" font-size="12" lengthAdjust="spacingAndGlyphs" textLength="88" x="1540" y="796.5352">NonGuestUsers</text><line style="stroke: #A80036; stroke-width: 1.5;" x1="1512" x2="1630" y1="808" y2="808"/><line style="stroke: #A80036; stroke-width: 1.5;" x1="1512" x2="1630" y1="816" y2="816"/><rect fill="#FEFECE" filter="url(#f1)" height="60.9551" style="stroke: #A80036; stroke-width: 1.5;" width="215" x="1666.5" y="769.5"/><ellipse cx="1739.75" cy="785.5" fill="#ADD1B2" rx="11" ry="11" style="stroke: #A80036; stroke-width: 1.0;"/><path d="M1742.7231,791.1431 Q1742.1421,791.4419 1741.5029,791.5913 Q1740.8638,791.7407 1740.1582,791.7407 Q1737.6514,791.7407 1736.3315,790.0889 Q1735.0117,788.437 1735.0117,785.3159 Q1735.0117,782.1865 1736.3315,780.5347 Q1737.6514,778.8828 1740.1582,778.8828 Q1740.8638,778.8828 1741.5112,779.0322 Q1742.1587,779.1816 1742.7231,779.4805 L1742.7231,782.2031 Q1742.0923,781.6221 1741.4988,781.3523 Q1740.9053,781.0825 1740.2744,781.0825 Q1738.9297,781.0825 1738.2449,782.1492 Q1737.5601,783.2158 1737.5601,785.3159 Q1737.5601,787.4077 1738.2449,788.4744 Q1738.9297,789.541 1740.2744,789.541 Q1740.9053,789.541 1741.4988,789.2712 Q1742.0923,789.0015 1742.7231,788.4204 Z "/><text fill="#000000" font-family="sans-serif" font-size="12" lengthAdjust="spacingAndGlyphs" textLength="60" x="1760.25" y="790.0352">ShibGroup</text><line style="stroke: #A80036; stroke-width: 1.5;" x1="1667.5" x2="1880.5" y1="801.5" y2="801.5"/><text fill="#000000" font-family="sans-serif" font-size="11" lengthAdjust="spacingAndGlyphs" textLength="203" x="1672.5" y="816.1348">headerMatchers: Map&lt;String, Regex&gt;</text><line style="stroke: #A80036; stroke-width: 1.5;" x1="1667.5" x2="1880.5" y1="822.4551" y2="822.4551"/><rect fill="#FEFECE" filter="url(#f1)" height="99.8203" style="stroke: #A80036; stroke-width: 1.5;" width="283" x="304.5" y="566.5"/><ellipse cx="351.25" cy="582.5" fill="#ADD1B2" rx="11" ry="11" style="stroke: #A80036; stroke-width: 1.0;"/><path d="M354.2231,588.1431 Q353.6421,588.4419 353.0029,588.5913 Q352.3638,588.7407 351.6582,588.7407 Q349.1514,588.7407 347.8315,587.0889 Q346.5117,585.437 346.5117,582.3159 Q346.5117,579.1865 347.8315,577.5347 Q349.1514,575.8828 351.6582,575.8828 Q352.3638,575.8828 353.0112,576.0322 Q353.6587,576.1816 354.2231,576.4805 L354.2231,579.2031 Q353.5923,578.6221 352.9988,578.3523 Q352.4053,578.0825 351.7744,578.0825 Q350.4297,578.0825 349.7449,579.1492 Q349.0601,580.2158 349.0601,582.3159 Q349.0601,584.4077 349.7449,585.4744 Q350.4297,586.541 351.7744,586.541 Q352.4053,586.541 352.9988,586.2712 Q353.5923,586.0015 354.2231,585.4204 Z "/><text fill="#000000" font-family="sans-serif" font-size="12" lengthAdjust="spacingAndGlyphs" textLength="126" x="371.75" y="587.0352">RoleAssigneeManager</text><rect fill="#FFFFFF" height="16.1328" style="stroke: #000000; stroke-width: 1.0; stroke-dasharray: 2.0,2.0;" width="53" x="537.5" y="563.5"/><text fill="#000000" font-family="sans-serif" font-size="12" font-style="italic" lengthAdjust="spacingAndGlyphs" textLength="51" x="538.5" y="576.1016">Singleton</text><line style="stroke: #A80036; stroke-width: 1.5;" x1="305.5" x2="586.5" y1="598.5" y2="598.5"/><text fill="#000000" font-family="sans-serif" font-size="11" lengthAdjust="spacingAndGlyphs" textLength="270" x="310.5" y="613.1348">assigneeProviders: Collection&lt;AssigneeProvider&gt;</text><line style="stroke: #A80036; stroke-width: 1.5;" x1="305.5" x2="586.5" y1="619.4551" y2="619.4551"/><text fill="#000000" font-family="sans-serif" font-size="11" lengthAdjust="spacingAndGlyphs" textLength="205" x="310.5" y="634.0898">registerProvider( p:AssigneeProvider )</text><text fill="#000000" font-family="sans-serif" font-size="11" lengthAdjust="spacingAndGlyphs" textLength="237" x="310.5" y="647.0449">getRoleAssignee( idtf:String ) : RoleAssignee</text><text fill="#000000" font-family="sans-serif" font-size="11" lengthAdjust="spacingAndGlyphs" textLength="271" x="310.5" y="660">getRoleAssignee( req:HttpRequest ) : RoleAssignee</text><rect fill="#FEFECE" filter="url(#f1)" height="99.8203" style="stroke: #A80036; stroke-width: 1.5;" width="283" x="304.5" y="750"/><ellipse cx="379.75" cy="766" fill="#B4A7E5" rx="11" ry="11" style="stroke: #A80036; stroke-width: 1.0;"/><path d="M375.6777,761.7651 L375.6777,759.6069 L383.0571,759.6069 L383.0571,761.7651 L380.5918,761.7651 L380.5918,769.8418 L383.0571,769.8418 L383.0571,772 L375.6777,772 L375.6777,769.8418 L378.1431,769.8418 L378.1431,761.7651 Z "/><text fill="#000000" font-family="sans-serif" font-size="12" font-style="italic" lengthAdjust="spacingAndGlyphs" textLength="124" x="400.25" y="770.5352">RoleAssigneeProvider</text><line style="stroke: #A80036; stroke-width: 1.5;" x1="305.5" x2="586.5" y1="782" y2="782"/><ellipse cx="315.5" cy="793.9775" fill="none" rx="3" ry="3" style="stroke: #038048; stroke-width: 1.0;"/><text fill="#000000" font-family="sans-serif" font-size="11" lengthAdjust="spacingAndGlyphs" textLength="168" x="324.5" y="796.6348">info : RoleAssigneeProviderInfo</text><line style="stroke: #A80036; stroke-width: 1.5;" x1="305.5" x2="586.5" y1="802.9551" y2="802.9551"/><text fill="#000000" font-family="sans-serif" font-size="11" lengthAdjust="spacingAndGlyphs" textLength="258" x="310.5" y="817.5898">acceptsRoleAssigneeIdentifier( idtf:String ): bool</text><text fill="#000000" font-family="sans-serif" font-size="11" lengthAdjust="spacingAndGlyphs" textLength="237" x="310.5" y="830.5449">getRoleAssignee( idtf:String ) : RoleAssignee</text><text fill="#000000" font-family="sans-serif" font-size="11" lengthAdjust="spacingAndGlyphs" textLength="271" x="310.5" y="843.5">getRoleAssignee( req:HttpRequest ) : RoleAssignee</text><rect fill="#FEFECE" filter="url(#f1)" height="60.9551" style="stroke: #A80036; stroke-width: 1.5;" width="136" x="237" y="917.5"/><ellipse cx="263.25" cy="933.5" fill="#B4A7E5" rx="11" ry="11" style="stroke: #A80036; stroke-width: 1.0;"/><path d="M259.1777,929.2651 L259.1777,927.1069 L266.5571,927.1069 L266.5571,929.2651 L264.0918,929.2651 L264.0918,937.3418 L266.5571,937.3418 L266.5571,939.5 L259.1777,939.5 L259.1777,937.3418 L261.6431,937.3418 L261.6431,929.2651 Z "/><text fill="#000000" font-family="sans-serif" font-size="12" font-style="italic" lengthAdjust="spacingAndGlyphs" textLength="79" x="279.75" y="938.0352">GroupCreator</text><line style="stroke: #A80036; stroke-width: 1.5;" x1="238" x2="372" y1="949.5" y2="949.5"/><ellipse cx="248" cy="961.4775" fill="none" rx="3" ry="3" style="stroke: #038048; stroke-width: 1.0;"/><text fill="#000000" font-family="sans-serif" font-size="11" lengthAdjust="spacingAndGlyphs" textLength="110" x="257" y="964.1348">createGroup : Group</text><line style="stroke: #A80036; stroke-width: 1.5;" x1="238" x2="372" y1="970.4551" y2="970.4551"/><rect fill="#FEFECE" filter="url(#f1)" height="73.9102" style="stroke: #A80036; stroke-width: 1.5;" width="226" x="408" y="911"/><ellipse cx="488.25" cy="927" fill="#B4A7E5" rx="11" ry="11" style="stroke: #A80036; stroke-width: 1.0;"/><path d="M484.1777,922.7651 L484.1777,920.6069 L491.5571,920.6069 L491.5571,922.7651 L489.0918,922.7651 L489.0918,930.8418 L491.5571,930.8418 L491.5571,933 L484.1777,933 L484.1777,930.8418 L486.6431,930.8418 L486.6431,922.7651 Z "/><text fill="#000000" font-family="sans-serif" font-size="12" font-style="italic" lengthAdjust="spacingAndGlyphs" textLength="57" x="508.75" y="931.5352">UserLister</text><line style="stroke: #A80036; stroke-width: 1.5;" x1="409" x2="633" y1="943" y2="943"/><line style="stroke: #A80036; stroke-width: 1.5;" x1="409" x2="633" y1="951" y2="951"/><ellipse cx="419" cy="962.9775" fill="#84BE84" rx="3" ry="3" style="stroke: #038048; stroke-width: 1.0;"/><text fill="#000000" font-family="sans-serif" font-size="11" lengthAdjust="spacingAndGlyphs" textLength="126" x="428" y="965.6348">listUsers() : List&lt;User&gt;</text><ellipse cx="419" cy="975.9326" fill="#84BE84" rx="3" ry="3" style="stroke: #038048; stroke-width: 1.0;"/><text fill="#000000" font-family="sans-serif" font-size="11" lengthAdjust="spacingAndGlyphs" textLength="200" x="428" y="978.5898">findUsers( queryString ) : List&lt;User&gt;</text><rect fill="#FEFECE" filter="url(#f1)" height="99.8203" style="stroke: #A80036; stroke-width: 1.5;" width="177" x="657.5" y="750"/><ellipse cx="672.5" cy="766" fill="#ADD1B2" rx="11" ry="11" style="stroke: #A80036; stroke-width: 1.0;"/><path d="M675.4731,771.6431 Q674.8921,771.9419 674.2529,772.0913 Q673.6138,772.2407 672.9082,772.2407 Q670.4014,772.2407 669.0815,770.5889 Q667.7617,768.937 667.7617,765.8159 Q667.7617,762.6865 669.0815,761.0347 Q670.4014,759.3828 672.9082,759.3828 Q673.6138,759.3828 674.2612,759.5322 Q674.9087,759.6816 675.4731,759.9805 L675.4731,762.7031 Q674.8423,762.1221 674.2488,761.8523 Q673.6553,761.5825 673.0244,761.5825 Q671.6797,761.5825 670.9949,762.6492 Q670.3101,763.7158 670.3101,765.8159 Q670.3101,767.9077 670.9949,768.9744 Q671.6797,770.041 673.0244,770.041 Q673.6553,770.041 674.2488,769.7712 Q674.8423,769.5015 675.4731,768.9204 Z "/><text fill="#000000" font-family="sans-serif" font-size="12" lengthAdjust="spacingAndGlyphs" textLength="145" x="686.5" y="770.5352">RoleAssigneeProviderInfo</text><line style="stroke: #A80036; stroke-width: 1.5;" x1="658.5" x2="833.5" y1="782" y2="782"/><ellipse cx="668.5" cy="793.9775" fill="none" rx="3" ry="3" style="stroke: #038048; stroke-width: 1.0;"/><text fill="#000000" font-family="sans-serif" font-size="11" lengthAdjust="spacingAndGlyphs" textLength="29" x="677.5" y="796.6348">name</text><ellipse cx="668.5" cy="806.9326" fill="none" rx="3" ry="3" style="stroke: #038048; stroke-width: 1.0;"/><text fill="#000000" font-family="sans-serif" font-size="11" lengthAdjust="spacingAndGlyphs" textLength="61" x="677.5" y="809.5898">description</text><ellipse cx="668.5" cy="819.8877" fill="none" rx="3" ry="3" style="stroke: #038048; stroke-width: 1.0;"/><text fill="#000000" font-family="sans-serif" font-size="11" lengthAdjust="spacingAndGlyphs" textLength="28" x="677.5" y="822.5449">icon?</text><ellipse cx="668.5" cy="832.8428" fill="none" rx="3" ry="3" style="stroke: #038048; stroke-width: 1.0;"/><text fill="#000000" font-family="sans-serif" font-size="11" lengthAdjust="spacingAndGlyphs" textLength="9" x="677.5" y="835.5">...</text><line style="stroke: #A80036; stroke-width: 1.5;" x1="658.5" x2="833.5" y1="841.8203" y2="841.8203"/><rect fill="#FEFECE" filter="url(#f1)" height="48" style="stroke: #A80036; stroke-width: 1.5;" width="186" x="649" y="1048"/><ellipse cx="664" cy="1064" fill="#ADD1B2" rx="11" ry="11" style="stroke: #A80036; stroke-width: 1.0;"/><path d="M666.9731,1069.6431 Q666.3921,1069.9419 665.7529,1070.0913 Q665.1138,1070.2407 664.4082,1070.2407 Q661.9014,1070.2407 660.5815,1068.5889 Q659.2617,1066.937 659.2617,1063.8159 Q659.2617,1060.6865 660.5815,1059.0347 Q661.9014,1057.3828 664.4082,1057.3828 Q665.1138,1057.3828 665.7612,1057.5322 Q666.4087,1057.6816 666.9731,1057.9805 L666.9731,1060.7031 Q666.3423,1060.1221 665.7488,1059.8523 Q665.1553,1059.5825 664.5244,1059.5825 Q663.1797,1059.5825 662.4949,1060.6492 Q661.8101,1061.7158 661.8101,1063.8159 Q661.8101,1065.9077 662.4949,1066.9744 Q663.1797,1068.041 664.5244,1068.041 Q665.1553,1068.041 665.7488,1067.7712 Q666.3423,1067.5015 666.9731,1066.9204 Z "/><text fill="#000000" font-family="sans-serif" font-size="12" lengthAdjust="spacingAndGlyphs" textLength="154" x="678" y="1068.5352">DatabaseAssigneeProvider</text><line style="stroke: #A80036; stroke-width: 1.5;" x1="650" x2="834" y1="1080" y2="1080"/><line style="stroke: #A80036; stroke-width: 1.5;" x1="650" x2="834" y1="1088" y2="1088"/><rect fill="#FEFECE" filter="url(#f1)" height="48" style="stroke: #A80036; stroke-width: 1.5;" width="155" x="263.5" y="1048"/><ellipse cx="278.5" cy="1064" fill="#ADD1B2" rx="11" ry="11" style="stroke: #A80036; stroke-width: 1.0;"/><path d="M281.4731,1069.6431 Q280.8921,1069.9419 280.2529,1070.0913 Q279.6138,1070.2407 278.9082,1070.2407 Q276.4014,1070.2407 275.0815,1068.5889 Q273.7617,1066.937 273.7617,1063.8159 Q273.7617,1060.6865 275.0815,1059.0347 Q276.4014,1057.3828 278.9082,1057.3828 Q279.6138,1057.3828 280.2612,1057.5322 Q280.9087,1057.6816 281.4731,1057.9805 L281.4731,1060.7031 Q280.8423,1060.1221 280.2488,1059.8523 Q279.6553,1059.5825 279.0244,1059.5825 Q277.6797,1059.5825 276.9949,1060.6492 Q276.3101,1061.7158 276.3101,1063.8159 Q276.3101,1065.9077 276.9949,1066.9744 Q277.6797,1068.041 279.0244,1068.041 Q279.6553,1068.041 280.2488,1067.7712 Q280.8423,1067.5015 281.4731,1066.9204 Z "/><text fill="#000000" font-family="sans-serif" font-size="12" lengthAdjust="spacingAndGlyphs" textLength="123" x="292.5" y="1068.5352">ShibAssigneeProvider</text><line style="stroke: #A80036; stroke-width: 1.5;" x1="264.5" x2="417.5" y1="1080" y2="1080"/><line style="stroke: #A80036; stroke-width: 1.5;" x1="264.5" x2="417.5" y1="1088" y2="1088"/><rect fill="#FEFECE" filter="url(#f1)" height="48" style="stroke: #A80036; stroke-width: 1.5;" width="190" x="38" y="1048"/><ellipse cx="53" cy="1064" fill="#ADD1B2" rx="11" ry="11" style="stroke: #A80036; stroke-width: 1.0;"/><path d="M55.9731,1069.6431 Q55.3921,1069.9419 54.7529,1070.0913 Q54.1138,1070.2407 53.4082,1070.2407 Q50.9014,1070.2407 49.5815,1068.5889 Q48.2617,1066.937 48.2617,1063.8159 Q48.2617,1060.6865 49.5815,1059.0347 Q50.9014,1057.3828 53.4082,1057.3828 Q54.1138,1057.3828 54.7612,1057.5322 Q55.4087,1057.6816 55.9731,1057.9805 L55.9731,1060.7031 Q55.3423,1060.1221 54.7488,1059.8523 Q54.1553,1059.5825 53.5244,1059.5825 Q52.1797,1059.5825 51.4949,1060.6492 Q50.8101,1061.7158 50.8101,1063.8159 Q50.8101,1065.9077 51.4949,1066.9744 Q52.1797,1068.041 53.5244,1068.041 Q54.1553,1068.041 54.7488,1067.7712 Q55.3423,1067.5015 55.9731,1066.9204 Z "/><text fill="#000000" font-family="sans-serif" font-size="12" lengthAdjust="spacingAndGlyphs" textLength="158" x="67" y="1068.5352">IpAddressAssigneeProvider</text><line style="stroke: #A80036; stroke-width: 1.5;" x1="39" x2="227" y1="1080" y2="1080"/><line style="stroke: #A80036; stroke-width: 1.5;" x1="39" x2="227" y1="1088" y2="1088"/><rect fill="#FEFECE" filter="url(#f1)" height="48" style="stroke: #A80036; stroke-width: 1.5;" width="160" x="454" y="1048"/><ellipse cx="469" cy="1064" fill="#ADD1B2" rx="11" ry="11" style="stroke: #A80036; stroke-width: 1.0;"/><path d="M471.9731,1069.6431 Q471.3921,1069.9419 470.7529,1070.0913 Q470.1138,1070.2407 469.4082,1070.2407 Q466.9014,1070.2407 465.5815,1068.5889 Q464.2617,1066.937 464.2617,1063.8159 Q464.2617,1060.6865 465.5815,1059.0347 Q466.9014,1057.3828 469.4082,1057.3828 Q470.1138,1057.3828 470.7612,1057.5322 Q471.4087,1057.6816 471.9731,1057.9805 L471.9731,1060.7031 Q471.3423,1060.1221 470.7488,1059.8523 Q470.1553,1059.5825 469.5244,1059.5825 Q468.1797,1059.5825 467.4949,1060.6492 Q466.8101,1061.7158 466.8101,1063.8159 Q466.8101,1065.9077 467.4949,1066.9744 Q468.1797,1068.041 469.5244,1068.041 Q470.1553,1068.041 470.7488,1067.7712 Q471.3423,1067.5015 471.9731,1066.9204 Z "/><text fill="#000000" font-family="sans-serif" font-size="12" lengthAdjust="spacingAndGlyphs" textLength="128" x="483" y="1068.5352">LdapAssigneeProvider</text><line style="stroke: #A80036; stroke-width: 1.5;" x1="455" x2="613" y1="1080" y2="1080"/><line style="stroke: #A80036; stroke-width: 1.5;" x1="455" x2="613" y1="1088" y2="1088"/><rect fill="#FEFECE" filter="url(#f1)" height="48" style="stroke: #A80036; stroke-width: 1.5;" width="166" x="669" y="924"/><ellipse cx="684" cy="940" fill="#ADD1B2" rx="11" ry="11" style="stroke: #A80036; stroke-width: 1.0;"/><path d="M686.9731,945.6431 Q686.3921,945.9419 685.7529,946.0913 Q685.1138,946.2407 684.4082,946.2407 Q681.9014,946.2407 680.5815,944.5889 Q679.2617,942.937 679.2617,939.8159 Q679.2617,936.6865 680.5815,935.0347 Q681.9014,933.3828 684.4082,933.3828 Q685.1138,933.3828 685.7612,933.5322 Q686.4087,933.6816 686.9731,933.9805 L686.9731,936.7031 Q686.3423,936.1221 685.7488,935.8523 Q685.1553,935.5825 684.5244,935.5825 Q683.1797,935.5825 682.4949,936.6492 Q681.8101,937.7158 681.8101,939.8159 Q681.8101,941.9077 682.4949,942.9744 Q683.1797,944.041 684.5244,944.041 Q685.1553,944.041 685.7488,943.7712 Q686.3423,943.5015 686.9731,942.9204 Z "/><text fill="#000000" font-family="sans-serif" font-size="12" lengthAdjust="spacingAndGlyphs" textLength="134" x="698" y="944.5352">OAuthAssigneeProvider</text><line style="stroke: #A80036; stroke-width: 1.5;" x1="670" x2="834" y1="956" y2="956"/><line style="stroke: #A80036; stroke-width: 1.5;" x1="670" x2="834" y1="964" y2="964"/><rect fill="#FEFECE" filter="url(#f1)" height="86.8652" style="stroke: #A80036; stroke-width: 1.5;" width="154" x="2049" y="59.5"/><ellipse cx="2067.6" cy="75.5" fill="#ADD1B2" rx="11" ry="11" style="stroke: #A80036; stroke-width: 1.0;"/><path d="M2070.5731,81.1431 Q2069.9921,81.4419 2069.3529,81.5913 Q2068.7138,81.7407 2068.0082,81.7407 Q2065.5014,81.7407 2064.1815,80.0889 Q2062.8617,78.437 2062.8617,75.3159 Q2062.8617,72.1865 2064.1815,70.5347 Q2065.5014,68.8828 2068.0082,68.8828 Q2068.7138,68.8828 2069.3612,69.0322 Q2070.0087,69.1816 2070.5731,69.4805 L2070.5731,72.2031 Q2069.9423,71.6221 2069.3488,71.3523 Q2068.7553,71.0825 2068.1244,71.0825 Q2066.7797,71.0825 2066.0949,72.1492 Q2065.4101,73.2158 2065.4101,75.3159 Q2065.4101,77.4077 2066.0949,78.4744 Q2066.7797,79.541 2068.1244,79.541 Q2068.7553,79.541 2069.3488,79.2712 Q2069.9423,79.0015 2070.5731,78.4204 Z "/><text fill="#000000" font-family="sans-serif" font-size="12" lengthAdjust="spacingAndGlyphs" textLength="86" x="2082.4" y="80.0352">AccessRequest</text><rect fill="#FFFFFF" height="16.1328" style="stroke: #000000; stroke-width: 1.0; stroke-dasharray: 2.0,2.0;" width="26" x="2180" y="56.5"/><text fill="#000000" font-family="sans-serif" font-size="12" font-style="italic" lengthAdjust="spacingAndGlyphs" textLength="16" x="2185" y="69.1016">DB</text><line style="stroke: #A80036; stroke-width: 1.5;" x1="2050" x2="2202" y1="91.5" y2="91.5"/><text fill="#000000" font-family="sans-serif" font-size="11" lengthAdjust="spacingAndGlyphs" textLength="142" x="2055" y="106.1348">from: RoleAssigneeRecord</text><text fill="#000000" font-family="sans-serif" font-size="11" lengthAdjust="spacingAndGlyphs" textLength="75" x="2055" y="119.0898">dvo: DvObject</text><text fill="#000000" font-family="sans-serif" font-size="11" lengthAdjust="spacingAndGlyphs" textLength="79" x="2055" y="132.0449">metadata : TBD</text><line style="stroke: #A80036; stroke-width: 1.5;" x1="2050" x2="2202" y1="138.3652" y2="138.3652"/><rect fill="#FEFECE" filter="url(#f1)" height="73.9102" style="stroke: #A80036; stroke-width: 1.5;" width="111" x="1902.5" y="66"/><ellipse cx="1926.5" cy="82" fill="#B4A7E5" rx="11" ry="11" style="stroke: #A80036; stroke-width: 1.0;"/><path d="M1922.4277,77.7651 L1922.4277,75.6069 L1929.8071,75.6069 L1929.8071,77.7651 L1927.3418,77.7651 L1927.3418,85.8418 L1929.8071,85.8418 L1929.8071,88 L1922.4277,88 L1922.4277,85.8418 L1924.8931,85.8418 L1924.8931,77.7651 Z "/><text fill="#000000" font-family="sans-serif" font-size="12" font-style="italic" lengthAdjust="spacingAndGlyphs" textLength="59" x="1942.5" y="86.5352">Command</text><line style="stroke: #A80036; stroke-width: 1.5;" x1="1903.5" x2="2012.5" y1="98" y2="98"/><text fill="#000000" font-family="sans-serif" font-size="11" lengthAdjust="spacingAndGlyphs" textLength="78" x="1908.5" y="112.6348">issuedBy: User</text><text fill="#000000" font-family="sans-serif" font-size="11" lengthAdjust="spacingAndGlyphs" textLength="99" x="1908.5" y="125.5898">effects: DvObject[]</text><line style="stroke: #A80036; stroke-width: 1.5;" x1="1903.5" x2="2012.5" y1="131.9102" y2="131.9102"/><polygon fill="#FBFB77" filter="url(#f1)" points="2238.5,59.5,2238.5,146.0527,2597.5,146.0527,2597.5,69.5,2587.5,59.5,2238.5,59.5" style="stroke: #A80036; stroke-width: 1.0;"/><line style="stroke: #A80036; stroke-width: 1.0;" x1="2587.5" x2="2587.5" y1="59.5" y2="69.5"/><line style="stroke: #A80036; stroke-width: 1.0;" x1="2597.5" x2="2587.5" y1="69.5" y2="69.5"/><text fill="#000000" font-family="sans-serif" font-size="13" lengthAdjust="spacingAndGlyphs" textLength="81" x="2244.5" y="77.0684">Invariant: We</text><text fill="#000000" font-family="sans-serif" font-size="13" font-weight="bold" lengthAdjust="spacingAndGlyphs" textLength="46" x="2329.5" y="77.0684">always</text><text fill="#000000" font-family="sans-serif" font-size="13" lengthAdjust="spacingAndGlyphs" textLength="71" x="2379.5" y="77.0684">have a user</text><text fill="#000000" font-family="sans-serif" font-size="13" lengthAdjust="spacingAndGlyphs" textLength="338" x="2244.5" y="92.3789">Local users are just users supplied by a local provider</text><text fill="#000000" font-family="sans-serif" font-size="13" lengthAdjust="spacingAndGlyphs" textLength="222" x="2244.5" y="107.6895">Non-explicit groups, maps a set of</text><text fill="#000000" font-family="sans-serif" font-size="13" lengthAdjust="spacingAndGlyphs" textLength="152" x="2244.5" y="123">HTTP request properties</text><text fill="#000000" font-family="sans-serif" font-size="13" lengthAdjust="spacingAndGlyphs" textLength="208" x="2244.5" y="138.3105">to an internal RoleAsignee object</text><path d="M1732.28,460.894 C1658.24,476.881 1550.03,500.757 1456,523.5 C1335.35,552.683 1192.52,591.108 1132.2,607.517 " fill="none" style="stroke: #A80036; stroke-width: 1.0;"/><polygon fill="none" points="1731.19,453.968,1752.22,456.602,1734.14,467.655,1731.19,453.968" style="stroke: #A80036; stroke-width: 1.0;"/><path d="M1742.86,496.227 C1713.69,516.476 1680.53,539.489 1651.17,559.862 " fill="none" style="stroke: #A80036; stroke-width: 1.0;"/><polygon fill="none" points="1739.1,490.317,1759.52,484.665,1747.08,501.819,1739.1,490.317" style="stroke: #A80036; stroke-width: 1.0;"/><path d="M1103,660.955 C1103,696.996 1103,746.848 1103,775.733 " fill="none" style="stroke: #A80036; stroke-width: 1.0;"/><polygon fill="none" points="1096,660.856,1103,640.856,1110,660.856,1096,660.856" style="stroke: #A80036; stroke-width: 1.0;"/><path d="M1069.34,656.169 C1039.85,690.046 997.615,738.559 970.752,769.418 " fill="none" style="stroke: #A80036; stroke-width: 1.0;"/><polygon fill="none" points="1064.26,651.345,1082.67,640.856,1074.82,660.538,1064.26,651.345" style="stroke: #A80036; stroke-width: 1.0;"/><path d="M1162.95,833.906 C1204.66,856.8 1260.27,887.32 1303.2,910.885 " fill="none" style="stroke: #A80036; stroke-width: 1.0;"/><polygon fill="none" points="1159.31,839.894,1145.15,824.134,1166.05,827.621,1159.31,839.894" style="stroke: #A80036; stroke-width: 1.0;"/><path d="M1065.08,838.155 C1042.3,860.478 1013.45,888.75 990.857,910.885 " fill="none" style="stroke: #A80036; stroke-width: 1.0;"/><polygon fill="none" points="1060.21,833.132,1079.39,824.134,1070,843.132,1060.21,833.132" style="stroke: #A80036; stroke-width: 1.0;"/><path d="M1100.63,844.266 C1099.2,870.395 1097.43,902.653 1096.26,923.974 " fill="none" style="stroke: #A80036; stroke-width: 1.0;"/><polygon fill="none" points="1093.65,843.721,1101.73,824.134,1107.63,844.487,1093.65,843.721" style="stroke: #A80036; stroke-width: 1.0;"/><path d="M1134.26,840.013 C1155.74,866.813 1183.52,901.48 1201.55,923.974 " fill="none" style="stroke: #A80036; stroke-width: 1.0;"/><polygon fill="none" points="1128.58,844.119,1121.54,824.134,1139.51,835.364,1128.58,844.119" style="stroke: #A80036; stroke-width: 1.0;"/><path d="M1687.77,662.055 C1750.84,686.772 1829.75,718.759 1899,750 C1904.72,752.581 1910.6,755.311 1916.49,758.109 " fill="none" style="stroke: #A80036; stroke-width: 1.0;"/><polygon fill="none" points="1684.82,668.418,1668.74,654.626,1689.91,655.376,1684.82,668.418" style="stroke: #A80036; stroke-width: 1.0;"/><path d="M1571,693.439 C1571,723.062 1571,754.849 1571,775.712 " fill="none" style="stroke: #A80036; stroke-width: 1.0;"/><polygon fill="none" points="1564,693.437,1571,673.437,1578,693.437,1564,693.437" style="stroke: #A80036; stroke-width: 1.0;"/><path d="M1648.62,686.9 C1680.53,715.426 1715.77,746.935 1740.74,769.264 " fill="none" style="stroke: #A80036; stroke-width: 1.0;"/><polygon fill="none" points="1643.53,691.738,1633.29,673.189,1652.86,681.302,1643.53,691.738" style="stroke: #A80036; stroke-width: 1.0;"/><path d="M1513.81,689.085 C1491.46,717.06 1467.08,747.581 1449.69,769.346 " fill="none" style="stroke: #A80036; stroke-width: 1.0;"/><polygon fill="none" points="1508.36,684.694,1526.31,673.437,1519.3,693.432,1508.36,684.694" style="stroke: #A80036; stroke-width: 1.0;"/><path d="M1950.04,320.566 C1926.48,342.372 1896.21,370.388 1870.91,393.806 " fill="none" style="stroke: #A80036; stroke-width: 1.0; stroke-dasharray: 7.0,7.0;"/><polygon fill="#A80036" points="1867.21,397.226,1876.5306,394.0438,1870.8779,393.828,1871.0938,388.1752,1867.21,397.226" style="stroke: #A80036; stroke-width: 1.0;"/><text fill="#000000" font-family="sans-serif" font-size="13" lengthAdjust="spacingAndGlyphs" textLength="48" x="1917" y="364.0684">Locates</text><path d="M1184.87,800 C1203.46,800 1222.06,800 1240.66,800 " fill="none" style="stroke: #A80036; stroke-width: 1.0;"/><polygon fill="#A80036" points="1171.66,800,1177.66,804,1183.66,800,1177.66,796,1171.66,800" style="stroke: #A80036; stroke-width: 1.0;"/><text fill="#000000" font-family="sans-serif" font-size="13" lengthAdjust="spacingAndGlyphs" textLength="8" x="1179.6072" y="796.765">1</text><text fill="#000000" font-family="sans-serif" font-size="13" lengthAdjust="spacingAndGlyphs" textLength="22" x="1211.1842" y="796.6787">0..*</text><path d="M2455.63,283.5 C2483.62,283.5 2520.71,283.5 2551.96,283.5 " fill="none" style="stroke: #A80036; stroke-width: 1.0;"/><polygon fill="#A80036" points="2557.32,283.5,2548.32,279.5,2552.32,283.5,2548.32,287.5,2557.32,283.5" style="stroke: #A80036; stroke-width: 1.0;"/><text fill="#000000" font-family="sans-serif" font-size="13" lengthAdjust="spacingAndGlyphs" textLength="65" x="2474" y="277.0684">Defined at</text><path d="M2579.8,310.956 C2541.37,340.689 2479.58,388.493 2442.97,416.815 " fill="none" style="stroke: #A80036; stroke-width: 1.0;"/><polygon fill="#A80036" points="2583.91,307.78,2574.3428,310.1186,2579.9538,310.8375,2579.2348,316.4485,2583.91,307.78" style="stroke: #A80036; stroke-width: 1.0;"/><text fill="#000000" font-family="sans-serif" font-size="13" lengthAdjust="spacingAndGlyphs" textLength="14" x="2526" y="364.0684">At</text><text fill="#000000" font-family="sans-serif" font-size="13" lengthAdjust="spacingAndGlyphs" textLength="8" x="2567.6006" y="328.1326">1</text><path d="M2413,312.784 C2413,342.616 2413,389.066 2413,416.815 " fill="none" style="stroke: #A80036; stroke-width: 1.0;"/><polygon fill="#A80036" points="2413,307.78,2409,316.78,2413,312.78,2417,316.78,2413,307.78" style="stroke: #A80036; stroke-width: 1.0;"/><text fill="#000000" font-family="sans-serif" font-size="13" lengthAdjust="spacingAndGlyphs" textLength="50" x="2414" y="364.0684">Assigns</text><text fill="#000000" font-family="sans-serif" font-size="13" lengthAdjust="spacingAndGlyphs" textLength="8" x="2404.025" y="328.1326">1</text><path d="M2350.27,416.995 C2279.55,391.057 2163.82,348.616 2082.45,318.772 " fill="none" style="stroke: #A80036; stroke-width: 1.0;"/><polygon fill="#A80036" points="2077.63,317.003,2084.7118,323.8476,2082.3266,318.7181,2087.456,316.333,2077.63,317.003" style="stroke: #A80036; stroke-width: 1.0;"/><text fill="#000000" font-family="sans-serif" font-size="13" lengthAdjust="spacingAndGlyphs" textLength="16" x="2215" y="364.0684">To</text><text fill="#000000" font-family="sans-serif" font-size="13" lengthAdjust="spacingAndGlyphs" textLength="8" x="2085.5904" y="316.8232">1</text><path d="M1971.75,756.346 C1957.75,732.172 1940.32,701.208 1926,673 C1894.28,610.532 1861.45,536.527 1841.13,489.429 " fill="none" style="stroke: #A80036; stroke-width: 1.0; stroke-dasharray: 7.0,7.0;"/><polygon fill="#A80036" points="1839.08,484.673,1838.9727,494.5213,1841.0608,489.2639,1846.3182,491.352,1839.08,484.673" style="stroke: #A80036; stroke-width: 1.0;"/><text fill="#000000" font-family="sans-serif" font-size="13" lengthAdjust="spacingAndGlyphs" textLength="56" x="1927" y="621.5684">Contains</text><path d="M1996.13,743.241 C1994.56,642.072 1991.26,429.866 1989.77,333.717 " fill="none" style="stroke: #A80036; stroke-width: 1.0;"/><polygon fill="#A80036" points="1989.56,320.679,1985.7011,329.7404,1989.6381,325.6784,1993.7001,329.6154,1989.56,320.679" style="stroke: #A80036; stroke-width: 1.0;"/><line style="stroke: #A80036; stroke-width: 1.0;" x1="1989.6381" x2="1989.765" y1="325.6784" y2="333.677"/><polygon fill="none" points="1996.34,756.465,2000.2459,750.4033,1996.1528,744.4665,1992.2469,750.5281,1996.34,756.465" style="stroke: #A80036; stroke-width: 1.0;"/><path d="M2079.14,749.63 C2204.3,674.411 2438.96,533.377 2541.23,471.912 " fill="none" style="stroke: #A80036; stroke-width: 1.0;"/><polygon fill="#A80036" points="2552.48,465.149,2545.2767,464.8132,2542.1963,471.3332,2549.3995,471.669,2552.48,465.149" style="stroke: #A80036; stroke-width: 1.0;"/><polygon fill="#A80036" points="2067.75,756.478,2077.5242,755.2677,2072.0349,753.9012,2073.4014,748.4119,2067.75,756.478" style="stroke: #A80036; stroke-width: 1.0;"/><line style="stroke: #A80036; stroke-width: 1.0;" x1="2072.0349" x2="2078.895" y1="753.9012" y2="749.7815"/><text fill="#000000" font-family="sans-serif" font-size="13" lengthAdjust="spacingAndGlyphs" textLength="22" x="2055.6461" y="745.6327">0..*</text><text fill="#000000" font-family="sans-serif" font-size="13" lengthAdjust="spacingAndGlyphs" textLength="8" x="2534.1158" y="485.4697">1</text><path d="M2607.58,327.93 C2603.31,356.743 2597.89,393.423 2594.43,416.815 " fill="none" style="stroke: #A80036; stroke-width: 1.0;"/><polygon fill="none" points="2600.71,326.54,2610.56,307.78,2614.55,328.589,2600.71,326.54" style="stroke: #A80036; stroke-width: 1.0;"/><path d="M446,679.741 C446,698.173 446,718.352 446,736.783 " fill="none" style="stroke: #A80036; stroke-width: 1.0;"/><polygon fill="#A80036" points="446,749.844,450,740.844,446,744.844,442,740.844,446,749.844" style="stroke: #A80036; stroke-width: 1.0;"/><line style="stroke: #A80036; stroke-width: 1.0;" x1="446" x2="446" y1="744.844" y2="736.844"/><polygon fill="#A80036" points="446,666.617,442,672.617,446,678.617,450,672.617,446,666.617" style="stroke: #A80036; stroke-width: 1.0;"/><text fill="#000000" font-family="sans-serif" font-size="13" lengthAdjust="spacingAndGlyphs" textLength="22" x="422.4531" y="739.339">1..*</text><path d="M566.803,858.638 C614.589,881.438 666.763,906.332 703.52,923.869 " fill="none" style="stroke: #A80036; stroke-width: 1.0; stroke-dasharray: 7.0,7.0;"/><polygon fill="none" points="563.781,864.952,548.745,850.022,569.81,852.317,563.781,864.952" style="stroke: #A80036; stroke-width: 1.0;"/><path d="M480.549,868.255 C488.084,882.923 495.779,897.903 502.406,910.805 " fill="none" style="stroke: #A80036; stroke-width: 1.0;"/><polygon fill="none" points="474.095,871.011,471.183,850.022,486.548,864.613,474.095,871.011" style="stroke: #A80036; stroke-width: 1.0;"/><path d="M384.641,864.535 C366.842,882.966 348.252,902.214 333.514,917.475 " fill="none" style="stroke: #A80036; stroke-width: 1.0;"/><polygon fill="none" points="379.728,859.546,398.657,850.022,389.798,869.271,379.728,859.546" style="stroke: #A80036; stroke-width: 1.0;"/><path d="M605.479,994.746 C619.047,1002.154 632.923,1009.766 646,1017 C664.071,1026.997 683.981,1038.1702 700.961,1047.7475 " fill="none" style="stroke: #A80036; stroke-width: 1.0;"/><polygon fill="none" points="602.126,1000.891,587.914,985.174,608.825,988.597,602.126,1000.891" style="stroke: #A80036; stroke-width: 1.0;"/><path d="M355.856,990.418 C366.623,997.564 378.288,1004.219 390,1009 C440.229,1029.503 577.647,1038.1605 631,1048 C636.806,1049.0708 642.776,1050.2065 648.791,1051.3771 " fill="none" style="stroke: #A80036; stroke-width: 1.0;"/><polygon fill="none" points="351.484,995.897,339.27,978.582,359.616,984.501,351.484,995.897" style="stroke: #A80036; stroke-width: 1.0;"/><path d="M526.986,1005.172 C528.587,1020.196 530.229,1035.6136 531.522,1047.7476 " fill="none" style="stroke: #A80036; stroke-width: 1.0;"/><polygon fill="none" points="520.024,1005.903,524.865,985.274,533.945,1004.419,520.024,1005.903" style="stroke: #A80036; stroke-width: 1.0;"/><path d="M359.739,990.118 C369.587,996.793 379.928,1003.358 390,1009 C416.24,1023.699 446.657,1037.26 472.756,1047.9269 " fill="none" style="stroke: #A80036; stroke-width: 1.0;"/><polygon fill="none" points="355.596,995.762,343.243,978.546,363.636,984.301,355.596,995.762" style="stroke: #A80036; stroke-width: 1.0;"/><path d="M319.407,997.825 C324.501,1015.087 329.995,1033.7055 334.166,1047.842 " fill="none" style="stroke: #A80036; stroke-width: 1.0;"/><polygon fill="none" points="312.661,999.696,313.715,978.533,326.089,995.734,312.661,999.696" style="stroke: #A80036; stroke-width: 1.0;"/><path d="M246.729,990.331 C219.668,1009.526 188.504,1031.6311 165.649,1047.842 " fill="none" style="stroke: #A80036; stroke-width: 1.0;"/><polygon fill="none" points="243.001,984.394,263.364,978.533,251.1,995.813,243.001,984.394" style="stroke: #A80036; stroke-width: 1.0;"/><path d="M600.622,800 C615.129,800 629.635,800 644.142,800 " fill="none" style="stroke: #A80036; stroke-width: 1.0;"/><polygon fill="#A80036" points="657.465,800,648.465,796,652.465,800,648.465,804,657.465,800" style="stroke: #A80036; stroke-width: 1.0;"/><line style="stroke: #A80036; stroke-width: 1.0;" x1="652.465" x2="644.465" y1="800" y2="800"/><polygon fill="#A80036" points="587.504,800,593.504,804,599.504,800,593.504,796,587.504,800" style="stroke: #A80036; stroke-width: 1.0;"/><path d="M1473.5,631.459 C1388.05,643.42 1260.45,660.626 1149,673 C1002.188,689.3 963.548,677.795 818,703 C806.256,705.034 691.617,734.735 592.667,760.567 " fill="none" style="stroke: #A80036; stroke-width: 1.0; stroke-dasharray: 7.0,7.0;"/><polygon fill="#A80036" points="587.67,761.872,597.3886,763.4688,592.5078,760.609,595.3677,755.7283,587.67,761.872" style="stroke: #A80036; stroke-width: 1.0;"/><text fill="#000000" font-family="sans-serif" font-size="13" lengthAdjust="spacingAndGlyphs" textLength="66" x="819" y="716.5684">Created By</text><path d="M1468.22,633.952 C1335,655.047 1095.44,692.219 890,720 C779.101,734.996 750.031,729.589 640,750 C622.922,753.168 605.115,756.968 587.515,761.031 " fill="none" style="stroke: #A80036; stroke-width: 1.0; stroke-dasharray: 7.0,7.0;"/><polygon fill="#A80036" points="1473.3,633.146,1463.7833,630.6098,1468.3621,633.9316,1465.0403,638.5104,1473.3,633.146" style="stroke: #A80036; stroke-width: 1.0;"/><text fill="#000000" font-family="sans-serif" font-size="13" lengthAdjust="spacingAndGlyphs" textLength="47" x="1003" y="716.5684">Creates</text><path d="M1068.84,625.342 C1020.44,636.378 929.113,656.938 851,673 C781.416,687.308 762.292,683.431 694,703 C649.395,715.781 601.591,733.323 559.974,749.917 " fill="none" style="stroke: #A80036; stroke-width: 1.0; stroke-dasharray: 7.0,7.0;"/><polygon fill="#A80036" points="1073.95,624.174,1064.2849,622.2803,1069.0757,625.2883,1066.0678,630.0791,1073.95,624.174" style="stroke: #A80036; stroke-width: 1.0;"/><text fill="#000000" font-family="sans-serif" font-size="13" lengthAdjust="spacingAndGlyphs" textLength="47" x="695" y="716.5684">Creates</text><path d="M2093.19,146.755 C2070.93,175.755 2041.7,213.842 2019.86,242.289 " fill="none" style="stroke: #A80036; stroke-width: 1.0; stroke-dasharray: 7.0,7.0;"/><polygon fill="#A80036" points="2016.7,246.414,2025.35,241.7046,2019.7419,242.4457,2019.0007,236.8376,2016.7,246.414" style="stroke: #A80036; stroke-width: 1.0;"/><text fill="#000000" font-family="sans-serif" font-size="13" lengthAdjust="spacingAndGlyphs" textLength="32" x="2067" y="192.0684">From</text><path d="M2175.84,146.712 C2189.63,156.259 2205.17,165.135 2221,170.5 C2260.18,183.783 2366.47,170.178 2407,178.5 C2437.73,184.81 2444.57,190.242 2473,203.5 C2507.28,219.486 2544.55,240.539 2572.16,256.891 " fill="none" style="stroke: #A80036; stroke-width: 1.0; stroke-dasharray: 7.0,7.0;"/><polygon fill="#A80036" points="2576.5,259.474,2570.8102,251.435,2572.2029,256.9177,2566.7201,258.3104,2576.5,259.474" style="stroke: #A80036; stroke-width: 1.0;"/><text fill="#000000" font-family="sans-serif" font-size="13" lengthAdjust="spacingAndGlyphs" textLength="36" x="2457" y="192.0684">about</text><path d="M1902.46,107.82 C1818.5,115.58 1656.32,138.385 1536,203.5 C1346.31,306.158 1179.2,513.726 1123.05,588.162 " fill="none" style="stroke: #A80036; stroke-width: 1.0; stroke-dasharray: 7.0,7.0;"/><polygon fill="#A80036" points="1119.83,592.45,1128.4404,587.6687,1122.8387,588.4565,1122.0509,582.8548,1119.83,592.45" style="stroke: #A80036; stroke-width: 1.0;"/><text fill="#000000" font-family="sans-serif" font-size="13" lengthAdjust="spacingAndGlyphs" textLength="59" x="1336" y="364.0684">Issued By</text><text fill="#000000" font-family="sans-serif" font-size="13" lengthAdjust="spacingAndGlyphs" textLength="22" x="1872.3504" y="105.0861">0..*</text><text fill="#000000" font-family="sans-serif" font-size="13" lengthAdjust="spacingAndGlyphs" textLength="8" x="1115.2781" y="581.581">1</text><path d="M1988.4,140.058 C2000.39,151.829 2015.11,163.629 2031,170.5 C2039.26,174.071 2345.02,194.851 2354,195.5 C2380.44,197.412 2447.59,195.949 2473,203.5 C2511.42,214.921 2550.87,238.196 2578.24,256.539 " fill="none" style="stroke: #A80036; stroke-width: 1.0; stroke-dasharray: 7.0,7.0;"/><polygon fill="#A80036" points="2582.52,259.438,2577.3045,251.0834,2578.3779,256.6375,2572.8238,257.7108,2582.52,259.438" style="stroke: #A80036; stroke-width: 1.0;"/><text fill="#000000" font-family="sans-serif" font-size="13" lengthAdjust="spacingAndGlyphs" textLength="43" x="2364" y="192.0684">effects</text><text fill="#000000" font-family="sans-serif" font-size="13" lengthAdjust="spacingAndGlyphs" textLength="22" x="2549.1035" y="248.5658">1..*</text></g></svg>