<?xml version="1.0" encoding="UTF-8" standalone="yes"?><svg xmlns="http://www.w3.org/2000/svg" xmlns:xlink="http://www.w3.org/1999/xlink" height="703pt" style="width:1324px;height:703px;" version="1.1" viewBox="0 0 1324 703" width="1324pt"><defs><filter height="300%" id="f1" width="300%" x="-1" y="-1"><feGaussianBlur result="blurOut" stdDeviation="2.0"/><feColorMatrix in="blurOut" result="blurOut2" type="matrix" values="0 0 0 0 0 0 0 0 0 0 0 0 0 0 0 0 0 0 .4 0"/><feOffset dx="4.0" dy="4.0" in="blurOut2" result="blurOut3"/><feBlend in="SourceGraphic" in2="blurOut3" mode="normal"/></filter></defs><g><text fill="#000000" font-family="sans-serif" font-size="14" font-weight="bold" lengthAdjust="spacingAndGlyphs" textLength="227" x="549" y="20.5352">Authentication in Dataverse 4.0</text><rect fill="#FFFFFF" filter="url(#f1)" height="208.1289" style="stroke: #000000; stroke-width: 2.0;" width="444" x="871.5" y="394.7715"/><rect fill="#FFFFFF" height="132.1973" style="stroke: none; stroke-width: 1.0;" width="444" x="871.5" y="470.7031"/><line style="stroke: #A80036; stroke-width: 1.0; stroke-dasharray: 5.0,5.0;" x1="23" x2="23" y1="113.9766" y2="619.9004"/><line style="stroke: #A80036; stroke-width: 1.0; stroke-dasharray: 5.0,5.0;" x1="377" x2="377" y1="113.9766" y2="619.9004"/><line style="stroke: #A80036; stroke-width: 1.0; stroke-dasharray: 5.0,5.0;" x1="522.5" x2="522.5" y1="113.9766" y2="619.9004"/><line style="stroke: #A80036; stroke-width: 1.0; stroke-dasharray: 5.0,5.0;" x1="744.5" x2="744.5" y1="113.9766" y2="619.9004"/><line style="stroke: #A80036; stroke-width: 1.0; stroke-dasharray: 5.0,5.0;" x1="922.5" x2="922.5" y1="113.9766" y2="619.9004"/><line style="stroke: #A80036; stroke-width: 1.0; stroke-dasharray: 5.0,5.0;" x1="1287.5" x2="1287.5" y1="113.9766" y2="619.9004"/><text fill="#000000" font-family="sans-serif" font-size="14" lengthAdjust="spacingAndGlyphs" textLength="31" x="5" y="111.0234">User</text><ellipse cx="23.5" cy="40.4883" fill="#FEFECE" filter="url(#f1)" rx="8" ry="8" style="stroke: #A80036; stroke-width: 2.0;"/><path d="M23.5,48.4883 L23.5,75.4883 M10.5,56.4883 L36.5,56.4883 M23.5,75.4883 L10.5,90.4883 M23.5,75.4883 L36.5,90.4883 " fill="#FEFECE" filter="url(#f1)" style="stroke: #A80036; stroke-width: 2.0;"/><text fill="#000000" font-family="sans-serif" font-size="14" lengthAdjust="spacingAndGlyphs" textLength="31" x="5" y="631.5352">User</text><ellipse cx="23.5" cy="644.4883" fill="#FEFECE" filter="url(#f1)" rx="8" ry="8" style="stroke: #A80036; stroke-width: 2.0;"/><path d="M23.5,652.4883 L23.5,679.4883 M10.5,660.4883 L36.5,660.4883 M23.5,679.4883 L10.5,694.4883 M23.5,679.4883 L36.5,694.4883 " fill="#FEFECE" filter="url(#f1)" style="stroke: #A80036; stroke-width: 2.0;"/><rect fill="#FEFECE" filter="url(#f1)" height="30.4883" style="stroke: #A80036; stroke-width: 1.5;" width="81" x="335" y="78.4883"/><text fill="#000000" font-family="sans-serif" font-size="14" lengthAdjust="spacingAndGlyphs" textLength="67" x="342" y="99.0234">Dataverse</text><rect fill="#FEFECE" filter="url(#f1)" height="30.4883" style="stroke: #A80036; stroke-width: 1.5;" width="81" x="335" y="618"/><text fill="#000000" font-family="sans-serif" font-size="14" lengthAdjust="spacingAndGlyphs" textLength="67" x="342" y="638.5352">Dataverse</text><rect fill="#FEFECE" filter="url(#f1)" height="30.4883" style="stroke: #A80036; stroke-width: 1.5;" width="166" x="437.5" y="78.4883"/><text fill="#000000" font-family="sans-serif" font-size="14" lengthAdjust="spacingAndGlyphs" textLength="152" x="444.5" y="99.0234">RoleAssigneeManager</text><rect fill="#FEFECE" filter="url(#f1)" height="30.4883" style="stroke: #A80036; stroke-width: 1.5;" width="166" x="437.5" y="618"/><text fill="#000000" font-family="sans-serif" font-size="14" lengthAdjust="spacingAndGlyphs" textLength="152" x="444.5" y="638.5352">RoleAssigneeManager</text><rect fill="#FEFECE" filter="url(#f1)" height="30.4883" style="stroke: #A80036; stroke-width: 1.5;" width="250" x="617.5" y="78.4883"/><text fill="#000000" font-family="sans-serif" font-size="14" lengthAdjust="spacingAndGlyphs" textLength="236" x="624.5" y="99.0234">RoleAssigneeProvider: authSystem</text><rect fill="#FEFECE" filter="url(#f1)" height="30.4883" style="stroke: #A80036; stroke-width: 1.5;" width="250" x="617.5" y="618"/><text fill="#000000" font-family="sans-serif" font-size="14" lengthAdjust="spacingAndGlyphs" textLength="236" x="624.5" y="638.5352">RoleAssigneeProvider: authSystem</text><rect fill="#FEFECE" filter="url(#f1)" height="30.4883" style="stroke: #A80036; stroke-width: 1.5;" width="78" x="881.5" y="78.4883"/><text fill="#000000" font-family="sans-serif" font-size="14" lengthAdjust="spacingAndGlyphs" textLength="64" x="888.5" y="99.0234">UserBean</text><rect fill="#FEFECE" filter="url(#f1)" height="30.4883" style="stroke: #A80036; stroke-width: 1.5;" width="78" x="881.5" y="618"/><text fill="#000000" font-family="sans-serif" font-size="14" lengthAdjust="spacingAndGlyphs" textLength="64" x="888.5" y="638.5352">UserBean</text><text fill="#000000" font-family="sans-serif" font-size="14" lengthAdjust="spacingAndGlyphs" textLength="18" x="1275.5" y="111.0234">db</text><path d="M1269.5,65.4883 C1269.5,55.4883 1287.5,55.4883 1287.5,55.4883 C1287.5,55.4883 1305.5,55.4883 1305.5,65.4883 L1305.5,87.4883 C1305.5,97.4883 1287.5,97.4883 1287.5,97.4883 C1287.5,97.4883 1269.5,97.4883 1269.5,87.4883 L1269.5,65.4883 " fill="#FEFECE" filter="url(#f1)" style="stroke: #A80036; stroke-width: 1.5;"/><path d="M1269.5,65.4883 C1269.5,75.4883 1287.5,75.4883 1287.5,75.4883 C1287.5,75.4883 1305.5,75.4883 1305.5,65.4883 " fill="none" style="stroke: #A80036; stroke-width: 1.5;"/><text fill="#000000" font-family="sans-serif" font-size="14" lengthAdjust="spacingAndGlyphs" textLength="18" x="1275.5" y="631.5352">db</text><path d="M1269.5,644.4883 C1269.5,634.4883 1287.5,634.4883 1287.5,634.4883 C1287.5,634.4883 1305.5,634.4883 1305.5,644.4883 L1305.5,666.4883 C1305.5,676.4883 1287.5,676.4883 1287.5,676.4883 C1287.5,676.4883 1269.5,676.4883 1269.5,666.4883 L1269.5,644.4883 " fill="#FEFECE" filter="url(#f1)" style="stroke: #A80036; stroke-width: 1.5;"/><path d="M1269.5,644.4883 C1269.5,654.4883 1287.5,654.4883 1287.5,654.4883 C1287.5,654.4883 1305.5,654.4883 1305.5,644.4883 " fill="none" style="stroke: #A80036; stroke-width: 1.5;"/><polygon fill="#A80036" points="365.5,140.9766,375.5,144.9766,365.5,148.9766,369.5,144.9766" style="stroke: #A80036; stroke-width: 1.0;"/><line style="stroke: #A80036; stroke-width: 1.0; stroke-dasharray: 2.0,2.0;" x1="23.5" x2="371.5" y1="144.9766" y2="144.9766"/><text fill="#0000FF" font-family="sans-serif" font-size="13" lengthAdjust="spacingAndGlyphs" textLength="8" x="30.5" y="140.5449">1</text><text fill="#000000" font-family="sans-serif" font-size="13" lengthAdjust="spacingAndGlyphs" textLength="35" x="42.5" y="140.5449">GET /</text><polygon fill="#A80036" points="34.5,170.2871,24.5,174.2871,34.5,178.2871,30.5,174.2871" style="stroke: #A80036; stroke-width: 1.0;"/><line style="stroke: #A80036; stroke-width: 1.0; stroke-dasharray: 2.0,2.0;" x1="28.5" x2="376.5" y1="174.2871" y2="174.2871"/><text fill="#0000FF" font-family="sans-serif" font-size="13" lengthAdjust="spacingAndGlyphs" textLength="8" x="40.5" y="169.8555">2</text><text fill="#000000" font-family="sans-serif" font-size="13" lengthAdjust="spacingAndGlyphs" textLength="135" x="52.5" y="169.8555">"Select Login System"</text><polygon fill="#A80036" points="365.5,199.5977,375.5,203.5977,365.5,207.5977,369.5,203.5977" style="stroke: #A80036; stroke-width: 1.0;"/><line style="stroke: #A80036; stroke-width: 1.0; stroke-dasharray: 2.0,2.0;" x1="23.5" x2="371.5" y1="203.5977" y2="203.5977"/><text fill="#0000FF" font-family="sans-serif" font-size="13" lengthAdjust="spacingAndGlyphs" textLength="8" x="30.5" y="199.166">3</text><text fill="#000000" font-family="sans-serif" font-size="13" lengthAdjust="spacingAndGlyphs" textLength="318" x="42.5" y="199.166">authSystem, credentials (e.g. username, password)</text><polygon fill="#A80036" points="510.5,228.9082,520.5,232.9082,510.5,236.9082,514.5,232.9082" style="stroke: #A80036; stroke-width: 1.0;"/><line style="stroke: #A80036; stroke-width: 1.0; stroke-dasharray: 2.0,2.0;" x1="377.5" x2="516.5" y1="232.9082" y2="232.9082"/><text fill="#0000FF" font-family="sans-serif" font-size="13" lengthAdjust="spacingAndGlyphs" textLength="8" x="384.5" y="228.4766">4</text><text fill="#000000" font-family="sans-serif" font-size="13" lengthAdjust="spacingAndGlyphs" textLength="109" x="396.5" y="228.4766">get( authSystem )</text><polygon fill="#A80036" points="388.5,258.2188,378.5,262.2188,388.5,266.2188,384.5,262.2188" style="stroke: #A80036; stroke-width: 1.0;"/><line style="stroke: #A80036; stroke-width: 1.0; stroke-dasharray: 2.0,2.0;" x1="382.5" x2="521.5" y1="262.2188" y2="262.2188"/><text fill="#0000FF" font-family="sans-serif" font-size="13" lengthAdjust="spacingAndGlyphs" textLength="8" x="394.5" y="257.7871">5</text><text fill="#000000" font-family="sans-serif" font-size="13" lengthAdjust="spacingAndGlyphs" textLength="73" x="406.5" y="257.7871">authSystem</text><polygon fill="#A80036" points="732.5,287.5293,742.5,291.5293,732.5,295.5293,736.5,291.5293" style="stroke: #A80036; stroke-width: 1.0;"/><line style="stroke: #A80036; stroke-width: 1.0; stroke-dasharray: 2.0,2.0;" x1="377.5" x2="738.5" y1="291.5293" y2="291.5293"/><text fill="#0000FF" font-family="sans-serif" font-size="13" lengthAdjust="spacingAndGlyphs" textLength="8" x="384.5" y="287.0977">6</text><text fill="#000000" font-family="sans-serif" font-size="13" lengthAdjust="spacingAndGlyphs" textLength="191" x="396.5" y="287.0977">authenticateUser( credentials )</text><polygon fill="#A80036" points="388.5,316.8398,378.5,320.8398,388.5,324.8398,384.5,320.8398" style="stroke: #A80036; stroke-width: 1.0;"/><line style="stroke: #A80036; stroke-width: 1.0; stroke-dasharray: 2.0,2.0;" x1="382.5" x2="743.5" y1="320.8398" y2="320.8398"/><text fill="#0000FF" font-family="sans-serif" font-size="13" lengthAdjust="spacingAndGlyphs" textLength="8" x="394.5" y="316.4082">7</text><text fill="#000000" font-family="sans-serif" font-size="13" lengthAdjust="spacingAndGlyphs" textLength="27" x="406.5" y="316.4082">user</text><polygon fill="#A80036" points="910.5,346.1504,920.5,350.1504,910.5,354.1504,914.5,350.1504" style="stroke: #A80036; stroke-width: 1.0;"/><line style="stroke: #A80036; stroke-width: 1.0; stroke-dasharray: 2.0,2.0;" x1="377.5" x2="916.5" y1="350.1504" y2="350.1504"/><text fill="#0000FF" font-family="sans-serif" font-size="13" lengthAdjust="spacingAndGlyphs" textLength="8" x="384.5" y="345.7188">8</text><text fill="#000000" font-family="sans-serif" font-size="13" lengthAdjust="spacingAndGlyphs" textLength="90" x="396.5" y="345.7188">setUser( user )</text><polygon fill="#A80036" points="1275.5,375.4609,1285.5,379.4609,1275.5,383.4609,1279.5,379.4609" style="stroke: #A80036; stroke-width: 1.0;"/><line style="stroke: #A80036; stroke-width: 1.0; stroke-dasharray: 2.0,2.0;" x1="922.5" x2="1281.5" y1="379.4609" y2="379.4609"/><text fill="#0000FF" font-family="sans-serif" font-size="13" lengthAdjust="spacingAndGlyphs" textLength="8" x="929.5" y="375.0293">9</text><text fill="#000000" font-family="sans-serif" font-size="13" lengthAdjust="spacingAndGlyphs" textLength="219" x="941.5" y="375.0293">lookupAuthenticatedUser( user.id )</text><rect fill="none" height="208.1289" style="stroke: #000000; stroke-width: 2.0;" width="444" x="871.5" y="394.7715"/><polygon fill="#EEEEEE" points="871.5,394.7715,933.5,394.7715,933.5,401.7715,923.5,411.7715,871.5,411.7715,871.5,394.7715" style="stroke: #000000; stroke-width: 2.0;"/><text fill="#000000" font-family="sans-serif" font-size="13" font-weight="bold" lengthAdjust="spacingAndGlyphs" textLength="17" x="886.5" y="408.3398">alt</text><text fill="#000000" font-family="sans-serif" font-size="11" font-weight="bold" lengthAdjust="spacingAndGlyphs" textLength="56" x="948.5" y="407.4063">[id found]</text><polygon fill="#A80036" points="933.5,429.082,923.5,433.082,933.5,437.082,929.5,433.082" style="stroke: #A80036; stroke-width: 1.0;"/><line style="stroke: #A80036; stroke-width: 1.0; stroke-dasharray: 2.0,2.0;" x1="927.5" x2="1286.5" y1="433.082" y2="433.082"/><text fill="#0000FF" font-family="sans-serif" font-size="13" lengthAdjust="spacingAndGlyphs" textLength="16" x="939.5" y="428.6504">10</text><text fill="#000000" font-family="sans-serif" font-size="13" lengthAdjust="spacingAndGlyphs" textLength="114" x="959.5" y="428.6504">authenticatedUser</text><polygon fill="#A80036" points="1275.5,458.3926,1285.5,462.3926,1275.5,466.3926,1279.5,462.3926" style="stroke: #A80036; stroke-width: 1.0;"/><line style="stroke: #A80036; stroke-width: 1.0; stroke-dasharray: 2.0,2.0;" x1="922.5" x2="1281.5" y1="462.3926" y2="462.3926"/><text fill="#0000FF" font-family="sans-serif" font-size="13" lengthAdjust="spacingAndGlyphs" textLength="16" x="929.5" y="457.9609">11</text><text fill="#000000" font-family="sans-serif" font-size="13" lengthAdjust="spacingAndGlyphs" textLength="173" x="949.5" y="457.9609">update( authenticatedUser )</text><line style="stroke: #000000; stroke-width: 1.0; stroke-dasharray: 2.0,2.0;" x1="871.5" x2="1315.5" y1="471.7031" y2="471.7031"/><text fill="#000000" font-family="sans-serif" font-size="11" font-weight="bold" lengthAdjust="spacingAndGlyphs" textLength="78" x="876.5" y="482.3379">[id not found]</text><polygon fill="#A80036" points="933.5,502.6582,923.5,506.6582,933.5,510.6582,929.5,506.6582" style="stroke: #A80036; stroke-width: 1.0;"/><line style="stroke: #A80036; stroke-width: 1.0; stroke-dasharray: 2.0,2.0;" x1="927.5" x2="1286.5" y1="506.6582" y2="506.6582"/><text fill="#0000FF" font-family="sans-serif" font-size="13" lengthAdjust="spacingAndGlyphs" textLength="16" x="939.5" y="502.2266">12</text><text fill="#000000" font-family="sans-serif" font-size="13" lengthAdjust="spacingAndGlyphs" textLength="103" x="959.5" y="502.2266">"user not found"</text><polygon fill="#A80036" points="1275.5,531.9688,1285.5,535.9688,1275.5,539.9688,1279.5,535.9688" style="stroke: #A80036; stroke-width: 1.0;"/><line style="stroke: #A80036; stroke-width: 1.0; stroke-dasharray: 2.0,2.0;" x1="922.5" x2="1281.5" y1="535.9688" y2="535.9688"/><text fill="#0000FF" font-family="sans-serif" font-size="13" lengthAdjust="spacingAndGlyphs" textLength="16" x="929.5" y="531.5371">13</text><text fill="#000000" font-family="sans-serif" font-size="13" lengthAdjust="spacingAndGlyphs" textLength="197" x="949.5" y="531.5371">createAuthenticatedUser( user )</text><polygon fill="#A80036" points="933.5,561.2793,923.5,565.2793,933.5,569.2793,929.5,565.2793" style="stroke: #A80036; stroke-width: 1.0;"/><line style="stroke: #A80036; stroke-width: 1.0; stroke-dasharray: 2.0,2.0;" x1="927.5" x2="1286.5" y1="565.2793" y2="565.2793"/><text fill="#0000FF" font-family="sans-serif" font-size="13" lengthAdjust="spacingAndGlyphs" textLength="16" x="939.5" y="560.8477">14</text><text fill="#000000" font-family="sans-serif" font-size="13" lengthAdjust="spacingAndGlyphs" textLength="114" x="959.5" y="560.8477">authenticatedUser</text><polygon fill="#A80036" points="1275.5,590.5898,1285.5,594.5898,1275.5,598.5898,1279.5,594.5898" style="stroke: #A80036; stroke-width: 1.0;"/><line style="stroke: #A80036; stroke-width: 1.0; stroke-dasharray: 2.0,2.0;" x1="922.5" x2="1281.5" y1="594.5898" y2="594.5898"/><text fill="#0000FF" font-family="sans-serif" font-size="13" lengthAdjust="spacingAndGlyphs" textLength="16" x="929.5" y="590.1582">15</text><text fill="#000000" font-family="sans-serif" font-size="13" lengthAdjust="spacingAndGlyphs" textLength="321" x="949.5" y="590.1582">updateLookupTable( user.id, authenticatedUser.id )</text></g></svg>