<?xml version="1.0" encoding="UTF-8" standalone="yes"?><svg xmlns="http://www.w3.org/2000/svg" xmlns:xlink="http://www.w3.org/1999/xlink" height="895pt" style="width:1281px;height:895px;" version="1.1" viewBox="0 0 1281 895" width="1281pt"><defs><filter height="300%" id="f1" width="300%" x="-1" y="-1"><feGaussianBlur result="blurOut" stdDeviation="2.0"/><feColorMatrix in="blurOut" result="blurOut2" type="matrix" values="0 0 0 0 0 0 0 0 0 0 0 0 0 0 0 0 0 0 .4 0"/><feOffset dx="4.0" dy="4.0" in="blurOut2" result="blurOut3"/><feBlend in="SourceGraphic" in2="blurOut3" mode="normal"/></filter></defs><g><polygon fill="#FFFFFF" filter="url(#f1)" points="736,24,836,24,843,46.4883,1250,46.4883,1250,274,736,274,736,24" style="stroke: #000000; stroke-width: 2.0;"/><line style="stroke: #000000; stroke-width: 2.0;" x1="736" x2="843" y1="46.4883" y2="46.4883"/><text fill="#000000" font-family="sans-serif" font-size="14" font-weight="bold" lengthAdjust="spacingAndGlyphs" textLength="94" x="739" y="40.5352">existingCode</text><polygon fill="#FFFFFF" filter="url(#f1)" points="22,324,99,324,106,346.4883,1274,346.4883,1274,888,22,888,22,324" style="stroke: #000000; stroke-width: 2.0;"/><line style="stroke: #000000; stroke-width: 2.0;" x1="22" x2="106" y1="346.4883" y2="346.4883"/><text fill="#000000" font-family="sans-serif" font-size="14" font-weight="bold" lengthAdjust="spacingAndGlyphs" textLength="71" x="25" y="340.5352">assignees</text><rect fill="#FEFECE" filter="url(#f1)" height="48" style="stroke: #A80036; stroke-width: 1.5;" width="57" x="988.75" y="72"/><ellipse cx="1003.75" cy="88" fill="#ADD1B2" rx="11" ry="11" style="stroke: #A80036; stroke-width: 1.0;"/><path d="M1006.7231,93.6431 Q1006.1421,93.9419 1005.5029,94.0913 Q1004.8638,94.2407 1004.1582,94.2407 Q1001.6514,94.2407 1000.3315,92.5889 Q999.0117,90.937 999.0117,87.8159 Q999.0117,84.6865 1000.3315,83.0347 Q1001.6514,81.3828 1004.1582,81.3828 Q1004.8638,81.3828 1005.5112,81.5322 Q1006.1587,81.6816 1006.7231,81.9805 L1006.7231,84.7031 Q1006.0923,84.1221 1005.4988,83.8523 Q1004.9053,83.5825 1004.2744,83.5825 Q1002.9297,83.5825 1002.2449,84.6492 Q1001.5601,85.7158 1001.5601,87.8159 Q1001.5601,89.9077 1002.2449,90.9744 Q1002.9297,92.041 1004.2744,92.041 Q1004.9053,92.041 1005.4988,91.7712 Q1006.0923,91.5015 1006.7231,90.9204 Z "/><text fill="#000000" font-family="sans-serif" font-size="12" lengthAdjust="spacingAndGlyphs" textLength="25" x="1017.75" y="92.5352">Role</text><line style="stroke: #A80036; stroke-width: 1.5;" x1="989.75" x2="1044.75" y1="104" y2="104"/><line style="stroke: #A80036; stroke-width: 1.5;" x1="989.75" x2="1044.75" y1="112" y2="112"/><rect fill="#FEFECE" filter="url(#f1)" height="48" style="stroke: #A80036; stroke-width: 1.5;" width="85" x="1148.75" y="72"/><ellipse cx="1163.75" cy="88" fill="#ADD1B2" rx="11" ry="11" style="stroke: #A80036; stroke-width: 1.0;"/><path d="M1166.7231,93.6431 Q1166.1421,93.9419 1165.5029,94.0913 Q1164.8638,94.2407 1164.1582,94.2407 Q1161.6514,94.2407 1160.3315,92.5889 Q1159.0117,90.937 1159.0117,87.8159 Q1159.0117,84.6865 1160.3315,83.0347 Q1161.6514,81.3828 1164.1582,81.3828 Q1164.8638,81.3828 1165.5112,81.5322 Q1166.1587,81.6816 1166.7231,81.9805 L1166.7231,84.7031 Q1166.0923,84.1221 1165.4988,83.8523 Q1164.9053,83.5825 1164.2744,83.5825 Q1162.9297,83.5825 1162.2449,84.6492 Q1161.5601,85.7158 1161.5601,87.8159 Q1161.5601,89.9077 1162.2449,90.9744 Q1162.9297,92.041 1164.2744,92.041 Q1164.9053,92.041 1165.4988,91.7712 Q1166.0923,91.5015 1166.7231,90.9204 Z "/><text fill="#000000" font-family="sans-serif" font-size="12" lengthAdjust="spacingAndGlyphs" textLength="53" x="1177.75" y="92.5352">DvObject</text><line style="stroke: #A80036; stroke-width: 1.5;" x1="1149.75" x2="1232.75" y1="104" y2="104"/><line style="stroke: #A80036; stroke-width: 1.5;" x1="1149.75" x2="1232.75" y1="112" y2="112"/><rect fill="#FEFECE" filter="url(#f1)" height="48" style="stroke: #A80036; stroke-width: 1.5;" width="123" x="959.75" y="210"/><ellipse cx="974.75" cy="226" fill="#ADD1B2" rx="11" ry="11" style="stroke: #A80036; stroke-width: 1.0;"/><path d="M977.7231,231.6431 Q977.1421,231.9419 976.5029,232.0913 Q975.8638,232.2407 975.1582,232.2407 Q972.6514,232.2407 971.3315,230.5889 Q970.0117,228.937 970.0117,225.8159 Q970.0117,222.6865 971.3315,221.0347 Q972.6514,219.3828 975.1582,219.3828 Q975.8638,219.3828 976.5112,219.5322 Q977.1587,219.6816 977.7231,219.9805 L977.7231,222.7031 Q977.0923,222.1221 976.4988,221.8523 Q975.9053,221.5825 975.2744,221.5825 Q973.9297,221.5825 973.2449,222.6492 Q972.5601,223.7158 972.5601,225.8159 Q972.5601,227.9077 973.2449,228.9744 Q973.9297,230.041 975.2744,230.041 Q975.9053,230.041 976.4988,229.7712 Q977.0923,229.5015 977.7231,228.9204 Z "/><text fill="#000000" font-family="sans-serif" font-size="12" lengthAdjust="spacingAndGlyphs" textLength="91" x="988.75" y="230.5352">RoleAssignment</text><line style="stroke: #A80036; stroke-width: 1.5;" x1="960.75" x2="1081.75" y1="242" y2="242"/><line style="stroke: #A80036; stroke-width: 1.5;" x1="960.75" x2="1081.75" y1="250" y2="250"/><rect fill="#FEFECE" filter="url(#f1)" height="48" style="stroke: #A80036; stroke-width: 1.5;" width="90" x="1144" y="210"/><ellipse cx="1159" cy="226" fill="#ADD1B2" rx="11" ry="11" style="stroke: #A80036; stroke-width: 1.0;"/><path d="M1161.9731,231.6431 Q1161.3921,231.9419 1160.7529,232.0913 Q1160.1138,232.2407 1159.4082,232.2407 Q1156.9014,232.2407 1155.5815,230.5889 Q1154.2617,228.937 1154.2617,225.8159 Q1154.2617,222.6865 1155.5815,221.0347 Q1156.9014,219.3828 1159.4082,219.3828 Q1160.1138,219.3828 1160.7612,219.5322 Q1161.4087,219.6816 1161.9731,219.9805 L1161.9731,222.7031 Q1161.3423,222.1221 1160.7488,221.8523 Q1160.1553,221.5825 1159.5244,221.5825 Q1158.1797,221.5825 1157.4949,222.6492 Q1156.8101,223.7158 1156.8101,225.8159 Q1156.8101,227.9077 1157.4949,228.9744 Q1158.1797,230.041 1159.5244,230.041 Q1160.1553,230.041 1160.7488,229.7712 Q1161.3423,229.5015 1161.9731,228.9204 Z "/><text fill="#000000" font-family="sans-serif" font-size="12" lengthAdjust="spacingAndGlyphs" textLength="58" x="1173" y="230.5352">Dataverse</text><line style="stroke: #A80036; stroke-width: 1.5;" x1="1145" x2="1233" y1="242" y2="242"/><line style="stroke: #A80036; stroke-width: 1.5;" x1="1145" x2="1233" y1="250" y2="250"/><polygon fill="#FBFB77" filter="url(#f1)" points="752.75,60.5,752.75,131.7422,953.75,131.7422,953.75,70.5,943.75,60.5,752.75,60.5" style="stroke: #A80036; stroke-width: 1.0;"/><line style="stroke: #A80036; stroke-width: 1.0;" x1="943.75" x2="943.75" y1="60.5" y2="70.5"/><line style="stroke: #A80036; stroke-width: 1.0;" x1="953.75" x2="943.75" y1="70.5" y2="70.5"/><text fill="#000000" font-family="sans-serif" font-size="13" lengthAdjust="spacingAndGlyphs" textLength="142" x="758.75" y="78.0684">A role can be assigned</text><text fill="#000000" font-family="sans-serif" font-size="13" lengthAdjust="spacingAndGlyphs" textLength="152" x="758.75" y="93.3789">at the DvObject where it</text><text fill="#000000" font-family="sans-serif" font-size="13" lengthAdjust="spacingAndGlyphs" textLength="142" x="758.75" y="108.6895">is defined, or at any of</text><text fill="#000000" font-family="sans-serif" font-size="13" lengthAdjust="spacingAndGlyphs" textLength="180" x="758.75" y="124">that DvObject's descendants</text><rect fill="#FEFECE" filter="url(#f1)" height="73.9102" style="stroke: #A80036; stroke-width: 1.5;" width="137" x="952.75" y="360"/><ellipse cx="992.05" cy="376" fill="#ADD1B2" rx="11" ry="11" style="stroke: #A80036; stroke-width: 1.0;"/><path d="M995.0231,381.6431 Q994.4421,381.9419 993.8029,382.0913 Q993.1638,382.2407 992.4582,382.2407 Q989.9514,382.2407 988.6315,380.5889 Q987.3117,378.937 987.3117,375.8159 Q987.3117,372.6865 988.6315,371.0347 Q989.9514,369.3828 992.4582,369.3828 Q993.1638,369.3828 993.8112,369.5322 Q994.4587,369.6816 995.0231,369.9805 L995.0231,372.7031 Q994.3923,372.1221 993.7988,371.8523 Q993.2053,371.5825 992.5744,371.5825 Q991.2297,371.5825 990.5449,372.6492 Q989.8601,373.7158 989.8601,375.8159 Q989.8601,377.9077 990.5449,378.9744 Q991.2297,380.041 992.5744,380.041 Q993.2053,380.041 993.7988,379.7712 Q994.3923,379.5015 995.0231,378.9204 Z "/><text fill="#000000" font-family="sans-serif" font-size="12" lengthAdjust="spacingAndGlyphs" textLength="51" x="1011.45" y="380.5352">Assignee</text><line style="stroke: #A80036; stroke-width: 1.5;" x1="953.75" x2="1088.75" y1="392" y2="392"/><ellipse cx="963.75" cy="403.9775" fill="none" rx="3" ry="3" style="stroke: #038048; stroke-width: 1.0;"/><text fill="#000000" font-family="sans-serif" font-size="11" lengthAdjust="spacingAndGlyphs" textLength="111" x="972.75" y="406.6348">showInLists: Boolean</text><line style="stroke: #A80036; stroke-width: 1.5;" x1="953.75" x2="1088.75" y1="412.9551" y2="412.9551"/><ellipse cx="963.75" cy="424.9326" fill="#84BE84" rx="3" ry="3" style="stroke: #038048; stroke-width: 1.0;"/><text fill="#000000" font-family="sans-serif" font-size="11" lengthAdjust="spacingAndGlyphs" textLength="78" x="972.75" y="427.5898">displayString()</text><rect fill="#FEFECE" filter="url(#f1)" height="60.9551" style="stroke: #A80036; stroke-width: 1.5;" width="99" x="545.75" y="518.5"/><ellipse cx="579.2" cy="534.5" fill="#ADD1B2" rx="11" ry="11" style="stroke: #A80036; stroke-width: 1.0;"/><path d="M582.1731,540.1431 Q581.5921,540.4419 580.9529,540.5913 Q580.3138,540.7407 579.6082,540.7407 Q577.1014,540.7407 575.7815,539.0889 Q574.4617,537.437 574.4617,534.3159 Q574.4617,531.1865 575.7815,529.5347 Q577.1014,527.8828 579.6082,527.8828 Q580.3138,527.8828 580.9612,528.0322 Q581.6087,528.1816 582.1731,528.4805 L582.1731,531.2031 Q581.5423,530.6221 580.9488,530.3523 Q580.3553,530.0825 579.7244,530.0825 Q578.3797,530.0825 577.6949,531.1492 Q577.0101,532.2158 577.0101,534.3159 Q577.0101,536.4077 577.6949,537.4744 Q578.3797,538.541 579.7244,538.541 Q580.3553,538.541 580.9488,538.2712 Q581.5423,538.0015 582.1731,537.4204 Z "/><text fill="#000000" font-family="sans-serif" font-size="12" lengthAdjust="spacingAndGlyphs" textLength="26" x="597.3" y="539.0352">User</text><line style="stroke: #A80036; stroke-width: 1.5;" x1="546.75" x2="643.75" y1="550.5" y2="550.5"/><ellipse cx="556.75" cy="562.4775" fill="none" rx="3" ry="3" style="stroke: #038048; stroke-width: 1.0;"/><text fill="#000000" font-family="sans-serif" font-size="11" lengthAdjust="spacingAndGlyphs" textLength="73" x="565.75" y="565.1348">locator:String</text><line style="stroke: #A80036; stroke-width: 1.5;" x1="546.75" x2="643.75" y1="571.4551" y2="571.4551"/><rect fill="#FEFECE" filter="url(#f1)" height="48" style="stroke: #A80036; stroke-width: 1.5;" width="91" x="549.75" y="668"/><ellipse cx="564.75" cy="684" fill="#ADD1B2" rx="11" ry="11" style="stroke: #A80036; stroke-width: 1.0;"/><path d="M567.7231,689.6431 Q567.1421,689.9419 566.5029,690.0913 Q565.8638,690.2407 565.1582,690.2407 Q562.6514,690.2407 561.3315,688.5889 Q560.0117,686.937 560.0117,683.8159 Q560.0117,680.6865 561.3315,679.0347 Q562.6514,677.3828 565.1582,677.3828 Q565.8638,677.3828 566.5112,677.5322 Q567.1587,677.6816 567.7231,677.9805 L567.7231,680.7031 Q567.0923,680.1221 566.4988,679.8523 Q565.9053,679.5825 565.2744,679.5825 Q563.9297,679.5825 563.2449,680.6492 Q562.5601,681.7158 562.5601,683.8159 Q562.5601,685.9077 563.2449,686.9744 Q563.9297,688.041 565.2744,688.041 Q565.9053,688.041 566.4988,687.7712 Q567.0923,687.5015 567.7231,686.9204 Z "/><text fill="#000000" font-family="sans-serif" font-size="12" lengthAdjust="spacingAndGlyphs" textLength="59" x="578.75" y="688.5352">SingleUser</text><line style="stroke: #A80036; stroke-width: 1.5;" x1="550.75" x2="639.75" y1="700" y2="700"/><line style="stroke: #A80036; stroke-width: 1.5;" x1="550.75" x2="639.75" y1="708" y2="708"/><rect fill="#FEFECE" filter="url(#f1)" height="48" style="stroke: #A80036; stroke-width: 1.5;" width="69" x="181.75" y="811"/><ellipse cx="196.75" cy="827" fill="#ADD1B2" rx="11" ry="11" style="stroke: #A80036; stroke-width: 1.0;"/><path d="M199.7231,832.6431 Q199.1421,832.9419 198.5029,833.0913 Q197.8638,833.2407 197.1582,833.2407 Q194.6514,833.2407 193.3315,831.5889 Q192.0117,829.937 192.0117,826.8159 Q192.0117,823.6865 193.3315,822.0347 Q194.6514,820.3828 197.1582,820.3828 Q197.8638,820.3828 198.5112,820.5322 Q199.1587,820.6816 199.7231,820.9805 L199.7231,823.7031 Q199.0923,823.1221 198.4988,822.8523 Q197.9053,822.5825 197.2744,822.5825 Q195.9297,822.5825 195.2449,823.6492 Q194.5601,824.7158 194.5601,826.8159 Q194.5601,828.9077 195.2449,829.9744 Q195.9297,831.041 197.2744,831.041 Q197.9053,831.041 198.4988,830.7712 Q199.0923,830.5015 199.7231,829.9204 Z "/><text fill="#000000" font-family="sans-serif" font-size="12" lengthAdjust="spacingAndGlyphs" textLength="37" x="210.75" y="831.5352">IpUser</text><line style="stroke: #A80036; stroke-width: 1.5;" x1="182.75" x2="249.75" y1="843" y2="843"/><line style="stroke: #A80036; stroke-width: 1.5;" x1="182.75" x2="249.75" y1="851" y2="851"/><rect fill="#FEFECE" filter="url(#f1)" height="48" style="stroke: #A80036; stroke-width: 1.5;" width="117" x="216.75" y="668"/><ellipse cx="231.75" cy="684" fill="#ADD1B2" rx="11" ry="11" style="stroke: #A80036; stroke-width: 1.0;"/><path d="M234.7231,689.6431 Q234.1421,689.9419 233.5029,690.0913 Q232.8638,690.2407 232.1582,690.2407 Q229.6514,690.2407 228.3315,688.5889 Q227.0117,686.937 227.0117,683.8159 Q227.0117,680.6865 228.3315,679.0347 Q229.6514,677.3828 232.1582,677.3828 Q232.8638,677.3828 233.5112,677.5322 Q234.1587,677.6816 234.7231,677.9805 L234.7231,680.7031 Q234.0923,680.1221 233.4988,679.8523 Q232.9053,679.5825 232.2744,679.5825 Q230.9297,679.5825 230.2449,680.6492 Q229.5601,681.7158 229.5601,683.8159 Q229.5601,685.9077 230.2449,686.9744 Q230.9297,688.041 232.2744,688.041 Q232.9053,688.041 233.4988,687.7712 Q234.0923,687.5015 234.7231,686.9204 Z "/><text fill="#000000" font-family="sans-serif" font-size="12" lengthAdjust="spacingAndGlyphs" textLength="85" x="245.75" y="688.5352">AggregateUser</text><line style="stroke: #A80036; stroke-width: 1.5;" x1="217.75" x2="332.75" y1="700" y2="700"/><line style="stroke: #A80036; stroke-width: 1.5;" x1="217.75" x2="332.75" y1="708" y2="708"/><polygon fill="#FBFB77" filter="url(#f1)" points="285.75,814.5,285.75,855.1211,448.75,855.1211,448.75,824.5,438.75,814.5,285.75,814.5" style="stroke: #A80036; stroke-width: 1.0;"/><polygon fill="#FBFB77" points="285.75,814.5,285.75,855.1211,448.75,855.1211,448.75,824.5,438.75,814.5,358.162,814.5,290.192,716.283,350.162,814.5,285.75,814.5" style="stroke: #A80036; stroke-width: 1.0;"/><line style="stroke: #A80036; stroke-width: 1.0;" x1="438.75" x2="438.75" y1="814.5" y2="824.5"/><line style="stroke: #A80036; stroke-width: 1.0;" x1="448.75" x2="438.75" y1="824.5" y2="824.5"/><text fill="#000000" font-family="sans-serif" font-size="13" lengthAdjust="spacingAndGlyphs" textLength="124" x="291.75" y="832.0684">Maintains invariant:</text><text fill="#000000" font-family="sans-serif" font-size="13" lengthAdjust="spacingAndGlyphs" textLength="17" x="291.75" y="847.3789">we</text><text fill="#000000" font-family="sans-serif" font-size="13" font-weight="bold" lengthAdjust="spacingAndGlyphs" textLength="46" x="312.75" y="847.3789">always</text><text fill="#000000" font-family="sans-serif" font-size="13" lengthAdjust="spacingAndGlyphs" textLength="71" x="362.75" y="847.3789">have a user</text><rect fill="#FEFECE" filter="url(#f1)" height="73.9102" style="stroke: #A80036; stroke-width: 1.5;" width="113" x="850.75" y="798"/><ellipse cx="865.75" cy="814" fill="#ADD1B2" rx="11" ry="11" style="stroke: #A80036; stroke-width: 1.0;"/><path d="M868.7231,819.6431 Q868.1421,819.9419 867.5029,820.0913 Q866.8638,820.2407 866.1582,820.2407 Q863.6514,820.2407 862.3315,818.5889 Q861.0117,816.937 861.0117,813.8159 Q861.0117,810.6865 862.3315,809.0347 Q863.6514,807.3828 866.1582,807.3828 Q866.8638,807.3828 867.5112,807.5322 Q868.1587,807.6816 868.7231,807.9805 L868.7231,810.7031 Q868.0923,810.1221 867.4988,809.8523 Q866.9053,809.5825 866.2744,809.5825 Q864.9297,809.5825 864.2449,810.6492 Q863.5601,811.7158 863.5601,813.8159 Q863.5601,815.9077 864.2449,816.9744 Q864.9297,818.041 866.2744,818.041 Q866.9053,818.041 867.4988,817.7712 Q868.0923,817.5015 868.7231,816.9204 Z "/><text fill="#000000" font-family="sans-serif" font-size="12" lengthAdjust="spacingAndGlyphs" textLength="81" x="879.75" y="818.5352">DatabaseUser</text><line style="stroke: #A80036; stroke-width: 1.5;" x1="851.75" x2="962.75" y1="830" y2="830"/><ellipse cx="861.75" cy="841.9775" fill="none" rx="3" ry="3" style="stroke: #038048; stroke-width: 1.0;"/><text fill="#000000" font-family="sans-serif" font-size="11" lengthAdjust="spacingAndGlyphs" textLength="40" x="870.75" y="844.6348">id:Long</text><ellipse cx="861.75" cy="854.9326" fill="none" rx="3" ry="3" style="stroke: #038048; stroke-width: 1.0;"/><text fill="#000000" font-family="sans-serif" font-size="11" lengthAdjust="spacingAndGlyphs" textLength="64" x="870.75" y="857.5898">name:String</text><line style="stroke: #A80036; stroke-width: 1.5;" x1="851.75" x2="962.75" y1="863.9102" y2="863.9102"/><rect fill="#FEFECE" filter="url(#f1)" height="48" style="stroke: #A80036; stroke-width: 1.5;" width="82" x="484" y="811"/><ellipse cx="499" cy="827" fill="#ADD1B2" rx="11" ry="11" style="stroke: #A80036; stroke-width: 1.0;"/><path d="M501.9731,832.6431 Q501.3921,832.9419 500.7529,833.0913 Q500.1138,833.2407 499.4082,833.2407 Q496.9014,833.2407 495.5815,831.5889 Q494.2617,829.937 494.2617,826.8159 Q494.2617,823.6865 495.5815,822.0347 Q496.9014,820.3828 499.4082,820.3828 Q500.1138,820.3828 500.7612,820.5322 Q501.4087,820.6816 501.9731,820.9805 L501.9731,823.7031 Q501.3423,823.1221 500.7488,822.8523 Q500.1553,822.5825 499.5244,822.5825 Q498.1797,822.5825 497.4949,823.6492 Q496.8101,824.7158 496.8101,826.8159 Q496.8101,828.9077 497.4949,829.9744 Q498.1797,831.041 499.5244,831.041 Q500.1553,831.041 500.7488,830.7712 Q501.3423,830.5015 501.9731,829.9204 Z "/><text fill="#000000" font-family="sans-serif" font-size="12" lengthAdjust="spacingAndGlyphs" textLength="50" x="513" y="831.5352">ShibUser</text><line style="stroke: #A80036; stroke-width: 1.5;" x1="485" x2="565" y1="843" y2="843"/><line style="stroke: #A80036; stroke-width: 1.5;" x1="485" x2="565" y1="851" y2="851"/><rect fill="#FEFECE" filter="url(#f1)" height="48" style="stroke: #A80036; stroke-width: 1.5;" width="92" x="601" y="811"/><ellipse cx="616" cy="827" fill="#ADD1B2" rx="11" ry="11" style="stroke: #A80036; stroke-width: 1.0;"/><path d="M618.9731,832.6431 Q618.3921,832.9419 617.7529,833.0913 Q617.1138,833.2407 616.4082,833.2407 Q613.9014,833.2407 612.5815,831.5889 Q611.2617,829.937 611.2617,826.8159 Q611.2617,823.6865 612.5815,822.0347 Q613.9014,820.3828 616.4082,820.3828 Q617.1138,820.3828 617.7612,820.5322 Q618.4087,820.6816 618.9731,820.9805 L618.9731,823.7031 Q618.3423,823.1221 617.7488,822.8523 Q617.1553,822.5825 616.5244,822.5825 Q615.1797,822.5825 614.4949,823.6492 Q613.8101,824.7158 613.8101,826.8159 Q613.8101,828.9077 614.4949,829.9744 Q615.1797,831.041 616.5244,831.041 Q617.1553,831.041 617.7488,830.7712 Q618.3423,830.5015 618.9731,829.9204 Z "/><text fill="#000000" font-family="sans-serif" font-size="12" lengthAdjust="spacingAndGlyphs" textLength="60" x="630" y="831.5352">OauthUser</text><line style="stroke: #A80036; stroke-width: 1.5;" x1="602" x2="692" y1="843" y2="843"/><line style="stroke: #A80036; stroke-width: 1.5;" x1="602" x2="692" y1="851" y2="851"/><rect fill="#FEFECE" filter="url(#f1)" height="48" style="stroke: #A80036; stroke-width: 1.5;" width="87" x="728.75" y="811"/><ellipse cx="743.75" cy="827" fill="#ADD1B2" rx="11" ry="11" style="stroke: #A80036; stroke-width: 1.0;"/><path d="M746.7231,832.6431 Q746.1421,832.9419 745.5029,833.0913 Q744.8638,833.2407 744.1582,833.2407 Q741.6514,833.2407 740.3315,831.5889 Q739.0117,829.937 739.0117,826.8159 Q739.0117,823.6865 740.3315,822.0347 Q741.6514,820.3828 744.1582,820.3828 Q744.8638,820.3828 745.5112,820.5322 Q746.1587,820.6816 746.7231,820.9805 L746.7231,823.7031 Q746.0923,823.1221 745.4988,822.8523 Q744.9053,822.5825 744.2744,822.5825 Q742.9297,822.5825 742.2449,823.6492 Q741.5601,824.7158 741.5601,826.8159 Q741.5601,828.9077 742.2449,829.9744 Q742.9297,831.041 744.2744,831.041 Q744.9053,831.041 745.4988,830.7712 Q746.0923,830.5015 746.7231,829.9204 Z "/><text fill="#000000" font-family="sans-serif" font-size="12" lengthAdjust="spacingAndGlyphs" textLength="55" x="757.75" y="831.5352">LdapUser</text><line style="stroke: #A80036; stroke-width: 1.5;" x1="729.75" x2="814.75" y1="843" y2="843"/><line style="stroke: #A80036; stroke-width: 1.5;" x1="729.75" x2="814.75" y1="851" y2="851"/><rect fill="#FEFECE" filter="url(#f1)" height="60.9551" style="stroke: #A80036; stroke-width: 1.5;" width="108" x="38" y="804.5"/><ellipse cx="60.65" cy="820.5" fill="#ADD1B2" rx="11" ry="11" style="stroke: #A80036; stroke-width: 1.0;"/><path d="M63.6231,826.1431 Q63.0421,826.4419 62.4029,826.5913 Q61.7638,826.7407 61.0582,826.7407 Q58.5514,826.7407 57.2315,825.0889 Q55.9117,823.437 55.9117,820.3159 Q55.9117,817.1865 57.2315,815.5347 Q58.5514,813.8828 61.0582,813.8828 Q61.7638,813.8828 62.4112,814.0322 Q63.0587,814.1816 63.6231,814.4805 L63.6231,817.2031 Q62.9923,816.6221 62.3988,816.3523 Q61.8053,816.0825 61.1744,816.0825 Q59.8297,816.0825 59.1449,817.1492 Q58.4601,818.2158 58.4601,820.3159 Q58.4601,822.4077 59.1449,823.4744 Q59.8297,824.541 61.1744,824.541 Q61.8053,824.541 62.3988,824.2712 Q62.9923,824.0015 63.6231,823.4204 Z "/><text fill="#000000" font-family="sans-serif" font-size="12" lengthAdjust="spacingAndGlyphs" textLength="59" x="76.35" y="825.0352">GuestUser</text><line style="stroke: #A80036; stroke-width: 1.5;" x1="39" x2="145" y1="836.5" y2="836.5"/><text fill="#000000" font-family="sans-serif" font-size="11" lengthAdjust="spacingAndGlyphs" textLength="96" x="44" y="851.1348">showInLists: False</text><line style="stroke: #A80036; stroke-width: 1.5;" x1="39" x2="145" y1="857.4551" y2="857.4551"/><rect fill="#FEFECE" filter="url(#f1)" height="73.9102" style="stroke: #A80036; stroke-width: 1.5;" width="84" x="750" y="512"/><ellipse cx="770.4" cy="528" fill="#ADD1B2" rx="11" ry="11" style="stroke: #A80036; stroke-width: 1.0;"/><path d="M773.3731,533.6431 Q772.7921,533.9419 772.1529,534.0913 Q771.5138,534.2407 770.8082,534.2407 Q768.3014,534.2407 766.9815,532.5889 Q765.6617,530.937 765.6617,527.8159 Q765.6617,524.6865 766.9815,523.0347 Q768.3014,521.3828 770.8082,521.3828 Q771.5138,521.3828 772.1612,521.5322 Q772.8087,521.6816 773.3731,521.9805 L773.3731,524.7031 Q772.7423,524.1221 772.1488,523.8523 Q771.5553,523.5825 770.9244,523.5825 Q769.5797,523.5825 768.8949,524.6492 Q768.2101,525.7158 768.2101,527.8159 Q768.2101,529.9077 768.8949,530.9744 Q769.5797,532.041 770.9244,532.041 Q771.5553,532.041 772.1488,531.7712 Q772.7423,531.5015 773.3731,530.9204 Z "/><text fill="#000000" font-family="sans-serif" font-size="12" lengthAdjust="spacingAndGlyphs" textLength="40" x="785.6" y="532.5352">ApiKey</text><line style="stroke: #A80036; stroke-width: 1.5;" x1="751" x2="833" y1="544" y2="544"/><ellipse cx="761" cy="555.9775" fill="none" rx="3" ry="3" style="stroke: #038048; stroke-width: 1.0;"/><text fill="#000000" font-family="sans-serif" font-size="11" lengthAdjust="spacingAndGlyphs" textLength="53" x="770" y="558.6348">key:String</text><ellipse cx="761" cy="568.9326" fill="none" rx="3" ry="3" style="stroke: #038048; stroke-width: 1.0;"/><text fill="#000000" font-family="sans-serif" font-size="11" lengthAdjust="spacingAndGlyphs" textLength="58" x="770" y="571.5898">title: String</text><line style="stroke: #A80036; stroke-width: 1.5;" x1="751" x2="833" y1="577.9102" y2="577.9102"/><rect fill="#FEFECE" filter="url(#f1)" height="60.9551" style="stroke: #A80036; stroke-width: 1.5;" width="144" x="930" y="518.5"/><ellipse cx="979.75" cy="534.5" fill="#ADD1B2" rx="11" ry="11" style="stroke: #A80036; stroke-width: 1.0;"/><path d="M982.7231,540.1431 Q982.1421,540.4419 981.5029,540.5913 Q980.8638,540.7407 980.1582,540.7407 Q977.6514,540.7407 976.3315,539.0889 Q975.0117,537.437 975.0117,534.3159 Q975.0117,531.1865 976.3315,529.5347 Q977.6514,527.8828 980.1582,527.8828 Q980.8638,527.8828 981.5112,528.0322 Q982.1587,528.1816 982.7231,528.4805 L982.7231,531.2031 Q982.0923,530.6221 981.4988,530.3523 Q980.9053,530.0825 980.2744,530.0825 Q978.9297,530.0825 978.2449,531.1492 Q977.5601,532.2158 977.5601,534.3159 Q977.5601,536.4077 978.2449,537.4744 Q978.9297,538.541 980.2744,538.541 Q980.9053,538.541 981.4988,538.2712 Q982.0923,538.0015 982.7231,537.4204 Z "/><text fill="#000000" font-family="sans-serif" font-size="12" lengthAdjust="spacingAndGlyphs" textLength="36" x="1000.25" y="539.0352">Group</text><line style="stroke: #A80036; stroke-width: 1.5;" x1="931" x2="1073" y1="550.5" y2="550.5"/><line style="stroke: #A80036; stroke-width: 1.5;" x1="931" x2="1073" y1="558.5" y2="558.5"/><ellipse cx="941" cy="570.4775" fill="#84BE84" rx="3" ry="3" style="stroke: #038048; stroke-width: 1.0;"/><text fill="#000000" font-family="sans-serif" font-size="11" lengthAdjust="spacingAndGlyphs" textLength="118" x="950" y="573.1348">contains( a:Assignee )</text><rect fill="#FEFECE" filter="url(#f1)" height="86.8652" style="stroke: #A80036; stroke-width: 1.5;" width="138" x="1120" y="648.5"/><ellipse cx="1148.05" cy="664.5" fill="#ADD1B2" rx="11" ry="11" style="stroke: #A80036; stroke-width: 1.0;"/><path d="M1151.0231,670.1431 Q1150.4421,670.4419 1149.8029,670.5913 Q1149.1638,670.7407 1148.4582,670.7407 Q1145.9514,670.7407 1144.6315,669.0889 Q1143.3117,667.437 1143.3117,664.3159 Q1143.3117,661.1865 1144.6315,659.5347 Q1145.9514,657.8828 1148.4582,657.8828 Q1149.1638,657.8828 1149.8112,658.0322 Q1150.4587,658.1816 1151.0231,658.4805 L1151.0231,661.2031 Q1150.3923,660.6221 1149.7988,660.3523 Q1149.2053,660.0825 1148.5744,660.0825 Q1147.2297,660.0825 1146.5449,661.1492 Q1145.8601,662.2158 1145.8601,664.3159 Q1145.8601,666.4077 1146.5449,667.4744 Q1147.2297,668.541 1148.5744,668.541 Q1149.2053,668.541 1149.7988,668.2712 Q1150.3923,668.0015 1151.0231,667.4204 Z "/><text fill="#000000" font-family="sans-serif" font-size="12" lengthAdjust="spacingAndGlyphs" textLength="77" x="1164.95" y="669.0352">ExplicitGroup</text><line style="stroke: #A80036; stroke-width: 1.5;" x1="1121" x2="1257" y1="680.5" y2="680.5"/><ellipse cx="1131" cy="692.4775" fill="none" rx="3" ry="3" style="stroke: #038048; stroke-width: 1.0;"/><text fill="#000000" font-family="sans-serif" font-size="11" lengthAdjust="spacingAndGlyphs" textLength="79" x="1140" y="695.1348">list: Assignee[]</text><line style="stroke: #A80036; stroke-width: 1.5;" x1="1121" x2="1257" y1="701.4551" y2="701.4551"/><ellipse cx="1131" cy="713.4326" fill="#84BE84" rx="3" ry="3" style="stroke: #038048; stroke-width: 1.0;"/><text fill="#000000" font-family="sans-serif" font-size="11" lengthAdjust="spacingAndGlyphs" textLength="92" x="1140" y="716.0898">add( a:Assignee )</text><ellipse cx="1131" cy="726.3877" fill="#84BE84" rx="3" ry="3" style="stroke: #038048; stroke-width: 1.0;"/><text fill="#000000" font-family="sans-serif" font-size="11" lengthAdjust="spacingAndGlyphs" textLength="112" x="1140" y="729.0449">remove( a:Assignee )</text><rect fill="#FEFECE" filter="url(#f1)" height="48" style="stroke: #A80036; stroke-width: 1.5;" width="126" x="826" y="668"/><ellipse cx="841" cy="684" fill="#ADD1B2" rx="11" ry="11" style="stroke: #A80036; stroke-width: 1.0;"/><path d="M843.9731,689.6431 Q843.3921,689.9419 842.7529,690.0913 Q842.1138,690.2407 841.4082,690.2407 Q838.9014,690.2407 837.5815,688.5889 Q836.2617,686.937 836.2617,683.8159 Q836.2617,680.6865 837.5815,679.0347 Q838.9014,677.3828 841.4082,677.3828 Q842.1138,677.3828 842.7612,677.5322 Q843.4087,677.6816 843.9731,677.9805 L843.9731,680.7031 Q843.3423,680.1221 842.7488,679.8523 Q842.1553,679.5825 841.5244,679.5825 Q840.1797,679.5825 839.4949,680.6492 Q838.8101,681.7158 838.8101,683.8159 Q838.8101,685.9077 839.4949,686.9744 Q840.1797,688.041 841.5244,688.041 Q842.1553,688.041 842.7488,687.7712 Q843.3423,687.5015 843.9731,686.9204 Z "/><text fill="#000000" font-family="sans-serif" font-size="12" lengthAdjust="spacingAndGlyphs" textLength="94" x="855" y="688.5352">RegisteredUsers</text><line style="stroke: #A80036; stroke-width: 1.5;" x1="827" x2="951" y1="700" y2="700"/><line style="stroke: #A80036; stroke-width: 1.5;" x1="827" x2="951" y1="708" y2="708"/><rect fill="#FEFECE" filter="url(#f1)" height="48" style="stroke: #A80036; stroke-width: 1.5;" width="97" x="987.75" y="668"/><ellipse cx="1002.75" cy="684" fill="#ADD1B2" rx="11" ry="11" style="stroke: #A80036; stroke-width: 1.0;"/><path d="M1005.7231,689.6431 Q1005.1421,689.9419 1004.5029,690.0913 Q1003.8638,690.2407 1003.1582,690.2407 Q1000.6514,690.2407 999.3315,688.5889 Q998.0117,686.937 998.0117,683.8159 Q998.0117,680.6865 999.3315,679.0347 Q1000.6514,677.3828 1003.1582,677.3828 Q1003.8638,677.3828 1004.5112,677.5322 Q1005.1587,677.6816 1005.7231,677.9805 L1005.7231,680.7031 Q1005.0923,680.1221 1004.4988,679.8523 Q1003.9053,679.5825 1003.2744,679.5825 Q1001.9297,679.5825 1001.2449,680.6492 Q1000.5601,681.7158 1000.5601,683.8159 Q1000.5601,685.9077 1001.2449,686.9744 Q1001.9297,688.041 1003.2744,688.041 Q1003.9053,688.041 1004.4988,687.7712 Q1005.0923,687.5015 1005.7231,686.9204 Z "/><text fill="#000000" font-family="sans-serif" font-size="12" lengthAdjust="spacingAndGlyphs" textLength="65" x="1016.75" y="688.5352">GuestUsers</text><line style="stroke: #A80036; stroke-width: 1.5;" x1="988.75" x2="1083.75" y1="700" y2="700"/><line style="stroke: #A80036; stroke-width: 1.5;" x1="988.75" x2="1083.75" y1="708" y2="708"/><rect fill="#FEFECE" filter="url(#f1)" height="48" style="stroke: #A80036; stroke-width: 1.5;" width="115" x="675.75" y="668"/><ellipse cx="690.75" cy="684" fill="#ADD1B2" rx="11" ry="11" style="stroke: #A80036; stroke-width: 1.0;"/><path d="M693.7231,689.6431 Q693.1421,689.9419 692.5029,690.0913 Q691.8638,690.2407 691.1582,690.2407 Q688.6514,690.2407 687.3315,688.5889 Q686.0117,686.937 686.0117,683.8159 Q686.0117,680.6865 687.3315,679.0347 Q688.6514,677.3828 691.1582,677.3828 Q691.8638,677.3828 692.5112,677.5322 Q693.1587,677.6816 693.7231,677.9805 L693.7231,680.7031 Q693.0923,680.1221 692.4988,679.8523 Q691.9053,679.5825 691.2744,679.5825 Q689.9297,679.5825 689.2449,680.6492 Q688.5601,681.7158 688.5601,683.8159 Q688.5601,685.9077 689.2449,686.9744 Q689.9297,688.041 691.2744,688.041 Q691.9053,688.041 692.4988,687.7712 Q693.0923,687.5015 693.7231,686.9204 Z "/><text fill="#000000" font-family="sans-serif" font-size="12" lengthAdjust="spacingAndGlyphs" textLength="83" x="704.75" y="688.5352">ExternalGroup</text><line style="stroke: #A80036; stroke-width: 1.5;" x1="676.75" x2="789.75" y1="700" y2="700"/><line style="stroke: #A80036; stroke-width: 1.5;" x1="676.75" x2="789.75" y1="708" y2="708"/><polygon fill="#FBFB77" filter="url(#f1)" points="1112.75,799.5,1112.75,870.7422,1257.75,870.7422,1257.75,809.5,1247.75,799.5,1112.75,799.5" style="stroke: #A80036; stroke-width: 1.0;"/><line style="stroke: #A80036; stroke-width: 1.0;" x1="1247.75" x2="1247.75" y1="799.5" y2="809.5"/><line style="stroke: #A80036; stroke-width: 1.0;" x1="1257.75" x2="1247.75" y1="809.5" y2="809.5"/><text fill="#000000" font-family="sans-serif" font-size="13" lengthAdjust="spacingAndGlyphs" textLength="84" x="1118.75" y="817.0684">Maps a set of</text><text fill="#000000" font-family="sans-serif" font-size="13" lengthAdjust="spacingAndGlyphs" textLength="124" x="1118.75" y="832.3789">external credentials</text><text fill="#000000" font-family="sans-serif" font-size="13" lengthAdjust="spacingAndGlyphs" textLength="84" x="1118.75" y="847.6895">to an internal</text><text fill="#000000" font-family="sans-serif" font-size="13" lengthAdjust="spacingAndGlyphs" textLength="93" x="1118.75" y="863">Asignee object</text><rect fill="#FEFECE" filter="url(#f1)" height="48" style="stroke: #A80036; stroke-width: 1.5;" width="79" x="998.75" y="811"/><ellipse cx="1013.75" cy="827" fill="#ADD1B2" rx="11" ry="11" style="stroke: #A80036; stroke-width: 1.0;"/><path d="M1016.7231,832.6431 Q1016.1421,832.9419 1015.5029,833.0913 Q1014.8638,833.2407 1014.1582,833.2407 Q1011.6514,833.2407 1010.3315,831.5889 Q1009.0117,829.937 1009.0117,826.8159 Q1009.0117,823.6865 1010.3315,822.0347 Q1011.6514,820.3828 1014.1582,820.3828 Q1014.8638,820.3828 1015.5112,820.5322 Q1016.1587,820.6816 1016.7231,820.9805 L1016.7231,823.7031 Q1016.0923,823.1221 1015.4988,822.8523 Q1014.9053,822.5825 1014.2744,822.5825 Q1012.9297,822.5825 1012.2449,823.6492 Q1011.5601,824.7158 1011.5601,826.8159 Q1011.5601,828.9077 1012.2449,829.9744 Q1012.9297,831.041 1014.2744,831.041 Q1014.9053,831.041 1015.4988,830.7712 Q1016.0923,830.5015 1016.7231,829.9204 Z "/><text fill="#000000" font-family="sans-serif" font-size="12" lengthAdjust="spacingAndGlyphs" textLength="47" x="1027.75" y="831.5352">IpGroup</text><line style="stroke: #A80036; stroke-width: 1.5;" x1="999.75" x2="1076.75" y1="843" y2="843"/><line style="stroke: #A80036; stroke-width: 1.5;" x1="999.75" x2="1076.75" y1="851" y2="851"/><path d="M768.633,716.096 C781.02,723.32 795.259,730.762 809,736 C930.533,782.327 970.63,759.937 1095,798 C1100.79,799.773 1106.74,801.759 1112.67,803.864 " fill="none" style="stroke: #A80036; stroke-width: 1.0; stroke-dasharray: 7.0,7.0;"/><path d="M933.531,428.799 C846.171,459.56 715.007,505.744 644.331,530.63 " fill="none" style="stroke: #A80036; stroke-width: 1.0;"/><polygon fill="none" points="931.366,422.14,952.556,422.1,936.016,435.345,931.366,422.14" style="stroke: #A80036; stroke-width: 1.0;"/><path d="M990.472,452.566 C989.105,456.364 987.922,460.195 987,464 C982.672,481.852 986.056,502.118 990.696,518.271 " fill="none" style="stroke: #A80036; stroke-width: 1.0;"/><polygon fill="none" points="984.098,449.672,998.506,434.135,996.931,455.266,984.098,449.672" style="stroke: #A80036; stroke-width: 1.0;"/><path d="M1005.791,518.073 C1008.64,495.565 1012.58,464.446 1015.74,439.528 " fill="none" style="stroke: #A80036; stroke-width: 1.0; stroke-dasharray: 7.0,7.0;"/><polygon fill="#A80036" points="1016.4,434.311,1011.2996,442.7363,1015.771,439.2713,1019.2361,443.7427,1016.4,434.311" style="stroke: #A80036; stroke-width: 1.0;"/><text fill="#000000" font-family="sans-serif" font-size="13" lengthAdjust="spacingAndGlyphs" textLength="96" x="1013" y="477.5684">&lt;&lt;Contains&gt;&gt;</text><path d="M595,599.661 C595,622.926 595,649.519 595,667.987 " fill="none" style="stroke: #A80036; stroke-width: 1.0;"/><polygon fill="none" points="588,599.558,595,579.558,602,599.558,588,599.558" style="stroke: #A80036; stroke-width: 1.0;"/><path d="M527.306,579.828 C467.603,606.134 381.84,643.924 327.28,667.964 " fill="none" style="stroke: #A80036; stroke-width: 1.0;"/><polygon fill="none" points="524.577,573.381,545.701,571.722,530.222,586.192,524.577,573.381" style="stroke: #A80036; stroke-width: 1.0;"/><path d="M228.532,728.803 C198.221,752.158 159.126,782.28 130.544,804.3021 " fill="none" style="stroke: #A80036; stroke-width: 1.0;"/><polygon fill="none" points="224.666,722.945,244.781,716.283,233.211,734.035,224.666,722.945" style="stroke: #A80036; stroke-width: 1.0;"/><path d="M257.417,735.021 C247.059,759.775 234.345,790.159 225.757,810.6821 " fill="none" style="stroke: #A80036; stroke-width: 1.0;"/><polygon fill="none" points="251.08,732.031,265.257,716.283,263.995,737.435,251.08,732.031" style="stroke: #A80036; stroke-width: 1.0;"/><path d="M642.345,727.187 C647.519,730.353 652.797,733.359 658,736 C731.579,773.348 756.891,766.123 833,798 C838.798,800.428 844.789,803.086 850.736,805.8211 " fill="none" style="stroke: #A80036; stroke-width: 1.0;"/><polygon fill="none" points="638.313,732.913,625.421,716.096,645.986,721.203,638.313,732.913" style="stroke: #A80036; stroke-width: 1.0;"/><path d="M574.504,734.284 C562.15,759.169 546.867,789.955 536.576,810.6821 " fill="none" style="stroke: #A80036; stroke-width: 1.0;"/><polygon fill="none" points="568.278,731.084,583.441,716.283,580.817,737.31,568.278,731.084" style="stroke: #A80036; stroke-width: 1.0;"/><path d="M610.634,735.391 C619.738,760.077 630.869,790.261 638.401,810.6821 " fill="none" style="stroke: #A80036; stroke-width: 1.0;"/><polygon fill="none" points="603.939,737.47,603.587,716.283,617.075,732.626,603.939,737.47" style="stroke: #A80036; stroke-width: 1.0;"/><path d="M640.08,728.911 C672.441,754.69 715.1,788.673 743.023,810.9165 " fill="none" style="stroke: #A80036; stroke-width: 1.0;"/><polygon fill="none" points="635.51,734.22,624.228,716.283,644.233,723.27,635.51,734.22" style="stroke: #A80036; stroke-width: 1.0;"/><path d="M1057.26,591.669 C1080.96,609.54 1108.63,630.396 1132.46,648.372 " fill="none" style="stroke: #A80036; stroke-width: 1.0;"/><polygon fill="none" points="1052.96,597.188,1041.2,579.558,1061.38,586.01,1052.96,597.188" style="stroke: #A80036; stroke-width: 1.0;"/><path d="M923.795,588.707 C888.53,606.418 846.474,627.898 809,648 C797.244,654.306 784.59,661.358 773.044,667.898 " fill="none" style="stroke: #A80036; stroke-width: 1.0;"/><polygon fill="none" points="921.066,582.245,942.084,579.553,927.333,594.765,921.066,582.245" style="stroke: #A80036; stroke-width: 1.0;"/><path d="M965.594,595.427 C946.19,619.64 923.15,648.388 907.443,667.987 " fill="none" style="stroke: #A80036; stroke-width: 1.0;"/><polygon fill="none" points="960.342,590.787,978.311,579.558,971.266,599.542,960.342,590.787" style="stroke: #A80036; stroke-width: 1.0;"/><path d="M1013.89,599.305 C1019.52,622.655 1025.97,649.424 1030.45,667.987 " fill="none" style="stroke: #A80036; stroke-width: 1.0;"/><polygon fill="none" points="1007.01,600.642,1009.13,579.558,1020.62,597.36,1007.01,600.642" style="stroke: #A80036; stroke-width: 1.0;"/><path d="M788.524,725.825 C795.334,729.43 802.266,732.908 809,736 C882.847,769.906 907.995,762.316 981,798 C988.676,801.752 996.609,806.2916 1004.029,810.8644 " fill="none" style="stroke: #A80036; stroke-width: 1.0;"/><polygon fill="none" points="785.138,731.952,771.003,716.166,791.897,719.692,785.138,731.952" style="stroke: #A80036; stroke-width: 1.0;"/><path d="M657.803,549 C688.528,549 719.253,549 749.978,549 " fill="none" style="stroke: #A80036; stroke-width: 1.0;"/><polygon fill="#A80036" points="644.635,549,650.635,553,656.635,549,650.635,545,644.635,549" style="stroke: #A80036; stroke-width: 1.0;"/><text fill="#000000" font-family="sans-serif" font-size="13" lengthAdjust="spacingAndGlyphs" textLength="8" x="652.8096" y="544.294">1</text><text fill="#000000" font-family="sans-serif" font-size="13" lengthAdjust="spacingAndGlyphs" textLength="22" x="720.0564" y="544.5049">0..*</text><path d="M1045.34,96 C1071.83,96 1111.91,96 1143.32,96 " fill="none" style="stroke: #A80036; stroke-width: 1.0;"/><polygon fill="#A80036" points="1148.68,96,1139.68,92,1143.68,96,1139.68,100,1148.68,96" style="stroke: #A80036; stroke-width: 1.0;"/><text fill="#000000" font-family="sans-serif" font-size="13" lengthAdjust="spacingAndGlyphs" textLength="65" x="1063.75" y="88.5684">Defined at</text><path d="M1158.03,123.373 C1126.67,148.463 1079.95,185.84 1049.98,209.816 " fill="none" style="stroke: #A80036; stroke-width: 1.0;"/><polygon fill="#A80036" points="1162.16,120.071,1152.6354,122.5774,1158.2582,123.1976,1157.638,128.8204,1162.16,120.071" style="stroke: #A80036; stroke-width: 1.0;"/><text fill="#000000" font-family="sans-serif" font-size="13" lengthAdjust="spacingAndGlyphs" textLength="14" x="1107" y="175.5684">At</text><text fill="#000000" font-family="sans-serif" font-size="13" lengthAdjust="spacingAndGlyphs" textLength="8" x="1144.8506" y="140.3726">1</text><path d="M1017.83,125.238 C1018.57,150.285 1019.63,186.427 1020.32,209.816 " fill="none" style="stroke: #A80036; stroke-width: 1.0;"/><polygon fill="#A80036" points="1017.68,120.071,1013.9472,129.1851,1017.8275,125.0688,1021.9438,128.9491,1017.68,120.071" style="stroke: #A80036; stroke-width: 1.0;"/><text fill="#000000" font-family="sans-serif" font-size="13" lengthAdjust="spacingAndGlyphs" textLength="50" x="1020" y="175.5684">Assigns</text><text fill="#000000" font-family="sans-serif" font-size="13" lengthAdjust="spacingAndGlyphs" textLength="8" x="1007.5661" y="140.3726">1</text><path d="M1021,258.067 C1021,283.219 1021,323.978 1021,354.68 " fill="none" style="stroke: #A80036; stroke-width: 1.0;"/><polygon fill="#A80036" points="1021,359.903,1025,350.903,1021,354.903,1017,350.903,1021,359.903" style="stroke: #A80036; stroke-width: 1.0;"/><text fill="#000000" font-family="sans-serif" font-size="13" lengthAdjust="spacingAndGlyphs" textLength="16" x="1022" y="303.5684">To</text><text fill="#000000" font-family="sans-serif" font-size="13" lengthAdjust="spacingAndGlyphs" textLength="8" x="1011.1633" y="349.2362">1</text><path d="M1168.99,636.009 C1166.91,629.951 1164.88,623.857 1163,618 C1141.27,550.215 1160.83,521.593 1119,464 C1113.26,456.095 1106.26,448.847 1098.67,442.285 " fill="none" style="stroke: #A80036; stroke-width: 1.0;"/><polygon fill="#A80036" points="1088.42,434.057,1092.9403,442.8072,1092.3212,437.1844,1097.9441,436.5653,1088.42,434.057" style="stroke: #A80036; stroke-width: 1.0;"/><line style="stroke: #A80036; stroke-width: 1.0;" x1="1092.3212" x2="1098.555" y1="437.1844" y2="442.191"/><polygon fill="none" points="1173.28,648.309,1175.0835,641.3271,1169.3322,636.977,1167.5288,643.9589,1173.28,648.309" style="stroke: #A80036; stroke-width: 1.0;"/><path d="M1189,648.357 C1189,556.345 1189,341.233 1189,263.589 " fill="none" style="stroke: #A80036; stroke-width: 1.0;"/><polygon fill="#A80036" points="1189,258.24,1185,267.24,1189,263.24,1193,267.24,1189,258.24" style="stroke: #A80036; stroke-width: 1.0;"/><text fill="#000000" font-family="sans-serif" font-size="13" lengthAdjust="spacingAndGlyphs" textLength="67" x="1190" y="477.5684">Defined At</text><path d="M1190.36,140.407 C1190.02,163.443 1189.62,190.831 1189.34,209.816 " fill="none" style="stroke: #A80036; stroke-width: 1.0;"/><polygon fill="none" points="1183.37,139.965,1190.66,120.071,1197.37,140.171,1183.37,139.965" style="stroke: #A80036; stroke-width: 1.0;"/></g></svg>