<?xml version="1.0" encoding="UTF-8" standalone="yes"?><svg xmlns="http://www.w3.org/2000/svg" xmlns:xlink="http://www.w3.org/1999/xlink" height="1119pt" style="width:2832px;height:1119px;" version="1.1" viewBox="0 0 2832 1119" width="2832pt"><defs><filter height="300%" id="f1" width="300%" x="-1" y="-1"><feGaussianBlur result="blurOut" stdDeviation="2.0"/><feColorMatrix in="blurOut" result="blurOut2" type="matrix" values="0 0 0 0 0 0 0 0 0 0 0 0 0 0 0 0 0 0 .4 0"/><feOffset dx="4.0" dy="4.0" in="blurOut2" result="blurOut3"/><feBlend in="SourceGraphic" in2="blurOut3" mode="normal"/></filter></defs><g><polygon fill="#FFFFFF" filter="url(#f1)" points="2256,213,2356,213,2363,235.4883,2825,235.4883,2825,481,2256,481,2256,213" style="stroke: #000000; stroke-width: 2.0;"/><line style="stroke: #000000; stroke-width: 2.0;" x1="2256" x2="2363" y1="235.4883" y2="235.4883"/><text fill="#000000" font-family="sans-serif" font-size="14" font-weight="bold" lengthAdjust="spacingAndGlyphs" textLength="94" x="2259" y="229.5352">existingCode</text><polygon fill="#FFFFFF" filter="url(#f1)" points="875,211.5,952,211.5,959,233.9883,2232,233.9883,2232,1001,875,1001,875,211.5" style="stroke: #000000; stroke-width: 2.0;"/><line style="stroke: #000000; stroke-width: 2.0;" x1="875" x2="959" y1="233.9883" y2="233.9883"/><text fill="#000000" font-family="sans-serif" font-size="14" font-weight="bold" lengthAdjust="spacingAndGlyphs" textLength="71" x="878" y="228.0352">assignees</text><polygon fill="#FFFFFF" filter="url(#f1)" points="22,531.5,179,531.5,186,553.9883,851,553.9883,851,1112,22,1112,22,531.5" style="stroke: #000000; stroke-width: 2.0;"/><line style="stroke: #000000; stroke-width: 2.0;" x1="22" x2="186" y1="553.9883" y2="553.9883"/><text fill="#000000" font-family="sans-serif" font-size="14" font-weight="bold" lengthAdjust="spacingAndGlyphs" textLength="151" x="25" y="548.0352">roleassigneeprovider</text><polygon fill="#FFFFFF" filter="url(#f1)" points="2024,24.5,2245,24.5,2252,46.9883,2357,46.9883,2357,162.5,2024,162.5,2024,24.5" style="stroke: #000000; stroke-width: 2.0;"/><line style="stroke: #000000; stroke-width: 2.0;" x1="2024" x2="2252" y1="46.9883" y2="46.9883"/><text fill="#000000" font-family="sans-serif" font-size="14" font-weight="bold" lengthAdjust="spacingAndGlyphs" textLength="215" x="2027" y="41.0352">somewhere_else_in_dataverse</text><rect fill="#FEFECE" filter="url(#f1)" height="48" style="stroke: #A80036; stroke-width: 1.5;" width="85" x="2508.5" y="259.5"/><ellipse cx="2523.5" cy="275.5" fill="#ADD1B2" rx="11" ry="11" style="stroke: #A80036; stroke-width: 1.0;"/><path d="M2526.4731,281.1431 Q2525.8921,281.4419 2525.2529,281.5913 Q2524.6138,281.7407 2523.9082,281.7407 Q2521.4014,281.7407 2520.0815,280.0889 Q2518.7617,278.437 2518.7617,275.3159 Q2518.7617,272.1865 2520.0815,270.5347 Q2521.4014,268.8828 2523.9082,268.8828 Q2524.6138,268.8828 2525.2612,269.0322 Q2525.9087,269.1816 2526.4731,269.4805 L2526.4731,272.2031 Q2525.8423,271.6221 2525.2488,271.3523 Q2524.6553,271.0825 2524.0244,271.0825 Q2522.6797,271.0825 2521.9949,272.1492 Q2521.3101,273.2158 2521.3101,275.3159 Q2521.3101,277.4077 2521.9949,278.4744 Q2522.6797,279.541 2524.0244,279.541 Q2524.6553,279.541 2525.2488,279.2712 Q2525.8423,279.0015 2526.4731,278.4204 Z "/><text fill="#000000" font-family="sans-serif" font-size="12" lengthAdjust="spacingAndGlyphs" textLength="25" x="2537.5" y="280.0352">Role</text><rect fill="#FFFFFF" height="16.1328" style="stroke: #000000; stroke-width: 1.0; stroke-dasharray: 2.0,2.0;" width="26" x="2570.5" y="256.5"/><text fill="#000000" font-family="sans-serif" font-size="12" font-style="italic" lengthAdjust="spacingAndGlyphs" textLength="16" x="2575.5" y="269.1016">DB</text><line style="stroke: #A80036; stroke-width: 1.5;" x1="2509.5" x2="2592.5" y1="291.5" y2="291.5"/><line style="stroke: #A80036; stroke-width: 1.5;" x1="2509.5" x2="2592.5" y1="299.5" y2="299.5"/><rect fill="#FEFECE" filter="url(#f1)" height="48" style="stroke: #A80036; stroke-width: 1.5;" width="113" x="2695.5" y="259.5"/><ellipse cx="2710.5" cy="275.5" fill="#ADD1B2" rx="11" ry="11" style="stroke: #A80036; stroke-width: 1.0;"/><path d="M2713.4731,281.1431 Q2712.8921,281.4419 2712.2529,281.5913 Q2711.6138,281.7407 2710.9082,281.7407 Q2708.4014,281.7407 2707.0815,280.0889 Q2705.7617,278.437 2705.7617,275.3159 Q2705.7617,272.1865 2707.0815,270.5347 Q2708.4014,268.8828 2710.9082,268.8828 Q2711.6138,268.8828 2712.2612,269.0322 Q2712.9087,269.1816 2713.4731,269.4805 L2713.4731,272.2031 Q2712.8423,271.6221 2712.2488,271.3523 Q2711.6553,271.0825 2711.0244,271.0825 Q2709.6797,271.0825 2708.9949,272.1492 Q2708.3101,273.2158 2708.3101,275.3159 Q2708.3101,277.4077 2708.9949,278.4744 Q2709.6797,279.541 2711.0244,279.541 Q2711.6553,279.541 2712.2488,279.2712 Q2712.8423,279.0015 2713.4731,278.4204 Z "/><text fill="#000000" font-family="sans-serif" font-size="12" lengthAdjust="spacingAndGlyphs" textLength="53" x="2724.5" y="280.0352">DvObject</text><rect fill="#FFFFFF" height="16.1328" style="stroke: #000000; stroke-width: 1.0; stroke-dasharray: 2.0,2.0;" width="26" x="2785.5" y="256.5"/><text fill="#000000" font-family="sans-serif" font-size="12" font-style="italic" lengthAdjust="spacingAndGlyphs" textLength="16" x="2790.5" y="269.1016">DB</text><line style="stroke: #A80036; stroke-width: 1.5;" x1="2696.5" x2="2807.5" y1="291.5" y2="291.5"/><line style="stroke: #A80036; stroke-width: 1.5;" x1="2696.5" x2="2807.5" y1="299.5" y2="299.5"/><rect fill="#FEFECE" filter="url(#f1)" height="48" style="stroke: #A80036; stroke-width: 1.5;" width="151" x="2475.5" y="417"/><ellipse cx="2490.5" cy="433" fill="#ADD1B2" rx="11" ry="11" style="stroke: #A80036; stroke-width: 1.0;"/><path d="M2493.4731,438.6431 Q2492.8921,438.9419 2492.2529,439.0913 Q2491.6138,439.2407 2490.9082,439.2407 Q2488.4014,439.2407 2487.0815,437.5889 Q2485.7617,435.937 2485.7617,432.8159 Q2485.7617,429.6865 2487.0815,428.0347 Q2488.4014,426.3828 2490.9082,426.3828 Q2491.6138,426.3828 2492.2612,426.5322 Q2492.9087,426.6816 2493.4731,426.9805 L2493.4731,429.7031 Q2492.8423,429.1221 2492.2488,428.8523 Q2491.6553,428.5825 2491.0244,428.5825 Q2489.6797,428.5825 2488.9949,429.6492 Q2488.3101,430.7158 2488.3101,432.8159 Q2488.3101,434.9077 2488.9949,435.9744 Q2489.6797,437.041 2491.0244,437.041 Q2491.6553,437.041 2492.2488,436.7712 Q2492.8423,436.5015 2493.4731,435.9204 Z "/><text fill="#000000" font-family="sans-serif" font-size="12" lengthAdjust="spacingAndGlyphs" textLength="91" x="2504.5" y="437.5352">RoleAssignment</text><rect fill="#FFFFFF" height="16.1328" style="stroke: #000000; stroke-width: 1.0; stroke-dasharray: 2.0,2.0;" width="26" x="2603.5" y="414"/><text fill="#000000" font-family="sans-serif" font-size="12" font-style="italic" lengthAdjust="spacingAndGlyphs" textLength="16" x="2608.5" y="426.6016">DB</text><line style="stroke: #A80036; stroke-width: 1.5;" x1="2476.5" x2="2625.5" y1="449" y2="449"/><line style="stroke: #A80036; stroke-width: 1.5;" x1="2476.5" x2="2625.5" y1="457" y2="457"/><rect fill="#FEFECE" filter="url(#f1)" height="48" style="stroke: #A80036; stroke-width: 1.5;" width="118" x="2670" y="417"/><ellipse cx="2685" cy="433" fill="#ADD1B2" rx="11" ry="11" style="stroke: #A80036; stroke-width: 1.0;"/><path d="M2687.9731,438.6431 Q2687.3921,438.9419 2686.7529,439.0913 Q2686.1138,439.2407 2685.4082,439.2407 Q2682.9014,439.2407 2681.5815,437.5889 Q2680.2617,435.937 2680.2617,432.8159 Q2680.2617,429.6865 2681.5815,428.0347 Q2682.9014,426.3828 2685.4082,426.3828 Q2686.1138,426.3828 2686.7612,426.5322 Q2687.4087,426.6816 2687.9731,426.9805 L2687.9731,429.7031 Q2687.3423,429.1221 2686.7488,428.8523 Q2686.1553,428.5825 2685.5244,428.5825 Q2684.1797,428.5825 2683.4949,429.6492 Q2682.8101,430.7158 2682.8101,432.8159 Q2682.8101,434.9077 2683.4949,435.9744 Q2684.1797,437.041 2685.5244,437.041 Q2686.1553,437.041 2686.7488,436.7712 Q2687.3423,436.5015 2687.9731,435.9204 Z "/><text fill="#000000" font-family="sans-serif" font-size="12" lengthAdjust="spacingAndGlyphs" textLength="58" x="2699" y="437.5352">Dataverse</text><rect fill="#FFFFFF" height="16.1328" style="stroke: #000000; stroke-width: 1.0; stroke-dasharray: 2.0,2.0;" width="26" x="2765" y="414"/><text fill="#000000" font-family="sans-serif" font-size="12" font-style="italic" lengthAdjust="spacingAndGlyphs" textLength="16" x="2770" y="426.6016">DB</text><line style="stroke: #A80036; stroke-width: 1.5;" x1="2671" x2="2787" y1="449" y2="449"/><line style="stroke: #A80036; stroke-width: 1.5;" x1="2671" x2="2787" y1="457" y2="457"/><polygon fill="#FBFB77" filter="url(#f1)" points="2272.5,248,2272.5,319.2422,2473.5,319.2422,2473.5,258,2463.5,248,2272.5,248" style="stroke: #A80036; stroke-width: 1.0;"/><line style="stroke: #A80036; stroke-width: 1.0;" x1="2463.5" x2="2463.5" y1="248" y2="258"/><line style="stroke: #A80036; stroke-width: 1.0;" x1="2473.5" x2="2463.5" y1="258" y2="258"/><text fill="#000000" font-family="sans-serif" font-size="13" lengthAdjust="spacingAndGlyphs" textLength="142" x="2278.5" y="265.5684">A role can be assigned</text><text fill="#000000" font-family="sans-serif" font-size="13" lengthAdjust="spacingAndGlyphs" textLength="152" x="2278.5" y="280.8789">at the DvObject where it</text><text fill="#000000" font-family="sans-serif" font-size="13" lengthAdjust="spacingAndGlyphs" textLength="142" x="2278.5" y="296.1895">is defined, or at any of</text><text fill="#000000" font-family="sans-serif" font-size="13" lengthAdjust="spacingAndGlyphs" textLength="180" x="2278.5" y="311.5">that DvObject's descendants</text><rect fill="#FEFECE" filter="url(#f1)" height="86.8652" style="stroke: #A80036; stroke-width: 1.5;" width="137" x="1874.5" y="397.5"/><ellipse cx="1902.55" cy="413.5" fill="#B4A7E5" rx="11" ry="11" style="stroke: #A80036; stroke-width: 1.0;"/><path d="M1898.4777,409.2651 L1898.4777,407.1069 L1905.8571,407.1069 L1905.8571,409.2651 L1903.3918,409.2651 L1903.3918,417.3418 L1905.8571,417.3418 L1905.8571,419.5 L1898.4777,419.5 L1898.4777,417.3418 L1900.9431,417.3418 L1900.9431,409.2651 Z "/><text fill="#000000" font-family="sans-serif" font-size="12" font-style="italic" lengthAdjust="spacingAndGlyphs" textLength="76" x="1919.45" y="418.0352">RoleAssignee</text><line style="stroke: #A80036; stroke-width: 1.5;" x1="1875.5" x2="2010.5" y1="429.5" y2="429.5"/><ellipse cx="1885.5" cy="441.4775" fill="none" rx="3" ry="3" style="stroke: #038048; stroke-width: 1.0;"/><text fill="#000000" font-family="sans-serif" font-size="11" lengthAdjust="spacingAndGlyphs" textLength="83" x="1894.5" y="444.1348">identifier:String</text><ellipse cx="1885.5" cy="454.4326" fill="none" rx="3" ry="3" style="stroke: #038048; stroke-width: 1.0;"/><text fill="#000000" font-family="sans-serif" font-size="11" lengthAdjust="spacingAndGlyphs" textLength="111" x="1894.5" y="457.0898">showInLists: Boolean</text><line style="stroke: #A80036; stroke-width: 1.5;" x1="1875.5" x2="2010.5" y1="463.4102" y2="463.4102"/><ellipse cx="1885.5" cy="475.3877" fill="#84BE84" rx="3" ry="3" style="stroke: #038048; stroke-width: 1.0;"/><text fill="#000000" font-family="sans-serif" font-size="11" lengthAdjust="spacingAndGlyphs" textLength="97" x="1894.5" y="478.0449">displayInfo() : TBD</text><rect fill="#FEFECE" filter="url(#f1)" height="48" style="stroke: #A80036; stroke-width: 1.5;" width="58" x="1258" y="592.5"/><ellipse cx="1273" cy="608.5" fill="#B4A7E5" rx="11" ry="11" style="stroke: #A80036; stroke-width: 1.0;"/><path d="M1268.9277,604.2651 L1268.9277,602.1069 L1276.3071,602.1069 L1276.3071,604.2651 L1273.8418,604.2651 L1273.8418,612.3418 L1276.3071,612.3418 L1276.3071,614.5 L1268.9277,614.5 L1268.9277,612.3418 L1271.3931,612.3418 L1271.3931,604.2651 Z "/><text fill="#000000" font-family="sans-serif" font-size="12" font-style="italic" lengthAdjust="spacingAndGlyphs" textLength="26" x="1287" y="613.0352">User</text><line style="stroke: #A80036; stroke-width: 1.5;" x1="1259" x2="1315" y1="624.5" y2="624.5"/><line style="stroke: #A80036; stroke-width: 1.5;" x1="1259" x2="1315" y1="632.5" y2="632.5"/><rect fill="#FEFECE" filter="url(#f1)" height="48" style="stroke: #A80036; stroke-width: 1.5;" width="137" x="891.5" y="776"/><ellipse cx="906.5" cy="792" fill="#ADD1B2" rx="11" ry="11" style="stroke: #A80036; stroke-width: 1.0;"/><path d="M909.4731,797.6431 Q908.8921,797.9419 908.2529,798.0913 Q907.6138,798.2407 906.9082,798.2407 Q904.4014,798.2407 903.0815,796.5889 Q901.7617,794.937 901.7617,791.8159 Q901.7617,788.6865 903.0815,787.0347 Q904.4014,785.3828 906.9082,785.3828 Q907.6138,785.3828 908.2612,785.5322 Q908.9087,785.6816 909.4731,785.9805 L909.4731,788.7031 Q908.8423,788.1221 908.2488,787.8523 Q907.6553,787.5825 907.0244,787.5825 Q905.6797,787.5825 904.9949,788.6492 Q904.3101,789.7158 904.3101,791.8159 Q904.3101,793.9077 904.9949,794.9744 Q905.6797,796.041 907.0244,796.041 Q907.6553,796.041 908.2488,795.7712 Q908.8423,795.5015 909.4731,794.9204 Z "/><text fill="#000000" font-family="sans-serif" font-size="12" lengthAdjust="spacingAndGlyphs" textLength="105" x="920.5" y="796.5352">AuthenticatedUser</text><line style="stroke: #A80036; stroke-width: 1.5;" x1="892.5" x2="1027.5" y1="808" y2="808"/><line style="stroke: #A80036; stroke-width: 1.5;" x1="892.5" x2="1027.5" y1="816" y2="816"/><rect fill="#FEFECE" filter="url(#f1)" height="60.9551" style="stroke: #A80036; stroke-width: 1.5;" width="100" x="1627" y="769.5"/><ellipse cx="1651.45" cy="785.5" fill="#ADD1B2" rx="11" ry="11" style="stroke: #A80036; stroke-width: 1.0;"/><path d="M1654.4231,791.1431 Q1653.8421,791.4419 1653.2029,791.5913 Q1652.5638,791.7407 1651.8582,791.7407 Q1649.3514,791.7407 1648.0315,790.0889 Q1646.7117,788.437 1646.7117,785.3159 Q1646.7117,782.1865 1648.0315,780.5347 Q1649.3514,778.8828 1651.8582,778.8828 Q1652.5638,778.8828 1653.2112,779.0322 Q1653.8587,779.1816 1654.4231,779.4805 L1654.4231,782.2031 Q1653.7923,781.6221 1653.1988,781.3523 Q1652.6053,781.0825 1651.9744,781.0825 Q1650.6297,781.0825 1649.9449,782.1492 Q1649.2601,783.2158 1649.2601,785.3159 Q1649.2601,787.4077 1649.9449,788.4744 Q1650.6297,789.541 1651.9744,789.541 Q1652.6053,789.541 1653.1988,789.2712 Q1653.7923,789.0015 1654.4231,788.4204 Z "/><text fill="#000000" font-family="sans-serif" font-size="12" lengthAdjust="spacingAndGlyphs" textLength="47" x="1667.55" y="790.0352">IpGroup</text><line style="stroke: #A80036; stroke-width: 1.5;" x1="1628" x2="1726" y1="801.5" y2="801.5"/><text fill="#000000" font-family="sans-serif" font-size="11" lengthAdjust="spacingAndGlyphs" textLength="88" x="1633" y="816.1348">range: IpRange[]</text><line style="stroke: #A80036; stroke-width: 1.5;" x1="1628" x2="1726" y1="822.4551" y2="822.4551"/><rect fill="#FEFECE" filter="url(#f1)" height="73.9102" style="stroke: #A80036; stroke-width: 1.5;" width="141" x="1295.5" y="911"/><ellipse cx="1310.5" cy="927" fill="#ADD1B2" rx="11" ry="11" style="stroke: #A80036; stroke-width: 1.0;"/><path d="M1313.4731,932.6431 Q1312.8921,932.9419 1312.2529,933.0913 Q1311.6138,933.2407 1310.9082,933.2407 Q1308.4014,933.2407 1307.0815,931.5889 Q1305.7617,929.937 1305.7617,926.8159 Q1305.7617,923.6865 1307.0815,922.0347 Q1308.4014,920.3828 1310.9082,920.3828 Q1311.6138,920.3828 1312.2612,920.5322 Q1312.9087,920.6816 1313.4731,920.9805 L1313.4731,923.7031 Q1312.8423,923.1221 1312.2488,922.8523 Q1311.6553,922.5825 1311.0244,922.5825 Q1309.6797,922.5825 1308.9949,923.6492 Q1308.3101,924.7158 1308.3101,926.8159 Q1308.3101,928.9077 1308.9949,929.9744 Q1309.6797,931.041 1311.0244,931.041 Q1311.6553,931.041 1312.2488,930.7712 Q1312.8423,930.5015 1313.4731,929.9204 Z "/><text fill="#000000" font-family="sans-serif" font-size="12" lengthAdjust="spacingAndGlyphs" textLength="81" x="1324.5" y="931.5352">DatabaseUser</text><rect fill="#FFFFFF" height="16.1328" style="stroke: #000000; stroke-width: 1.0; stroke-dasharray: 2.0,2.0;" width="26" x="1413.5" y="908"/><text fill="#000000" font-family="sans-serif" font-size="12" font-style="italic" lengthAdjust="spacingAndGlyphs" textLength="16" x="1418.5" y="920.6016">DB</text><line style="stroke: #A80036; stroke-width: 1.5;" x1="1296.5" x2="1435.5" y1="943" y2="943"/><ellipse cx="1306.5" cy="954.9775" fill="none" rx="3" ry="3" style="stroke: #038048; stroke-width: 1.0;"/><text fill="#000000" font-family="sans-serif" font-size="11" lengthAdjust="spacingAndGlyphs" textLength="40" x="1315.5" y="957.6348">id:Long</text><ellipse cx="1306.5" cy="967.9326" fill="none" rx="3" ry="3" style="stroke: #038048; stroke-width: 1.0;"/><text fill="#000000" font-family="sans-serif" font-size="11" lengthAdjust="spacingAndGlyphs" textLength="64" x="1315.5" y="970.5898">name:String</text><line style="stroke: #A80036; stroke-width: 1.5;" x1="1296.5" x2="1435.5" y1="976.9102" y2="976.9102"/><rect fill="#FEFECE" filter="url(#f1)" height="73.9102" style="stroke: #A80036; stroke-width: 1.5;" width="177" x="2038.5" y="246.5"/><ellipse cx="2053.5" cy="262.5" fill="#ADD1B2" rx="11" ry="11" style="stroke: #A80036; stroke-width: 1.0;"/><path d="M2056.4731,268.1431 Q2055.8921,268.4419 2055.2529,268.5913 Q2054.6138,268.7407 2053.9082,268.7407 Q2051.4014,268.7407 2050.0815,267.0889 Q2048.7617,265.437 2048.7617,262.3159 Q2048.7617,259.1865 2050.0815,257.5347 Q2051.4014,255.8828 2053.9082,255.8828 Q2054.6138,255.8828 2055.2612,256.0322 Q2055.9087,256.1816 2056.4731,256.4805 L2056.4731,259.2031 Q2055.8423,258.6221 2055.2488,258.3523 Q2054.6553,258.0825 2054.0244,258.0825 Q2052.6797,258.0825 2051.9949,259.1492 Q2051.3101,260.2158 2051.3101,262.3159 Q2051.3101,264.4077 2051.9949,265.4744 Q2052.6797,266.541 2054.0244,266.541 Q2054.6553,266.541 2055.2488,266.2712 Q2055.8423,266.0015 2056.4731,265.4204 Z "/><text fill="#000000" font-family="sans-serif" font-size="12" lengthAdjust="spacingAndGlyphs" textLength="117" x="2067.5" y="267.0352">RoleAssigneeRecord</text><rect fill="#FFFFFF" height="16.1328" style="stroke: #000000; stroke-width: 1.0; stroke-dasharray: 2.0,2.0;" width="26" x="2192.5" y="243.5"/><text fill="#000000" font-family="sans-serif" font-size="12" font-style="italic" lengthAdjust="spacingAndGlyphs" textLength="16" x="2197.5" y="256.1016">DB</text><line style="stroke: #A80036; stroke-width: 1.5;" x1="2039.5" x2="2214.5" y1="278.5" y2="278.5"/><text fill="#000000" font-family="sans-serif" font-size="11" lengthAdjust="spacingAndGlyphs" textLength="86" x="2044.5" y="293.1348">identifier: String</text><text fill="#000000" font-family="sans-serif" font-size="11" lengthAdjust="spacingAndGlyphs" textLength="86" x="2044.5" y="306.0898">displayInfo: TBD</text><line style="stroke: #A80036; stroke-width: 1.5;" x1="2039.5" x2="2214.5" y1="312.4102" y2="312.4102"/><polygon fill="#FBFB77" filter="url(#f1)" points="1691.5,271,1691.5,296.3105,1968.5,296.3105,1968.5,281,1958.5,271,1691.5,271" style="stroke: #A80036; stroke-width: 1.0;"/><polygon fill="#FBFB77" points="1691.5,271,1691.5,296.3105,1968.5,296.3105,1968.5,289,2038.23,283.5,1968.5,281,1968.5,281,1958.5,271,1691.5,271" style="stroke: #A80036; stroke-width: 1.0;"/><line style="stroke: #A80036; stroke-width: 1.0;" x1="1958.5" x2="1958.5" y1="271" y2="281"/><line style="stroke: #A80036; stroke-width: 1.0;" x1="1968.5" x2="1958.5" y1="281" y2="281"/><text fill="#000000" font-family="sans-serif" font-size="13" lengthAdjust="spacingAndGlyphs" textLength="256" x="1697.5" y="288.5684">Locally persistent proxy for the assignee</text><rect fill="#FEFECE" filter="url(#f1)" height="73.9102" style="stroke: #A80036; stroke-width: 1.5;" width="120" x="891" y="911"/><ellipse cx="923.1" cy="927" fill="#ADD1B2" rx="11" ry="11" style="stroke: #A80036; stroke-width: 1.0;"/><path d="M926.0731,932.6431 Q925.4921,932.9419 924.8529,933.0913 Q924.2138,933.2407 923.5082,933.2407 Q921.0014,933.2407 919.6815,931.5889 Q918.3617,929.937 918.3617,926.8159 Q918.3617,923.6865 919.6815,922.0347 Q921.0014,920.3828 923.5082,920.3828 Q924.2138,920.3828 924.8612,920.5322 Q925.5087,920.6816 926.0731,920.9805 L926.0731,923.7031 Q925.4423,923.1221 924.8488,922.8523 Q924.2553,922.5825 923.6244,922.5825 Q922.2797,922.5825 921.5949,923.6492 Q920.9101,924.7158 920.9101,926.8159 Q920.9101,928.9077 921.5949,929.9744 Q922.2797,931.041 923.6244,931.041 Q924.2553,931.041 924.8488,930.7712 Q925.4423,930.5015 926.0731,929.9204 Z "/><text fill="#000000" font-family="sans-serif" font-size="12" lengthAdjust="spacingAndGlyphs" textLength="50" x="940.9" y="931.5352">ShibUser</text><line style="stroke: #A80036; stroke-width: 1.5;" x1="892" x2="1010" y1="943" y2="943"/><text fill="#000000" font-family="sans-serif" font-size="11" lengthAdjust="spacingAndGlyphs" textLength="108" x="897" y="957.6348">persisstentId: String</text><text fill="#000000" font-family="sans-serif" font-size="11" lengthAdjust="spacingAndGlyphs" textLength="78" x="897" y="970.5898">shibIdp: String</text><line style="stroke: #A80036; stroke-width: 1.5;" x1="892" x2="1010" y1="976.9102" y2="976.9102"/><rect fill="#FEFECE" filter="url(#f1)" height="48" style="stroke: #A80036; stroke-width: 1.5;" width="92" x="1046" y="924"/><ellipse cx="1061" cy="940" fill="#ADD1B2" rx="11" ry="11" style="stroke: #A80036; stroke-width: 1.0;"/><path d="M1063.9731,945.6431 Q1063.3921,945.9419 1062.7529,946.0913 Q1062.1138,946.2407 1061.4082,946.2407 Q1058.9014,946.2407 1057.5815,944.5889 Q1056.2617,942.937 1056.2617,939.8159 Q1056.2617,936.6865 1057.5815,935.0347 Q1058.9014,933.3828 1061.4082,933.3828 Q1062.1138,933.3828 1062.7612,933.5322 Q1063.4087,933.6816 1063.9731,933.9805 L1063.9731,936.7031 Q1063.3423,936.1221 1062.7488,935.8523 Q1062.1553,935.5825 1061.5244,935.5825 Q1060.1797,935.5825 1059.4949,936.6492 Q1058.8101,937.7158 1058.8101,939.8159 Q1058.8101,941.9077 1059.4949,942.9744 Q1060.1797,944.041 1061.5244,944.041 Q1062.1553,944.041 1062.7488,943.7712 Q1063.3423,943.5015 1063.9731,942.9204 Z "/><text fill="#000000" font-family="sans-serif" font-size="12" lengthAdjust="spacingAndGlyphs" textLength="60" x="1075" y="944.5352">OauthUser</text><line style="stroke: #A80036; stroke-width: 1.5;" x1="1047" x2="1137" y1="956" y2="956"/><line style="stroke: #A80036; stroke-width: 1.5;" x1="1047" x2="1137" y1="964" y2="964"/><rect fill="#FEFECE" filter="url(#f1)" height="48" style="stroke: #A80036; stroke-width: 1.5;" width="87" x="1173.5" y="924"/><ellipse cx="1188.5" cy="940" fill="#ADD1B2" rx="11" ry="11" style="stroke: #A80036; stroke-width: 1.0;"/><path d="M1191.4731,945.6431 Q1190.8921,945.9419 1190.2529,946.0913 Q1189.6138,946.2407 1188.9082,946.2407 Q1186.4014,946.2407 1185.0815,944.5889 Q1183.7617,942.937 1183.7617,939.8159 Q1183.7617,936.6865 1185.0815,935.0347 Q1186.4014,933.3828 1188.9082,933.3828 Q1189.6138,933.3828 1190.2612,933.5322 Q1190.9087,933.6816 1191.4731,933.9805 L1191.4731,936.7031 Q1190.8423,936.1221 1190.2488,935.8523 Q1189.6553,935.5825 1189.0244,935.5825 Q1187.6797,935.5825 1186.9949,936.6492 Q1186.3101,937.7158 1186.3101,939.8159 Q1186.3101,941.9077 1186.9949,942.9744 Q1187.6797,944.041 1189.0244,944.041 Q1189.6553,944.041 1190.2488,943.7712 Q1190.8423,943.5015 1191.4731,942.9204 Z "/><text fill="#000000" font-family="sans-serif" font-size="12" lengthAdjust="spacingAndGlyphs" textLength="55" x="1202.5" y="944.5352">LdapUser</text><line style="stroke: #A80036; stroke-width: 1.5;" x1="1174.5" x2="1259.5" y1="956" y2="956"/><line style="stroke: #A80036; stroke-width: 1.5;" x1="1174.5" x2="1259.5" y1="964" y2="964"/><rect fill="#FEFECE" filter="url(#f1)" height="60.9551" style="stroke: #A80036; stroke-width: 1.5;" width="108" x="1233" y="769.5"/><ellipse cx="1255.65" cy="785.5" fill="#ADD1B2" rx="11" ry="11" style="stroke: #A80036; stroke-width: 1.0;"/><path d="M1258.6231,791.1431 Q1258.0421,791.4419 1257.4029,791.5913 Q1256.7638,791.7407 1256.0582,791.7407 Q1253.5514,791.7407 1252.2315,790.0889 Q1250.9117,788.437 1250.9117,785.3159 Q1250.9117,782.1865 1252.2315,780.5347 Q1253.5514,778.8828 1256.0582,778.8828 Q1256.7638,778.8828 1257.4112,779.0322 Q1258.0587,779.1816 1258.6231,779.4805 L1258.6231,782.2031 Q1257.9923,781.6221 1257.3988,781.3523 Q1256.8053,781.0825 1256.1744,781.0825 Q1254.8297,781.0825 1254.1449,782.1492 Q1253.4601,783.2158 1253.4601,785.3159 Q1253.4601,787.4077 1254.1449,788.4744 Q1254.8297,789.541 1256.1744,789.541 Q1256.8053,789.541 1257.3988,789.2712 Q1257.9923,789.0015 1258.6231,788.4204 Z "/><text fill="#000000" font-family="sans-serif" font-size="12" lengthAdjust="spacingAndGlyphs" textLength="59" x="1271.35" y="790.0352">GuestUser</text><line style="stroke: #A80036; stroke-width: 1.5;" x1="1234" x2="1340" y1="801.5" y2="801.5"/><text fill="#000000" font-family="sans-serif" font-size="11" lengthAdjust="spacingAndGlyphs" textLength="96" x="1239" y="816.1348">showInLists: False</text><line style="stroke: #A80036; stroke-width: 1.5;" x1="1234" x2="1340" y1="822.4551" y2="822.4551"/><rect fill="#FEFECE" filter="url(#f1)" height="73.9102" style="stroke: #A80036; stroke-width: 1.5;" width="100" x="1098" y="763"/><ellipse cx="1113" cy="779" fill="#ADD1B2" rx="11" ry="11" style="stroke: #A80036; stroke-width: 1.0;"/><path d="M1115.9731,784.6431 Q1115.3921,784.9419 1114.7529,785.0913 Q1114.1138,785.2407 1113.4082,785.2407 Q1110.9014,785.2407 1109.5815,783.5889 Q1108.2617,781.937 1108.2617,778.8159 Q1108.2617,775.6865 1109.5815,774.0347 Q1110.9014,772.3828 1113.4082,772.3828 Q1114.1138,772.3828 1114.7612,772.5322 Q1115.4087,772.6816 1115.9731,772.9805 L1115.9731,775.7031 Q1115.3423,775.1221 1114.7488,774.8523 Q1114.1553,774.5825 1113.5244,774.5825 Q1112.1797,774.5825 1111.4949,775.6492 Q1110.8101,776.7158 1110.8101,778.8159 Q1110.8101,780.9077 1111.4949,781.9744 Q1112.1797,783.041 1113.5244,783.041 Q1114.1553,783.041 1114.7488,782.7712 Q1115.3423,782.5015 1115.9731,781.9204 Z "/><text fill="#000000" font-family="sans-serif" font-size="12" lengthAdjust="spacingAndGlyphs" textLength="40" x="1127" y="783.5352">ApiKey</text><rect fill="#FFFFFF" height="16.1328" style="stroke: #000000; stroke-width: 1.0; stroke-dasharray: 2.0,2.0;" width="26" x="1175" y="760"/><text fill="#000000" font-family="sans-serif" font-size="12" font-style="italic" lengthAdjust="spacingAndGlyphs" textLength="16" x="1180" y="772.6016">DB</text><line style="stroke: #A80036; stroke-width: 1.5;" x1="1099" x2="1197" y1="795" y2="795"/><ellipse cx="1109" cy="806.9775" fill="none" rx="3" ry="3" style="stroke: #038048; stroke-width: 1.0;"/><text fill="#000000" font-family="sans-serif" font-size="11" lengthAdjust="spacingAndGlyphs" textLength="53" x="1118" y="809.6348">key:String</text><ellipse cx="1109" cy="819.9326" fill="none" rx="3" ry="3" style="stroke: #038048; stroke-width: 1.0;"/><text fill="#000000" font-family="sans-serif" font-size="11" lengthAdjust="spacingAndGlyphs" textLength="58" x="1118" y="822.5898">title: String</text><line style="stroke: #A80036; stroke-width: 1.5;" x1="1099" x2="1197" y1="828.9102" y2="828.9102"/><rect fill="#FEFECE" filter="url(#f1)" height="112.7754" style="stroke: #A80036; stroke-width: 1.5;" width="195" x="1685.5" y="560"/><ellipse cx="1746.75" cy="576" fill="#B4A7E5" rx="11" ry="11" style="stroke: #A80036; stroke-width: 1.0;"/><path d="M1742.6777,571.7651 L1742.6777,569.6069 L1750.0571,569.6069 L1750.0571,571.7651 L1747.5918,571.7651 L1747.5918,579.8418 L1750.0571,579.8418 L1750.0571,582 L1742.6777,582 L1742.6777,579.8418 L1745.1431,579.8418 L1745.1431,571.7651 Z "/><text fill="#000000" font-family="sans-serif" font-size="12" font-style="italic" lengthAdjust="spacingAndGlyphs" textLength="36" x="1767.25" y="580.5352">Group</text><rect fill="#FFFFFF" height="16.1328" style="stroke: #000000; stroke-width: 1.0; stroke-dasharray: 2.0,2.0;" width="26" x="1857.5" y="557"/><text fill="#000000" font-family="sans-serif" font-size="12" font-style="italic" lengthAdjust="spacingAndGlyphs" textLength="16" x="1862.5" y="569.6016">DB</text><line style="stroke: #A80036; stroke-width: 1.5;" x1="1686.5" x2="1879.5" y1="592" y2="592"/><ellipse cx="1696.5" cy="603.9775" fill="none" rx="3" ry="3" style="stroke: #038048; stroke-width: 1.0;"/><text fill="#000000" font-family="sans-serif" font-size="11" lengthAdjust="spacingAndGlyphs" textLength="67" x="1705.5" y="606.6348">name: String</text><ellipse cx="1696.5" cy="616.9326" fill="none" rx="3" ry="3" style="stroke: #038048; stroke-width: 1.0;"/><text fill="#000000" font-family="sans-serif" font-size="11" lengthAdjust="spacingAndGlyphs" textLength="102" x="1705.5" y="619.5898">description : String</text><ellipse cx="1696.5" cy="629.8877" fill="none" rx="3" ry="3" style="stroke: #038048; stroke-width: 1.0;"/><text fill="#000000" font-family="sans-serif" font-size="11" lengthAdjust="spacingAndGlyphs" textLength="52" x="1705.5" y="632.5449">data: Blob</text><ellipse cx="1696.5" cy="642.8428" fill="none" rx="3" ry="3" style="stroke: #038048; stroke-width: 1.0;"/><text fill="#000000" font-family="sans-serif" font-size="11" lengthAdjust="spacingAndGlyphs" textLength="169" x="1705.5" y="645.5">provider: RoleAssigneeProvider</text><line style="stroke: #A80036; stroke-width: 1.5;" x1="1686.5" x2="1879.5" y1="651.8203" y2="651.8203"/><ellipse cx="1696.5" cy="663.7979" fill="#84BE84" rx="3" ry="3" style="stroke: #038048; stroke-width: 1.0;"/><text fill="#000000" font-family="sans-serif" font-size="11" lengthAdjust="spacingAndGlyphs" textLength="141" x="1705.5" y="666.4551">contains( a:RoleAssignee )</text><rect fill="#FEFECE" filter="url(#f1)" height="86.8652" style="stroke: #A80036; stroke-width: 1.5;" width="161" x="2054.5" y="756.5"/><ellipse cx="2080.3" cy="772.5" fill="#ADD1B2" rx="11" ry="11" style="stroke: #A80036; stroke-width: 1.0;"/><path d="M2083.2731,778.1431 Q2082.6921,778.4419 2082.0529,778.5913 Q2081.4138,778.7407 2080.7082,778.7407 Q2078.2014,778.7407 2076.8815,777.0889 Q2075.5617,775.437 2075.5617,772.3159 Q2075.5617,769.1865 2076.8815,767.5347 Q2078.2014,765.8828 2080.7082,765.8828 Q2081.4138,765.8828 2082.0612,766.0322 Q2082.7087,766.1816 2083.2731,766.4805 L2083.2731,769.2031 Q2082.6423,768.6221 2082.0488,768.3523 Q2081.4553,768.0825 2080.8244,768.0825 Q2079.4797,768.0825 2078.7949,769.1492 Q2078.1101,770.2158 2078.1101,772.3159 Q2078.1101,774.4077 2078.7949,775.4744 Q2079.4797,776.541 2080.8244,776.541 Q2081.4553,776.541 2082.0488,776.2712 Q2082.6423,776.0015 2083.2731,775.4204 Z "/><text fill="#000000" font-family="sans-serif" font-size="12" lengthAdjust="spacingAndGlyphs" textLength="77" x="2096.7" y="777.0352">ExplicitGroup</text><rect fill="#FFFFFF" height="16.1328" style="stroke: #000000; stroke-width: 1.0; stroke-dasharray: 2.0,2.0;" width="26" x="2192.5" y="753.5"/><text fill="#000000" font-family="sans-serif" font-size="12" font-style="italic" lengthAdjust="spacingAndGlyphs" textLength="16" x="2197.5" y="766.1016">DB</text><line style="stroke: #A80036; stroke-width: 1.5;" x1="2055.5" x2="2214.5" y1="788.5" y2="788.5"/><ellipse cx="2065.5" cy="800.4775" fill="none" rx="3" ry="3" style="stroke: #038048; stroke-width: 1.0;"/><text fill="#000000" font-family="sans-serif" font-size="11" lengthAdjust="spacingAndGlyphs" textLength="102" x="2074.5" y="803.1348">list: RoleAssignee[]</text><line style="stroke: #A80036; stroke-width: 1.5;" x1="2055.5" x2="2214.5" y1="809.4551" y2="809.4551"/><ellipse cx="2065.5" cy="821.4326" fill="#84BE84" rx="3" ry="3" style="stroke: #038048; stroke-width: 1.0;"/><text fill="#000000" font-family="sans-serif" font-size="11" lengthAdjust="spacingAndGlyphs" textLength="115" x="2074.5" y="824.0898">add( a:RoleAssignee )</text><ellipse cx="2065.5" cy="834.3877" fill="#84BE84" rx="3" ry="3" style="stroke: #038048; stroke-width: 1.0;"/><text fill="#000000" font-family="sans-serif" font-size="11" lengthAdjust="spacingAndGlyphs" textLength="135" x="2074.5" y="837.0449">remove( a:RoleAssignee )</text><rect fill="#FEFECE" filter="url(#f1)" height="48" style="stroke: #A80036; stroke-width: 1.5;" width="143" x="1762.5" y="776"/><ellipse cx="1777.5" cy="792" fill="#ADD1B2" rx="11" ry="11" style="stroke: #A80036; stroke-width: 1.0;"/><path d="M1780.4731,797.6431 Q1779.8921,797.9419 1779.2529,798.0913 Q1778.6138,798.2407 1777.9082,798.2407 Q1775.4014,798.2407 1774.0815,796.5889 Q1772.7617,794.937 1772.7617,791.8159 Q1772.7617,788.6865 1774.0815,787.0347 Q1775.4014,785.3828 1777.9082,785.3828 Q1778.6138,785.3828 1779.2612,785.5322 Q1779.9087,785.6816 1780.4731,785.9805 L1780.4731,788.7031 Q1779.8423,788.1221 1779.2488,787.8523 Q1778.6553,787.5825 1778.0244,787.5825 Q1776.6797,787.5825 1775.9949,788.6492 Q1775.3101,789.7158 1775.3101,791.8159 Q1775.3101,793.9077 1775.9949,794.9744 Q1776.6797,796.041 1778.0244,796.041 Q1778.6553,796.041 1779.2488,795.7712 Q1779.8423,795.5015 1780.4731,794.9204 Z "/><text fill="#000000" font-family="sans-serif" font-size="12" lengthAdjust="spacingAndGlyphs" textLength="111" x="1791.5" y="796.5352">AuthenticatedUsers</text><line style="stroke: #A80036; stroke-width: 1.5;" x1="1763.5" x2="1904.5" y1="808" y2="808"/><line style="stroke: #A80036; stroke-width: 1.5;" x1="1763.5" x2="1904.5" y1="816" y2="816"/><rect fill="#FEFECE" filter="url(#f1)" height="48" style="stroke: #A80036; stroke-width: 1.5;" width="78" x="1941" y="776"/><ellipse cx="1956" cy="792" fill="#ADD1B2" rx="11" ry="11" style="stroke: #A80036; stroke-width: 1.0;"/><path d="M1958.9731,797.6431 Q1958.3921,797.9419 1957.7529,798.0913 Q1957.1138,798.2407 1956.4082,798.2407 Q1953.9014,798.2407 1952.5815,796.5889 Q1951.2617,794.937 1951.2617,791.8159 Q1951.2617,788.6865 1952.5815,787.0347 Q1953.9014,785.3828 1956.4082,785.3828 Q1957.1138,785.3828 1957.7612,785.5322 Q1958.4087,785.6816 1958.9731,785.9805 L1958.9731,788.7031 Q1958.3423,788.1221 1957.7488,787.8523 Q1957.1553,787.5825 1956.5244,787.5825 Q1955.1797,787.5825 1954.4949,788.6492 Q1953.8101,789.7158 1953.8101,791.8159 Q1953.8101,793.9077 1954.4949,794.9744 Q1955.1797,796.041 1956.5244,796.041 Q1957.1553,796.041 1957.7488,795.7712 Q1958.3423,795.5015 1958.9731,794.9204 Z "/><text fill="#000000" font-family="sans-serif" font-size="12" lengthAdjust="spacingAndGlyphs" textLength="46" x="1970" y="796.5352">AllUsers</text><line style="stroke: #A80036; stroke-width: 1.5;" x1="1942" x2="2018" y1="808" y2="808"/><line style="stroke: #A80036; stroke-width: 1.5;" x1="1942" x2="2018" y1="816" y2="816"/><rect fill="#FEFECE" filter="url(#f1)" height="60.9551" style="stroke: #A80036; stroke-width: 1.5;" width="215" x="1376.5" y="769.5"/><ellipse cx="1449.75" cy="785.5" fill="#ADD1B2" rx="11" ry="11" style="stroke: #A80036; stroke-width: 1.0;"/><path d="M1452.7231,791.1431 Q1452.1421,791.4419 1451.5029,791.5913 Q1450.8638,791.7407 1450.1582,791.7407 Q1447.6514,791.7407 1446.3315,790.0889 Q1445.0117,788.437 1445.0117,785.3159 Q1445.0117,782.1865 1446.3315,780.5347 Q1447.6514,778.8828 1450.1582,778.8828 Q1450.8638,778.8828 1451.5112,779.0322 Q1452.1587,779.1816 1452.7231,779.4805 L1452.7231,782.2031 Q1452.0923,781.6221 1451.4988,781.3523 Q1450.9053,781.0825 1450.2744,781.0825 Q1448.9297,781.0825 1448.2449,782.1492 Q1447.5601,783.2158 1447.5601,785.3159 Q1447.5601,787.4077 1448.2449,788.4744 Q1448.9297,789.541 1450.2744,789.541 Q1450.9053,789.541 1451.4988,789.2712 Q1452.0923,789.0015 1452.7231,788.4204 Z "/><text fill="#000000" font-family="sans-serif" font-size="12" lengthAdjust="spacingAndGlyphs" textLength="60" x="1470.25" y="790.0352">ShibGroup</text><line style="stroke: #A80036; stroke-width: 1.5;" x1="1377.5" x2="1590.5" y1="801.5" y2="801.5"/><text fill="#000000" font-family="sans-serif" font-size="11" lengthAdjust="spacingAndGlyphs" textLength="203" x="1382.5" y="816.1348">headerMatchers: Map&lt;String, Regex&gt;</text><line style="stroke: #A80036; stroke-width: 1.5;" x1="1377.5" x2="1590.5" y1="822.4551" y2="822.4551"/><rect fill="#FEFECE" filter="url(#f1)" height="99.8203" style="stroke: #A80036; stroke-width: 1.5;" width="283" x="304.5" y="566.5"/><ellipse cx="351.25" cy="582.5" fill="#ADD1B2" rx="11" ry="11" style="stroke: #A80036; stroke-width: 1.0;"/><path d="M354.2231,588.1431 Q353.6421,588.4419 353.0029,588.5913 Q352.3638,588.7407 351.6582,588.7407 Q349.1514,588.7407 347.8315,587.0889 Q346.5117,585.437 346.5117,582.3159 Q346.5117,579.1865 347.8315,577.5347 Q349.1514,575.8828 351.6582,575.8828 Q352.3638,575.8828 353.0112,576.0322 Q353.6587,576.1816 354.2231,576.4805 L354.2231,579.2031 Q353.5923,578.6221 352.9988,578.3523 Q352.4053,578.0825 351.7744,578.0825 Q350.4297,578.0825 349.7449,579.1492 Q349.0601,580.2158 349.0601,582.3159 Q349.0601,584.4077 349.7449,585.4744 Q350.4297,586.541 351.7744,586.541 Q352.4053,586.541 352.9988,586.2712 Q353.5923,586.0015 354.2231,585.4204 Z "/><text fill="#000000" font-family="sans-serif" font-size="12" lengthAdjust="spacingAndGlyphs" textLength="126" x="371.75" y="587.0352">RoleAssigneeManager</text><rect fill="#FFFFFF" height="16.1328" style="stroke: #000000; stroke-width: 1.0; stroke-dasharray: 2.0,2.0;" width="53" x="537.5" y="563.5"/><text fill="#000000" font-family="sans-serif" font-size="12" font-style="italic" lengthAdjust="spacingAndGlyphs" textLength="51" x="538.5" y="576.1016">Singleton</text><line style="stroke: #A80036; stroke-width: 1.5;" x1="305.5" x2="586.5" y1="598.5" y2="598.5"/><text fill="#000000" font-family="sans-serif" font-size="11" lengthAdjust="spacingAndGlyphs" textLength="270" x="310.5" y="613.1348">assigneeProviders: Collection&lt;AssigneeProvider&gt;</text><line style="stroke: #A80036; stroke-width: 1.5;" x1="305.5" x2="586.5" y1="619.4551" y2="619.4551"/><text fill="#000000" font-family="sans-serif" font-size="11" lengthAdjust="spacingAndGlyphs" textLength="205" x="310.5" y="634.0898">registerProvider( p:AssigneeProvider )</text><text fill="#000000" font-family="sans-serif" font-size="11" lengthAdjust="spacingAndGlyphs" textLength="237" x="310.5" y="647.0449">getRoleAssignee( idtf:String ) : RoleAssignee</text><text fill="#000000" font-family="sans-serif" font-size="11" lengthAdjust="spacingAndGlyphs" textLength="271" x="310.5" y="660">getRoleAssignee( req:HttpRequest ) : RoleAssignee</text><rect fill="#FEFECE" filter="url(#f1)" height="99.8203" style="stroke: #A80036; stroke-width: 1.5;" width="283" x="304.5" y="750"/><ellipse cx="379.75" cy="766" fill="#B4A7E5" rx="11" ry="11" style="stroke: #A80036; stroke-width: 1.0;"/><path d="M375.6777,761.7651 L375.6777,759.6069 L383.0571,759.6069 L383.0571,761.7651 L380.5918,761.7651 L380.5918,769.8418 L383.0571,769.8418 L383.0571,772 L375.6777,772 L375.6777,769.8418 L378.1431,769.8418 L378.1431,761.7651 Z "/><text fill="#000000" font-family="sans-serif" font-size="12" font-style="italic" lengthAdjust="spacingAndGlyphs" textLength="124" x="400.25" y="770.5352">RoleAssigneeProvider</text><line style="stroke: #A80036; stroke-width: 1.5;" x1="305.5" x2="586.5" y1="782" y2="782"/><ellipse cx="315.5" cy="793.9775" fill="none" rx="3" ry="3" style="stroke: #038048; stroke-width: 1.0;"/><text fill="#000000" font-family="sans-serif" font-size="11" lengthAdjust="spacingAndGlyphs" textLength="168" x="324.5" y="796.6348">info : RoleAssigneeProviderInfo</text><line style="stroke: #A80036; stroke-width: 1.5;" x1="305.5" x2="586.5" y1="802.9551" y2="802.9551"/><text fill="#000000" font-family="sans-serif" font-size="11" lengthAdjust="spacingAndGlyphs" textLength="258" x="310.5" y="817.5898">acceptsRoleAssigneeIdentifier( idtf:String ): bool</text><text fill="#000000" font-family="sans-serif" font-size="11" lengthAdjust="spacingAndGlyphs" textLength="237" x="310.5" y="830.5449">getRoleAssignee( idtf:String ) : RoleAssignee</text><text fill="#000000" font-family="sans-serif" font-size="11" lengthAdjust="spacingAndGlyphs" textLength="271" x="310.5" y="843.5">getRoleAssignee( req:HttpRequest ) : RoleAssignee</text><rect fill="#FEFECE" filter="url(#f1)" height="60.9551" style="stroke: #A80036; stroke-width: 1.5;" width="136" x="237" y="917.5"/><ellipse cx="263.25" cy="933.5" fill="#B4A7E5" rx="11" ry="11" style="stroke: #A80036; stroke-width: 1.0;"/><path d="M259.1777,929.2651 L259.1777,927.1069 L266.5571,927.1069 L266.5571,929.2651 L264.0918,929.2651 L264.0918,937.3418 L266.5571,937.3418 L266.5571,939.5 L259.1777,939.5 L259.1777,937.3418 L261.6431,937.3418 L261.6431,929.2651 Z "/><text fill="#000000" font-family="sans-serif" font-size="12" font-style="italic" lengthAdjust="spacingAndGlyphs" textLength="79" x="279.75" y="938.0352">GroupCreator</text><line style="stroke: #A80036; stroke-width: 1.5;" x1="238" x2="372" y1="949.5" y2="949.5"/><ellipse cx="248" cy="961.4775" fill="none" rx="3" ry="3" style="stroke: #038048; stroke-width: 1.0;"/><text fill="#000000" font-family="sans-serif" font-size="11" lengthAdjust="spacingAndGlyphs" textLength="110" x="257" y="964.1348">createGroup : Group</text><line style="stroke: #A80036; stroke-width: 1.5;" x1="238" x2="372" y1="970.4551" y2="970.4551"/><rect fill="#FEFECE" filter="url(#f1)" height="73.9102" style="stroke: #A80036; stroke-width: 1.5;" width="226" x="408" y="911"/><ellipse cx="488.25" cy="927" fill="#B4A7E5" rx="11" ry="11" style="stroke: #A80036; stroke-width: 1.0;"/><path d="M484.1777,922.7651 L484.1777,920.6069 L491.5571,920.6069 L491.5571,922.7651 L489.0918,922.7651 L489.0918,930.8418 L491.5571,930.8418 L491.5571,933 L484.1777,933 L484.1777,930.8418 L486.6431,930.8418 L486.6431,922.7651 Z "/><text fill="#000000" font-family="sans-serif" font-size="12" font-style="italic" lengthAdjust="spacingAndGlyphs" textLength="57" x="508.75" y="931.5352">UserLister</text><line style="stroke: #A80036; stroke-width: 1.5;" x1="409" x2="633" y1="943" y2="943"/><line style="stroke: #A80036; stroke-width: 1.5;" x1="409" x2="633" y1="951" y2="951"/><ellipse cx="419" cy="962.9775" fill="#84BE84" rx="3" ry="3" style="stroke: #038048; stroke-width: 1.0;"/><text fill="#000000" font-family="sans-serif" font-size="11" lengthAdjust="spacingAndGlyphs" textLength="126" x="428" y="965.6348">listUsers() : List&lt;User&gt;</text><ellipse cx="419" cy="975.9326" fill="#84BE84" rx="3" ry="3" style="stroke: #038048; stroke-width: 1.0;"/><text fill="#000000" font-family="sans-serif" font-size="11" lengthAdjust="spacingAndGlyphs" textLength="200" x="428" y="978.5898">findUsers( queryString ) : List&lt;User&gt;</text><rect fill="#FEFECE" filter="url(#f1)" height="99.8203" style="stroke: #A80036; stroke-width: 1.5;" width="177" x="657.5" y="750"/><ellipse cx="672.5" cy="766" fill="#ADD1B2" rx="11" ry="11" style="stroke: #A80036; stroke-width: 1.0;"/><path d="M675.4731,771.6431 Q674.8921,771.9419 674.2529,772.0913 Q673.6138,772.2407 672.9082,772.2407 Q670.4014,772.2407 669.0815,770.5889 Q667.7617,768.937 667.7617,765.8159 Q667.7617,762.6865 669.0815,761.0347 Q670.4014,759.3828 672.9082,759.3828 Q673.6138,759.3828 674.2612,759.5322 Q674.9087,759.6816 675.4731,759.9805 L675.4731,762.7031 Q674.8423,762.1221 674.2488,761.8523 Q673.6553,761.5825 673.0244,761.5825 Q671.6797,761.5825 670.9949,762.6492 Q670.3101,763.7158 670.3101,765.8159 Q670.3101,767.9077 670.9949,768.9744 Q671.6797,770.041 673.0244,770.041 Q673.6553,770.041 674.2488,769.7712 Q674.8423,769.5015 675.4731,768.9204 Z "/><text fill="#000000" font-family="sans-serif" font-size="12" lengthAdjust="spacingAndGlyphs" textLength="145" x="686.5" y="770.5352">RoleAssigneeProviderInfo</text><line style="stroke: #A80036; stroke-width: 1.5;" x1="658.5" x2="833.5" y1="782" y2="782"/><ellipse cx="668.5" cy="793.9775" fill="none" rx="3" ry="3" style="stroke: #038048; stroke-width: 1.0;"/><text fill="#000000" font-family="sans-serif" font-size="11" lengthAdjust="spacingAndGlyphs" textLength="29" x="677.5" y="796.6348">name</text><ellipse cx="668.5" cy="806.9326" fill="none" rx="3" ry="3" style="stroke: #038048; stroke-width: 1.0;"/><text fill="#000000" font-family="sans-serif" font-size="11" lengthAdjust="spacingAndGlyphs" textLength="61" x="677.5" y="809.5898">description</text><ellipse cx="668.5" cy="819.8877" fill="none" rx="3" ry="3" style="stroke: #038048; stroke-width: 1.0;"/><text fill="#000000" font-family="sans-serif" font-size="11" lengthAdjust="spacingAndGlyphs" textLength="28" x="677.5" y="822.5449">icon?</text><ellipse cx="668.5" cy="832.8428" fill="none" rx="3" ry="3" style="stroke: #038048; stroke-width: 1.0;"/><text fill="#000000" font-family="sans-serif" font-size="11" lengthAdjust="spacingAndGlyphs" textLength="9" x="677.5" y="835.5">...</text><line style="stroke: #A80036; stroke-width: 1.5;" x1="658.5" x2="833.5" y1="841.8203" y2="841.8203"/><rect fill="#FEFECE" filter="url(#f1)" height="48" style="stroke: #A80036; stroke-width: 1.5;" width="186" x="649" y="1048"/><ellipse cx="664" cy="1064" fill="#ADD1B2" rx="11" ry="11" style="stroke: #A80036; stroke-width: 1.0;"/><path d="M666.9731,1069.6431 Q666.3921,1069.9419 665.7529,1070.0913 Q665.1138,1070.2407 664.4082,1070.2407 Q661.9014,1070.2407 660.5815,1068.5889 Q659.2617,1066.937 659.2617,1063.8159 Q659.2617,1060.6865 660.5815,1059.0347 Q661.9014,1057.3828 664.4082,1057.3828 Q665.1138,1057.3828 665.7612,1057.5322 Q666.4087,1057.6816 666.9731,1057.9805 L666.9731,1060.7031 Q666.3423,1060.1221 665.7488,1059.8523 Q665.1553,1059.5825 664.5244,1059.5825 Q663.1797,1059.5825 662.4949,1060.6492 Q661.8101,1061.7158 661.8101,1063.8159 Q661.8101,1065.9077 662.4949,1066.9744 Q663.1797,1068.041 664.5244,1068.041 Q665.1553,1068.041 665.7488,1067.7712 Q666.3423,1067.5015 666.9731,1066.9204 Z "/><text fill="#000000" font-family="sans-serif" font-size="12" lengthAdjust="spacingAndGlyphs" textLength="154" x="678" y="1068.5352">DatabaseAssigneeProvider</text><line style="stroke: #A80036; stroke-width: 1.5;" x1="650" x2="834" y1="1080" y2="1080"/><line style="stroke: #A80036; stroke-width: 1.5;" x1="650" x2="834" y1="1088" y2="1088"/><rect fill="#FEFECE" filter="url(#f1)" height="48" style="stroke: #A80036; stroke-width: 1.5;" width="155" x="263.5" y="1048"/><ellipse cx="278.5" cy="1064" fill="#ADD1B2" rx="11" ry="11" style="stroke: #A80036; stroke-width: 1.0;"/><path d="M281.4731,1069.6431 Q280.8921,1069.9419 280.2529,1070.0913 Q279.6138,1070.2407 278.9082,1070.2407 Q276.4014,1070.2407 275.0815,1068.5889 Q273.7617,1066.937 273.7617,1063.8159 Q273.7617,1060.6865 275.0815,1059.0347 Q276.4014,1057.3828 278.9082,1057.3828 Q279.6138,1057.3828 280.2612,1057.5322 Q280.9087,1057.6816 281.4731,1057.9805 L281.4731,1060.7031 Q280.8423,1060.1221 280.2488,1059.8523 Q279.6553,1059.5825 279.0244,1059.5825 Q277.6797,1059.5825 276.9949,1060.6492 Q276.3101,1061.7158 276.3101,1063.8159 Q276.3101,1065.9077 276.9949,1066.9744 Q277.6797,1068.041 279.0244,1068.041 Q279.6553,1068.041 280.2488,1067.7712 Q280.8423,1067.5015 281.4731,1066.9204 Z "/><text fill="#000000" font-family="sans-serif" font-size="12" lengthAdjust="spacingAndGlyphs" textLength="123" x="292.5" y="1068.5352">ShibAssigneeProvider</text><line style="stroke: #A80036; stroke-width: 1.5;" x1="264.5" x2="417.5" y1="1080" y2="1080"/><line style="stroke: #A80036; stroke-width: 1.5;" x1="264.5" x2="417.5" y1="1088" y2="1088"/><rect fill="#FEFECE" filter="url(#f1)" height="48" style="stroke: #A80036; stroke-width: 1.5;" width="190" x="38" y="1048"/><ellipse cx="53" cy="1064" fill="#ADD1B2" rx="11" ry="11" style="stroke: #A80036; stroke-width: 1.0;"/><path d="M55.9731,1069.6431 Q55.3921,1069.9419 54.7529,1070.0913 Q54.1138,1070.2407 53.4082,1070.2407 Q50.9014,1070.2407 49.5815,1068.5889 Q48.2617,1066.937 48.2617,1063.8159 Q48.2617,1060.6865 49.5815,1059.0347 Q50.9014,1057.3828 53.4082,1057.3828 Q54.1138,1057.3828 54.7612,1057.5322 Q55.4087,1057.6816 55.9731,1057.9805 L55.9731,1060.7031 Q55.3423,1060.1221 54.7488,1059.8523 Q54.1553,1059.5825 53.5244,1059.5825 Q52.1797,1059.5825 51.4949,1060.6492 Q50.8101,1061.7158 50.8101,1063.8159 Q50.8101,1065.9077 51.4949,1066.9744 Q52.1797,1068.041 53.5244,1068.041 Q54.1553,1068.041 54.7488,1067.7712 Q55.3423,1067.5015 55.9731,1066.9204 Z "/><text fill="#000000" font-family="sans-serif" font-size="12" lengthAdjust="spacingAndGlyphs" textLength="158" x="67" y="1068.5352">IpAddressAssigneeProvider</text><line style="stroke: #A80036; stroke-width: 1.5;" x1="39" x2="227" y1="1080" y2="1080"/><line style="stroke: #A80036; stroke-width: 1.5;" x1="39" x2="227" y1="1088" y2="1088"/><rect fill="#FEFECE" filter="url(#f1)" height="48" style="stroke: #A80036; stroke-width: 1.5;" width="160" x="454" y="1048"/><ellipse cx="469" cy="1064" fill="#ADD1B2" rx="11" ry="11" style="stroke: #A80036; stroke-width: 1.0;"/><path d="M471.9731,1069.6431 Q471.3921,1069.9419 470.7529,1070.0913 Q470.1138,1070.2407 469.4082,1070.2407 Q466.9014,1070.2407 465.5815,1068.5889 Q464.2617,1066.937 464.2617,1063.8159 Q464.2617,1060.6865 465.5815,1059.0347 Q466.9014,1057.3828 469.4082,1057.3828 Q470.1138,1057.3828 470.7612,1057.5322 Q471.4087,1057.6816 471.9731,1057.9805 L471.9731,1060.7031 Q471.3423,1060.1221 470.7488,1059.8523 Q470.1553,1059.5825 469.5244,1059.5825 Q468.1797,1059.5825 467.4949,1060.6492 Q466.8101,1061.7158 466.8101,1063.8159 Q466.8101,1065.9077 467.4949,1066.9744 Q468.1797,1068.041 469.5244,1068.041 Q470.1553,1068.041 470.7488,1067.7712 Q471.3423,1067.5015 471.9731,1066.9204 Z "/><text fill="#000000" font-family="sans-serif" font-size="12" lengthAdjust="spacingAndGlyphs" textLength="128" x="483" y="1068.5352">LdapAssigneeProvider</text><line style="stroke: #A80036; stroke-width: 1.5;" x1="455" x2="613" y1="1080" y2="1080"/><line style="stroke: #A80036; stroke-width: 1.5;" x1="455" x2="613" y1="1088" y2="1088"/><rect fill="#FEFECE" filter="url(#f1)" height="48" style="stroke: #A80036; stroke-width: 1.5;" width="166" x="669" y="924"/><ellipse cx="684" cy="940" fill="#ADD1B2" rx="11" ry="11" style="stroke: #A80036; stroke-width: 1.0;"/><path d="M686.9731,945.6431 Q686.3921,945.9419 685.7529,946.0913 Q685.1138,946.2407 684.4082,946.2407 Q681.9014,946.2407 680.5815,944.5889 Q679.2617,942.937 679.2617,939.8159 Q679.2617,936.6865 680.5815,935.0347 Q681.9014,933.3828 684.4082,933.3828 Q685.1138,933.3828 685.7612,933.5322 Q686.4087,933.6816 686.9731,933.9805 L686.9731,936.7031 Q686.3423,936.1221 685.7488,935.8523 Q685.1553,935.5825 684.5244,935.5825 Q683.1797,935.5825 682.4949,936.6492 Q681.8101,937.7158 681.8101,939.8159 Q681.8101,941.9077 682.4949,942.9744 Q683.1797,944.041 684.5244,944.041 Q685.1553,944.041 685.7488,943.7712 Q686.3423,943.5015 686.9731,942.9204 Z "/><text fill="#000000" font-family="sans-serif" font-size="12" lengthAdjust="spacingAndGlyphs" textLength="134" x="698" y="944.5352">OAuthAssigneeProvider</text><line style="stroke: #A80036; stroke-width: 1.5;" x1="670" x2="834" y1="956" y2="956"/><line style="stroke: #A80036; stroke-width: 1.5;" x1="670" x2="834" y1="964" y2="964"/><rect fill="#FEFECE" filter="url(#f1)" height="86.8652" style="stroke: #A80036; stroke-width: 1.5;" width="154" x="2187" y="59.5"/><ellipse cx="2205.6" cy="75.5" fill="#ADD1B2" rx="11" ry="11" style="stroke: #A80036; stroke-width: 1.0;"/><path d="M2208.5731,81.1431 Q2207.9921,81.4419 2207.3529,81.5913 Q2206.7138,81.7407 2206.0082,81.7407 Q2203.5014,81.7407 2202.1815,80.0889 Q2200.8617,78.437 2200.8617,75.3159 Q2200.8617,72.1865 2202.1815,70.5347 Q2203.5014,68.8828 2206.0082,68.8828 Q2206.7138,68.8828 2207.3612,69.0322 Q2208.0087,69.1816 2208.5731,69.4805 L2208.5731,72.2031 Q2207.9423,71.6221 2207.3488,71.3523 Q2206.7553,71.0825 2206.1244,71.0825 Q2204.7797,71.0825 2204.0949,72.1492 Q2203.4101,73.2158 2203.4101,75.3159 Q2203.4101,77.4077 2204.0949,78.4744 Q2204.7797,79.541 2206.1244,79.541 Q2206.7553,79.541 2207.3488,79.2712 Q2207.9423,79.0015 2208.5731,78.4204 Z "/><text fill="#000000" font-family="sans-serif" font-size="12" lengthAdjust="spacingAndGlyphs" textLength="86" x="2220.4" y="80.0352">AccessRequest</text><rect fill="#FFFFFF" height="16.1328" style="stroke: #000000; stroke-width: 1.0; stroke-dasharray: 2.0,2.0;" width="26" x="2318" y="56.5"/><text fill="#000000" font-family="sans-serif" font-size="12" font-style="italic" lengthAdjust="spacingAndGlyphs" textLength="16" x="2323" y="69.1016">DB</text><line style="stroke: #A80036; stroke-width: 1.5;" x1="2188" x2="2340" y1="91.5" y2="91.5"/><text fill="#000000" font-family="sans-serif" font-size="11" lengthAdjust="spacingAndGlyphs" textLength="142" x="2193" y="106.1348">from: RoleAssigneeRecord</text><text fill="#000000" font-family="sans-serif" font-size="11" lengthAdjust="spacingAndGlyphs" textLength="75" x="2193" y="119.0898">dvo: DvObject</text><text fill="#000000" font-family="sans-serif" font-size="11" lengthAdjust="spacingAndGlyphs" textLength="79" x="2193" y="132.0449">metadata : TBD</text><line style="stroke: #A80036; stroke-width: 1.5;" x1="2188" x2="2340" y1="138.3652" y2="138.3652"/><rect fill="#FEFECE" filter="url(#f1)" height="73.9102" style="stroke: #A80036; stroke-width: 1.5;" width="111" x="2040.5" y="66"/><ellipse cx="2064.5" cy="82" fill="#B4A7E5" rx="11" ry="11" style="stroke: #A80036; stroke-width: 1.0;"/><path d="M2060.4277,77.7651 L2060.4277,75.6069 L2067.8071,75.6069 L2067.8071,77.7651 L2065.3418,77.7651 L2065.3418,85.8418 L2067.8071,85.8418 L2067.8071,88 L2060.4277,88 L2060.4277,85.8418 L2062.8931,85.8418 L2062.8931,77.7651 Z "/><text fill="#000000" font-family="sans-serif" font-size="12" font-style="italic" lengthAdjust="spacingAndGlyphs" textLength="59" x="2080.5" y="86.5352">Command</text><line style="stroke: #A80036; stroke-width: 1.5;" x1="2041.5" x2="2150.5" y1="98" y2="98"/><text fill="#000000" font-family="sans-serif" font-size="11" lengthAdjust="spacingAndGlyphs" textLength="78" x="2046.5" y="112.6348">issuedBy: User</text><text fill="#000000" font-family="sans-serif" font-size="11" lengthAdjust="spacingAndGlyphs" textLength="99" x="2046.5" y="125.5898">effects: DvObject[]</text><line style="stroke: #A80036; stroke-width: 1.5;" x1="2041.5" x2="2150.5" y1="131.9102" y2="131.9102"/><polygon fill="#FBFB77" filter="url(#f1)" points="2376.5,59.5,2376.5,146.0527,2735.5,146.0527,2735.5,69.5,2725.5,59.5,2376.5,59.5" style="stroke: #A80036; stroke-width: 1.0;"/><line style="stroke: #A80036; stroke-width: 1.0;" x1="2725.5" x2="2725.5" y1="59.5" y2="69.5"/><line style="stroke: #A80036; stroke-width: 1.0;" x1="2735.5" x2="2725.5" y1="69.5" y2="69.5"/><text fill="#000000" font-family="sans-serif" font-size="13" lengthAdjust="spacingAndGlyphs" textLength="81" x="2382.5" y="77.0684">Invariant: We</text><text fill="#000000" font-family="sans-serif" font-size="13" font-weight="bold" lengthAdjust="spacingAndGlyphs" textLength="46" x="2467.5" y="77.0684">always</text><text fill="#000000" font-family="sans-serif" font-size="13" lengthAdjust="spacingAndGlyphs" textLength="71" x="2517.5" y="77.0684">have a user</text><text fill="#000000" font-family="sans-serif" font-size="13" lengthAdjust="spacingAndGlyphs" textLength="338" x="2382.5" y="92.3789">Local users are just users supplied by a local provider</text><text fill="#000000" font-family="sans-serif" font-size="13" lengthAdjust="spacingAndGlyphs" textLength="222" x="2382.5" y="107.6895">Non-explicit groups, maps a set of</text><text fill="#000000" font-family="sans-serif" font-size="13" lengthAdjust="spacingAndGlyphs" textLength="152" x="2382.5" y="123">HTTP request properties</text><text fill="#000000" font-family="sans-serif" font-size="13" lengthAdjust="spacingAndGlyphs" textLength="208" x="2382.5" y="138.3105">to an internal RoleAsignee object</text><path d="M1854.7,465.353 C1705.31,504.866 1409.77,583.029 1316.16,607.789 " fill="none" style="stroke: #A80036; stroke-width: 1.0;"/><polygon fill="none" points="1853.22,458.505,1874.34,460.158,1856.8,472.039,1853.22,458.505" style="stroke: #A80036; stroke-width: 1.0;"/><path d="M1889.63,499.877 C1871.76,519.255 1851.88,540.803 1834.19,559.996 " fill="none" style="stroke: #A80036; stroke-width: 1.0;"/><polygon fill="none" points="1884.74,494.845,1903.45,484.888,1895.04,504.336,1884.74,494.845" style="stroke: #A80036; stroke-width: 1.0;"/><path d="M1240.23,643.458 C1176.33,678.928 1062.71,741.994 1001.612,775.904 " fill="none" style="stroke: #A80036; stroke-width: 1.0;"/><polygon fill="none" points="1237.1,637.193,1257.98,633.607,1243.89,649.433,1237.1,637.193" style="stroke: #A80036; stroke-width: 1.0;"/><path d="M1287,660.877 C1287,694.42 1287,739.962 1287,769.418 " fill="none" style="stroke: #A80036; stroke-width: 1.0;"/><polygon fill="none" points="1280,660.856,1287,640.856,1294,660.856,1280,660.856" style="stroke: #A80036; stroke-width: 1.0;"/><path d="M1032.21,831.694 C1047.86,838.01 1064.41,844.427 1080,850 C1166.71,880.991 1191.3,879.981 1278,911 C1283.6,913.002 1289.36,915.153 1295.13,917.371 " fill="none" style="stroke: #A80036; stroke-width: 1.0;"/><polygon fill="none" points="1029.52,838.16,1013.67,824.103,1034.83,825.203,1029.52,838.16" style="stroke: #A80036; stroke-width: 1.0;"/><path d="M957.326,844.381 C956.02,865.568 954.467,890.762 953.226,910.885 " fill="none" style="stroke: #A80036; stroke-width: 1.0;"/><polygon fill="none" points="950.357,843.666,958.574,824.134,964.33,844.527,950.357,843.666" style="stroke: #A80036; stroke-width: 1.0;"/><path d="M994.585,839.253 C1018.91,866.155 1050.65,901.267 1071.18,923.974 " fill="none" style="stroke: #A80036; stroke-width: 1.0;"/><polygon fill="none" points="989.136,843.664,980.916,824.134,999.521,834.275,989.136,843.664" style="stroke: #A80036; stroke-width: 1.0;"/><path d="M1018.79,833.913 C1057.55,855.671 1109.38,884.89 1155,911 C1162.24,915.142 1169.93,919.583 1177.35,923.881 " fill="none" style="stroke: #A80036; stroke-width: 1.0;"/><polygon fill="none" points="1015.19,839.918,1001.17,824.028,1022.04,827.708,1015.19,839.918" style="stroke: #A80036; stroke-width: 1.0;"/><path d="M1898.34,678.56 C1924.49,692.281 1952.16,706.71 1978,720 C2002.69,732.701 2029.67,746.354 2054.18,758.678 " fill="none" style="stroke: #A80036; stroke-width: 1.0;"/><polygon fill="none" points="1894.97,684.698,1880.52,669.197,1901.49,672.305,1894.97,684.698" style="stroke: #A80036; stroke-width: 1.0;"/><path d="M1804.22,693.012 C1812.58,722.756 1821.57,754.749 1827.46,775.712 " fill="none" style="stroke: #A80036; stroke-width: 1.0;"/><polygon fill="none" points="1797.39,694.585,1798.72,673.437,1810.87,690.798,1797.39,694.585" style="stroke: #A80036; stroke-width: 1.0;"/><path d="M1858.3,686.873 C1892.47,718.354 1930.59,753.473 1954.9,775.879 " fill="none" style="stroke: #A80036; stroke-width: 1.0;"/><polygon fill="none" points="1853.41,691.889,1843.45,673.189,1862.9,681.593,1853.41,691.889" style="stroke: #A80036; stroke-width: 1.0;"/><path d="M1674.1,683.608 C1625.71,712.977 1571.19,746.072 1532.99,769.264 " fill="none" style="stroke: #A80036; stroke-width: 1.0;"/><polygon fill="none" points="1670.53,677.584,1691.26,673.189,1677.79,689.551,1670.53,677.584" style="stroke: #A80036; stroke-width: 1.0;"/><path d="M1740.05,691.041 C1724.03,718.475 1706.73,748.087 1694.32,769.346 " fill="none" style="stroke: #A80036; stroke-width: 1.0;"/><polygon fill="none" points="1734.2,687.177,1750.33,673.437,1746.29,694.238,1734.2,687.177" style="stroke: #A80036; stroke-width: 1.0;"/><path d="M2084.32,320.566 C2058.52,342.372 2025.37,370.388 1997.66,393.806 " fill="none" style="stroke: #A80036; stroke-width: 1.0; stroke-dasharray: 7.0,7.0;"/><polygon fill="#A80036" points="1993.61,397.226,2003.0653,394.4697,1997.4282,393.9978,1997.9001,388.3606,1993.61,397.226" style="stroke: #A80036; stroke-width: 1.0;"/><text fill="#000000" font-family="sans-serif" font-size="13" lengthAdjust="spacingAndGlyphs" textLength="48" x="2048" y="364.0684">Locates</text><path d="M1041.87,800 C1060.46,800 1079.06,800 1097.66,800 " fill="none" style="stroke: #A80036; stroke-width: 1.0;"/><polygon fill="#A80036" points="1028.66,800,1034.66,804,1040.66,800,1034.66,796,1028.66,800" style="stroke: #A80036; stroke-width: 1.0;"/><text fill="#000000" font-family="sans-serif" font-size="13" lengthAdjust="spacingAndGlyphs" textLength="8" x="1036.6072" y="796.765">1</text><text fill="#000000" font-family="sans-serif" font-size="13" lengthAdjust="spacingAndGlyphs" textLength="22" x="1068.1842" y="796.6787">0..*</text><path d="M2593.63,283.5 C2621.62,283.5 2658.71,283.5 2689.96,283.5 " fill="none" style="stroke: #A80036; stroke-width: 1.0;"/><polygon fill="#A80036" points="2695.32,283.5,2686.32,279.5,2690.32,283.5,2686.32,287.5,2695.32,283.5" style="stroke: #A80036; stroke-width: 1.0;"/><text fill="#000000" font-family="sans-serif" font-size="13" lengthAdjust="spacingAndGlyphs" textLength="65" x="2612" y="277.0684">Defined at</text><path d="M2717.8,310.956 C2679.37,340.689 2617.58,388.493 2580.97,416.815 " fill="none" style="stroke: #A80036; stroke-width: 1.0;"/><polygon fill="#A80036" points="2721.91,307.78,2712.3428,310.1186,2717.9538,310.8375,2717.2348,316.4485,2721.91,307.78" style="stroke: #A80036; stroke-width: 1.0;"/><text fill="#000000" font-family="sans-serif" font-size="13" lengthAdjust="spacingAndGlyphs" textLength="14" x="2664" y="364.0684">At</text><text fill="#000000" font-family="sans-serif" font-size="13" lengthAdjust="spacingAndGlyphs" textLength="8" x="2705.6006" y="328.1326">1</text><path d="M2551,312.784 C2551,342.616 2551,389.066 2551,416.815 " fill="none" style="stroke: #A80036; stroke-width: 1.0;"/><polygon fill="#A80036" points="2551,307.78,2547,316.78,2551,312.78,2555,316.78,2551,307.78" style="stroke: #A80036; stroke-width: 1.0;"/><text fill="#000000" font-family="sans-serif" font-size="13" lengthAdjust="spacingAndGlyphs" textLength="50" x="2552" y="364.0684">Assigns</text><text fill="#000000" font-family="sans-serif" font-size="13" lengthAdjust="spacingAndGlyphs" textLength="8" x="2542.025" y="328.1326">1</text><path d="M2488.27,416.995 C2417.55,391.057 2301.82,348.616 2220.45,318.772 " fill="none" style="stroke: #A80036; stroke-width: 1.0;"/><polygon fill="#A80036" points="2215.63,317.003,2222.7118,323.8476,2220.3266,318.7181,2225.456,316.333,2215.63,317.003" style="stroke: #A80036; stroke-width: 1.0;"/><text fill="#000000" font-family="sans-serif" font-size="13" lengthAdjust="spacingAndGlyphs" textLength="16" x="2353" y="364.0684">To</text><text fill="#000000" font-family="sans-serif" font-size="13" lengthAdjust="spacingAndGlyphs" textLength="8" x="2223.5904" y="316.8232">1</text><path d="M2110.52,756.317 C2096.68,732.001 2079.17,700.907 2064,673 C2029.65,609.803 1991.33,536.077 1967.2,489.231 " fill="none" style="stroke: #A80036; stroke-width: 1.0; stroke-dasharray: 7.0,7.0;"/><polygon fill="#A80036" points="1964.91,484.783,1965.4754,494.6156,1967.1996,489.2279,1972.5873,490.9522,1964.91,484.783" style="stroke: #A80036; stroke-width: 1.0;"/><text fill="#000000" font-family="sans-serif" font-size="13" lengthAdjust="spacingAndGlyphs" textLength="56" x="2065" y="621.5684">Contains</text><path d="M2134.13,743.241 C2132.56,642.072 2129.26,429.866 2127.77,333.717 " fill="none" style="stroke: #A80036; stroke-width: 1.0;"/><polygon fill="#A80036" points="2127.56,320.679,2123.7011,329.7404,2127.6381,325.6784,2131.7001,329.6154,2127.56,320.679" style="stroke: #A80036; stroke-width: 1.0;"/><line style="stroke: #A80036; stroke-width: 1.0;" x1="2127.6381" x2="2127.765" y1="325.6784" y2="333.677"/><polygon fill="none" points="2134.34,756.465,2138.2459,750.4033,2134.1528,744.4665,2130.2469,750.5281,2134.34,756.465" style="stroke: #A80036; stroke-width: 1.0;"/><path d="M2217.14,749.63 C2342.3,674.411 2576.96,533.377 2679.23,471.912 " fill="none" style="stroke: #A80036; stroke-width: 1.0;"/><polygon fill="#A80036" points="2690.48,465.149,2683.2767,464.8132,2680.1963,471.3332,2687.3995,471.669,2690.48,465.149" style="stroke: #A80036; stroke-width: 1.0;"/><polygon fill="#A80036" points="2205.75,756.478,2215.5242,755.2677,2210.0349,753.9012,2211.4014,748.4119,2205.75,756.478" style="stroke: #A80036; stroke-width: 1.0;"/><line style="stroke: #A80036; stroke-width: 1.0;" x1="2210.0349" x2="2216.895" y1="753.9012" y2="749.7815"/><text fill="#000000" font-family="sans-serif" font-size="13" lengthAdjust="spacingAndGlyphs" textLength="22" x="2193.6461" y="745.6327">0..*</text><text fill="#000000" font-family="sans-serif" font-size="13" lengthAdjust="spacingAndGlyphs" textLength="8" x="2672.1158" y="485.4697">1</text><path d="M2745.58,327.93 C2741.31,356.743 2735.89,393.423 2732.43,416.815 " fill="none" style="stroke: #A80036; stroke-width: 1.0;"/><polygon fill="none" points="2738.71,326.54,2748.56,307.78,2752.55,328.589,2738.71,326.54" style="stroke: #A80036; stroke-width: 1.0;"/><path d="M446,679.741 C446,698.173 446,718.352 446,736.783 " fill="none" style="stroke: #A80036; stroke-width: 1.0;"/><polygon fill="#A80036" points="446,749.844,450,740.844,446,744.844,442,740.844,446,749.844" style="stroke: #A80036; stroke-width: 1.0;"/><line style="stroke: #A80036; stroke-width: 1.0;" x1="446" x2="446" y1="744.844" y2="736.844"/><polygon fill="#A80036" points="446,666.617,442,672.617,446,678.617,450,672.617,446,666.617" style="stroke: #A80036; stroke-width: 1.0;"/><text fill="#000000" font-family="sans-serif" font-size="13" lengthAdjust="spacingAndGlyphs" textLength="22" x="422.4531" y="739.339">1..*</text><path d="M566.803,858.638 C614.589,881.438 666.763,906.332 703.52,923.869 " fill="none" style="stroke: #A80036; stroke-width: 1.0; stroke-dasharray: 7.0,7.0;"/><polygon fill="none" points="563.781,864.952,548.745,850.022,569.81,852.317,563.781,864.952" style="stroke: #A80036; stroke-width: 1.0;"/><path d="M480.549,868.255 C488.084,882.923 495.779,897.903 502.406,910.805 " fill="none" style="stroke: #A80036; stroke-width: 1.0;"/><polygon fill="none" points="474.095,871.011,471.183,850.022,486.548,864.613,474.095,871.011" style="stroke: #A80036; stroke-width: 1.0;"/><path d="M384.641,864.535 C366.842,882.966 348.252,902.214 333.514,917.475 " fill="none" style="stroke: #A80036; stroke-width: 1.0;"/><polygon fill="none" points="379.728,859.546,398.657,850.022,389.798,869.271,379.728,859.546" style="stroke: #A80036; stroke-width: 1.0;"/><path d="M605.479,994.746 C619.047,1002.154 632.923,1009.766 646,1017 C664.071,1026.997 683.981,1038.1702 700.961,1047.7475 " fill="none" style="stroke: #A80036; stroke-width: 1.0;"/><polygon fill="none" points="602.126,1000.891,587.914,985.174,608.825,988.597,602.126,1000.891" style="stroke: #A80036; stroke-width: 1.0;"/><path d="M355.856,990.418 C366.623,997.564 378.288,1004.219 390,1009 C440.229,1029.503 577.647,1038.1605 631,1048 C636.806,1049.0708 642.776,1050.2065 648.791,1051.3771 " fill="none" style="stroke: #A80036; stroke-width: 1.0;"/><polygon fill="none" points="351.484,995.897,339.27,978.582,359.616,984.501,351.484,995.897" style="stroke: #A80036; stroke-width: 1.0;"/><path d="M526.986,1005.172 C528.587,1020.196 530.229,1035.6136 531.522,1047.7476 " fill="none" style="stroke: #A80036; stroke-width: 1.0;"/><polygon fill="none" points="520.024,1005.903,524.865,985.274,533.945,1004.419,520.024,1005.903" style="stroke: #A80036; stroke-width: 1.0;"/><path d="M359.739,990.118 C369.587,996.793 379.928,1003.358 390,1009 C416.24,1023.699 446.657,1037.26 472.756,1047.9269 " fill="none" style="stroke: #A80036; stroke-width: 1.0;"/><polygon fill="none" points="355.596,995.762,343.243,978.546,363.636,984.301,355.596,995.762" style="stroke: #A80036; stroke-width: 1.0;"/><path d="M319.407,997.825 C324.501,1015.087 329.995,1033.7055 334.166,1047.842 " fill="none" style="stroke: #A80036; stroke-width: 1.0;"/><polygon fill="none" points="312.661,999.696,313.715,978.533,326.089,995.734,312.661,999.696" style="stroke: #A80036; stroke-width: 1.0;"/><path d="M246.729,990.331 C219.668,1009.526 188.504,1031.6311 165.649,1047.842 " fill="none" style="stroke: #A80036; stroke-width: 1.0;"/><polygon fill="none" points="243.001,984.394,263.364,978.533,251.1,995.813,243.001,984.394" style="stroke: #A80036; stroke-width: 1.0;"/><path d="M600.622,800 C615.129,800 629.635,800 644.142,800 " fill="none" style="stroke: #A80036; stroke-width: 1.0;"/><polygon fill="#A80036" points="657.465,800,648.465,796,652.465,800,648.465,804,657.465,800" style="stroke: #A80036; stroke-width: 1.0;"/><line style="stroke: #A80036; stroke-width: 1.0;" x1="652.465" x2="644.465" y1="800" y2="800"/><polygon fill="#A80036" points="587.504,800,593.504,804,599.504,800,593.504,796,587.504,800" style="stroke: #A80036; stroke-width: 1.0;"/><path d="M1685.29,631.055 C1594.24,643.327 1454.64,661.234 1333,673 C1143.64,691.317 1094.52,677.411 906,703 C868.256,708.123 859.464,713.124 822,720 C741.367,734.8 720.257,733.281 640,750 C624.59,753.21 608.557,756.819 592.605,760.585 " fill="none" style="stroke: #A80036; stroke-width: 1.0; stroke-dasharray: 7.0,7.0;"/><polygon fill="#A80036" points="587.658,761.759,597.3384,763.5729,592.5229,760.6046,595.4913,755.7891,587.658,761.759" style="stroke: #A80036; stroke-width: 1.0;"/><text fill="#000000" font-family="sans-serif" font-size="13" lengthAdjust="spacingAndGlyphs" textLength="66" x="907" y="716.5684">Created By</text><path d="M1679.87,631.911 C1526.87,652.998 1230.63,692.715 978,720 C828.059,736.194 788.69,724.788 640,750 C622.961,752.889 605.218,756.506 587.688,760.458 " fill="none" style="stroke: #A80036; stroke-width: 1.0; stroke-dasharray: 7.0,7.0;"/><polygon fill="#A80036" points="1685.25,631.169,1675.7865,628.4411,1680.2972,631.8547,1676.8836,636.3655,1685.25,631.169" style="stroke: #A80036; stroke-width: 1.0;"/><text fill="#000000" font-family="sans-serif" font-size="13" lengthAdjust="spacingAndGlyphs" textLength="47" x="1111" y="716.5684">Creates</text><path d="M1252.52,621.671 C1168.94,632.111 949.134,661.536 769,703 C708.997,716.812 643.736,735.493 587.682,752.706 " fill="none" style="stroke: #A80036; stroke-width: 1.0; stroke-dasharray: 7.0,7.0;"/><polygon fill="#A80036" points="1257.83,621.011,1248.4067,618.1472,1252.8679,621.6254,1249.3897,626.0866,1257.83,621.011" style="stroke: #A80036; stroke-width: 1.0;"/><text fill="#000000" font-family="sans-serif" font-size="13" lengthAdjust="spacingAndGlyphs" textLength="47" x="770" y="716.5684">Creates</text><path d="M2231.19,146.755 C2208.93,175.755 2179.7,213.842 2157.86,242.289 " fill="none" style="stroke: #A80036; stroke-width: 1.0; stroke-dasharray: 7.0,7.0;"/><polygon fill="#A80036" points="2154.7,246.414,2163.35,241.7046,2157.7419,242.4457,2157.0007,236.8376,2154.7,246.414" style="stroke: #A80036; stroke-width: 1.0;"/><text fill="#000000" font-family="sans-serif" font-size="13" lengthAdjust="spacingAndGlyphs" textLength="32" x="2205" y="192.0684">From</text><path d="M2313.84,146.712 C2327.63,156.259 2343.17,165.135 2359,170.5 C2398.18,183.783 2504.47,170.178 2545,178.5 C2575.73,184.81 2582.57,190.242 2611,203.5 C2645.28,219.486 2682.55,240.539 2710.16,256.891 " fill="none" style="stroke: #A80036; stroke-width: 1.0; stroke-dasharray: 7.0,7.0;"/><polygon fill="#A80036" points="2714.5,259.474,2708.8102,251.435,2710.2029,256.9177,2704.7201,258.3104,2714.5,259.474" style="stroke: #A80036; stroke-width: 1.0;"/><text fill="#000000" font-family="sans-serif" font-size="13" lengthAdjust="spacingAndGlyphs" textLength="36" x="2595" y="192.0684">about</text><path d="M2040.33,106.95 C1955.86,113.57 1792.61,134.94 1674,203.5 C1497.4,305.582 1352.45,513.51 1304.17,588.101 " fill="none" style="stroke: #A80036; stroke-width: 1.0; stroke-dasharray: 7.0,7.0;"/><polygon fill="#A80036" points="1301.4,592.398,1309.6393,587.0023,1304.1099,588.196,1302.9161,582.6665,1301.4,592.398" style="stroke: #A80036; stroke-width: 1.0;"/><text fill="#000000" font-family="sans-serif" font-size="13" lengthAdjust="spacingAndGlyphs" textLength="59" x="1492" y="364.0684">Issued By</text><text fill="#000000" font-family="sans-serif" font-size="13" lengthAdjust="spacingAndGlyphs" textLength="22" x="2010.6213" y="104.131">0..*</text><text fill="#000000" font-family="sans-serif" font-size="13" lengthAdjust="spacingAndGlyphs" textLength="8" x="1296.065" y="581.9081">1</text><path d="M2126.4,140.058 C2138.39,151.829 2153.11,163.629 2169,170.5 C2177.26,174.071 2483.02,194.851 2492,195.5 C2518.44,197.412 2585.59,195.949 2611,203.5 C2649.42,214.921 2688.87,238.196 2716.24,256.539 " fill="none" style="stroke: #A80036; stroke-width: 1.0; stroke-dasharray: 7.0,7.0;"/><polygon fill="#A80036" points="2720.52,259.438,2715.3045,251.0834,2716.3779,256.6375,2710.8238,257.7108,2720.52,259.438" style="stroke: #A80036; stroke-width: 1.0;"/><text fill="#000000" font-family="sans-serif" font-size="13" lengthAdjust="spacingAndGlyphs" textLength="43" x="2502" y="192.0684">effects</text><text fill="#000000" font-family="sans-serif" font-size="13" lengthAdjust="spacingAndGlyphs" textLength="22" x="2687.1035" y="248.5658">1..*</text></g></svg>