<?xml version="1.0" encoding="UTF-8" standalone="yes"?><svg xmlns="http://www.w3.org/2000/svg" xmlns:xlink="http://www.w3.org/1999/xlink" height="1190pt" style="width:2847px;height:1190px;" version="1.1" viewBox="0 0 2847 1190" width="2847pt"><defs><filter height="300%" id="f1" width="300%" x="-1" y="-1"><feGaussianBlur result="blurOut" stdDeviation="2.0"/><feColorMatrix in="blurOut" result="blurOut2" type="matrix" values="0 0 0 0 0 0 0 0 0 0 0 0 0 0 0 0 0 0 .4 0"/><feOffset dx="4.0" dy="4.0" in="blurOut2" result="blurOut3"/><feBlend in="SourceGraphic" in2="blurOut3" mode="normal"/></filter></defs><g><polygon fill="#FFFFFF" filter="url(#f1)" points="2184,222.5,2284,222.5,2291,244.9883,2753,244.9883,2753,516.5,2184,516.5,2184,222.5" style="stroke: #000000; stroke-width: 2.0;"/><line style="stroke: #000000; stroke-width: 2.0;" x1="2184" x2="2291" y1="244.9883" y2="244.9883"/><text fill="#000000" font-family="sans-serif" font-size="14" font-weight="bold" lengthAdjust="spacingAndGlyphs" textLength="94" x="2187" y="239.0352">existingCode</text><polygon fill="#FFFFFF" filter="url(#f1)" points="1015,24.5,1092,24.5,1099,46.9883,2113,46.9883,2113,747,1015,747,1015,24.5" style="stroke: #000000; stroke-width: 2.0;"/><line style="stroke: #000000; stroke-width: 2.0;" x1="1015" x2="1099" y1="46.9883" y2="46.9883"/><text fill="#000000" font-family="sans-serif" font-size="14" font-weight="bold" lengthAdjust="spacingAndGlyphs" textLength="71" x="1018" y="41.0352">assignees</text><polygon fill="#FFFFFF" filter="url(#f1)" points="22,589.5,192,589.5,199,611.9883,991,611.9883,991,1183,22,1183,22,589.5" style="stroke: #000000; stroke-width: 2.0;"/><line style="stroke: #000000; stroke-width: 2.0;" x1="22" x2="199" y1="611.9883" y2="611.9883"/><text fill="#000000" font-family="sans-serif" font-size="14" font-weight="bold" lengthAdjust="spacingAndGlyphs" textLength="164" x="25" y="606.0352">authenticationprovider</text><polygon fill="#FFFFFF" filter="url(#f1)" points="2358,31,2579,31,2586,53.4883,2683,53.4883,2683,169,2358,169,2358,31" style="stroke: #000000; stroke-width: 2.0;"/><line style="stroke: #000000; stroke-width: 2.0;" x1="2358" x2="2586" y1="53.4883" y2="53.4883"/><text fill="#000000" font-family="sans-serif" font-size="14" font-weight="bold" lengthAdjust="spacingAndGlyphs" textLength="215" x="2361" y="47.5352">somewhere_else_in_dataverse</text><rect fill="#FEFECE" filter="url(#f1)" height="48" style="stroke: #A80036; stroke-width: 1.5;" width="85" x="2651.5" y="269"/><ellipse cx="2666.5" cy="285" fill="#ADD1B2" rx="11" ry="11" style="stroke: #A80036; stroke-width: 1.0;"/><path d="M2669.4731,290.6431 Q2668.8921,290.9419 2668.2529,291.0913 Q2667.6138,291.2407 2666.9082,291.2407 Q2664.4014,291.2407 2663.0815,289.5889 Q2661.7617,287.937 2661.7617,284.8159 Q2661.7617,281.6865 2663.0815,280.0347 Q2664.4014,278.3828 2666.9082,278.3828 Q2667.6138,278.3828 2668.2612,278.5322 Q2668.9087,278.6816 2669.4731,278.9805 L2669.4731,281.7031 Q2668.8423,281.1221 2668.2488,280.8523 Q2667.6553,280.5825 2667.0244,280.5825 Q2665.6797,280.5825 2664.9949,281.6492 Q2664.3101,282.7158 2664.3101,284.8159 Q2664.3101,286.9077 2664.9949,287.9744 Q2665.6797,289.041 2667.0244,289.041 Q2667.6553,289.041 2668.2488,288.7712 Q2668.8423,288.5015 2669.4731,287.9204 Z "/><text fill="#000000" font-family="sans-serif" font-size="12" lengthAdjust="spacingAndGlyphs" textLength="25" x="2680.5" y="289.5352">Role</text><rect fill="#FFFFFF" height="16.1328" style="stroke: #000000; stroke-width: 1.0; stroke-dasharray: 2.0,2.0;" width="26" x="2713.5" y="266"/><text fill="#000000" font-family="sans-serif" font-size="12" font-style="italic" lengthAdjust="spacingAndGlyphs" textLength="16" x="2718.5" y="278.6016">DB</text><line style="stroke: #A80036; stroke-width: 1.5;" x1="2652.5" x2="2735.5" y1="301" y2="301"/><line style="stroke: #A80036; stroke-width: 1.5;" x1="2652.5" x2="2735.5" y1="309" y2="309"/><rect fill="#FEFECE" filter="url(#f1)" height="48" style="stroke: #A80036; stroke-width: 1.5;" width="113" x="2436.5" y="269"/><ellipse cx="2451.5" cy="285" fill="#ADD1B2" rx="11" ry="11" style="stroke: #A80036; stroke-width: 1.0;"/><path d="M2454.4731,290.6431 Q2453.8921,290.9419 2453.2529,291.0913 Q2452.6138,291.2407 2451.9082,291.2407 Q2449.4014,291.2407 2448.0815,289.5889 Q2446.7617,287.937 2446.7617,284.8159 Q2446.7617,281.6865 2448.0815,280.0347 Q2449.4014,278.3828 2451.9082,278.3828 Q2452.6138,278.3828 2453.2612,278.5322 Q2453.9087,278.6816 2454.4731,278.9805 L2454.4731,281.7031 Q2453.8423,281.1221 2453.2488,280.8523 Q2452.6553,280.5825 2452.0244,280.5825 Q2450.6797,280.5825 2449.9949,281.6492 Q2449.3101,282.7158 2449.3101,284.8159 Q2449.3101,286.9077 2449.9949,287.9744 Q2450.6797,289.041 2452.0244,289.041 Q2452.6553,289.041 2453.2488,288.7712 Q2453.8423,288.5015 2454.4731,287.9204 Z "/><text fill="#000000" font-family="sans-serif" font-size="12" lengthAdjust="spacingAndGlyphs" textLength="53" x="2465.5" y="289.5352">DvObject</text><rect fill="#FFFFFF" height="16.1328" style="stroke: #000000; stroke-width: 1.0; stroke-dasharray: 2.0,2.0;" width="26" x="2526.5" y="266"/><text fill="#000000" font-family="sans-serif" font-size="12" font-style="italic" lengthAdjust="spacingAndGlyphs" textLength="16" x="2531.5" y="278.6016">DB</text><line style="stroke: #A80036; stroke-width: 1.5;" x1="2437.5" x2="2548.5" y1="301" y2="301"/><line style="stroke: #A80036; stroke-width: 1.5;" x1="2437.5" x2="2548.5" y1="309" y2="309"/><rect fill="#FEFECE" filter="url(#f1)" height="48" style="stroke: #A80036; stroke-width: 1.5;" width="151" x="2417.5" y="452.5"/><ellipse cx="2432.5" cy="468.5" fill="#ADD1B2" rx="11" ry="11" style="stroke: #A80036; stroke-width: 1.0;"/><path d="M2435.4731,474.1431 Q2434.8921,474.4419 2434.2529,474.5913 Q2433.6138,474.7407 2432.9082,474.7407 Q2430.4014,474.7407 2429.0815,473.0889 Q2427.7617,471.437 2427.7617,468.3159 Q2427.7617,465.1865 2429.0815,463.5347 Q2430.4014,461.8828 2432.9082,461.8828 Q2433.6138,461.8828 2434.2612,462.0322 Q2434.9087,462.1816 2435.4731,462.4805 L2435.4731,465.2031 Q2434.8423,464.6221 2434.2488,464.3523 Q2433.6553,464.0825 2433.0244,464.0825 Q2431.6797,464.0825 2430.9949,465.1492 Q2430.3101,466.2158 2430.3101,468.3159 Q2430.3101,470.4077 2430.9949,471.4744 Q2431.6797,472.541 2433.0244,472.541 Q2433.6553,472.541 2434.2488,472.2712 Q2434.8423,472.0015 2435.4731,471.4204 Z "/><text fill="#000000" font-family="sans-serif" font-size="12" lengthAdjust="spacingAndGlyphs" textLength="91" x="2446.5" y="473.0352">RoleAssignment</text><rect fill="#FFFFFF" height="16.1328" style="stroke: #000000; stroke-width: 1.0; stroke-dasharray: 2.0,2.0;" width="26" x="2545.5" y="449.5"/><text fill="#000000" font-family="sans-serif" font-size="12" font-style="italic" lengthAdjust="spacingAndGlyphs" textLength="16" x="2550.5" y="462.1016">DB</text><line style="stroke: #A80036; stroke-width: 1.5;" x1="2418.5" x2="2567.5" y1="484.5" y2="484.5"/><line style="stroke: #A80036; stroke-width: 1.5;" x1="2418.5" x2="2567.5" y1="492.5" y2="492.5"/><polygon fill="#FBFB77" filter="url(#f1)" points="2200.5,257.5,2200.5,328.7422,2401.5,328.7422,2401.5,267.5,2391.5,257.5,2200.5,257.5" style="stroke: #A80036; stroke-width: 1.0;"/><line style="stroke: #A80036; stroke-width: 1.0;" x1="2391.5" x2="2391.5" y1="257.5" y2="267.5"/><line style="stroke: #A80036; stroke-width: 1.0;" x1="2401.5" x2="2391.5" y1="267.5" y2="267.5"/><text fill="#000000" font-family="sans-serif" font-size="13" lengthAdjust="spacingAndGlyphs" textLength="142" x="2206.5" y="275.0684">A role can be assigned</text><text fill="#000000" font-family="sans-serif" font-size="13" lengthAdjust="spacingAndGlyphs" textLength="152" x="2206.5" y="290.3789">at the DvObject where it</text><text fill="#000000" font-family="sans-serif" font-size="13" lengthAdjust="spacingAndGlyphs" textLength="142" x="2206.5" y="305.6895">is defined, or at any of</text><text fill="#000000" font-family="sans-serif" font-size="13" lengthAdjust="spacingAndGlyphs" textLength="180" x="2206.5" y="321">that DvObject's descendants</text><rect fill="#FEFECE" filter="url(#f1)" height="73.9102" style="stroke: #A80036; stroke-width: 1.5;" width="123" x="1800.5" y="72.5"/><ellipse cx="1822.25" cy="88.5" fill="#B4A7E5" rx="11" ry="11" style="stroke: #A80036; stroke-width: 1.0;"/><path d="M1818.1777,84.2651 L1818.1777,82.1069 L1825.5571,82.1069 L1825.5571,84.2651 L1823.0918,84.2651 L1823.0918,92.3418 L1825.5571,92.3418 L1825.5571,94.5 L1818.1777,94.5 L1818.1777,92.3418 L1820.6431,92.3418 L1820.6431,84.2651 Z "/><text fill="#000000" font-family="sans-serif" font-size="12" font-style="italic" lengthAdjust="spacingAndGlyphs" textLength="76" x="1837.75" y="93.0352">RoleAssignee</text><line style="stroke: #A80036; stroke-width: 1.5;" x1="1801.5" x2="1922.5" y1="104.5" y2="104.5"/><ellipse cx="1811.5" cy="116.4775" fill="none" rx="3" ry="3" style="stroke: #038048; stroke-width: 1.0;"/><text fill="#000000" font-family="sans-serif" font-size="11" lengthAdjust="spacingAndGlyphs" textLength="83" x="1820.5" y="119.1348">identifier:String</text><line style="stroke: #A80036; stroke-width: 1.5;" x1="1801.5" x2="1922.5" y1="125.4551" y2="125.4551"/><ellipse cx="1811.5" cy="137.4326" fill="#84BE84" rx="3" ry="3" style="stroke: #038048; stroke-width: 1.0;"/><text fill="#000000" font-family="sans-serif" font-size="11" lengthAdjust="spacingAndGlyphs" textLength="97" x="1820.5" y="140.0898">displayInfo() : TBD</text><rect fill="#FEFECE" filter="url(#f1)" height="48" style="stroke: #A80036; stroke-width: 1.5;" width="58" x="1922" y="269"/><ellipse cx="1937" cy="285" fill="#ADD1B2" rx="11" ry="11" style="stroke: #A80036; stroke-width: 1.0;"/><path d="M1939.9731,290.6431 Q1939.3921,290.9419 1938.7529,291.0913 Q1938.1138,291.2407 1937.4082,291.2407 Q1934.9014,291.2407 1933.5815,289.5889 Q1932.2617,287.937 1932.2617,284.8159 Q1932.2617,281.6865 1933.5815,280.0347 Q1934.9014,278.3828 1937.4082,278.3828 Q1938.1138,278.3828 1938.7612,278.5322 Q1939.4087,278.6816 1939.9731,278.9805 L1939.9731,281.7031 Q1939.3423,281.1221 1938.7488,280.8523 Q1938.1553,280.5825 1937.5244,280.5825 Q1936.1797,280.5825 1935.4949,281.6492 Q1934.8101,282.7158 1934.8101,284.8159 Q1934.8101,286.9077 1935.4949,287.9744 Q1936.1797,289.041 1937.5244,289.041 Q1938.1553,289.041 1938.7488,288.7712 Q1939.3423,288.5015 1939.9731,287.9204 Z "/><text fill="#000000" font-family="sans-serif" font-size="12" lengthAdjust="spacingAndGlyphs" textLength="26" x="1951" y="289.5352">User</text><line style="stroke: #A80036; stroke-width: 1.5;" x1="1923" x2="1979" y1="301" y2="301"/><line style="stroke: #A80036; stroke-width: 1.5;" x1="1923" x2="1979" y1="309" y2="309"/><rect fill="#FEFECE" filter="url(#f1)" height="48" style="stroke: #A80036; stroke-width: 1.5;" width="165" x="1762.5" y="650.5"/><ellipse cx="1777.5" cy="666.5" fill="#ADD1B2" rx="11" ry="11" style="stroke: #A80036; stroke-width: 1.0;"/><path d="M1780.4731,672.1431 Q1779.8921,672.4419 1779.2529,672.5913 Q1778.6138,672.7407 1777.9082,672.7407 Q1775.4014,672.7407 1774.0815,671.0889 Q1772.7617,669.437 1772.7617,666.3159 Q1772.7617,663.1865 1774.0815,661.5347 Q1775.4014,659.8828 1777.9082,659.8828 Q1778.6138,659.8828 1779.2612,660.0322 Q1779.9087,660.1816 1780.4731,660.4805 L1780.4731,663.2031 Q1779.8423,662.6221 1779.2488,662.3523 Q1778.6553,662.0825 1778.0244,662.0825 Q1776.6797,662.0825 1775.9949,663.1492 Q1775.3101,664.2158 1775.3101,666.3159 Q1775.3101,668.4077 1775.9949,669.4744 Q1776.6797,670.541 1778.0244,670.541 Q1778.6553,670.541 1779.2488,670.2712 Q1779.8423,670.0015 1780.4731,669.4204 Z "/><text fill="#000000" font-family="sans-serif" font-size="12" lengthAdjust="spacingAndGlyphs" textLength="105" x="1791.5" y="671.0352">AuthenticatedUser</text><rect fill="#FFFFFF" height="16.1328" style="stroke: #000000; stroke-width: 1.0; stroke-dasharray: 2.0,2.0;" width="26" x="1904.5" y="647.5"/><text fill="#000000" font-family="sans-serif" font-size="12" font-style="italic" lengthAdjust="spacingAndGlyphs" textLength="16" x="1909.5" y="660.1016">DB</text><line style="stroke: #A80036; stroke-width: 1.5;" x1="1763.5" x2="1926.5" y1="682.5" y2="682.5"/><line style="stroke: #A80036; stroke-width: 1.5;" x1="1763.5" x2="1926.5" y1="690.5" y2="690.5"/><rect fill="#FEFECE" filter="url(#f1)" height="60.9551" style="stroke: #A80036; stroke-width: 1.5;" width="100" x="1282" y="446"/><ellipse cx="1306.45" cy="462" fill="#ADD1B2" rx="11" ry="11" style="stroke: #A80036; stroke-width: 1.0;"/><path d="M1309.4231,467.6431 Q1308.8421,467.9419 1308.2029,468.0913 Q1307.5638,468.2407 1306.8582,468.2407 Q1304.3514,468.2407 1303.0315,466.5889 Q1301.7117,464.937 1301.7117,461.8159 Q1301.7117,458.6865 1303.0315,457.0347 Q1304.3514,455.3828 1306.8582,455.3828 Q1307.5638,455.3828 1308.2112,455.5322 Q1308.8587,455.6816 1309.4231,455.9805 L1309.4231,458.7031 Q1308.7923,458.1221 1308.1988,457.8523 Q1307.6053,457.5825 1306.9744,457.5825 Q1305.6297,457.5825 1304.9449,458.6492 Q1304.2601,459.7158 1304.2601,461.8159 Q1304.2601,463.9077 1304.9449,464.9744 Q1305.6297,466.041 1306.9744,466.041 Q1307.6053,466.041 1308.1988,465.7712 Q1308.7923,465.5015 1309.4231,464.9204 Z "/><text fill="#000000" font-family="sans-serif" font-size="12" lengthAdjust="spacingAndGlyphs" textLength="47" x="1322.55" y="466.5352">IpGroup</text><line style="stroke: #A80036; stroke-width: 1.5;" x1="1283" x2="1381" y1="478" y2="478"/><text fill="#000000" font-family="sans-serif" font-size="11" lengthAdjust="spacingAndGlyphs" textLength="88" x="1288" y="492.6348">range: IpRange[]</text><line style="stroke: #A80036; stroke-width: 1.5;" x1="1283" x2="1381" y1="498.9551" y2="498.9551"/><rect fill="#FEFECE" filter="url(#f1)" height="60.9551" style="stroke: #A80036; stroke-width: 1.5;" width="154" x="1943" y="446"/><ellipse cx="1958" cy="462" fill="#ADD1B2" rx="11" ry="11" style="stroke: #A80036; stroke-width: 1.0;"/><path d="M1960.9731,467.6431 Q1960.3921,467.9419 1959.7529,468.0913 Q1959.1138,468.2407 1958.4082,468.2407 Q1955.9014,468.2407 1954.5815,466.5889 Q1953.2617,464.937 1953.2617,461.8159 Q1953.2617,458.6865 1954.5815,457.0347 Q1955.9014,455.3828 1958.4082,455.3828 Q1959.1138,455.3828 1959.7612,455.5322 Q1960.4087,455.6816 1960.9731,455.9805 L1960.9731,458.7031 Q1960.3423,458.1221 1959.7488,457.8523 Q1959.1553,457.5825 1958.5244,457.5825 Q1957.1797,457.5825 1956.4949,458.6492 Q1955.8101,459.7158 1955.8101,461.8159 Q1955.8101,463.9077 1956.4949,464.9744 Q1957.1797,466.041 1958.5244,466.041 Q1959.1553,466.041 1959.7488,465.7712 Q1960.3423,465.5015 1960.9731,464.9204 Z "/><text fill="#000000" font-family="sans-serif" font-size="12" lengthAdjust="spacingAndGlyphs" textLength="59" x="1972" y="466.5352">GuestUser</text><rect fill="#FFFFFF" height="16.1328" style="stroke: #000000; stroke-width: 1.0; stroke-dasharray: 2.0,2.0;" width="61" x="2039" y="443"/><text fill="#000000" font-family="sans-serif" font-size="12" font-style="italic" lengthAdjust="spacingAndGlyphs" textLength="51" x="2044" y="455.6016">Singleton</text><line style="stroke: #A80036; stroke-width: 1.5;" x1="1944" x2="2096" y1="478" y2="478"/><text fill="#000000" font-family="sans-serif" font-size="11" lengthAdjust="spacingAndGlyphs" text-decoration="underline" textLength="79" x="1949" y="492.6348">get: GuestUser</text><line style="stroke: #A80036; stroke-width: 1.5;" x1="1944" x2="2096" y1="498.9551" y2="498.9551"/><rect fill="#FEFECE" filter="url(#f1)" height="73.9102" style="stroke: #A80036; stroke-width: 1.5;" width="100" x="1997" y="637.5"/><ellipse cx="2012" cy="653.5" fill="#ADD1B2" rx="11" ry="11" style="stroke: #A80036; stroke-width: 1.0;"/><path d="M2014.9731,659.1431 Q2014.3921,659.4419 2013.7529,659.5913 Q2013.1138,659.7407 2012.4082,659.7407 Q2009.9014,659.7407 2008.5815,658.0889 Q2007.2617,656.437 2007.2617,653.3159 Q2007.2617,650.1865 2008.5815,648.5347 Q2009.9014,646.8828 2012.4082,646.8828 Q2013.1138,646.8828 2013.7612,647.0322 Q2014.4087,647.1816 2014.9731,647.4805 L2014.9731,650.2031 Q2014.3423,649.6221 2013.7488,649.3523 Q2013.1553,649.0825 2012.5244,649.0825 Q2011.1797,649.0825 2010.4949,650.1492 Q2009.8101,651.2158 2009.8101,653.3159 Q2009.8101,655.4077 2010.4949,656.4744 Q2011.1797,657.541 2012.5244,657.541 Q2013.1553,657.541 2013.7488,657.2712 Q2014.3423,657.0015 2014.9731,656.4204 Z "/><text fill="#000000" font-family="sans-serif" font-size="12" lengthAdjust="spacingAndGlyphs" textLength="40" x="2026" y="658.0352">ApiKey</text><rect fill="#FFFFFF" height="16.1328" style="stroke: #000000; stroke-width: 1.0; stroke-dasharray: 2.0,2.0;" width="26" x="2074" y="634.5"/><text fill="#000000" font-family="sans-serif" font-size="12" font-style="italic" lengthAdjust="spacingAndGlyphs" textLength="16" x="2079" y="647.1016">DB</text><line style="stroke: #A80036; stroke-width: 1.5;" x1="1998" x2="2096" y1="669.5" y2="669.5"/><ellipse cx="2008" cy="681.4775" fill="none" rx="3" ry="3" style="stroke: #038048; stroke-width: 1.0;"/><text fill="#000000" font-family="sans-serif" font-size="11" lengthAdjust="spacingAndGlyphs" textLength="53" x="2017" y="684.1348">key:String</text><ellipse cx="2008" cy="694.4326" fill="none" rx="3" ry="3" style="stroke: #038048; stroke-width: 1.0;"/><text fill="#000000" font-family="sans-serif" font-size="11" lengthAdjust="spacingAndGlyphs" textLength="58" x="2017" y="697.0898">title: String</text><line style="stroke: #A80036; stroke-width: 1.5;" x1="1998" x2="2096" y1="703.4102" y2="703.4102"/><rect fill="#FEFECE" filter="url(#f1)" height="112.7754" style="stroke: #A80036; stroke-width: 1.5;" width="202" x="1534" y="236.5"/><ellipse cx="1612.75" cy="252.5" fill="#B4A7E5" rx="11" ry="11" style="stroke: #A80036; stroke-width: 1.0;"/><path d="M1608.6777,248.2651 L1608.6777,246.1069 L1616.0571,246.1069 L1616.0571,248.2651 L1613.5918,248.2651 L1613.5918,256.3418 L1616.0571,256.3418 L1616.0571,258.5 L1608.6777,258.5 L1608.6777,256.3418 L1611.1431,256.3418 L1611.1431,248.2651 Z "/><text fill="#000000" font-family="sans-serif" font-size="12" font-style="italic" lengthAdjust="spacingAndGlyphs" textLength="36" x="1633.25" y="257.0352">Group</text><line style="stroke: #A80036; stroke-width: 1.5;" x1="1535" x2="1735" y1="268.5" y2="268.5"/><ellipse cx="1545" cy="280.4775" fill="none" rx="3" ry="3" style="stroke: #038048; stroke-width: 1.0;"/><text fill="#000000" font-family="sans-serif" font-size="11" lengthAdjust="spacingAndGlyphs" textLength="67" x="1554" y="283.1348">name: String</text><ellipse cx="1545" cy="293.4326" fill="none" rx="3" ry="3" style="stroke: #038048; stroke-width: 1.0;"/><text fill="#000000" font-family="sans-serif" font-size="11" lengthAdjust="spacingAndGlyphs" textLength="102" x="1554" y="296.0898">description : String</text><ellipse cx="1545" cy="306.3877" fill="none" rx="3" ry="3" style="stroke: #038048; stroke-width: 1.0;"/><text fill="#000000" font-family="sans-serif" font-size="11" lengthAdjust="spacingAndGlyphs" textLength="52" x="1554" y="309.0449">data: Blob</text><ellipse cx="1545" cy="319.3428" fill="none" rx="3" ry="3" style="stroke: #038048; stroke-width: 1.0;"/><text fill="#000000" font-family="sans-serif" font-size="11" lengthAdjust="spacingAndGlyphs" textLength="176" x="1554" y="322">provider: AuthenticationProvider</text><line style="stroke: #A80036; stroke-width: 1.5;" x1="1535" x2="1735" y1="328.3203" y2="328.3203"/><ellipse cx="1545" cy="340.2979" fill="#84BE84" rx="3" ry="3" style="stroke: #038048; stroke-width: 1.0;"/><text fill="#000000" font-family="sans-serif" font-size="11" lengthAdjust="spacingAndGlyphs" textLength="141" x="1554" y="342.9551">contains( a:RoleAssignee )</text><rect fill="#FEFECE" filter="url(#f1)" height="99.8203" style="stroke: #A80036; stroke-width: 1.5;" width="161" x="1709.5" y="426.5"/><ellipse cx="1735.3" cy="442.5" fill="#ADD1B2" rx="11" ry="11" style="stroke: #A80036; stroke-width: 1.0;"/><path d="M1738.2731,448.1431 Q1737.6921,448.4419 1737.0529,448.5913 Q1736.4138,448.7407 1735.7082,448.7407 Q1733.2014,448.7407 1731.8815,447.0889 Q1730.5617,445.437 1730.5617,442.3159 Q1730.5617,439.1865 1731.8815,437.5347 Q1733.2014,435.8828 1735.7082,435.8828 Q1736.4138,435.8828 1737.0612,436.0322 Q1737.7087,436.1816 1738.2731,436.4805 L1738.2731,439.2031 Q1737.6423,438.6221 1737.0488,438.3523 Q1736.4553,438.0825 1735.8244,438.0825 Q1734.4797,438.0825 1733.7949,439.1492 Q1733.1101,440.2158 1733.1101,442.3159 Q1733.1101,444.4077 1733.7949,445.4744 Q1734.4797,446.541 1735.8244,446.541 Q1736.4553,446.541 1737.0488,446.2712 Q1737.6423,446.0015 1738.2731,445.4204 Z "/><text fill="#000000" font-family="sans-serif" font-size="12" lengthAdjust="spacingAndGlyphs" textLength="77" x="1751.7" y="447.0352">ExplicitGroup</text><rect fill="#FFFFFF" height="16.1328" style="stroke: #000000; stroke-width: 1.0; stroke-dasharray: 2.0,2.0;" width="26" x="1847.5" y="423.5"/><text fill="#000000" font-family="sans-serif" font-size="12" font-style="italic" lengthAdjust="spacingAndGlyphs" textLength="16" x="1852.5" y="436.1016">DB</text><line style="stroke: #A80036; stroke-width: 1.5;" x1="1710.5" x2="1869.5" y1="458.5" y2="458.5"/><polygon fill="none" points="1720.5,465.4775,1724.5,469.4775,1720.5,473.4775,1716.5,469.4775" style="stroke: #B38D22; stroke-width: 1.0;"/><text fill="#000000" font-family="sans-serif" font-size="11" lengthAdjust="spacingAndGlyphs" textLength="125" x="1729.5" y="473.1348">includesGuest: boolean</text><ellipse cx="1720.5" cy="483.4326" fill="none" rx="3" ry="3" style="stroke: #038048; stroke-width: 1.0;"/><text fill="#000000" font-family="sans-serif" font-size="11" lengthAdjust="spacingAndGlyphs" textLength="102" x="1729.5" y="486.0898">list: RoleAssignee[]</text><line style="stroke: #A80036; stroke-width: 1.5;" x1="1710.5" x2="1869.5" y1="492.4102" y2="492.4102"/><ellipse cx="1720.5" cy="504.3877" fill="#84BE84" rx="3" ry="3" style="stroke: #038048; stroke-width: 1.0;"/><text fill="#000000" font-family="sans-serif" font-size="11" lengthAdjust="spacingAndGlyphs" textLength="115" x="1729.5" y="507.0449">add( a:RoleAssignee )</text><ellipse cx="1720.5" cy="517.3428" fill="#84BE84" rx="3" ry="3" style="stroke: #038048; stroke-width: 1.0;"/><text fill="#000000" font-family="sans-serif" font-size="11" lengthAdjust="spacingAndGlyphs" textLength="135" x="1729.5" y="520">remove( a:RoleAssignee )</text><rect fill="#FEFECE" filter="url(#f1)" height="112.7754" style="stroke: #A80036; stroke-width: 1.5;" width="129" x="1598.5" y="618"/><ellipse cx="1617.55" cy="634" fill="#ADD1B2" rx="11" ry="11" style="stroke: #A80036; stroke-width: 1.0;"/><path d="M1620.5231,639.6431 Q1619.9421,639.9419 1619.3029,640.0913 Q1618.6638,640.2407 1617.9582,640.2407 Q1615.4514,640.2407 1614.1315,638.5889 Q1612.8117,636.937 1612.8117,633.8159 Q1612.8117,630.6865 1614.1315,629.0347 Q1615.4514,627.3828 1617.9582,627.3828 Q1618.6638,627.3828 1619.3112,627.5322 Q1619.9587,627.6816 1620.5231,627.9805 L1620.5231,630.7031 Q1619.8923,630.1221 1619.2988,629.8523 Q1618.7053,629.5825 1618.0744,629.5825 Q1616.7297,629.5825 1616.0449,630.6492 Q1615.3601,631.7158 1615.3601,633.8159 Q1615.3601,635.9077 1616.0449,636.9744 Q1616.7297,638.041 1618.0744,638.041 Q1618.7053,638.041 1619.2988,637.7712 Q1619.8923,637.5015 1620.5231,636.9204 Z "/><text fill="#000000" font-family="sans-serif" font-size="12" lengthAdjust="spacingAndGlyphs" textLength="60" x="1632.45" y="638.5352">GroupRow</text><rect fill="#FFFFFF" height="16.1328" style="stroke: #000000; stroke-width: 1.0; stroke-dasharray: 2.0,2.0;" width="26" x="1704.5" y="615"/><text fill="#000000" font-family="sans-serif" font-size="12" font-style="italic" lengthAdjust="spacingAndGlyphs" textLength="16" x="1709.5" y="627.6016">DB</text><line style="stroke: #A80036; stroke-width: 1.5;" x1="1599.5" x2="1726.5" y1="650" y2="650"/><ellipse cx="1609.5" cy="661.9775" fill="none" rx="3" ry="3" style="stroke: #038048; stroke-width: 1.0;"/><text fill="#000000" font-family="sans-serif" font-size="11" lengthAdjust="spacingAndGlyphs" textLength="40" x="1618.5" y="664.6348">id:Long</text><ellipse cx="1609.5" cy="674.9326" fill="none" rx="3" ry="3" style="stroke: #038048; stroke-width: 1.0;"/><text fill="#000000" font-family="sans-serif" font-size="11" lengthAdjust="spacingAndGlyphs" textLength="59" x="1618.5" y="677.5898">alias:String</text><ellipse cx="1609.5" cy="687.8877" fill="none" rx="3" ry="3" style="stroke: #038048; stroke-width: 1.0;"/><text fill="#000000" font-family="sans-serif" font-size="11" lengthAdjust="spacingAndGlyphs" textLength="87" x="1618.5" y="690.5449">creatorId: String</text><ellipse cx="1609.5" cy="700.8428" fill="none" rx="3" ry="3" style="stroke: #038048; stroke-width: 1.0;"/><text fill="#000000" font-family="sans-serif" font-size="11" lengthAdjust="spacingAndGlyphs" textLength="103" x="1618.5" y="703.5">... common fields ...</text><ellipse cx="1609.5" cy="713.7979" fill="none" rx="3" ry="3" style="stroke: #038048; stroke-width: 1.0;"/><text fill="#000000" font-family="sans-serif" font-size="11" lengthAdjust="spacingAndGlyphs" textLength="53" x="1618.5" y="716.4551">data:BLOB</text><line style="stroke: #A80036; stroke-width: 1.5;" x1="1599.5" x2="1726.5" y1="722.7754" y2="722.7754"/><rect fill="#FEFECE" filter="url(#f1)" height="99.8203" style="stroke: #A80036; stroke-width: 1.5;" width="231" x="1227.5" y="59.5"/><ellipse cx="1270.85" cy="75.5" fill="#ADD1B2" rx="11" ry="11" style="stroke: #A80036; stroke-width: 1.0;"/><path d="M1273.8231,81.1431 Q1273.2421,81.4419 1272.6029,81.5913 Q1271.9638,81.7407 1271.2582,81.7407 Q1268.7514,81.7407 1267.4315,80.0889 Q1266.1117,78.437 1266.1117,75.3159 Q1266.1117,72.1865 1267.4315,70.5347 Q1268.7514,68.8828 1271.2582,68.8828 Q1271.9638,68.8828 1272.6112,69.0322 Q1273.2587,69.1816 1273.8231,69.4805 L1273.8231,72.2031 Q1273.1923,71.6221 1272.5988,71.3523 Q1272.0053,71.0825 1271.3744,71.0825 Q1270.0297,71.0825 1269.3449,72.1492 Q1268.6601,73.2158 1268.6601,75.3159 Q1268.6601,77.4077 1269.3449,78.4744 Q1270.0297,79.541 1271.3744,79.541 Q1272.0053,79.541 1272.5988,79.2712 Q1273.1923,79.0015 1273.8231,78.4204 Z "/><text fill="#000000" font-family="sans-serif" font-size="12" lengthAdjust="spacingAndGlyphs" textLength="86" x="1291.15" y="80.0352">GroupManager</text><rect fill="#FFFFFF" height="16.1328" style="stroke: #000000; stroke-width: 1.0; stroke-dasharray: 2.0,2.0;" width="48" x="1413.5" y="56.5"/><text fill="#000000" font-family="sans-serif" font-size="12" font-style="italic" lengthAdjust="spacingAndGlyphs" textLength="38" x="1418.5" y="69.1016">@Bean</text><line style="stroke: #A80036; stroke-width: 1.5;" x1="1228.5" x2="1457.5" y1="91.5" y2="91.5"/><line style="stroke: #A80036; stroke-width: 1.5;" x1="1228.5" x2="1457.5" y1="99.5" y2="99.5"/><ellipse cx="1238.5" cy="111.4775" fill="#84BE84" rx="3" ry="3" style="stroke: #038048; stroke-width: 1.0;"/><text fill="#000000" font-family="sans-serif" font-size="11" lengthAdjust="spacingAndGlyphs" textLength="124" x="1247.5" y="114.1348">registerGroup( Group )</text><ellipse cx="1238.5" cy="124.4326" fill="#84BE84" rx="3" ry="3" style="stroke: #038048; stroke-width: 1.0;"/><text fill="#000000" font-family="sans-serif" font-size="11" lengthAdjust="spacingAndGlyphs" textLength="129" x="1247.5" y="127.0898">getGroup( alias ): Group</text><ellipse cx="1238.5" cy="137.3877" fill="#84BE84" rx="3" ry="3" style="stroke: #038048; stroke-width: 1.0;"/><text fill="#000000" font-family="sans-serif" font-size="11" lengthAdjust="spacingAndGlyphs" textLength="160" x="1247.5" y="140.0449">getGroup( groupRow ): Group</text><ellipse cx="1238.5" cy="150.3428" fill="#84BE84" rx="3" ry="3" style="stroke: #038048; stroke-width: 1.0;"/><text fill="#000000" font-family="sans-serif" font-size="11" lengthAdjust="spacingAndGlyphs" textLength="205" x="1247.5" y="153">registerGroupCreator( groupCreator )</text><rect fill="#FEFECE" filter="url(#f1)" height="48" style="stroke: #A80036; stroke-width: 1.5;" width="143" x="1417.5" y="452.5"/><ellipse cx="1432.5" cy="468.5" fill="#ADD1B2" rx="11" ry="11" style="stroke: #A80036; stroke-width: 1.0;"/><path d="M1435.4731,474.1431 Q1434.8921,474.4419 1434.2529,474.5913 Q1433.6138,474.7407 1432.9082,474.7407 Q1430.4014,474.7407 1429.0815,473.0889 Q1427.7617,471.437 1427.7617,468.3159 Q1427.7617,465.1865 1429.0815,463.5347 Q1430.4014,461.8828 1432.9082,461.8828 Q1433.6138,461.8828 1434.2612,462.0322 Q1434.9087,462.1816 1435.4731,462.4805 L1435.4731,465.2031 Q1434.8423,464.6221 1434.2488,464.3523 Q1433.6553,464.0825 1433.0244,464.0825 Q1431.6797,464.0825 1430.9949,465.1492 Q1430.3101,466.2158 1430.3101,468.3159 Q1430.3101,470.4077 1430.9949,471.4744 Q1431.6797,472.541 1433.0244,472.541 Q1433.6553,472.541 1434.2488,472.2712 Q1434.8423,472.0015 1435.4731,471.4204 Z "/><text fill="#000000" font-family="sans-serif" font-size="12" lengthAdjust="spacingAndGlyphs" textLength="111" x="1446.5" y="473.0352">AuthenticatedUsers</text><line style="stroke: #A80036; stroke-width: 1.5;" x1="1418.5" x2="1559.5" y1="484.5" y2="484.5"/><line style="stroke: #A80036; stroke-width: 1.5;" x1="1418.5" x2="1559.5" y1="492.5" y2="492.5"/><rect fill="#FEFECE" filter="url(#f1)" height="48" style="stroke: #A80036; stroke-width: 1.5;" width="78" x="1596" y="452.5"/><ellipse cx="1611" cy="468.5" fill="#ADD1B2" rx="11" ry="11" style="stroke: #A80036; stroke-width: 1.0;"/><path d="M1613.9731,474.1431 Q1613.3921,474.4419 1612.7529,474.5913 Q1612.1138,474.7407 1611.4082,474.7407 Q1608.9014,474.7407 1607.5815,473.0889 Q1606.2617,471.437 1606.2617,468.3159 Q1606.2617,465.1865 1607.5815,463.5347 Q1608.9014,461.8828 1611.4082,461.8828 Q1612.1138,461.8828 1612.7612,462.0322 Q1613.4087,462.1816 1613.9731,462.4805 L1613.9731,465.2031 Q1613.3423,464.6221 1612.7488,464.3523 Q1612.1553,464.0825 1611.5244,464.0825 Q1610.1797,464.0825 1609.4949,465.1492 Q1608.8101,466.2158 1608.8101,468.3159 Q1608.8101,470.4077 1609.4949,471.4744 Q1610.1797,472.541 1611.5244,472.541 Q1612.1553,472.541 1612.7488,472.2712 Q1613.3423,472.0015 1613.9731,471.4204 Z "/><text fill="#000000" font-family="sans-serif" font-size="12" lengthAdjust="spacingAndGlyphs" textLength="46" x="1625" y="473.0352">AllUsers</text><line style="stroke: #A80036; stroke-width: 1.5;" x1="1597" x2="1673" y1="484.5" y2="484.5"/><line style="stroke: #A80036; stroke-width: 1.5;" x1="1597" x2="1673" y1="492.5" y2="492.5"/><rect fill="#FEFECE" filter="url(#f1)" height="60.9551" style="stroke: #A80036; stroke-width: 1.5;" width="215" x="1031.5" y="446"/><ellipse cx="1104.75" cy="462" fill="#ADD1B2" rx="11" ry="11" style="stroke: #A80036; stroke-width: 1.0;"/><path d="M1107.7231,467.6431 Q1107.1421,467.9419 1106.5029,468.0913 Q1105.8638,468.2407 1105.1582,468.2407 Q1102.6514,468.2407 1101.3315,466.5889 Q1100.0117,464.937 1100.0117,461.8159 Q1100.0117,458.6865 1101.3315,457.0347 Q1102.6514,455.3828 1105.1582,455.3828 Q1105.8638,455.3828 1106.5112,455.5322 Q1107.1587,455.6816 1107.7231,455.9805 L1107.7231,458.7031 Q1107.0923,458.1221 1106.4988,457.8523 Q1105.9053,457.5825 1105.2744,457.5825 Q1103.9297,457.5825 1103.2449,458.6492 Q1102.5601,459.7158 1102.5601,461.8159 Q1102.5601,463.9077 1103.2449,464.9744 Q1103.9297,466.041 1105.2744,466.041 Q1105.9053,466.041 1106.4988,465.7712 Q1107.0923,465.5015 1107.7231,464.9204 Z "/><text fill="#000000" font-family="sans-serif" font-size="12" lengthAdjust="spacingAndGlyphs" textLength="60" x="1125.25" y="466.5352">ShibGroup</text><line style="stroke: #A80036; stroke-width: 1.5;" x1="1032.5" x2="1245.5" y1="478" y2="478"/><text fill="#000000" font-family="sans-serif" font-size="11" lengthAdjust="spacingAndGlyphs" textLength="203" x="1037.5" y="492.6348">headerMatchers: Map&lt;String, Regex&gt;</text><line style="stroke: #A80036; stroke-width: 1.5;" x1="1032.5" x2="1245.5" y1="498.9551" y2="498.9551"/><rect fill="#FEFECE" filter="url(#f1)" height="99.8203" style="stroke: #A80036; stroke-width: 1.5;" width="342" x="411" y="624.5"/><ellipse cx="484.75" cy="640.5" fill="#ADD1B2" rx="11" ry="11" style="stroke: #A80036; stroke-width: 1.0;"/><path d="M487.7231,646.1431 Q487.1421,646.4419 486.5029,646.5913 Q485.8638,646.7407 485.1582,646.7407 Q482.6514,646.7407 481.3315,645.0889 Q480.0117,643.437 480.0117,640.3159 Q480.0117,637.1865 481.3315,635.5347 Q482.6514,633.8828 485.1582,633.8828 Q485.8638,633.8828 486.5112,634.0322 Q487.1587,634.1816 487.7231,634.4805 L487.7231,637.2031 Q487.0923,636.6221 486.4988,636.3523 Q485.9053,636.0825 485.2744,636.0825 Q483.9297,636.0825 483.2449,637.1492 Q482.5601,638.2158 482.5601,640.3159 Q482.5601,642.4077 483.2449,643.4744 Q483.9297,644.541 485.2744,644.541 Q485.9053,644.541 486.4988,644.2712 Q487.0923,644.0015 487.7231,643.4204 Z "/><text fill="#000000" font-family="sans-serif" font-size="12" lengthAdjust="spacingAndGlyphs" textLength="131" x="505.25" y="645.0352">AuthenticationManager</text><rect fill="#FFFFFF" height="16.1328" style="stroke: #000000; stroke-width: 1.0; stroke-dasharray: 2.0,2.0;" width="53" x="703" y="621.5"/><text fill="#000000" font-family="sans-serif" font-size="12" font-style="italic" lengthAdjust="spacingAndGlyphs" textLength="51" x="704" y="634.1016">Singleton</text><line style="stroke: #A80036; stroke-width: 1.5;" x1="412" x2="752" y1="656.5" y2="656.5"/><text fill="#000000" font-family="sans-serif" font-size="11" lengthAdjust="spacingAndGlyphs" textLength="330" x="417" y="671.1348">authenticationProviders: Collection&lt;AuthenticationProvider&gt;</text><line style="stroke: #A80036; stroke-width: 1.5;" x1="412" x2="752" y1="677.4551" y2="677.4551"/><text fill="#000000" font-family="sans-serif" font-size="11" lengthAdjust="spacingAndGlyphs" textLength="235" x="417" y="692.0898">registerProvider( p:AuthenticationProvider )</text><text fill="#000000" font-family="sans-serif" font-size="11" lengthAdjust="spacingAndGlyphs" textLength="237" x="417" y="705.0449">getRoleAssignee( idtf:String ) : RoleAssignee</text><text fill="#000000" font-family="sans-serif" font-size="11" lengthAdjust="spacingAndGlyphs" textLength="271" x="417" y="718">getRoleAssignee( req:HttpRequest ) : RoleAssignee</text><rect fill="#FEFECE" filter="url(#f1)" height="112.7754" style="stroke: #A80036; stroke-width: 1.5;" width="283" x="440.5" y="810"/><ellipse cx="513.25" cy="826" fill="#B4A7E5" rx="11" ry="11" style="stroke: #A80036; stroke-width: 1.0;"/><path d="M509.1777,821.7651 L509.1777,819.6069 L516.5571,819.6069 L516.5571,821.7651 L514.0918,821.7651 L514.0918,829.8418 L516.5571,829.8418 L516.5571,832 L509.1777,832 L509.1777,829.8418 L511.6431,829.8418 L511.6431,821.7651 Z "/><text fill="#000000" font-family="sans-serif" font-size="12" font-style="italic" lengthAdjust="spacingAndGlyphs" textLength="129" x="533.75" y="830.5352">AuthenticationProvider</text><line style="stroke: #A80036; stroke-width: 1.5;" x1="441.5" x2="722.5" y1="842" y2="842"/><ellipse cx="451.5" cy="853.9775" fill="none" rx="3" ry="3" style="stroke: #038048; stroke-width: 1.0;"/><text fill="#000000" font-family="sans-serif" font-size="11" lengthAdjust="spacingAndGlyphs" textLength="168" x="460.5" y="856.6348">info : RoleAssigneeProviderInfo</text><line style="stroke: #A80036; stroke-width: 1.5;" x1="441.5" x2="722.5" y1="862.9551" y2="862.9551"/><text fill="#000000" font-family="sans-serif" font-size="11" lengthAdjust="spacingAndGlyphs" textLength="120" x="446.5" y="877.5898">isQueryable(): Boolean</text><text fill="#000000" font-family="sans-serif" font-size="11" lengthAdjust="spacingAndGlyphs" textLength="258" x="446.5" y="890.5449">acceptsRoleAssigneeIdentifier( idtf:String ): bool</text><text fill="#000000" font-family="sans-serif" font-size="11" lengthAdjust="spacingAndGlyphs" textLength="237" x="446.5" y="903.5">getRoleAssignee( idtf:String ) : RoleAssignee</text><text fill="#000000" font-family="sans-serif" font-size="11" lengthAdjust="spacingAndGlyphs" textLength="271" x="446.5" y="916.4551">getRoleAssignee( req:HttpRequest ) : RoleAssignee</text><rect fill="#FEFECE" filter="url(#f1)" height="60.9551" style="stroke: #A80036; stroke-width: 1.5;" width="136" x="301" y="990.5"/><ellipse cx="327.25" cy="1006.5" fill="#B4A7E5" rx="11" ry="11" style="stroke: #A80036; stroke-width: 1.0;"/><path d="M323.1777,1002.2651 L323.1777,1000.1069 L330.5571,1000.1069 L330.5571,1002.2651 L328.0918,1002.2651 L328.0918,1010.3418 L330.5571,1010.3418 L330.5571,1012.5 L323.1777,1012.5 L323.1777,1010.3418 L325.6431,1010.3418 L325.6431,1002.2651 Z "/><text fill="#000000" font-family="sans-serif" font-size="12" font-style="italic" lengthAdjust="spacingAndGlyphs" textLength="79" x="343.75" y="1011.0352">GroupCreator</text><line style="stroke: #A80036; stroke-width: 1.5;" x1="302" x2="436" y1="1022.5" y2="1022.5"/><ellipse cx="312" cy="1034.4775" fill="none" rx="3" ry="3" style="stroke: #038048; stroke-width: 1.0;"/><text fill="#000000" font-family="sans-serif" font-size="11" lengthAdjust="spacingAndGlyphs" textLength="110" x="321" y="1037.1348">createGroup : Group</text><line style="stroke: #A80036; stroke-width: 1.5;" x1="302" x2="436" y1="1043.4551" y2="1043.4551"/><rect fill="#FEFECE" filter="url(#f1)" height="73.9102" style="stroke: #A80036; stroke-width: 1.5;" width="226" x="472" y="984"/><ellipse cx="552.25" cy="1000" fill="#B4A7E5" rx="11" ry="11" style="stroke: #A80036; stroke-width: 1.0;"/><path d="M548.1777,995.7651 L548.1777,993.6069 L555.5571,993.6069 L555.5571,995.7651 L553.0918,995.7651 L553.0918,1003.8418 L555.5571,1003.8418 L555.5571,1006 L548.1777,1006 L548.1777,1003.8418 L550.6431,1003.8418 L550.6431,995.7651 Z "/><text fill="#000000" font-family="sans-serif" font-size="12" font-style="italic" lengthAdjust="spacingAndGlyphs" textLength="57" x="572.75" y="1004.5352">UserLister</text><line style="stroke: #A80036; stroke-width: 1.5;" x1="473" x2="697" y1="1016" y2="1016"/><line style="stroke: #A80036; stroke-width: 1.5;" x1="473" x2="697" y1="1024" y2="1024"/><ellipse cx="483" cy="1035.9775" fill="#84BE84" rx="3" ry="3" style="stroke: #038048; stroke-width: 1.0;"/><text fill="#000000" font-family="sans-serif" font-size="11" lengthAdjust="spacingAndGlyphs" textLength="126" x="492" y="1038.6348">listUsers() : List&lt;User&gt;</text><ellipse cx="483" cy="1048.9326" fill="#84BE84" rx="3" ry="3" style="stroke: #038048; stroke-width: 1.0;"/><text fill="#000000" font-family="sans-serif" font-size="11" lengthAdjust="spacingAndGlyphs" textLength="200" x="492" y="1051.5898">findUsers( queryString ) : List&lt;User&gt;</text><rect fill="#FEFECE" filter="url(#f1)" height="99.8203" style="stroke: #A80036; stroke-width: 1.5;" width="182" x="793" y="816.5"/><ellipse cx="808" cy="832.5" fill="#ADD1B2" rx="11" ry="11" style="stroke: #A80036; stroke-width: 1.0;"/><path d="M810.9731,838.1431 Q810.3921,838.4419 809.7529,838.5913 Q809.1138,838.7407 808.4082,838.7407 Q805.9014,838.7407 804.5815,837.0889 Q803.2617,835.437 803.2617,832.3159 Q803.2617,829.1865 804.5815,827.5347 Q805.9014,825.8828 808.4082,825.8828 Q809.1138,825.8828 809.7612,826.0322 Q810.4087,826.1816 810.9731,826.4805 L810.9731,829.2031 Q810.3423,828.6221 809.7488,828.3523 Q809.1553,828.0825 808.5244,828.0825 Q807.1797,828.0825 806.4949,829.1492 Q805.8101,830.2158 805.8101,832.3159 Q805.8101,834.4077 806.4949,835.4744 Q807.1797,836.541 808.5244,836.541 Q809.1553,836.541 809.7488,836.2712 Q810.3423,836.0015 810.9731,835.4204 Z "/><text fill="#000000" font-family="sans-serif" font-size="12" lengthAdjust="spacingAndGlyphs" textLength="150" x="822" y="837.0352">AuthenticationProviderInfo</text><line style="stroke: #A80036; stroke-width: 1.5;" x1="794" x2="974" y1="848.5" y2="848.5"/><ellipse cx="804" cy="860.4775" fill="none" rx="3" ry="3" style="stroke: #038048; stroke-width: 1.0;"/><text fill="#000000" font-family="sans-serif" font-size="11" lengthAdjust="spacingAndGlyphs" textLength="29" x="813" y="863.1348">name</text><ellipse cx="804" cy="873.4326" fill="none" rx="3" ry="3" style="stroke: #038048; stroke-width: 1.0;"/><text fill="#000000" font-family="sans-serif" font-size="11" lengthAdjust="spacingAndGlyphs" textLength="61" x="813" y="876.0898">description</text><ellipse cx="804" cy="886.3877" fill="none" rx="3" ry="3" style="stroke: #038048; stroke-width: 1.0;"/><text fill="#000000" font-family="sans-serif" font-size="11" lengthAdjust="spacingAndGlyphs" textLength="28" x="813" y="889.0449">icon?</text><ellipse cx="804" cy="899.3428" fill="none" rx="3" ry="3" style="stroke: #038048; stroke-width: 1.0;"/><text fill="#000000" font-family="sans-serif" font-size="11" lengthAdjust="spacingAndGlyphs" textLength="9" x="813" y="902">...</text><line style="stroke: #A80036; stroke-width: 1.5;" x1="794" x2="974" y1="908.3203" y2="908.3203"/><rect fill="#FEFECE" filter="url(#f1)" height="48" style="stroke: #A80036; stroke-width: 1.5;" width="190" x="514" y="1119"/><ellipse cx="529" cy="1135" fill="#ADD1B2" rx="11" ry="11" style="stroke: #A80036; stroke-width: 1.0;"/><path d="M531.9731,1140.6431 Q531.3921,1140.9419 530.7529,1141.0913 Q530.1138,1141.2407 529.4082,1141.2407 Q526.9014,1141.2407 525.5815,1139.5889 Q524.2617,1137.937 524.2617,1134.8159 Q524.2617,1131.6865 525.5815,1130.0347 Q526.9014,1128.3828 529.4082,1128.3828 Q530.1138,1128.3828 530.7612,1128.5322 Q531.4087,1128.6816 531.9731,1128.9805 L531.9731,1131.7031 Q531.3423,1131.1221 530.7488,1130.8523 Q530.1553,1130.5825 529.5244,1130.5825 Q528.1797,1130.5825 527.4949,1131.6492 Q526.8101,1132.7158 526.8101,1134.8159 Q526.8101,1136.9077 527.4949,1137.9744 Q528.1797,1139.041 529.5244,1139.041 Q530.1553,1139.041 530.7488,1138.7712 Q531.3423,1138.5015 531.9731,1137.9204 Z "/><text fill="#000000" font-family="sans-serif" font-size="12" lengthAdjust="spacingAndGlyphs" textLength="158" x="543" y="1139.5352">LocalAuthenticationProvider</text><line style="stroke: #A80036; stroke-width: 1.5;" x1="515" x2="703" y1="1151" y2="1151"/><line style="stroke: #A80036; stroke-width: 1.5;" x1="515" x2="703" y1="1159" y2="1159"/><rect fill="#FEFECE" filter="url(#f1)" height="48" style="stroke: #A80036; stroke-width: 1.5;" width="185" x="38.5" y="1119"/><ellipse cx="53.5" cy="1135" fill="#ADD1B2" rx="11" ry="11" style="stroke: #A80036; stroke-width: 1.0;"/><path d="M56.4731,1140.6431 Q55.8921,1140.9419 55.2529,1141.0913 Q54.6138,1141.2407 53.9082,1141.2407 Q51.4014,1141.2407 50.0815,1139.5889 Q48.7617,1137.937 48.7617,1134.8159 Q48.7617,1131.6865 50.0815,1130.0347 Q51.4014,1128.3828 53.9082,1128.3828 Q54.6138,1128.3828 55.2612,1128.5322 Q55.9087,1128.6816 56.4731,1128.9805 L56.4731,1131.7031 Q55.8423,1131.1221 55.2488,1130.8523 Q54.6553,1130.5825 54.0244,1130.5825 Q52.6797,1130.5825 51.9949,1131.6492 Q51.3101,1132.7158 51.3101,1134.8159 Q51.3101,1136.9077 51.9949,1137.9744 Q52.6797,1139.041 54.0244,1139.041 Q54.6553,1139.041 55.2488,1138.7712 Q55.8423,1138.5015 56.4731,1137.9204 Z "/><text fill="#000000" font-family="sans-serif" font-size="12" lengthAdjust="spacingAndGlyphs" textLength="153" x="67.5" y="1139.5352">ShibAuthenticationProvider</text><line style="stroke: #A80036; stroke-width: 1.5;" x1="39.5" x2="222.5" y1="1151" y2="1151"/><line style="stroke: #A80036; stroke-width: 1.5;" x1="39.5" x2="222.5" y1="1159" y2="1159"/><rect fill="#FEFECE" filter="url(#f1)" height="48" style="stroke: #A80036; stroke-width: 1.5;" width="220" x="259" y="1119"/><ellipse cx="274" cy="1135" fill="#ADD1B2" rx="11" ry="11" style="stroke: #A80036; stroke-width: 1.0;"/><path d="M276.9731,1140.6431 Q276.3921,1140.9419 275.7529,1141.0913 Q275.1138,1141.2407 274.4082,1141.2407 Q271.9014,1141.2407 270.5815,1139.5889 Q269.2617,1137.937 269.2617,1134.8159 Q269.2617,1131.6865 270.5815,1130.0347 Q271.9014,1128.3828 274.4082,1128.3828 Q275.1138,1128.3828 275.7612,1128.5322 Q276.4087,1128.6816 276.9731,1128.9805 L276.9731,1131.7031 Q276.3423,1131.1221 275.7488,1130.8523 Q275.1553,1130.5825 274.5244,1130.5825 Q273.1797,1130.5825 272.4949,1131.6492 Q271.8101,1132.7158 271.8101,1134.8159 Q271.8101,1136.9077 272.4949,1137.9744 Q273.1797,1139.041 274.5244,1139.041 Q275.1553,1139.041 275.7488,1138.7712 Q276.3423,1138.5015 276.9731,1137.9204 Z "/><text fill="#000000" font-family="sans-serif" font-size="12" lengthAdjust="spacingAndGlyphs" textLength="188" x="288" y="1139.5352">IpAddressAuthenticationProvider</text><line style="stroke: #A80036; stroke-width: 1.5;" x1="260" x2="478" y1="1151" y2="1151"/><line style="stroke: #A80036; stroke-width: 1.5;" x1="260" x2="478" y1="1159" y2="1159"/><rect fill="#FEFECE" filter="url(#f1)" height="48" style="stroke: #A80036; stroke-width: 1.5;" width="236" x="739" y="1119"/><ellipse cx="754" cy="1135" fill="#ADD1B2" rx="11" ry="11" style="stroke: #A80036; stroke-width: 1.0;"/><path d="M756.9731,1140.6431 Q756.3921,1140.9419 755.7529,1141.0913 Q755.1138,1141.2407 754.4082,1141.2407 Q751.9014,1141.2407 750.5815,1139.5889 Q749.2617,1137.937 749.2617,1134.8159 Q749.2617,1131.6865 750.5815,1130.0347 Q751.9014,1128.3828 754.4082,1128.3828 Q755.1138,1128.3828 755.7612,1128.5322 Q756.4087,1128.6816 756.9731,1128.9805 L756.9731,1131.7031 Q756.3423,1131.1221 755.7488,1130.8523 Q755.1553,1130.5825 754.5244,1130.5825 Q753.1797,1130.5825 752.4949,1131.6492 Q751.8101,1132.7158 751.8101,1134.8159 Q751.8101,1136.9077 752.4949,1137.9744 Q753.1797,1139.041 754.5244,1139.041 Q755.1553,1139.041 755.7488,1138.7712 Q756.3423,1138.5015 756.9731,1137.9204 Z "/><text fill="#000000" font-family="sans-serif" font-size="12" lengthAdjust="spacingAndGlyphs" textLength="158" x="768" y="1139.5352">LdapAuthenticationProvider</text><rect fill="#FFFFFF" height="16.1328" style="stroke: #000000; stroke-width: 1.0; stroke-dasharray: 2.0,2.0;" width="44" x="934" y="1116"/><text fill="#000000" font-family="sans-serif" font-size="12" font-style="italic" lengthAdjust="spacingAndGlyphs" textLength="34" x="939" y="1128.6016">future</text><line style="stroke: #A80036; stroke-width: 1.5;" x1="740" x2="974" y1="1151" y2="1151"/><line style="stroke: #A80036; stroke-width: 1.5;" x1="740" x2="974" y1="1159" y2="1159"/><rect fill="#FEFECE" filter="url(#f1)" height="48" style="stroke: #A80036; stroke-width: 1.5;" width="242" x="733" y="997"/><ellipse cx="748" cy="1013" fill="#ADD1B2" rx="11" ry="11" style="stroke: #A80036; stroke-width: 1.0;"/><path d="M750.9731,1018.6431 Q750.3921,1018.9419 749.7529,1019.0913 Q749.1138,1019.2407 748.4082,1019.2407 Q745.9014,1019.2407 744.5815,1017.5889 Q743.2617,1015.937 743.2617,1012.8159 Q743.2617,1009.6865 744.5815,1008.0347 Q745.9014,1006.3828 748.4082,1006.3828 Q749.1138,1006.3828 749.7612,1006.5322 Q750.4087,1006.6816 750.9731,1006.9805 L750.9731,1009.7031 Q750.3423,1009.1221 749.7488,1008.8523 Q749.1553,1008.5825 748.5244,1008.5825 Q747.1797,1008.5825 746.4949,1009.6492 Q745.8101,1010.7158 745.8101,1012.8159 Q745.8101,1014.9077 746.4949,1015.9744 Q747.1797,1017.041 748.5244,1017.041 Q749.1553,1017.041 749.7488,1016.7712 Q750.3423,1016.5015 750.9731,1015.9204 Z "/><text fill="#000000" font-family="sans-serif" font-size="12" lengthAdjust="spacingAndGlyphs" textLength="164" x="762" y="1017.5352">OAuthAuthenticationProvider</text><rect fill="#FFFFFF" height="16.1328" style="stroke: #000000; stroke-width: 1.0; stroke-dasharray: 2.0,2.0;" width="44" x="934" y="994"/><text fill="#000000" font-family="sans-serif" font-size="12" font-style="italic" lengthAdjust="spacingAndGlyphs" textLength="34" x="939" y="1006.6016">future</text><line style="stroke: #A80036; stroke-width: 1.5;" x1="734" x2="974" y1="1029" y2="1029"/><line style="stroke: #A80036; stroke-width: 1.5;" x1="734" x2="974" y1="1037" y2="1037"/><rect fill="#FEFECE" filter="url(#f1)" height="86.8652" style="stroke: #A80036; stroke-width: 1.5;" width="146" x="2521" y="66"/><ellipse cx="2536" cy="82" fill="#ADD1B2" rx="11" ry="11" style="stroke: #A80036; stroke-width: 1.0;"/><path d="M2538.9731,87.6431 Q2538.3921,87.9419 2537.7529,88.0913 Q2537.1138,88.2407 2536.4082,88.2407 Q2533.9014,88.2407 2532.5815,86.5889 Q2531.2617,84.937 2531.2617,81.8159 Q2531.2617,78.6865 2532.5815,77.0347 Q2533.9014,75.3828 2536.4082,75.3828 Q2537.1138,75.3828 2537.7612,75.5322 Q2538.4087,75.6816 2538.9731,75.9805 L2538.9731,78.7031 Q2538.3423,78.1221 2537.7488,77.8523 Q2537.1553,77.5825 2536.5244,77.5825 Q2535.1797,77.5825 2534.4949,78.6492 Q2533.8101,79.7158 2533.8101,81.8159 Q2533.8101,83.9077 2534.4949,84.9744 Q2535.1797,86.041 2536.5244,86.041 Q2537.1553,86.041 2537.7488,85.7712 Q2538.3423,85.5015 2538.9731,84.9204 Z "/><text fill="#000000" font-family="sans-serif" font-size="12" lengthAdjust="spacingAndGlyphs" textLength="86" x="2550" y="86.5352">AccessRequest</text><rect fill="#FFFFFF" height="16.1328" style="stroke: #000000; stroke-width: 1.0; stroke-dasharray: 2.0,2.0;" width="26" x="2644" y="63"/><text fill="#000000" font-family="sans-serif" font-size="12" font-style="italic" lengthAdjust="spacingAndGlyphs" textLength="16" x="2649" y="75.6016">DB</text><line style="stroke: #A80036; stroke-width: 1.5;" x1="2522" x2="2666" y1="98" y2="98"/><text fill="#000000" font-family="sans-serif" font-size="11" lengthAdjust="spacingAndGlyphs" textLength="132" x="2527" y="112.6348">from: AuthenticatedUser</text><text fill="#000000" font-family="sans-serif" font-size="11" lengthAdjust="spacingAndGlyphs" textLength="75" x="2527" y="125.5898">dvo: DvObject</text><text fill="#000000" font-family="sans-serif" font-size="11" lengthAdjust="spacingAndGlyphs" textLength="79" x="2527" y="138.5449">metadata : TBD</text><line style="stroke: #A80036; stroke-width: 1.5;" x1="2522" x2="2666" y1="144.8652" y2="144.8652"/><rect fill="#FEFECE" filter="url(#f1)" height="73.9102" style="stroke: #A80036; stroke-width: 1.5;" width="111" x="2374.5" y="72.5"/><ellipse cx="2398.5" cy="88.5" fill="#B4A7E5" rx="11" ry="11" style="stroke: #A80036; stroke-width: 1.0;"/><path d="M2394.4277,84.2651 L2394.4277,82.1069 L2401.8071,82.1069 L2401.8071,84.2651 L2399.3418,84.2651 L2399.3418,92.3418 L2401.8071,92.3418 L2401.8071,94.5 L2394.4277,94.5 L2394.4277,92.3418 L2396.8931,92.3418 L2396.8931,84.2651 Z "/><text fill="#000000" font-family="sans-serif" font-size="12" font-style="italic" lengthAdjust="spacingAndGlyphs" textLength="59" x="2414.5" y="93.0352">Command</text><line style="stroke: #A80036; stroke-width: 1.5;" x1="2375.5" x2="2484.5" y1="104.5" y2="104.5"/><text fill="#000000" font-family="sans-serif" font-size="11" lengthAdjust="spacingAndGlyphs" textLength="78" x="2380.5" y="119.1348">issuedBy: User</text><text fill="#000000" font-family="sans-serif" font-size="11" lengthAdjust="spacingAndGlyphs" textLength="99" x="2380.5" y="132.0898">effects: DvObject[]</text><line style="stroke: #A80036; stroke-width: 1.5;" x1="2375.5" x2="2484.5" y1="138.4102" y2="138.4102"/><path d="M1888.75,165.06 C1905.79,199.798 1926.97,242.998 1939.72,268.99 " fill="none" style="stroke: #A80036; stroke-width: 1.0;"/><polygon fill="none" points="1882.32,167.83,1879.8,146.79,1894.89,161.67,1882.32,167.83" style="stroke: #A80036; stroke-width: 1.0;"/><path d="M1801.07,159.22 C1771.34,182.99 1735.43,211.696 1704.63,236.33 " fill="none" style="stroke: #A80036; stroke-width: 1.0;"/><polygon fill="none" points="1796.89,153.6,1816.88,146.58,1805.63,164.53,1796.89,153.6" style="stroke: #A80036; stroke-width: 1.0;"/><path d="M1939.73,336.586 C1927.32,383.263 1906.64,460.326 1888,526.5 C1875.63,570.394 1860.54,621.45 1851.92,650.372 " fill="none" style="stroke: #A80036; stroke-width: 1.0;"/><polygon fill="none" points="1933,334.678,1944.89,317.142,1946.53,338.268,1933,334.678" style="stroke: #A80036; stroke-width: 1.0;"/><path d="M1967.13,336.422 C1979.91,370.051 1997.45,416.182 2008.75,445.918 " fill="none" style="stroke: #A80036; stroke-width: 1.0;"/><polygon fill="none" points="1960.44,338.539,1959.88,317.356,1973.53,333.564,1960.44,338.539" style="stroke: #A80036; stroke-width: 1.0;"/><path d="M1695.81,365.205 C1713.24,385.62 1731.86,407.42 1747.9,426.202 " fill="none" style="stroke: #A80036; stroke-width: 1.0;"/><polygon fill="none" points="1690.44,369.692,1682.77,349.937,1701.08,360.6,1690.44,369.692" style="stroke: #A80036; stroke-width: 1.0;"/><path d="M1577.34,365.683 C1552.56,396.48 1525.32,430.346 1507.73,452.212 " fill="none" style="stroke: #A80036; stroke-width: 1.0;"/><polygon fill="none" points="1572.01,361.133,1590,349.937,1582.92,369.908,1572.01,361.133" style="stroke: #A80036; stroke-width: 1.0;"/><path d="M1635,369.939 C1635,399.562 1635,431.349 1635,452.212 " fill="none" style="stroke: #A80036; stroke-width: 1.0;"/><polygon fill="none" points="1628,369.937,1635,349.937,1642,369.937,1628,369.937" style="stroke: #A80036; stroke-width: 1.0;"/><path d="M1514.95,335.829 C1442.15,361.456 1347.49,395.235 1264,426.5 C1247.52,432.672 1229.89,439.465 1213.22,445.976 " fill="none" style="stroke: #A80036; stroke-width: 1.0;"/><polygon fill="none" points="1512.73,329.19,1533.92,329.162,1517.37,342.398,1512.73,329.19" style="stroke: #A80036; stroke-width: 1.0;"/><path d="M1516.2,357.612 C1478.52,378.679 1437.05,402.812 1400,426.5 C1390.56,432.536 1380.65,439.374 1371.4,445.985 " fill="none" style="stroke: #A80036; stroke-width: 1.0;"/><polygon fill="none" points="1512.9,351.438,1533.79,347.848,1519.7,363.677,1512.9,351.438" style="stroke: #A80036; stroke-width: 1.0;"/><path d="M1941.04,674.5 C1959.6,674.5 1978.17,674.5 1996.73,674.5 " fill="none" style="stroke: #A80036; stroke-width: 1.0;"/><polygon fill="#A80036" points="1927.85,674.5,1933.85,678.5,1939.85,674.5,1933.85,670.5,1927.85,674.5" style="stroke: #A80036; stroke-width: 1.0;"/><text fill="#000000" font-family="sans-serif" font-size="13" lengthAdjust="spacingAndGlyphs" textLength="8" x="1935.5851" y="671.4142">1</text><text fill="#000000" font-family="sans-serif" font-size="13" lengthAdjust="spacingAndGlyphs" textLength="22" x="1966.8798" y="671.1331">0..*</text><path d="M2651.28,293 C2623.25,293 2586.13,293 2554.89,293 " fill="none" style="stroke: #A80036; stroke-width: 1.0;"/><polygon fill="#A80036" points="2549.52,293,2558.52,297,2554.52,293,2558.52,289,2549.52,293" style="stroke: #A80036; stroke-width: 1.0;"/><text fill="#000000" font-family="sans-serif" font-size="13" lengthAdjust="spacingAndGlyphs" textLength="65" x="2568" y="286.5684">Defined at</text><path d="M2493,322.451 C2493,358.255 2493,419.066 2493,452.233 " fill="none" style="stroke: #A80036; stroke-width: 1.0;"/><polygon fill="#A80036" points="2493,317.356,2489,326.356,2493,322.356,2497,326.356,2493,317.356" style="stroke: #A80036; stroke-width: 1.0;"/><text fill="#000000" font-family="sans-serif" font-size="13" lengthAdjust="spacingAndGlyphs" textLength="14" x="2494" y="393.0684">At</text><text fill="#000000" font-family="sans-serif" font-size="13" lengthAdjust="spacingAndGlyphs" textLength="8" x="2484.025" y="337.7271">1</text><path d="M2664.42,320.711 C2625.06,356.254 2556.1,418.523 2518.77,452.233 " fill="none" style="stroke: #A80036; stroke-width: 1.0;"/><polygon fill="#A80036" points="2668.13,317.356,2658.7727,320.4287,2664.4226,320.7108,2664.1405,326.3606,2668.13,317.356" style="stroke: #A80036; stroke-width: 1.0;"/><text fill="#000000" font-family="sans-serif" font-size="13" lengthAdjust="spacingAndGlyphs" textLength="50" x="2595" y="393.0684">Assigns</text><text fill="#000000" font-family="sans-serif" font-size="13" lengthAdjust="spacingAndGlyphs" textLength="8" x="2652.8492" y="337.7271">1</text><path d="M2417.31,460.136 C2363.07,447.411 2289.27,426.52 2229,396.5 C2111.69,338.073 2099.99,295.539 1997,214.5 C1969.52,192.88 1938.64,169.06 1913.36,149.67 " fill="none" style="stroke: #A80036; stroke-width: 1.0;"/><polygon fill="#A80036" points="1909.35,146.6,1914.0613,155.2489,1913.319,149.641,1918.9269,148.8986,1909.35,146.6" style="stroke: #A80036; stroke-width: 1.0;"/><text fill="#000000" font-family="sans-serif" font-size="13" lengthAdjust="spacingAndGlyphs" textLength="16" x="2151" y="298.0684">To</text><text fill="#000000" font-family="sans-serif" font-size="13" lengthAdjust="spacingAndGlyphs" textLength="8" x="1908.8008" y="166.8684">1</text><path d="M1799.69,426.36 C1813.98,353.926 1840.45,219.77 1853.82,151.99 " fill="none" style="stroke: #A80036; stroke-width: 1.0; stroke-dasharray: 7.0,7.0;"/><polygon fill="#A80036" points="1854.83,146.83,1849.1562,154.8803,1853.8577,151.7345,1857.0034,156.436,1854.83,146.83" style="stroke: #A80036; stroke-width: 1.0;"/><text fill="#000000" font-family="sans-serif" font-size="13" lengthAdjust="spacingAndGlyphs" textLength="56" x="1843" y="298.0684">Contains</text><path d="M1807.44,539.659 C1816.5,571.923 1827.24,610.197 1834.91,637.535 " fill="none" style="stroke: #A80036; stroke-width: 1.0;"/><polygon fill="#A80036" points="1838.51,650.372,1839.9298,640.626,1837.1592,645.5579,1832.2273,642.7873,1838.51,650.372" style="stroke: #A80036; stroke-width: 1.0;"/><line style="stroke: #A80036; stroke-width: 1.0;" x1="1837.1592" x2="1835" y1="645.5579" y2="637.856"/><polygon fill="none" points="1803.81,526.706,1801.5804,533.5638,1807.0531,538.2594,1809.2827,531.4017,1803.81,526.706" style="stroke: #A80036; stroke-width: 1.0;"/><path d="M1750.98,537.726 C1736.85,559.523 1720.82,584.263 1706.35,606.599 " fill="none" style="stroke: #A80036; stroke-width: 1.0;"/><polygon fill="#A80036" points="1699.16,617.689,1707.4098,612.3093,1701.878,613.4923,1700.695,607.9605,1699.16,617.689" style="stroke: #A80036; stroke-width: 1.0;"/><line style="stroke: #A80036; stroke-width: 1.0;" x1="1701.878" x2="1706.23" y1="613.4923" y2="606.779"/><polygon fill="none" points="1758.12,526.706,1751.501,529.5677,1751.5968,536.7782,1758.2158,533.9165,1758.12,526.706" style="stroke: #A80036; stroke-width: 1.0;"/><path d="M1883.2,439.03 C1897.08,434.373 1911.32,430.014 1925,426.5 C2140.22,371.224 2214.25,435.84 2419,349.5 C2432.93,343.624 2446.63,334.561 2458.38,325.45 " fill="none" style="stroke: #A80036; stroke-width: 1.0;"/><polygon fill="#A80036" points="2468.57,317.16,2461.3918,317.848,2459.266,324.7387,2466.4442,324.0507,2468.57,317.16" style="stroke: #A80036; stroke-width: 1.0;"/><polygon fill="#A80036" points="1870.58,443.375,1880.3926,444.2194,1875.3063,441.7435,1877.7822,436.6573,1870.58,443.375" style="stroke: #A80036; stroke-width: 1.0;"/><line style="stroke: #A80036; stroke-width: 1.0;" x1="1875.3063" x2="1882.875" y1="441.7435" y2="439.142"/><text fill="#000000" font-family="sans-serif" font-size="13" lengthAdjust="spacingAndGlyphs" textLength="48" x="2331" y="393.0684">Defines</text><text fill="#000000" font-family="sans-serif" font-size="13" lengthAdjust="spacingAndGlyphs" textLength="22" x="1878.4502" y="437.4732">0..*</text><text fill="#000000" font-family="sans-serif" font-size="13" lengthAdjust="spacingAndGlyphs" textLength="8" x="2453.6402" y="337.4833">1</text><path d="M582,738.185 C582,756.927 582,777.573 582,796.685 " fill="none" style="stroke: #A80036; stroke-width: 1.0;"/><polygon fill="#A80036" points="582,809.954,586,800.954,582,804.954,578,800.954,582,809.954" style="stroke: #A80036; stroke-width: 1.0;"/><line style="stroke: #A80036; stroke-width: 1.0;" x1="582" x2="582" y1="804.954" y2="796.954"/><polygon fill="#A80036" points="582,724.924,578,730.924,582,736.924,586,730.924,582,724.924" style="stroke: #A80036; stroke-width: 1.0;"/><text fill="#000000" font-family="sans-serif" font-size="13" lengthAdjust="spacingAndGlyphs" textLength="22" x="558.5906" y="799.3507">1..*</text><path d="M698.873,933.026 C739.478,955.792 782.403,979.859 812.781,996.89 " fill="none" style="stroke: #A80036; stroke-width: 1.0; stroke-dasharray: 7.0,7.0;"/><polygon fill="none" points="695.375,939.09,681.353,923.203,702.221,926.878,695.375,939.09" style="stroke: #A80036; stroke-width: 1.0;"/><path d="M583.497,943.605 C583.771,957.534 584.045,971.469 584.283,983.551 " fill="none" style="stroke: #A80036; stroke-width: 1.0;"/><polygon fill="none" points="576.495,943.553,583.1,923.419,590.492,943.278,576.495,943.553" style="stroke: #A80036; stroke-width: 1.0;"/><path d="M596.18,1077.9 C599.075,1092.374 602.034,1107.1684 604.378,1118.8917 " fill="none" style="stroke: #A80036; stroke-width: 1.0;"/><polygon fill="none" points="589.259,1078.988,592.201,1058.004,602.987,1076.243,589.259,1078.988" style="stroke: #A80036; stroke-width: 1.0;"/><path d="M445.968,1060.484 C484.387,1079.693 529.589,1102.2946 562.641,1118.8203 " fill="none" style="stroke: #A80036; stroke-width: 1.0;"/><polygon fill="none" points="442.776,1066.714,428.018,1051.509,449.037,1054.192,442.776,1066.714" style="stroke: #A80036; stroke-width: 1.0;"/><path d="M685.156,1066.186 C725.688,1084.068 770.794,1103.9681 804.621,1118.8917 " fill="none" style="stroke: #A80036; stroke-width: 1.0;"/><polygon fill="none" points="682.082,1072.481,666.609,1058.004,687.733,1059.672,682.082,1072.481" style="stroke: #A80036; stroke-width: 1.0;"/><path d="M454.921,1057.496 C528.773,1078.831 648.022,1102.6737 738.638,1119.9795 " fill="none" style="stroke: #A80036; stroke-width: 1.0;"/><polygon fill="none" points="452.458,1064.063,435.356,1051.552,456.527,1050.668,452.458,1064.063" style="stroke: #A80036; stroke-width: 1.0;"/><path d="M292.414,1060.615 C254.371,1079.796 209.675,1102.3321 176.973,1118.8203 " fill="none" style="stroke: #A80036; stroke-width: 1.0;"/><polygon fill="none" points="289.464,1054.263,310.474,1051.509,295.767,1066.764,289.464,1054.263" style="stroke: #A80036; stroke-width: 1.0;"/><path d="M369,1071.7 C369,1087.983 369,1105.3096 369,1118.6871 " fill="none" style="stroke: #A80036; stroke-width: 1.0;"/><polygon fill="none" points="362,1071.663,369,1051.663,376,1071.663,362,1071.663" style="stroke: #A80036; stroke-width: 1.0;"/><path d="M736.818,866.5 C751.108,866.5 765.399,866.5 779.69,866.5 " fill="none" style="stroke: #A80036; stroke-width: 1.0;"/><polygon fill="#A80036" points="792.814,866.5,783.814,862.5,787.814,866.5,783.814,870.5,792.814,866.5" style="stroke: #A80036; stroke-width: 1.0;"/><line style="stroke: #A80036; stroke-width: 1.0;" x1="787.814" x2="779.814" y1="866.5" y2="866.5"/><polygon fill="#A80036" points="723.562,866.5,729.562,870.5,735.562,866.5,729.562,862.5,723.562,866.5" style="stroke: #A80036; stroke-width: 1.0;"/><path d="M1741.18,329.245 C1763.19,336.218 1786.29,343.293 1808,349.5 C1942.84,388.051 2027.78,315.896 2114,426.5 C2203.76,541.647 2212.52,647.254 2114,755 C2063.76,809.944 848.569,798.569 775,810 C758.205,812.61 740.808,816.238 723.646,820.403 " fill="none" style="stroke: #A80036; stroke-width: 1.0; stroke-dasharray: 7.0,7.0;"/><polygon fill="#A80036" points="1736.21,327.665,1743.5755,334.2033,1740.9751,329.1795,1745.9988,326.5791,1736.21,327.665" style="stroke: #A80036; stroke-width: 1.0;"/><text fill="#000000" font-family="sans-serif" font-size="13" lengthAdjust="spacingAndGlyphs" textLength="47" x="2185" y="570.0684">Creates</text><path d="M1820.5,702.252 C1801.81,720.692 1774.34,743.817 1745,755 C1543.26,831.897 987.85,773.83 775,810 C758.244,812.847 740.87,816.623 723.722,820.87 " fill="none" style="stroke: #A80036; stroke-width: 1.0; stroke-dasharray: 7.0,7.0;"/><polygon fill="#A80036" points="1824.13,698.632,1814.9412,702.1768,1820.598,702.1711,1820.6037,707.828,1824.13,698.632" style="stroke: #A80036; stroke-width: 1.0;"/><text fill="#000000" font-family="sans-serif" font-size="13" lengthAdjust="spacingAndGlyphs" textLength="105" x="1721" y="776.5684">Creates/Updates</text><path d="M2667.07,138.95 C2699.55,155.7 2734.56,180.41 2753,214.5 C2818.97,336.471 2846.75,424.33 2753,526.5 C2670.66,616.23 2328.56,566.14 2207,573.5 C2181.7,575.032 2003.08,573.565 1979,581.5 C1938.3,594.915 1898.73,624.793 1873.27,646.879 " fill="none" style="stroke: #A80036; stroke-width: 1.0; stroke-dasharray: 7.0,7.0;"/><polygon fill="#A80036" points="1869.31,650.353,1878.7123,647.4208,1873.0673,647.0541,1873.434,641.4092,1869.31,650.353" style="stroke: #A80036; stroke-width: 1.0;"/><text fill="#000000" font-family="sans-serif" font-size="13" lengthAdjust="spacingAndGlyphs" textLength="32" x="2814" y="393.0684">From</text><path d="M2570.32,153.05 C2551.23,187.37 2524.93,234.629 2508.45,264.238 " fill="none" style="stroke: #A80036; stroke-width: 1.0; stroke-dasharray: 7.0,7.0;"/><polygon fill="#A80036" points="2505.89,268.834,2513.7589,262.9111,2508.3193,264.4638,2506.7666,259.0242,2505.89,268.834" style="stroke: #A80036; stroke-width: 1.0;"/><text fill="#000000" font-family="sans-serif" font-size="13" lengthAdjust="spacingAndGlyphs" textLength="36" x="2551" y="203.0684">about</text><path d="M2374.24,125.34 C2308.55,143.5 2196.63,176.55 2104,214.5 C2061.72,231.822 2015.15,256.224 1984.63,272.995 " fill="none" style="stroke: #A80036; stroke-width: 1.0; stroke-dasharray: 7.0,7.0;"/><polygon fill="#A80036" points="1980.24,275.412,1990.0527,274.5692,1984.6185,272.9977,1986.1899,267.5635,1980.24,275.412" style="stroke: #A80036; stroke-width: 1.0;"/><text fill="#000000" font-family="sans-serif" font-size="13" lengthAdjust="spacingAndGlyphs" textLength="59" x="2167" y="203.0684">Issued By</text><text fill="#000000" font-family="sans-serif" font-size="13" lengthAdjust="spacingAndGlyphs" textLength="22" x="2344.5209" y="123.8958">0..*</text><text fill="#000000" font-family="sans-serif" font-size="13" lengthAdjust="spacingAndGlyphs" textLength="8" x="1987.9268" y="267.2147">1</text><path d="M2442.6,146.79 C2454.6,181.36 2472.4,232.649 2483.32,264.116 " fill="none" style="stroke: #A80036; stroke-width: 1.0; stroke-dasharray: 7.0,7.0;"/><polygon fill="#A80036" points="2485.01,268.99,2485.84,259.1762,2483.3716,264.2661,2478.2817,261.7976,2485.01,268.99" style="stroke: #A80036; stroke-width: 1.0;"/><text fill="#000000" font-family="sans-serif" font-size="13" lengthAdjust="spacingAndGlyphs" textLength="43" x="2465" y="203.0684">effects</text><text fill="#000000" font-family="sans-serif" font-size="13" lengthAdjust="spacingAndGlyphs" textLength="22" x="2457.9064" y="258.1318">1..*</text></g></svg>